<svg width="1499" height="1895" viewBox="0 0 1499 1895" fill="none" xmlns="http://www.w3.org/2000/svg">
<g filter="url(#filter0_f_1586_76436)">
<path d="M426.948 1358.03C235.948 910.03 451.923 1294.93 608.923 790.43C599.923 701.777 563.473 505.029 567.973 409.529C572.473 314.029 663.473 346.03 917.973 441.53C1172.47 537.03 814.448 587.93 975.948 790.43C1137.45 992.93 1154.47 1278.53 1145.47 1289.53C1136.47 1300.53 617.948 1806.03 426.948 1358.03Z" fill="url(#paint0_linear_1586_76436)" fill-opacity="0.6"/>
<path d="M426.948 1358.03C235.948 910.03 451.923 1294.93 608.923 790.43C599.923 701.777 563.473 505.029 567.973 409.529C572.473 314.029 663.473 346.03 917.973 441.53C1172.47 537.03 814.448 587.93 975.948 790.43C1137.45 992.93 1154.47 1278.53 1145.47 1289.53C1136.47 1300.53 617.948 1806.03 426.948 1358.03Z" stroke="black"/>
</g>
<defs>
<filter id="filter0_f_1586_76436" x="0.5" y="0.430176" width="1498.4" height="1894.01" filterUnits="userSpaceOnUse" color-interpolation-filters="sRGB">
<feFlood flood-opacity="0" result="BackgroundImageFix"/>
<feBlend mode="normal" in="SourceGraphic" in2="BackgroundImageFix" result="shape"/>
<feGaussianBlur stdDeviation="175.5" result="effect1_foregroundBlur_1586_76436"/>
</filter>
<linearGradient id="paint0_linear_1586_76436" x1="790.177" y1="351.93" x2="790.177" y2="1542.94" gradientUnits="userSpaceOnUse">
<stop stop-color="#358F43"/>
<stop offset="1" stop-color="#F0C024"/>
</linearGradient>
</defs>
</svg>
