<svg width="1082" height="1377" viewBox="0 0 1082 1377" fill="none" xmlns="http://www.w3.org/2000/svg">
<g filter="url(#filter0_f_1526_26346)">
<path d="M301.141 994.161C159.152 661.056 319.707 947.244 436.421 572.129C429.73 506.211 402.634 359.922 405.979 288.914C409.324 217.906 476.973 241.699 666.169 312.707C855.364 383.715 589.208 421.562 709.268 572.129C829.327 722.695 841.983 935.05 835.292 943.229C828.602 951.408 443.13 1327.27 301.141 994.161Z" fill="url(#paint0_linear_1526_26346)" fill-opacity="0.6"/>
<path d="M301.141 994.161C159.152 661.056 319.707 947.244 436.421 572.129C429.73 506.211 402.634 359.922 405.979 288.914C409.324 217.906 476.973 241.699 666.169 312.707C855.364 383.715 589.208 421.562 709.268 572.129C829.327 722.695 841.983 935.05 835.292 943.229C828.602 951.408 443.13 1327.27 301.141 994.161Z" stroke="black" stroke-width="0.697292"/>
</g>
<defs>
<filter id="filter0_f_1526_26346" x="0.326187" y="0.988297" width="1081.5" height="1375.76" filterUnits="userSpaceOnUse" color-interpolation-filters="sRGB">
<feFlood flood-opacity="0" result="BackgroundImageFix"/>
<feBlend mode="normal" in="SourceGraphic" in2="BackgroundImageFix" result="shape"/>
<feGaussianBlur stdDeviation="122.375" result="effect1_foregroundBlur_1526_26346"/>
</filter>
<linearGradient id="paint0_linear_1526_26346" x1="571.165" y1="246.086" x2="571.165" y2="1131.65" gradientUnits="userSpaceOnUse">
<stop stop-color="#15381A"/>
<stop offset="1" stop-color="#846C1F"/>
</linearGradient>
</defs>
</svg>
