<svg width="1499" height="1895" viewBox="0 0 1499 1895" fill="none" xmlns="http://www.w3.org/2000/svg">
<g filter="url(#filter0_f_1586_76436)">
<path d="M426.948 1357.99C235.948 909.988 451.923 1294.89 608.923 790.389C599.923 701.735 563.473 504.988 567.973 409.488C572.473 313.988 663.473 345.988 917.973 441.488C1172.47 536.988 814.448 587.889 975.948 790.389C1137.45 992.889 1154.47 1278.49 1145.47 1289.49C1136.47 1300.49 617.948 1805.99 426.948 1357.99Z" fill="url(#paint0_linear_1586_76436)" fill-opacity="0.6"/>
<path d="M426.948 1357.99C235.948 909.988 451.923 1294.89 608.923 790.389C599.923 701.735 563.473 504.988 567.973 409.488C572.473 313.988 663.473 345.988 917.973 441.488C1172.47 536.988 814.448 587.889 975.948 790.389C1137.45 992.889 1154.47 1278.49 1145.47 1289.49C1136.47 1300.49 617.948 1805.99 426.948 1357.99Z" stroke="black"/>
</g>
<defs>
<filter id="filter0_f_1586_76436" x="0.5" y="0.388885" width="1498.4" height="1894.01" filterUnits="userSpaceOnUse" color-interpolation-filters="sRGB">
<feFlood flood-opacity="0" result="BackgroundImageFix"/>
<feBlend mode="normal" in="SourceGraphic" in2="BackgroundImageFix" result="shape"/>
<feGaussianBlur stdDeviation="175.5" result="effect1_foregroundBlur_1586_76436"/>
</filter>
<linearGradient id="paint0_linear_1586_76436" x1="790.177" y1="351.889" x2="790.177" y2="1542.9" gradientUnits="userSpaceOnUse">
<stop stop-color="#358F43"/>
<stop offset="1" stop-color="#F0C024"/>
</linearGradient>
</defs>
</svg>
