<svg width="76" height="21" viewBox="0 0 76 21" fill="none" xmlns="http://www.w3.org/2000/svg">
<mask id="mask0_2057_97101" style="mask-type:luminance" maskUnits="userSpaceOnUse" x="0" y="0" width="76" height="21">
<path d="M75.8398 0.383789H0.664551V20.4737H75.8398V0.383789Z" fill="white"/>
</mask>
<g mask="url(#mask0_2057_97101)">
<path d="M8.83074 3.4245L1.96846 0.460839C1.82593 0.399189 1.67059 0.374404 1.51633 0.388703C1.36206 0.403001 1.2137 0.455936 1.08449 0.542773C0.95529 0.62961 0.849284 0.74764 0.775957 0.886304C0.70263 1.02497 0.664269 1.17994 0.664307 1.33736V8.96493C0.664302 9.12711 0.702967 9.28687 0.776991 9.43054C0.851016 9.57422 0.958196 9.69752 1.08936 9.78991C1.22052 9.88229 1.37175 9.941 1.53012 9.96101C1.68848 9.98102 1.84926 9.96174 1.99869 9.90481L6.55166 8.17001L1.61892 6.08143C1.54829 6.04823 1.49306 5.98852 1.46483 5.91483C1.4366 5.84114 1.43756 5.75919 1.46751 5.6862C1.49746 5.61321 1.55408 5.55486 1.62546 5.52338C1.69685 5.49191 1.77746 5.48976 1.85037 5.5174L7.37685 7.85607L8.93041 7.26373C11.5888 6.32672 11.7272 4.45463 8.83121 3.42354M9.48117 5.85054C9.45047 5.92516 9.39193 5.98438 9.31836 6.01524C9.2448 6.04609 9.1622 6.04608 9.08864 6.01519L1.5065 2.80623C1.47006 2.79082 1.43696 2.76826 1.4091 2.73985C1.38123 2.71144 1.35915 2.67773 1.3441 2.64064C1.31372 2.56574 1.31386 2.48165 1.34449 2.40685C1.37512 2.33206 1.43373 2.27269 1.50743 2.24181C1.58113 2.21094 1.66388 2.21108 1.73748 2.2422L9.31915 5.45212C9.35566 5.46751 9.38883 5.49008 9.41674 5.51852C9.44466 5.54696 9.46678 5.58073 9.48183 5.61787C9.49688 5.65502 9.50457 5.69482 9.50445 5.73499C9.50434 5.77516 9.49643 5.81492 9.48117 5.85198" fill="#CC0066"/>
<path d="M45.6297 12.5868C45.6341 12.8165 45.5989 13.0453 45.5257 13.2627C45.464 13.4429 45.3634 13.6069 45.2315 13.7427C45.1025 13.8717 44.9461 13.9689 44.7743 14.0269C44.5829 14.0907 44.3824 14.122 44.181 14.1195C44.0865 14.1195 43.9749 14.1152 43.8461 14.1066C43.7247 14.0998 43.6049 14.0752 43.4904 14.0336C43.4317 14.0218 43.3788 13.9896 43.3409 13.9425C43.303 13.8953 43.2826 13.8362 43.283 13.7753V11.3815C43.2802 11.3352 43.2955 11.2896 43.3256 11.2547C43.3575 11.2221 43.3967 11.1978 43.4399 11.1837C43.5522 11.1482 43.6679 11.125 43.7851 11.1146C43.908 11.1031 44.0273 11.0973 44.1432 11.0973C44.3485 11.095 44.5528 11.1254 44.7488 11.1875C44.9248 11.2426 45.0863 11.3374 45.2211 11.465C45.3549 11.5959 45.4583 11.7554 45.5239 11.932C45.5998 12.1414 45.6365 12.3633 45.632 12.5863M45.1365 12.5906C45.1403 12.4254 45.1152 12.2608 45.0624 12.1044C45.0189 11.9793 44.9478 11.866 44.8546 11.7732C44.7651 11.6866 44.658 11.6211 44.5409 11.5812C44.4159 11.5388 44.2849 11.5177 44.1531 11.5188C44.0224 11.5165 43.8918 11.5281 43.7634 11.5533V13.6625C43.8282 13.6778 43.8941 13.6879 43.9604 13.6928C44.0325 13.6985 44.1067 13.7014 44.1829 13.7014C44.3139 13.7103 44.4453 13.6898 44.5677 13.6415C44.6902 13.5931 44.8006 13.5181 44.8914 13.4216C45.07 13.1842 45.1567 12.8886 45.1351 12.5906" fill="#CC0066"/>
<path d="M46.1298 11.1363C46.1287 11.098 46.1351 11.0598 46.1485 11.024C46.162 10.9881 46.1822 10.9553 46.2082 10.9275C46.2346 10.8995 46.2666 10.8776 46.302 10.8631C46.3375 10.8486 46.3755 10.8419 46.4136 10.8435C46.4511 10.8422 46.4884 10.8491 46.5231 10.8636C46.5578 10.878 46.5891 10.8998 46.6149 10.9275C46.6654 10.9849 46.6933 11.0593 46.6933 11.1363C46.6933 11.2133 46.6654 11.2877 46.6149 11.3451C46.5891 11.3728 46.5578 11.3945 46.5231 11.409C46.4884 11.4235 46.4511 11.4303 46.4136 11.4291C46.3755 11.4307 46.3375 11.424 46.302 11.4095C46.2666 11.395 46.2346 11.3731 46.2082 11.3451C46.1822 11.3173 46.162 11.2845 46.1485 11.2486C46.135 11.2128 46.1287 11.1746 46.1298 11.1363ZM46.6465 14.0548C46.6183 14.066 46.5893 14.0747 46.5596 14.0808C46.5186 14.0897 46.4768 14.094 46.4349 14.0937C46.3664 14.0994 46.2982 14.0804 46.2422 14.04C46.2198 14.0165 46.2027 13.9884 46.1921 13.9575C46.1815 13.9267 46.1777 13.8939 46.1808 13.8614V11.8362L46.2696 11.8126C46.3111 11.8021 46.3538 11.7971 46.3966 11.7978C46.4639 11.7922 46.5309 11.8113 46.5856 11.8515C46.6075 11.8761 46.6241 11.9051 46.6343 11.9366C46.6445 11.9681 46.648 12.0014 46.6446 12.0344L46.6465 14.0548Z" fill="#CC0066"/>
<path d="M48.6607 13.8523C48.5962 13.8938 48.5265 13.9261 48.4533 13.9483C48.3583 13.976 48.2598 13.9891 48.161 13.9872C48.0337 13.988 47.9072 13.9675 47.7864 13.9267C47.6699 13.8869 47.5636 13.8213 47.4751 13.7347C47.3799 13.6394 47.3075 13.5231 47.2635 13.3948C47.2084 13.2277 47.1826 13.0521 47.1875 12.8759C47.1843 12.7112 47.2101 12.5472 47.2635 12.3916C47.3095 12.2602 47.3841 12.1411 47.4817 12.0431C47.5774 11.9491 47.6913 11.8765 47.8162 11.83C47.9554 11.7794 48.1024 11.7547 48.2502 11.757C48.3866 11.7558 48.5224 11.776 48.6527 11.817C48.7606 11.8501 48.8633 11.8986 48.9578 11.961C49.0031 11.9926 49.0419 12.0329 49.0721 12.0796C49.1018 12.1294 49.1166 12.1869 49.1146 12.2452V14.1254C49.1183 14.2671 49.0924 14.408 49.0386 14.5387C48.9915 14.6487 48.9179 14.745 48.8246 14.8186C48.7274 14.8928 48.6163 14.9462 48.4982 14.9755C48.3658 15.0089 48.2298 15.025 48.0934 15.0235C47.962 15.0257 47.8309 15.0095 47.7037 14.9755C47.6185 14.9533 47.536 14.9211 47.4581 14.8795C47.3975 14.8419 47.353 14.7826 47.3335 14.7133C47.3139 14.6439 47.3206 14.5697 47.3523 14.5051C47.372 14.4679 47.4012 14.4367 47.4368 14.4149C47.5201 14.4746 47.6114 14.5216 47.708 14.5546C47.8249 14.5968 47.9481 14.6179 48.0722 14.617C48.2263 14.6265 48.3791 14.5832 48.5063 14.4941C48.5607 14.4453 48.603 14.3843 48.6298 14.3158C48.6567 14.2473 48.6672 14.1734 48.6607 14.1V13.8523ZM48.2243 13.594C48.3121 13.5965 48.3995 13.5802 48.4807 13.546C48.5444 13.5183 48.6025 13.4789 48.6522 13.4299V12.2725C48.6013 12.2398 48.5466 12.2138 48.4892 12.1953C48.4146 12.171 48.3366 12.1593 48.2583 12.1607C48.1771 12.1574 48.0962 12.1714 48.0207 12.2018C47.9452 12.2323 47.8768 12.2784 47.8199 12.3373C47.6978 12.4863 47.6377 12.6778 47.6527 12.8711C47.6501 12.9848 47.6651 13.0982 47.6971 13.2071C47.7217 13.2898 47.7636 13.3661 47.8199 13.4308C47.8694 13.4863 47.931 13.529 47.9999 13.5556C48.0718 13.5822 48.1478 13.5949 48.2243 13.594Z" fill="#CC0066"/>
<path d="M49.6959 11.1363C49.6949 11.098 49.7012 11.0598 49.7147 11.024C49.7281 10.9881 49.7484 10.9553 49.7743 10.9275C49.8008 10.8995 49.8328 10.8776 49.8682 10.8631C49.9036 10.8486 49.9417 10.8419 49.9798 10.8435C50.0173 10.8422 50.0546 10.849 50.0893 10.8635C50.124 10.878 50.1552 10.8998 50.181 10.9275C50.2315 10.9849 50.2594 11.0593 50.2594 11.1363C50.2594 11.2133 50.2315 11.2877 50.181 11.3451C50.1552 11.3728 50.124 11.3946 50.0893 11.4091C50.0546 11.4235 50.0173 11.4304 49.9798 11.4291C49.9417 11.4307 49.9036 11.424 49.8682 11.4095C49.8328 11.395 49.8008 11.3731 49.7743 11.3451C49.7484 11.3173 49.7281 11.2845 49.7146 11.2486C49.7012 11.2128 49.6948 11.1746 49.6959 11.1363ZM50.2127 14.0548C50.1845 14.066 50.1554 14.0747 50.1257 14.0808C50.0846 14.0897 50.0426 14.0941 50.0006 14.0937C49.9321 14.0995 49.8638 14.0804 49.8079 14.04C49.7855 14.0165 49.7684 13.9884 49.7578 13.9576C49.7472 13.9267 49.7433 13.8939 49.7465 13.8614V11.8362L49.8353 11.8126C49.8768 11.8021 49.9195 11.7971 49.9623 11.7978C50.0296 11.7922 50.0966 11.8113 50.1513 11.8515C50.1732 11.8761 50.1898 11.9051 50.2 11.9366C50.2101 11.9681 50.2136 12.0014 50.2103 12.0344L50.2127 14.0548Z" fill="#CC0066"/>
<path d="M51.4246 13.6531C51.5031 13.7047 51.5958 13.7296 51.6892 13.7241C51.7436 13.7237 51.7978 13.7158 51.8502 13.7006C51.9016 13.6869 51.9514 13.6674 51.9986 13.6425C52.0192 13.6696 52.0377 13.6984 52.0538 13.7284C52.0814 13.7844 52.087 13.849 52.0695 13.909C52.0519 13.969 52.0126 14.0199 51.9594 14.0515C51.8502 14.1131 51.7259 14.1414 51.6013 14.1331C51.4099 14.143 51.2209 14.0861 51.0657 13.9718C50.994 13.9058 50.9385 13.8237 50.9036 13.732C50.8686 13.6403 50.8553 13.5416 50.8645 13.4438V11.2098C50.8953 11.1988 50.9269 11.1902 50.9589 11.1838C51.0007 11.175 51.0433 11.1707 51.086 11.1709C51.1522 11.1654 51.2183 11.1837 51.2726 11.2227C51.2944 11.2461 51.311 11.2739 51.3212 11.3044C51.3314 11.3349 51.335 11.3673 51.3316 11.3994V11.8727H52.0264C52.0402 11.8987 52.0516 11.9261 52.0604 11.9543C52.0719 11.9904 52.0777 12.0282 52.0774 12.0661C52.0774 12.2012 52.0223 12.2685 51.9121 12.2682H51.3316V13.4092C51.3268 13.4545 51.3329 13.5003 51.3493 13.5427C51.3658 13.5851 51.3921 13.6228 51.4261 13.6526" fill="#CC0066"/>
<path d="M53.3307 11.7563C53.5661 11.7432 53.799 11.8108 53.992 11.9484C54.0775 12.0232 54.1444 12.1177 54.1871 12.2239C54.2298 12.3301 54.2471 12.4451 54.2376 12.5594V13.6745C54.2415 13.735 54.2248 13.795 54.1904 13.8444C54.1536 13.8885 54.1108 13.9269 54.0633 13.9587C53.9698 14.012 53.8701 14.0533 53.7666 14.0816C53.6272 14.1198 53.4831 14.1379 53.3387 14.1353C53.1001 14.1494 52.8633 14.0853 52.6632 13.9525C52.5822 13.8905 52.5175 13.8091 52.475 13.7155C52.4325 13.622 52.4134 13.5191 52.4195 13.4163C52.4143 13.3271 52.4285 13.2378 52.4612 13.1548C52.4938 13.0718 52.5441 12.9972 52.6085 12.9362C52.7646 12.8121 52.9546 12.7398 53.1526 12.7294L53.7751 12.6602V12.557C53.7802 12.4994 53.7713 12.4414 53.7491 12.3881C53.727 12.3347 53.6923 12.2878 53.6481 12.2513C53.544 12.1821 53.4209 12.1485 53.2967 12.1552C53.1805 12.1548 53.0649 12.1721 52.9538 12.2066C52.8516 12.2378 52.7523 12.2781 52.6571 12.3271C52.6273 12.299 52.6017 12.2667 52.5811 12.2311C52.5582 12.1923 52.5465 12.1478 52.5473 12.1025C52.548 12.0573 52.5612 12.0132 52.5853 11.9752C52.6165 11.9347 52.6573 11.9028 52.7039 11.8826C52.7945 11.8378 52.8906 11.8055 52.9896 11.7866C53.102 11.7645 53.2162 11.7537 53.3307 11.7544M53.3392 13.7432C53.4321 13.745 53.5249 13.7334 53.6146 13.7086C53.6722 13.6944 53.7269 13.6695 53.7756 13.6352V13.0284L53.2929 13.0803C53.1835 13.0877 53.0774 13.1216 52.9835 13.1791C52.9491 13.2054 52.9218 13.2401 52.904 13.2799C52.8863 13.3198 52.8787 13.3635 52.8819 13.4072C52.8801 13.4539 52.8891 13.5005 52.9082 13.5431C52.9273 13.5857 52.956 13.6232 52.992 13.6524C53.0946 13.721 53.2168 13.7528 53.3392 13.7427" fill="#CC0066"/>
<path d="M55.1225 14.0936C55.0553 14.0984 54.9886 14.0794 54.9336 14.0399C54.9105 14.0168 54.8928 13.9888 54.8818 13.9579C54.8708 13.927 54.8667 13.894 54.8698 13.8613V10.96L54.9586 10.9365C55.0001 10.926 55.0429 10.9209 55.0857 10.9216C55.1525 10.9169 55.219 10.935 55.2746 10.973C55.2978 10.9956 55.3156 11.0232 55.3266 11.0538C55.3377 11.0844 55.3417 11.1172 55.3384 11.1497V14.0552C55.3129 14.0639 55.2814 14.0725 55.2439 14.0812C55.2036 14.0902 55.1624 14.0946 55.1211 14.0941" fill="#CC0066"/>
<path d="M57.4661 13.0646V14.0549C57.4341 14.0653 57.4016 14.074 57.3687 14.0808C57.3269 14.0897 57.2844 14.094 57.2417 14.0938C57.1715 14.0999 57.1015 14.08 57.0447 14.0376C57.0222 14.0128 57.0052 13.9835 56.9946 13.9516C56.984 13.9197 56.9802 13.8858 56.9833 13.8523V11.3855C56.9805 11.3392 56.9958 11.2936 57.0258 11.2587C57.0578 11.2261 57.097 11.2018 57.1401 11.1877C57.2484 11.1506 57.3607 11.1268 57.4746 11.1167C57.6005 11.1039 57.7205 11.0975 57.8345 11.0975C58.1447 11.0717 58.453 11.1654 58.6984 11.36C58.7927 11.4518 58.8665 11.5632 58.9148 11.6865C58.963 11.8098 58.9846 11.9422 58.978 12.0748C58.9839 12.208 58.962 12.3411 58.9139 12.4651C58.8657 12.5892 58.7922 12.7016 58.6984 12.7948C58.464 12.9925 58.1632 13.0898 57.8595 13.066L57.4661 13.0646ZM57.8345 12.647C58.0063 12.6569 58.1762 12.606 58.3153 12.503C58.3753 12.4504 58.4225 12.3843 58.453 12.31C58.4835 12.2357 58.4965 12.1551 58.491 12.0748C58.4977 11.9961 58.486 11.9168 58.457 11.8435C58.4279 11.7702 58.3823 11.7049 58.3238 11.6528C58.1827 11.555 58.0134 11.5081 57.843 11.5194C57.7781 11.5194 57.7117 11.5223 57.6436 11.528C57.5824 11.5329 57.5215 11.5416 57.4613 11.554V12.6474L57.8345 12.647Z" fill="#CC0066"/>
<path d="M60.2553 11.7563C60.4907 11.7431 60.7236 11.8108 60.9166 11.9484C61.0022 12.0232 61.069 12.1176 61.1117 12.2239C61.1544 12.3301 61.1717 12.4451 61.1622 12.5594V13.6745C61.1661 13.735 61.1494 13.795 61.1149 13.8444C61.0782 13.8885 61.0354 13.9269 60.9879 13.9587C60.8944 14.012 60.7948 14.0532 60.6913 14.0816C60.5518 14.1198 60.4077 14.1379 60.2633 14.1353C60.0247 14.1494 59.7879 14.0853 59.5879 13.9525C59.5068 13.8905 59.4421 13.8091 59.3996 13.7155C59.3571 13.622 59.338 13.5191 59.3441 13.4163C59.3389 13.3271 59.3531 13.2378 59.3858 13.1548C59.4184 13.0718 59.4687 12.9972 59.5331 12.9362C59.6892 12.812 59.8792 12.7398 60.0772 12.7294L60.6998 12.6602V12.557C60.7049 12.4994 60.6959 12.4413 60.6738 12.388C60.6516 12.3347 60.6169 12.2877 60.5727 12.2513C60.4686 12.1821 60.3455 12.1484 60.2213 12.1552C60.1051 12.1548 59.9895 12.1721 59.8783 12.2066C59.7762 12.2378 59.6769 12.2781 59.5817 12.3271C59.5519 12.299 59.5263 12.2667 59.5057 12.2311C59.4828 12.1923 59.4711 12.1478 59.4719 12.1025C59.4726 12.0573 59.4858 12.0132 59.5099 11.9752C59.5411 11.9347 59.5819 11.9028 59.6285 11.8826C59.7191 11.8378 59.8152 11.8055 59.9142 11.7866C60.0266 11.7645 60.1408 11.7537 60.2553 11.7544M60.2638 13.7432C60.3567 13.745 60.4494 13.7334 60.5392 13.7086C60.5968 13.6944 60.6514 13.6695 60.7002 13.6352V13.0284L60.2175 13.0803C60.1081 13.0877 60.002 13.1216 59.9081 13.1791C59.8737 13.2054 59.8464 13.2401 59.8286 13.2799C59.8109 13.3198 59.8033 13.3635 59.8066 13.4072C59.8047 13.4539 59.8137 13.5005 59.8328 13.5431C59.8519 13.5857 59.8806 13.6232 59.9166 13.6524C60.0192 13.721 60.1414 13.7528 60.2638 13.7427" fill="#CC0066"/>
<path d="M62.1664 13.5431C62.0901 13.3853 61.9977 13.1629 61.8891 12.8758C61.7805 12.5888 61.6767 12.2644 61.5778 11.9028C61.6081 11.8667 61.6448 11.8368 61.686 11.8145C61.7294 11.7903 61.7782 11.7777 61.8277 11.778C61.8852 11.7753 61.9419 11.7922 61.9888 11.826C62.0392 11.8723 62.0746 11.9331 62.0903 12.0003C62.1722 12.2585 62.2563 12.5133 62.3426 12.7645C62.4288 13.0157 62.5241 13.2747 62.6283 13.5416H62.6453C62.6904 13.4383 62.7362 13.3184 62.7828 13.1821C62.8294 13.0458 62.8746 12.9008 62.9184 12.7472C62.9621 12.5936 63.0039 12.4379 63.0435 12.2801C63.0832 12.1224 63.1185 11.9718 63.1493 11.8284C63.178 11.814 63.2077 11.8018 63.2381 11.7919C63.2739 11.7813 63.311 11.7763 63.3482 11.7771C63.4069 11.7748 63.4648 11.7916 63.5135 11.8251C63.5367 11.8435 63.555 11.8675 63.5668 11.8949C63.5786 11.9223 63.5835 11.9522 63.5811 11.982C63.5742 12.1102 63.5536 12.2372 63.5197 12.3608C63.4787 12.5301 63.4258 12.7181 63.3609 12.9248C63.2961 13.1315 63.2219 13.3395 63.1385 13.5488C63.055 13.7584 62.9709 13.945 62.8862 14.1085C62.7738 14.3356 62.6389 14.5505 62.4838 14.7498C62.4454 14.8092 62.3949 14.8595 62.3357 14.8973C62.2766 14.9352 62.2101 14.9597 62.1409 14.9692C62.1046 14.9713 62.0683 14.966 62.0341 14.9534C61.9999 14.9409 61.9686 14.9214 61.942 14.8963C61.8925 14.8458 61.8595 14.7811 61.8475 14.711C61.9029 14.6604 61.9552 14.6065 62.0044 14.5497C62.0607 14.4857 62.1173 14.4169 62.1739 14.3433C62.2306 14.2697 62.2849 14.1943 62.3369 14.1172C62.3861 14.045 62.4292 13.9687 62.4658 13.8892C62.4107 13.8688 62.3607 13.836 62.3199 13.7932C62.2548 13.7179 62.2026 13.632 62.1654 13.5392" fill="#CC0066"/>
<path d="M66.5211 12.2582C66.4358 12.1899 66.3287 12.1557 66.2202 12.1622C66.1391 12.1618 66.0587 12.1782 65.984 12.2102C65.9077 12.2431 65.8375 12.2889 65.7762 12.3456C65.782 12.3725 65.7862 12.3998 65.789 12.4272C65.7918 12.456 65.7932 12.4848 65.7932 12.5131V14.0545C65.7651 14.0657 65.7359 14.0744 65.7063 14.0804C65.6667 14.0892 65.6263 14.0936 65.5858 14.0934C65.5166 14.0988 65.4477 14.0798 65.3908 14.0396C65.3678 14.0165 65.3502 13.9885 65.3393 13.9576C65.3283 13.9267 65.3243 13.8937 65.3275 13.861V12.565C65.3324 12.5086 65.3251 12.4519 65.3061 12.3987C65.2871 12.3455 65.2568 12.2972 65.2174 12.2573C65.1321 12.1889 65.025 12.1548 64.9165 12.1613C64.8358 12.1608 64.7558 12.1754 64.6803 12.2045C64.615 12.2294 64.5526 12.2616 64.4943 12.3005V14.0569C64.4661 14.0681 64.437 14.0768 64.4073 14.0828C64.3662 14.0918 64.3242 14.0961 64.2821 14.0958C64.2149 14.1005 64.1482 14.0815 64.0933 14.042C64.0702 14.019 64.0524 13.991 64.0414 13.9601C64.0304 13.9292 64.0263 13.8961 64.0295 13.8634V12.288C64.0263 12.2258 64.0402 12.164 64.0696 12.1094C64.105 12.0559 64.1502 12.0098 64.2028 11.9736C64.4215 11.8352 64.6735 11.7608 64.9312 11.7585C65.0598 11.7563 65.1878 11.7774 65.3091 11.8209C65.4138 11.8589 65.5082 11.9216 65.5844 12.0038C65.6732 11.9308 65.7724 11.8721 65.8787 11.8296C66.0063 11.7798 66.1422 11.7557 66.2788 11.7585C66.3907 11.7578 66.5021 11.774 66.6094 11.8065C66.7055 11.8349 66.7944 11.884 66.8701 11.9505C66.9445 12.0184 67.003 12.1022 67.0416 12.1958C67.0866 12.3085 67.1083 12.4295 67.1054 12.551V14.0578C67.0744 14.0681 67.0428 14.0767 67.0109 14.0838C66.9714 14.0926 66.931 14.0969 66.8905 14.0967C66.8233 14.1014 66.7566 14.0824 66.7015 14.043C66.6785 14.0199 66.6608 13.9919 66.6498 13.961C66.6387 13.9301 66.6347 13.8971 66.6378 13.8644V12.5683C66.6429 12.512 66.6356 12.4552 66.6166 12.402C66.5976 12.3488 66.5672 12.3005 66.5277 12.2606" fill="#CC0066"/>
<path d="M68.0835 13.1984C68.1107 13.3588 68.197 13.5027 68.3249 13.6007C68.4628 13.6929 68.6257 13.7388 68.7906 13.7317C68.9072 13.7332 69.0229 13.712 69.1317 13.6693C69.2203 13.6353 69.305 13.5911 69.3839 13.5378C69.4226 13.5582 69.4548 13.5891 69.4773 13.6271C69.4997 13.665 69.5113 13.7086 69.5109 13.7528C69.5104 13.8088 69.4894 13.8625 69.4519 13.9036C69.4067 13.9538 69.3519 13.9941 69.2909 14.0221C69.2154 14.0578 69.1361 14.0845 69.0547 14.1018C68.8008 14.1541 68.5379 14.1376 68.2923 14.0538C68.1557 14.0051 68.0314 13.9264 67.9281 13.8234C67.8229 13.7164 67.7422 13.5871 67.692 13.4447C67.6343 13.278 67.6063 13.1023 67.6093 12.9258C67.6061 12.7537 67.6326 12.5825 67.6877 12.4198C67.7343 12.2842 67.8087 12.1602 67.9059 12.056C67.9986 11.9587 68.1105 11.8825 68.2342 11.8323C68.3615 11.7803 68.4976 11.7541 68.6347 11.755C68.7689 11.7531 68.9021 11.7787 69.0263 11.8303C69.1402 11.8778 69.2434 11.9483 69.3297 12.0375C69.416 12.1267 69.4836 12.2327 69.5284 12.3492C69.5774 12.4753 69.6017 12.6098 69.6002 12.7453C69.603 12.777 69.5995 12.8089 69.5901 12.8392C69.5806 12.8696 69.5652 12.8977 69.545 12.9219C69.5016 12.9625 69.4467 12.988 69.3881 12.9949L68.0835 13.1984ZM68.6343 12.1424C68.5576 12.1405 68.4814 12.1556 68.4109 12.1864C68.3403 12.2172 68.2772 12.2631 68.2257 12.3209C68.1089 12.4622 68.0478 12.6425 68.0542 12.8269L69.1553 12.6589C69.1476 12.5239 69.0962 12.3954 69.0093 12.2931C68.9617 12.2414 68.9034 12.2012 68.8386 12.1751C68.7739 12.149 68.7038 12.1379 68.6343 12.1424Z" fill="#CC0066"/>
<path d="M71.3711 12.2708C71.2769 12.1933 71.1577 12.1541 71.0367 12.1608C70.9418 12.1594 70.8472 12.174 70.757 12.204C70.6837 12.2294 70.6129 12.2615 70.5454 12.3V14.0564C70.5173 14.0677 70.4882 14.0764 70.4585 14.0824C70.4174 14.0913 70.3754 14.0957 70.3333 14.0953C70.2661 14.1001 70.1994 14.0811 70.1444 14.0416C70.1213 14.0185 70.1036 13.9905 70.0926 13.9596C70.0816 13.9287 70.0775 13.8957 70.0806 13.863V12.2876C70.0776 12.2254 70.0916 12.1636 70.1208 12.109C70.1564 12.0554 70.2017 12.0093 70.2545 11.9731C70.3586 11.9136 70.4687 11.8653 70.5828 11.8291C70.7299 11.7813 70.8837 11.7581 71.0381 11.7605C71.2818 11.7464 71.5226 11.8203 71.7178 11.9693C71.8037 12.0483 71.8707 12.1462 71.9137 12.2555C71.9567 12.3648 71.9745 12.4827 71.9658 12.6001V14.0593C71.936 14.07 71.9056 14.0787 71.8746 14.0852C71.8337 14.0942 71.7918 14.0985 71.7499 14.0982C71.6827 14.1029 71.616 14.0839 71.561 14.0444C71.538 14.0214 71.5204 13.9933 71.5094 13.9624C71.4985 13.9315 71.4945 13.8986 71.4977 13.8659V12.6178C71.503 12.5551 71.4947 12.492 71.4735 12.4329C71.4523 12.3738 71.4187 12.3201 71.3749 12.2756" fill="#CC0066"/>
<path d="M73.1477 13.6531C73.2262 13.7047 73.3188 13.7296 73.4122 13.7241C73.4667 13.7237 73.5208 13.7158 73.5732 13.7006C73.6247 13.6869 73.6744 13.6674 73.7215 13.6425C73.7422 13.6696 73.7607 13.6984 73.7768 13.7284C73.8046 13.7844 73.8102 13.849 73.7926 13.909C73.7751 13.9691 73.7356 14.02 73.6823 14.0515C73.5732 14.1131 73.4489 14.1414 73.3243 14.1331C73.1329 14.143 72.9439 14.0861 72.7887 13.9718C72.717 13.9058 72.6615 13.8237 72.6265 13.732C72.5916 13.6403 72.5782 13.5416 72.5874 13.4438V11.2098C72.6183 11.1988 72.6499 11.1902 72.6819 11.1838C72.7237 11.175 72.7663 11.1707 72.809 11.1709C72.8752 11.1654 72.9413 11.1837 72.9955 11.2227C73.0175 11.246 73.0342 11.2739 73.0444 11.3044C73.0547 11.3349 73.0583 11.3673 73.0551 11.3994V11.8727H73.7499C73.7638 11.8987 73.7752 11.926 73.7839 11.9543C73.7955 11.9904 73.8012 12.0282 73.8009 12.0661C73.8009 12.2012 73.7458 12.2685 73.6356 12.2682H73.0551V13.4092C73.0503 13.4545 73.0564 13.5003 73.0728 13.5427C73.0893 13.5851 73.1156 13.6228 73.1496 13.6526" fill="#CC0066"/>
<path d="M75.8397 13.4481C75.8439 13.5435 75.826 13.6387 75.7873 13.7258C75.7487 13.813 75.6904 13.8896 75.6172 13.9497C75.4288 14.084 75.2007 14.1485 74.971 14.1326C74.8617 14.1334 74.7526 14.1232 74.6452 14.1023C74.5587 14.0864 74.4747 14.059 74.3953 14.0207C74.3337 13.9911 74.279 13.9485 74.2347 13.8959C74.1967 13.8518 74.1755 13.7952 74.1752 13.7365C74.175 13.6907 74.1859 13.6456 74.2068 13.605C74.2283 13.5629 74.261 13.5278 74.3013 13.5037C74.3905 13.5652 74.4854 13.6178 74.5847 13.6607C74.7028 13.7102 74.8297 13.7344 74.9574 13.7318C75.0653 13.7389 75.1729 13.7135 75.2667 13.6588C75.3008 13.6359 75.3284 13.6045 75.347 13.5676C75.3655 13.5307 75.3743 13.4895 75.3725 13.4481C75.3744 13.4127 75.3689 13.3774 75.3566 13.3444C75.3442 13.3113 75.3252 13.2812 75.3007 13.256C75.2389 13.2014 75.1645 13.1636 75.0844 13.1461L74.7793 13.0602C74.6136 13.022 74.4604 12.9411 74.3343 12.8255C74.2851 12.7708 74.2473 12.7066 74.2229 12.6368C74.1986 12.5669 74.1883 12.4928 74.1926 12.4189C74.1922 12.329 74.211 12.24 74.2479 12.1582C74.2845 12.0767 74.3388 12.0047 74.4066 11.9475C74.4839 11.8844 74.5724 11.837 74.6674 11.8078C74.7825 11.7717 74.9025 11.7542 75.023 11.756C75.1226 11.7549 75.222 11.7642 75.3197 11.7838C75.3977 11.7994 75.4738 11.8241 75.5464 11.8573C75.6036 11.8825 75.6544 11.9207 75.6947 11.9691C75.7284 12.0093 75.7471 12.0603 75.7476 12.1131C75.7486 12.1583 75.7377 12.2028 75.716 12.2422C75.6964 12.2776 75.6696 12.3084 75.6375 12.3325C75.5602 12.2879 75.4795 12.2497 75.3962 12.2182C75.2881 12.176 75.1732 12.1548 75.0575 12.1558C74.9542 12.1499 74.8514 12.1736 74.7609 12.2245C74.7327 12.2424 74.7088 12.2665 74.6908 12.2948C74.6727 12.3232 74.6611 12.3553 74.6566 12.3887C74.6521 12.4222 74.6548 12.4562 74.6647 12.4885C74.6746 12.5207 74.6913 12.5504 74.7137 12.5754C74.7729 12.6272 74.8446 12.6622 74.9215 12.6767L75.1841 12.7458C75.3687 12.7895 75.5397 12.8791 75.6819 13.0064C75.7364 13.0652 75.7786 13.1346 75.8058 13.2105C75.8331 13.2863 75.845 13.367 75.8407 13.4476" fill="#CC0066"/>
<path d="M11.186 6.67822V15.082C11.186 15.6321 11.0199 16.169 10.7102 16.6202C10.4004 17.0714 9.96194 17.4151 9.45387 17.605L1.91236 20.4237C1.79366 20.4682 1.66614 20.4828 1.54067 20.4664C1.41519 20.45 1.29547 20.4031 1.1917 20.3295C1.08794 20.256 1.00319 20.1581 0.944692 20.0441C0.886191 19.9301 0.855665 19.8034 0.855713 19.6748V12.5441C0.855955 12.1153 0.98541 11.6968 1.22667 11.3449C1.46793 10.9931 1.80942 10.7247 2.20521 10.576L9.17566 7.95604C10.2758 7.50338 10.7056 7.22641 11.1864 6.68062" fill="white"/>
<path d="M17.8163 8.80503C17.8084 9.1175 17.684 9.41526 17.4683 9.63805C17.2525 9.86085 16.9616 9.99205 16.6543 10.0051H15.0738C14.9827 10.0073 14.8944 9.97261 14.8284 9.9087C14.7624 9.8448 14.7241 9.75688 14.7219 9.66427V6.16586C14.7212 6.11946 14.7297 6.07339 14.7468 6.03038C14.764 5.98737 14.7895 5.94829 14.8217 5.91548C14.854 5.88266 14.8925 5.85677 14.9348 5.83934C14.9771 5.82191 15.0225 5.81329 15.0681 5.81401H16.5933C16.8215 5.82627 17.0412 5.90552 17.2259 6.04215C17.4106 6.17878 17.5524 6.36692 17.634 6.58378C17.7156 6.80063 17.7335 7.03688 17.6856 7.26389C17.6377 7.4909 17.5261 7.69893 17.3642 7.86275C17.5037 7.97587 17.6166 8.11911 17.6949 8.28209C17.7732 8.44507 17.8143 8.62369 17.8163 8.80503ZM15.3926 7.55697L16.5154 7.54545C16.6518 7.54089 16.7814 7.4838 16.8778 7.38575C16.9743 7.28769 17.0305 7.15602 17.035 7.01743C17.0342 6.88412 16.9825 6.75634 16.8907 6.66105C16.799 6.56576 16.6744 6.51041 16.5433 6.50668H15.3926V7.55697ZM17.1243 8.80503C17.1149 8.66377 17.0543 8.53106 16.9542 8.43256C16.8542 8.33405 16.7217 8.27675 16.5825 8.27173H15.4205V9.32154H16.6155C16.749 9.31721 16.8758 9.26141 16.9702 9.16547C17.0646 9.06952 17.1195 8.94064 17.1238 8.80503" fill="white"/>
<path d="M20.5653 8.27168H20.0571V9.66375C20.0551 9.75538 20.0176 9.84252 19.9528 9.90624C19.888 9.96996 19.801 10.0051 19.7109 10.0041C19.6221 10.0038 19.537 9.96791 19.4742 9.90416C19.4113 9.8404 19.3759 9.75398 19.3755 9.66375V6.1543C19.3783 6.06295 19.4161 5.97632 19.4807 5.91278C19.5453 5.84924 19.6318 5.8138 19.7217 5.81397H20.9446C21.2591 5.82094 21.5589 5.95025 21.7823 6.17522C22.0057 6.40019 22.1356 6.70368 22.1453 7.02315C22.1395 7.28079 22.0568 7.53055 21.9082 7.73936C21.7596 7.94818 21.552 8.10619 21.3131 8.19248L22.0896 9.48086C22.1349 9.5602 22.148 9.65434 22.1261 9.74332C22.1042 9.8323 22.0491 9.90913 21.9725 9.95753C21.9193 9.98719 21.8597 10.0029 21.7991 10.0031C21.7409 10.0031 21.6837 9.98792 21.6328 9.95911C21.582 9.9303 21.5393 9.88878 21.5086 9.83848L20.5653 8.27168ZM21.4704 7.02843C21.464 6.88607 21.4032 6.75186 21.301 6.65432C21.1988 6.55679 21.0631 6.50364 20.9229 6.50616H20.0571V7.57901H20.9229C21.0672 7.57914 21.2056 7.52136 21.3082 7.41824C21.4107 7.31512 21.469 7.17502 21.4704 7.02843Z" fill="white"/>
<path d="M26.0665 10.0025C25.5218 9.99657 25.0016 9.77171 24.6196 9.3771C24.2376 8.98249 24.0248 8.45022 24.0279 7.89667C24.0349 7.48911 24.1603 7.09276 24.3882 6.75734C24.6161 6.42192 24.9364 6.16236 25.3089 6.01124C25.6814 5.86012 26.0896 5.82417 26.4821 5.90789C26.8747 5.99162 27.2341 6.1913 27.5154 6.48187C27.7967 6.77244 27.9873 7.14096 28.0633 7.54119C28.1393 7.94143 28.0972 8.35555 27.9425 8.7316C27.7877 9.10766 27.5271 9.42889 27.1934 9.65499C26.8596 9.88109 26.4676 10.002 26.0665 10.0025ZM24.6868 7.89667C24.6873 8.17457 24.7688 8.4461 24.9211 8.6769C25.0735 8.9077 25.2897 9.08742 25.5426 9.19331C25.7954 9.2992 26.0735 9.32651 26.3416 9.27179C26.6097 9.21707 26.8558 9.08278 27.0488 8.8859C27.2418 8.68902 27.373 8.4384 27.4259 8.16572C27.4787 7.89305 27.4508 7.61058 27.3456 7.35404C27.2405 7.09749 27.0628 6.8784 26.8352 6.72446C26.6075 6.57053 26.34 6.48867 26.0665 6.48924C25.7008 6.49289 25.3512 6.64251 25.093 6.90581C24.8349 7.16912 24.689 7.525 24.6868 7.89667Z" fill="white"/>
<path d="M32.9252 9.97466C32.882 9.99177 32.8358 9.99989 32.7894 9.99854C32.743 9.99719 32.6974 9.98639 32.6552 9.96678C32.613 9.94718 32.5751 9.91916 32.5438 9.8844C32.5124 9.84964 32.4883 9.80883 32.4727 9.7644L31.528 7.17228L30.5786 9.7644C30.5641 9.80895 30.5408 9.85001 30.5101 9.88503C30.4794 9.92004 30.4419 9.94828 30.4 9.96799C30.3581 9.9877 30.3127 9.99846 30.2666 9.99961C30.2204 10.0008 30.1745 9.99226 30.1317 9.97466C30.0877 9.95931 30.0472 9.93502 30.0127 9.90326C29.9782 9.87149 29.9504 9.83292 29.9311 9.7899C29.9117 9.74687 29.9012 9.70029 29.9001 9.65299C29.899 9.6057 29.9075 9.55868 29.9249 9.51479L31.187 6.03511C31.2135 5.96558 31.2604 5.90599 31.3213 5.86436C31.3822 5.82273 31.4542 5.80107 31.5275 5.8023C31.6006 5.80265 31.6719 5.82494 31.7325 5.86637C31.7931 5.90779 31.8402 5.9665 31.8681 6.03511L33.1302 9.51479C33.1476 9.55865 33.156 9.60564 33.155 9.65291C33.154 9.70019 33.1435 9.74675 33.1242 9.78977C33.1049 9.83279 33.0771 9.87137 33.0427 9.90315C33.0082 9.93494 32.9678 9.95927 32.9238 9.97466" fill="white"/>
<path d="M34.5394 9.66263V6.17094C34.5416 6.08137 34.5776 5.99607 34.6399 5.93272C34.7022 5.86936 34.7862 5.8328 34.8743 5.8306H35.7066C36.0064 5.82881 36.3032 5.89062 36.5781 6.01206C36.8423 6.12985 37.0784 6.30404 37.2705 6.5228C37.4622 6.74398 37.6053 7.00421 37.6901 7.28608C37.7749 7.56795 37.7995 7.86497 37.7623 8.15728C37.7007 8.66487 37.4591 9.13223 37.0827 9.47181C36.7064 9.81139 36.2212 9.9999 35.7179 10.002H34.8748C34.7866 9.99981 34.7027 9.96325 34.6404 9.8999C34.578 9.83654 34.542 9.75124 34.5399 9.66167M37.0868 8.07759C37.1163 7.88155 37.1031 7.68132 37.0481 7.49104C36.9931 7.30076 36.8976 7.12508 36.7684 6.97642C36.6349 6.82548 36.471 6.70535 36.288 6.62413C36.1049 6.5429 35.9068 6.50246 35.7071 6.50552H35.2102V9.32085H35.7184C36.0572 9.32102 36.3842 9.19433 36.6369 8.96498C36.8895 8.73564 37.0502 8.41972 37.0882 8.07759" fill="white"/>
<path d="M41.0799 9.41819C40.9127 9.67481 40.6551 9.85662 40.3601 9.92625C40.0651 9.99589 39.7551 9.94806 39.4937 9.79261C39.4136 9.74322 39.3543 9.66531 39.3275 9.57403C39.3007 9.48275 39.3083 9.38461 39.3487 9.29866C39.4093 9.22744 39.4941 9.18206 39.5862 9.17156C39.6783 9.16107 39.7709 9.18622 39.8456 9.24202C39.9614 9.3059 40.0967 9.32269 40.2242 9.28901C40.3517 9.25532 40.4619 9.17367 40.5324 9.06057C40.5714 9.00172 40.5985 8.93563 40.6123 8.8661C40.6261 8.79657 40.6263 8.72495 40.6128 8.65536C40.5993 8.58576 40.5725 8.51955 40.5338 8.4605C40.4951 8.40146 40.4454 8.35074 40.3874 8.31126C40.1139 8.13509 40.104 8.12981 39.8399 7.95364C39.5785 7.78124 39.3952 7.51038 39.3302 7.20062C39.2653 6.89087 39.3241 6.56759 39.4937 6.30188C39.6626 6.04737 39.9201 5.86726 40.2143 5.79771C40.5085 5.72817 40.8178 5.77435 41.0799 5.92698C41.1574 5.97301 41.2145 6.04755 41.2395 6.1352C41.2645 6.22284 41.2553 6.31689 41.214 6.39788C41.1586 6.47211 41.0772 6.5218 40.9867 6.53664C40.8962 6.55148 40.8035 6.53032 40.7279 6.47757C40.6071 6.41504 40.4673 6.40197 40.3372 6.44104C40.2072 6.48011 40.0968 6.56835 40.0289 6.6876C39.9609 6.80685 39.9405 6.94804 39.9719 7.08211C40.0033 7.21618 40.084 7.33293 40.1975 7.40833C40.3392 7.49906 40.3392 7.49906 40.7393 7.76595C40.8685 7.85159 40.9798 7.96228 41.0668 8.09168C41.1538 8.22108 41.215 8.36665 41.2466 8.52007C41.2782 8.67348 41.2797 8.83173 41.2511 8.98576C41.2225 9.13978 41.1643 9.28705 41.0799 9.41819Z" fill="white"/>
<path d="M44.8508 8.26133C44.5384 8.28388 44.225 8.28772 43.9122 8.27285V9.66492C43.9102 9.75655 43.8728 9.84369 43.8079 9.90741C43.7431 9.97113 43.6562 10.0063 43.566 10.0053C43.4773 10.0049 43.3923 9.9689 43.3296 9.90515C43.2669 9.84141 43.2315 9.75507 43.2311 9.66492V6.16507C43.2305 6.12022 43.2388 6.0757 43.2554 6.03414C43.272 5.99259 43.2967 5.95484 43.3279 5.92312C43.3591 5.8914 43.3963 5.86636 43.4372 5.84946C43.478 5.83256 43.5219 5.82415 43.566 5.82474H44.8172C45.129 5.83461 45.4251 5.96641 45.6436 6.19268C45.8621 6.41894 45.9862 6.72219 45.9901 7.03919C45.985 7.35062 45.8652 7.64877 45.6542 7.87471C45.4432 8.10066 45.1565 8.23794 44.8508 8.25941M44.7728 6.50589H43.9127V7.57874H44.7728C44.9168 7.57788 45.0547 7.51977 45.157 7.41687C45.2594 7.31396 45.3179 7.17443 45.3203 7.02815C45.313 6.88613 45.2519 6.75248 45.1499 6.65515C45.0479 6.55781 44.9128 6.50433 44.7728 6.50589Z" fill="white"/>
<path d="M47.7769 9.66283V6.15482C47.7773 6.06467 47.8127 5.97833 47.8754 5.91458C47.9382 5.85084 48.0231 5.81486 48.1118 5.81448H50.124C50.2142 5.81332 50.3012 5.84844 50.3661 5.91219C50.4309 5.97594 50.4684 6.06315 50.4703 6.15482C50.4698 6.24798 50.4331 6.33718 50.3683 6.40306C50.3035 6.46894 50.2157 6.50617 50.124 6.50667H48.4595V7.57953H49.7164C49.7605 7.57895 49.8043 7.58735 49.8452 7.60425C49.8861 7.62115 49.9233 7.64619 49.9545 7.67791C49.9857 7.70963 50.0103 7.74739 50.0269 7.78894C50.0436 7.83049 50.0518 7.87501 50.0513 7.91986C50.0519 7.96476 50.0437 8.00933 50.0271 8.05094C50.0105 8.09255 49.9859 8.13035 49.9546 8.16212C49.9234 8.19389 49.8862 8.21898 49.8453 8.23591C49.8044 8.25284 49.7606 8.26126 49.7164 8.26068H48.4595V9.31049H50.124C50.2157 9.311 50.3035 9.34823 50.3683 9.4141C50.4331 9.47998 50.4698 9.56918 50.4703 9.66235C50.4683 9.75398 50.4308 9.84112 50.366 9.90484C50.3012 9.96856 50.2142 10.0037 50.124 10.0027H48.1132C48.0245 10.0023 47.9396 9.96633 47.8768 9.90258C47.8141 9.83884 47.7787 9.75249 47.7783 9.66235" fill="white"/>
<path d="M55.7256 9.54883C55.3699 9.8363 54.9287 9.99237 54.4743 9.99141C53.9277 9.99141 53.4034 9.77073 53.0169 9.37792C52.6304 8.98511 52.4132 8.45235 52.4132 7.89683C52.4132 7.34131 52.6304 6.80854 53.0169 6.41573C53.4034 6.02292 53.9277 5.80225 54.4743 5.80225C54.8457 5.80275 55.2094 5.90902 55.5244 6.10898C55.5639 6.12989 55.5989 6.15871 55.6272 6.19372C55.6556 6.22873 55.6766 6.26921 55.6892 6.31271C55.7017 6.35621 55.7054 6.40183 55.7002 6.44684C55.6949 6.49185 55.6807 6.53531 55.6585 6.5746C55.6358 6.61352 55.6055 6.64726 55.5694 6.67372C55.5333 6.70018 55.4922 6.71879 55.4487 6.72839C55.4052 6.73798 55.3603 6.73836 55.3166 6.72949C55.273 6.72062 55.2316 6.7027 55.1951 6.67685C54.9772 6.54531 54.7282 6.47661 54.4748 6.47812C54.2936 6.47812 54.1143 6.51439 53.9469 6.58487C53.7796 6.65535 53.6275 6.75864 53.4995 6.88886C53.3714 7.01907 53.2699 7.17365 53.2007 7.34376C53.1314 7.51387 53.0959 7.69618 53.096 7.88027C53.0898 8.14392 53.1568 8.40401 53.2895 8.63068C53.4221 8.85735 53.615 9.04141 53.8459 9.16171C54.0769 9.28202 54.3365 9.33369 54.5951 9.3108C54.8536 9.28792 55.1005 9.19139 55.3075 9.03232C55.34 9.00405 55.3777 8.98263 55.4184 8.96932C55.4591 8.956 55.502 8.95105 55.5446 8.95476C55.5872 8.95847 55.6287 8.97076 55.6665 8.99092C55.7044 9.01107 55.738 9.03869 55.7652 9.07216C55.8221 9.14073 55.8499 9.22938 55.8425 9.31872C55.8352 9.40806 55.7933 9.4908 55.726 9.54883" fill="white"/>
<path d="M60.3772 6.14847C60.3773 6.19296 60.3686 6.23701 60.3517 6.27806C60.3348 6.31911 60.3101 6.35635 60.2789 6.38761C60.2478 6.41887 60.2108 6.44353 60.1702 6.46016C60.1296 6.47679 60.0861 6.48506 60.0424 6.48448H59.2219V9.6632C59.2219 9.75276 59.1869 9.83866 59.1246 9.90199C59.0622 9.96532 58.9777 10.0009 58.8896 10.0009C58.8015 10.0009 58.7169 9.96532 58.6546 9.90199C58.5923 9.83866 58.5573 9.75276 58.5573 9.6632V6.48352H57.7363C57.6482 6.48352 57.5637 6.44795 57.5014 6.38462C57.4391 6.32129 57.4041 6.23539 57.4041 6.14583C57.4041 6.05627 57.4391 5.97037 57.5014 5.90704C57.5637 5.84371 57.6482 5.80813 57.7363 5.80813H60.0428C60.087 5.80755 60.1308 5.81596 60.1717 5.83286C60.2126 5.84976 60.2497 5.8748 60.2809 5.90652C60.3121 5.93824 60.3368 5.97599 60.3534 6.01754C60.37 6.0591 60.3778 6.10362 60.3772 6.14847Z" fill="white"/>
<path d="M63.2435 8.27168H62.7352V9.66375C62.7333 9.75538 62.6958 9.84252 62.631 9.90624C62.5661 9.96996 62.4792 10.0051 62.389 10.0041C62.3002 10.0038 62.2151 9.96791 62.1523 9.90416C62.0895 9.8404 62.054 9.75398 62.0536 9.66375V6.1543C62.0565 6.06295 62.0942 5.97632 62.1589 5.91278C62.2235 5.84924 62.3099 5.8138 62.3999 5.81397H63.6233C63.9377 5.82094 64.2375 5.95025 64.4609 6.17522C64.6843 6.40019 64.8142 6.70368 64.824 7.02315C64.8181 7.28079 64.7354 7.53055 64.5868 7.73936C64.4382 7.94818 64.2307 8.10619 63.9917 8.19248L64.7682 9.48086C64.8134 9.56026 64.8264 9.65444 64.8045 9.74343C64.7825 9.83241 64.7273 9.90921 64.6506 9.95753C64.5975 9.98721 64.5379 10.0029 64.4773 10.0031C64.4191 10.0031 64.3618 9.98792 64.311 9.95911C64.2601 9.9303 64.2174 9.88878 64.1868 9.83848L63.2435 8.27168ZM64.1485 7.02843C64.1421 6.88607 64.0814 6.75186 63.9791 6.65432C63.8769 6.55679 63.7413 6.50364 63.6011 6.50616H62.7352V7.57901H63.6011C63.7453 7.57914 63.8838 7.52136 63.9863 7.41824C64.0888 7.31512 64.1471 7.17502 64.1485 7.02843Z" fill="white"/>
<path d="M69.7222 6.1481V8.46949C69.7258 8.67302 69.6894 8.87522 69.6152 9.06431C69.541 9.25339 69.4305 9.42556 69.2901 9.57077C69.1498 9.71598 68.9823 9.83131 68.7976 9.91004C68.6129 9.98877 68.4146 10.0293 68.2143 10.0293C68.014 10.0293 67.8156 9.98877 67.6309 9.91004C67.4462 9.83131 67.2788 9.71598 67.1384 9.57077C66.998 9.42556 66.8875 9.25339 66.8133 9.06431C66.7391 8.87522 66.7027 8.67302 66.7063 8.46949V6.1481C66.7063 6.05624 66.7422 5.96815 66.8061 5.9032C66.87 5.83825 66.9567 5.80176 67.0471 5.80176C67.1374 5.80176 67.2242 5.83825 67.2881 5.9032C67.352 5.96815 67.3879 6.05624 67.3879 6.1481V8.46949C67.3879 8.69381 67.4756 8.90894 67.6317 9.06756C67.7878 9.22618 67.9994 9.31529 68.2201 9.31529C68.4409 9.31529 68.6526 9.22618 68.8087 9.06756C68.9648 8.90894 69.0525 8.69381 69.0525 8.46949V6.1481C69.0519 6.10324 69.0602 6.05872 69.0768 6.01717C69.0934 5.97562 69.1181 5.93787 69.1493 5.90615C69.1805 5.87443 69.2176 5.84938 69.2585 5.83248C69.2994 5.81559 69.3432 5.80718 69.3874 5.80776C69.4315 5.80718 69.4753 5.81559 69.5162 5.83248C69.5571 5.84938 69.5942 5.87443 69.6254 5.90615C69.6566 5.93787 69.6813 5.97562 69.6979 6.01717C69.7145 6.05872 69.7228 6.10324 69.7222 6.1481Z" fill="white"/>
<path d="M75.7377 9.58869C75.7497 9.63045 75.7533 9.67428 75.7482 9.7175C75.7431 9.76073 75.7295 9.80245 75.7081 9.84015C75.6867 9.87785 75.6579 9.91074 75.6236 9.93683C75.5893 9.96291 75.5502 9.98165 75.5086 9.9919H75.4916C75.4859 9.9919 75.4859 9.9919 75.4807 10.0034H75.4415C75.3633 10.0028 75.2878 9.97476 75.2276 9.92414C75.1674 9.87352 75.1261 9.80337 75.1108 9.72549L74.6527 7.45498L73.8095 9.75381C73.7871 9.82319 73.7437 9.8836 73.6855 9.92643C73.6274 9.96926 73.5573 9.99232 73.4855 9.99232C73.4136 9.99232 73.3436 9.96926 73.2854 9.92643C73.2273 9.8836 73.1839 9.82319 73.1615 9.75381L72.4185 7.56299L72.0274 9.72549C72.015 9.80526 71.9747 9.87784 71.914 9.92994C71.8533 9.98204 71.7762 10.0102 71.6967 10.0092C71.6797 10.0092 71.6575 10.0034 71.6409 10.0034C71.5961 9.99682 71.5533 9.98011 71.5156 9.95453C71.478 9.92895 71.4464 9.89515 71.4232 9.85558C71.3963 9.82079 71.3773 9.78034 71.3676 9.73716C71.358 9.69399 71.3579 9.64917 71.3675 9.60596L71.9428 6.08692C71.9571 6.01031 71.9962 5.94077 72.0539 5.88937C72.1116 5.83796 72.1846 5.80764 72.2612 5.80322H72.289C72.3611 5.80318 72.4313 5.8264 72.4896 5.86954C72.5478 5.91268 72.5911 5.9735 72.6131 6.04323L73.4954 8.56912L74.417 6.03171C74.4385 5.96382 74.4812 5.90493 74.5387 5.86395C74.5961 5.82298 74.6652 5.80216 74.7353 5.80466H74.7523C74.8286 5.80517 74.9021 5.83352 74.9595 5.88454C75.0169 5.93556 75.0544 6.00586 75.065 6.0826L75.7377 9.58869Z" fill="white"/>
</g>
</svg>
