<svg width="74" height="20" viewBox="0 0 74 20" fill="none" xmlns="http://www.w3.org/2000/svg">
<mask id="mask0_2057_110574" style="mask-type:luminance" maskUnits="userSpaceOnUse" x="0" y="0" width="74" height="20">
<path d="M73.6055 0.4375H0.535156V19.9649H73.6055V0.4375Z" fill="white"/>
</mask>
<g mask="url(#mask0_2057_110574)">
<path d="M8.47293 3.3931L1.80279 0.51242C1.66426 0.452496 1.51326 0.428405 1.36332 0.442303C1.21338 0.456201 1.06916 0.507654 0.943577 0.59206C0.817993 0.676465 0.714954 0.791191 0.64368 0.925972C0.572407 1.06075 0.53512 1.21139 0.535156 1.3644V8.7784C0.535152 8.93603 0.572734 9.09132 0.644686 9.23097C0.716638 9.37063 0.820816 9.49048 0.948305 9.58028C1.07579 9.67007 1.22279 9.72714 1.37673 9.74659C1.53066 9.76604 1.68693 9.7473 1.83218 9.69196L6.25766 8.00573L1.46304 5.97563C1.39439 5.94337 1.34071 5.88533 1.31327 5.8137C1.28583 5.74207 1.28676 5.66242 1.31587 5.59148C1.34498 5.52053 1.40001 5.46381 1.4694 5.43321C1.53879 5.40262 1.61714 5.40054 1.68801 5.4274L7.05975 7.70059L8.56981 7.12483C11.1537 6.21406 11.2883 4.39439 8.47339 3.39217M9.10514 5.75121C9.0753 5.82374 9.0184 5.8813 8.9469 5.9113C8.87539 5.94129 8.7951 5.94127 8.72361 5.91125L1.35377 2.79214C1.31835 2.77716 1.28618 2.75524 1.25909 2.72762C1.23201 2.7 1.21054 2.66724 1.19592 2.63119C1.16639 2.55839 1.16652 2.47665 1.19629 2.40395C1.22607 2.33125 1.28304 2.27354 1.35467 2.24353C1.42631 2.21352 1.50675 2.21365 1.57828 2.24391L8.94766 5.36394C8.98315 5.37891 9.01539 5.40084 9.04252 5.42849C9.06966 5.45613 9.09116 5.48895 9.10579 5.52506C9.12042 5.56116 9.12789 5.59985 9.12778 5.6389C9.12767 5.67795 9.11998 5.71659 9.10514 5.75261" fill="#CC0066"/>
<path d="M44.2412 12.2985C44.2455 12.5218 44.2113 12.7441 44.1402 12.9555C44.0801 13.1306 43.9824 13.29 43.8542 13.422C43.7287 13.5474 43.5767 13.6419 43.4097 13.6983C43.2237 13.7603 43.0289 13.7908 42.8331 13.7883C42.7412 13.7883 42.6327 13.7841 42.5076 13.7757C42.3896 13.7691 42.2731 13.7452 42.1618 13.7048C42.1047 13.6934 42.0533 13.662 42.0165 13.6162C41.9797 13.5704 41.9598 13.5129 41.9603 13.4538V11.1269C41.9576 11.0819 41.9724 11.0377 42.0016 11.0037C42.0327 10.972 42.0708 10.9484 42.1127 10.9347C42.2219 10.9001 42.3344 10.8776 42.4483 10.8675C42.5677 10.8563 42.6837 10.8507 42.7964 10.8507C42.9959 10.8485 43.1945 10.8781 43.3849 10.9384C43.5561 10.9919 43.7131 11.0841 43.8441 11.2081C43.9741 11.3354 44.0746 11.4904 44.1384 11.6621C44.2122 11.8655 44.2479 12.0812 44.2435 12.298M43.7619 12.3022C43.7655 12.1416 43.7411 11.9816 43.6898 11.8296C43.6476 11.708 43.5784 11.5979 43.4878 11.5077C43.4008 11.4235 43.2968 11.3598 43.1829 11.321C43.0614 11.2798 42.9341 11.2593 42.806 11.2604C42.6789 11.2582 42.552 11.2694 42.4272 11.294V13.3441C42.4902 13.359 42.5542 13.3688 42.6187 13.3735C42.6888 13.3791 42.7608 13.3819 42.8349 13.3819C42.9623 13.3906 43.09 13.3707 43.209 13.3237C43.328 13.2767 43.4354 13.2037 43.5236 13.1099C43.6972 12.8792 43.7815 12.5919 43.7605 12.3022" fill="#CC0066"/>
<path d="M44.7277 10.8888C44.7266 10.8516 44.7328 10.8145 44.7459 10.7796C44.759 10.7448 44.7787 10.713 44.8039 10.6859C44.8296 10.6587 44.8607 10.6374 44.8951 10.6233C44.9295 10.6092 44.9665 10.6027 45.0036 10.6042C45.04 10.603 45.0763 10.6097 45.11 10.6237C45.1437 10.6378 45.1741 10.659 45.1992 10.6859C45.2483 10.7417 45.2754 10.814 45.2754 10.8888C45.2754 10.9637 45.2483 11.036 45.1992 11.0918C45.1741 11.1187 45.1437 11.1398 45.11 11.1539C45.0763 11.168 45.04 11.1746 45.0036 11.1734C44.9665 11.1749 44.9295 11.1684 44.8951 11.1544C44.8607 11.1403 44.8296 11.119 44.8039 11.0918C44.7787 11.0647 44.7589 11.0329 44.7459 10.998C44.7328 10.9632 44.7266 10.9261 44.7277 10.8888ZM45.2299 13.7257C45.2025 13.7365 45.1743 13.745 45.1455 13.7508C45.1056 13.7595 45.065 13.7637 45.0242 13.7634C44.9577 13.769 44.8914 13.7505 44.8369 13.7112C44.8152 13.6884 44.7986 13.6611 44.7883 13.6311C44.778 13.6011 44.7742 13.5692 44.7773 13.5376V11.5691L44.8636 11.5462C44.9039 11.536 44.9455 11.5311 44.9871 11.5318C45.0524 11.5264 45.1176 11.5449 45.1707 11.584C45.192 11.6079 45.2082 11.6361 45.2181 11.6667C45.2279 11.6973 45.2314 11.7297 45.2281 11.7618L45.2299 13.7257Z" fill="#CC0066"/>
<path d="M47.1874 13.5285C47.1248 13.5688 47.057 13.6002 46.9859 13.6218C46.8935 13.6487 46.7977 13.6615 46.7017 13.6596C46.578 13.6604 46.455 13.6405 46.3376 13.6008C46.2244 13.5621 46.1211 13.4984 46.035 13.4142C45.9424 13.3216 45.8721 13.2085 45.8294 13.0838C45.7758 12.9214 45.7508 12.7507 45.7554 12.5795C45.7524 12.4193 45.7774 12.2599 45.8294 12.1087C45.874 11.981 45.9465 11.8652 46.0415 11.7699C46.1344 11.6786 46.2451 11.608 46.3665 11.5628C46.5018 11.5136 46.6448 11.4896 46.7885 11.4918C46.921 11.4907 47.053 11.5103 47.1796 11.5502C47.2845 11.5823 47.3844 11.6295 47.4762 11.6901C47.5202 11.7209 47.558 11.76 47.5873 11.8054C47.6162 11.8538 47.6305 11.9098 47.6286 11.9664V13.794C47.6323 13.9317 47.6071 14.0686 47.5547 14.1957C47.5089 14.3026 47.4374 14.3962 47.3468 14.4677C47.2523 14.5399 47.1443 14.5918 47.0295 14.6203C46.9008 14.6527 46.7686 14.6684 46.636 14.6669C46.5083 14.669 46.3808 14.6533 46.2572 14.6203C46.1744 14.5987 46.0943 14.5674 46.0185 14.527C45.9596 14.4904 45.9164 14.4327 45.8973 14.3653C45.8783 14.298 45.8849 14.2258 45.9157 14.163C45.9348 14.1268 45.9632 14.0965 45.9978 14.0753C46.0787 14.1333 46.1675 14.1791 46.2614 14.2111C46.375 14.2522 46.4948 14.2727 46.6154 14.2717C46.7652 14.281 46.9138 14.2389 47.0373 14.1523C47.0902 14.1049 47.1313 14.0456 47.1574 13.979C47.1835 13.9125 47.1938 13.8406 47.1874 13.7692V13.5285ZM46.7632 13.2775C46.8486 13.2799 46.9335 13.264 47.0125 13.2308C47.0744 13.2038 47.1309 13.1656 47.1792 13.1179V11.993C47.1297 11.9611 47.0765 11.9359 47.0208 11.9178C46.9482 11.8942 46.8724 11.8829 46.7963 11.8842C46.7174 11.881 46.6387 11.8947 46.5653 11.9242C46.4919 11.9538 46.4255 11.9987 46.3702 12.0559C46.2514 12.2007 46.1931 12.3869 46.2077 12.5748C46.2051 12.6853 46.2197 12.7955 46.2508 12.9014C46.2747 12.9818 46.3155 13.0559 46.3702 13.1188C46.4183 13.1727 46.4782 13.2143 46.5451 13.2401C46.615 13.266 46.6889 13.2783 46.7632 13.2775Z" fill="#CC0066"/>
<path d="M48.194 10.8888C48.1929 10.8516 48.1991 10.8145 48.2122 10.7796C48.2253 10.7448 48.245 10.713 48.2702 10.6859C48.2959 10.6587 48.327 10.6374 48.3614 10.6233C48.3959 10.6092 48.4328 10.6027 48.4699 10.6042C48.5063 10.603 48.5426 10.6096 48.5763 10.6237C48.61 10.6378 48.6404 10.659 48.6655 10.6859C48.7146 10.7417 48.7417 10.814 48.7417 10.8888C48.7417 10.9637 48.7146 11.036 48.6655 11.0918C48.6404 11.1187 48.61 11.1399 48.5763 11.154C48.5426 11.168 48.5063 11.1747 48.4699 11.1734C48.4328 11.1749 48.3959 11.1684 48.3614 11.1544C48.327 11.1403 48.2959 11.119 48.2702 11.0918C48.245 11.0647 48.2252 11.0329 48.2122 10.998C48.1991 10.9632 48.1929 10.9261 48.194 10.8888ZM48.6962 13.7257C48.6689 13.7365 48.6406 13.7449 48.6118 13.7508C48.5718 13.7596 48.531 13.7638 48.4901 13.7634C48.4235 13.769 48.3572 13.7505 48.3028 13.7112C48.281 13.6884 48.2644 13.6611 48.2541 13.6311C48.2438 13.6011 48.24 13.5692 48.2431 13.5376V11.5691L48.3294 11.5462C48.3698 11.536 48.4113 11.5311 48.4529 11.5318C48.5183 11.5264 48.5834 11.5449 48.6366 11.584C48.6579 11.6079 48.674 11.6361 48.6839 11.6667C48.6938 11.6973 48.6972 11.7297 48.6939 11.7618L48.6962 13.7257Z" fill="#CC0066"/>
<path d="M49.8739 13.3345C49.9502 13.3847 50.0403 13.4089 50.131 13.4036C50.184 13.4031 50.2366 13.3954 50.2876 13.3807C50.3376 13.3674 50.3859 13.3485 50.4318 13.3243C50.4518 13.3506 50.4698 13.3785 50.4855 13.4078C50.5123 13.4622 50.5177 13.5249 50.5007 13.5833C50.4836 13.6416 50.4454 13.6911 50.3936 13.7218C50.2875 13.7816 50.1667 13.8092 50.0456 13.8011C49.8596 13.8107 49.6758 13.7554 49.525 13.6443C49.4553 13.5802 49.4014 13.5003 49.3674 13.4112C49.3335 13.3221 49.3205 13.2262 49.3294 13.1311V10.9596C49.3594 10.949 49.3901 10.9406 49.4212 10.9344C49.4618 10.9258 49.5032 10.9216 49.5447 10.9218C49.6091 10.9165 49.6733 10.9343 49.7261 10.9722C49.7473 10.9949 49.7635 11.022 49.7734 11.0517C49.7833 11.0813 49.7867 11.1128 49.7835 11.1439V11.604H50.4588C50.4722 11.6293 50.4833 11.6559 50.4919 11.6833C50.5031 11.7184 50.5087 11.7551 50.5084 11.792C50.5084 11.9233 50.4548 11.9887 50.3477 11.9884H49.7835V13.0975C49.7788 13.1415 49.7847 13.1861 49.8007 13.2273C49.8167 13.2685 49.8423 13.3051 49.8753 13.3341" fill="#CC0066"/>
<path d="M51.7266 11.4916C51.9554 11.4788 52.1818 11.5446 52.3694 11.6783C52.4525 11.7511 52.5175 11.8428 52.559 11.9461C52.6005 12.0493 52.6173 12.1611 52.6081 12.2722V13.3561C52.6119 13.4149 52.5957 13.4732 52.5622 13.5213C52.5264 13.5641 52.4848 13.6015 52.4387 13.6323C52.3478 13.6841 52.2509 13.7242 52.1503 13.7518C52.0148 13.7889 51.8747 13.8065 51.7344 13.804C51.5024 13.8177 51.2723 13.7554 51.0778 13.6263C50.9991 13.566 50.9362 13.4869 50.8949 13.396C50.8535 13.305 50.835 13.2051 50.8409 13.1051C50.8358 13.0184 50.8497 12.9316 50.8814 12.8509C50.9132 12.7703 50.962 12.6977 51.0246 12.6385C51.1763 12.5178 51.361 12.4476 51.5535 12.4374L52.1586 12.3702V12.2699C52.1635 12.2139 52.1548 12.1575 52.1333 12.1057C52.1118 12.0538 52.078 12.0082 52.0351 11.9727C51.9339 11.9055 51.8142 11.8728 51.6935 11.8794C51.5806 11.879 51.4682 11.8958 51.3602 11.9293C51.2609 11.9596 51.1644 11.9988 51.0719 12.0464C51.0429 12.0191 51.018 11.9877 50.998 11.9531C50.9758 11.9154 50.9644 11.8721 50.9651 11.8282C50.9658 11.7842 50.9786 11.7413 51.0021 11.7044C51.0324 11.665 51.072 11.634 51.1173 11.6144C51.2054 11.5708 51.2988 11.5395 51.3951 11.521C51.5043 11.4996 51.6153 11.4891 51.7266 11.4898M51.7348 13.4228C51.8252 13.4246 51.9153 13.4133 52.0025 13.3892C52.0586 13.3754 52.1117 13.3512 52.1591 13.3178V12.7281L51.6898 12.7785C51.5835 12.7857 51.4804 12.8187 51.3891 12.8746C51.3557 12.9002 51.3291 12.9339 51.3119 12.9726C51.2946 13.0113 51.2872 13.0538 51.2904 13.0962C51.2886 13.1417 51.2973 13.187 51.3159 13.2284C51.3345 13.2698 51.3624 13.3062 51.3974 13.3346C51.4971 13.4013 51.6159 13.4322 51.7348 13.4224" fill="#CC0066"/>
<path d="M53.4683 13.7636C53.403 13.7682 53.3381 13.7497 53.2847 13.7113C53.2622 13.6889 53.2451 13.6617 53.2343 13.6317C53.2236 13.6017 53.2196 13.5696 53.2227 13.5378V10.7177L53.309 10.6949C53.3494 10.6846 53.3909 10.6797 53.4325 10.6804C53.4975 10.6758 53.5621 10.6934 53.6161 10.7303C53.6387 10.7523 53.656 10.7791 53.6667 10.8089C53.6774 10.8387 53.6813 10.8705 53.6781 10.902V13.7263C53.6533 13.7347 53.6227 13.7431 53.5863 13.7515C53.5471 13.7603 53.5071 13.7645 53.467 13.7641" fill="#CC0066"/>
<path d="M55.7466 12.7633V13.7259C55.7156 13.736 55.684 13.7444 55.652 13.7511C55.6114 13.7597 55.57 13.7639 55.5285 13.7637C55.4603 13.7696 55.3923 13.7502 55.3371 13.7091C55.3153 13.685 55.2987 13.6565 55.2884 13.6255C55.2781 13.5944 55.2743 13.5616 55.2774 13.529V11.1312C55.2747 11.0862 55.2895 11.0419 55.3187 11.008C55.3498 10.9763 55.3879 10.9526 55.4298 10.939C55.5351 10.9029 55.6442 10.8797 55.7549 10.8699C55.8773 10.8575 55.9939 10.8512 56.1047 10.8512C56.4062 10.8262 56.706 10.9173 56.9445 11.1065C57.0361 11.1957 57.1079 11.3039 57.1548 11.4238C57.2017 11.5437 57.2226 11.6724 57.2163 11.8012C57.222 11.9307 57.2007 12.06 57.1539 12.1806C57.1071 12.3012 57.0357 12.4104 56.9445 12.5011C56.7167 12.6932 56.4242 12.7878 56.1291 12.7647L55.7466 12.7633ZM56.1047 12.3574C56.2718 12.367 56.4369 12.3176 56.5721 12.2174C56.6305 12.1663 56.6763 12.1021 56.7059 12.0298C56.7356 11.9576 56.7483 11.8793 56.7429 11.8012C56.7494 11.7247 56.7381 11.6477 56.7098 11.5764C56.6816 11.5052 56.6372 11.4417 56.5804 11.3911C56.4432 11.296 56.2787 11.2503 56.113 11.2614C56.0499 11.2614 55.9854 11.2642 55.9193 11.2698C55.8597 11.2745 55.8006 11.2829 55.742 11.295V12.3578L56.1047 12.3574Z" fill="#CC0066"/>
<path d="M58.4575 11.4916C58.6863 11.4788 58.9127 11.5445 59.1003 11.6783C59.1835 11.751 59.2485 11.8428 59.29 11.9461C59.3315 12.0493 59.3483 12.1611 59.339 12.2722V13.3561C59.3429 13.4149 59.3266 13.4732 59.2931 13.5213C59.2574 13.5641 59.2158 13.6015 59.1696 13.6323C59.0787 13.6841 58.9819 13.7242 58.8813 13.7518C58.7457 13.7889 58.6057 13.8065 58.4653 13.804C58.2334 13.8177 58.0033 13.7554 57.8088 13.6263C57.73 13.566 57.6671 13.4869 57.6258 13.396C57.5845 13.305 57.566 13.2051 57.5719 13.1051C57.5668 13.0184 57.5806 12.9316 57.6123 12.8509C57.6441 12.7703 57.693 12.6977 57.7555 12.6385C57.9073 12.5178 58.092 12.4475 58.2844 12.4374L58.8896 12.3702V12.2699C58.8945 12.2139 58.8858 12.1575 58.8643 12.1056C58.8428 12.0538 58.809 12.0082 58.766 11.9727C58.6649 11.9054 58.5452 11.8727 58.4245 11.8794C58.3115 11.879 58.1992 11.8958 58.0911 11.9293C57.9918 11.9596 57.8953 11.9988 57.8028 12.0464C57.7739 12.0191 57.749 11.9877 57.7289 11.9531C57.7067 11.9154 57.6953 11.8721 57.6961 11.8282C57.6968 11.7842 57.7096 11.7413 57.733 11.7044C57.7633 11.665 57.803 11.634 57.8483 11.6144C57.9364 11.5708 58.0298 11.5395 58.126 11.521C58.2352 11.4996 58.3463 11.4891 58.4575 11.4898M58.4658 13.4228C58.5561 13.4246 58.6463 13.4133 58.7334 13.3892C58.7895 13.3754 58.8426 13.3512 58.89 13.3178V12.7281L58.4208 12.7785C58.3144 12.7857 58.2113 12.8186 58.1201 12.8746C58.0866 12.9002 58.0601 12.9339 58.0428 12.9726C58.0256 13.0113 58.0182 13.0538 58.0214 13.0962C58.0195 13.1417 58.0283 13.187 58.0469 13.2284C58.0655 13.2698 58.0933 13.3062 58.1283 13.3346C58.228 13.4013 58.3468 13.4322 58.4658 13.4224" fill="#CC0066"/>
<path d="M60.3152 13.228C60.2411 13.0746 60.1513 12.8585 60.0457 12.5794C59.9401 12.3004 59.8393 11.9852 59.7432 11.6337C59.7726 11.5986 59.8082 11.5695 59.8483 11.5478C59.8905 11.5243 59.9379 11.512 59.986 11.5124C60.0419 11.5097 60.097 11.5261 60.1426 11.559C60.1916 11.604 60.2261 11.6631 60.2413 11.7284C60.3209 11.9794 60.4026 12.227 60.4865 12.4712C60.5704 12.7154 60.6629 12.9672 60.7643 13.2266H60.7808C60.8246 13.1261 60.8691 13.0096 60.9144 12.8771C60.9597 12.7446 61.0036 12.6037 61.0462 12.4544C61.0887 12.3051 61.1293 12.1538 61.1678 12.0004C61.2064 11.8471 61.2407 11.7007 61.2707 11.5614C61.2985 11.5473 61.3274 11.5355 61.357 11.5259C61.3917 11.5156 61.4278 11.5107 61.4639 11.5114C61.521 11.5092 61.5774 11.5255 61.6247 11.5581C61.6472 11.576 61.665 11.5993 61.6765 11.6259C61.6879 11.6526 61.6927 11.6817 61.6903 11.7107C61.6837 11.8352 61.6636 11.9587 61.6306 12.0788C61.5908 12.2433 61.5394 12.4261 61.4764 12.627C61.4133 12.828 61.3412 13.0302 61.2601 13.2336C61.179 13.4373 61.0973 13.6187 61.0149 13.7776C60.9057 13.9983 60.7746 14.2072 60.6237 14.401C60.5864 14.4587 60.5374 14.5076 60.4799 14.5443C60.4224 14.5811 60.3578 14.6049 60.2904 14.6142C60.2552 14.6163 60.2199 14.6111 60.1867 14.5989C60.1534 14.5867 60.123 14.5678 60.0971 14.5433C60.0491 14.4943 60.017 14.4314 60.0053 14.3632C60.0591 14.314 60.11 14.2617 60.1578 14.2064C60.2125 14.1442 60.2675 14.0773 60.3226 14.0058C60.3777 13.9342 60.4305 13.861 60.481 13.786C60.5288 13.7159 60.5707 13.6417 60.6063 13.5644C60.5527 13.5446 60.5042 13.5127 60.4644 13.4711C60.4012 13.3979 60.3505 13.3145 60.3143 13.2243" fill="#CC0066"/>
<path d="M64.5479 11.9801C64.4649 11.9136 64.3608 11.8804 64.2554 11.8868C64.1766 11.8864 64.0985 11.9023 64.0258 11.9334C63.9517 11.9654 63.8834 12.0099 63.8238 12.065C63.8295 12.0912 63.8336 12.1177 63.8362 12.1443C63.839 12.1723 63.8404 12.2003 63.8404 12.2278V13.726C63.813 13.7369 63.7847 13.7454 63.7559 13.7512C63.7174 13.7598 63.6781 13.764 63.6388 13.7638C63.5715 13.7691 63.5046 13.7507 63.4492 13.7116C63.4269 13.6891 63.4098 13.6619 63.3991 13.6318C63.3885 13.6018 63.3846 13.5698 63.3876 13.538V12.2782C63.3924 12.2235 63.3854 12.1683 63.3669 12.1166C63.3484 12.0649 63.319 12.018 63.2807 11.9791C63.1977 11.9127 63.0936 11.8795 62.9882 11.8858C62.9098 11.8854 62.832 11.8996 62.7586 11.9278C62.6951 11.952 62.6345 11.9833 62.5778 12.0211V13.7284C62.5504 13.7393 62.5221 13.7477 62.4933 13.7536C62.4533 13.7623 62.4125 13.7665 62.3716 13.7662C62.3063 13.7708 62.2414 13.7523 62.188 13.7139C62.1656 13.6915 62.1483 13.6643 62.1376 13.6343C62.1269 13.6042 62.1229 13.5721 62.126 13.5403V12.009C62.1229 11.9486 62.1364 11.8885 62.165 11.8354C62.1994 11.7834 62.2434 11.7386 62.2945 11.7034C62.5071 11.5689 62.752 11.4965 63.0024 11.4944C63.1275 11.4922 63.2519 11.5127 63.3698 11.555C63.4716 11.592 63.5633 11.6529 63.6374 11.7328C63.7237 11.6619 63.8202 11.6047 63.9234 11.5634C64.0474 11.515 64.1795 11.4916 64.3123 11.4944C64.4211 11.4936 64.5294 11.5094 64.6337 11.541C64.7271 11.5686 64.8136 11.6163 64.8871 11.681C64.9594 11.747 65.0163 11.8284 65.0538 11.9194C65.0975 12.029 65.1186 12.1465 65.1158 12.2647V13.7293C65.0856 13.7393 65.055 13.7477 65.024 13.7545C64.9855 13.763 64.9463 13.7673 64.9069 13.7671C64.8416 13.7716 64.7767 13.7532 64.7233 13.7148C64.7009 13.6924 64.6837 13.6652 64.6729 13.6352C64.6622 13.6051 64.6582 13.5731 64.6613 13.5413V12.2815C64.6662 12.2267 64.6592 12.1715 64.6407 12.1198C64.6222 12.0681 64.5927 12.0212 64.5543 11.9824" fill="#CC0066"/>
<path d="M66.0662 12.8928C66.0926 13.0488 66.1765 13.1886 66.3008 13.2838C66.4348 13.3735 66.5932 13.4181 66.7535 13.4112C66.8668 13.4126 66.9793 13.392 67.085 13.3506C67.1712 13.3175 67.2535 13.2746 67.3302 13.2227C67.3677 13.2426 67.3991 13.2726 67.4209 13.3095C67.4427 13.3464 67.454 13.3887 67.4537 13.4318C67.4532 13.4862 67.4327 13.5384 67.3963 13.5783C67.3523 13.6271 67.2991 13.6663 67.2397 13.6935C67.1664 13.7282 67.0894 13.7542 67.0102 13.771C66.7634 13.8218 66.5078 13.8057 66.2691 13.7243C66.1364 13.677 66.0155 13.6005 65.9152 13.5003C65.8128 13.3964 65.7344 13.2706 65.6856 13.1322C65.6296 12.9703 65.6023 12.7995 65.6052 12.6278C65.6021 12.4606 65.6279 12.2942 65.6815 12.1361C65.7267 12.0042 65.7991 11.8837 65.8936 11.7824C65.9837 11.6879 66.0924 11.6138 66.2127 11.565C66.3364 11.5145 66.4687 11.489 66.602 11.4898C66.7324 11.488 66.8619 11.5129 66.9826 11.5631C67.0933 11.6092 67.1936 11.6777 67.2775 11.7644C67.3614 11.8511 67.4271 11.9542 67.4706 12.0675C67.5182 12.19 67.5419 12.3207 67.5404 12.4524C67.5431 12.4832 67.5398 12.5143 67.5306 12.5437C67.5213 12.5732 67.5064 12.6005 67.4867 12.6241C67.4446 12.6635 67.3912 12.6884 67.3343 12.695L66.0662 12.8928ZM66.6015 11.8664C66.527 11.8646 66.4529 11.8792 66.3844 11.9092C66.3158 11.9391 66.2545 11.9837 66.2044 12.0399C66.0909 12.1773 66.0315 12.3525 66.0377 12.5317L67.108 12.3684C67.1004 12.2373 67.0505 12.1123 66.9661 12.0129C66.9198 11.9627 66.8631 11.9235 66.8002 11.8982C66.7372 11.8729 66.6691 11.862 66.6015 11.8664Z" fill="#CC0066"/>
<path d="M69.2617 11.9918C69.1701 11.9165 69.0543 11.8784 68.9366 11.8849C68.8444 11.8835 68.7525 11.8977 68.6648 11.9269C68.5936 11.9515 68.5247 11.9828 68.4591 12.0202V13.7275C68.4318 13.7384 68.4035 13.7468 68.3747 13.7527C68.3347 13.7614 68.2939 13.7656 68.253 13.7653C68.1877 13.7699 68.1228 13.7514 68.0693 13.713C68.0469 13.6906 68.0297 13.6634 68.019 13.6334C68.0083 13.6033 68.0043 13.5712 68.0073 13.5394V12.0081C68.0045 11.9477 68.018 11.8877 68.0464 11.8345C68.081 11.7824 68.1251 11.7376 68.1763 11.7025C68.2776 11.6446 68.3845 11.5977 68.4954 11.5625C68.6384 11.516 68.7879 11.4935 68.938 11.4958C69.1749 11.4821 69.409 11.554 69.5987 11.6988C69.6822 11.7755 69.7473 11.8707 69.7891 11.9769C69.8309 12.0832 69.8482 12.1978 69.8397 12.3119V13.7303C69.8108 13.7407 69.7812 13.7491 69.7511 13.7555C69.7113 13.7642 69.6706 13.7684 69.6299 13.7681C69.5646 13.7726 69.4997 13.7542 69.4463 13.7158C69.4239 13.6934 69.4068 13.6661 69.3961 13.6361C69.3855 13.6061 69.3816 13.574 69.3847 13.5422V12.3291C69.3899 12.2682 69.3819 12.2068 69.3612 12.1494C69.3406 12.0919 69.3079 12.0397 69.2654 11.9964" fill="#CC0066"/>
<path d="M70.9887 13.3345C71.065 13.3847 71.1551 13.4089 71.2458 13.4036C71.2988 13.4032 71.3514 13.3955 71.4024 13.3807C71.4523 13.3674 71.5007 13.3485 71.5465 13.3243C71.5666 13.3506 71.5846 13.3785 71.6003 13.4078C71.6272 13.4622 71.6327 13.5249 71.6156 13.5833C71.5986 13.6417 71.5602 13.6912 71.5084 13.7218C71.4023 13.7816 71.2815 13.8092 71.1604 13.8011C70.9744 13.8107 70.7906 13.7554 70.6398 13.6443C70.5701 13.5802 70.5161 13.5004 70.4822 13.4113C70.4482 13.3221 70.4352 13.2262 70.4442 13.1311V10.9596C70.4741 10.949 70.5049 10.9406 70.536 10.9344C70.5766 10.9258 70.618 10.9216 70.6595 10.9218C70.7239 10.9165 70.7881 10.9343 70.8409 10.9722C70.8622 10.9949 70.8784 11.0219 70.8884 11.0516C70.8984 11.0812 70.9019 11.1128 70.8987 11.1439V11.604H71.5741C71.5876 11.6293 71.5987 11.6558 71.6072 11.6833C71.6184 11.7184 71.624 11.7551 71.6237 11.792C71.6237 11.9233 71.5701 11.9887 71.463 11.9884H70.8987V13.0975C70.894 13.1415 70.9 13.1861 70.916 13.2273C70.9319 13.2685 70.9576 13.3051 70.9905 13.3341" fill="#CC0066"/>
<path d="M73.6057 13.136C73.6098 13.2288 73.5924 13.3213 73.5548 13.406C73.5173 13.4907 73.4606 13.5652 73.3895 13.6236C73.2063 13.7541 72.9846 13.8169 72.7614 13.8014C72.6551 13.8022 72.549 13.7923 72.4446 13.772C72.3606 13.7565 72.2789 13.7298 72.2017 13.6927C72.1419 13.6638 72.0887 13.6225 72.0456 13.5713C72.0087 13.5284 71.9882 13.4735 71.9878 13.4164C71.9877 13.3719 71.9982 13.328 72.0186 13.2886C72.0394 13.2476 72.0712 13.2135 72.1104 13.1901C72.1971 13.2499 72.2894 13.301 72.3858 13.3427C72.5006 13.3908 72.624 13.4143 72.7481 13.4118C72.853 13.4187 72.9576 13.394 73.0488 13.3409C73.0819 13.3186 73.1088 13.2881 73.1268 13.2522C73.1448 13.2163 73.1534 13.1763 73.1516 13.136C73.1534 13.1017 73.1481 13.0674 73.1361 13.0352C73.1241 13.0031 73.1056 12.9739 73.0819 12.9494C73.0218 12.8963 72.9494 12.8595 72.8716 12.8425L72.575 12.759C72.414 12.7219 72.265 12.6433 72.1425 12.5309C72.0947 12.4777 72.0579 12.4153 72.0342 12.3475C72.0105 12.2796 72.0006 12.2076 72.0048 12.1357C72.0043 12.0483 72.0226 11.9618 72.0585 11.8823C72.094 11.8031 72.1468 11.7331 72.2128 11.6775C72.2879 11.6161 72.3739 11.57 72.4662 11.5417C72.5781 11.5066 72.6948 11.4896 72.8119 11.4913C72.9087 11.4903 73.0053 11.4993 73.1002 11.5184C73.1761 11.5336 73.2501 11.5575 73.3206 11.5898C73.3762 11.6143 73.4256 11.6515 73.4648 11.6985C73.4975 11.7376 73.5158 11.7871 73.5162 11.8385C73.5172 11.8823 73.5065 11.9257 73.4854 11.964C73.4664 11.9983 73.4404 12.0282 73.4092 12.0517C73.334 12.0084 73.2556 11.9713 73.1746 11.9406C73.0696 11.8996 72.9579 11.879 72.8454 11.88C72.745 11.8742 72.6451 11.8973 72.5571 11.9467C72.5297 11.9642 72.5065 11.9875 72.489 12.0151C72.4714 12.0427 72.4601 12.0738 72.4557 12.1063C72.4513 12.1389 72.454 12.172 72.4636 12.2033C72.4732 12.2347 72.4895 12.2635 72.5112 12.2878C72.5688 12.3382 72.6385 12.3721 72.7132 12.3862L72.9685 12.4534C73.1479 12.4959 73.3142 12.583 73.4524 12.7068C73.5053 12.7639 73.5463 12.8314 73.5728 12.9051C73.5993 12.9788 73.6109 13.0572 73.6067 13.1356" fill="#CC0066"/>
<path d="M10.7622 6.55518V14.7236C10.7622 15.2584 10.6008 15.7802 10.2997 16.2188C9.99866 16.6573 9.57244 16.9914 9.0786 17.176L1.74825 19.9158C1.63288 19.959 1.50893 19.9733 1.38697 19.9573C1.26501 19.9414 1.14864 19.8957 1.04777 19.8243C0.946912 19.7528 0.864542 19.6576 0.807679 19.5468C0.750816 19.436 0.721144 19.3129 0.721191 19.1879V12.2568C0.721427 11.84 0.847257 11.4332 1.08176 11.0912C1.31626 10.7492 1.64819 10.4884 2.03291 10.3438L8.80818 7.79722C9.87748 7.35723 10.2953 7.08801 10.7627 6.55751" fill="white"/>
<path d="M17.207 8.62265C17.1993 8.92637 17.0784 9.21579 16.8687 9.43235C16.659 9.6489 16.3762 9.77643 16.0775 9.7891H14.5413C14.4527 9.79123 14.3669 9.75754 14.3028 9.69542C14.2387 9.6333 14.2014 9.54784 14.1993 9.45783V6.05738C14.1986 6.01227 14.2068 5.96749 14.2235 5.92568C14.2402 5.88388 14.2649 5.8459 14.2963 5.814C14.3277 5.7821 14.3651 5.75694 14.4062 5.73999C14.4473 5.72305 14.4914 5.71468 14.5358 5.71537H16.0183C16.24 5.72729 16.4536 5.80432 16.6332 5.93713C16.8127 6.06993 16.9505 6.25281 17.0298 6.46359C17.1091 6.67437 17.1265 6.90401 17.08 7.12466C17.0335 7.34532 16.9249 7.54751 16.7676 7.70675C16.9032 7.81671 17.0129 7.95594 17.089 8.11435C17.1651 8.27276 17.2051 8.44639 17.207 8.62265ZM14.8512 7.40953L15.9425 7.39834C16.0751 7.39391 16.201 7.33841 16.2948 7.24311C16.3886 7.1478 16.4432 7.01981 16.4476 6.8851C16.4468 6.75552 16.3965 6.63132 16.3073 6.5387C16.2182 6.44608 16.0971 6.39228 15.9696 6.38865H14.8512V7.40953ZM16.5344 8.62265C16.5252 8.48534 16.4664 8.35635 16.3691 8.2606C16.2718 8.16486 16.1431 8.10916 16.0077 8.10427H14.8783V9.12469H16.0399C16.1696 9.12049 16.2929 9.06625 16.3846 8.97299C16.4764 8.87973 16.5298 8.75446 16.5339 8.62265" fill="white"/>
<path d="M19.8792 8.10424H19.3852V9.45733C19.3833 9.54639 19.3468 9.63109 19.2838 9.69302C19.2208 9.75496 19.1363 9.78914 19.0486 9.78813C18.9623 9.78789 18.8796 9.75297 18.8186 9.691C18.7575 9.62903 18.723 9.54503 18.7227 9.45733V6.04614C18.7254 5.95735 18.7621 5.87314 18.8249 5.81138C18.8878 5.74962 18.9718 5.71517 19.0592 5.71533H20.2479C20.5535 5.72211 20.8449 5.8478 21.0621 6.06647C21.2792 6.28514 21.4055 6.58014 21.415 6.89066C21.4093 7.14109 21.3289 7.38385 21.1844 7.58682C21.04 7.78979 20.8383 7.94338 20.606 8.02725L21.3608 9.27956C21.4048 9.35668 21.4175 9.44818 21.3963 9.53466C21.375 9.62115 21.3214 9.69583 21.2469 9.74287C21.1953 9.77171 21.1373 9.78695 21.0784 9.7872C21.0218 9.78715 20.9662 9.77242 20.9168 9.74441C20.8674 9.71641 20.8258 9.67605 20.7961 9.62716L19.8792 8.10424ZM20.7589 6.89579C20.7527 6.75742 20.6936 6.62696 20.5942 6.53216C20.4949 6.43736 20.363 6.38569 20.2267 6.38815H19.3852V7.43096H20.2267C20.367 7.43109 20.5015 7.37492 20.6012 7.27469C20.7009 7.17446 20.7575 7.03828 20.7589 6.89579Z" fill="white"/>
<path d="M25.2262 9.78606C24.6968 9.78027 24.1912 9.5617 23.8198 9.17814C23.4485 8.79458 23.2417 8.27722 23.2447 7.73916C23.2515 7.34302 23.3734 6.95777 23.5949 6.63173C23.8164 6.3057 24.1277 6.05341 24.4898 5.90653C24.8519 5.75964 25.2486 5.72469 25.6302 5.80607C26.0117 5.88745 26.3612 6.08154 26.6346 6.36397C26.908 6.64641 27.0932 7.00461 27.1671 7.39364C27.2409 7.78267 27.2001 8.1852 27.0496 8.55072C26.8992 8.91624 26.6459 9.22848 26.3215 9.44825C25.9971 9.66802 25.6161 9.78554 25.2262 9.78606ZM23.8851 7.73916C23.8856 8.00929 23.9649 8.27321 24.1129 8.49755C24.261 8.72189 24.4712 8.89657 24.717 8.99949C24.9627 9.10242 25.233 9.12896 25.4936 9.07578C25.7542 9.02259 25.9934 8.89206 26.181 8.70069C26.3686 8.50933 26.4962 8.26572 26.5475 8.00068C26.5989 7.73564 26.5717 7.46108 26.4695 7.21172C26.3673 6.96236 26.1947 6.7494 25.9733 6.59978C25.752 6.45015 25.492 6.37059 25.2262 6.37114C24.8708 6.37468 24.5309 6.52012 24.28 6.77605C24.0291 7.03198 23.8873 7.3779 23.8851 7.73916Z" fill="white"/>
<path d="M31.8931 9.75968C31.8511 9.77632 31.8062 9.78422 31.7611 9.7829C31.716 9.78159 31.6717 9.77109 31.6307 9.75203C31.5896 9.73297 31.5528 9.70574 31.5223 9.67195C31.4919 9.63816 31.4684 9.5985 31.4533 9.55532L30.535 7.03577L29.6122 9.55532C29.5981 9.59862 29.5755 9.63852 29.5456 9.67256C29.5158 9.7066 29.4794 9.73405 29.4386 9.75321C29.3979 9.77236 29.3538 9.78282 29.3089 9.78394C29.2641 9.78505 29.2194 9.7768 29.1779 9.75968C29.1351 9.74477 29.0957 9.72116 29.0622 9.69028C29.0286 9.65941 29.0016 9.62192 28.9828 9.5801C28.964 9.53828 28.9538 9.493 28.9527 9.44703C28.9517 9.40106 28.9599 9.35535 28.9768 9.3127L30.2035 5.93044C30.2293 5.86286 30.2749 5.80494 30.3341 5.76448C30.3933 5.72402 30.4633 5.70296 30.5346 5.70415C30.6056 5.70449 30.6749 5.72616 30.7338 5.76643C30.7927 5.80669 30.8385 5.86375 30.8656 5.93044L32.0924 9.3127C32.1093 9.35532 32.1175 9.401 32.1165 9.44695C32.1155 9.4929 32.1053 9.53816 32.0865 9.57997C32.0677 9.62179 32.0408 9.65929 32.0073 9.69018C31.9738 9.72108 31.9345 9.74472 31.8917 9.75968" fill="white"/>
<path d="M33.4619 9.45621V6.06229C33.464 5.97522 33.499 5.89232 33.5596 5.83073C33.6202 5.76915 33.7018 5.73361 33.7874 5.73148H34.5964C34.8878 5.72974 35.1763 5.78982 35.4435 5.90785C35.7003 6.02235 35.9298 6.19166 36.1166 6.40429C36.3029 6.61929 36.4419 6.87223 36.5243 7.14621C36.6068 7.42018 36.6307 7.70888 36.5945 7.99301C36.5346 8.48639 36.2998 8.94067 35.934 9.27074C35.5682 9.60081 35.0966 9.78403 34.6074 9.78608H33.7879C33.7022 9.78395 33.6206 9.74842 33.56 9.68684C33.4994 9.62525 33.4645 9.54234 33.4624 9.45528M35.938 7.91555C35.9667 7.725 35.9538 7.53037 35.9003 7.34542C35.8469 7.16047 35.7541 6.98971 35.6285 6.84521C35.4987 6.6985 35.3394 6.58174 35.1615 6.50279C34.9835 6.42383 34.791 6.38453 34.5969 6.3875H34.1139V9.124H34.6079C34.9372 9.12416 35.255 9.00102 35.5006 8.7781C35.7462 8.55518 35.9024 8.2481 35.9393 7.91555" fill="white"/>
<path d="M39.819 9.21876C39.6565 9.4682 39.4061 9.64492 39.1194 9.7126C38.8326 9.78029 38.5313 9.7338 38.2772 9.5827C38.1993 9.53469 38.1417 9.45897 38.1157 9.37024C38.0897 9.28152 38.097 9.18612 38.1363 9.10258C38.1952 9.03336 38.2777 8.98925 38.3672 8.97904C38.4567 8.96884 38.5467 8.99329 38.6193 9.04753C38.7318 9.10962 38.8634 9.12594 38.9873 9.0932C39.1112 9.06045 39.2183 8.98109 39.2868 8.87116C39.3247 8.81395 39.3511 8.74972 39.3645 8.68213C39.3779 8.61455 39.3781 8.54494 39.365 8.47729C39.3519 8.40964 39.3258 8.34528 39.2882 8.28789C39.2506 8.2305 39.2023 8.1812 39.1459 8.14282C38.8801 7.97159 38.8704 7.96646 38.6138 7.79522C38.3597 7.62765 38.1814 7.36437 38.1183 7.06329C38.0552 6.7622 38.1124 6.44798 38.2772 6.18971C38.4414 5.94233 38.6917 5.76726 38.9776 5.69966C39.2636 5.63206 39.5642 5.67695 39.819 5.82531C39.8943 5.87005 39.9499 5.9425 39.9741 6.02769C39.9984 6.11289 39.9895 6.2043 39.9494 6.28303C39.8955 6.35517 39.8164 6.40347 39.7284 6.41789C39.6404 6.43232 39.5503 6.41176 39.4769 6.36048C39.3594 6.29971 39.2235 6.287 39.0971 6.32497C38.9707 6.36295 38.8635 6.44872 38.7974 6.56463C38.7313 6.68054 38.7115 6.81778 38.742 6.94809C38.7725 7.07841 38.851 7.19189 38.9613 7.26518C39.099 7.35337 39.0991 7.35337 39.4879 7.61279C39.6135 7.69603 39.7217 7.80362 39.8063 7.9294C39.8909 8.05518 39.9503 8.19667 39.981 8.34579C40.0118 8.49491 40.0133 8.64873 39.9855 8.79844C39.9576 8.94815 39.9011 9.09129 39.819 9.21876Z" fill="white"/>
<path d="M43.4845 8.09447C43.1809 8.11639 42.8763 8.12013 42.5722 8.10567V9.45876C42.5703 9.54783 42.5339 9.63252 42.4709 9.69446C42.4079 9.7564 42.3234 9.79057 42.2357 9.78957C42.1495 9.7892 42.0669 9.75423 42.0059 9.69227C41.9449 9.63031 41.9105 9.54638 41.9102 9.45876V6.05691C41.9096 6.01331 41.9176 5.97004 41.9338 5.92965C41.95 5.88926 41.9739 5.85257 42.0043 5.82173C42.0346 5.7909 42.0707 5.76656 42.1105 5.75013C42.1502 5.73371 42.1928 5.72554 42.2357 5.7261H43.4519C43.755 5.7357 44.0427 5.86381 44.2551 6.08374C44.4675 6.30367 44.5882 6.59843 44.5919 6.90655C44.587 7.20926 44.4705 7.49907 44.2654 7.71868C44.0604 7.9383 43.7817 8.07173 43.4845 8.09261M43.4087 6.38818H42.5727V7.43099H43.4087C43.5487 7.43016 43.6827 7.37368 43.7822 7.27365C43.8816 7.17363 43.9386 7.038 43.9409 6.89582C43.9338 6.75778 43.8744 6.62787 43.7753 6.53326C43.6761 6.43865 43.5448 6.38667 43.4087 6.38818Z" fill="white"/>
<path d="M46.3286 9.45644V6.04665C46.329 5.95903 46.3634 5.8751 46.4244 5.81315C46.4853 5.75119 46.5679 5.71622 46.6541 5.71585H48.61C48.6977 5.71472 48.7823 5.74886 48.8453 5.81082C48.9083 5.87278 48.9447 5.95755 48.9465 6.04665C48.9461 6.13721 48.9104 6.22392 48.8474 6.28795C48.7844 6.35198 48.6991 6.38817 48.61 6.38866H46.992V7.43147H48.2138C48.2567 7.43091 48.2992 7.43908 48.339 7.4555C48.3787 7.47193 48.4149 7.49627 48.4452 7.5271C48.4755 7.55794 48.4995 7.59463 48.5156 7.63502C48.5318 7.67541 48.5398 7.71868 48.5393 7.76228C48.5399 7.80592 48.5319 7.84924 48.5158 7.88968C48.4996 7.93013 48.4757 7.96687 48.4454 7.99776C48.415 8.02864 48.3789 8.05302 48.3391 8.06948C48.2993 8.08593 48.2567 8.09412 48.2138 8.09355H46.992V9.11397H48.61C48.6991 9.11446 48.7844 9.15065 48.8474 9.21468C48.9104 9.27871 48.9461 9.36542 48.9465 9.45597C48.9446 9.54504 48.9082 9.62974 48.8452 9.69167C48.7822 9.75361 48.6976 9.78779 48.61 9.78678H46.6555C46.5693 9.78641 46.4867 9.75144 46.4257 9.68948C46.3648 9.62753 46.3303 9.54359 46.33 9.45597" fill="white"/>
<path d="M54.0551 9.34578C53.7094 9.62521 53.2805 9.7769 52.8388 9.77597C52.3075 9.77597 51.798 9.56147 51.4222 9.17966C51.0465 8.79784 50.8354 8.28 50.8354 7.74004C50.8354 7.20007 51.0465 6.68222 51.4222 6.30041C51.798 5.9186 52.3075 5.7041 52.8388 5.7041C53.1998 5.7046 53.5534 5.80788 53.8595 6.00225C53.8979 6.02257 53.932 6.05059 53.9595 6.08462C53.987 6.11865 54.0075 6.15799 54.0197 6.20027C54.0319 6.24255 54.0355 6.2869 54.0304 6.33065C54.0252 6.3744 54.0115 6.41664 53.9899 6.45483C53.9678 6.49266 53.9383 6.52545 53.9033 6.55117C53.8682 6.57689 53.8283 6.59498 53.786 6.60431C53.7437 6.61364 53.7 6.61401 53.6576 6.60539C53.6152 6.59677 53.575 6.57934 53.5395 6.55421C53.3277 6.42636 53.0856 6.35958 52.8393 6.36105C52.6632 6.36105 52.4889 6.39631 52.3262 6.46481C52.1636 6.53331 52.0158 6.63372 51.8913 6.76029C51.7669 6.88686 51.6682 7.03711 51.6009 7.20245C51.5336 7.3678 51.499 7.54501 51.4991 7.72394C51.4931 7.98021 51.5583 8.23302 51.6872 8.45334C51.8161 8.67367 52.0036 8.85257 52.2281 8.9695C52.4525 9.08644 52.7049 9.13667 52.9562 9.11442C53.2075 9.09217 53.4475 8.99835 53.6487 8.84373C53.6803 8.81625 53.7169 8.79544 53.7565 8.78249C53.7961 8.76955 53.8377 8.76474 53.8792 8.76835C53.9206 8.77195 53.9609 8.7839 53.9977 8.80349C54.0345 8.82308 54.0671 8.84993 54.0936 8.88246C54.1489 8.94911 54.1759 9.03528 54.1687 9.12212C54.1616 9.20895 54.1209 9.28938 54.0555 9.34578" fill="white"/>
<path d="M58.576 6.04031C58.576 6.08355 58.5675 6.12637 58.5511 6.16627C58.5347 6.20617 58.5107 6.24237 58.4804 6.27275C58.4501 6.30313 58.4142 6.3271 58.3747 6.34327C58.3353 6.35943 58.293 6.36747 58.2505 6.36691H57.453V9.45662C57.453 9.54368 57.4189 9.62717 57.3584 9.68872C57.2978 9.75028 57.2156 9.78486 57.13 9.78486C57.0443 9.78486 56.9621 9.75028 56.9016 9.68872C56.841 9.62717 56.807 9.54368 56.807 9.45662V6.36598H56.009C55.9234 6.36598 55.8412 6.3314 55.7806 6.26984C55.7201 6.20829 55.686 6.1248 55.686 6.03774C55.686 5.95069 55.7201 5.8672 55.7806 5.80564C55.8412 5.74408 55.9234 5.7095 56.009 5.7095H58.2509C58.2938 5.70894 58.3364 5.71711 58.3762 5.73353C58.4159 5.74996 58.452 5.7743 58.4823 5.80513C58.5127 5.83596 58.5366 5.87266 58.5528 5.91305C58.569 5.95344 58.5765 5.99671 58.576 6.04031Z" fill="white"/>
<path d="M61.3621 8.10424H60.8681V9.45733C60.8661 9.54639 60.8297 9.63109 60.7667 9.69302C60.7037 9.75496 60.6192 9.78914 60.5315 9.78813C60.4452 9.78789 60.3625 9.75297 60.3015 9.691C60.2404 9.62903 60.2059 9.54503 60.2056 9.45733V6.04614C60.2083 5.95735 60.245 5.87314 60.3078 5.81138C60.3707 5.74962 60.4547 5.71517 60.5421 5.71533H61.7312C62.0369 5.72211 62.3283 5.8478 62.5454 6.06647C62.7625 6.28514 62.8889 6.58014 62.8983 6.89066C62.8926 7.14109 62.8123 7.38385 62.6678 7.58682C62.5233 7.78979 62.3216 7.94338 62.0894 8.02725L62.8441 9.27956C62.8881 9.35673 62.9007 9.44827 62.8794 9.53477C62.858 9.62126 62.8044 9.69591 62.7298 9.74287C62.6781 9.77173 62.6202 9.78697 62.5613 9.7872C62.5047 9.78715 62.4491 9.77242 62.3997 9.74441C62.3503 9.71641 62.3087 9.67605 62.279 9.62716L61.3621 8.10424ZM62.2417 6.89579C62.2356 6.75742 62.1765 6.62696 62.0771 6.53216C61.9778 6.43736 61.8459 6.38569 61.7097 6.38815H60.8681V7.43096H61.7097C61.8499 7.43109 61.9844 7.37492 62.0841 7.27469C62.1838 7.17446 62.2404 7.03828 62.2417 6.89579Z" fill="white"/>
<path d="M67.6598 6.04074V8.29713C67.6632 8.49497 67.6279 8.69151 67.5557 8.8753C67.4836 9.05909 67.3762 9.22644 67.2398 9.36758C67.1033 9.50872 66.9406 9.62083 66.761 9.69736C66.5815 9.77388 66.3887 9.8133 66.194 9.8133C65.9993 9.8133 65.8065 9.77388 65.627 9.69736C65.4475 9.62083 65.2847 9.50872 65.1483 9.36758C65.0118 9.22644 64.9044 9.05909 64.8323 8.8753C64.7602 8.69151 64.7248 8.49497 64.7283 8.29713V6.04074C64.7283 5.95146 64.7631 5.86583 64.8253 5.8027C64.8874 5.73957 64.9716 5.7041 65.0595 5.7041C65.1473 5.7041 65.2316 5.73957 65.2938 5.8027C65.3559 5.86583 65.3908 5.95146 65.3908 6.04074V8.29713C65.3908 8.51517 65.476 8.72428 65.6277 8.87846C65.7794 9.03263 65.9852 9.11925 66.1997 9.11925C66.4143 9.11925 66.6201 9.03263 66.7718 8.87846C66.9235 8.72428 67.0087 8.51517 67.0087 8.29713V6.04074C67.0082 5.99714 67.0162 5.95387 67.0324 5.91348C67.0486 5.87309 67.0725 5.8364 67.1028 5.80557C67.1332 5.77474 67.1692 5.75039 67.209 5.73397C67.2487 5.71754 67.2913 5.70937 67.3342 5.70994C67.3772 5.70937 67.4197 5.71754 67.4595 5.73397C67.4992 5.75039 67.5353 5.77474 67.5657 5.80557C67.596 5.8364 67.6199 5.87309 67.6361 5.91348C67.6523 5.95387 67.6603 5.99714 67.6598 6.04074Z" fill="white"/>
<path d="M73.5067 9.38455C73.5184 9.42515 73.5219 9.46774 73.517 9.50976C73.512 9.55177 73.4988 9.59233 73.4779 9.62897C73.4571 9.66562 73.4292 9.69759 73.3958 9.72294C73.3625 9.74829 73.3245 9.76651 73.284 9.77648H73.2675C73.262 9.77648 73.262 9.77648 73.2569 9.78767H73.2188C73.1428 9.78702 73.0695 9.75981 73.0109 9.71061C72.9524 9.66141 72.9123 9.59322 72.8974 9.51752L72.4521 7.31059L71.6325 9.54505C71.6108 9.61248 71.5686 9.6712 71.512 9.71283C71.4555 9.75446 71.3874 9.77688 71.3176 9.77688C71.2477 9.77688 71.1797 9.75446 71.1231 9.71283C71.0666 9.6712 71.0244 9.61248 71.0027 9.54505L70.2805 7.41557L69.9003 9.51752C69.8883 9.59506 69.8491 9.66561 69.7901 9.71625C69.7311 9.76689 69.6561 9.79423 69.5789 9.79327C69.5623 9.79327 69.5408 9.78767 69.5247 9.78767C69.4811 9.78125 69.4395 9.76501 69.4029 9.74015C69.3663 9.71529 69.3356 9.68243 69.3131 9.64397C69.2869 9.61015 69.2684 9.57083 69.259 9.52887C69.2497 9.4869 69.2496 9.44333 69.2589 9.40134L69.8181 5.98083C69.832 5.90637 69.87 5.83878 69.9261 5.78881C69.9822 5.73884 70.0531 5.70937 70.1276 5.70508H70.1546C70.2247 5.70504 70.2929 5.72761 70.3496 5.76954C70.4062 5.81147 70.4482 5.87059 70.4696 5.93837L71.3272 8.39353L72.223 5.92717C72.2439 5.86118 72.2854 5.80393 72.3413 5.76411C72.3971 5.72428 72.4642 5.70405 72.5324 5.70648H72.5489C72.6231 5.70697 72.6946 5.73453 72.7504 5.78412C72.8062 5.83371 72.8425 5.90204 72.8529 5.97663L73.5067 9.38455Z" fill="white"/>
</g>
</svg>
