<svg width="76" height="21" viewBox="0 0 76 21" fill="none" xmlns="http://www.w3.org/2000/svg">
<mask id="mask0_2057_98302" style="mask-type:luminance" maskUnits="userSpaceOnUse" x="0" y="0" width="76" height="21">
<path d="M75.7745 0.779297H0.863525V20.7986H75.7745V0.779297Z" fill="white"/>
</mask>
<g mask="url(#mask0_2057_98302)">
<path d="M9.00101 3.80981L2.16285 0.856568C2.02082 0.795134 1.86603 0.770437 1.71231 0.784685C1.55859 0.798933 1.41074 0.851682 1.28199 0.938214C1.15324 1.02475 1.04761 1.14236 0.974539 1.28054C0.90147 1.41871 0.863244 1.57314 0.863281 1.73001V9.33077C0.863277 9.49237 0.901805 9.65158 0.97557 9.79474C1.04933 9.93791 1.15614 10.0608 1.28684 10.1528C1.41754 10.2449 1.56824 10.3034 1.72605 10.3234C1.88386 10.3433 2.04407 10.3241 2.19298 10.2673L6.72994 8.53864L1.81454 6.4574C1.74416 6.42432 1.68913 6.36482 1.66099 6.29139C1.63286 6.21795 1.63382 6.1363 1.66366 6.06357C1.69351 5.99083 1.74992 5.93268 1.82106 5.90132C1.8922 5.86995 1.97253 5.86782 2.04518 5.89536L7.55223 8.22581L9.10033 7.63554C11.7494 6.70183 11.8873 4.83632 9.00148 3.80886M9.64915 6.22732C9.61856 6.30168 9.56022 6.36069 9.48692 6.39144C9.41361 6.42219 9.3313 6.42217 9.25801 6.39139L1.70252 3.19372C1.6662 3.17836 1.63322 3.15588 1.60546 3.12757C1.57769 3.09926 1.55568 3.06566 1.54069 3.02871C1.51041 2.95407 1.51055 2.87027 1.54107 2.79574C1.57159 2.72121 1.63 2.66205 1.70344 2.63128C1.77688 2.60051 1.85934 2.60065 1.93269 2.63167L9.4877 5.8303C9.52409 5.84564 9.55714 5.86813 9.58495 5.89647C9.61277 5.92481 9.63481 5.95846 9.64981 5.99547C9.66481 6.03249 9.67247 6.07215 9.67236 6.11218C9.67224 6.15221 9.66436 6.19183 9.64915 6.22876" fill="#CC0066"/>
<path d="M45.6703 12.94C45.6747 13.1689 45.6396 13.3968 45.5667 13.6135C45.5051 13.7931 45.405 13.9565 45.2735 14.0918C45.1449 14.2203 44.989 14.3172 44.8179 14.375C44.6271 14.4386 44.4274 14.4698 44.2266 14.4673C44.1325 14.4673 44.0213 14.463 43.8929 14.4544C43.772 14.4476 43.6526 14.4231 43.5385 14.3817C43.48 14.37 43.4273 14.3378 43.3895 14.2909C43.3518 14.2439 43.3314 14.185 43.3319 14.1243V11.7389C43.3291 11.6927 43.3443 11.6474 43.3742 11.6126C43.4061 11.5801 43.4452 11.5558 43.4882 11.5418C43.6001 11.5064 43.7154 11.4833 43.8322 11.4729C43.9546 11.4614 44.0735 11.4557 44.189 11.4557C44.3935 11.4534 44.5972 11.4837 44.7924 11.5456C44.9679 11.6004 45.1288 11.695 45.2631 11.8221C45.3964 11.9525 45.4995 12.1115 45.5648 12.2875C45.6405 12.4961 45.6771 12.7172 45.6726 12.9395M45.1789 12.9438C45.1825 12.7791 45.1575 12.6151 45.105 12.4592C45.0616 12.3346 44.9908 12.2217 44.8979 12.1292C44.8087 12.0429 44.702 11.9776 44.5853 11.9379C44.4608 11.8956 44.3302 11.8746 44.1989 11.8757C44.0686 11.8734 43.9385 11.885 43.8106 11.9101V14.0119C43.8751 14.0271 43.9407 14.0372 44.0068 14.0421C44.0787 14.0478 44.1526 14.0507 44.2285 14.0507C44.3591 14.0595 44.49 14.0391 44.612 13.9909C44.734 13.9428 44.8441 13.8679 44.9346 13.7718C45.1125 13.5353 45.1989 13.2407 45.1774 12.9438" fill="#CC0066"/>
<path d="M46.1688 11.4946C46.1678 11.4564 46.1741 11.4184 46.1875 11.3827C46.2009 11.347 46.2211 11.3143 46.247 11.2866C46.2733 11.2587 46.3052 11.2368 46.3405 11.2224C46.3758 11.208 46.4137 11.2013 46.4517 11.2029C46.4891 11.2016 46.5262 11.2084 46.5608 11.2229C46.5954 11.2373 46.6265 11.259 46.6522 11.2866C46.7026 11.3438 46.7303 11.4179 46.7303 11.4946C46.7303 11.5714 46.7026 11.6455 46.6522 11.7027C46.6265 11.7303 46.5954 11.752 46.5608 11.7664C46.5262 11.7808 46.4891 11.7877 46.4517 11.7864C46.4137 11.788 46.3758 11.7813 46.3405 11.7669C46.3052 11.7524 46.2733 11.7306 46.247 11.7027C46.2211 11.675 46.2009 11.6423 46.1875 11.6066C46.1741 11.5709 46.1677 11.5328 46.1688 11.4946ZM46.6838 14.4029C46.6557 14.4141 46.6267 14.4227 46.5972 14.4288C46.5563 14.4376 46.5146 14.442 46.4729 14.4417C46.4047 14.4474 46.3367 14.4284 46.2809 14.3881C46.2586 14.3647 46.2415 14.3367 46.231 14.306C46.2204 14.2752 46.2166 14.2425 46.2197 14.2102V12.192L46.3082 12.1686C46.3496 12.1581 46.3921 12.1531 46.4348 12.1538C46.5018 12.1483 46.5686 12.1673 46.623 12.2074C46.6449 12.2318 46.6614 12.2607 46.6716 12.2921C46.6817 12.3235 46.6852 12.3567 46.6819 12.3896L46.6838 14.4029Z" fill="#CC0066"/>
<path d="M48.6908 14.2014C48.6265 14.2427 48.557 14.2749 48.4842 14.297C48.3895 14.3246 48.2913 14.3377 48.1928 14.3358C48.066 14.3366 47.9399 14.3162 47.8196 14.2755C47.7035 14.2359 47.5976 14.1705 47.5094 14.0842C47.4145 13.9892 47.3423 13.8733 47.2985 13.7455C47.2436 13.579 47.2179 13.404 47.2227 13.2284C47.2196 13.0643 47.2453 12.9008 47.2985 12.7458C47.3443 12.6149 47.4187 12.4962 47.516 12.3985C47.6113 12.3049 47.7248 12.2326 47.8492 12.1861C47.988 12.1358 48.1345 12.1111 48.2818 12.1134C48.4177 12.1122 48.553 12.1324 48.6828 12.1732C48.7903 12.2062 48.8927 12.2545 48.9869 12.3167C49.032 12.3483 49.0707 12.3884 49.1008 12.4349C49.1304 12.4845 49.1451 12.5419 49.1431 12.5999V14.4735C49.1468 14.6147 49.121 14.7551 49.0674 14.8854C49.0204 14.995 48.9471 15.0909 48.8541 15.1643C48.7573 15.2383 48.6466 15.2915 48.5289 15.3207C48.397 15.3539 48.2614 15.37 48.1255 15.3685C47.9945 15.3706 47.8639 15.3545 47.7372 15.3207C47.6522 15.2985 47.5701 15.2664 47.4924 15.225C47.4321 15.1875 47.3877 15.1284 47.3682 15.0593C47.3487 14.9902 47.3554 14.9162 47.387 14.8519C47.4066 14.8148 47.4357 14.7837 47.4712 14.762C47.5542 14.8215 47.6452 14.8683 47.7414 14.9012C47.8579 14.9433 47.9807 14.9643 48.1043 14.9634C48.2579 14.9728 48.4102 14.9297 48.5369 14.8409C48.5911 14.7923 48.6333 14.7315 48.66 14.6632C48.6868 14.595 48.6973 14.5213 48.6908 14.4482V14.2014ZM48.2559 13.944C48.3435 13.9465 48.4305 13.9302 48.5115 13.8962C48.5749 13.8685 48.6328 13.8293 48.6823 13.7804V12.6272C48.6316 12.5946 48.5771 12.5687 48.5199 12.5502C48.4456 12.526 48.3678 12.5143 48.2898 12.5157C48.2089 12.5124 48.1283 12.5264 48.053 12.5567C47.9778 12.587 47.9097 12.633 47.853 12.6917C47.7312 12.8401 47.6714 13.031 47.6864 13.2236C47.6838 13.3369 47.6987 13.4499 47.7306 13.5585C47.7551 13.6409 47.7969 13.7169 47.853 13.7814C47.9023 13.8366 47.9637 13.8793 48.0323 13.9058C48.1039 13.9323 48.1797 13.9449 48.2559 13.944Z" fill="#CC0066"/>
<path d="M49.7225 11.4946C49.7215 11.4564 49.7278 11.4184 49.7412 11.3827C49.7546 11.347 49.7748 11.3143 49.8007 11.2866C49.827 11.2587 49.8589 11.2368 49.8942 11.2224C49.9295 11.208 49.9674 11.2013 50.0054 11.2029C50.0428 11.2016 50.0799 11.2084 50.1145 11.2228C50.1491 11.2373 50.1802 11.259 50.2059 11.2866C50.2562 11.3438 50.2841 11.4179 50.2841 11.4946C50.2841 11.5714 50.2562 11.6455 50.2059 11.7027C50.1802 11.7303 50.1491 11.752 50.1145 11.7664C50.0799 11.7809 50.0428 11.7877 50.0054 11.7864C49.9674 11.788 49.9295 11.7813 49.8942 11.7669C49.8589 11.7524 49.827 11.7306 49.8007 11.7027C49.7748 11.675 49.7546 11.6423 49.7412 11.6066C49.7278 11.5709 49.7214 11.5328 49.7225 11.4946ZM50.2375 14.4029C50.2094 14.4141 50.1804 14.4227 50.1508 14.4288C50.1099 14.4377 50.068 14.442 50.0261 14.4417C49.9579 14.4474 49.8899 14.4284 49.8341 14.3881C49.8118 14.3647 49.7947 14.3367 49.7842 14.306C49.7736 14.2753 49.7697 14.2425 49.7729 14.2102V12.192L49.8614 12.1686C49.9028 12.1581 49.9453 12.1531 49.988 12.1538C50.055 12.1483 50.1218 12.1673 50.1763 12.2074C50.1981 12.2318 50.2147 12.2607 50.2248 12.2921C50.2349 12.3235 50.2384 12.3567 50.2351 12.3896L50.2375 14.4029Z" fill="#CC0066"/>
<path d="M51.4453 14.0018C51.5235 14.0533 51.6159 14.078 51.7089 14.0726C51.7632 14.0721 51.8172 14.0642 51.8694 14.0491C51.9206 14.0355 51.9702 14.0161 52.0172 13.9912C52.0378 14.0183 52.0562 14.0469 52.0723 14.0769C52.0998 14.1326 52.1054 14.197 52.0879 14.2568C52.0704 14.3166 52.0312 14.3673 51.9781 14.3988C51.8694 14.4602 51.7455 14.4884 51.6214 14.4801C51.4306 14.49 51.2423 14.4333 51.0876 14.3194C51.0162 14.2536 50.9609 14.1718 50.9261 14.0804C50.8913 13.9891 50.8779 13.8907 50.8871 13.7932V11.567C50.9178 11.5562 50.9493 11.5475 50.9812 11.5412C51.0229 11.5324 51.0653 11.5281 51.1078 11.5283C51.1739 11.5228 51.2397 11.5411 51.2938 11.58C51.3155 11.6032 51.3321 11.631 51.3422 11.6614C51.3524 11.6918 51.3559 11.7241 51.3526 11.756V12.2276H52.045C52.0587 12.2536 52.0701 12.2808 52.0789 12.3089C52.0903 12.3449 52.0961 12.3826 52.0958 12.4204C52.0958 12.555 52.0409 12.6221 51.9311 12.6218H51.3526V13.7588C51.3478 13.8039 51.3539 13.8496 51.3703 13.8918C51.3867 13.9341 51.4129 13.9716 51.4467 14.0013" fill="#CC0066"/>
<path d="M53.3446 12.1123C53.5792 12.0992 53.8113 12.1666 54.0036 12.3036C54.0889 12.3782 54.1555 12.4723 54.198 12.5782C54.2406 12.684 54.2578 12.7986 54.2483 12.9126V14.0237C54.2522 14.084 54.2356 14.1438 54.2013 14.1931C54.1646 14.2369 54.122 14.2753 54.0747 14.3069C53.9815 14.36 53.8822 14.4011 53.7791 14.4294C53.6401 14.4674 53.4965 14.4854 53.3526 14.4829C53.1148 14.497 52.8789 14.4331 52.6795 14.3007C52.5988 14.2389 52.5343 14.1578 52.492 14.0646C52.4496 13.9714 52.4306 13.8689 52.4367 13.7664C52.4314 13.6775 52.4456 13.5885 52.4782 13.5058C52.5107 13.4231 52.5608 13.3488 52.6249 13.288C52.7805 13.1643 52.9699 13.0923 53.1672 13.0819L53.7875 13.013V12.9102C53.7926 12.8527 53.7837 12.7949 53.7616 12.7418C53.7395 12.6887 53.7049 12.6419 53.6609 12.6055C53.5572 12.5365 53.4345 12.503 53.3107 12.5098C53.1949 12.5094 53.0798 12.5266 52.969 12.561C52.8672 12.592 52.7682 12.6322 52.6734 12.681C52.6437 12.6531 52.6182 12.6208 52.5977 12.5854C52.5749 12.5467 52.5632 12.5023 52.564 12.4573C52.5647 12.4122 52.5778 12.3683 52.6019 12.3304C52.633 12.29 52.6736 12.2582 52.72 12.2381C52.8103 12.1935 52.9061 12.1613 53.0048 12.1424C53.1168 12.1204 53.2306 12.1097 53.3446 12.1104M53.3531 14.0921C53.4457 14.094 53.5381 14.0824 53.6275 14.0577C53.685 14.0435 53.7394 14.0187 53.788 13.9845V13.3799L53.307 13.4316C53.1979 13.4389 53.0922 13.4727 52.9987 13.5301C52.9644 13.5563 52.9372 13.5908 52.9195 13.6305C52.9018 13.6702 52.8942 13.7138 52.8975 13.7573C52.8956 13.8039 52.9046 13.8503 52.9236 13.8928C52.9427 13.9353 52.9713 13.9726 53.0071 14.0017C53.1094 14.0701 53.2311 14.1017 53.3531 14.0917" fill="#CC0066"/>
<path d="M55.1298 14.4414C55.0629 14.4461 54.9963 14.4272 54.9415 14.3878C54.9185 14.3648 54.9009 14.3369 54.8899 14.3061C54.8789 14.2754 54.8748 14.2425 54.878 14.2099V11.3188L54.9665 11.2954C55.0079 11.2848 55.0504 11.2798 55.0931 11.2805C55.1597 11.2758 55.226 11.2938 55.2814 11.3317C55.3044 11.3542 55.3222 11.3817 55.3332 11.4122C55.3442 11.4428 55.3482 11.4754 55.3449 11.5077V14.4031C55.3195 14.4117 55.2881 14.4203 55.2508 14.4289C55.2106 14.438 55.1695 14.4423 55.1284 14.4418" fill="#CC0066"/>
<path d="M57.4653 13.4156V14.4024C57.4334 14.4128 57.401 14.4214 57.3683 14.4282C57.3266 14.4371 57.2842 14.4414 57.2417 14.4411C57.1717 14.4473 57.102 14.4274 57.0454 14.3852C57.023 14.3605 57.006 14.3313 56.9955 14.2995C56.9849 14.2676 56.9811 14.2339 56.9842 14.2005V11.7424C56.9814 11.6962 56.9967 11.6509 57.0266 11.6161C57.0584 11.5836 57.0975 11.5593 57.1405 11.5453C57.2484 11.5083 57.3603 11.4845 57.4737 11.4745C57.5993 11.4617 57.7188 11.4553 57.8324 11.4553C58.1415 11.4297 58.4488 11.5231 58.6933 11.717C58.7872 11.8085 58.8608 11.9194 58.9089 12.0423C58.957 12.1652 58.9785 12.2972 58.9719 12.4292C58.9778 12.562 58.956 12.6946 58.908 12.8182C58.86 12.9419 58.7868 13.0538 58.6933 13.1467C58.4597 13.3437 58.1599 13.4406 57.8573 13.417L57.4653 13.4156ZM57.8324 12.9994C58.0036 13.0093 58.173 12.9586 58.3116 12.8559C58.3714 12.8035 58.4183 12.7377 58.4487 12.6636C58.4791 12.5895 58.4921 12.5093 58.4867 12.4292C58.4933 12.3508 58.4817 12.2718 58.4527 12.1988C58.4238 12.1258 58.3783 12.0607 58.32 12.0088C58.1794 11.9113 58.0107 11.8645 57.8409 11.8758C57.7762 11.8758 57.71 11.8787 57.6422 11.8844C57.5812 11.8893 57.5205 11.8979 57.4606 11.9102V12.9999L57.8324 12.9994Z" fill="#CC0066"/>
<path d="M60.245 12.1123C60.4795 12.0991 60.7117 12.1665 60.904 12.3036C60.9892 12.3782 61.0559 12.4723 61.0985 12.5782C61.141 12.684 61.1582 12.7986 61.1487 12.9126V14.0237C61.1526 14.084 61.136 14.1438 61.1016 14.1931C61.065 14.2369 61.0223 14.2753 60.975 14.3069C60.8819 14.36 60.7826 14.4011 60.6794 14.4294C60.5405 14.4674 60.3969 14.4855 60.253 14.4829C60.0152 14.497 59.7793 14.4331 59.5799 14.3007C59.4992 14.2389 59.4347 14.1578 59.3923 14.0646C59.3499 13.9714 59.331 13.8689 59.337 13.7664C59.3318 13.6775 59.346 13.5885 59.3785 13.5058C59.4111 13.4231 59.4612 13.3488 59.5253 13.288C59.6809 13.1643 59.8702 13.0923 60.0676 13.0819L60.6879 13.013V12.9102C60.693 12.8527 60.6841 12.7949 60.662 12.7418C60.6399 12.6886 60.6053 12.6418 60.5613 12.6055C60.4576 12.5365 60.3349 12.503 60.2111 12.5098C60.0953 12.5094 59.9801 12.5266 59.8694 12.561C59.7676 12.592 59.6686 12.6322 59.5738 12.681C59.5441 12.6531 59.5186 12.6208 59.498 12.5854C59.4753 12.5467 59.4636 12.5023 59.4643 12.4573C59.4651 12.4122 59.4782 12.3683 59.5022 12.3304C59.5333 12.29 59.574 12.2583 59.6204 12.2381C59.7107 12.1935 59.8065 12.1613 59.9052 12.1424C60.0171 12.1204 60.1309 12.1097 60.245 12.1104M60.2535 14.0921C60.3461 14.094 60.4385 14.0824 60.5279 14.0577C60.5853 14.0435 60.6398 14.0187 60.6884 13.9845V13.3799L60.2073 13.4316C60.0983 13.4389 59.9926 13.4727 59.899 13.5301C59.8648 13.5563 59.8375 13.5908 59.8199 13.6305C59.8022 13.6702 59.7946 13.7138 59.7979 13.7573C59.796 13.8039 59.8049 13.8503 59.824 13.8928C59.843 13.9353 59.8716 13.9726 59.9075 14.0017C60.0097 14.0701 60.1315 14.1017 60.2535 14.0917" fill="#CC0066"/>
<path d="M62.1492 13.8923C62.0733 13.7351 61.9812 13.5135 61.8729 13.2274C61.7647 12.9414 61.6613 12.6182 61.5627 12.2579C61.5929 12.2219 61.6295 12.192 61.6705 12.1698C61.7138 12.1457 61.7624 12.1332 61.8117 12.1335C61.869 12.1307 61.9255 12.1476 61.9722 12.1813C62.0225 12.2274 62.0578 12.288 62.0735 12.355C62.155 12.6123 62.2388 12.8661 62.3248 13.1165C62.4108 13.3668 62.5057 13.6249 62.6096 13.8909H62.6265C62.6714 13.7879 62.717 13.6685 62.7635 13.5326C62.8099 13.3968 62.8549 13.2523 62.8986 13.0992C62.9422 12.9462 62.9838 12.791 63.0233 12.6338C63.0628 12.4766 63.098 12.3266 63.1287 12.1837C63.1573 12.1693 63.1868 12.1572 63.2172 12.1474C63.2528 12.1368 63.2898 12.1318 63.3269 12.1325C63.3854 12.1302 63.4431 12.147 63.4916 12.1804C63.5148 12.1987 63.533 12.2226 63.5448 12.2499C63.5565 12.2772 63.5614 12.3071 63.5589 12.3368C63.5521 12.4645 63.5316 12.591 63.4978 12.7142C63.457 12.8829 63.4042 13.0702 63.3396 13.2762C63.275 13.4822 63.2011 13.6895 63.1179 13.8981C63.0348 14.1069 62.951 14.2929 62.8666 14.4558C62.7545 14.6821 62.6201 14.8962 62.4655 15.0949C62.4272 15.154 62.3769 15.2041 62.318 15.2418C62.259 15.2795 62.1928 15.304 62.1238 15.3135C62.0877 15.3156 62.0515 15.3102 62.0174 15.2977C61.9833 15.2852 61.9521 15.2659 61.9256 15.2408C61.8763 15.1905 61.8435 15.126 61.8315 15.0561C61.8866 15.0057 61.9388 14.952 61.9878 14.8954C62.044 14.8316 62.1003 14.7631 62.1568 14.6897C62.2132 14.6164 62.2674 14.5413 62.3191 14.4644C62.3682 14.3925 62.4112 14.3165 62.4476 14.2372C62.3927 14.2169 62.3429 14.1842 62.3022 14.1415C62.2374 14.0665 62.1853 13.981 62.1483 13.8885" fill="#CC0066"/>
<path d="M66.4886 12.6119C66.4035 12.5438 66.2968 12.5098 66.1887 12.5163C66.1079 12.5159 66.0278 12.5322 65.9534 12.5641C65.8773 12.5969 65.8073 12.6425 65.7463 12.699C65.752 12.7258 65.7563 12.753 65.759 12.7803C65.7618 12.809 65.7632 12.8377 65.7632 12.8659V14.4019C65.7352 14.413 65.7061 14.4217 65.6766 14.4277C65.6372 14.4365 65.5969 14.4408 65.5566 14.4406C65.4876 14.4461 65.419 14.4272 65.3622 14.3871C65.3393 14.364 65.3218 14.3361 65.3109 14.3053C65.3 14.2745 65.2959 14.2417 65.2991 14.2091V12.9176C65.304 12.8615 65.2968 12.8049 65.2778 12.7519C65.2589 12.6989 65.2287 12.6508 65.1895 12.611C65.1044 12.5429 64.9977 12.5089 64.8896 12.5153C64.8092 12.5149 64.7294 12.5294 64.6542 12.5584C64.5891 12.5832 64.527 12.6153 64.4688 12.654V14.4043C64.4408 14.4155 64.4117 14.4241 64.3822 14.4301C64.3412 14.439 64.2994 14.4434 64.2574 14.443C64.1905 14.4478 64.124 14.4288 64.0692 14.3894C64.0462 14.3665 64.0286 14.3386 64.0176 14.3078C64.0066 14.277 64.0025 14.2441 64.0057 14.2115V12.6416C64.0025 12.5797 64.0164 12.5181 64.0457 12.4637C64.0809 12.4103 64.126 12.3643 64.1784 12.3283C64.3963 12.1904 64.6475 12.1162 64.9042 12.114C65.0323 12.1117 65.1599 12.1328 65.2808 12.1762C65.3851 12.214 65.4792 12.2765 65.5552 12.3584C65.6436 12.2857 65.7425 12.2272 65.8484 12.1848C65.9755 12.1352 66.1109 12.1111 66.2471 12.114C66.3586 12.1132 66.4696 12.1294 66.5765 12.1618C66.6723 12.1901 66.7609 12.2391 66.8364 12.3053C66.9104 12.373 66.9688 12.4564 67.0072 12.5498C67.0521 12.6621 67.0737 12.7826 67.0708 12.9037V14.4052C67.0398 14.4154 67.0084 14.4241 66.9767 14.4311C66.9372 14.4398 66.897 14.4442 66.8566 14.444C66.7897 14.4486 66.7232 14.4297 66.6683 14.3904C66.6454 14.3674 66.6277 14.3395 66.6167 14.3087C66.6058 14.2779 66.6017 14.2451 66.6048 14.2125V12.921C66.6099 12.8648 66.6027 12.8082 66.5837 12.7552C66.5648 12.7022 66.5345 12.6541 66.4951 12.6143" fill="#CC0066"/>
<path d="M68.0456 13.5493C68.0727 13.7091 68.1587 13.8525 68.2861 13.9501C68.4235 14.0421 68.5858 14.0877 68.7502 14.0807C68.8663 14.0822 68.9817 14.061 69.0901 14.0185C69.1784 13.9846 69.2628 13.9406 69.3414 13.8875C69.3799 13.9078 69.4121 13.9387 69.4344 13.9765C69.4568 14.0143 69.4684 14.0577 69.468 14.1018C69.4675 14.1575 69.4465 14.2111 69.4092 14.252C69.3641 14.302 69.3095 14.3422 69.2487 14.3701C69.1735 14.4057 69.0945 14.4323 69.0133 14.4495C68.7604 14.5017 68.4983 14.4852 68.2536 14.4017C68.1176 14.3532 67.9937 14.2748 67.8907 14.1721C67.7859 14.0655 67.7055 13.9366 67.6554 13.7947C67.598 13.6286 67.5701 13.4536 67.573 13.2776C67.5698 13.1062 67.5963 12.9355 67.6512 12.7734C67.6976 12.6383 67.7717 12.5147 67.8686 12.4109C67.961 12.3139 68.0724 12.238 68.1957 12.1879C68.3226 12.1362 68.4582 12.1101 68.5949 12.1109C68.7286 12.1091 68.8613 12.1346 68.9851 12.186C69.0986 12.2333 69.2014 12.3036 69.2874 12.3924C69.3734 12.4813 69.4408 12.587 69.4854 12.7031C69.5342 12.8287 69.5585 12.9627 69.5569 13.0977C69.5597 13.1293 69.5563 13.1612 69.5468 13.1914C69.5374 13.2216 69.5221 13.2496 69.5019 13.2738C69.4587 13.3142 69.404 13.3396 69.3456 13.3465L68.0456 13.5493ZM68.5944 12.4969C68.518 12.4951 68.442 12.5101 68.3718 12.5408C68.3015 12.5715 68.2386 12.6173 68.1873 12.6749C68.0709 12.8157 68.01 12.9953 68.0164 13.1791L69.1136 13.0116C69.1059 12.8772 69.0547 12.7491 68.9681 12.6471C68.9207 12.5957 68.8626 12.5555 68.7981 12.5296C68.7335 12.5036 68.6637 12.4925 68.5944 12.4969Z" fill="#CC0066"/>
<path d="M71.3214 12.6249C71.2275 12.5477 71.1087 12.5087 70.9881 12.5154C70.8936 12.5139 70.7994 12.5285 70.7095 12.5584C70.6364 12.5837 70.5659 12.6157 70.4986 12.6541V14.4043C70.4705 14.4155 70.4416 14.4242 70.412 14.4302C70.371 14.4391 70.3292 14.4434 70.2873 14.4431C70.2203 14.4478 70.1538 14.4289 70.099 14.3895C70.076 14.3665 70.0584 14.3386 70.0474 14.3078C70.0364 14.2771 70.0323 14.2442 70.0354 14.2116V12.6417C70.0325 12.5797 70.0464 12.5182 70.0755 12.4637C70.1109 12.4103 70.1561 12.3644 70.2087 12.3284C70.3125 12.269 70.4221 12.2209 70.5358 12.1848C70.6824 12.1372 70.8357 12.1141 70.9896 12.1164C71.2324 12.1024 71.4724 12.1761 71.6669 12.3245C71.7525 12.4032 71.8192 12.5008 71.8621 12.6097C71.9049 12.7186 71.9227 12.8361 71.914 12.9531V14.4072C71.8843 14.4179 71.854 14.4265 71.8232 14.433C71.7823 14.4419 71.7406 14.4463 71.6989 14.4459C71.6319 14.4507 71.5654 14.4317 71.5106 14.3924C71.4877 14.3694 71.4701 14.3414 71.4592 14.3107C71.4483 14.2799 71.4443 14.247 71.4475 14.2144V12.9708C71.4528 12.9083 71.4446 12.8454 71.4234 12.7865C71.4023 12.7276 71.3688 12.6741 71.3252 12.6297" fill="#CC0066"/>
<path d="M73.0918 14.0018C73.1701 14.0532 73.2624 14.078 73.3555 14.0726C73.4097 14.0721 73.4637 14.0642 73.5159 14.0491C73.5672 14.0355 73.6167 14.0161 73.6637 13.9912C73.6843 14.0183 73.7027 14.0469 73.7188 14.0769C73.7464 14.1326 73.7521 14.197 73.7346 14.2568C73.7171 14.3166 73.6777 14.3674 73.6246 14.3988C73.5159 14.4602 73.392 14.4884 73.2679 14.4801C73.0771 14.49 72.8888 14.4333 72.7341 14.3194C72.6627 14.2536 72.6074 14.1718 72.5725 14.0804C72.5377 13.9891 72.5244 13.8907 72.5336 13.7932V11.567C72.5643 11.5562 72.5958 11.5475 72.6278 11.5412C72.6694 11.5324 72.7118 11.5281 72.7543 11.5283C72.8204 11.5228 72.8862 11.5411 72.9403 11.58C72.9621 11.6032 72.9788 11.6309 72.989 11.6613C72.9992 11.6917 73.0028 11.724 72.9996 11.756V12.2276H73.692C73.7058 12.2536 73.7172 12.2808 73.7259 12.3089C73.7374 12.3449 73.7431 12.3826 73.7428 12.4204C73.7428 12.555 73.6879 12.6221 73.578 12.6218H72.9996V13.7588C72.9948 13.8039 73.0009 13.8496 73.0173 13.8918C73.0337 13.9341 73.0599 13.9716 73.0937 14.0013" fill="#CC0066"/>
<path d="M75.7744 13.7981C75.7786 13.8932 75.7607 13.988 75.7222 14.0749C75.6837 14.1617 75.6256 14.2381 75.5527 14.2979C75.3649 14.4317 75.1376 14.4961 74.9088 14.4802C74.7998 14.481 74.6911 14.4709 74.5841 14.45C74.4979 14.4342 74.4142 14.4068 74.335 14.3687C74.2737 14.3392 74.2192 14.2968 74.175 14.2444C74.1371 14.2004 74.1161 14.144 74.1157 14.0855C74.1156 14.0399 74.1264 13.9949 74.1473 13.9545C74.1687 13.9125 74.2013 13.8775 74.2414 13.8535C74.3303 13.9148 74.4249 13.9672 74.5238 14.01C74.6415 14.0593 74.7679 14.0834 74.8952 14.0808C75.0028 14.0879 75.11 14.0626 75.2034 14.0081C75.2374 13.9853 75.2649 13.954 75.2834 13.9172C75.3019 13.8804 75.3106 13.8393 75.3089 13.7981C75.3107 13.7629 75.3053 13.7277 75.293 13.6947C75.2806 13.6618 75.2617 13.6318 75.2373 13.6067C75.1757 13.5523 75.1016 13.5146 75.0218 13.4972L74.7177 13.4116C74.5526 13.3735 74.4 13.2929 74.2743 13.1777C74.2253 13.1232 74.1876 13.0592 74.1633 12.9896C74.139 12.92 74.1288 12.8462 74.1331 12.7725C74.1327 12.6829 74.1514 12.5943 74.1882 12.5128C74.2246 12.4316 74.2787 12.3598 74.3464 12.3028C74.4234 12.2399 74.5116 12.1926 74.6062 12.1636C74.7209 12.1276 74.8405 12.1102 74.9606 12.1119C75.0598 12.1109 75.1589 12.1202 75.2562 12.1397C75.334 12.1552 75.4098 12.1798 75.4821 12.2129C75.5392 12.238 75.5897 12.2761 75.6299 12.3243C75.6635 12.3644 75.6822 12.4152 75.6826 12.4678C75.6836 12.5128 75.6727 12.5572 75.6511 12.5965C75.6316 12.6317 75.6049 12.6624 75.573 12.6864C75.4959 12.642 75.4155 12.604 75.3324 12.5726C75.2248 12.5305 75.1103 12.5094 74.9949 12.5104C74.892 12.5044 74.7896 12.5281 74.6994 12.5788C74.6713 12.5967 74.6475 12.6206 74.6295 12.6489C74.6116 12.6772 74.5999 12.7091 74.5954 12.7424C74.5909 12.7758 74.5937 12.8097 74.6035 12.8419C74.6134 12.874 74.63 12.9036 74.6523 12.9285C74.7114 12.9801 74.7828 13.0149 74.8594 13.0294L75.1211 13.0983C75.3051 13.1418 75.4755 13.2311 75.6172 13.358C75.6715 13.4166 75.7135 13.4857 75.7407 13.5613C75.7679 13.6369 75.7797 13.7173 75.7754 13.7976" fill="#CC0066"/>
<path d="M11.3479 7.05176V15.426C11.3479 15.9742 11.1824 16.5092 10.8738 16.9588C10.5651 17.4084 10.1282 17.7509 9.62189 17.9401L2.10688 20.7489C1.98861 20.7932 1.86154 20.8078 1.7365 20.7915C1.61147 20.7752 1.49217 20.7284 1.38877 20.6551C1.28536 20.5818 1.20092 20.4842 1.14262 20.3706C1.08433 20.257 1.05391 20.1308 1.05396 20.0027V12.897C1.0542 12.4697 1.1832 12.0527 1.42361 11.7021C1.66402 11.3514 2.00431 11.0841 2.39871 10.9358L9.34466 8.32509C10.4409 7.87401 10.8692 7.59802 11.3484 7.05415" fill="white"/>
<path d="M17.9549 9.17098C17.947 9.48235 17.8231 9.77906 17.6081 10.0011C17.3931 10.2231 17.1032 10.3538 16.797 10.3668H15.222C15.1312 10.369 15.0433 10.3345 14.9775 10.2708C14.9118 10.2071 14.8736 10.1195 14.8714 10.0272V6.54109C14.8707 6.49485 14.8791 6.44894 14.8962 6.40608C14.9133 6.36322 14.9387 6.32429 14.9709 6.29158C15.003 6.25888 15.0414 6.23308 15.0835 6.21571C15.1257 6.19834 15.1709 6.18976 15.2164 6.19047H16.7362C16.9636 6.20269 17.1825 6.28166 17.3666 6.41781C17.5506 6.55396 17.6919 6.74145 17.7732 6.95754C17.8545 7.17363 17.8724 7.40905 17.8247 7.63526C17.777 7.86147 17.6657 8.06877 17.5044 8.23201C17.6434 8.34474 17.7559 8.48748 17.8339 8.64988C17.9119 8.81228 17.9529 8.99028 17.9549 9.17098ZM15.5398 7.92731L16.6586 7.91583C16.7945 7.91129 16.9236 7.8544 17.0197 7.75669C17.1159 7.65898 17.1719 7.52777 17.1763 7.38966C17.1755 7.25682 17.124 7.12949 17.0326 7.03454C16.9412 6.93959 16.817 6.88443 16.6863 6.88071H15.5398V7.92731ZM17.2653 9.17098C17.256 9.03022 17.1956 8.89798 17.0959 8.79982C16.9961 8.70166 16.8642 8.64456 16.7254 8.63955H15.5675V9.68567H16.7584C16.8913 9.68136 17.0177 9.62575 17.1118 9.53015C17.2059 9.43455 17.2606 9.30612 17.2648 9.17098" fill="white"/>
<path d="M20.6942 8.63951H20.1878V10.0267C20.1858 10.118 20.1484 10.2048 20.0838 10.2683C20.0192 10.3318 19.9326 10.3669 19.8427 10.3658C19.7543 10.3656 19.6695 10.3298 19.6069 10.2662C19.5443 10.2027 19.5089 10.1166 19.5085 10.0267V6.52957C19.5114 6.43854 19.549 6.35222 19.6134 6.2889C19.6778 6.22558 19.7639 6.19026 19.8536 6.19043H21.0722C21.3855 6.19738 21.6843 6.32623 21.9069 6.55041C22.1295 6.77459 22.259 7.07702 22.2687 7.39536C22.2628 7.6521 22.1804 7.90098 22.0323 8.10906C21.8842 8.31714 21.6774 8.4746 21.4393 8.56059L22.2131 9.84444C22.2582 9.9235 22.2713 10.0173 22.2495 10.106C22.2277 10.1946 22.1728 10.2712 22.0964 10.3194C22.0434 10.349 21.9841 10.3646 21.9237 10.3649C21.8656 10.3648 21.8086 10.3497 21.758 10.321C21.7073 10.2923 21.6647 10.2509 21.6342 10.2008L20.6942 8.63951ZM21.5961 7.40062C21.5897 7.25877 21.5292 7.12502 21.4273 7.02784C21.3254 6.93065 21.1902 6.87768 21.0505 6.88019H20.1878V7.94927H21.0505C21.1943 7.9494 21.3322 7.89183 21.4344 7.78907C21.5366 7.68631 21.5947 7.5467 21.5961 7.40062Z" fill="white"/>
<path d="M26.1758 10.3644C25.633 10.3585 25.1147 10.1344 24.734 9.74122C24.3533 9.34799 24.1413 8.8176 24.1443 8.26599C24.1514 7.85987 24.2763 7.46491 24.5034 7.13066C24.7305 6.79642 25.0497 6.53777 25.4209 6.38719C25.7921 6.2366 26.1988 6.20077 26.5899 6.2842C26.9811 6.36764 27.3393 6.56661 27.6196 6.85616C27.8999 7.14571 28.0898 7.51293 28.1656 7.91176C28.2413 8.31059 28.1994 8.72326 28.0452 9.09799C27.8909 9.47272 27.6313 9.79282 27.2987 10.0181C26.9661 10.2434 26.5755 10.3639 26.1758 10.3644ZM24.8009 8.26599C24.8014 8.54292 24.8827 8.81349 25.0345 9.04348C25.1863 9.27347 25.4018 9.45255 25.6537 9.55807C25.9056 9.66358 26.1827 9.6908 26.4499 9.63627C26.7171 9.58175 26.9623 9.44793 27.1547 9.25174C27.347 9.05555 27.4777 8.80581 27.5304 8.5341C27.583 8.26238 27.5552 7.98091 27.4504 7.72526C27.3456 7.46962 27.1686 7.2513 26.9417 7.0979C26.7149 6.94451 26.4483 6.86294 26.1758 6.8635C25.8114 6.86714 25.463 7.01623 25.2058 7.27861C24.9485 7.541 24.8031 7.89562 24.8009 8.26599Z" fill="white"/>
<path d="M33.0111 10.3369C32.968 10.354 32.922 10.3621 32.8758 10.3607C32.8296 10.3594 32.7841 10.3486 32.7421 10.3291C32.7 10.3096 32.6623 10.2816 32.631 10.247C32.5998 10.2124 32.5757 10.1717 32.5602 10.1274L31.6188 7.54442L30.6728 10.1274C30.6583 10.1718 30.6351 10.2127 30.6045 10.2476C30.5739 10.2825 30.5366 10.3107 30.4948 10.3303C30.4531 10.3499 30.4078 10.3607 30.3618 10.3618C30.3158 10.3629 30.2701 10.3545 30.2275 10.3369C30.1836 10.3217 30.1432 10.2974 30.1089 10.2658C30.0745 10.2341 30.0468 10.1957 30.0275 10.1528C30.0082 10.11 29.9977 10.0635 29.9967 10.0164C29.9956 9.96928 30.004 9.92243 30.0213 9.8787L31.279 6.41124C31.3055 6.34196 31.3522 6.28257 31.4128 6.24109C31.4735 6.19961 31.5453 6.17803 31.6184 6.17925C31.6911 6.1796 31.7622 6.20182 31.8226 6.24309C31.883 6.28437 31.93 6.34287 31.9577 6.41124L33.2154 9.8787C33.2328 9.9224 33.2412 9.96923 33.2401 10.0163C33.2391 10.0634 33.2286 10.1098 33.2094 10.1527C33.1902 10.1956 33.1625 10.234 33.1282 10.2657C33.0939 10.2974 33.0536 10.3216 33.0097 10.3369" fill="white"/>
<path d="M34.6191 10.0256V6.54621C34.6213 6.45695 34.6571 6.37196 34.7193 6.30882C34.7814 6.24569 34.865 6.20925 34.9529 6.20707H35.7822C36.0809 6.20529 36.3767 6.26687 36.6506 6.38788C36.9139 6.50526 37.1492 6.67884 37.3407 6.89683C37.5317 7.11724 37.6742 7.37655 37.7587 7.65743C37.8432 7.93831 37.8677 8.23428 37.8306 8.52556C37.7693 9.03137 37.5285 9.49709 37.1535 9.83548C36.7785 10.1739 36.295 10.3617 35.7935 10.3638H34.9533C34.8655 10.3616 34.7818 10.3252 34.7197 10.2621C34.6576 10.1989 34.6217 10.1139 34.6196 10.0247M37.1576 8.44616C37.187 8.25081 37.1738 8.05128 37.119 7.86167C37.0642 7.67205 36.969 7.49699 36.8403 7.34886C36.7072 7.19844 36.544 7.07874 36.3615 6.9978C36.1791 6.91686 35.9817 6.87656 35.7827 6.87961H35.2875V9.68505H35.794C36.1316 9.68521 36.4574 9.55897 36.7092 9.33043C36.961 9.10189 37.1211 8.78708 37.159 8.44616" fill="white"/>
<path d="M41.1366 9.78231C40.97 10.038 40.7134 10.2192 40.4194 10.2886C40.1254 10.358 39.8165 10.3103 39.556 10.1554C39.4762 10.1062 39.4171 10.0286 39.3904 9.9376C39.3637 9.84664 39.3712 9.74884 39.4115 9.6632C39.4719 9.59223 39.5565 9.54701 39.6482 9.53655C39.74 9.52609 39.8323 9.55115 39.9067 9.60676C40.0221 9.67041 40.1569 9.68714 40.284 9.65358C40.411 9.62001 40.5208 9.53865 40.5911 9.42595C40.6299 9.3673 40.6569 9.30144 40.6707 9.23216C40.6844 9.16287 40.6846 9.09151 40.6712 9.02216C40.6578 8.9528 40.631 8.88682 40.5925 8.82798C40.5539 8.76915 40.5044 8.71861 40.4466 8.67926C40.1741 8.50371 40.1642 8.49846 39.9011 8.32291C39.6405 8.15111 39.4578 7.8812 39.3931 7.57253C39.3284 7.26387 39.387 6.94172 39.556 6.67695C39.7244 6.42334 39.9809 6.24385 40.2741 6.17455C40.5673 6.10526 40.8754 6.15128 41.1366 6.30337C41.2139 6.34924 41.2708 6.42351 41.2957 6.51085C41.3206 6.59819 41.3115 6.6919 41.2703 6.77262C41.2151 6.84658 41.1339 6.8961 41.0438 6.91088C40.9536 6.92567 40.8612 6.90459 40.7859 6.85202C40.6655 6.78972 40.5262 6.77669 40.3966 6.81562C40.267 6.85455 40.157 6.94248 40.0893 7.06131C40.0216 7.18015 40.0013 7.32084 40.0325 7.45444C40.0638 7.58803 40.1442 7.70438 40.2573 7.77952C40.3986 7.86992 40.3986 7.86992 40.7972 8.13587C40.926 8.22122 41.0369 8.33152 41.1236 8.46046C41.2103 8.58941 41.2712 8.73447 41.3027 8.88734C41.3343 9.04022 41.3358 9.19791 41.3073 9.35139C41.2788 9.50488 41.2208 9.65162 41.1366 9.78231Z" fill="white"/>
<path d="M44.8943 8.62972C44.583 8.65218 44.2707 8.65602 43.959 8.6412V10.0284C43.957 10.1197 43.9197 10.2065 43.8551 10.27C43.7905 10.3335 43.7039 10.3685 43.614 10.3675C43.5256 10.3671 43.4409 10.3313 43.3784 10.2678C43.3159 10.2042 43.2807 10.1182 43.2803 10.0284V6.54083C43.2797 6.49613 43.2879 6.45177 43.3045 6.41036C43.3211 6.36895 43.3457 6.33134 43.3768 6.29973C43.4079 6.26812 43.4449 6.24316 43.4856 6.22633C43.5264 6.20949 43.57 6.20111 43.614 6.20169H44.8609C45.1716 6.21152 45.4666 6.34287 45.6843 6.56834C45.902 6.79381 46.0257 7.09599 46.0296 7.41188C46.0245 7.72221 45.9051 8.01931 45.6949 8.24446C45.4847 8.46961 45.199 8.60641 44.8943 8.62781M44.8166 6.88045H43.9595V7.94953H44.8166C44.9601 7.94867 45.0975 7.89077 45.1995 7.78822C45.3014 7.68568 45.3598 7.54664 45.3621 7.40087C45.3549 7.25935 45.294 7.12617 45.1924 7.02918C45.0907 6.93219 44.9561 6.8789 44.8166 6.88045Z" fill="white"/>
<path d="M47.8101 10.0253V6.5296C47.8104 6.43977 47.8457 6.35373 47.9082 6.29021C47.9707 6.22669 48.0554 6.19084 48.1438 6.19046H50.1489C50.2388 6.1893 50.3255 6.2243 50.3901 6.28782C50.4548 6.35135 50.4921 6.43825 50.4939 6.5296C50.4934 6.62243 50.4569 6.71132 50.3923 6.77697C50.3277 6.84261 50.2403 6.87972 50.1489 6.88022H48.4902V7.9493H49.7427C49.7867 7.94872 49.8303 7.9571 49.8711 7.97394C49.9118 7.99077 49.9489 8.01573 49.98 8.04734C50.0111 8.07895 50.0356 8.11657 50.0522 8.15798C50.0687 8.19938 50.077 8.24374 50.0764 8.28844C50.0771 8.33318 50.0689 8.37759 50.0523 8.41905C50.0358 8.46052 50.0112 8.49819 49.9801 8.52985C49.949 8.56151 49.912 8.58651 49.8712 8.60338C49.8304 8.62024 49.7867 8.62864 49.7427 8.62806H48.4902V9.67418H50.1489C50.2403 9.67468 50.3277 9.71178 50.3923 9.77743C50.4569 9.84307 50.4934 9.93196 50.4939 10.0248C50.492 10.1161 50.4546 10.2029 50.39 10.2664C50.3254 10.3299 50.2388 10.365 50.1489 10.3639H48.1452C48.0568 10.3636 47.9721 10.3277 47.9096 10.2642C47.8471 10.2007 47.8118 10.1146 47.8115 10.0248" fill="white"/>
<path d="M55.7311 9.91261C55.3768 10.1991 54.9371 10.3546 54.4843 10.3536C53.9396 10.3536 53.4172 10.1337 53.032 9.7423C52.6468 9.35087 52.4304 8.81998 52.4304 8.26642C52.4304 7.71285 52.6468 7.18196 53.032 6.79053C53.4172 6.3991 53.9396 6.1792 54.4843 6.1792C54.8543 6.17971 55.2168 6.2856 55.5306 6.48486C55.5701 6.50569 55.6049 6.53441 55.6332 6.5693C55.6614 6.60419 55.6824 6.64452 55.6949 6.68787C55.7074 6.73121 55.7111 6.77668 55.7058 6.82153C55.7006 6.86638 55.6865 6.90969 55.6643 6.94884C55.6417 6.98762 55.6115 7.02124 55.5755 7.04761C55.5395 7.07398 55.4986 7.09252 55.4553 7.10208C55.4119 7.11165 55.3671 7.11202 55.3236 7.10319C55.2802 7.09435 55.2389 7.07649 55.2026 7.05073C54.9854 6.91965 54.7373 6.85119 54.4847 6.85269C54.3042 6.85269 54.1255 6.88884 53.9587 6.95907C53.792 7.0293 53.6405 7.13223 53.5129 7.26199C53.3853 7.39175 53.2841 7.54578 53.2151 7.7153C53.1461 7.88481 53.1107 8.06648 53.1108 8.24992C53.1046 8.51264 53.1714 8.77182 53.3036 8.9977C53.4358 9.22357 53.628 9.40698 53.8581 9.52686C54.0882 9.64674 54.347 9.69823 54.6046 9.67542C54.8622 9.65262 55.1083 9.55643 55.3146 9.39792C55.3469 9.36975 55.3845 9.34841 55.4251 9.33514C55.4656 9.32187 55.5083 9.31694 55.5508 9.32064C55.5933 9.32433 55.6346 9.33658 55.6723 9.35666C55.7101 9.37675 55.7435 9.40427 55.7707 9.43762C55.8273 9.50595 55.855 9.59429 55.8477 9.68331C55.8404 9.77234 55.7986 9.85479 55.7316 9.91261" fill="white"/>
<path d="M60.3666 6.52423C60.3666 6.56856 60.3579 6.61246 60.3411 6.65336C60.3242 6.69427 60.2996 6.73138 60.2686 6.76253C60.2375 6.79368 60.2007 6.81825 60.1602 6.83482C60.1198 6.85139 60.0765 6.85963 60.0328 6.85906H59.2153V10.0266C59.2153 10.1158 59.1804 10.2014 59.1183 10.2645C59.0562 10.3277 58.972 10.3631 58.8841 10.3631C58.7963 10.3631 58.7121 10.3277 58.65 10.2645C58.5879 10.2014 58.553 10.1158 58.553 10.0266V6.8581H57.7349C57.6471 6.8581 57.5629 6.82265 57.5008 6.75954C57.4387 6.69644 57.4038 6.61084 57.4038 6.5216C57.4038 6.43235 57.4387 6.34675 57.5008 6.28365C57.5629 6.22054 57.6471 6.18509 57.7349 6.18509H60.0333C60.0773 6.18451 60.1209 6.19289 60.1617 6.20972C60.2024 6.22656 60.2394 6.25152 60.2705 6.28313C60.3016 6.31474 60.3262 6.35235 60.3428 6.39376C60.3594 6.43517 60.3671 6.47953 60.3666 6.52423Z" fill="white"/>
<path d="M63.2223 8.63951H62.7158V10.0267C62.7138 10.118 62.6765 10.2048 62.6119 10.2683C62.5473 10.3318 62.4607 10.3669 62.3708 10.3658C62.2823 10.3656 62.1975 10.3298 62.1349 10.2662C62.0723 10.2027 62.037 10.1166 62.0366 10.0267V6.52957C62.0394 6.43854 62.077 6.35222 62.1415 6.2889C62.2059 6.22558 62.292 6.19026 62.3816 6.19043H63.6007C63.914 6.19738 64.2128 6.32623 64.4354 6.55041C64.658 6.77459 64.7875 7.07702 64.7972 7.39536C64.7914 7.6521 64.709 7.90098 64.5609 8.10906C64.4128 8.31714 64.206 8.4746 63.9679 8.56059L64.7416 9.84444C64.7867 9.92356 64.7997 10.0174 64.7778 10.1061C64.7559 10.1948 64.7009 10.2713 64.6244 10.3194C64.5715 10.349 64.5121 10.3646 64.4517 10.3649C64.3937 10.3648 64.3367 10.3497 64.286 10.321C64.2354 10.2923 64.1928 10.2509 64.1622 10.2008L63.2223 8.63951ZM64.1241 7.40062C64.1177 7.25877 64.0572 7.12502 63.9553 7.02784C63.8535 6.93065 63.7183 6.87768 63.5786 6.88019H62.7158V7.94927H63.5786C63.7223 7.9494 63.8603 7.89183 63.9625 7.78907C64.0646 7.68631 64.1227 7.5467 64.1241 7.40062Z" fill="white"/>
<path d="M69.6784 6.52383V8.83706C69.682 9.03988 69.6457 9.24138 69.5718 9.42979C69.4979 9.61821 69.3877 9.78978 69.2479 9.93448C69.108 10.0792 68.9411 10.1941 68.7571 10.2726C68.573 10.351 68.3754 10.3914 68.1758 10.3914C67.9762 10.3914 67.7785 10.351 67.5945 10.2726C67.4104 10.1941 67.2436 10.0792 67.1037 9.93448C66.9638 9.78978 66.8537 9.61821 66.7797 9.42979C66.7058 9.24138 66.6696 9.03988 66.6731 8.83706V6.52383C66.6731 6.4323 66.7089 6.34452 66.7725 6.2798C66.8362 6.21507 66.9226 6.17871 67.0127 6.17871C67.1027 6.17871 67.1891 6.21507 67.2528 6.2798C67.3165 6.34452 67.3523 6.4323 67.3523 6.52383V8.83706C67.3523 9.0606 67.4397 9.27497 67.5952 9.43303C67.7507 9.59109 67.9617 9.67989 68.1816 9.67989C68.4016 9.67989 68.6126 9.59109 68.7681 9.43303C68.9236 9.27497 69.011 9.0606 69.011 8.83706V6.52383C69.0104 6.47914 69.0187 6.43477 69.0353 6.39337C69.0518 6.35196 69.0764 6.31434 69.1075 6.28273C69.1386 6.25113 69.1756 6.22617 69.2163 6.20933C69.2571 6.19249 69.3007 6.18411 69.3447 6.18469C69.3887 6.18411 69.4323 6.19249 69.4731 6.20933C69.5138 6.22617 69.5509 6.25113 69.582 6.28273C69.6131 6.31434 69.6376 6.35196 69.6542 6.39337C69.6708 6.43477 69.679 6.47914 69.6784 6.52383Z" fill="white"/>
<path d="M75.6727 9.95233C75.6847 9.99395 75.6883 10.0376 75.6832 10.0807C75.6782 10.1238 75.6646 10.1653 75.6432 10.2029C75.6219 10.2405 75.5932 10.2733 75.5591 10.2992C75.5249 10.3252 75.4859 10.3439 75.4444 10.3541H75.4275C75.4218 10.3541 75.4218 10.3541 75.4166 10.3656H75.3776C75.2997 10.3649 75.2245 10.337 75.1644 10.2866C75.1044 10.2362 75.0633 10.1663 75.0481 10.0887L74.5915 7.82613L73.7513 10.1169C73.729 10.186 73.6858 10.2462 73.6278 10.2889C73.5698 10.3316 73.5 10.3545 73.4284 10.3545C73.3568 10.3545 73.2871 10.3316 73.2291 10.2889C73.1711 10.2462 73.1279 10.186 73.1056 10.1169L72.3652 7.93376L71.9755 10.0887C71.9631 10.1681 71.923 10.2405 71.8625 10.2924C71.802 10.3443 71.7251 10.3723 71.6459 10.3714C71.629 10.3714 71.6069 10.3656 71.5904 10.3656C71.5457 10.359 71.5031 10.3424 71.4655 10.3169C71.428 10.2914 71.3965 10.2577 71.3734 10.2183C71.3466 10.1836 71.3276 10.1433 71.318 10.1003C71.3084 10.0573 71.3084 10.0126 71.3179 9.96955L71.8912 6.46287C71.9054 6.38654 71.9444 6.31724 72.0019 6.26602C72.0594 6.21479 72.1321 6.18457 72.2085 6.18018H72.2362C72.308 6.18013 72.378 6.20327 72.436 6.24626C72.4941 6.28925 72.5372 6.34985 72.5591 6.41934L73.4383 8.93635L74.3567 6.40786C74.3781 6.34021 74.4207 6.28152 74.478 6.24069C74.5352 6.19986 74.604 6.17912 74.6739 6.18161H74.6908C74.7668 6.18212 74.8401 6.21037 74.8973 6.26121C74.9545 6.31205 74.9918 6.3821 75.0024 6.45857L75.6727 9.95233Z" fill="white"/>
</g>
</svg>
