<svg width="75" height="20" viewBox="0 0 75 20" fill="none" xmlns="http://www.w3.org/2000/svg">
<mask id="mask0_2057_109945" style="mask-type:luminance" maskUnits="userSpaceOnUse" x="0" y="0" width="75" height="20">
<path d="M74.3678 0.117188H0.367188V19.8932H74.3678V0.117188Z" fill="white"/>
</mask>
<g mask="url(#mask0_2057_109945)">
<path d="M8.40602 3.1104L1.65096 0.193049C1.51066 0.132362 1.35775 0.107965 1.20589 0.122039C1.05404 0.136114 0.907992 0.188223 0.780808 0.273703C0.653625 0.359183 0.549275 0.475369 0.477093 0.611866C0.404912 0.748364 0.367151 0.900916 0.367188 1.05588V8.56426C0.367183 8.72391 0.405244 8.88117 0.478111 9.0226C0.550979 9.16403 0.656484 9.28541 0.785596 9.37635C0.914707 9.46729 1.06358 9.52509 1.21947 9.54479C1.37536 9.56448 1.53363 9.5455 1.68072 9.48946L6.16255 7.78176L1.30689 5.72582C1.23736 5.69314 1.183 5.63436 1.1552 5.56182C1.12741 5.48928 1.12836 5.40862 1.15784 5.33677C1.18733 5.26492 1.24305 5.20747 1.31333 5.17649C1.3836 5.14551 1.46295 5.1434 1.53472 5.1706L6.97485 7.47273L8.50413 6.88964C11.121 5.96728 11.2572 4.12444 8.40649 3.10946M9.04628 5.49853C9.01606 5.57199 8.95844 5.63028 8.88602 5.66066C8.81361 5.69104 8.7323 5.69102 8.65989 5.66061L1.19623 2.5018C1.16035 2.48662 1.12777 2.46442 1.10034 2.43645C1.07291 2.40848 1.05117 2.3753 1.03636 2.33879C1.00645 2.26506 1.00659 2.18228 1.03674 2.10866C1.06689 2.03503 1.12459 1.97659 1.19714 1.9462C1.26969 1.9158 1.35115 1.91594 1.4236 1.94658L8.8868 5.10634C8.92274 5.12149 8.95539 5.1437 8.98287 5.1717C9.01035 5.1997 9.03212 5.23294 9.04694 5.2695C9.06175 5.30607 9.06932 5.34525 9.06921 5.38479C9.0691 5.42434 9.06131 5.46347 9.04628 5.49995" fill="#CC0066"/>
<path d="M44.6299 12.1294C44.6342 12.3556 44.5996 12.5808 44.5276 12.7948C44.4667 12.9722 44.3678 13.1336 44.2379 13.2673C44.1109 13.3943 43.9569 13.49 43.7878 13.547C43.5994 13.6099 43.4021 13.6407 43.2038 13.6382C43.1108 13.6382 43.0009 13.634 42.8741 13.6255C42.7546 13.6188 42.6367 13.5946 42.524 13.5536C42.4662 13.5421 42.4141 13.5103 42.3769 13.4639C42.3396 13.4175 42.3194 13.3593 42.3199 13.2994V10.9429C42.3172 10.8974 42.3322 10.8526 42.3618 10.8182C42.3932 10.7861 42.4318 10.7621 42.4743 10.7483C42.5849 10.7133 42.6988 10.6905 42.8142 10.6802C42.935 10.6689 43.0526 10.6632 43.1666 10.6632C43.3687 10.6609 43.5698 10.6909 43.7627 10.752C43.936 10.8062 44.095 10.8996 44.2277 11.0252C44.3594 11.154 44.4612 11.3111 44.5257 11.4849C44.6005 11.691 44.6366 11.9094 44.6322 12.129M44.1444 12.1332C44.1481 11.9705 44.1234 11.8085 44.0714 11.6546C44.0287 11.5314 43.9587 11.4199 43.8669 11.3285C43.7788 11.2433 43.6734 11.1788 43.5581 11.1395C43.4351 11.0978 43.3061 11.077 43.1764 11.0781C43.0477 11.0759 42.9191 11.0873 42.7928 11.1121V13.1884C42.8566 13.2034 42.9214 13.2134 42.9867 13.2181C43.0577 13.2238 43.1307 13.2266 43.2057 13.2266C43.3347 13.2354 43.464 13.2152 43.5845 13.1676C43.705 13.12 43.8138 13.0462 43.9031 12.9512C44.0789 12.7175 44.1643 12.4265 44.143 12.1332" fill="#CC0066"/>
<path d="M45.1222 10.7015C45.1211 10.6638 45.1274 10.6262 45.1407 10.591C45.1539 10.5557 45.1739 10.5234 45.1994 10.496C45.2254 10.4685 45.2569 10.4469 45.2918 10.4326C45.3266 10.4184 45.3641 10.4118 45.4016 10.4133C45.4385 10.4121 45.4753 10.4188 45.5094 10.4331C45.5435 10.4473 45.5743 10.4688 45.5997 10.496C45.6494 10.5525 45.6769 10.6257 45.6769 10.7015C45.6769 10.7774 45.6494 10.8505 45.5997 10.9071C45.5743 10.9343 45.5435 10.9557 45.5094 10.97C45.4753 10.9842 45.4385 10.991 45.4016 10.9898C45.3641 10.9913 45.3266 10.9847 45.2918 10.9705C45.2569 10.9562 45.2254 10.9346 45.1994 10.9071C45.1738 10.8797 45.1539 10.8474 45.1406 10.8121C45.1274 10.7769 45.1211 10.7393 45.1222 10.7015ZM45.6309 13.5745C45.6031 13.5855 45.5745 13.594 45.5453 13.6C45.505 13.6088 45.4638 13.6131 45.4226 13.6127C45.3552 13.6184 45.288 13.5996 45.2329 13.5598C45.2108 13.5367 45.194 13.5091 45.1836 13.4787C45.1731 13.4483 45.1693 13.4161 45.1724 13.3841V11.3905L45.2598 11.3673C45.3007 11.357 45.3428 11.352 45.3849 11.3527C45.4511 11.3472 45.5171 11.366 45.5709 11.4056C45.5925 11.4298 45.6088 11.4583 45.6188 11.4893C45.6288 11.5203 45.6323 11.5532 45.629 11.5856L45.6309 13.5745Z" fill="#CC0066"/>
<path d="M47.6134 13.3752C47.5499 13.4161 47.4812 13.4479 47.4093 13.4697C47.3157 13.497 47.2187 13.5099 47.1214 13.508C46.9962 13.5088 46.8716 13.4887 46.7527 13.4485C46.6381 13.4093 46.5334 13.3447 46.4463 13.2594C46.3526 13.1656 46.2813 13.0512 46.238 12.9249C46.1838 12.7604 46.1584 12.5875 46.1632 12.4141C46.1601 12.2519 46.1854 12.0905 46.238 11.9373C46.2833 11.808 46.3567 11.6907 46.4528 11.5943C46.547 11.5018 46.6591 11.4303 46.782 11.3845C46.9191 11.3347 47.0638 11.3104 47.2093 11.3126C47.3436 11.3115 47.4772 11.3314 47.6055 11.3717C47.7117 11.4043 47.8128 11.452 47.9059 11.5135C47.9504 11.5446 47.9886 11.5843 48.0184 11.6302C48.0476 11.6792 48.0621 11.7359 48.0602 11.7932V13.6441C48.0639 13.7835 48.0384 13.9222 47.9854 14.0509C47.939 14.1592 47.8665 14.2539 47.7747 14.3264C47.679 14.3995 47.5697 14.4521 47.4534 14.4809C47.3231 14.5137 47.1892 14.5296 47.055 14.5282C46.9256 14.5302 46.7965 14.5143 46.6713 14.4809C46.5874 14.4591 46.5063 14.4273 46.4296 14.3864C46.37 14.3494 46.3262 14.291 46.3069 14.2227C46.2876 14.1545 46.2942 14.0814 46.3254 14.0178C46.3448 13.9812 46.3736 13.9505 46.4086 13.929C46.4906 13.9878 46.5805 14.0341 46.6755 14.0665C46.7906 14.1081 46.9119 14.1289 47.034 14.1279C47.1858 14.1373 47.3362 14.0947 47.4613 14.007C47.5149 13.959 47.5566 13.8989 47.583 13.8315C47.6094 13.7641 47.6198 13.6913 47.6134 13.619V13.3752ZM47.1838 13.121C47.2703 13.1234 47.3563 13.1073 47.4362 13.0737C47.4989 13.0464 47.5561 13.0077 47.605 12.9594V11.8201C47.5549 11.7879 47.501 11.7624 47.4446 11.7441C47.3712 11.7202 47.2943 11.7087 47.2172 11.71C47.1373 11.7068 47.0577 11.7206 46.9834 11.7505C46.909 11.7805 46.8417 11.8259 46.7857 11.8839C46.6655 12.0305 46.6064 12.2191 46.6211 12.4094C46.6186 12.5213 46.6333 12.6329 46.6648 12.7401C46.6891 12.8215 46.7303 12.8966 46.7857 12.9603C46.8344 13.0149 46.8951 13.057 46.9629 13.0832C47.0336 13.1094 47.1085 13.1219 47.1838 13.121Z" fill="#CC0066"/>
<path d="M48.6327 10.7015C48.6316 10.6638 48.6379 10.6262 48.6511 10.591C48.6644 10.5557 48.6844 10.5234 48.7099 10.496C48.7359 10.4685 48.7674 10.4469 48.8023 10.4326C48.8371 10.4184 48.8746 10.4118 48.9121 10.4133C48.949 10.4121 48.9858 10.4188 49.0199 10.433C49.054 10.4473 49.0848 10.4688 49.1102 10.496C49.1599 10.5525 49.1874 10.6257 49.1874 10.7015C49.1874 10.7774 49.1599 10.8505 49.1102 10.9071C49.0848 10.9343 49.054 10.9558 49.0199 10.97C48.9858 10.9843 48.949 10.991 48.9121 10.9898C48.8746 10.9913 48.8371 10.9847 48.8023 10.9705C48.7674 10.9562 48.7359 10.9346 48.7099 10.9071C48.6843 10.8797 48.6644 10.8474 48.6511 10.8121C48.6379 10.7769 48.6316 10.7393 48.6327 10.7015ZM49.1414 13.5745C49.1136 13.5855 49.085 13.594 49.0558 13.6C49.0153 13.6088 48.974 13.6131 48.9326 13.6127C48.8652 13.6184 48.798 13.5997 48.7429 13.5598C48.7208 13.5368 48.704 13.5091 48.6936 13.4787C48.6831 13.4484 48.6793 13.4161 48.6824 13.3841V11.3905L48.7698 11.3673C48.8107 11.357 48.8528 11.352 48.8949 11.3527C48.9611 11.3472 49.0271 11.366 49.0809 11.4056C49.1025 11.4298 49.1188 11.4583 49.1288 11.4893C49.1389 11.5203 49.1423 11.5532 49.139 11.5856L49.1414 13.5745Z" fill="#CC0066"/>
<path d="M50.3345 13.1782C50.4118 13.2291 50.503 13.2536 50.5949 13.2482C50.6485 13.2477 50.7018 13.2399 50.7534 13.225C50.804 13.2115 50.853 13.1924 50.8994 13.1678C50.9198 13.1945 50.9379 13.2228 50.9538 13.2524C50.981 13.3075 50.9865 13.3711 50.9693 13.4301C50.952 13.4892 50.9132 13.5394 50.8608 13.5704C50.7534 13.6311 50.631 13.6589 50.5084 13.6508C50.32 13.6605 50.1339 13.6045 49.9811 13.492C49.9106 13.427 49.8559 13.3462 49.8216 13.2559C49.7872 13.1657 49.774 13.0685 49.783 12.9722V10.7731C49.8134 10.7624 49.8445 10.7538 49.876 10.7476C49.9172 10.7389 49.9591 10.7346 50.0011 10.7348C50.0663 10.7294 50.1313 10.7475 50.1848 10.7859C50.2063 10.8088 50.2226 10.8363 50.2327 10.8663C50.2427 10.8963 50.2462 10.9282 50.2429 10.9598V11.4257H50.9269C50.9404 11.4513 50.9516 11.4782 50.9603 11.506C50.9717 11.5415 50.9773 11.5787 50.9771 11.6161C50.9771 11.749 50.9228 11.8153 50.8143 11.815H50.2429V12.9382C50.2382 12.9828 50.2442 13.0279 50.2604 13.0696C50.2766 13.1113 50.3025 13.1485 50.3359 13.1778" fill="#CC0066"/>
<path d="M52.2108 11.312C52.4425 11.299 52.6718 11.3656 52.8617 11.501C52.946 11.5747 53.0118 11.6676 53.0538 11.7722C53.0958 11.8768 53.1129 11.99 53.1035 12.1025V13.2002C53.1074 13.2597 53.0909 13.3188 53.057 13.3675C53.0208 13.4108 52.9787 13.4487 52.9319 13.4799C52.8399 13.5324 52.7418 13.573 52.6399 13.6009C52.5026 13.6385 52.3608 13.6563 52.2187 13.6538C51.9838 13.6677 51.7507 13.6046 51.5538 13.4738C51.474 13.4128 51.4103 13.3326 51.3685 13.2405C51.3266 13.1484 51.3078 13.0472 51.3138 12.946C51.3087 12.8581 51.3227 12.7703 51.3548 12.6886C51.387 12.6069 51.4365 12.5334 51.4998 12.4734C51.6535 12.3512 51.8406 12.2801 52.0355 12.2698L52.6483 12.2017V12.1001C52.6533 12.0434 52.6445 11.9863 52.6227 11.9338C52.6009 11.8813 52.5667 11.8351 52.5232 11.7992C52.4207 11.7311 52.2996 11.698 52.1773 11.7047C52.0629 11.7042 51.9491 11.7213 51.8397 11.7552C51.7391 11.7859 51.6414 11.8256 51.5477 11.8738C51.5184 11.8462 51.4932 11.8143 51.4729 11.7793C51.4504 11.7411 51.4388 11.6973 51.4396 11.6528C51.4403 11.6083 51.4533 11.5649 51.477 11.5275C51.5078 11.4875 51.5479 11.4562 51.5937 11.4363C51.683 11.3922 51.7776 11.3604 51.8751 11.3417C51.9857 11.32 52.0981 11.3094 52.2108 11.3101M52.2191 13.2678C52.3106 13.2696 52.4019 13.2581 52.4902 13.2337C52.547 13.2198 52.6008 13.1952 52.6488 13.1614V12.5642L52.1736 12.6152C52.0659 12.6225 51.9615 12.6559 51.869 12.7125C51.8352 12.7384 51.8083 12.7725 51.7908 12.8118C51.7733 12.851 51.7658 12.8941 51.769 12.937C51.7672 12.9831 51.7761 13.0289 51.7949 13.0709C51.8137 13.1128 51.842 13.1497 51.8774 13.1785C51.9784 13.246 52.0987 13.2772 52.2191 13.2673" fill="#CC0066"/>
<path d="M53.9744 13.6129C53.9083 13.6176 53.8425 13.5989 53.7884 13.56C53.7657 13.5373 53.7483 13.5097 53.7374 13.4793C53.7266 13.4489 53.7225 13.4164 53.7256 13.3842V10.5283L53.813 10.5051C53.8539 10.4947 53.896 10.4898 53.9381 10.4905C54.0039 10.4858 54.0694 10.5036 54.1241 10.541C54.1469 10.5633 54.1644 10.5905 54.1753 10.6206C54.1862 10.6507 54.1901 10.683 54.1869 10.7149V13.5751C54.1618 13.5836 54.1308 13.5921 54.0939 13.6006C54.0542 13.6095 54.0136 13.6138 53.973 13.6134" fill="#CC0066"/>
<path d="M56.2814 12.5997V13.5745C56.25 13.5848 56.218 13.5933 56.1856 13.6C56.1445 13.6088 56.1026 13.6131 56.0606 13.6128C55.9915 13.6189 55.9226 13.5992 55.8667 13.5575C55.8446 13.5331 55.8278 13.5043 55.8173 13.4729C55.8069 13.4414 55.8031 13.4081 55.8062 13.3751V10.9468C55.8035 10.9013 55.8185 10.8564 55.8481 10.8221C55.8795 10.79 55.9181 10.766 55.9606 10.7521C56.0672 10.7156 56.1777 10.6922 56.2898 10.6822C56.4138 10.6696 56.5319 10.6633 56.6441 10.6633C56.9494 10.6379 57.253 10.7302 57.4945 10.9218C57.5873 11.0121 57.66 11.1217 57.7075 11.2431C57.755 11.3645 57.7762 11.4949 57.7698 11.6254C57.7756 11.7565 57.754 11.8875 57.7066 12.0096C57.6592 12.1318 57.5869 12.2424 57.4945 12.3341C57.2638 12.5287 56.9677 12.6245 56.6687 12.6011L56.2814 12.5997ZM56.6441 12.1886C56.8132 12.1984 56.9805 12.1483 57.1174 12.0469C57.1765 11.9951 57.2229 11.9301 57.2529 11.8569C57.283 11.7837 57.2958 11.7045 57.2904 11.6254C57.297 11.5479 57.2855 11.4699 57.2569 11.3977C57.2283 11.3256 57.1834 11.2613 57.1258 11.21C56.9869 11.1137 56.8202 11.0675 56.6525 11.0787C56.5886 11.0787 56.5232 11.0815 56.4562 11.0872C56.396 11.092 56.336 11.1005 56.2768 11.1127V12.1891L56.6441 12.1886Z" fill="#CC0066"/>
<path d="M59.0271 11.312C59.2589 11.299 59.4881 11.3655 59.6781 11.501C59.7624 11.5747 59.8282 11.6676 59.8702 11.7722C59.9123 11.8767 59.9293 11.99 59.9199 12.1025V13.2002C59.9238 13.2597 59.9073 13.3188 59.8734 13.3675C59.8372 13.4108 59.7951 13.4487 59.7483 13.4799C59.6563 13.5323 59.5582 13.573 59.4563 13.6009C59.319 13.6385 59.1772 13.6563 59.0351 13.6538C58.8002 13.6677 58.5671 13.6046 58.3702 13.4738C58.2904 13.4128 58.2267 13.3326 58.1848 13.2405C58.143 13.1484 58.1242 13.0472 58.1302 12.946C58.1251 12.8581 58.1391 12.7703 58.1712 12.6886C58.2034 12.6069 58.2529 12.5334 58.3162 12.4734C58.4699 12.3512 58.657 12.2801 58.8519 12.2698L59.4647 12.2017V12.1001C59.4697 12.0434 59.4609 11.9863 59.4391 11.9338C59.4173 11.8813 59.3831 11.8351 59.3396 11.7992C59.2371 11.731 59.116 11.6979 58.9937 11.7047C58.8793 11.7042 58.7655 11.7213 58.6561 11.7552C58.5555 11.7859 58.4578 11.8256 58.3641 11.8738C58.3348 11.8462 58.3096 11.8143 58.2893 11.7793C58.2668 11.7411 58.2553 11.6973 58.256 11.6528C58.2567 11.6083 58.2697 11.5649 58.2934 11.5275C58.3241 11.4875 58.3643 11.4562 58.4102 11.4363C58.4994 11.3922 58.594 11.3604 58.6914 11.3418C58.8021 11.32 58.9145 11.3094 59.0271 11.3101M59.0355 13.2678C59.127 13.2696 59.2183 13.2581 59.3066 13.2337C59.3634 13.2197 59.4171 13.1952 59.4652 13.1614V12.5642L58.99 12.6152C58.8823 12.6225 58.7778 12.6559 58.6854 12.7125C58.6515 12.7384 58.6247 12.7725 58.6072 12.8118C58.5897 12.851 58.5822 12.8941 58.5855 12.937C58.5836 12.9831 58.5925 13.0289 58.6113 13.0709C58.6301 13.1128 58.6584 13.1497 58.6938 13.1785C58.7948 13.2459 58.915 13.2772 59.0355 13.2673" fill="#CC0066"/>
<path d="M60.9084 13.0706C60.8334 12.9153 60.7425 12.6964 60.6355 12.4138C60.5286 12.1313 60.4264 11.812 60.3291 11.456C60.3589 11.4205 60.395 11.391 60.4356 11.3691C60.4783 11.3452 60.5263 11.3329 60.5751 11.3332C60.6316 11.3305 60.6875 11.3471 60.7336 11.3804C60.7833 11.426 60.8182 11.4858 60.8336 11.552C60.9142 11.8062 60.997 12.0569 61.0819 12.3042C61.1668 12.5515 61.2606 12.8065 61.3632 13.0692H61.3799C61.4243 12.9675 61.4694 12.8495 61.5152 12.7153C61.5611 12.5811 61.6056 12.4384 61.6487 12.2872C61.6918 12.136 61.7329 11.9827 61.7719 11.8274C61.811 11.6721 61.8457 11.5239 61.8761 11.3828C61.9042 11.3686 61.9335 11.3566 61.9635 11.3469C61.9986 11.3364 62.0352 11.3315 62.0718 11.3322C62.1296 11.33 62.1866 11.3465 62.2346 11.3795C62.2574 11.3976 62.2754 11.4212 62.287 11.4482C62.2986 11.4752 62.3035 11.5047 62.301 11.534C62.2943 11.6601 62.274 11.7852 62.2406 11.9068C62.2003 12.0735 62.1482 12.2585 62.0844 12.462C62.0205 12.6655 61.9475 12.8703 61.8654 13.0763C61.7832 13.2827 61.7005 13.4663 61.6171 13.6273C61.5064 13.8508 61.3736 14.0623 61.2209 14.2586C61.1831 14.317 61.1334 14.3665 61.0752 14.4038C61.0169 14.441 60.9515 14.4651 60.8834 14.4745C60.8476 14.4766 60.8119 14.4713 60.7782 14.459C60.7446 14.4466 60.7137 14.4275 60.6876 14.4027C60.6389 14.353 60.6064 14.2894 60.5946 14.2203C60.6491 14.1705 60.7006 14.1175 60.749 14.0615C60.8045 13.9985 60.8601 13.9308 60.9159 13.8583C60.9717 13.7859 61.0252 13.7117 61.0763 13.6358C61.1248 13.5647 61.1672 13.4896 61.2032 13.4113C61.1489 13.3913 61.0998 13.359 61.0596 13.3168C60.9955 13.2427 60.9441 13.1582 60.9075 13.0669" fill="#CC0066"/>
<path d="M65.1952 11.8061C65.1112 11.7388 65.0057 11.7052 64.899 11.7116C64.8191 11.7112 64.74 11.7273 64.6665 11.7588C64.5914 11.7912 64.5223 11.8363 64.4619 11.8921C64.4676 11.9186 64.4718 11.9454 64.4745 11.9724C64.4773 12.0008 64.4787 12.0291 64.4787 12.057V13.5743C64.4509 13.5853 64.4223 13.5938 64.3931 13.5998C64.3541 13.6085 64.3144 13.6127 64.2745 13.6125C64.2064 13.6179 64.1386 13.5992 64.0825 13.5596C64.0599 13.5369 64.0426 13.5093 64.0318 13.4789C64.021 13.4485 64.017 13.416 64.0202 13.3838V12.108C64.025 12.0526 64.0179 11.9967 63.9992 11.9444C63.9805 11.892 63.9507 11.8445 63.9119 11.8051C63.8279 11.7379 63.7224 11.7042 63.6157 11.7106C63.5362 11.7102 63.4574 11.7246 63.3832 11.7532C63.3189 11.7777 63.2575 11.8094 63.2 11.8477V13.5766C63.1723 13.5877 63.1436 13.5962 63.1144 13.6021C63.0739 13.611 63.0326 13.6153 62.9912 13.6149C62.925 13.6196 62.8594 13.6009 62.8053 13.562C62.7825 13.5393 62.7651 13.5117 62.7542 13.4813C62.7434 13.4509 62.7394 13.4184 62.7425 13.3862V11.8354C62.7394 11.7742 62.753 11.7133 62.782 11.6596C62.8168 11.6069 62.8613 11.5615 62.9131 11.5259C63.1284 11.3896 63.3765 11.3164 63.6301 11.3142C63.7567 11.312 63.8827 11.3328 64.0021 11.3756C64.1052 11.413 64.1981 11.4747 64.2731 11.5556C64.3605 11.4838 64.4582 11.426 64.5628 11.3841C64.6884 11.3351 64.8221 11.3114 64.9566 11.3142C65.0668 11.3134 65.1765 11.3294 65.2821 11.3614C65.3767 11.3894 65.4642 11.4377 65.5388 11.5032C65.6119 11.57 65.6696 11.6525 65.7076 11.7447C65.7518 11.8556 65.7732 11.9746 65.7703 12.0943V13.5776C65.7398 13.5877 65.7088 13.5962 65.6774 13.6031C65.6384 13.6118 65.5987 13.616 65.5588 13.6158C65.4926 13.6205 65.427 13.6018 65.3728 13.5629C65.3501 13.5402 65.3327 13.5127 65.3218 13.4823C65.311 13.4518 65.3069 13.4193 65.31 13.3871V12.1113C65.315 12.0559 65.3079 11.9999 65.2892 11.9476C65.2705 11.8952 65.2406 11.8477 65.2017 11.8084" fill="#CC0066"/>
<path d="M66.733 12.731C66.7597 12.8889 66.8447 13.0305 66.9706 13.127C67.1063 13.2178 67.2666 13.2629 67.429 13.256C67.5437 13.2574 67.6577 13.2366 67.7647 13.1946C67.852 13.161 67.9353 13.1176 68.013 13.0651C68.0511 13.0852 68.0829 13.1157 68.1049 13.153C68.127 13.1904 68.1385 13.2332 68.1381 13.2768C68.1376 13.3319 68.1168 13.3848 68.08 13.4252C68.0355 13.4746 67.9815 13.5143 67.9214 13.5419C67.8472 13.577 67.7691 13.6033 67.689 13.6203C67.4391 13.6718 67.1802 13.6555 66.9385 13.5731C66.8041 13.5251 66.6817 13.4477 66.58 13.3462C66.4764 13.2409 66.397 13.1136 66.3475 12.9734C66.2908 12.8094 66.2632 12.6365 66.2661 12.4626C66.263 12.2933 66.2891 12.1247 66.3433 11.9646C66.3892 11.8311 66.4624 11.709 66.5581 11.6064C66.6494 11.5107 66.7595 11.4356 66.8813 11.3862C67.0066 11.3351 67.1405 11.3093 67.2756 11.3102C67.4077 11.3083 67.5387 11.3335 67.661 11.3843C67.7731 11.4311 67.8747 11.5004 67.9597 11.5882C68.0446 11.676 68.1112 11.7804 68.1553 11.8951C68.2035 12.0192 68.2275 12.1516 68.2259 12.285C68.2287 12.3162 68.2253 12.3476 68.216 12.3775C68.2066 12.4073 68.1915 12.435 68.1716 12.4589C68.1289 12.4988 68.0748 12.5239 68.0172 12.5307L66.733 12.731ZM67.2751 11.6915C67.1996 11.6897 67.1246 11.7045 67.0552 11.7348C66.9858 11.7651 66.9236 11.8103 66.8729 11.8673C66.758 12.0063 66.6978 12.1838 66.7041 12.3653L67.788 12.1999C67.7804 12.0671 67.7298 11.9405 67.6443 11.8399C67.5974 11.789 67.54 11.7494 67.4763 11.7237C67.4125 11.6981 67.3435 11.687 67.2751 11.6915Z" fill="#CC0066"/>
<path d="M69.9691 11.8189C69.8763 11.7427 69.759 11.7041 69.6399 11.7107C69.5464 11.7092 69.4534 11.7236 69.3646 11.7532C69.2925 11.7782 69.2227 11.8098 69.1563 11.8477V13.5767C69.1286 13.5878 69.1 13.5963 69.0708 13.6022C69.0303 13.6111 68.9889 13.6153 68.9475 13.615C68.8814 13.6196 68.8157 13.6009 68.7615 13.562C68.7388 13.5394 68.7214 13.5118 68.7106 13.4814C68.6997 13.451 68.6957 13.4185 68.6988 13.3863V11.8355C68.6958 11.7743 68.7095 11.7135 68.7383 11.6597C68.7733 11.6069 68.818 11.5615 68.8699 11.526C68.9724 11.4673 69.0808 11.4198 69.1931 11.3842C69.3379 11.3371 69.4893 11.3143 69.6413 11.3166C69.8812 11.3027 70.1182 11.3755 70.3104 11.5222C70.3949 11.5999 70.4609 11.6963 70.5032 11.8039C70.5455 11.9115 70.5631 12.0275 70.5545 12.1431V13.5795C70.5252 13.5901 70.4952 13.5986 70.4648 13.605C70.4244 13.6139 70.3832 13.6181 70.342 13.6178C70.2758 13.6225 70.2101 13.6038 70.156 13.5649C70.1334 13.5422 70.116 13.5146 70.1053 13.4842C70.0945 13.4537 70.0905 13.4213 70.0937 13.3891V12.1605C70.0989 12.0988 70.0908 12.0367 70.0699 11.9785C70.049 11.9203 70.0159 11.8675 69.9728 11.8236" fill="#CC0066"/>
<path d="M71.7178 13.1782C71.7951 13.2291 71.8863 13.2536 71.9782 13.2482C72.0319 13.2477 72.0852 13.24 72.1368 13.225C72.1874 13.2115 72.2363 13.1924 72.2828 13.1678C72.3031 13.1945 72.3213 13.2228 72.3372 13.2524C72.3645 13.3075 72.37 13.3711 72.3527 13.4302C72.3355 13.4893 72.2966 13.5395 72.2442 13.5704C72.1367 13.6311 72.0144 13.6589 71.8917 13.6508C71.7033 13.6605 71.5173 13.6045 71.3645 13.492C71.2939 13.427 71.2392 13.3462 71.2048 13.2559C71.1705 13.1657 71.1573 13.0685 71.1664 12.9722V10.7731C71.1967 10.7624 71.2278 10.7538 71.2594 10.7476C71.3005 10.7389 71.3424 10.7346 71.3844 10.7348C71.4496 10.7294 71.5147 10.7475 71.5681 10.7859C71.5897 10.8088 71.6061 10.8362 71.6162 10.8663C71.6264 10.8963 71.6299 10.9282 71.6267 10.9598V11.4257H72.3107C72.3244 11.4513 72.3356 11.4782 72.3442 11.506C72.3555 11.5415 72.3612 11.5787 72.3609 11.6161C72.3609 11.749 72.3066 11.8153 72.1981 11.815H71.6267V12.9382C71.622 12.9828 71.628 13.0279 71.6442 13.0696C71.6604 13.1113 71.6863 13.1485 71.7197 13.1778" fill="#CC0066"/>
<path d="M74.3678 12.9773C74.3719 13.0713 74.3543 13.1649 74.3162 13.2507C74.2782 13.3365 74.2208 13.412 74.1488 13.4711C73.9633 13.6032 73.7387 13.6668 73.5127 13.6511C73.405 13.6519 73.2976 13.6419 73.1919 13.6213C73.1068 13.6056 73.0241 13.5786 72.9459 13.541C72.8853 13.5118 72.8314 13.4699 72.7878 13.4181C72.7504 13.3747 72.7296 13.319 72.7292 13.2613C72.7291 13.2162 72.7398 13.1717 72.7604 13.1318C72.7816 13.0903 72.8138 13.0558 72.8534 13.0321C72.9412 13.0926 73.0347 13.1444 73.1324 13.1866C73.2486 13.2353 73.3735 13.2591 73.4992 13.2565C73.6055 13.2636 73.7114 13.2386 73.8038 13.1847C73.8373 13.1622 73.8645 13.1313 73.8828 13.0949C73.901 13.0586 73.9097 13.0181 73.9079 12.9773C73.9097 12.9425 73.9043 12.9077 73.8922 12.8752C73.88 12.8427 73.8613 12.8131 73.8372 12.7883C73.7764 12.7345 73.7031 12.6973 73.6243 12.6801L73.3239 12.5955C73.1609 12.5578 73.01 12.4783 72.8859 12.3644C72.8375 12.3106 72.8002 12.2474 72.7762 12.1787C72.7523 12.1099 72.7422 12.037 72.7464 11.9642C72.746 11.8757 72.7645 11.7881 72.8008 11.7076C72.8368 11.6274 72.8903 11.5565 72.9571 11.5002C73.0332 11.438 73.1203 11.3913 73.2137 11.3627C73.3271 11.3272 73.4452 11.3099 73.5638 11.3116C73.6618 11.3106 73.7597 11.3198 73.8559 11.339C73.9327 11.3544 74.0076 11.3787 74.079 11.4113C74.1354 11.4361 74.1853 11.4738 74.225 11.5214C74.2582 11.561 74.2767 11.6112 74.2771 11.6632C74.2781 11.7076 74.2673 11.7515 74.246 11.7903C74.2267 11.8251 74.2004 11.8554 74.1688 11.8791C74.0926 11.8353 74.0132 11.7977 73.9312 11.7667C73.8248 11.7251 73.7117 11.7042 73.5978 11.7052C73.4961 11.6994 73.3949 11.7228 73.3058 11.7728C73.2781 11.7905 73.2545 11.8141 73.2368 11.8421C73.2191 11.87 73.2076 11.9015 73.2031 11.9345C73.1987 11.9674 73.2014 12.0009 73.2111 12.0327C73.2208 12.0644 73.2373 12.0936 73.2593 12.1182C73.3176 12.1693 73.3882 12.2037 73.4639 12.2179L73.7224 12.286C73.9041 12.329 74.0725 12.4172 74.2125 12.5426C74.2661 12.6004 74.3076 12.6687 74.3344 12.7434C74.3613 12.818 74.373 12.8974 74.3687 12.9768" fill="#CC0066"/>
<path d="M10.7243 6.31299V14.5854C10.7243 15.127 10.5608 15.6555 10.2559 16.0996C9.95101 16.5437 9.51936 16.8821 9.01923 17.069L1.59555 19.8437C1.47871 19.8875 1.35319 19.9019 1.22967 19.8858C1.10616 19.8696 0.988308 19.8234 0.886161 19.751C0.784014 19.6786 0.700595 19.5822 0.643008 19.47C0.585421 19.3578 0.555372 19.2331 0.55542 19.1065V12.0872C0.555658 11.6651 0.68309 11.2531 0.920579 10.9068C1.15807 10.5604 1.49422 10.2963 1.88383 10.1499L8.74537 7.57084C9.82828 7.12525 10.2514 6.85261 10.7247 6.31535" fill="white"/>
<path d="M17.2509 8.40722C17.2431 8.71481 17.1207 9.00791 16.9083 9.22723C16.696 9.44654 16.4096 9.57569 16.1071 9.58853H14.5513C14.4616 9.59068 14.3747 9.55656 14.3097 9.49365C14.2448 9.43074 14.2071 9.3442 14.2049 9.25304V5.80929C14.2042 5.76361 14.2125 5.71826 14.2294 5.67592C14.2463 5.63358 14.2714 5.59512 14.3032 5.56282C14.3349 5.53051 14.3728 5.50502 14.4145 5.48787C14.4561 5.47071 14.5007 5.46223 14.5457 5.46293H16.0471C16.2716 5.475 16.4879 5.55301 16.6698 5.68751C16.8516 5.822 16.9911 6.00721 17.0714 6.22068C17.1518 6.43414 17.1694 6.6667 17.1223 6.89016C17.0752 7.11363 16.9653 7.3184 16.8059 7.47966C16.9432 7.59102 17.0544 7.73202 17.1314 7.89245C17.2085 8.05288 17.249 8.22872 17.2509 8.40722ZM14.8651 7.17866L15.9704 7.16732C16.1046 7.16284 16.2321 7.10664 16.3271 7.01012C16.4221 6.91359 16.4774 6.78398 16.4818 6.64755C16.481 6.51632 16.4301 6.39054 16.3398 6.29674C16.2495 6.20294 16.1269 6.14845 15.9978 6.14478H14.8651V7.17866ZM16.5697 8.40722C16.5605 8.26817 16.5008 8.13753 16.4023 8.04057C16.3038 7.9436 16.1734 7.88719 16.0364 7.88225H14.8926V8.91566H16.0689C16.2003 8.9114 16.3251 8.85647 16.4181 8.76202C16.511 8.66758 16.565 8.54072 16.5692 8.40722" fill="white"/>
<path d="M19.9571 7.88221H19.4568V9.25253C19.4549 9.34272 19.418 9.4285 19.3542 9.49122C19.2904 9.55395 19.2048 9.58856 19.116 9.58754C19.0286 9.5873 18.9449 9.55193 18.883 9.48917C18.8212 9.42641 18.7863 9.34134 18.7859 9.25253V5.79791C18.7887 5.70799 18.8258 5.62271 18.8895 5.56016C18.9531 5.49762 19.0382 5.46272 19.1267 5.46289H20.3305C20.64 5.46976 20.9352 5.59704 21.1551 5.8185C21.375 6.03995 21.5029 6.33871 21.5125 6.65318C21.5067 6.9068 21.4253 7.15266 21.279 7.35821C21.1327 7.56376 20.9284 7.7193 20.6932 7.80424L21.4576 9.07249C21.5022 9.15059 21.5151 9.24326 21.4935 9.33085C21.472 9.41844 21.4178 9.49407 21.3423 9.54171C21.29 9.57091 21.2313 9.58634 21.1716 9.5866C21.1143 9.58655 21.058 9.57163 21.008 9.54327C20.9579 9.51491 20.9158 9.47404 20.8857 9.42452L19.9571 7.88221ZM20.848 6.65838C20.8418 6.51825 20.7819 6.38613 20.6813 6.29012C20.5807 6.19411 20.4471 6.14179 20.3091 6.14427H19.4568V7.20036H20.3091C20.4511 7.20049 20.5874 7.14361 20.6884 7.0421C20.7893 6.94059 20.8467 6.80268 20.848 6.65838Z" fill="white"/>
<path d="M25.3721 9.58532C24.8359 9.57946 24.3238 9.35811 23.9478 8.96967C23.5717 8.58122 23.3623 8.05727 23.3653 7.51236C23.3722 7.11118 23.4956 6.72102 23.72 6.39084C23.9443 6.06066 24.2596 5.80516 24.6263 5.6564C24.993 5.50764 25.3947 5.47225 25.7812 5.55467C26.1676 5.63708 26.5214 5.83364 26.7983 6.11967C27.0752 6.4057 27.2628 6.76846 27.3376 7.16244C27.4124 7.55643 27.371 7.96408 27.2187 8.33426C27.0663 8.70443 26.8098 9.02064 26.4813 9.24321C26.1528 9.46578 25.7669 9.58479 25.3721 9.58532ZM24.0139 7.51236C24.0144 7.78593 24.0946 8.05321 24.2446 8.28041C24.3945 8.5076 24.6074 8.68451 24.8563 8.78874C25.1052 8.89298 25.3789 8.91986 25.6428 8.866C25.9067 8.81214 26.149 8.67994 26.339 8.48614C26.529 8.29234 26.6582 8.04563 26.7102 7.77722C26.7622 7.5088 26.7347 7.23075 26.6312 6.97821C26.5277 6.72568 26.3528 6.51 26.1287 6.35848C25.9046 6.20695 25.6413 6.12637 25.3721 6.12693C25.0121 6.13052 24.6679 6.2778 24.4138 6.53699C24.1597 6.79618 24.0161 7.1465 24.0139 7.51236Z" fill="white"/>
<path d="M32.1239 9.55839C32.0813 9.57524 32.0359 9.58323 31.9902 9.5819C31.9446 9.58057 31.8997 9.56994 31.8581 9.55064C31.8166 9.53134 31.7793 9.50376 31.7484 9.46954C31.7176 9.43532 31.6938 9.39515 31.6785 9.35142L30.7485 6.7998L29.814 9.35142C29.7997 9.39527 29.7768 9.43569 29.7465 9.47016C29.7163 9.50463 29.6794 9.53242 29.6382 9.55183C29.5969 9.57123 29.5522 9.58182 29.5068 9.58295C29.4614 9.58408 29.4162 9.57572 29.3741 9.55839C29.3307 9.54329 29.2909 9.51937 29.2569 9.4881C29.2229 9.45684 29.1956 9.41887 29.1766 9.37652C29.1575 9.33416 29.1471 9.28831 29.1461 9.24175C29.145 9.19519 29.1533 9.14891 29.1704 9.10571L30.4128 5.68039C30.439 5.61195 30.4851 5.55329 30.545 5.51232C30.605 5.47134 30.6758 5.45002 30.7481 5.45122C30.82 5.45157 30.8901 5.47351 30.9498 5.51429C31.0094 5.55507 31.0559 5.61286 31.0833 5.68039L32.3257 9.10571C32.3428 9.14888 32.3511 9.19514 32.3501 9.24167C32.3491 9.28821 32.3388 9.33404 32.3198 9.37639C32.3008 9.41874 32.2735 9.45671 32.2396 9.488C32.2056 9.51929 32.1658 9.54324 32.1225 9.55839" fill="white"/>
<path d="M33.7129 9.25119V5.81406C33.715 5.72589 33.7504 5.64192 33.8118 5.57956C33.8732 5.51719 33.9558 5.4812 34.0425 5.47904H34.8618C35.1569 5.47728 35.4491 5.53812 35.7197 5.65766C35.9798 5.77361 36.2122 5.94508 36.4013 6.16042C36.59 6.37815 36.7308 6.63431 36.8143 6.91178C36.8978 7.18924 36.922 7.48162 36.8854 7.76936C36.8247 8.26902 36.5869 8.72908 36.2165 9.06336C35.846 9.39763 35.3684 9.58319 34.873 9.58527H34.043C33.9562 9.58311 33.8736 9.54712 33.8122 9.48475C33.7509 9.42239 33.7155 9.33842 33.7133 9.25025M36.2205 7.69092C36.2495 7.49794 36.2365 7.30084 36.1824 7.11353C36.1282 6.92622 36.0342 6.75329 35.9071 6.60695C35.7756 6.45837 35.6143 6.34012 35.4341 6.26016C35.2539 6.18021 35.0589 6.1404 34.8623 6.14341H34.3731V8.91476H34.8734C35.2069 8.91492 35.5288 8.7902 35.7775 8.56444C36.0263 8.33868 36.1845 8.0277 36.2219 7.69092" fill="white"/>
<path d="M40.151 9.01054C39.9864 9.26315 39.7329 9.44212 39.4425 9.51067C39.1521 9.57921 38.8469 9.53214 38.5896 9.37911C38.5107 9.33049 38.4524 9.2538 38.426 9.16395C38.3997 9.0741 38.4071 8.97749 38.4469 8.89288C38.5066 8.82277 38.5901 8.7781 38.6807 8.76777C38.7714 8.75743 38.8625 8.7822 38.936 8.83713C39.05 8.9 39.1832 8.91654 39.3087 8.88338C39.4342 8.85021 39.5427 8.76984 39.6121 8.65851C39.6504 8.60057 39.6772 8.53552 39.6907 8.46708C39.7043 8.39863 39.7045 8.32814 39.6912 8.25963C39.678 8.19112 39.6515 8.12594 39.6135 8.06782C39.5754 8.00969 39.5264 7.95977 39.4694 7.9209C39.2001 7.74749 39.1904 7.74229 38.9305 7.56888C38.6731 7.39917 38.4926 7.13254 38.4287 6.82762C38.3648 6.52271 38.4227 6.20448 38.5896 5.94292C38.7559 5.69239 39.0093 5.51509 39.299 5.44663C39.5886 5.37818 39.893 5.42364 40.151 5.57388C40.2273 5.61919 40.2836 5.69257 40.3081 5.77884C40.3327 5.86512 40.3237 5.9577 40.283 6.03743C40.2285 6.11049 40.1484 6.15941 40.0593 6.17401C39.9702 6.18862 39.879 6.16779 39.8046 6.11587C39.6856 6.05432 39.548 6.04145 39.42 6.07991C39.292 6.11837 39.1833 6.20523 39.1164 6.32262C39.0495 6.44 39.0295 6.57899 39.0603 6.71096C39.0912 6.84294 39.1707 6.95786 39.2824 7.03209C39.4219 7.1214 39.4219 7.12139 39.8158 7.38412C39.9429 7.46842 40.0525 7.57738 40.1381 7.70476C40.2238 7.83214 40.284 7.97544 40.3151 8.12645C40.3463 8.27747 40.3478 8.43325 40.3196 8.58487C40.2914 8.73649 40.2342 8.88145 40.151 9.01054Z" fill="white"/>
<path d="M43.8629 7.87218C43.5555 7.89438 43.247 7.89816 42.939 7.88353V9.25384C42.9371 9.34404 42.9002 9.42982 42.8364 9.49254C42.7726 9.55527 42.687 9.58988 42.5982 9.58886C42.5109 9.58849 42.4273 9.55307 42.3655 9.49032C42.3038 9.42758 42.2689 9.34258 42.2686 9.25384V5.80868C42.268 5.76453 42.2761 5.7207 42.2925 5.6798C42.3089 5.63889 42.3332 5.60173 42.3639 5.57051C42.3946 5.53929 42.4312 5.51463 42.4714 5.498C42.5117 5.48136 42.5548 5.47309 42.5982 5.47366H43.8299C44.1369 5.48338 44.4283 5.61313 44.6434 5.83585C44.8585 6.05858 44.9807 6.35709 44.9845 6.66914C44.9795 6.9757 44.8615 7.2692 44.6538 7.49161C44.4462 7.71402 44.1639 7.84916 43.8629 7.8703M43.7862 6.14417H42.9395V7.20026H43.7862C43.9279 7.19941 44.0637 7.14221 44.1644 7.04091C44.2651 6.93961 44.3228 6.80227 44.3251 6.65827C44.3179 6.51847 44.2578 6.38691 44.1574 6.2911C44.057 6.19528 43.924 6.14264 43.7862 6.14417Z" fill="white"/>
<path d="M46.7434 9.25065V5.79745C46.7438 5.70871 46.7786 5.62371 46.8404 5.56097C46.9021 5.49822 46.9857 5.4628 47.0731 5.46243H49.0538C49.1426 5.46129 49.2283 5.49586 49.2921 5.55861C49.356 5.62136 49.3928 5.70721 49.3947 5.79745C49.3942 5.88916 49.3581 5.97697 49.2943 6.04181C49.2305 6.10666 49.1441 6.14331 49.0538 6.14381H47.4153V7.1999H48.6526C48.696 7.19933 48.7391 7.2076 48.7794 7.22423C48.8196 7.24087 48.8562 7.26552 48.8869 7.29675C48.9177 7.32797 48.9419 7.36513 48.9583 7.40604C48.9746 7.44694 48.9828 7.49076 48.9822 7.53492C48.9829 7.57911 48.9748 7.62298 48.9584 7.66394C48.9421 7.7049 48.9178 7.74212 48.8871 7.77339C48.8564 7.80466 48.8198 7.82936 48.7795 7.84602C48.7392 7.86269 48.6961 7.87098 48.6526 7.87041H47.4153V8.90382H49.0538C49.1441 8.90431 49.2305 8.94096 49.2943 9.00581C49.3581 9.07066 49.3942 9.15846 49.3947 9.25017C49.3927 9.34037 49.3558 9.42615 49.292 9.48887C49.2282 9.5516 49.1426 9.58621 49.0538 9.58519H47.0745C46.9872 9.58482 46.9035 9.5494 46.8418 9.48666C46.78 9.42391 46.7452 9.33891 46.7448 9.25017" fill="white"/>
<path d="M54.568 9.13921C54.2179 9.4222 53.7836 9.57582 53.3363 9.57488C52.7982 9.57488 52.2821 9.35765 51.9016 8.97097C51.5211 8.5843 51.3074 8.05986 51.3074 7.51303C51.3074 6.96619 51.5211 6.44175 51.9016 6.05507C52.2821 5.6684 52.7982 5.45117 53.3363 5.45117C53.7018 5.45167 54.0599 5.55628 54.3699 5.75311C54.4089 5.77369 54.4433 5.80207 54.4712 5.83653C54.4991 5.871 54.5198 5.91084 54.5322 5.95366C54.5445 5.99648 54.5482 6.04139 54.543 6.0857C54.5378 6.13 54.5238 6.17278 54.502 6.21146C54.4796 6.24977 54.4498 6.28298 54.4142 6.30903C54.3787 6.33508 54.3383 6.3534 54.2955 6.36284C54.2527 6.37229 54.2084 6.37266 54.1654 6.36393C54.1225 6.3552 54.0818 6.33756 54.0458 6.31211C53.8313 6.18263 53.5862 6.115 53.3367 6.11648C53.1584 6.11648 52.9819 6.15219 52.8171 6.22157C52.6524 6.29094 52.5027 6.39263 52.3767 6.5208C52.2506 6.64898 52.1507 6.80115 52.0825 6.9686C52.0144 7.13605 51.9794 7.31551 51.9795 7.49672C51.9733 7.75626 52.0394 8.01229 52.17 8.23542C52.3005 8.45854 52.4904 8.63972 52.7177 8.75815C52.945 8.87657 53.2006 8.92744 53.4551 8.90491C53.7096 8.88238 53.9527 8.78736 54.1565 8.63078C54.1884 8.60295 54.2255 8.58187 54.2656 8.56876C54.3057 8.55565 54.3479 8.55078 54.3898 8.55443C54.4318 8.55808 54.4726 8.57018 54.5099 8.59002C54.5472 8.60986 54.5802 8.63705 54.607 8.66999C54.663 8.73749 54.6903 8.82476 54.6831 8.9127C54.6759 9.00064 54.6346 9.08209 54.5684 9.13921" fill="white"/>
<path d="M59.147 5.7911C59.147 5.8349 59.1384 5.87826 59.1218 5.91867C59.1052 5.95908 59.0808 5.99573 59.0502 6.0265C59.0195 6.05727 58.9831 6.08155 58.9431 6.09792C58.9032 6.11429 58.8604 6.12243 58.8173 6.12187H58.0096V9.25091C58.0096 9.33907 57.9752 9.42363 57.9138 9.48597C57.8525 9.54831 57.7693 9.58333 57.6825 9.58333C57.5958 9.58333 57.5126 9.54831 57.4512 9.48597C57.3899 9.42363 57.3554 9.33907 57.3554 9.25091V6.12092H56.5473C56.4606 6.12092 56.3774 6.0859 56.316 6.02356C56.2547 5.96122 56.2202 5.87666 56.2202 5.7885C56.2202 5.70034 56.2547 5.61579 56.316 5.55344C56.3774 5.4911 56.4606 5.45608 56.5473 5.45608H58.8178C58.8612 5.45551 58.9043 5.46379 58.9446 5.48042C58.9848 5.49705 59.0214 5.52171 59.0521 5.55293C59.0828 5.58416 59.1071 5.62132 59.1235 5.66222C59.1399 5.70312 59.1475 5.74695 59.147 5.7911Z" fill="white"/>
<path d="M61.9684 7.88221H61.4681V9.25253C61.4661 9.34272 61.4292 9.4285 61.3654 9.49122C61.3016 9.55395 61.216 9.58856 61.1272 9.58754C61.0398 9.5873 60.9561 9.55193 60.8942 9.48917C60.8324 9.42641 60.7975 9.34134 60.7971 9.25253V5.79791C60.7999 5.70799 60.837 5.62271 60.9007 5.56016C60.9643 5.49762 61.0494 5.46272 61.1379 5.46289H62.3422C62.6517 5.46976 62.9468 5.59704 63.1667 5.8185C63.3866 6.03995 63.5146 6.33871 63.5242 6.65318C63.5184 6.9068 63.437 7.15266 63.2907 7.35821C63.1444 7.56376 62.9401 7.7193 62.7049 7.80424L63.4693 9.07249C63.5138 9.15065 63.5266 9.24336 63.505 9.33095C63.4834 9.41855 63.429 9.49414 63.3535 9.54171C63.3012 9.57093 63.2425 9.58636 63.1829 9.5866C63.1256 9.58655 63.0692 9.57163 63.0192 9.54327C62.9691 9.51491 62.9271 9.47404 62.8969 9.42452L61.9684 7.88221ZM62.8592 6.65838C62.8529 6.51825 62.7932 6.38613 62.6925 6.29012C62.5919 6.19411 62.4584 6.14179 62.3204 6.14427H61.4681V7.20036H62.3204C62.4624 7.20049 62.5986 7.14361 62.6996 7.0421C62.8005 6.94059 62.8579 6.80268 62.8592 6.65838Z" fill="white"/>
<path d="M68.346 5.7921V8.07722C68.3495 8.27757 68.3137 8.47662 68.2407 8.66274C68.1676 8.84887 68.0588 9.01835 67.9207 9.16129C67.7825 9.30423 67.6177 9.41776 67.4358 9.49527C67.254 9.57277 67.0588 9.61268 66.8616 9.61268C66.6644 9.61268 66.4692 9.57277 66.2874 9.49527C66.1055 9.41776 65.9407 9.30423 65.8025 9.16129C65.6644 9.01835 65.5556 8.84887 65.4825 8.66274C65.4095 8.47662 65.3737 8.27757 65.3772 8.07722V5.7921C65.3772 5.70168 65.4125 5.61496 65.4754 5.55103C65.5383 5.48709 65.6237 5.45117 65.7126 5.45117C65.8016 5.45117 65.887 5.48709 65.9499 5.55103C66.0128 5.61496 66.0481 5.70168 66.0481 5.7921V8.07722C66.0481 8.29803 66.1345 8.5098 66.2881 8.66594C66.4418 8.82208 66.6501 8.9098 66.8674 8.9098C67.0847 8.9098 67.2931 8.82208 67.4467 8.66594C67.6004 8.5098 67.6867 8.29803 67.6867 8.07722V5.7921C67.6861 5.74795 67.6943 5.70412 67.7107 5.66322C67.727 5.62231 67.7513 5.58515 67.782 5.55393C67.8127 5.52271 67.8492 5.49805 67.8895 5.48142C67.9298 5.46478 67.9729 5.45651 68.0164 5.45708C68.0598 5.45651 68.1029 5.46478 68.1432 5.48142C68.1834 5.49805 68.22 5.52271 68.2507 5.55393C68.2814 5.58515 68.3057 5.62231 68.3221 5.66322C68.3384 5.70412 68.3466 5.74795 68.346 5.7921Z" fill="white"/>
<path d="M74.2674 9.17797C74.2793 9.21909 74.2828 9.26223 74.2778 9.30478C74.2728 9.34733 74.2594 9.3884 74.2383 9.42551C74.2172 9.46262 74.1889 9.495 74.1551 9.52068C74.1214 9.54635 74.0829 9.5648 74.0419 9.57489H74.0252C74.0196 9.57489 74.0195 9.57489 74.0144 9.58623H73.9758C73.8989 9.58558 73.8246 9.55801 73.7653 9.50819C73.706 9.45836 73.6654 9.38931 73.6504 9.31264L73.1994 7.07761L72.3694 9.34052C72.3473 9.40881 72.3046 9.46828 72.2474 9.51044C72.1901 9.5526 72.1211 9.5753 72.0504 9.5753C71.9797 9.5753 71.9108 9.5526 71.8535 9.51044C71.7962 9.46828 71.7535 9.40881 71.7315 9.34052L71.0001 7.18393L70.6151 9.31264C70.6029 9.39117 70.5633 9.46262 70.5035 9.5139C70.4437 9.56518 70.3678 9.59287 70.2896 9.5919C70.2728 9.5919 70.251 9.58623 70.2347 9.58623C70.1906 9.57973 70.1484 9.56329 70.1114 9.53811C70.0743 9.51293 70.0432 9.47965 70.0204 9.4407C69.9938 9.40645 69.9751 9.36663 69.9657 9.32413C69.9562 9.28163 69.9561 9.23751 69.9655 9.19498L70.5318 5.73092C70.5459 5.65552 70.5844 5.58706 70.6412 5.53646C70.698 5.48585 70.7698 5.45601 70.8453 5.45166H70.8727C70.9436 5.45162 71.0127 5.47448 71.0701 5.51694C71.1274 5.5594 71.17 5.61928 71.1916 5.68792L72.0602 8.17434L72.9673 5.67658C72.9885 5.60975 73.0306 5.55177 73.0872 5.51144C73.1437 5.4711 73.2117 5.45061 73.2807 5.45308H73.2975C73.3725 5.45358 73.4449 5.48148 73.5014 5.53171C73.558 5.58193 73.5948 5.65113 73.6053 5.72667L74.2674 9.17797Z" fill="white"/>
</g>
</svg>
