<svg width="75" height="21" viewBox="0 0 75 21" fill="none" xmlns="http://www.w3.org/2000/svg">
<mask id="mask0_2057_96885" style="mask-type:luminance" maskUnits="userSpaceOnUse" x="0" y="0" width="75" height="21">
<path d="M74.3639 0.890137H0.363281V20.6724H74.3639V0.890137Z" fill="white"/>
</mask>
<g mask="url(#mask0_2057_96885)">
<path d="M8.40211 3.8843L1.64706 0.966022C1.50676 0.905316 1.35384 0.880911 1.20199 0.89499C1.05014 0.909069 0.904086 0.961194 0.776902 1.0467C0.649718 1.13221 0.545368 1.24843 0.473187 1.38497C0.401006 1.52151 0.363244 1.67411 0.363281 1.82912V9.33988C0.363277 9.49957 0.401337 9.65689 0.474205 9.79837C0.547073 9.93984 0.652578 10.0613 0.78169 10.1522C0.910801 10.2432 1.05967 10.301 1.21556 10.3207C1.37146 10.3404 1.52972 10.3214 1.67682 10.2654L6.15864 8.55714L1.30298 6.50054C1.23346 6.46785 1.17909 6.40906 1.1513 6.33649C1.12351 6.26393 1.12445 6.18324 1.15394 6.11137C1.18342 6.03949 1.23915 5.98203 1.30942 5.95104C1.37969 5.92005 1.45905 5.91793 1.53082 5.94515L6.97094 8.24801L8.50022 7.66473C11.1171 6.74207 11.2533 4.89865 8.40258 3.88335M9.04238 6.27318C9.01216 6.34666 8.95453 6.40498 8.88212 6.43536C8.8097 6.46575 8.72839 6.46573 8.65599 6.43531L1.19232 3.2755C1.15645 3.26032 1.12387 3.23811 1.09644 3.21013C1.06901 3.18216 1.04727 3.14896 1.03246 3.11244C1.00255 3.03869 1.00268 2.95588 1.03284 2.88223C1.06299 2.80859 1.12068 2.75013 1.19323 2.71972C1.26578 2.68932 1.34724 2.68946 1.41969 2.72011L8.88289 5.88087C8.91883 5.89602 8.95148 5.91824 8.97896 5.94625C9.00644 5.97426 9.02821 6.0075 9.04303 6.04408C9.05784 6.08066 9.06541 6.11985 9.0653 6.15941C9.06519 6.19897 9.0574 6.23811 9.04238 6.2746" fill="#CC0066"/>
<path d="M44.6257 12.9063C44.6301 13.1325 44.5955 13.3577 44.5234 13.5718C44.4626 13.7493 44.3636 13.9107 44.2337 14.0445C44.1067 14.1715 43.9528 14.2672 43.7837 14.3243C43.5953 14.3872 43.3979 14.418 43.1997 14.4155C43.1067 14.4155 42.9968 14.4113 42.87 14.4028C42.7505 14.3961 42.6326 14.3719 42.5199 14.3309C42.462 14.3193 42.41 14.2876 42.3727 14.2412C42.3354 14.1947 42.3153 14.1365 42.3157 14.0766V11.7194C42.313 11.6738 42.328 11.629 42.3576 11.5946C42.3891 11.5625 42.4277 11.5385 42.4701 11.5247C42.5807 11.4897 42.6946 11.4668 42.81 11.4566C42.9309 11.4452 43.0484 11.4396 43.1625 11.4396C43.3645 11.4373 43.5657 11.4673 43.7586 11.5284C43.9319 11.5826 44.0908 11.676 44.2235 11.8016C44.3552 11.9305 44.457 12.0877 44.5216 12.2615C44.5964 12.4676 44.6325 12.6862 44.628 12.9058M44.1403 12.9101C44.1439 12.7473 44.1192 12.5852 44.0673 12.4312C44.0245 12.3081 43.9545 12.1965 43.8627 12.1051C43.7747 12.0199 43.6693 11.9553 43.554 11.916C43.4309 11.8743 43.3019 11.8535 43.1722 11.8546C43.0436 11.8524 42.915 11.8638 42.7886 11.8886V13.9655C42.8524 13.9806 42.9172 13.9905 42.9825 13.9953C43.0535 14.001 43.1265 14.0038 43.2015 14.0038C43.3305 14.0126 43.4599 13.9924 43.5804 13.9448C43.7009 13.8972 43.8096 13.8233 43.899 13.7283C44.0748 13.4946 44.1601 13.2034 44.1389 12.9101" fill="#CC0066"/>
<path d="M45.1173 11.478C45.1163 11.4403 45.1225 11.4027 45.1358 11.3674C45.149 11.3321 45.169 11.2998 45.1945 11.2724C45.2206 11.2449 45.252 11.2232 45.2869 11.209C45.3218 11.1947 45.3592 11.1881 45.3968 11.1897C45.4336 11.1885 45.4704 11.1952 45.5045 11.2095C45.5387 11.2237 45.5694 11.2452 45.5948 11.2724C45.6446 11.329 45.672 11.4021 45.672 11.478C45.672 11.5538 45.6446 11.627 45.5948 11.6836C45.5694 11.7108 45.5387 11.7323 45.5045 11.7465C45.4704 11.7608 45.4336 11.7675 45.3968 11.7663C45.3592 11.7678 45.3218 11.7613 45.2869 11.747C45.252 11.7327 45.2206 11.7111 45.1945 11.6836C45.169 11.6562 45.149 11.6239 45.1358 11.5886C45.1225 11.5533 45.1162 11.5157 45.1173 11.478ZM45.626 14.3518C45.5982 14.3629 45.5696 14.3714 45.5404 14.3774C45.5001 14.3862 45.4589 14.3904 45.4177 14.3901C45.3503 14.3958 45.2831 14.377 45.228 14.3372C45.206 14.3141 45.1891 14.2864 45.1787 14.256C45.1683 14.2257 45.1645 14.1934 45.1675 14.1614V12.1672L45.2549 12.144C45.2958 12.1336 45.3379 12.1287 45.38 12.1293C45.4462 12.1239 45.5122 12.1427 45.566 12.1823C45.5876 12.2065 45.6039 12.235 45.6139 12.266C45.624 12.2971 45.6274 12.3299 45.6241 12.3624L45.626 14.3518Z" fill="#CC0066"/>
<path d="M47.609 14.1527C47.5455 14.1936 47.4768 14.2254 47.4049 14.2473C47.3113 14.2745 47.2143 14.2874 47.1171 14.2855C46.9918 14.2863 46.8672 14.2662 46.7483 14.226C46.6337 14.1868 46.529 14.1222 46.4419 14.0369C46.3482 13.9431 46.2769 13.8286 46.2336 13.7023C46.1794 13.5377 46.154 13.3648 46.1588 13.1913C46.1557 13.0291 46.181 12.8676 46.2336 12.7144C46.2789 12.585 46.3523 12.4677 46.4484 12.3712C46.5426 12.2787 46.6547 12.2072 46.7776 12.1614C46.9147 12.1116 47.0594 12.0872 47.2049 12.0895C47.3392 12.0883 47.4728 12.1082 47.6011 12.1486C47.7073 12.1812 47.8084 12.2289 47.9015 12.2904C47.946 12.3215 47.9842 12.3612 48.014 12.4071C48.0432 12.4562 48.0577 12.5129 48.0558 12.5702V14.4217C48.0595 14.5612 48.034 14.6999 47.981 14.8286C47.9346 14.937 47.8621 15.0317 47.7703 15.1042C47.6747 15.1773 47.5653 15.2299 47.449 15.2588C47.3187 15.2916 47.1848 15.3075 47.0506 15.306C46.9212 15.3081 46.7921 15.2922 46.667 15.2588C46.583 15.2369 46.5019 15.2052 46.4252 15.1642C46.3656 15.1272 46.3218 15.0688 46.3025 15.0005C46.2832 14.9322 46.2898 14.8591 46.321 14.7956C46.3404 14.7589 46.3692 14.7282 46.4042 14.7067C46.4862 14.7655 46.5761 14.8118 46.6712 14.8442C46.7862 14.8858 46.9075 14.9066 47.0296 14.9057C47.1814 14.9151 47.3318 14.8725 47.457 14.7847C47.5105 14.7367 47.5522 14.6766 47.5786 14.6091C47.605 14.5417 47.6154 14.4689 47.609 14.3966V14.1527ZM47.1794 13.8984C47.2659 13.9009 47.3519 13.8848 47.4318 13.8512C47.4945 13.8238 47.5517 13.7851 47.6006 13.7368V12.5972C47.5505 12.5649 47.4967 12.5394 47.4402 12.5211C47.3668 12.4972 47.2899 12.4857 47.2128 12.487C47.1329 12.4838 47.0533 12.4976 46.979 12.5275C46.9046 12.5575 46.8373 12.6029 46.7814 12.661C46.6611 12.8076 46.602 12.9962 46.6167 13.1866C46.6142 13.2985 46.6289 13.4102 46.6605 13.5175C46.6847 13.5989 46.7259 13.674 46.7814 13.7377C46.83 13.7923 46.8907 13.8344 46.9585 13.8606C47.0292 13.8868 47.1041 13.8993 47.1794 13.8984Z" fill="#CC0066"/>
<path d="M48.628 11.478C48.627 11.4403 48.6333 11.4027 48.6465 11.3674C48.6597 11.3321 48.6797 11.2998 48.7052 11.2724C48.7313 11.2449 48.7628 11.2232 48.7976 11.209C48.8325 11.1947 48.87 11.1881 48.9075 11.1897C48.9444 11.1884 48.9811 11.1951 49.0153 11.2094C49.0494 11.2237 49.0802 11.2451 49.1056 11.2724C49.1553 11.329 49.1828 11.4021 49.1828 11.478C49.1828 11.5538 49.1553 11.627 49.1056 11.6836C49.0802 11.7109 49.0494 11.7323 49.0153 11.7466C48.9811 11.7608 48.9444 11.7676 48.9075 11.7663C48.87 11.7678 48.8325 11.7613 48.7976 11.747C48.7628 11.7327 48.7313 11.7111 48.7052 11.6836C48.6797 11.6562 48.6597 11.6239 48.6465 11.5886C48.6332 11.5533 48.627 11.5157 48.628 11.478ZM49.1367 14.3518C49.109 14.3628 49.0803 14.3714 49.0512 14.3774C49.0107 14.3862 48.9693 14.3905 48.9279 14.3901C48.8605 14.3958 48.7934 14.3771 48.7382 14.3372C48.7162 14.3141 48.6994 14.2864 48.6889 14.2561C48.6785 14.2257 48.6747 14.1934 48.6778 14.1614V12.1672L48.7652 12.144C48.8061 12.1336 48.8481 12.1287 48.8903 12.1293C48.9565 12.1239 49.0225 12.1427 49.0763 12.1823C49.0979 12.2065 49.1142 12.235 49.1242 12.266C49.1342 12.2971 49.1377 12.3299 49.1344 12.3624L49.1367 14.3518Z" fill="#CC0066"/>
<path d="M50.3306 13.9564C50.4079 14.0072 50.4991 14.0317 50.591 14.0263C50.6446 14.0259 50.6979 14.0181 50.7495 14.0032C50.8001 13.9897 50.8491 13.9705 50.8955 13.946C50.9158 13.9726 50.934 14.0009 50.9499 14.0306C50.9771 14.0857 50.9826 14.1492 50.9653 14.2083C50.9481 14.2674 50.9093 14.3176 50.8569 14.3487C50.7495 14.4093 50.6271 14.4372 50.5045 14.429C50.3161 14.4388 50.13 14.3827 49.9772 14.2702C49.9067 14.2052 49.852 14.1243 49.8177 14.0341C49.7833 13.9438 49.7701 13.8466 49.7791 13.7503V11.5505C49.8095 11.5397 49.8406 11.5312 49.8721 11.5249C49.9133 11.5162 49.9552 11.512 49.9972 11.5122C50.0624 11.5068 50.1274 11.5248 50.1809 11.5632C50.2024 11.5862 50.2187 11.6137 50.2288 11.6437C50.2388 11.6737 50.2423 11.7056 50.239 11.7372V12.2032H50.9229C50.9365 12.2289 50.9477 12.2558 50.9564 12.2836C50.9678 12.3191 50.9734 12.3563 50.9732 12.3937C50.9732 12.5267 50.9189 12.593 50.8104 12.5927H50.239V13.7162C50.2343 13.7609 50.2403 13.806 50.2565 13.8477C50.2727 13.8894 50.2986 13.9266 50.332 13.9559" fill="#CC0066"/>
<path d="M52.2066 12.0888C52.4383 12.0759 52.6676 12.1425 52.8576 12.2779C52.9418 12.3516 53.0076 12.4446 53.0497 12.5492C53.0917 12.6538 53.1087 12.767 53.0994 12.8796V13.9776C53.1032 14.0372 53.0868 14.0963 53.0529 14.145C53.0166 14.1883 52.9745 14.2262 52.9278 14.2575C52.8358 14.3099 52.7377 14.3506 52.6358 14.3785C52.4985 14.4161 52.3567 14.4339 52.2145 14.4314C51.9796 14.4453 51.7466 14.3821 51.5496 14.2513C51.4698 14.1903 51.4062 14.1101 51.3643 14.018C51.3225 13.9259 51.3037 13.8246 51.3097 13.7233C51.3045 13.6355 51.3185 13.5476 51.3507 13.4659C51.3828 13.3841 51.4324 13.3107 51.4957 13.2507C51.6494 13.1284 51.8364 13.0572 52.0313 13.0469L52.6441 12.9789V12.8773C52.6491 12.8205 52.6403 12.7634 52.6185 12.7109C52.5967 12.6584 52.5626 12.6121 52.5191 12.5762C52.4166 12.5081 52.2954 12.4749 52.1731 12.4816C52.0588 12.4812 51.945 12.4983 51.8356 12.5322C51.735 12.5629 51.6373 12.6026 51.5436 12.6508C51.5142 12.6232 51.489 12.5913 51.4687 12.5563C51.4462 12.5181 51.4347 12.4743 51.4354 12.4297C51.4362 12.3852 51.4492 12.3418 51.4729 12.3044C51.5036 12.2644 51.5437 12.2331 51.5896 12.2131C51.6788 12.1691 51.7734 12.1373 51.8709 12.1186C51.9815 12.0969 52.094 12.0863 52.2066 12.0869M52.215 14.0452C52.3065 14.047 52.3978 14.0356 52.4861 14.0112C52.5429 13.9972 52.5966 13.9727 52.6446 13.9389V13.3414L52.1694 13.3925C52.0617 13.3998 51.9573 13.4332 51.8649 13.4898C51.831 13.5157 51.8041 13.5499 51.7866 13.5891C51.7692 13.6283 51.7617 13.6714 51.7649 13.7144C51.7631 13.7604 51.7719 13.8063 51.7907 13.8483C51.8095 13.8902 51.8378 13.9271 51.8732 13.9559C51.9742 14.0235 52.0945 14.0547 52.215 14.0448" fill="#CC0066"/>
<path d="M53.9695 14.3903C53.9034 14.3949 53.8377 14.3762 53.7835 14.3373C53.7608 14.3146 53.7434 14.2871 53.7325 14.2566C53.7217 14.2262 53.7176 14.1937 53.7207 14.1615V11.3047L53.8081 11.2815C53.849 11.2711 53.8911 11.2662 53.9332 11.2668C53.9991 11.2622 54.0645 11.28 54.1192 11.3174C54.142 11.3396 54.1595 11.3669 54.1704 11.397C54.1813 11.4272 54.1852 11.4594 54.182 11.4914V14.3524C54.1569 14.361 54.1259 14.3695 54.089 14.378C54.0493 14.3869 54.0088 14.3912 53.9681 14.3907" fill="#CC0066"/>
<path d="M56.277 13.3767V14.3518C56.2456 14.3621 56.2136 14.3706 56.1812 14.3773C56.1401 14.3861 56.0982 14.3904 56.0562 14.3901C55.9871 14.3962 55.9182 14.3765 55.8623 14.3348C55.8402 14.3104 55.8234 14.2815 55.8129 14.2501C55.8025 14.2187 55.7987 14.1854 55.8018 14.1523V11.7233C55.7991 11.6777 55.8141 11.6329 55.8437 11.5985C55.8751 11.5664 55.9137 11.5424 55.9562 11.5285C56.0628 11.492 56.1733 11.4685 56.2854 11.4586C56.4094 11.446 56.5275 11.4397 56.6397 11.4397C56.945 11.4143 57.2486 11.5066 57.4901 11.6982C57.583 11.7886 57.6556 11.8983 57.7031 12.0197C57.7506 12.1411 57.7718 12.2715 57.7654 12.402C57.7712 12.5333 57.7497 12.6642 57.7022 12.7864C57.6548 12.9086 57.5825 13.0192 57.4901 13.111C57.2594 13.3057 56.9633 13.4015 56.6643 13.3781L56.277 13.3767ZM56.6397 12.9655C56.8089 12.9752 56.9761 12.9251 57.113 12.8237C57.1721 12.7719 57.2185 12.7068 57.2485 12.6336C57.2786 12.5604 57.2914 12.4811 57.286 12.402C57.2926 12.3245 57.2811 12.2465 57.2525 12.1743C57.2239 12.1022 57.179 12.0378 57.1214 11.9866C56.9825 11.8902 56.8159 11.844 56.6481 11.8552C56.5842 11.8552 56.5188 11.858 56.4519 11.8637C56.3916 11.8685 56.3316 11.877 56.2724 11.8892V12.9659L56.6397 12.9655Z" fill="#CC0066"/>
<path d="M59.023 12.0888C59.2547 12.0758 59.484 12.1424 59.674 12.2779C59.7582 12.3516 59.8241 12.4446 59.8661 12.5492C59.9081 12.6538 59.9252 12.767 59.9158 12.8796V13.9776C59.9196 14.0372 59.9032 14.0963 59.8692 14.145C59.833 14.1883 59.7909 14.2262 59.7442 14.2575C59.6521 14.3099 59.5541 14.3505 59.4522 14.3785C59.3149 14.4161 59.1731 14.4339 59.0309 14.4314C58.796 14.4453 58.563 14.3821 58.366 14.2513C58.2862 14.1903 58.2226 14.1101 58.1807 14.018C58.1388 13.9259 58.1201 13.8246 58.1261 13.7233C58.1209 13.6355 58.1349 13.5476 58.1671 13.4659C58.1992 13.3841 58.2487 13.3107 58.3121 13.2507C58.4657 13.1284 58.6528 13.0572 58.8477 13.0469L59.4606 12.9789V12.8773C59.4656 12.8205 59.4568 12.7633 59.435 12.7108C59.4131 12.6583 59.379 12.6121 59.3355 12.5762C59.233 12.508 59.1118 12.4749 58.9895 12.4816C58.8752 12.4812 58.7614 12.4983 58.652 12.5322C58.5514 12.5629 58.4537 12.6026 58.36 12.6508C58.3306 12.6232 58.3054 12.5913 58.2851 12.5563C58.2626 12.5181 58.2511 12.4743 58.2518 12.4297C58.2526 12.3852 58.2655 12.3418 58.2893 12.3044C58.32 12.2645 58.3602 12.2331 58.406 12.2131C58.4952 12.1691 58.5898 12.1373 58.6873 12.1186C58.7979 12.0969 58.9103 12.0863 59.023 12.0869M59.0314 14.0452C59.1229 14.047 59.2141 14.0356 59.3025 14.0112C59.3592 13.9972 59.413 13.9727 59.461 13.9389V13.3414L58.9858 13.3925C58.8781 13.3998 58.7737 13.4331 58.6813 13.4898C58.6474 13.5157 58.6205 13.5499 58.603 13.5891C58.5856 13.6283 58.5781 13.6714 58.5813 13.7144C58.5795 13.7604 58.5883 13.8063 58.6071 13.8483C58.6259 13.8902 58.6542 13.9271 58.6896 13.9559C58.7906 14.0234 58.9109 14.0547 59.0314 14.0448" fill="#CC0066"/>
<path d="M60.9045 13.8471C60.8295 13.6917 60.7386 13.4727 60.6316 13.1901C60.5247 12.9074 60.4225 12.588 60.3252 12.232C60.355 12.1964 60.3911 12.1669 60.4317 12.145C60.4744 12.1211 60.5224 12.1087 60.5712 12.1091C60.6277 12.1063 60.6836 12.123 60.7297 12.1563C60.7794 12.2019 60.8142 12.2617 60.8297 12.3279C60.9103 12.5822 60.9931 12.833 61.078 13.0804C61.1629 13.3278 61.2567 13.5829 61.3593 13.8457H61.376C61.4204 13.7439 61.4655 13.6259 61.5113 13.4916C61.5572 13.3574 61.6017 13.2146 61.6448 13.0634C61.6879 12.9121 61.7289 12.7588 61.768 12.6035C61.8071 12.4481 61.8418 12.2999 61.8722 12.1587C61.9003 12.1445 61.9296 12.1324 61.9596 12.1228C61.9947 12.1123 62.0313 12.1074 62.0679 12.1081C62.1257 12.1058 62.1827 12.1224 62.2306 12.1554C62.2535 12.1735 62.2715 12.1971 62.2831 12.2241C62.2947 12.2511 62.2996 12.2806 62.2971 12.3099C62.2904 12.4361 62.2701 12.5612 62.2367 12.6829C62.1964 12.8496 62.1443 13.0347 62.0805 13.2383C62.0166 13.4418 61.9436 13.6467 61.8615 13.8527C61.7793 14.0591 61.6966 14.2429 61.6132 14.4039C61.5025 14.6275 61.3697 14.8391 61.217 15.0354C61.1792 15.0938 61.1295 15.1433 61.0713 15.1806C61.013 15.2179 60.9476 15.242 60.8794 15.2514C60.8437 15.2535 60.808 15.2482 60.7743 15.2358C60.7407 15.2235 60.7098 15.2043 60.6837 15.1795C60.635 15.1299 60.6025 15.0662 60.5907 14.9971C60.6452 14.9473 60.6967 14.8942 60.7451 14.8383C60.8006 14.7752 60.8562 14.7075 60.912 14.635C60.9678 14.5625 61.0212 14.4883 61.0724 14.4124C61.1208 14.3413 61.1633 14.2662 61.1993 14.1879C61.145 14.1678 61.0959 14.1355 61.0557 14.0933C60.9916 14.0192 60.9402 13.9347 60.9036 13.8433" fill="#CC0066"/>
<path d="M65.191 12.5821C65.107 12.5148 65.0016 12.4812 64.8948 12.4876C64.815 12.4872 64.7359 12.5033 64.6623 12.5349C64.5872 12.5673 64.5181 12.6123 64.4578 12.6681C64.4635 12.6947 64.4676 12.7215 64.4703 12.7485C64.4731 12.7769 64.4745 12.8052 64.4745 12.8331V14.3509C64.4468 14.3619 64.4181 14.3704 64.3889 14.3764C64.35 14.3851 64.3102 14.3893 64.2704 14.3892C64.2023 14.3945 64.1344 14.3758 64.0783 14.3362C64.0558 14.3135 64.0384 14.2859 64.0277 14.2554C64.0169 14.225 64.0129 14.1925 64.016 14.1604V12.8842C64.0209 12.8287 64.0137 12.7728 63.995 12.7204C63.9763 12.6681 63.9465 12.6205 63.9077 12.5812C63.8237 12.5139 63.7183 12.4802 63.6115 12.4866C63.5321 12.4862 63.4533 12.5006 63.379 12.5292C63.3147 12.5537 63.2533 12.5854 63.1959 12.6237V14.3532C63.1681 14.3643 63.1395 14.3728 63.1103 14.3788C63.0698 14.3876 63.0284 14.3919 62.987 14.3915C62.9209 14.3962 62.8552 14.3775 62.8011 14.3386C62.7784 14.3159 62.7609 14.2883 62.7501 14.2579C62.7392 14.2275 62.7352 14.195 62.7383 14.1627V12.6114C62.7352 12.5502 62.7489 12.4894 62.7778 12.4356C62.8127 12.3829 62.8572 12.3375 62.9089 12.3018C63.1242 12.1655 63.3723 12.0923 63.6259 12.0901C63.7525 12.0878 63.8785 12.1086 63.9979 12.1515C64.101 12.1889 64.1939 12.2506 64.269 12.3316C64.3564 12.2598 64.454 12.2019 64.5586 12.16C64.6842 12.111 64.818 12.0873 64.9525 12.0901C65.0627 12.0893 65.1724 12.1053 65.2779 12.1373C65.3725 12.1653 65.4601 12.2136 65.5346 12.2791C65.6078 12.346 65.6654 12.4285 65.7034 12.5207C65.7477 12.6317 65.7691 12.7507 65.7662 12.8704V14.3542C65.7356 14.3643 65.7046 14.3728 65.6732 14.3797C65.6343 14.3884 65.5945 14.3926 65.5546 14.3925C65.4885 14.3971 65.4228 14.3784 65.3686 14.3395C65.346 14.3168 65.3285 14.2892 65.3177 14.2588C65.3068 14.2284 65.3028 14.1959 65.3059 14.1637V12.8875C65.3109 12.832 65.3038 12.776 65.285 12.7237C65.2663 12.6713 65.2364 12.6238 65.1975 12.5845" fill="#CC0066"/>
<path d="M66.7288 13.5088C66.7556 13.6668 66.8405 13.8084 66.9664 13.9049C67.1021 13.9958 67.2625 14.0409 67.4248 14.034C67.5396 14.0354 67.6535 14.0145 67.7606 13.9725C67.8479 13.939 67.9312 13.8955 68.0089 13.843C68.0469 13.8631 68.0787 13.8936 68.1008 13.9309C68.1229 13.9683 68.1343 14.0112 68.1339 14.0548C68.1334 14.1099 68.1127 14.1628 68.0758 14.2032C68.0313 14.2526 67.9774 14.2924 67.9173 14.3199C67.843 14.355 67.765 14.3814 67.6848 14.3984C67.4349 14.4499 67.1761 14.4336 66.9343 14.3511C66.7999 14.3032 66.6775 14.2257 66.5758 14.1242C66.4722 14.0189 66.3928 13.8915 66.3434 13.7513C66.2866 13.5872 66.2591 13.4142 66.262 13.2403C66.2588 13.071 66.285 12.9023 66.3392 12.7421C66.385 12.6086 66.4583 12.4865 66.554 12.3839C66.6452 12.2881 66.7553 12.213 66.8771 12.1636C67.0025 12.1125 67.1364 12.0866 67.2714 12.0875C67.4035 12.0857 67.5346 12.1109 67.6569 12.1617C67.769 12.2085 67.8706 12.2778 67.9555 12.3657C68.0405 12.4535 68.107 12.5579 68.1511 12.6727C68.1993 12.7968 68.2233 12.9292 68.2218 13.0626C68.2245 13.0938 68.2211 13.1253 68.2118 13.1551C68.2025 13.185 68.1874 13.2127 68.1674 13.2366C68.1247 13.2765 68.0707 13.3017 68.013 13.3084L66.7288 13.5088ZM67.271 12.4689C67.1954 12.4672 67.1204 12.4819 67.051 12.5123C66.9816 12.5426 66.9195 12.5878 66.8688 12.6448C66.7538 12.7839 66.6937 12.9614 66.7 13.143L67.7838 12.9775C67.7762 12.8447 67.7257 12.7181 67.6401 12.6174C67.5932 12.5665 67.5359 12.5268 67.4721 12.5012C67.4084 12.4755 67.3394 12.4645 67.271 12.4689Z" fill="#CC0066"/>
<path d="M69.9647 12.595C69.8719 12.5187 69.7546 12.4801 69.6355 12.4867C69.542 12.4853 69.449 12.4996 69.3602 12.5292C69.2881 12.5542 69.2183 12.5858 69.1519 12.6238V14.3533C69.1242 14.3644 69.0956 14.3729 69.0664 14.3788C69.0259 14.3877 68.9846 14.3919 68.9431 14.3916C68.877 14.3962 68.8113 14.3775 68.7571 14.3386C68.7344 14.3159 68.717 14.2884 68.7062 14.258C68.6953 14.2275 68.6913 14.195 68.6944 14.1628V12.6115C68.6914 12.5503 68.7052 12.4895 68.7339 12.4357C68.7689 12.3829 68.8136 12.3375 68.8655 12.3019C68.968 12.2432 69.0764 12.1957 69.1887 12.1601C69.3335 12.113 69.4849 12.0902 69.6369 12.0925C69.8768 12.0786 70.1138 12.1514 70.306 12.2981C70.3905 12.3759 70.4565 12.4723 70.4988 12.5799C70.5411 12.6876 70.5587 12.8036 70.5501 12.9192V14.3561C70.5208 14.3667 70.4908 14.3752 70.4604 14.3817C70.42 14.3905 70.3788 14.3947 70.3376 14.3944C70.2715 14.3991 70.2057 14.3804 70.1516 14.3415C70.129 14.3187 70.1116 14.2912 70.1009 14.2607C70.0901 14.2303 70.0861 14.1978 70.0893 14.1656V12.9367C70.0945 12.875 70.0864 12.8128 70.0655 12.7546C70.0446 12.6964 70.0115 12.6435 69.9684 12.5997" fill="#CC0066"/>
<path d="M71.7134 13.9559C71.7907 14.0067 71.8819 14.0312 71.9738 14.0258C72.0275 14.0254 72.0808 14.0176 72.1324 14.0027C72.183 13.9892 72.2319 13.97 72.2784 13.9455C72.2987 13.9722 72.3169 14.0005 72.3328 14.0301C72.3601 14.0852 72.3656 14.1488 72.3483 14.2079C72.3311 14.267 72.2922 14.3172 72.2398 14.3482C72.1323 14.4088 72.01 14.4367 71.8873 14.4285C71.6989 14.4383 71.5129 14.3822 71.3601 14.2697C71.2895 14.2047 71.2348 14.1239 71.2005 14.0336C71.1661 13.9433 71.1529 13.8461 71.162 13.7498V11.55C71.1923 11.5392 71.2234 11.5307 71.255 11.5244C71.2961 11.5158 71.338 11.5115 71.38 11.5117C71.4453 11.5063 71.5103 11.5243 71.5637 11.5627C71.5853 11.5857 71.6017 11.6131 71.6118 11.6431C71.622 11.6732 71.6255 11.7051 71.6223 11.7367V12.2027H72.3063C72.32 12.2284 72.3312 12.2553 72.3398 12.2831C72.3511 12.3186 72.3568 12.3558 72.3565 12.3932C72.3565 12.5262 72.3022 12.5925 72.1937 12.5922H71.6223V13.7158C71.6176 13.7604 71.6236 13.8055 71.6398 13.8472C71.656 13.889 71.6819 13.9261 71.7153 13.9554" fill="#CC0066"/>
<path d="M74.3641 13.7547C74.3682 13.8487 74.3506 13.9424 74.3126 14.0282C74.2745 14.114 74.2172 14.1895 74.1451 14.2486C73.9596 14.3808 73.7351 14.4444 73.509 14.4287C73.4014 14.4295 73.294 14.4195 73.1882 14.3989C73.1031 14.3832 73.0204 14.3562 72.9422 14.3186C72.8816 14.2894 72.8278 14.2475 72.7842 14.1957C72.7467 14.1522 72.726 14.0965 72.7256 14.0387C72.7254 13.9936 72.7361 13.9492 72.7567 13.9092C72.7779 13.8677 72.8101 13.8332 72.8497 13.8095C72.9376 13.87 73.031 13.9218 73.1287 13.9641C73.2449 14.0128 73.3699 14.0366 73.4956 14.034C73.6018 14.041 73.7077 14.016 73.8001 13.9622C73.8336 13.9397 73.8608 13.9087 73.8791 13.8724C73.8973 13.836 73.906 13.7954 73.9042 13.7547C73.906 13.7199 73.9007 13.6851 73.8885 13.6526C73.8763 13.62 73.8576 13.5904 73.8336 13.5656C73.7727 13.5118 73.6995 13.4746 73.6206 13.4574L73.3202 13.3727C73.1572 13.3351 73.0064 13.2555 72.8822 13.1416C72.8338 13.0877 72.7965 13.0246 72.7726 12.9558C72.7486 12.887 72.7385 12.8141 72.7428 12.7413C72.7423 12.6527 72.7609 12.5651 72.7972 12.4846C72.8332 12.4043 72.8866 12.3334 72.9534 12.2771C73.0295 12.2149 73.1166 12.1682 73.2101 12.1395C73.3234 12.104 73.4416 12.0868 73.5602 12.0885C73.6582 12.0874 73.756 12.0966 73.8522 12.1159C73.9291 12.1313 74.0039 12.1555 74.0754 12.1882C74.1317 12.213 74.1817 12.2507 74.2214 12.2984C74.2545 12.338 74.273 12.3881 74.2735 12.4402C74.2744 12.4846 74.2637 12.5285 74.2423 12.5673C74.223 12.6021 74.1967 12.6324 74.1651 12.6562C74.089 12.6123 74.0095 12.5747 73.9275 12.5437C73.8212 12.5021 73.708 12.4812 73.5941 12.4822C73.4925 12.4763 73.3913 12.4998 73.3021 12.5498C73.2744 12.5675 73.2509 12.5912 73.2331 12.6191C73.2154 12.647 73.2039 12.6786 73.1995 12.7115C73.195 12.7445 73.1978 12.778 73.2075 12.8098C73.2172 12.8415 73.2336 12.8707 73.2557 12.8953C73.314 12.9464 73.3845 12.9808 73.4602 12.9951L73.7188 13.0631C73.9005 13.1062 74.0688 13.1944 74.2088 13.3198C74.2624 13.3777 74.3039 13.446 74.3308 13.5207C74.3576 13.5954 74.3693 13.6748 74.3651 13.7542" fill="#CC0066"/>
<path d="M10.7196 7.08838V15.3634C10.7197 15.9052 10.5562 16.4338 10.2513 16.8781C9.94637 17.3224 9.51472 17.6608 9.01459 17.8478L1.59091 20.6233C1.47407 20.6671 1.34855 20.6816 1.22503 20.6654C1.10152 20.6493 0.983669 20.6031 0.881522 20.5306C0.779375 20.4582 0.695957 20.3618 0.63837 20.2496C0.580783 20.1373 0.550734 20.0126 0.550781 19.886V12.8644C0.55102 12.4422 0.678452 12.0301 0.91594 11.6836C1.15343 11.3372 1.48958 11.0729 1.8792 10.9265L8.74073 8.34663C9.82364 7.9009 10.2468 7.62817 10.7201 7.09074" fill="white"/>
<path d="M17.2462 9.18159C17.2385 9.48927 17.116 9.78247 16.9037 10.0019C16.6913 10.2212 16.4049 10.3504 16.1024 10.3633H14.5466C14.4569 10.3654 14.3701 10.3313 14.3051 10.2684C14.2401 10.2054 14.2024 10.1189 14.2002 10.0277V6.58284C14.1995 6.53715 14.2079 6.49178 14.2248 6.44943C14.2417 6.40707 14.2667 6.3686 14.2985 6.33629C14.3303 6.30397 14.3682 6.27848 14.4098 6.26131C14.4515 6.24415 14.4961 6.23567 14.5411 6.23637H16.0424C16.267 6.24844 16.4833 6.32648 16.6651 6.46102C16.8469 6.59555 16.9865 6.78082 17.0668 6.99435C17.1471 7.20789 17.1648 7.44052 17.1177 7.66405C17.0705 7.88759 16.9606 8.09242 16.8013 8.25374C16.9386 8.36513 17.0497 8.50618 17.1268 8.66666C17.2038 8.82714 17.2443 9.00303 17.2462 9.18159ZM14.8605 7.95264L15.9657 7.9413C16.1 7.93681 16.2275 7.88059 16.3225 7.78404C16.4175 7.68749 16.4728 7.55783 16.4772 7.42136C16.4764 7.29009 16.4255 7.16427 16.3352 7.07044C16.2449 6.97661 16.1222 6.92211 15.9931 6.91843H14.8605V7.95264ZM16.5651 9.18159C16.5558 9.04249 16.4962 8.91182 16.3977 8.81482C16.2992 8.71783 16.1688 8.6614 16.0317 8.65645H14.8879V9.69019H16.0643C16.1956 9.68593 16.3205 9.63098 16.4134 9.53651C16.5063 9.44203 16.5604 9.31513 16.5646 9.18159" fill="white"/>
<path d="M19.9525 8.65641H19.4522V10.0272C19.4503 10.1174 19.4134 10.2032 19.3495 10.2659C19.2857 10.3287 19.2002 10.3633 19.1114 10.3623C19.024 10.362 18.9402 10.3267 18.8784 10.2639C18.8165 10.2011 18.7816 10.116 18.7812 10.0272V6.57145C18.784 6.4815 18.8212 6.3962 18.8848 6.33363C18.9485 6.27106 19.0335 6.23616 19.1221 6.23633H20.3259C20.6354 6.2432 20.9305 6.37052 21.1504 6.59205C21.3703 6.81357 21.4983 7.11242 21.5078 7.42699C21.5021 7.68069 21.4207 7.92663 21.2744 8.13224C21.1281 8.33786 20.9238 8.49345 20.6886 8.57842L21.453 9.84707C21.4975 9.9252 21.5104 10.0179 21.4889 10.1055C21.4674 10.1931 21.4131 10.2688 21.3377 10.3164C21.2853 10.3456 21.2267 10.3611 21.167 10.3613C21.1097 10.3613 21.0534 10.3464 21.0033 10.318C20.9533 10.2896 20.9112 10.2487 20.8811 10.1992L19.9525 8.65641ZM20.8434 7.43219C20.8371 7.29202 20.7773 7.15986 20.6767 7.06382C20.576 6.96778 20.4425 6.91544 20.3045 6.91792H19.4522V7.97435H20.3045C20.4465 7.97448 20.5828 7.91758 20.6837 7.81604C20.7847 7.7145 20.842 7.57654 20.8434 7.43219Z" fill="white"/>
<path d="M25.3672 10.362C24.831 10.3561 24.3189 10.1347 23.9429 9.74615C23.5668 9.35758 23.3574 8.83347 23.3604 8.28839C23.3673 7.88708 23.4907 7.49679 23.7151 7.16651C23.9394 6.83622 24.2547 6.58064 24.6214 6.43183C24.9881 6.28303 25.3899 6.24763 25.7763 6.33007C26.1627 6.41251 26.5166 6.60913 26.7935 6.89525C27.0704 7.18137 27.258 7.54425 27.3327 7.93836C27.4075 8.33246 27.3662 8.74025 27.2138 9.11054C27.0615 9.48083 26.8049 9.79714 26.4764 10.0198C26.1479 10.2424 25.762 10.3615 25.3672 10.362ZM24.009 8.28839C24.0095 8.56204 24.0898 8.82941 24.2397 9.05667C24.3897 9.28394 24.6025 9.4609 24.8514 9.56517C25.1003 9.66944 25.374 9.69633 25.6379 9.64245C25.9019 9.58857 26.1441 9.45634 26.3341 9.26247C26.5241 9.06861 26.6533 8.82182 26.7053 8.55332C26.7573 8.28483 26.7298 8.00668 26.6263 7.75407C26.5228 7.50145 26.3479 7.28571 26.1238 7.13413C25.8997 6.98256 25.6364 6.90195 25.3672 6.90251C25.0072 6.9061 24.663 7.05343 24.4089 7.31271C24.1548 7.57198 24.0112 7.92241 24.009 8.28839Z" fill="white"/>
<path d="M32.1185 10.3341C32.076 10.351 32.0305 10.359 31.9849 10.3576C31.9392 10.3563 31.8943 10.3457 31.8527 10.3263C31.8112 10.307 31.7739 10.2795 31.743 10.2452C31.7122 10.211 31.6884 10.1708 31.6731 10.1271L30.7432 7.57464L29.8086 10.1271C29.7943 10.1709 29.7714 10.2114 29.7412 10.2458C29.7109 10.2803 29.674 10.3081 29.6328 10.3275C29.5916 10.3469 29.5469 10.3575 29.5014 10.3587C29.456 10.3598 29.4108 10.3514 29.3687 10.3341C29.3254 10.319 29.2855 10.2951 29.2515 10.2638C29.2176 10.2325 29.1902 10.1945 29.1712 10.1522C29.1521 10.1098 29.1418 10.0639 29.1407 10.0174C29.1397 9.97079 29.1479 9.92449 29.1651 9.88128L30.4075 6.45488C30.4336 6.38642 30.4797 6.32774 30.5397 6.28675C30.5996 6.24576 30.6705 6.22443 30.7427 6.22563C30.8146 6.22598 30.8848 6.24793 30.9444 6.28872C31.0041 6.32951 31.0505 6.38732 31.0779 6.45488L32.3203 9.88128C32.3375 9.92446 32.3458 9.97074 32.3447 10.0173C32.3437 10.0638 32.3334 10.1097 32.3144 10.152C32.2954 10.1944 32.2681 10.2324 32.2342 10.2637C32.2003 10.295 32.1605 10.3189 32.1171 10.3341" fill="white"/>
<path d="M33.708 10.0263V6.58809C33.7101 6.49989 33.7455 6.4159 33.8069 6.35352C33.8683 6.29113 33.9509 6.25512 34.0377 6.25297H34.8569C35.152 6.25121 35.4442 6.31206 35.7148 6.43164C35.9749 6.54763 36.2074 6.71915 36.3964 6.93456C36.5852 7.15236 36.7259 7.4086 36.8094 7.68615C36.8929 7.96371 36.9171 8.25617 36.8805 8.54401C36.8198 9.04383 36.582 9.50404 36.2116 9.83842C35.8411 10.1728 35.3635 10.3584 34.8681 10.3605H34.0381C33.9514 10.3583 33.8687 10.3223 33.8074 10.2599C33.746 10.1976 33.7106 10.1136 33.7085 10.0254M36.2156 8.46555C36.2446 8.27251 36.2316 8.07534 36.1775 7.88797C36.1233 7.70061 36.0293 7.52762 35.9022 7.38124C35.7707 7.2326 35.6094 7.11432 35.4292 7.03434C35.249 6.95436 35.054 6.91453 34.8574 6.91755H34.3683V9.68977H34.8686C35.2021 9.68993 35.5239 9.56518 35.7727 9.33935C36.0214 9.11351 36.1796 8.80243 36.217 8.46555" fill="white"/>
<path d="M40.1451 9.7856C39.9806 10.0383 39.727 10.2173 39.4366 10.2859C39.1463 10.3545 38.8411 10.3074 38.5838 10.1543C38.5049 10.1057 38.4466 10.0289 38.4202 9.93906C38.3938 9.84918 38.4012 9.75254 38.441 9.66791C38.5007 9.59778 38.5842 9.55309 38.6749 9.54275C38.7655 9.53242 38.8567 9.55719 38.9302 9.61213C39.0441 9.67503 39.1774 9.69157 39.3029 9.6584C39.4284 9.62523 39.5368 9.54483 39.6062 9.43346C39.6446 9.37551 39.6713 9.31043 39.6849 9.24197C39.6985 9.1735 39.6986 9.10298 39.6854 9.03445C39.6721 8.96592 39.6457 8.90072 39.6076 8.84258C39.5695 8.78444 39.5206 8.7345 39.4635 8.69562C39.1943 8.52215 39.1845 8.51695 38.9246 8.34348C38.6673 8.17372 38.4868 7.907 38.4229 7.60199C38.3589 7.29698 38.4168 6.97865 38.5838 6.71702C38.75 6.46641 39.0035 6.28905 39.2931 6.22057C39.5827 6.15209 39.8871 6.19757 40.1451 6.34786C40.2215 6.39318 40.2777 6.46658 40.3023 6.55288C40.3269 6.63919 40.3179 6.73179 40.2772 6.81155C40.2226 6.88464 40.1425 6.93357 40.0534 6.94818C39.9643 6.96279 39.8731 6.94196 39.7987 6.89001C39.6798 6.82845 39.5421 6.81557 39.4141 6.85405C39.2861 6.89252 39.1775 6.9794 39.1106 7.09683C39.0437 7.21425 39.0236 7.35328 39.0545 7.4853C39.0854 7.61731 39.1648 7.73228 39.2766 7.80653C39.416 7.89586 39.4161 7.89586 39.8099 8.15866C39.9371 8.243 40.0466 8.35199 40.1323 8.47941C40.218 8.60683 40.2781 8.75017 40.3093 8.90124C40.3404 9.0523 40.3419 9.20813 40.3137 9.35979C40.2856 9.51146 40.2283 9.65647 40.1451 9.7856Z" fill="white"/>
<path d="M43.8581 8.64638C43.5506 8.66858 43.2421 8.67237 42.9342 8.65773V10.0285C42.9322 10.1187 42.8953 10.2045 42.8315 10.2672C42.7677 10.33 42.6821 10.3646 42.5934 10.3636C42.506 10.3632 42.4224 10.3278 42.3606 10.265C42.2989 10.2023 42.2641 10.1172 42.2637 10.0285V6.58222C42.2631 6.53805 42.2713 6.49422 42.2876 6.4533C42.304 6.41238 42.3283 6.37521 42.359 6.34398C42.3897 6.31274 42.4263 6.28808 42.4665 6.27144C42.5068 6.2548 42.5499 6.24653 42.5934 6.2471H43.825C44.132 6.25682 44.4234 6.38661 44.6385 6.60941C44.8536 6.8322 44.9758 7.13081 44.9796 7.44296C44.9746 7.74961 44.8566 8.0432 44.6489 8.26568C44.4413 8.48817 44.159 8.62334 43.8581 8.64449M43.7813 6.91782H42.9346V7.97424H43.7813C43.9231 7.9734 44.0588 7.91618 44.1595 7.81485C44.2603 7.71352 44.3179 7.57612 44.3202 7.43209C44.313 7.29224 44.253 7.16064 44.1525 7.06479C44.0521 6.96895 43.9191 6.91629 43.7813 6.91782Z" fill="white"/>
<path d="M46.7383 10.0267V6.57246C46.7386 6.48369 46.7735 6.39867 46.8353 6.3359C46.897 6.27313 46.9806 6.23771 47.0679 6.23733H49.0487C49.1375 6.23619 49.2232 6.27077 49.287 6.33355C49.3508 6.39632 49.3877 6.48219 49.3895 6.57246C49.3891 6.66419 49.353 6.75203 49.2892 6.8169C49.2254 6.88177 49.1389 6.91843 49.0487 6.91893H47.4102V7.97535H48.6474C48.6909 7.97478 48.734 7.98305 48.7742 7.99969C48.8145 8.01633 48.8511 8.041 48.8818 8.07223C48.9125 8.10346 48.9368 8.14064 48.9532 8.18156C48.9695 8.22247 48.9777 8.26631 48.9771 8.31047C48.9777 8.35468 48.9696 8.39857 48.9533 8.43954C48.937 8.48051 48.9127 8.51774 48.882 8.54902C48.8512 8.58031 48.8146 8.60501 48.7744 8.62168C48.7341 8.63835 48.6909 8.64664 48.6474 8.64607H47.4102V9.67981H49.0487C49.1389 9.6803 49.2254 9.71696 49.2892 9.78183C49.353 9.8467 49.3891 9.93454 49.3895 10.0263C49.3876 10.1165 49.3507 10.2023 49.2869 10.265C49.2231 10.3278 49.1375 10.3624 49.0487 10.3614H47.0694C46.982 10.361 46.8984 10.3256 46.8366 10.2628C46.7749 10.2001 46.74 10.115 46.7397 10.0263" fill="white"/>
<path d="M54.5633 9.91479C54.2133 10.1979 53.7789 10.3515 53.3316 10.3506C52.7935 10.3506 52.2775 10.1333 51.897 9.7465C51.5165 9.35971 51.3027 8.8351 51.3027 8.28809C51.3027 7.74108 51.5165 7.21647 51.897 6.82968C52.2775 6.44288 52.7935 6.22559 53.3316 6.22559C53.6972 6.22609 54.0553 6.33072 54.3653 6.52762C54.4042 6.54821 54.4387 6.57659 54.4666 6.61107C54.4944 6.64554 54.5152 6.6854 54.5275 6.72823C54.5399 6.77106 54.5435 6.81599 54.5383 6.86031C54.5331 6.90463 54.5192 6.94742 54.4973 6.98612C54.475 7.02443 54.4451 7.05766 54.4096 7.08371C54.3741 7.10977 54.3336 7.12809 54.2908 7.13754C54.248 7.14699 54.2038 7.14737 54.1608 7.13863C54.1178 7.1299 54.0771 7.11225 54.0412 7.08679C53.8267 6.95727 53.5815 6.88962 53.3321 6.89111C53.1538 6.89111 52.9772 6.92683 52.8125 6.99622C52.6478 7.06562 52.4981 7.16734 52.372 7.29556C52.246 7.42378 52.146 7.57599 52.0779 7.74349C52.0097 7.911 51.9747 8.09052 51.9748 8.27178C51.9687 8.5314 52.0347 8.78751 52.1653 9.01071C52.2959 9.23391 52.4857 9.41514 52.7131 9.53361C52.9404 9.65207 53.196 9.70295 53.4505 9.68041C53.705 9.65788 53.9481 9.56283 54.1518 9.4062C54.1838 9.37836 54.2209 9.35727 54.261 9.34416C54.301 9.33105 54.3433 9.32617 54.3852 9.32983C54.4271 9.33348 54.4679 9.34558 54.5052 9.36543C54.5425 9.38527 54.5755 9.41247 54.6024 9.44543C54.6583 9.51294 54.6857 9.60024 54.6785 9.68821C54.6712 9.77618 54.63 9.85765 54.5638 9.91479" fill="white"/>
<path d="M59.1426 6.56611C59.1426 6.60992 59.134 6.6533 59.1174 6.69372C59.1008 6.73414 59.0764 6.77081 59.0458 6.80159C59.0151 6.83237 58.9787 6.85665 58.9387 6.87303C58.8988 6.8894 58.856 6.89754 58.8129 6.89698H58.0053V10.027C58.0053 10.1152 57.9708 10.1998 57.9094 10.2621C57.8481 10.3245 57.7649 10.3595 57.6782 10.3595C57.5914 10.3595 57.5082 10.3245 57.4468 10.2621C57.3855 10.1998 57.3511 10.1152 57.3511 10.027V6.89603H56.5429C56.4562 6.89603 56.373 6.861 56.3116 6.79864C56.2503 6.73628 56.2158 6.6517 56.2158 6.56351C56.2158 6.47532 56.2503 6.39074 56.3116 6.32838C56.373 6.26602 56.4562 6.23098 56.5429 6.23098H58.8134C58.8568 6.23041 58.8999 6.23869 58.9402 6.25533C58.9804 6.27197 59.017 6.29663 59.0477 6.32787C59.0784 6.3591 59.1027 6.39627 59.1191 6.43719C59.1355 6.4781 59.1431 6.52194 59.1426 6.56611Z" fill="white"/>
<path d="M61.9632 8.65641H61.4629V10.0272C61.461 10.1174 61.4241 10.2032 61.3603 10.2659C61.2965 10.3287 61.2109 10.3633 61.1221 10.3623C61.0347 10.362 60.951 10.3267 60.8891 10.2639C60.8273 10.2011 60.7924 10.116 60.792 10.0272V6.57145C60.7948 6.4815 60.8319 6.3962 60.8955 6.33363C60.9592 6.27106 61.0443 6.23616 61.1328 6.23633H62.3371C62.6466 6.2432 62.9417 6.37052 63.1616 6.59205C63.3815 6.81357 63.5095 7.11242 63.519 7.42699C63.5133 7.68069 63.4319 7.92663 63.2856 8.13224C63.1393 8.33786 62.935 8.49345 62.6998 8.57842L63.4641 9.84707C63.5087 9.92525 63.5215 10.018 63.4998 10.1056C63.4782 10.1932 63.4239 10.2689 63.3484 10.3164C63.2961 10.3457 63.2374 10.3611 63.1777 10.3613C63.1204 10.3613 63.0641 10.3464 63.014 10.318C62.964 10.2896 62.9219 10.2487 62.8918 10.1992L61.9632 8.65641ZM62.8541 7.43219C62.8478 7.29202 62.788 7.15986 62.6874 7.06382C62.5868 6.96778 62.4532 6.91544 62.3152 6.91792H61.4629V7.97435H62.3152C62.4572 7.97448 62.5935 7.91758 62.6944 7.81604C62.7954 7.7145 62.8527 7.57654 62.8541 7.43219Z" fill="white"/>
<path d="M68.3421 6.56662V8.85246C68.3456 9.05288 68.3098 9.25199 68.2368 9.43817C68.1637 9.62436 68.0549 9.7939 67.9168 9.93688C67.7786 10.0799 67.6138 10.1934 67.4319 10.271C67.2501 10.3485 67.0549 10.3884 66.8577 10.3884C66.6605 10.3884 66.4653 10.3485 66.2835 10.271C66.1016 10.1934 65.9368 10.0799 65.7986 9.93688C65.6604 9.7939 65.5517 9.62436 65.4786 9.43817C65.4056 9.25199 65.3698 9.05288 65.3733 8.85246V6.56662C65.3733 6.47617 65.4086 6.38943 65.4715 6.32547C65.5344 6.26152 65.6198 6.22559 65.7087 6.22559C65.7977 6.22559 65.8831 6.26152 65.946 6.32547C66.0089 6.38943 66.0442 6.47617 66.0442 6.56662V8.85246C66.0442 9.07335 66.1306 9.28518 66.2842 9.44137C66.4378 9.59756 66.6462 9.68531 66.8635 9.68531C67.0808 9.68531 67.2892 9.59756 67.4428 9.44137C67.5965 9.28518 67.6828 9.07335 67.6828 8.85246V6.56662C67.6822 6.52245 67.6904 6.47862 67.7067 6.4377C67.7231 6.39678 67.7474 6.35961 67.7781 6.32838C67.8088 6.29714 67.8453 6.27248 67.8856 6.25584C67.9258 6.2392 67.969 6.23092 68.0124 6.2315C68.0559 6.23092 68.099 6.2392 68.1392 6.25584C68.1795 6.27248 68.2161 6.29714 68.2468 6.32838C68.2775 6.35961 68.3018 6.39678 68.3182 6.4377C68.3345 6.47862 68.3427 6.52245 68.3421 6.56662Z" fill="white"/>
<path d="M74.262 9.95406C74.2739 9.99518 74.2774 10.0383 74.2724 10.0809C74.2674 10.1235 74.254 10.1645 74.2329 10.2017C74.2118 10.2388 74.1835 10.2712 74.1498 10.2969C74.116 10.3226 74.0775 10.341 74.0365 10.3511H74.0198C74.0142 10.3511 74.0142 10.3511 74.0091 10.3624H73.9705C73.8935 10.3618 73.8192 10.3342 73.7599 10.2844C73.7007 10.2345 73.6601 10.1655 73.645 10.0888L73.194 7.85303L72.364 10.1167C72.342 10.185 72.2993 10.2445 72.242 10.2866C72.1847 10.3288 72.1158 10.3515 72.045 10.3515C71.9743 10.3515 71.9054 10.3288 71.8481 10.2866C71.7909 10.2445 71.7482 10.185 71.7261 10.1167L70.9947 7.95938L70.6097 10.0888C70.5975 10.1673 70.5579 10.2388 70.4981 10.2901C70.4384 10.3414 70.3624 10.3691 70.2842 10.3681C70.2675 10.3681 70.2456 10.3624 70.2293 10.3624C70.1852 10.3559 70.1431 10.3395 70.106 10.3143C70.0689 10.2891 70.0378 10.2558 70.015 10.2169C69.9885 10.1826 69.9698 10.1428 69.9603 10.1003C69.9508 10.0577 69.9507 10.0136 69.9601 9.97107L70.5265 6.50591C70.5405 6.43048 70.579 6.36201 70.6358 6.31139C70.6926 6.26077 70.7645 6.23091 70.8399 6.22656H70.8673C70.9382 6.22652 71.0074 6.24939 71.0647 6.29186C71.122 6.33434 71.1646 6.39423 71.1863 6.4629L72.0548 8.9501L72.962 6.45155C72.9832 6.3847 73.0252 6.32671 73.0818 6.28636C73.1384 6.24601 73.2063 6.22552 73.2753 6.22798H73.2921C73.3672 6.22848 73.4396 6.25639 73.4961 6.30663C73.5526 6.35687 73.5894 6.42609 73.5999 6.50166L74.262 9.95406Z" fill="white"/>
</g>
</svg>
