<svg width="74" height="21" viewBox="0 0 74 21" fill="none" xmlns="http://www.w3.org/2000/svg">
<mask id="mask0_2045_2222" style="mask-type:luminance" maskUnits="userSpaceOnUse" x="0" y="0" width="74" height="21">
<path d="M73.5061 0.805664H0.974609V20.1891H73.5061V0.805664Z" fill="white"/>
</mask>
<g mask="url(#mask0_2045_2222)">
<path d="M8.85385 3.73948L2.2329 0.880039C2.09538 0.820557 1.9455 0.796644 1.79667 0.810439C1.64783 0.824235 1.50468 0.875308 1.38002 0.959092C1.25536 1.04287 1.15308 1.15675 1.08233 1.29054C1.01158 1.42433 0.974573 1.57385 0.974609 1.72574V9.08506C0.974605 9.24154 1.01191 9.39568 1.08333 9.5343C1.15475 9.67292 1.25816 9.7919 1.38471 9.88103C1.51126 9.97017 1.65718 10.0268 1.80997 10.0461C1.96277 10.0654 2.11789 10.0468 2.26207 9.99189L6.65492 8.3181L1.89565 6.30297C1.82751 6.27094 1.77422 6.21333 1.74698 6.14223C1.71974 6.07113 1.72067 5.99206 1.74957 5.92164C1.77847 5.85122 1.83309 5.79491 1.90197 5.76455C1.97084 5.73418 2.04862 5.73211 2.11897 5.75878L7.45109 8.0152L8.95001 7.44369C11.5149 6.53963 11.6484 4.73338 8.85431 3.73855M9.4814 6.0802C9.45178 6.15219 9.3953 6.20933 9.32432 6.2391C9.25334 6.26888 9.17365 6.26886 9.10268 6.23905L1.78719 3.14295C1.75203 3.12808 1.72009 3.10632 1.69321 3.0789C1.66632 3.05149 1.64502 3.01897 1.6305 2.98318C1.60119 2.91092 1.60132 2.82978 1.63087 2.75762C1.66042 2.68545 1.71697 2.62817 1.78808 2.59838C1.85919 2.56859 1.93903 2.56873 2.01004 2.59876L9.32508 5.69579C9.36031 5.71064 9.39231 5.73241 9.41925 5.75985C9.44618 5.7873 9.46752 5.81987 9.48204 5.85571C9.49656 5.89155 9.50398 5.92995 9.50387 5.96871C9.50376 6.00747 9.49613 6.04583 9.4814 6.08159" fill="#CC0066"/>
<path d="M44.3582 12.5793C44.3625 12.801 44.3285 13.0217 44.2579 13.2314C44.1983 13.4053 44.1013 13.5636 43.974 13.6946C43.8495 13.8191 43.6986 13.9129 43.5328 13.9688C43.3482 14.0304 43.1548 14.0606 42.9604 14.0582C42.8693 14.0582 42.7616 14.054 42.6373 14.0456C42.5202 14.0391 42.4046 14.0154 42.2941 13.9752C42.2375 13.9639 42.1864 13.9328 42.1499 13.8873C42.1134 13.8418 42.0936 13.7848 42.0941 13.7261V11.4164C42.0914 11.3717 42.1061 11.3278 42.1351 11.2941C42.1659 11.2626 42.2038 11.2391 42.2454 11.2256C42.3538 11.1913 42.4654 11.1689 42.5785 11.1589C42.697 11.1478 42.8122 11.1422 42.924 11.1422C43.122 11.14 43.3192 11.1694 43.5082 11.2293C43.6781 11.2824 43.8339 11.3739 43.964 11.497C44.0931 11.6233 44.1928 11.7772 44.2561 11.9476C44.3294 12.1496 44.3648 12.3637 44.3605 12.5789M43.8824 12.583C43.886 12.4236 43.8617 12.2648 43.8108 12.1139C43.7689 11.9932 43.7003 11.8839 43.6103 11.7943C43.524 11.7108 43.4207 11.6476 43.3077 11.6091C43.1871 11.5682 43.0607 11.5478 42.9336 11.5488C42.8074 11.5467 42.6814 11.5579 42.5576 11.5822V13.6172C42.6201 13.632 42.6836 13.6417 42.7476 13.6464C42.8172 13.652 42.8887 13.6548 42.9623 13.6548C43.0887 13.6633 43.2155 13.6436 43.3336 13.5969C43.4517 13.5503 43.5583 13.4778 43.6459 13.3847C43.8181 13.1558 43.9018 12.8705 43.881 12.583" fill="#CC0066"/>
<path d="M44.8409 11.1802C44.8399 11.1432 44.8461 11.1064 44.859 11.0718C44.872 11.0372 44.8916 11.0056 44.9166 10.9787C44.9421 10.9517 44.973 10.9306 45.0072 10.9166C45.0413 10.9026 45.078 10.8962 45.1148 10.8977C45.151 10.8965 45.187 10.9031 45.2205 10.9171C45.2539 10.931 45.2841 10.952 45.309 10.9787C45.3577 11.0342 45.3846 11.1059 45.3846 11.1802C45.3846 11.2545 45.3577 11.3262 45.309 11.3817C45.2841 11.4083 45.2539 11.4293 45.2205 11.4433C45.187 11.4573 45.151 11.4639 45.1148 11.4627C45.078 11.4642 45.0413 11.4577 45.0072 11.4438C44.973 11.4298 44.9421 11.4086 44.9166 11.3817C44.8916 11.3548 44.872 11.3232 44.859 11.2886C44.846 11.254 44.8399 11.2172 44.8409 11.1802ZM45.3395 13.9961C45.3123 14.0069 45.2843 14.0152 45.2557 14.0211C45.2161 14.0297 45.1758 14.0339 45.1353 14.0336C45.0693 14.0391 45.0034 14.0208 44.9494 13.9817C44.9278 13.9591 44.9113 13.932 44.9011 13.9022C44.8909 13.8725 44.8872 13.8408 44.8902 13.8094V11.8554L44.9758 11.8328C45.0159 11.8226 45.0571 11.8178 45.0984 11.8184C45.1633 11.8131 45.228 11.8315 45.2807 11.8703C45.3019 11.894 45.3179 11.9219 45.3277 11.9523C45.3375 11.9827 45.3409 12.0149 45.3377 12.0467L45.3395 13.9961Z" fill="#CC0066"/>
<path d="M47.2833 13.8011C47.2211 13.8411 47.1538 13.8723 47.0832 13.8937C46.9916 13.9204 46.8965 13.9331 46.8011 13.9312C46.6783 13.932 46.5563 13.9123 46.4398 13.8728C46.3274 13.8345 46.2248 13.7712 46.1394 13.6876C46.0475 13.5957 45.9777 13.4835 45.9353 13.3597C45.8821 13.1985 45.8572 13.029 45.8619 12.859C45.8588 12.7001 45.8837 12.5418 45.9353 12.3917C45.9796 12.2649 46.0516 12.15 46.1458 12.0555C46.2381 11.9648 46.348 11.8948 46.4685 11.8498C46.6028 11.8011 46.7447 11.7772 46.8873 11.7794C47.0189 11.7783 47.1499 11.7978 47.2756 11.8373C47.3797 11.8693 47.4788 11.9161 47.57 11.9763C47.6137 12.0068 47.6511 12.0457 47.6803 12.0907C47.7089 12.1388 47.7231 12.1943 47.7213 12.2505V14.0646C47.7249 14.2013 47.6999 14.3372 47.6479 14.4633C47.6024 14.5695 47.5314 14.6623 47.4415 14.7334C47.3477 14.805 47.2405 14.8565 47.1265 14.8848C46.9988 14.917 46.8676 14.9325 46.736 14.9311C46.6091 14.9332 46.4826 14.9176 46.36 14.8848C46.2777 14.8634 46.1982 14.8323 46.123 14.7922C46.0646 14.7559 46.0216 14.6986 46.0027 14.6318C45.9838 14.5649 45.9903 14.4932 46.0209 14.4309C46.0399 14.395 46.0681 14.3649 46.1025 14.3439C46.1828 14.4015 46.2709 14.4469 46.3641 14.4786C46.4769 14.5194 46.5958 14.5398 46.7155 14.5388C46.8642 14.548 47.0117 14.5063 47.1343 14.4203C47.1868 14.3733 47.2276 14.3143 47.2535 14.2483C47.2794 14.1822 47.2896 14.1109 47.2833 14.04V13.8011ZM46.8622 13.5519C46.947 13.5543 47.0313 13.5385 47.1097 13.5056C47.1711 13.4788 47.2272 13.4408 47.2751 13.3935V12.2769C47.226 12.2453 47.1732 12.2202 47.1179 12.2023C47.0459 12.1789 46.9706 12.1676 46.895 12.1689C46.8167 12.1658 46.7386 12.1793 46.6658 12.2086C46.5929 12.238 46.527 12.2825 46.4721 12.3394C46.3542 12.4831 46.2963 12.6679 46.3108 12.8544C46.3083 12.9641 46.3227 13.0735 46.3536 13.1786C46.3774 13.2584 46.4178 13.332 46.4721 13.3944C46.5198 13.4479 46.5793 13.4892 46.6457 13.5148C46.7151 13.5405 46.7884 13.5528 46.8622 13.5519Z" fill="#CC0066"/>
<path d="M48.2823 11.1802C48.2813 11.1432 48.2874 11.1064 48.3004 11.0718C48.3134 11.0372 48.333 11.0056 48.358 10.9787C48.3835 10.9517 48.4144 10.9306 48.4486 10.9166C48.4827 10.9026 48.5194 10.8962 48.5562 10.8977C48.5924 10.8965 48.6284 10.903 48.6619 10.917C48.6953 10.931 48.7255 10.952 48.7504 10.9787C48.7991 11.0342 48.826 11.1059 48.826 11.1802C48.826 11.2545 48.7991 11.3262 48.7504 11.3817C48.7255 11.4084 48.6953 11.4294 48.6619 11.4434C48.6284 11.4573 48.5924 11.4639 48.5562 11.4627C48.5194 11.4642 48.4827 11.4577 48.4486 11.4438C48.4144 11.4298 48.3835 11.4086 48.358 11.3817C48.333 11.3548 48.3134 11.3232 48.3004 11.2886C48.2874 11.254 48.2813 11.2172 48.2823 11.1802ZM48.7809 13.9961C48.7537 14.0069 48.7257 14.0152 48.6971 14.0211C48.6574 14.0297 48.6169 14.0339 48.5763 14.0336C48.5102 14.0392 48.4444 14.0208 48.3904 13.9817C48.3687 13.9591 48.3522 13.932 48.342 13.9022C48.3318 13.8725 48.3281 13.8408 48.3311 13.8094V11.8554L48.4168 11.8328C48.4569 11.8226 48.4981 11.8178 48.5394 11.8184C48.6043 11.8131 48.6689 11.8315 48.7217 11.8703C48.7428 11.894 48.7588 11.9219 48.7687 11.9523C48.7785 11.9827 48.7819 12.0149 48.7786 12.0467L48.7809 13.9961Z" fill="#CC0066"/>
<path d="M49.9495 13.6077C50.0252 13.6576 50.1146 13.6816 50.2047 13.6763C50.2572 13.6758 50.3095 13.6682 50.3601 13.6536C50.4097 13.6404 50.4577 13.6216 50.5032 13.5976C50.5231 13.6237 50.5409 13.6514 50.5565 13.6805C50.5832 13.7345 50.5886 13.7967 50.5716 13.8546C50.5547 13.9125 50.5167 13.9617 50.4654 13.9922C50.36 14.0516 50.2401 14.0789 50.1199 14.0709C49.9352 14.0804 49.7529 14.0255 49.6031 13.9153C49.534 13.8516 49.4804 13.7723 49.4467 13.6839C49.413 13.5954 49.4001 13.5002 49.409 13.4058V11.2504C49.4387 11.2398 49.4692 11.2315 49.5001 11.2253C49.5404 11.2168 49.5815 11.2126 49.6227 11.2128C49.6866 11.2075 49.7504 11.2252 49.8027 11.2629C49.8238 11.2854 49.8398 11.3123 49.8497 11.3417C49.8595 11.3711 49.8629 11.4024 49.8597 11.4333V11.8899H50.5301C50.5434 11.9151 50.5544 11.9415 50.5629 11.9687C50.574 12.0035 50.5795 12.04 50.5793 12.0766C50.5793 12.2069 50.5261 12.2719 50.4198 12.2716H49.8597V13.3725C49.8551 13.4162 49.8609 13.4604 49.8768 13.5013C49.8927 13.5422 49.9181 13.5786 49.9508 13.6073" fill="#CC0066"/>
<path d="M51.7884 11.7782C52.0155 11.7655 52.2402 11.8308 52.4264 11.9635C52.509 12.0358 52.5735 12.1268 52.6147 12.2293C52.6559 12.3318 52.6726 12.4428 52.6634 12.5531V13.629C52.6672 13.6873 52.6511 13.7452 52.6178 13.7929C52.5823 13.8354 52.5411 13.8725 52.4953 13.9031C52.4051 13.9545 52.3089 13.9944 52.209 14.0217C52.0745 14.0586 51.9355 14.076 51.7961 14.0736C51.5659 14.0872 51.3375 14.0253 51.1444 13.8971C51.0662 13.8373 51.0039 13.7588 50.9628 13.6685C50.9218 13.5783 50.9034 13.4791 50.9093 13.3798C50.9042 13.2937 50.918 13.2076 50.9495 13.1275C50.981 13.0474 51.0295 12.9754 51.0916 12.9167C51.2422 12.7968 51.4255 12.7271 51.6166 12.717L52.2172 12.6504V12.5508C52.2221 12.4952 52.2135 12.4392 52.1921 12.3877C52.1707 12.3363 52.1373 12.291 52.0947 12.2558C51.9942 12.189 51.8754 12.1566 51.7556 12.1631C51.6435 12.1627 51.532 12.1794 51.4247 12.2127C51.3261 12.2427 51.2303 12.2817 51.1385 12.3289C51.1098 12.3018 51.0851 12.2706 51.0652 12.2363C51.0431 12.1989 51.0318 12.1559 51.0325 12.1123C51.0333 12.0687 51.046 12.0261 51.0692 11.9894C51.0993 11.9503 51.1387 11.9196 51.1836 11.9001C51.2711 11.8569 51.3638 11.8257 51.4594 11.8074C51.5678 11.7861 51.678 11.7757 51.7884 11.7764M51.7966 13.6952C51.8863 13.697 51.9758 13.6857 52.0623 13.6618C52.118 13.6481 52.1706 13.6241 52.2177 13.591V13.0056L51.7519 13.0556C51.6464 13.0628 51.544 13.0955 51.4534 13.151C51.4203 13.1764 51.3939 13.2098 51.3768 13.2483C51.3596 13.2867 51.3523 13.3289 51.3554 13.371C51.3536 13.4161 51.3623 13.4611 51.3808 13.5022C51.3992 13.5433 51.4269 13.5794 51.4616 13.6077C51.5606 13.6739 51.6785 13.7045 51.7966 13.6947" fill="#CC0066"/>
<path d="M53.5173 14.0328C53.4525 14.0374 53.3881 14.0191 53.335 13.981C53.3127 13.9587 53.2957 13.9317 53.285 13.9019C53.2744 13.8721 53.2704 13.8402 53.2735 13.8087V11.0094L53.3591 10.9868C53.3992 10.9766 53.4404 10.9717 53.4817 10.9724C53.5462 10.9678 53.6104 10.9853 53.664 11.022C53.6864 11.0437 53.7035 11.0704 53.7142 11.0999C53.7249 11.1295 53.7287 11.1611 53.7255 11.1924V13.9958C53.7009 14.0041 53.6705 14.0125 53.6344 14.0208C53.5955 14.0295 53.5558 14.0337 53.5159 14.0333" fill="#CC0066"/>
<path d="M55.7783 13.0402V13.9956C55.7475 14.0057 55.7161 14.0141 55.6844 14.0207C55.6441 14.0292 55.603 14.0334 55.5618 14.0332C55.4941 14.0391 55.4266 14.0199 55.3718 13.979C55.3501 13.9551 55.3337 13.9268 55.3234 13.896C55.3132 13.8652 55.3095 13.8326 55.3125 13.8002V11.4201C55.3098 11.3755 55.3246 11.3315 55.3536 11.2978C55.3844 11.2664 55.4222 11.2429 55.4639 11.2293C55.5684 11.1935 55.6767 11.1705 55.7865 11.1608C55.9081 11.1484 56.0238 11.1422 56.1338 11.1422C56.4331 11.1174 56.7306 11.2078 56.9673 11.3956C57.0583 11.4841 57.1295 11.5916 57.1761 11.7105C57.2226 11.8295 57.2434 11.9573 57.2371 12.0852C57.2428 12.2138 57.2217 12.3421 57.1752 12.4618C57.1287 12.5815 57.0579 12.6899 56.9673 12.7799C56.7412 12.9706 56.4509 13.0645 56.1579 13.0416L55.7783 13.0402ZM56.1338 12.6373C56.2996 12.6468 56.4635 12.5977 56.5977 12.4983C56.6556 12.4476 56.7011 12.3838 56.7305 12.3121C56.76 12.2404 56.7726 12.1627 56.7673 12.0852C56.7737 12.0092 56.7624 11.9328 56.7344 11.8621C56.7064 11.7913 56.6624 11.7283 56.6059 11.6781C56.4698 11.5837 56.3064 11.5384 56.142 11.5493C56.0794 11.5493 56.0153 11.5521 55.9497 11.5577C55.8906 11.5624 55.8318 11.5707 55.7738 11.5827V12.6377L56.1338 12.6373Z" fill="#CC0066"/>
<path d="M58.47 11.7787C58.6971 11.766 58.9219 11.8312 59.1081 11.964C59.1906 12.0362 59.2552 12.1273 59.2964 12.2298C59.3376 12.3323 59.3543 12.4433 59.3451 12.5536V13.6295C59.3488 13.6878 59.3327 13.7457 59.2995 13.7934C59.264 13.8359 59.2227 13.873 59.1769 13.9036C59.0867 13.955 58.9905 13.9949 58.8907 14.0222C58.7561 14.0591 58.6171 14.0765 58.4778 14.0741C58.2476 14.0877 58.0191 14.0258 57.8261 13.8976C57.7479 13.8378 57.6855 13.7593 57.6444 13.669C57.6034 13.5787 57.585 13.4795 57.5909 13.3803C57.5859 13.2942 57.5996 13.2081 57.6311 13.128C57.6626 13.0479 57.7111 12.9759 57.7732 12.9171C57.9238 12.7973 58.1072 12.7276 58.2982 12.7175L58.8989 12.6508V12.5513C58.9038 12.4956 58.8952 12.4397 58.8738 12.3882C58.8524 12.3368 58.8189 12.2914 58.7763 12.2562C58.6758 12.1895 58.5571 12.157 58.4372 12.1636C58.3251 12.1632 58.2136 12.1799 58.1063 12.2132C58.0078 12.2432 57.912 12.2821 57.8202 12.3294C57.7914 12.3023 57.7667 12.2711 57.7468 12.2368C57.7247 12.1993 57.7134 12.1564 57.7142 12.1128C57.7149 12.0691 57.7276 12.0266 57.7509 11.9899C57.781 11.9508 57.8203 11.9201 57.8653 11.9005C57.9527 11.8574 58.0454 11.8262 58.141 11.8079C58.2494 11.7866 58.3596 11.7762 58.47 11.7769M58.4782 13.6957C58.5679 13.6975 58.6574 13.6862 58.7439 13.6623C58.7996 13.6486 58.8523 13.6246 58.8993 13.5915V13.0061L58.4336 13.0561C58.328 13.0632 58.2256 13.0959 58.1351 13.1515C58.1019 13.1769 58.0755 13.2103 58.0584 13.2488C58.0413 13.2872 58.0339 13.3294 58.0371 13.3715C58.0353 13.4166 58.044 13.4616 58.0624 13.5027C58.0808 13.5438 58.1085 13.5799 58.1433 13.6082C58.2422 13.6743 58.3601 13.705 58.4782 13.6952" fill="#CC0066"/>
<path d="M60.3139 13.502C60.2404 13.3497 60.1512 13.1351 60.0464 12.8582C59.9416 12.5812 59.8415 12.2683 59.7461 11.9194C59.7753 11.8846 59.8107 11.8556 59.8505 11.8342C59.8923 11.8108 59.9394 11.7987 59.9872 11.799C60.0426 11.7963 60.0973 11.8126 60.1426 11.8453C60.1913 11.89 60.2254 11.9486 60.2406 12.0134C60.3196 12.2626 60.4007 12.5084 60.4839 12.7507C60.5672 12.9931 60.6591 13.2431 60.7597 13.5006H60.7761C60.8195 13.4008 60.8637 13.2852 60.9087 13.1537C60.9537 13.0221 60.9973 12.8823 61.0395 12.7341C61.0817 12.5859 61.122 12.4356 61.1603 12.2834C61.1985 12.1312 61.2326 11.9859 61.2623 11.8476C61.29 11.8337 61.3186 11.8219 61.348 11.8124C61.3825 11.8022 61.4183 11.7973 61.4542 11.7981C61.5109 11.7958 61.5668 11.8121 61.6137 11.8444C61.6361 11.8621 61.6538 11.8853 61.6651 11.9117C61.6765 11.9381 61.6813 11.9671 61.6789 11.9958C61.6723 12.1194 61.6524 12.242 61.6196 12.3612C61.5801 12.5246 61.5291 12.706 61.4665 12.9054C61.4039 13.1049 61.3324 13.3056 61.2519 13.5075C61.1713 13.7097 61.0902 13.8898 61.0085 14.0475C60.9 14.2666 60.7699 14.4739 60.6202 14.6663C60.5831 14.7236 60.5344 14.7721 60.4773 14.8086C60.4203 14.8451 60.3562 14.8688 60.2893 14.8779C60.2543 14.88 60.2193 14.8748 60.1863 14.8627C60.1533 14.8506 60.1231 14.8319 60.0975 14.8076C60.0497 14.7589 60.0179 14.6965 60.0063 14.6288C60.0597 14.58 60.1102 14.528 60.1576 14.4732C60.212 14.4114 60.2666 14.345 60.3212 14.274C60.3759 14.203 60.4283 14.1303 60.4785 14.0559C60.526 13.9862 60.5676 13.9126 60.6029 13.8359C60.5496 13.8162 60.5015 13.7846 60.462 13.7432C60.3993 13.6706 60.3489 13.5878 60.313 13.4982" fill="#CC0066"/>
<path d="M64.5154 12.2621C64.433 12.1962 64.3297 12.1632 64.225 12.1695C64.1468 12.1691 64.0693 12.1849 63.9972 12.2158C63.9236 12.2476 63.8558 12.2917 63.7967 12.3464C63.8022 12.3724 63.8063 12.3987 63.809 12.4252C63.8117 12.453 63.8131 12.4807 63.8131 12.5081V13.9952C63.7859 14.006 63.7578 14.0144 63.7292 14.0202C63.691 14.0287 63.652 14.0329 63.613 14.0327C63.5462 14.038 63.4797 14.0197 63.4248 13.9809C63.4026 13.9586 63.3857 13.9315 63.3751 13.9017C63.3645 13.8719 63.3606 13.8401 63.3637 13.8086V12.5581C63.3684 12.5037 63.3614 12.449 63.3431 12.3977C63.3248 12.3464 63.2955 12.2998 63.2575 12.2612C63.1752 12.1953 63.0719 12.1623 62.9672 12.1686C62.8894 12.1681 62.8121 12.1823 62.7393 12.2103C62.6763 12.2343 62.6161 12.2654 62.5598 12.3029V13.9975C62.5326 14.0084 62.5045 14.0167 62.4759 14.0225C62.4362 14.0312 62.3957 14.0354 62.3551 14.035C62.2903 14.0396 62.2259 14.0213 62.1729 13.9832C62.1506 13.9609 62.1335 13.9339 62.1229 13.9041C62.1122 13.8743 62.1083 13.8424 62.1114 13.8109V12.2909C62.1083 12.2309 62.1217 12.1712 62.1501 12.1186C62.1842 12.0669 62.2279 12.0224 62.2786 11.9875C62.4896 11.854 62.7328 11.7822 62.9813 11.78C63.1054 11.7778 63.2289 11.7982 63.3459 11.8402C63.447 11.8769 63.538 11.9373 63.6116 12.0167C63.6973 11.9463 63.793 11.8896 63.8955 11.8486C64.0186 11.8005 64.1497 11.7772 64.2816 11.78C64.3896 11.7793 64.4971 11.7949 64.6005 11.8263C64.6933 11.8537 64.7791 11.9011 64.8521 11.9653C64.9238 12.0307 64.9803 12.1116 65.0176 12.2019C65.061 12.3107 65.0819 12.4273 65.0791 12.5447V13.9985C65.0491 14.0084 65.0187 14.0167 64.988 14.0235C64.9498 14.032 64.9108 14.0361 64.8718 14.036C64.8069 14.0405 64.7425 14.0222 64.6894 13.9841C64.6672 13.9618 64.6501 13.9348 64.6395 13.905C64.6288 13.8752 64.6249 13.8434 64.6279 13.8118V12.5613C64.6328 12.507 64.6259 12.4521 64.6075 12.4008C64.5891 12.3495 64.5599 12.3029 64.5217 12.2645" fill="#CC0066"/>
<path d="M66.0233 13.1696C66.0495 13.3244 66.1328 13.4632 66.2561 13.5577C66.3892 13.6467 66.5463 13.691 66.7055 13.6842C66.8179 13.6856 66.9296 13.6651 67.0345 13.624C67.1201 13.5911 67.2018 13.5485 67.2779 13.4971C67.3152 13.5168 67.3464 13.5466 67.368 13.5832C67.3896 13.6198 67.4009 13.6618 67.4005 13.7045C67.4 13.7585 67.3797 13.8104 67.3435 13.85C67.2999 13.8984 67.247 13.9374 67.1881 13.9644C67.1153 13.9988 67.0389 14.0246 66.9603 14.0412C66.7153 14.0917 66.4616 14.0758 66.2247 13.9949C66.0929 13.948 65.973 13.8721 65.8733 13.7726C65.7718 13.6694 65.6939 13.5446 65.6455 13.4072C65.5898 13.2464 65.5628 13.0769 65.5657 12.9065C65.5626 12.7406 65.5882 12.5754 65.6413 12.4184C65.6863 12.2876 65.7581 12.1679 65.8519 12.0673C65.9413 11.9735 66.0492 11.9 66.1686 11.8515C66.2915 11.8014 66.4227 11.7761 66.5551 11.7769C66.6846 11.7752 66.813 11.7999 66.9329 11.8497C67.0428 11.8955 67.1424 11.9634 67.2256 12.0495C67.3089 12.1356 67.3741 12.2379 67.4173 12.3503C67.4646 12.4719 67.4881 12.6017 67.4866 12.7324C67.4893 12.763 67.486 12.7938 67.4768 12.8231C67.4677 12.8523 67.4529 12.8794 67.4333 12.9028C67.3915 12.942 67.3385 12.9666 67.282 12.9732L66.0233 13.1696ZM66.5546 12.1507C66.4806 12.149 66.4071 12.1634 66.3391 12.1932C66.271 12.2229 66.2101 12.2672 66.1604 12.323C66.0478 12.4593 65.9888 12.6332 65.995 12.8111L67.0573 12.649C67.0499 12.5189 67.0003 12.3948 66.9165 12.2961C66.8705 12.2463 66.8143 12.2074 66.7518 12.1823C66.6893 12.1572 66.6217 12.1464 66.5546 12.1507Z" fill="#CC0066"/>
<path d="M69.1943 12.2747C69.1034 12.2 68.9884 12.1622 68.8717 12.1687C68.7801 12.1672 68.6889 12.1813 68.6019 12.2103C68.5311 12.2348 68.4628 12.2658 68.3977 12.303V13.9976C68.3705 14.0085 68.3425 14.0168 68.3138 14.0226C68.2742 14.0313 68.2337 14.0355 68.1931 14.0351C68.1282 14.0397 68.0638 14.0214 68.0108 13.9833C67.9885 13.961 67.9715 13.934 67.9608 13.9042C67.9502 13.8744 67.9462 13.8425 67.9492 13.811V12.2909C67.9464 12.231 67.9598 12.1714 67.988 12.1186C68.0223 12.0669 68.0661 12.0224 68.117 11.9876C68.2175 11.9301 68.3237 11.8835 68.4337 11.8486C68.5757 11.8025 68.7241 11.7801 68.8731 11.7824C69.1082 11.7688 69.3405 11.8401 69.5288 11.9839C69.6117 12.0601 69.6764 12.1545 69.7178 12.26C69.7593 12.3655 69.7765 12.4792 69.7681 12.5924V14.0004C69.7394 14.0107 69.71 14.0191 69.6802 14.0254C69.6406 14.034 69.6003 14.0382 69.5598 14.0379C69.495 14.0425 69.4306 14.0241 69.3775 13.986C69.3554 13.9638 69.3384 13.9367 69.3278 13.9069C69.3172 13.8771 69.3133 13.8453 69.3164 13.8137V12.6096C69.3216 12.5491 69.3136 12.4882 69.2931 12.4312C69.2727 12.3741 69.2402 12.3223 69.198 12.2794" fill="#CC0066"/>
<path d="M70.9085 13.6077C70.9842 13.6576 71.0737 13.6816 71.1637 13.6763C71.2163 13.6759 71.2686 13.6682 71.3191 13.6536C71.3687 13.6404 71.4167 13.6216 71.4622 13.5976C71.4821 13.6237 71.5 13.6514 71.5155 13.6805C71.5423 13.7344 71.5477 13.7968 71.5308 13.8547C71.5139 13.9126 71.4758 13.9618 71.4244 13.9922C71.319 14.0516 71.1991 14.0789 71.0789 14.0709C70.8943 14.0804 70.7119 14.0255 70.5621 13.9153C70.493 13.8516 70.4394 13.7724 70.4057 13.6839C70.372 13.5955 70.3591 13.5002 70.368 13.4058V11.2504C70.3977 11.2398 70.4282 11.2315 70.4592 11.2253C70.4995 11.2168 70.5405 11.2126 70.5817 11.2128C70.6456 11.2075 70.7094 11.2252 70.7617 11.2629C70.7829 11.2853 70.799 11.3122 70.8089 11.3417C70.8188 11.3711 70.8223 11.4024 70.8191 11.4333V11.8899H71.4896C71.503 11.9151 71.514 11.9414 71.5224 11.9687C71.5335 12.0035 71.5391 12.04 71.5388 12.0766C71.5388 12.2069 71.4856 12.2719 71.3792 12.2716H70.8191V13.3725C70.8145 13.4162 70.8204 13.4604 70.8363 13.5013C70.8522 13.5422 70.8776 13.5786 70.9103 13.6073" fill="#CC0066"/>
<path d="M73.5054 13.41C73.5095 13.5022 73.4922 13.594 73.4549 13.678C73.4176 13.7621 73.3614 13.8361 73.2908 13.894C73.1089 14.0236 72.8889 14.0859 72.6673 14.0705C72.5618 14.0713 72.4565 14.0615 72.3529 14.0413C72.2695 14.0259 72.1884 13.9994 72.1118 13.9626C72.0523 13.934 71.9996 13.8929 71.9568 13.8421C71.9201 13.7996 71.8998 13.745 71.8994 13.6884C71.8993 13.6442 71.9098 13.6006 71.93 13.5615C71.9507 13.5208 71.9823 13.487 72.0211 13.4638C72.1072 13.5231 72.1988 13.5738 72.2945 13.6152C72.4085 13.6629 72.5309 13.6863 72.6541 13.6837C72.7583 13.6906 72.8621 13.6661 72.9526 13.6133C72.9854 13.5913 73.0121 13.561 73.03 13.5254C73.0479 13.4897 73.0564 13.45 73.0547 13.41C73.0564 13.376 73.0512 13.3419 73.0393 13.31C73.0273 13.2781 73.009 13.2491 72.9854 13.2248C72.9258 13.1721 72.8539 13.1356 72.7767 13.1187L72.4823 13.0358C72.3224 12.9989 72.1746 12.9209 72.053 12.8093C72.0055 12.7566 71.969 12.6947 71.9455 12.6273C71.922 12.5599 71.9121 12.4884 71.9163 12.4171C71.9158 12.3303 71.934 12.2445 71.9696 12.1656C72.0049 12.0869 72.0573 12.0174 72.1227 11.9623C72.1973 11.9013 72.2827 11.8556 72.3743 11.8275C72.4854 11.7927 72.6012 11.7758 72.7174 11.7775C72.8135 11.7764 72.9094 11.7854 73.0037 11.8043C73.079 11.8194 73.1524 11.8432 73.2224 11.8752C73.2776 11.8995 73.3266 11.9364 73.3655 11.9831C73.398 12.0219 73.4161 12.0711 73.4166 12.122C73.4175 12.1656 73.4069 12.2086 73.386 12.2466C73.3671 12.2807 73.3413 12.3104 73.3104 12.3337C73.2357 12.2907 73.1579 12.2539 73.0775 12.2235C72.9733 12.1827 72.8624 12.1623 72.7507 12.1633C72.6511 12.1575 72.5519 12.1804 72.4645 12.2295C72.4374 12.2468 72.4143 12.27 72.3969 12.2974C72.3795 12.3247 72.3682 12.3557 72.3639 12.3879C72.3595 12.4202 72.3622 12.4531 72.3717 12.4842C72.3812 12.5153 72.3974 12.5439 72.419 12.568C72.4761 12.6181 72.5453 12.6518 72.6195 12.6658L72.8729 12.7325C73.051 12.7746 73.216 12.861 73.3532 12.9839C73.4057 13.0407 73.4464 13.1076 73.4727 13.1808C73.4991 13.2539 73.5105 13.3318 73.5063 13.4096" fill="#CC0066"/>
<path d="M11.1262 6.87842V14.9866C11.1262 15.5174 10.9659 16.0354 10.6671 16.4707C10.3682 16.9061 9.94516 17.2377 9.45496 17.4209L2.17866 20.1405C2.06414 20.1834 1.94111 20.1976 1.82005 20.1817C1.69898 20.1659 1.58347 20.1206 1.48335 20.0497C1.38324 19.9787 1.30147 19.8842 1.24503 19.7742C1.18859 19.6642 1.15913 19.542 1.15918 19.418V12.538C1.15941 12.1242 1.28432 11.7205 1.51709 11.381C1.74986 11.0415 2.07934 10.7826 2.46122 10.6391L9.18654 8.1113C10.2479 7.67456 10.6627 7.40732 11.1266 6.88073" fill="white"/>
<path d="M17.5237 8.93031C17.5161 9.23179 17.396 9.51908 17.1879 9.73404C16.9798 9.949 16.699 10.0756 16.4025 10.0882H14.8776C14.7897 10.0903 14.7046 10.0568 14.6409 9.99517C14.5772 9.93351 14.5403 9.84869 14.5381 9.75934V6.38396C14.5374 6.33919 14.5456 6.29473 14.5622 6.25324C14.5787 6.21174 14.6033 6.17404 14.6345 6.14238C14.6656 6.11071 14.7027 6.08573 14.7435 6.06891C14.7844 6.0521 14.8281 6.04379 14.8722 6.04447H16.3438C16.5639 6.0563 16.7759 6.13277 16.9541 6.26459C17.1323 6.39642 17.2691 6.57795 17.3478 6.78717C17.4265 6.9964 17.4438 7.22434 17.3976 7.44337C17.3514 7.6624 17.2437 7.86311 17.0875 8.02117C17.2221 8.13031 17.3311 8.26852 17.4066 8.42576C17.4821 8.583 17.5218 8.75535 17.5237 8.93031ZM15.1853 7.72614L16.2686 7.71503C16.4001 7.71063 16.5252 7.65555 16.6182 7.56094C16.7113 7.46634 16.7655 7.33929 16.7699 7.20557C16.7691 7.07695 16.7192 6.95367 16.6307 6.86173C16.5422 6.76979 16.422 6.71639 16.2954 6.71279H15.1853V7.72614ZM16.856 8.93031C16.847 8.79402 16.7885 8.66598 16.692 8.57094C16.5954 8.4759 16.4676 8.42061 16.3333 8.41576H15.2122V9.42865H16.3652C16.4939 9.42448 16.6163 9.37064 16.7074 9.27807C16.7985 9.1855 16.8514 9.06116 16.8555 8.93031" fill="white"/>
<path d="M20.1763 8.41572H19.686V9.75883C19.684 9.84724 19.6479 9.93131 19.5853 9.99279C19.5228 10.0543 19.4389 10.0882 19.3519 10.0872C19.2662 10.087 19.1841 10.0523 19.1235 9.99078C19.0629 9.92927 19.0287 9.84589 19.0283 9.75883V6.3728C19.031 6.28467 19.0675 6.20108 19.1298 6.13977C19.1922 6.07847 19.2756 6.04427 19.3624 6.04443H20.5423C20.8457 6.05117 21.1349 6.17592 21.3505 6.39298C21.566 6.61004 21.6914 6.90286 21.7008 7.21109C21.6951 7.45967 21.6153 7.70065 21.4719 7.90212C21.3285 8.10359 21.1283 8.25605 20.8978 8.3393L21.647 9.58238C21.6907 9.65893 21.7033 9.74975 21.6822 9.8356C21.6611 9.92145 21.6079 9.99558 21.534 10.0423C21.4827 10.0709 21.4252 10.086 21.3667 10.0863C21.3106 10.0862 21.2553 10.0716 21.2063 10.0438C21.1572 10.016 21.116 9.97595 21.0864 9.92742L20.1763 8.41572ZM21.0495 7.21619C21.0434 7.07884 20.9847 6.94934 20.8861 6.85524C20.7875 6.76114 20.6566 6.70985 20.5213 6.71229H19.686V7.74741H20.5213C20.6605 7.74754 20.7941 7.69179 20.893 7.59229C20.9919 7.4928 21.0482 7.35762 21.0495 7.21619Z" fill="white"/>
<path d="M25.4836 10.0865C24.9581 10.0807 24.4562 9.86377 24.0876 9.48304C23.719 9.1023 23.5137 8.58876 23.5166 8.05467C23.5235 7.66145 23.6444 7.27904 23.8643 6.95541C24.0842 6.63178 24.3932 6.38135 24.7526 6.23555C25.112 6.08974 25.5058 6.05505 25.8846 6.13584C26.2633 6.21662 26.6101 6.40927 26.8815 6.68962C27.153 6.96997 27.3368 7.32553 27.4101 7.7117C27.4834 8.09786 27.4429 8.49742 27.2936 8.86024C27.1442 9.22307 26.8928 9.533 26.5708 9.75115C26.2488 9.9693 25.8706 10.086 25.4836 10.0865ZM24.1524 8.05467C24.1528 8.3228 24.2315 8.58478 24.3785 8.80746C24.5255 9.03015 24.7341 9.20354 24.9781 9.30571C25.222 9.40787 25.4903 9.43422 25.749 9.38143C26.0077 9.32864 26.2451 9.19907 26.4313 9.00911C26.6176 8.81916 26.7442 8.57734 26.7951 8.31426C26.8461 8.05118 26.8192 7.77864 26.7177 7.53112C26.6163 7.2836 26.4449 7.07221 26.2252 6.92369C26.0055 6.77517 25.7474 6.69619 25.4836 6.69673C25.1307 6.70025 24.7934 6.84461 24.5443 7.09866C24.2953 7.35271 24.1545 7.69607 24.1524 8.05467Z" fill="white"/>
<path d="M32.1004 10.0594C32.0587 10.0759 32.0142 10.0837 31.9694 10.0824C31.9247 10.0811 31.8806 10.0707 31.8399 10.0518C31.7992 10.0329 31.7626 10.0058 31.7324 9.97229C31.7022 9.93875 31.6788 9.89938 31.6638 9.85651L30.7524 7.35554L29.8363 9.85651C29.8224 9.89949 29.7999 9.9391 29.7702 9.97289C29.7406 10.0067 29.7045 10.0339 29.6641 10.0529C29.6236 10.072 29.5798 10.0823 29.5353 10.0834C29.4908 10.0845 29.4465 10.0764 29.4052 10.0594C29.3627 10.0446 29.3236 10.0211 29.2903 9.99048C29.2571 9.95983 29.2303 9.92262 29.2116 9.88111C29.1929 9.8396 29.1828 9.79465 29.1817 9.74902C29.1807 9.70339 29.1888 9.65802 29.2056 9.61568L30.4233 6.25836C30.4489 6.19128 30.4942 6.13378 30.5529 6.09362C30.6117 6.05346 30.6811 6.03256 30.7519 6.03374C30.8224 6.03408 30.8912 6.05559 30.9496 6.09556C31.0081 6.13552 31.0536 6.19217 31.0805 6.25836L32.2982 9.61568C32.315 9.65799 32.3232 9.70333 32.3222 9.74894C32.3212 9.79455 32.311 9.83948 32.2924 9.88098C32.2738 9.92249 32.247 9.95971 32.2138 9.99038C32.1805 10.021 32.1415 10.0445 32.0991 10.0594" fill="white"/>
<path d="M33.6582 9.75785V6.38895C33.6603 6.30253 33.695 6.22023 33.7551 6.1591C33.8153 6.09798 33.8963 6.0627 33.9813 6.06058H34.7843C35.0735 6.05886 35.3599 6.11849 35.6252 6.23565C35.8801 6.3493 36.1079 6.51737 36.2933 6.72843C36.4782 6.94184 36.6162 7.19292 36.698 7.46487C36.7799 7.73683 36.8036 8.0234 36.7677 8.30543C36.7083 8.79518 36.4752 9.2461 36.1121 9.57374C35.749 9.90138 35.2808 10.0833 34.7953 10.0853H33.9818C33.8967 10.0832 33.8157 10.0479 33.7556 9.98677C33.6954 9.92564 33.6607 9.84334 33.6586 9.75692M36.116 8.22855C36.1445 8.0394 36.1317 7.84621 36.0786 7.66262C36.0256 7.47903 35.9335 7.30953 35.8088 7.1661C35.6799 7.02047 35.5219 6.90457 35.3452 6.8262C35.1686 6.74783 34.9775 6.70881 34.7848 6.71176H34.3053V9.42809H34.7957C35.1226 9.42825 35.4381 9.30601 35.6819 9.08473C35.9257 8.86346 36.0807 8.55865 36.1174 8.22855" fill="white"/>
<path d="M39.9688 9.52218C39.8075 9.76977 39.559 9.94519 39.2744 10.0124C38.9898 10.0796 38.6906 10.0334 38.4385 9.88343C38.3611 9.83577 38.304 9.76061 38.2781 9.67254C38.2523 9.58447 38.2596 9.48978 38.2985 9.40686C38.3571 9.33814 38.4389 9.29435 38.5278 9.28423C38.6166 9.2741 38.706 9.29837 38.778 9.35221C38.8897 9.41384 39.0203 9.43004 39.1433 9.39754C39.2663 9.36504 39.3726 9.28626 39.4406 9.17714C39.4782 9.12035 39.5044 9.05659 39.5177 8.9895C39.531 8.92242 39.5312 8.85332 39.5182 8.78617C39.5052 8.71902 39.4793 8.65514 39.442 8.59817C39.4047 8.5412 39.3567 8.49227 39.3007 8.45417C39.0369 8.2842 39.0273 8.27911 38.7725 8.10913C38.5203 7.9428 38.3434 7.68146 38.2807 7.38259C38.2181 7.08373 38.2748 6.77182 38.4385 6.51546C38.6014 6.2699 38.8498 6.09612 39.1337 6.02902C39.4176 5.96193 39.716 6.00648 39.9688 6.15375C40.0436 6.19816 40.0988 6.27007 40.1229 6.35464C40.1469 6.4392 40.1382 6.52994 40.0983 6.60809C40.0448 6.6797 39.9663 6.72765 39.8789 6.74196C39.7916 6.75628 39.7022 6.73587 39.6293 6.68497C39.5127 6.62464 39.3778 6.61203 39.2523 6.64973C39.1269 6.68742 39.0204 6.77256 38.9548 6.88762C38.8892 7.00267 38.8696 7.1389 38.8998 7.26825C38.9301 7.39761 39.008 7.51025 39.1175 7.583C39.2542 7.67054 39.2542 7.67054 39.6403 7.92804C39.7649 8.01068 39.8723 8.11747 39.9562 8.24232C40.0402 8.36717 40.0992 8.50762 40.1297 8.65564C40.1602 8.80366 40.1617 8.95634 40.1341 9.10495C40.1065 9.25356 40.0504 9.39565 39.9688 9.52218Z" fill="white"/>
<path d="M43.6067 8.40611C43.3053 8.42786 43.0029 8.43157 42.7011 8.41723V9.76034C42.6992 9.84875 42.6631 9.93282 42.6005 9.9943C42.538 10.0558 42.4541 10.0897 42.3671 10.0887C42.2815 10.0883 42.1995 10.0536 42.139 9.99212C42.0785 9.93062 42.0443 9.84731 42.044 9.76034V6.38357C42.0434 6.34029 42.0514 6.29734 42.0674 6.25725C42.0835 6.21716 42.1073 6.18073 42.1374 6.15013C42.1675 6.11953 42.2033 6.09536 42.2428 6.07906C42.2822 6.06275 42.3245 6.05464 42.3671 6.0552H43.5743C43.8752 6.06473 44.1608 6.1919 44.3716 6.41021C44.5824 6.62851 44.7022 6.9211 44.7059 7.22695C44.701 7.52742 44.5854 7.81509 44.3819 8.03309C44.1783 8.25109 43.9017 8.38354 43.6067 8.40426M43.5315 6.7124H42.7016V7.74752H43.5315C43.6704 7.74669 43.8034 7.69063 43.9022 7.59134C44.0009 7.49205 44.0574 7.35743 44.0597 7.2163C44.0526 7.07927 43.9937 6.95032 43.8953 6.85641C43.7969 6.7625 43.6665 6.7109 43.5315 6.7124Z" fill="white"/>
<path d="M46.4307 9.75796V6.37332C46.431 6.28634 46.4652 6.20303 46.5257 6.14153C46.5862 6.08003 46.6682 6.04531 46.7538 6.04495H48.6952C48.7823 6.04383 48.8662 6.07772 48.9288 6.13922C48.9914 6.20073 49.0275 6.28487 49.0293 6.37332C49.0288 6.4632 48.9934 6.54927 48.9309 6.61283C48.8684 6.67639 48.7837 6.71231 48.6952 6.7128H47.0892V7.74792H48.3019C48.3445 7.74736 48.3868 7.75547 48.4262 7.77178C48.4657 7.78808 48.5015 7.81225 48.5316 7.84285C48.5617 7.87345 48.5855 7.90988 48.6016 7.94997C48.6176 7.99006 48.6256 8.03301 48.625 8.07629C48.6257 8.11961 48.6177 8.16261 48.6017 8.20275C48.5857 8.2429 48.5619 8.27938 48.5318 8.31003C48.5017 8.34068 48.4658 8.36489 48.4263 8.38122C48.3868 8.39756 48.3446 8.40568 48.3019 8.40512H47.0892V9.41801H48.6952C48.7837 9.4185 48.8684 9.45442 48.9309 9.51798C48.9934 9.58154 49.0288 9.66761 49.0293 9.75749C49.0274 9.8459 48.9912 9.92998 48.9287 9.99146C48.8661 10.0529 48.7822 10.0869 48.6952 10.0859H46.7552C46.6696 10.0855 46.5876 10.0508 46.5271 9.98928C46.4666 9.92778 46.4324 9.84447 46.432 9.75749" fill="white"/>
<path d="M54.0992 9.64851C53.7561 9.92588 53.3304 10.0765 52.8919 10.0755C52.3645 10.0755 51.8587 9.86261 51.4858 9.48362C51.1129 9.10462 50.9033 8.59059 50.9033 8.05461C50.9033 7.51863 51.1129 7.0046 51.4858 6.6256C51.8587 6.24661 52.3645 6.03369 52.8919 6.03369C53.2502 6.03418 53.6012 6.13671 53.9051 6.32964C53.9432 6.34981 53.977 6.37762 54.0043 6.4114C54.0317 6.44518 54.052 6.48423 54.0641 6.5262C54.0762 6.56817 54.0798 6.61219 54.0747 6.65562C54.0696 6.69904 54.0559 6.74097 54.0345 6.77889C54.0126 6.81643 53.9833 6.84899 53.9485 6.87452C53.9137 6.90005 53.8741 6.918 53.8321 6.92726C53.7901 6.93652 53.7467 6.93689 53.7046 6.92833C53.6625 6.91977 53.6226 6.90248 53.5874 6.87754C53.3772 6.75063 53.1369 6.68434 52.8924 6.68579C52.7176 6.68579 52.5446 6.72079 52.3831 6.78879C52.2216 6.85679 52.0749 6.95645 51.9514 7.08209C51.8279 7.20772 51.7299 7.35687 51.6631 7.521C51.5963 7.68512 51.562 7.86102 51.5621 8.03863C51.5561 8.29302 51.6208 8.54396 51.7488 8.76266C51.8768 8.98136 52.0628 9.15894 52.2857 9.27501C52.5085 9.39109 52.759 9.44094 53.0084 9.41886C53.2579 9.39678 53.4961 9.30365 53.6959 9.15017C53.7272 9.1229 53.7636 9.10223 53.8028 9.08939C53.8421 9.07654 53.8835 9.07176 53.9246 9.07534C53.9657 9.07892 54.0057 9.09078 54.0422 9.11023C54.0788 9.12967 54.1111 9.15632 54.1375 9.18861C54.1923 9.25477 54.2191 9.34031 54.212 9.4265C54.2049 9.5127 54.1645 9.59253 54.0997 9.64851" fill="white"/>
<path d="M58.5874 6.36795C58.5874 6.41087 58.579 6.45337 58.5627 6.49298C58.5464 6.53259 58.5226 6.56852 58.4925 6.59868C58.4624 6.62884 58.4268 6.65263 58.3876 6.66867C58.3484 6.68472 58.3065 6.6927 58.2643 6.69214H57.4727V9.75907C57.4727 9.84548 57.4389 9.92836 57.3788 9.98946C57.3186 10.0506 57.2371 10.0849 57.1521 10.0849C57.067 10.0849 56.9855 10.0506 56.9253 9.98946C56.8652 9.92836 56.8314 9.84548 56.8314 9.75907V6.69122H56.0394C55.9543 6.69122 55.8728 6.65689 55.8127 6.59579C55.7525 6.53469 55.7188 6.45181 55.7188 6.3654C55.7188 6.27898 55.7525 6.19611 55.8127 6.13501C55.8728 6.0739 55.9543 6.03958 56.0394 6.03958H58.2647C58.3073 6.03902 58.3496 6.04713 58.389 6.06343C58.4285 6.07974 58.4643 6.1039 58.4944 6.13451C58.5245 6.16511 58.5483 6.20153 58.5644 6.24162C58.5804 6.28172 58.5879 6.32467 58.5874 6.36795Z" fill="white"/>
<path d="M61.3531 8.41572H60.8627V9.75883C60.8608 9.84724 60.8246 9.93131 60.7621 9.99279C60.6995 10.0543 60.6156 10.0882 60.5286 10.0872C60.443 10.087 60.3609 10.0523 60.3003 9.99078C60.2396 9.92927 60.2054 9.84589 60.2051 9.75883V6.3728C60.2078 6.28467 60.2442 6.20108 60.3066 6.13977C60.3689 6.07847 60.4524 6.04427 60.5391 6.04443H61.7195C62.0229 6.05117 62.3121 6.17592 62.5277 6.39298C62.7432 6.61004 62.8686 6.90286 62.878 7.21109C62.8723 7.45967 62.7926 7.70065 62.6492 7.90212C62.5058 8.10359 62.3055 8.25605 62.075 8.3393L62.8242 9.58238C62.8678 9.65898 62.8804 9.74985 62.8592 9.83571C62.838 9.92156 62.7847 9.99566 62.7107 10.0423C62.6594 10.0709 62.602 10.086 62.5435 10.0863C62.4873 10.0862 62.4321 10.0716 62.383 10.0438C62.334 10.016 62.2927 9.97595 62.2632 9.92742L61.3531 8.41572ZM62.2262 7.21619C62.2201 7.07884 62.1615 6.94934 62.0629 6.85524C61.9642 6.76114 61.8333 6.70985 61.6981 6.71229H60.8627V7.74741H61.6981C61.8373 7.74754 61.9708 7.69179 62.0698 7.59229C62.1687 7.4928 62.2249 7.35762 62.2262 7.21619Z" fill="white"/>
<path d="M67.6035 6.36736V8.60712C67.6069 8.80349 67.5718 8.99858 67.5002 9.18102C67.4286 9.36345 67.322 9.52957 67.1866 9.66967C67.0511 9.80977 66.8896 9.92105 66.7114 9.99701C66.5331 10.073 66.3418 10.1121 66.1485 10.1121C65.9553 10.1121 65.7639 10.073 65.5857 9.99701C65.4075 9.92105 65.2459 9.80977 65.1105 9.66967C64.9751 9.52957 64.8684 9.36345 64.7968 9.18102C64.7253 8.99858 64.6902 8.80349 64.6936 8.60712V6.36736C64.6936 6.27874 64.7282 6.19374 64.7899 6.13108C64.8516 6.06841 64.9352 6.0332 65.0224 6.0332C65.1096 6.0332 65.1932 6.06841 65.2549 6.13108C65.3166 6.19374 65.3512 6.27874 65.3512 6.36736V8.60712C65.3512 8.82355 65.4358 9.03111 65.5864 9.18415C65.737 9.33719 65.9412 9.42317 66.1542 9.42317C66.3672 9.42317 66.5714 9.33719 66.722 9.18415C66.8726 9.03111 66.9573 8.82355 66.9573 8.60712V6.36736C66.9567 6.32408 66.9647 6.28113 66.9807 6.24104C66.9968 6.20095 67.0205 6.16453 67.0507 6.13392C67.0808 6.10332 67.1166 6.07915 67.156 6.06285C67.1955 6.04655 67.2378 6.03843 67.2804 6.03899C67.3229 6.03843 67.3652 6.04655 67.4046 6.06285C67.4441 6.07915 67.48 6.10332 67.5101 6.13392C67.5402 6.16453 67.564 6.20095 67.58 6.24104C67.596 6.28113 67.604 6.32408 67.6035 6.36736Z" fill="white"/>
<path d="M73.407 9.68652C73.4186 9.72682 73.422 9.7691 73.4171 9.8108C73.4122 9.85251 73.3991 9.89277 73.3784 9.92914C73.3578 9.96552 73.33 9.99725 73.2969 10.0224C73.2638 10.0476 73.2261 10.0657 73.1859 10.0756H73.1695C73.1641 10.0756 73.164 10.0756 73.159 10.0867H73.1212C73.0458 10.086 72.9729 10.059 72.9148 10.0102C72.8567 9.96134 72.817 9.89365 72.8022 9.81851L72.3601 7.62785L71.5466 9.84584C71.525 9.91277 71.4832 9.97106 71.427 10.0124C71.3709 10.0537 71.3033 10.076 71.234 10.076C71.1647 10.076 71.0971 10.0537 71.041 10.0124C70.9848 9.97106 70.943 9.91277 70.9214 9.84584L70.2045 7.73206L69.8272 9.81851C69.8152 9.89548 69.7764 9.96551 69.7178 10.0158C69.6592 10.066 69.5848 10.0932 69.5081 10.0922C69.4917 10.0922 69.4703 10.0867 69.4543 10.0867C69.411 10.0803 69.3698 10.0642 69.3334 10.0395C69.2971 10.0148 69.2666 9.9822 69.2442 9.94402C69.2182 9.91046 69.1999 9.87143 69.1906 9.82977C69.1813 9.78811 69.1813 9.74487 69.1904 9.70319L69.7455 6.3079C69.7594 6.23399 69.7971 6.16689 69.8527 6.11729C69.9084 6.0677 69.9788 6.03844 70.0527 6.03418H70.0796C70.1491 6.03414 70.2169 6.05654 70.2731 6.09816C70.3293 6.13978 70.371 6.19847 70.3923 6.26575L71.2435 8.7028L72.1327 6.25463C72.1535 6.18913 72.1947 6.13231 72.2502 6.09277C72.3056 6.05324 72.3722 6.03316 72.4399 6.03557H72.4563C72.5298 6.03606 72.6008 6.06341 72.6562 6.11264C72.7116 6.16186 72.7477 6.22969 72.758 6.30373L73.407 9.68652Z" fill="white"/>
</g>
</svg>
