<svg width="75" height="21" viewBox="0 0 75 21" fill="none" xmlns="http://www.w3.org/2000/svg">
<mask id="mask0_2057_110152" style="mask-type:luminance" maskUnits="userSpaceOnUse" x="0" y="0" width="75" height="21">
<path d="M74.3673 0.375H0.366699V20.151H74.3673V0.375Z" fill="white"/>
</mask>
<g mask="url(#mask0_2057_110152)">
<path d="M8.40553 3.36822L1.65048 0.450862C1.51017 0.390174 1.35726 0.365777 1.20541 0.379852C1.05355 0.393927 0.907504 0.446035 0.78032 0.531515C0.653136 0.616995 0.548786 0.733181 0.476605 0.869679C0.404424 1.00618 0.366662 1.15873 0.366699 1.31369V8.82207C0.366695 8.98172 0.404755 9.13899 0.477623 9.28042C0.550491 9.42185 0.655996 9.54322 0.785108 9.63417C0.914219 9.72511 1.06309 9.7829 1.21898 9.8026C1.37487 9.8223 1.53314 9.80331 1.68023 9.74727L6.16206 8.03958L1.3064 5.98363C1.23687 5.95095 1.18251 5.89218 1.15472 5.81963C1.12693 5.74709 1.12787 5.66643 1.15735 5.59458C1.18684 5.52273 1.24257 5.46529 1.31284 5.4343C1.38311 5.40332 1.46246 5.40121 1.53423 5.42842L6.97436 7.73055L8.50364 7.14745C11.1205 6.22509 11.2567 4.38225 8.406 3.36727M9.04579 5.75635C9.01558 5.8298 8.95795 5.8881 8.88553 5.91847C8.81312 5.94885 8.73181 5.94883 8.6594 5.91842L1.19574 2.75961C1.15986 2.74444 1.12728 2.72223 1.09985 2.69426C1.07242 2.6663 1.05068 2.63311 1.03588 2.59661C1.00597 2.52288 1.0061 2.44009 1.03625 2.36647C1.0664 2.29284 1.1241 2.2344 1.19665 2.20401C1.2692 2.17361 1.35066 2.17375 1.42311 2.20439L8.88631 5.36415C8.92225 5.3793 8.9549 5.40152 8.98238 5.42952C9.00986 5.45752 9.03163 5.49075 9.04645 5.52732C9.06126 5.56388 9.06883 5.60306 9.06872 5.64261C9.06861 5.68215 9.06082 5.72129 9.04579 5.75776" fill="#CC0066"/>
<path d="M44.6294 12.3873C44.6338 12.6134 44.5991 12.8386 44.5271 13.0526C44.4663 13.23 44.3673 13.3914 44.2374 13.5251C44.1104 13.6521 43.9564 13.7478 43.7873 13.8048C43.5989 13.8677 43.4016 13.8985 43.2033 13.896C43.1103 13.896 43.0004 13.8918 42.8737 13.8833C42.7542 13.8766 42.6362 13.8524 42.5235 13.8114C42.4657 13.7999 42.4136 13.7681 42.3764 13.7217C42.3391 13.6753 42.319 13.6171 42.3194 13.5572V11.2008C42.3167 11.1552 42.3317 11.1104 42.3613 11.076C42.3927 11.0439 42.4313 11.0199 42.4738 11.0061C42.5844 10.9711 42.6983 10.9483 42.8137 10.938C42.9346 10.9267 43.0521 10.921 43.1661 10.921C43.3682 10.9188 43.5693 10.9487 43.7622 11.0099C43.9355 11.064 44.0945 11.1574 44.2272 11.283C44.3589 11.4118 44.4607 11.5689 44.5252 11.7427C44.6 11.9488 44.6361 12.1672 44.6317 12.3868M44.144 12.391C44.1476 12.2284 44.1229 12.0663 44.071 11.9124C44.0282 11.7892 43.9582 11.6777 43.8664 11.5863C43.7783 11.5011 43.6729 11.4366 43.5576 11.3973C43.4346 11.3556 43.3056 11.3349 43.1759 11.3359C43.0472 11.3337 42.9187 11.3451 42.7923 11.3699V13.4462C42.8561 13.4612 42.9209 13.4712 42.9862 13.476C43.0572 13.4816 43.1302 13.4845 43.2052 13.4845C43.3342 13.4932 43.4635 13.4731 43.584 13.4255C43.7045 13.3779 43.8133 13.304 43.9026 13.209C44.0784 12.9754 44.1638 12.6843 44.1426 12.391" fill="#CC0066"/>
<path d="M45.1217 10.9594C45.1206 10.9216 45.1269 10.884 45.1402 10.8488C45.1534 10.8135 45.1734 10.7812 45.1989 10.7538C45.2249 10.7263 45.2564 10.7047 45.2913 10.6904C45.3262 10.6762 45.3636 10.6696 45.4012 10.6711C45.438 10.6699 45.4748 10.6766 45.5089 10.6909C45.5431 10.7051 45.5738 10.7266 45.5992 10.7538C45.6489 10.8104 45.6764 10.8835 45.6764 10.9594C45.6764 11.0352 45.6489 11.1083 45.5992 11.1649C45.5738 11.1921 45.5431 11.2136 45.5089 11.2278C45.4748 11.2421 45.438 11.2488 45.4012 11.2476C45.3636 11.2491 45.3262 11.2425 45.2913 11.2283C45.2564 11.214 45.2249 11.1924 45.1989 11.1649C45.1733 11.1375 45.1534 11.1052 45.1401 11.0699C45.1269 11.0347 45.1206 10.9971 45.1217 10.9594ZM45.6304 13.8323C45.6026 13.8433 45.574 13.8518 45.5448 13.8578C45.5045 13.8666 45.4633 13.8709 45.4221 13.8706C45.3547 13.8762 45.2875 13.8575 45.2324 13.8176C45.2104 13.7946 45.1935 13.7669 45.1831 13.7365C45.1726 13.7062 45.1689 13.6739 45.1719 13.6419V11.6483L45.2593 11.6251C45.3002 11.6148 45.3423 11.6098 45.3844 11.6105C45.4506 11.6051 45.5166 11.6238 45.5704 11.6634C45.592 11.6876 45.6083 11.7161 45.6183 11.7471C45.6284 11.7782 45.6318 11.811 45.6285 11.8434L45.6304 13.8323Z" fill="#CC0066"/>
<path d="M47.6129 13.633C47.5494 13.6739 47.4808 13.7057 47.4088 13.7275C47.3153 13.7548 47.2182 13.7677 47.121 13.7658C46.9957 13.7666 46.8711 13.7465 46.7523 13.7063C46.6376 13.6671 46.5329 13.6025 46.4458 13.5173C46.3521 13.4235 46.2808 13.309 46.2375 13.1827C46.1833 13.0182 46.1579 12.8453 46.1627 12.6719C46.1596 12.5097 46.1849 12.3483 46.2375 12.1951C46.2828 12.0658 46.3562 11.9485 46.4523 11.8521C46.5465 11.7596 46.6586 11.6881 46.7815 11.6423C46.9186 11.5925 47.0633 11.5682 47.2088 11.5705C47.3431 11.5693 47.4767 11.5892 47.605 11.6295C47.7112 11.6621 47.8123 11.7098 47.9054 11.7713C47.9499 11.8024 47.9882 11.8421 48.0179 11.888C48.0471 11.9371 48.0616 11.9937 48.0597 12.051V13.9019C48.0634 14.0414 48.0379 14.18 47.9849 14.3087C47.9385 14.417 47.866 14.5118 47.7743 14.5842C47.6786 14.6573 47.5692 14.7099 47.4529 14.7387C47.3226 14.7715 47.1887 14.7874 47.0545 14.786C46.9251 14.7881 46.796 14.7722 46.6709 14.7387C46.5869 14.7169 46.5058 14.6852 46.4291 14.6442C46.3695 14.6072 46.3257 14.5488 46.3064 14.4805C46.2871 14.4123 46.2937 14.3392 46.3249 14.2757C46.3443 14.239 46.3731 14.2083 46.4082 14.1868C46.4901 14.2456 46.58 14.2919 46.6751 14.3243C46.7901 14.3659 46.9114 14.3867 47.0335 14.3858C47.1853 14.3951 47.3357 14.3525 47.4609 14.2648C47.5144 14.2168 47.5561 14.1567 47.5825 14.0893C47.6089 14.0219 47.6193 13.9491 47.6129 13.8768V13.633ZM47.1833 13.3788C47.2698 13.3813 47.3558 13.3651 47.4357 13.3316C47.4984 13.3042 47.5556 13.2655 47.6045 13.2172V12.078C47.5545 12.0457 47.5006 12.0202 47.4441 12.0019C47.3707 11.978 47.2938 11.9665 47.2167 11.9679C47.1369 11.9646 47.0572 11.9784 46.9829 12.0084C46.9085 12.0383 46.8412 12.0837 46.7853 12.1417C46.665 12.2883 46.6059 12.4769 46.6207 12.6672C46.6181 12.7791 46.6328 12.8907 46.6644 12.998C46.6886 13.0793 46.7298 13.1544 46.7853 13.2181C46.8339 13.2727 46.8946 13.3148 46.9624 13.341C47.0331 13.3672 47.108 13.3797 47.1833 13.3788Z" fill="#CC0066"/>
<path d="M48.6322 10.9594C48.6311 10.9216 48.6374 10.884 48.6506 10.8488C48.6639 10.8135 48.6839 10.7812 48.7094 10.7538C48.7354 10.7263 48.7669 10.7047 48.8018 10.6904C48.8367 10.6762 48.8741 10.6696 48.9117 10.6711C48.9485 10.6699 48.9853 10.6766 49.0194 10.6908C49.0536 10.7051 49.0843 10.7266 49.1097 10.7538C49.1594 10.8104 49.1869 10.8835 49.1869 10.9594C49.1869 11.0352 49.1594 11.1083 49.1097 11.1649C49.0843 11.1921 49.0536 11.2136 49.0194 11.2278C48.9853 11.2421 48.9485 11.2488 48.9117 11.2476C48.8741 11.2491 48.8367 11.2425 48.8018 11.2283C48.7669 11.214 48.7354 11.1924 48.7094 11.1649C48.6838 11.1375 48.6639 11.1052 48.6506 11.0699C48.6374 11.0347 48.6311 10.9971 48.6322 10.9594ZM49.1409 13.8323C49.1131 13.8433 49.0845 13.8518 49.0553 13.8578C49.0148 13.8666 48.9735 13.8709 48.9321 13.8706C48.8647 13.8762 48.7975 13.8575 48.7424 13.8176C48.7204 13.7946 48.7035 13.7669 48.6931 13.7365C48.6826 13.7062 48.6788 13.6739 48.6819 13.6419V11.6483L48.7694 11.6251C48.8102 11.6148 48.8523 11.6098 48.8944 11.6105C48.9606 11.6051 49.0266 11.6238 49.0804 11.6634C49.102 11.6876 49.1183 11.7161 49.1284 11.7471C49.1384 11.7782 49.1418 11.811 49.1385 11.8434L49.1409 13.8323Z" fill="#CC0066"/>
<path d="M50.334 13.4361C50.4113 13.4869 50.5025 13.5114 50.5944 13.506C50.648 13.5055 50.7013 13.4978 50.7529 13.4828C50.8035 13.4694 50.8525 13.4502 50.8989 13.4257C50.9193 13.4523 50.9375 13.4806 50.9534 13.5102C50.9805 13.5653 50.986 13.6289 50.9688 13.6879C50.9515 13.747 50.9127 13.7972 50.8604 13.8282C50.7529 13.8889 50.6305 13.9168 50.5079 13.9086C50.3195 13.9183 50.1334 13.8623 49.9806 13.7498C49.9101 13.6848 49.8555 13.604 49.8211 13.5137C49.7867 13.4235 49.7735 13.3264 49.7826 13.23V11.0309C49.8129 11.0202 49.844 11.0116 49.8756 11.0054C49.9167 10.9967 49.9586 10.9924 50.0006 10.9926C50.0658 10.9872 50.1309 11.0053 50.1843 11.0437C50.2058 11.0666 50.2221 11.0941 50.2322 11.1241C50.2422 11.1541 50.2457 11.186 50.2424 11.2176V11.6835H50.9264C50.9399 11.7091 50.9512 11.736 50.9599 11.7638C50.9712 11.7994 50.9768 11.8365 50.9766 11.8739C50.9766 12.0068 50.9223 12.0731 50.8138 12.0728H50.2424V13.196C50.2377 13.2406 50.2437 13.2857 50.2599 13.3274C50.2761 13.3692 50.302 13.4063 50.3354 13.4356" fill="#CC0066"/>
<path d="M52.21 11.5698C52.4417 11.5568 52.671 11.6234 52.861 11.7588C52.9452 11.8325 53.011 11.9255 53.0531 12.03C53.0951 12.1346 53.1121 12.2478 53.1028 12.3603V13.458C53.1066 13.5175 53.0902 13.5766 53.0563 13.6253C53.0201 13.6686 52.978 13.7065 52.9312 13.7377C52.8392 13.7902 52.7411 13.8308 52.6392 13.8587C52.5019 13.8963 52.3601 13.9141 52.2179 13.9116C51.983 13.9255 51.75 13.8624 51.553 13.7316C51.4733 13.6706 51.4096 13.5905 51.3677 13.4984C51.3259 13.4063 51.3071 13.305 51.3131 13.2038C51.308 13.116 51.322 13.0281 51.3541 12.9464C51.3863 12.8647 51.4358 12.7912 51.4991 12.7313C51.6528 12.609 51.8398 12.5379 52.0347 12.5276L52.6476 12.4596V12.358C52.6525 12.3012 52.6437 12.2441 52.6219 12.1916C52.6001 12.1392 52.566 12.0929 52.5225 12.057C52.42 11.9889 52.2988 11.9558 52.1766 11.9625C52.0622 11.962 51.9484 11.9791 51.839 12.013C51.7384 12.0437 51.6407 12.0834 51.547 12.1316C51.5177 12.104 51.4925 12.0721 51.4721 12.0371C51.4497 11.9989 51.4381 11.9551 51.4389 11.9106C51.4396 11.8661 51.4526 11.8227 51.4763 11.7853C51.507 11.7453 51.5472 11.714 51.593 11.6941C51.6822 11.65 51.7769 11.6182 51.8743 11.5996C51.9849 11.5778 52.0974 11.5672 52.21 11.5679M52.2184 13.5256C52.3099 13.5274 52.4012 13.5159 52.4895 13.4915C52.5463 13.4776 52.6 13.4531 52.648 13.4192V12.822L52.1728 12.873C52.0651 12.8803 51.9607 12.9137 51.8683 12.9704C51.8344 12.9962 51.8075 13.0304 51.7901 13.0696C51.7726 13.1088 51.7651 13.1519 51.7683 13.1948C51.7665 13.2409 51.7753 13.2867 51.7941 13.3287C51.813 13.3706 51.8412 13.4075 51.8767 13.4363C51.9776 13.5038 52.0979 13.5351 52.2184 13.5251" fill="#CC0066"/>
<path d="M53.9739 13.8702C53.9078 13.8749 53.8421 13.8562 53.7879 13.8173C53.7652 13.7946 53.7478 13.7671 53.7369 13.7366C53.7261 13.7062 53.722 13.6737 53.7251 13.6415V10.7856L53.8125 10.7625C53.8534 10.752 53.8955 10.7471 53.9376 10.7478C54.0034 10.7431 54.0689 10.7609 54.1236 10.7984C54.1464 10.8206 54.1639 10.8478 54.1748 10.8779C54.1857 10.9081 54.1896 10.9403 54.1864 10.9723V13.8324C54.1613 13.8409 54.1303 13.8494 54.0934 13.8579C54.0537 13.8669 54.0132 13.8711 53.9725 13.8707" fill="#CC0066"/>
<path d="M56.2809 12.8575V13.8323C56.2495 13.8426 56.2175 13.8511 56.1851 13.8579C56.144 13.8666 56.1021 13.8709 56.0601 13.8706C55.991 13.8767 55.9221 13.857 55.8662 13.8153C55.8441 13.7909 55.8273 13.7621 55.8169 13.7307C55.8064 13.6992 55.8026 13.6659 55.8057 13.6329V11.2046C55.803 11.1591 55.818 11.1142 55.8476 11.0799C55.8791 11.0478 55.9176 11.0238 55.9601 11.01C56.0667 10.9734 56.1772 10.95 56.2893 10.94C56.4133 10.9274 56.5314 10.9211 56.6436 10.9211C56.949 10.8958 57.2525 10.988 57.494 11.1796C57.5869 11.27 57.6595 11.3796 57.707 11.5009C57.7545 11.6223 57.7757 11.7527 57.7693 11.8832C57.7751 12.0144 57.7536 12.1453 57.7061 12.2674C57.6587 12.3896 57.5864 12.5002 57.494 12.592C57.2633 12.7865 56.9672 12.8823 56.6682 12.8589L56.2809 12.8575ZM56.6436 12.4464C56.8128 12.4562 56.98 12.4061 57.1169 12.3047C57.176 12.2529 57.2224 12.1879 57.2525 12.1147C57.2825 12.0415 57.2953 11.9623 57.2899 11.8832C57.2965 11.8057 57.285 11.7277 57.2564 11.6555C57.2278 11.5834 57.1829 11.5191 57.1253 11.4678C56.9864 11.3716 56.8198 11.3253 56.652 11.3365C56.5881 11.3365 56.5227 11.3393 56.4558 11.345C56.3955 11.3498 56.3355 11.3583 56.2763 11.3705V12.4469L56.6436 12.4464Z" fill="#CC0066"/>
<path d="M59.0264 11.5698C59.2581 11.5568 59.4874 11.6234 59.6774 11.7588C59.7616 11.8325 59.8275 11.9254 59.8695 12.03C59.9115 12.1346 59.9286 12.2478 59.9192 12.3603V13.458C59.923 13.5175 59.9066 13.5766 59.8727 13.6253C59.8364 13.6686 59.7943 13.7065 59.7476 13.7377C59.6556 13.7902 59.5575 13.8308 59.4556 13.8587C59.3183 13.8963 59.1765 13.9141 59.0343 13.9116C58.7995 13.9255 58.5664 13.8624 58.3694 13.7316C58.2897 13.6706 58.226 13.5905 58.1841 13.4984C58.1423 13.4063 58.1235 13.305 58.1295 13.2038C58.1244 13.116 58.1383 13.0281 58.1705 12.9464C58.2026 12.8647 58.2522 12.7912 58.3155 12.7313C58.4692 12.609 58.6562 12.5379 58.8511 12.5276L59.464 12.4596V12.358C59.469 12.3012 59.4602 12.2441 59.4384 12.1916C59.4166 12.1391 59.3824 12.0929 59.3389 12.057C59.2364 11.9888 59.1152 11.9557 58.993 11.9625C58.8786 11.962 58.7648 11.9791 58.6554 12.013C58.5548 12.0437 58.4571 12.0834 58.3634 12.1316C58.3341 12.104 58.3088 12.0721 58.2885 12.0371C58.266 11.9989 58.2545 11.9551 58.2553 11.9106C58.256 11.8661 58.269 11.8227 58.2927 11.7853C58.3234 11.7454 58.3636 11.714 58.4094 11.6941C58.4986 11.65 58.5932 11.6182 58.6907 11.5996C58.8013 11.5778 58.9138 11.5672 59.0264 11.5679M59.0348 13.5256C59.1263 13.5274 59.2176 13.5159 59.3059 13.4915C59.3626 13.4776 59.4164 13.453 59.4644 13.4192V12.822L58.9892 12.873C58.8815 12.8803 58.7771 12.9137 58.6847 12.9704C58.6508 12.9962 58.6239 13.0304 58.6065 13.0696C58.589 13.1088 58.5815 13.1519 58.5847 13.1948C58.5829 13.2409 58.5917 13.2867 58.6105 13.3287C58.6294 13.3706 58.6576 13.4075 58.693 13.4363C58.794 13.5038 58.9143 13.535 59.0348 13.5251" fill="#CC0066"/>
<path d="M60.908 13.328C60.8329 13.1727 60.742 12.9537 60.635 12.6712C60.5281 12.3886 60.4259 12.0693 60.3286 11.7134C60.3584 11.6778 60.3945 11.6483 60.4351 11.6264C60.4778 11.6025 60.5258 11.5902 60.5746 11.5905C60.6311 11.5878 60.687 11.6044 60.7331 11.6378C60.7828 11.6833 60.8177 11.7431 60.8331 11.8093C60.9137 12.0635 60.9965 12.3142 61.0814 12.5615C61.1663 12.8088 61.2601 13.0638 61.3627 13.3266H61.3794C61.4238 13.2248 61.4689 13.1068 61.5148 12.9726C61.5606 12.8384 61.6051 12.6957 61.6482 12.5445C61.6913 12.3933 61.7324 12.2401 61.7714 12.0848C61.8105 11.9295 61.8452 11.7812 61.8756 11.6401C61.9038 11.6259 61.933 11.6139 61.963 11.6042C61.9982 11.5938 62.0347 11.5888 62.0713 11.5896C62.1291 11.5873 62.1862 11.6038 62.2341 11.6368C62.2569 11.6549 62.2749 11.6785 62.2865 11.7055C62.2981 11.7325 62.303 11.762 62.3006 11.7913C62.2938 11.9175 62.2735 12.0425 62.2401 12.1642C62.1998 12.3308 62.1477 12.5159 62.0839 12.7194C62.02 12.9229 61.947 13.1276 61.8649 13.3336C61.7827 13.54 61.7 13.7236 61.6166 13.8846C61.5059 14.1081 61.3732 14.3196 61.2204 14.5159C61.1826 14.5743 61.1329 14.6238 61.0747 14.6611C61.0164 14.6983 60.9511 14.7225 60.8829 14.7318C60.8472 14.7339 60.8114 14.7286 60.7777 14.7163C60.7441 14.704 60.7133 14.6848 60.6871 14.66C60.6384 14.6104 60.6059 14.5467 60.5941 14.4776C60.6486 14.4278 60.7001 14.3748 60.7485 14.3189C60.804 14.2559 60.8596 14.1881 60.9154 14.1157C60.9712 14.0432 61.0247 13.969 61.0758 13.8931C61.1243 13.8221 61.1667 13.747 61.2028 13.6687C61.1484 13.6486 61.0993 13.6163 61.0591 13.5742C60.995 13.5 60.9436 13.4156 60.907 13.3242" fill="#CC0066"/>
<path d="M65.1947 12.0639C65.1107 11.9966 65.0053 11.963 64.8985 11.9694C64.8186 11.969 64.7396 11.9851 64.666 12.0166C64.5909 12.049 64.5218 12.0941 64.4614 12.1499C64.4671 12.1764 64.4713 12.2032 64.474 12.2302C64.4768 12.2586 64.4782 12.2869 64.4782 12.3148V13.8321C64.4505 13.8431 64.4218 13.8517 64.3926 13.8576C64.3536 13.8663 64.3139 13.8706 64.274 13.8704C64.2059 13.8757 64.1381 13.8571 64.082 13.8174C64.0594 13.7947 64.0421 13.7671 64.0313 13.7367C64.0205 13.7063 64.0166 13.6738 64.0197 13.6417V12.3658C64.0245 12.3104 64.0174 12.2545 63.9987 12.2022C63.98 12.1498 63.9502 12.1023 63.9114 12.063C63.8274 11.9957 63.7219 11.9621 63.6152 11.9684C63.5358 11.968 63.4569 11.9824 63.3827 12.011C63.3184 12.0355 63.257 12.0672 63.1995 12.1055V13.8344C63.1718 13.8455 63.1431 13.854 63.1139 13.86C63.0734 13.8688 63.0321 13.8731 62.9907 13.8727C62.9246 13.8774 62.8589 13.8587 62.8048 13.8198C62.7821 13.7971 62.7646 13.7695 62.7537 13.7391C62.7429 13.7087 62.7389 13.6762 62.742 13.644V12.0932C62.7389 12.032 62.7526 11.9712 62.7815 11.9174C62.8163 11.8647 62.8609 11.8193 62.9126 11.7837C63.1279 11.6475 63.376 11.5742 63.6296 11.572C63.7562 11.5698 63.8822 11.5906 64.0016 11.6334C64.1047 11.6708 64.1976 11.7325 64.2727 11.8135C64.3601 11.7416 64.4577 11.6838 64.5623 11.6419C64.6879 11.5929 64.8217 11.5692 64.9561 11.572C65.0663 11.5713 65.176 11.5872 65.2816 11.6193C65.3762 11.6472 65.4637 11.6955 65.5383 11.761C65.6114 11.8278 65.6691 11.9103 65.7071 12.0025C65.7514 12.1134 65.7727 12.2324 65.7698 12.3521V13.8354C65.7393 13.8455 65.7083 13.854 65.6769 13.8609C65.6379 13.8696 65.5982 13.8738 65.5583 13.8737C65.4922 13.8783 65.4265 13.8596 65.3723 13.8207C65.3496 13.798 65.3322 13.7705 65.3213 13.7401C65.3105 13.7097 65.3065 13.6772 65.3095 13.645V12.3692C65.3145 12.3137 65.3074 12.2578 65.2887 12.2054C65.27 12.153 65.2401 12.1055 65.2012 12.0663" fill="#CC0066"/>
<path d="M66.7325 12.9888C66.7592 13.1467 66.8442 13.2883 66.9701 13.3848C67.1058 13.4756 67.2662 13.5207 67.4285 13.5138C67.5432 13.5152 67.6572 13.4944 67.7642 13.4524C67.8515 13.4189 67.9349 13.3754 68.0126 13.3229C68.0506 13.343 68.0824 13.3735 68.1045 13.4108C68.1265 13.4482 68.138 13.491 68.1376 13.5346C68.1371 13.5897 68.1164 13.6426 68.0795 13.683C68.035 13.7324 67.9811 13.7721 67.9209 13.7997C67.8467 13.8348 67.7687 13.8611 67.6885 13.8781C67.4386 13.9296 67.1797 13.9133 66.938 13.8309C66.8036 13.7829 66.6812 13.7055 66.5795 13.6041C66.4759 13.4987 66.3965 13.3714 66.347 13.2312C66.2903 13.0672 66.2627 12.8943 66.2656 12.7204C66.2625 12.5511 66.2886 12.3825 66.3428 12.2224C66.3887 12.0889 66.4619 11.9668 66.5577 11.8642C66.6489 11.7685 66.759 11.6935 66.8808 11.644C67.0061 11.5929 67.14 11.5671 67.2751 11.568C67.4072 11.5661 67.5383 11.5914 67.6605 11.6421C67.7726 11.6889 67.8742 11.7582 67.9592 11.846C68.0442 11.9338 68.1107 12.0382 68.1548 12.1529C68.203 12.277 68.227 12.4094 68.2255 12.5428C68.2282 12.574 68.2248 12.6054 68.2155 12.6353C68.2061 12.6651 68.191 12.6928 68.1711 12.7167C68.1284 12.7566 68.0743 12.7817 68.0167 12.7885L66.7325 12.9888ZM67.2746 11.9493C67.1991 11.9475 67.1241 11.9623 67.0547 11.9926C66.9853 12.023 66.9231 12.0681 66.8724 12.1251C66.7575 12.2642 66.6974 12.4416 66.7036 12.6231L67.7875 12.4577C67.7799 12.3249 67.7294 12.1984 67.6438 12.0977C67.5969 12.0468 67.5395 12.0072 67.4758 11.9815C67.412 11.9559 67.3431 11.9449 67.2746 11.9493Z" fill="#CC0066"/>
<path d="M69.9686 12.0767C69.8758 12.0005 69.7585 11.9619 69.6394 11.9685C69.546 11.9671 69.4529 11.9814 69.3641 12.011C69.292 12.036 69.2222 12.0676 69.1558 12.1056V13.8345C69.1281 13.8456 69.0995 13.8541 69.0703 13.86C69.0298 13.8689 68.9885 13.8731 68.9471 13.8728C68.8809 13.8774 68.8152 13.8587 68.7611 13.8199C68.7384 13.7972 68.7209 13.7696 68.7101 13.7392C68.6992 13.7088 68.6952 13.6763 68.6983 13.6441V12.0933C68.6954 12.0321 68.7091 11.9713 68.7378 11.9175C68.7728 11.8647 68.8175 11.8193 68.8694 11.7838C68.9719 11.7251 69.0803 11.6776 69.1926 11.642C69.3374 11.5949 69.4888 11.5721 69.6408 11.5744C69.8807 11.5605 70.1177 11.6333 70.3099 11.78C70.3944 11.8577 70.4604 11.9541 70.5027 12.0617C70.545 12.1693 70.5626 12.2853 70.554 12.4009V13.8373C70.5247 13.8479 70.4947 13.8564 70.4643 13.8629C70.4239 13.8717 70.3828 13.8759 70.3415 13.8756C70.2754 13.8803 70.2097 13.8616 70.1555 13.8227C70.1329 13.8 70.1155 13.7724 70.1048 13.742C70.094 13.7116 70.09 13.6791 70.0932 13.6469V12.4184C70.0984 12.3566 70.0903 12.2945 70.0694 12.2363C70.0485 12.1781 70.0154 12.1253 69.9723 12.0814" fill="#CC0066"/>
<path d="M71.7176 13.4361C71.7949 13.4869 71.8861 13.5114 71.978 13.506C72.0316 13.5056 72.0849 13.4978 72.1365 13.4828C72.1871 13.4694 72.2361 13.4502 72.2825 13.4257C72.3028 13.4523 72.321 13.4806 72.3369 13.5102C72.3642 13.5653 72.3698 13.6289 72.3525 13.688C72.3352 13.7471 72.2964 13.7973 72.2439 13.8282C72.1365 13.8889 72.0141 13.9168 71.8915 13.9086C71.7031 13.9183 71.517 13.8623 71.3642 13.7498C71.2936 13.6848 71.239 13.604 71.2046 13.5138C71.1702 13.4235 71.157 13.3264 71.1661 13.23V11.0309C71.1965 11.0202 71.2276 11.0116 71.2591 11.0054C71.3003 10.9967 71.3422 10.9924 71.3842 10.9926C71.4494 10.9872 71.5144 11.0053 71.5679 11.0437C71.5895 11.0666 71.6059 11.094 71.616 11.1241C71.6261 11.1541 71.6297 11.186 71.6264 11.2176V11.6835H72.3104C72.3241 11.7091 72.3353 11.736 72.3439 11.7638C72.3553 11.7993 72.3609 11.8365 72.3607 11.8739C72.3607 12.0068 72.3064 12.0731 72.1979 12.0728H71.6264V13.196C71.6217 13.2406 71.6277 13.2857 71.6439 13.3274C71.6601 13.3692 71.6861 13.4063 71.7195 13.4356" fill="#CC0066"/>
<path d="M74.3675 13.2351C74.3717 13.3291 74.354 13.4227 74.316 13.5085C74.2779 13.5943 74.2206 13.6698 74.1485 13.7289C73.963 13.8611 73.7385 13.9246 73.5124 13.9089C73.4048 13.9097 73.2974 13.8997 73.1916 13.8791C73.1065 13.8634 73.0238 13.8364 72.9457 13.7988C72.885 13.7696 72.8312 13.7278 72.7876 13.676C72.7502 13.6325 72.7294 13.5768 72.729 13.5191C72.7289 13.474 72.7396 13.4295 72.7602 13.3896C72.7813 13.3481 72.8135 13.3136 72.8531 13.2899C72.941 13.3504 73.0344 13.4022 73.1321 13.4444C73.2484 13.4931 73.3733 13.5169 73.499 13.5144C73.6053 13.5214 73.7112 13.4964 73.8035 13.4425C73.837 13.42 73.8643 13.3891 73.8825 13.3528C73.9008 13.3164 73.9094 13.2759 73.9077 13.2351C73.9095 13.2003 73.9041 13.1656 73.8919 13.133C73.8798 13.1005 73.8611 13.0709 73.837 13.0461C73.7761 12.9923 73.7029 12.9551 73.624 12.9379L73.3237 12.8533C73.1606 12.8157 73.0098 12.7361 72.8857 12.6222C72.8373 12.5684 72.8 12.5052 72.776 12.4365C72.752 12.3677 72.7419 12.2948 72.7462 12.222C72.7458 12.1335 72.7643 12.0459 72.8006 11.9654C72.8366 11.8852 72.89 11.8143 72.9568 11.758C73.0329 11.6958 73.1201 11.6492 73.2135 11.6205C73.3269 11.585 73.445 11.5677 73.5636 11.5695C73.6616 11.5684 73.7595 11.5776 73.8556 11.5969C73.9325 11.6122 74.0073 11.6365 74.0788 11.6692C74.1351 11.694 74.1851 11.7316 74.2248 11.7793C74.258 11.8188 74.2764 11.869 74.2769 11.921C74.2778 11.9654 74.2671 12.0093 74.2457 12.0481C74.2264 12.0829 74.2001 12.1132 74.1685 12.137C74.0924 12.0931 74.0129 12.0555 73.9309 12.0245C73.8246 11.9829 73.7115 11.9621 73.5975 11.9631C73.4959 11.9572 73.3947 11.9806 73.3056 12.0306C73.2779 12.0483 73.2543 12.072 73.2365 12.0999C73.2188 12.1278 73.2073 12.1594 73.2029 12.1923C73.1985 12.2252 73.2012 12.2588 73.2109 12.2905C73.2206 12.3223 73.2371 12.3515 73.2591 12.376C73.3174 12.4271 73.388 12.4615 73.4636 12.4757L73.7222 12.5438C73.9039 12.5868 74.0723 12.675 74.2122 12.8004C74.2658 12.8582 74.3073 12.9266 74.3342 13.0012C74.3611 13.0758 74.3727 13.1553 74.3685 13.2346" fill="#CC0066"/>
<path d="M10.724 6.57031V14.8428C10.724 15.3843 10.5606 15.9128 10.2557 16.3569C9.95076 16.8011 9.51911 17.1394 9.01899 17.3263L1.59531 20.101C1.47847 20.1448 1.35294 20.1592 1.22943 20.1431C1.10591 20.127 0.988064 20.0807 0.885917 20.0083C0.78377 19.9359 0.700351 19.8395 0.642764 19.7273C0.585177 19.6151 0.555128 19.4904 0.555176 19.3639V12.3445C0.555414 11.9224 0.682846 11.5104 0.920334 11.1641C1.15782 10.8177 1.49398 10.5536 1.88359 10.4072L8.74512 7.82817C9.82803 7.38258 10.2512 7.10993 10.7245 6.57267" fill="white"/>
<path d="M17.2506 8.66406C17.2429 8.97164 17.1204 9.26475 16.9081 9.48406C16.6957 9.70338 16.4093 9.83252 16.1068 9.84536H14.551C14.4613 9.84752 14.3744 9.81339 14.3095 9.75049C14.2445 9.68758 14.2068 9.60103 14.2046 9.50987V6.06613C14.2039 6.02045 14.2123 5.9751 14.2292 5.93276C14.246 5.89042 14.2711 5.85196 14.3029 5.81965C14.3347 5.78735 14.3725 5.76186 14.4142 5.7447C14.4559 5.72755 14.5005 5.71907 14.5454 5.71977H16.0468C16.2714 5.73184 16.4877 5.80985 16.6695 5.94434C16.8513 6.07884 16.9909 6.26405 17.0712 6.47751C17.1515 6.69098 17.1692 6.92354 17.122 7.147C17.0749 7.37046 16.965 7.57524 16.8057 7.7365C16.9429 7.84786 17.0541 7.98886 17.1312 8.14929C17.2082 8.30972 17.2487 8.48555 17.2506 8.66406ZM14.8649 7.4355L15.9701 7.42416C16.1044 7.41967 16.2319 7.36347 16.3269 7.26695C16.4219 7.17043 16.4772 7.04081 16.4816 6.90438C16.4808 6.77316 16.4299 6.64738 16.3396 6.55358C16.2492 6.45978 16.1266 6.40529 15.9975 6.40162H14.8649V7.4355ZM16.5695 8.66406C16.5602 8.525 16.5006 8.39437 16.4021 8.2974C16.3036 8.20044 16.1732 8.14403 16.0361 8.13908H14.8923V9.17249H16.0687C16.2 9.16824 16.3249 9.1133 16.4178 9.01886C16.5107 8.92442 16.5648 8.79755 16.569 8.66406" fill="white"/>
<path d="M19.9567 8.13905H19.4564V9.50936C19.4544 9.59956 19.4175 9.68533 19.3537 9.74806C19.2899 9.81079 19.2043 9.8454 19.1155 9.84438C19.0281 9.84413 18.9444 9.80877 18.8825 9.74601C18.8207 9.68325 18.7858 9.59818 18.7854 9.50936V6.05475C18.7882 5.96483 18.8253 5.87955 18.889 5.817C18.9526 5.75445 19.0377 5.71956 19.1262 5.71973H20.33C20.6396 5.7266 20.9347 5.85388 21.1546 6.07533C21.3745 6.29679 21.5024 6.59554 21.512 6.91001C21.5062 7.16363 21.4248 7.40949 21.2785 7.61504C21.1322 7.82059 20.9279 7.97614 20.6927 8.06108L21.4571 9.32933C21.5017 9.40743 21.5146 9.5001 21.493 9.58768C21.4715 9.67527 21.4173 9.75091 21.3418 9.79854C21.2895 9.82775 21.2308 9.84318 21.1712 9.84344C21.1139 9.84338 21.0575 9.82847 21.0075 9.80011C20.9574 9.77174 20.9154 9.73087 20.8852 9.68136L19.9567 8.13905ZM20.8475 6.91521C20.8413 6.77508 20.7815 6.64296 20.6808 6.54696C20.5802 6.45095 20.4466 6.39862 20.3086 6.40111H19.4564V7.45719H20.3086C20.4506 7.45733 20.5869 7.40045 20.6879 7.29894C20.7888 7.19743 20.8462 7.05951 20.8475 6.91521Z" fill="white"/>
<path d="M25.3718 9.84265C24.8357 9.83678 24.3236 9.61544 23.9475 9.22699C23.5715 8.83854 23.362 8.3146 23.365 7.76969C23.372 7.3685 23.4954 6.97835 23.7197 6.64816C23.9441 6.31798 24.2594 6.06248 24.626 5.91372C24.9927 5.76496 25.3945 5.72957 25.7809 5.81199C26.1673 5.89441 26.5212 6.09096 26.7981 6.37699C27.075 6.66302 27.2626 7.02579 27.3374 7.41977C27.4122 7.81375 27.3708 8.2214 27.2184 8.59158C27.0661 8.96176 26.8096 9.27797 26.4811 9.50054C26.1525 9.7231 25.7667 9.84212 25.3718 9.84265ZM24.0137 7.76969C24.0141 8.04325 24.0944 8.31054 24.2443 8.53773C24.3943 8.76493 24.6072 8.94183 24.8561 9.04607C25.1049 9.1503 25.3787 9.17719 25.6426 9.12332C25.9065 9.06946 26.1488 8.93727 26.3388 8.74347C26.5288 8.54966 26.6579 8.30295 26.7099 8.03454C26.7619 7.76613 26.7345 7.48807 26.631 7.23554C26.5274 6.983 26.3526 6.76733 26.1285 6.6158C25.9043 6.46427 25.641 6.38369 25.3718 6.38425C25.0118 6.38784 24.6676 6.53512 24.4136 6.79432C24.1595 7.05351 24.0158 7.40383 24.0137 7.76969Z" fill="white"/>
<path d="M32.1237 9.81571C32.0811 9.83256 32.0357 9.84056 31.99 9.83922C31.9443 9.83789 31.8994 9.82726 31.8579 9.80796C31.8163 9.78866 31.779 9.76109 31.7482 9.72687C31.7173 9.69265 31.6935 9.65248 31.6782 9.60875L30.7483 7.05712L29.8137 9.60875C29.7995 9.6526 29.7765 9.69301 29.7463 9.72748C29.716 9.76195 29.6792 9.78975 29.6379 9.80915C29.5967 9.82855 29.552 9.83915 29.5066 9.84027C29.4611 9.8414 29.416 9.83304 29.3738 9.81571C29.3305 9.80061 29.2906 9.7767 29.2567 9.74543C29.2227 9.71416 29.1954 9.67619 29.1763 9.63384C29.1573 9.59149 29.1469 9.54563 29.1458 9.49908C29.1448 9.45252 29.1531 9.40623 29.1702 9.36304L30.4126 5.93772C30.4387 5.86928 30.4849 5.81062 30.5448 5.76964C30.6047 5.72866 30.6756 5.70734 30.7478 5.70854C30.8197 5.70889 30.8899 5.73084 30.9496 5.77161C31.0092 5.81239 31.0557 5.87018 31.0831 5.93772L32.3255 9.36304C32.3426 9.4062 32.3509 9.45246 32.3499 9.499C32.3489 9.54553 32.3385 9.59137 32.3195 9.63371C32.3005 9.67606 32.2732 9.71404 32.2393 9.74532C32.2054 9.77661 32.1656 9.80056 32.1223 9.81571" fill="white"/>
<path d="M33.7126 9.50852V6.07138C33.7148 5.98321 33.7502 5.89925 33.8115 5.83688C33.8729 5.77452 33.9555 5.73852 34.0423 5.73637H34.8616C35.1567 5.7346 35.4488 5.79544 35.7194 5.91498C35.9795 6.03093 36.212 6.2024 36.4011 6.41774C36.5898 6.63547 36.7306 6.89163 36.8141 7.1691C36.8975 7.44657 36.9218 7.73894 36.8851 8.02668C36.8245 8.52635 36.5867 8.98641 36.2162 9.32068C35.8458 9.65495 35.3681 9.84051 34.8727 9.84259H34.0428C33.956 9.84043 33.8734 9.80444 33.812 9.74208C33.7506 9.67971 33.7152 9.59574 33.7131 9.50757M36.2202 7.94824C36.2493 7.75527 36.2363 7.55816 36.1821 7.37085C36.128 7.18355 36.034 7.01061 35.9068 6.86428C35.7753 6.71569 35.6141 6.59744 35.4339 6.51749C35.2536 6.43753 35.0587 6.39772 34.862 6.40074H34.3729V9.17208H34.8732C35.2067 9.17224 35.5286 9.04753 35.7773 8.82177C36.026 8.59601 36.1842 8.28503 36.2216 7.94824" fill="white"/>
<path d="M40.1508 9.26786C39.9862 9.52048 39.7326 9.69944 39.4423 9.76799C39.1519 9.83654 38.8467 9.78946 38.5894 9.63643C38.5105 9.58781 38.4522 9.51113 38.4258 9.42127C38.3994 9.33142 38.4068 9.23481 38.4466 9.15021C38.5063 9.0801 38.5898 9.03543 38.6805 9.02509C38.7711 9.01476 38.8623 9.03952 38.9358 9.09445C39.0497 9.15733 39.183 9.17386 39.3085 9.1407C39.434 9.10754 39.5424 9.02716 39.6119 8.91584C39.6502 8.8579 39.6769 8.79285 39.6905 8.7244C39.7041 8.65596 39.7042 8.58546 39.691 8.51695C39.6777 8.44844 39.6513 8.38326 39.6132 8.32514C39.5751 8.26702 39.5262 8.21709 39.4691 8.17823C39.1999 8.00481 39.1901 7.99962 38.9302 7.8262C38.6729 7.65649 38.4924 7.38986 38.4285 7.08494C38.3646 6.78003 38.4224 6.4618 38.5894 6.20025C38.7557 5.94972 39.0091 5.77241 39.2987 5.70396C39.5884 5.6355 39.8927 5.68096 40.1508 5.83121C40.2271 5.87652 40.2833 5.94989 40.3079 6.03617C40.3325 6.12244 40.3235 6.21502 40.2828 6.29475C40.2283 6.36782 40.1481 6.41673 40.059 6.43134C39.9699 6.44594 39.8787 6.42512 39.8043 6.37319C39.6854 6.31164 39.5477 6.29877 39.4197 6.33723C39.2917 6.37569 39.1831 6.46255 39.1162 6.57994C39.0493 6.69733 39.0292 6.83631 39.0601 6.96829C39.091 7.10026 39.1704 7.21519 39.2822 7.28941C39.4217 7.37872 39.4217 7.37872 39.8155 7.64144C39.9427 7.72575 40.0522 7.83471 40.1379 7.96209C40.2236 8.08946 40.2837 8.23276 40.3149 8.38378C40.346 8.53479 40.3475 8.69057 40.3194 8.84219C40.2912 8.99381 40.2339 9.13877 40.1508 9.26786Z" fill="white"/>
<path d="M43.8627 8.12951C43.5552 8.1517 43.2467 8.15549 42.9388 8.14085V9.51117C42.9368 9.60137 42.9 9.68714 42.8362 9.74987C42.7723 9.81259 42.6868 9.8472 42.598 9.84619C42.5107 9.84581 42.427 9.8104 42.3653 9.74765C42.3035 9.6849 42.2687 9.5999 42.2683 9.51117V6.066C42.2678 6.02185 42.2759 5.97803 42.2923 5.93712C42.3086 5.89622 42.3329 5.85906 42.3636 5.82783C42.3944 5.79661 42.4309 5.77196 42.4712 5.75532C42.5114 5.73869 42.5545 5.73041 42.598 5.73098H43.8297C44.1366 5.7407 44.428 5.87045 44.6431 6.09318C44.8582 6.31591 44.9804 6.61442 44.9842 6.92647C44.9792 7.23302 44.8612 7.52652 44.6536 7.74893C44.4459 7.97134 44.1637 8.10648 43.8627 8.12762M43.786 6.40149H42.9393V7.45758H43.786C43.9277 7.45674 44.0634 7.39954 44.1642 7.29824C44.2649 7.19694 44.3226 7.05959 44.3249 6.9156C44.3177 6.7758 44.2576 6.64424 44.1572 6.54842C44.0567 6.45261 43.9237 6.39996 43.786 6.40149Z" fill="white"/>
<path d="M46.7432 9.50797V6.05477C46.7435 5.96603 46.7784 5.88104 46.8401 5.81829C46.9019 5.75554 46.9855 5.72013 47.0728 5.71975H49.0536C49.1424 5.71861 49.2281 5.75319 49.2919 5.81594C49.3557 5.87869 49.3926 5.96453 49.3944 6.05477C49.3939 6.14648 49.3579 6.23429 49.294 6.29914C49.2302 6.36399 49.1438 6.40064 49.0536 6.40113H47.415V7.45722H48.6523C48.6958 7.45665 48.7389 7.46492 48.7791 7.48156C48.8194 7.49819 48.856 7.52285 48.8867 7.55407C48.9174 7.58529 48.9417 7.62246 48.958 7.66336C48.9744 7.70427 48.9825 7.74809 48.982 7.79224C48.9826 7.83643 48.9745 7.88031 48.9582 7.92126C48.9418 7.96222 48.9176 7.99944 48.8869 8.03071C48.8561 8.06199 48.8195 8.08669 48.7792 8.10335C48.739 8.12001 48.6958 8.1283 48.6523 8.12773H47.415V9.16114H49.0536C49.1438 9.16164 49.2302 9.19829 49.294 9.26313C49.3579 9.32798 49.3939 9.41579 49.3944 9.5075C49.3925 9.59769 49.3556 9.68347 49.2918 9.7462C49.228 9.80892 49.1424 9.84354 49.0536 9.84252H47.0742C46.9869 9.84214 46.9033 9.80673 46.8415 9.74398C46.7798 9.68123 46.7449 9.59623 46.7446 9.5075" fill="white"/>
<path d="M54.5677 9.39654C54.2177 9.67952 53.7833 9.83315 53.336 9.8322C52.7979 9.8322 52.2819 9.61497 51.9014 9.2283C51.5209 8.84163 51.3071 8.31719 51.3071 7.77035C51.3071 7.22351 51.5209 6.69907 51.9014 6.3124C52.2819 5.92573 52.7979 5.7085 53.336 5.7085C53.7016 5.709 54.0597 5.8136 54.3697 6.01044C54.4086 6.03102 54.4431 6.05939 54.4709 6.09386C54.4988 6.12832 54.5196 6.16816 54.5319 6.21098C54.5442 6.2538 54.5479 6.29871 54.5427 6.34302C54.5375 6.38732 54.5236 6.43011 54.5017 6.46879C54.4794 6.50709 54.4495 6.54031 54.414 6.56635C54.3785 6.5924 54.338 6.61072 54.2952 6.62017C54.2524 6.62961 54.2081 6.62998 54.1652 6.62125C54.1222 6.61252 54.0815 6.59488 54.0456 6.56943C53.8311 6.43995 53.5859 6.37232 53.3365 6.37381C53.1582 6.37381 52.9816 6.40952 52.8169 6.47889C52.6522 6.54827 52.5025 6.64995 52.3764 6.77813C52.2504 6.90631 52.1504 7.05847 52.0823 7.22592C52.0141 7.39338 51.9791 7.57284 51.9792 7.75405C51.9731 8.01358 52.0391 8.26961 52.1697 8.49274C52.3003 8.71587 52.4901 8.89705 52.7175 9.01547C52.9448 9.13389 53.2004 9.18476 53.4549 9.16223C53.7094 9.1397 53.9525 9.04469 54.1562 8.8881C54.1882 8.86027 54.2253 8.83919 54.2654 8.82608C54.3054 8.81297 54.3476 8.8081 54.3896 8.81175C54.4315 8.81541 54.4723 8.8275 54.5096 8.84734C54.5469 8.86719 54.5799 8.89437 54.6068 8.92732C54.6627 8.99481 54.6901 9.08208 54.6829 9.17003C54.6756 9.25797 54.6344 9.33942 54.5682 9.39654" fill="white"/>
<path d="M59.1467 6.04842C59.1467 6.09222 59.1382 6.13558 59.1215 6.17599C59.1049 6.2164 59.0806 6.25306 59.0499 6.28383C59.0192 6.3146 58.9829 6.33887 58.9429 6.35524C58.9029 6.37161 58.8601 6.37975 58.8171 6.37919H58.0094V9.50824C58.0094 9.5964 57.9749 9.68095 57.9136 9.74329C57.8523 9.80563 57.7691 9.84065 57.6823 9.84065C57.5956 9.84065 57.5123 9.80563 57.451 9.74329C57.3896 9.68095 57.3552 9.5964 57.3552 9.50824V6.37824H56.5471C56.4603 6.37824 56.3771 6.34322 56.3158 6.28088C56.2544 6.21854 56.22 6.13399 56.22 6.04583C56.22 5.95766 56.2544 5.87311 56.3158 5.81077C56.3771 5.74843 56.4603 5.71341 56.5471 5.71341H58.8175C58.861 5.71284 58.9041 5.72111 58.9443 5.73774C58.9846 5.75438 59.0211 5.77903 59.0519 5.81026C59.0826 5.84148 59.1069 5.87864 59.1232 5.91954C59.1396 5.96045 59.1473 6.00427 59.1467 6.04842Z" fill="white"/>
<path d="M61.9681 8.13905H61.4678V9.50936C61.4659 9.59956 61.429 9.68533 61.3652 9.74806C61.3014 9.81079 61.2158 9.8454 61.127 9.84438C61.0396 9.84413 60.9558 9.80877 60.894 9.74601C60.8321 9.68325 60.7972 9.59818 60.7969 9.50936V6.05475C60.7997 5.96483 60.8368 5.87955 60.9004 5.817C60.9641 5.75445 61.0492 5.71956 61.1377 5.71973H62.342C62.6515 5.7266 62.9466 5.85388 63.1665 6.07533C63.3864 6.29679 63.5143 6.59554 63.5239 6.91001C63.5182 7.16363 63.4368 7.40949 63.2905 7.61504C63.1442 7.82059 62.9399 7.97614 62.7047 8.06108L63.469 9.32933C63.5135 9.40749 63.5263 9.50019 63.5047 9.58779C63.4831 9.67538 63.4288 9.75098 63.3532 9.79854C63.3009 9.82776 63.2423 9.8432 63.1826 9.84344C63.1253 9.84338 63.069 9.82847 63.0189 9.80011C62.9689 9.77174 62.9268 9.73087 62.8967 9.68136L61.9681 8.13905ZM62.859 6.91521C62.8527 6.77508 62.7929 6.64296 62.6923 6.54696C62.5916 6.45095 62.4581 6.39862 62.3201 6.40111H61.4678V7.45719H62.3201C62.4621 7.45733 62.5984 7.40045 62.6993 7.29894C62.8002 7.19743 62.8576 7.05951 62.859 6.91521Z" fill="white"/>
<path d="M68.3455 6.04942V8.33454C68.349 8.53489 68.3132 8.73394 68.2402 8.92007C68.1671 9.1062 68.0584 9.27568 67.9202 9.41862C67.782 9.56156 67.6172 9.67509 67.4353 9.75259C67.2535 9.83009 67.0583 9.87001 66.8611 9.87001C66.6639 9.87001 66.4687 9.83009 66.2869 9.75259C66.105 9.67509 65.9402 9.56156 65.802 9.41862C65.6639 9.27568 65.5551 9.1062 65.482 8.92007C65.409 8.73394 65.3732 8.53489 65.3767 8.33454V6.04942C65.3767 5.959 65.412 5.87229 65.4749 5.80835C65.5379 5.74442 65.6232 5.7085 65.7121 5.7085C65.8011 5.7085 65.8865 5.74442 65.9494 5.80835C66.0123 5.87229 66.0476 5.959 66.0476 6.04942V8.33454C66.0476 8.55536 66.134 8.76713 66.2876 8.92327C66.4413 9.07941 66.6496 9.16713 66.8669 9.16713C67.0842 9.16713 67.2926 9.07941 67.4462 8.92327C67.5999 8.76713 67.6862 8.55536 67.6862 8.33454V6.04942C67.6857 6.00527 67.6938 5.96145 67.7102 5.92054C67.7265 5.87964 67.7508 5.84248 67.7815 5.81125C67.8122 5.78003 67.8488 5.75538 67.889 5.73874C67.9293 5.72211 67.9724 5.71383 68.0159 5.7144C68.0593 5.71383 68.1024 5.72211 68.1427 5.73874C68.1829 5.75538 68.2195 5.78003 68.2502 5.81125C68.2809 5.84248 68.3052 5.87964 68.3216 5.92054C68.3379 5.96145 68.3461 6.00527 68.3455 6.04942Z" fill="white"/>
<path d="M74.2672 9.4353C74.279 9.47641 74.2826 9.51955 74.2776 9.5621C74.2725 9.60465 74.2591 9.64573 74.238 9.68284C74.217 9.71995 74.1887 9.75232 74.1549 9.778C74.1211 9.80368 74.0826 9.82212 74.0417 9.83222H74.0249C74.0193 9.83222 74.0193 9.83222 74.0142 9.84356H73.9756C73.8987 9.8429 73.8244 9.81534 73.7651 9.76551C73.7058 9.71568 73.6652 9.64663 73.6501 9.56997L73.1991 7.33494L72.3692 9.59785C72.3471 9.66614 72.3044 9.72561 72.2471 9.76777C72.1898 9.80993 72.1209 9.83262 72.0502 9.83262C71.9794 9.83262 71.9105 9.80993 71.8533 9.76777C71.796 9.72561 71.7533 9.66614 71.7312 9.59785L70.9998 7.44125L70.6148 9.56997C70.6027 9.64849 70.563 9.71994 70.5033 9.77122C70.4435 9.82251 70.3676 9.8502 70.2893 9.84923C70.2726 9.84923 70.2507 9.84356 70.2345 9.84356C70.1903 9.83705 70.1482 9.82061 70.1111 9.79543C70.074 9.77025 70.0429 9.73697 70.0201 9.69802C69.9936 9.66378 69.9749 9.62396 69.9654 9.58146C69.9559 9.53895 69.9559 9.49483 69.9652 9.45231L70.5316 5.98825C70.5457 5.91284 70.5842 5.84439 70.641 5.79378C70.6977 5.74318 70.7696 5.71333 70.845 5.70898H70.8724C70.9434 5.70894 71.0125 5.7318 71.0698 5.77426C71.1272 5.81673 71.1697 5.8766 71.1914 5.94525L72.0599 8.43166L72.9671 5.9339C72.9883 5.86708 73.0304 5.8091 73.0869 5.76876C73.1435 5.72843 73.2114 5.70794 73.2805 5.7104H73.2972C73.3723 5.7109 73.4447 5.73881 73.5012 5.78903C73.5577 5.83926 73.5945 5.90845 73.605 5.98399L74.2672 9.4353Z" fill="white"/>
</g>
</svg>
