<svg width="75" height="21" viewBox="0 0 75 21" fill="none" xmlns="http://www.w3.org/2000/svg">
<mask id="mask0_2057_109727" style="mask-type:luminance" maskUnits="userSpaceOnUse" x="0" y="0" width="75" height="21">
<path d="M74.2289 0.80957H0.228271V20.5856H74.2289V0.80957Z" fill="white"/>
</mask>
<g mask="url(#mask0_2057_109727)">
<path d="M8.26711 3.80279L1.51205 0.885432C1.37175 0.824745 1.21883 0.800347 1.06698 0.814422C0.915126 0.828497 0.769076 0.880606 0.641892 0.966086C0.514709 1.05157 0.410359 1.16775 0.338177 1.30425C0.265996 1.44075 0.228235 1.5933 0.228272 1.74826V9.25665C0.228267 9.41629 0.266328 9.57356 0.339195 9.71499C0.412063 9.85642 0.517568 9.97779 0.64668 10.0687C0.775791 10.1597 0.924664 10.2175 1.08055 10.2372C1.23645 10.2569 1.39471 10.2379 1.54181 10.1818L6.02363 8.47415L1.16797 6.4182C1.09845 6.38553 1.04408 6.32675 1.01629 6.2542C0.988498 6.18166 0.989443 6.101 1.01893 6.02915C1.04841 5.9573 1.10414 5.89986 1.17441 5.86887C1.24468 5.83789 1.32404 5.83578 1.39581 5.86299L6.83593 8.16512L8.36521 7.58202C10.9821 6.65966 11.1183 4.81682 8.26757 3.80184M8.90737 6.19092C8.87715 6.26437 8.81952 6.32267 8.74711 6.35304C8.67469 6.38342 8.59338 6.3834 8.52098 6.35299L1.05731 3.19418C1.02144 3.17901 0.988855 3.1568 0.961426 3.12883C0.933997 3.10087 0.912257 3.06768 0.897448 3.03118C0.867539 2.95745 0.867675 2.87467 0.897826 2.80104C0.927977 2.72741 0.985673 2.66897 1.05822 2.63858C1.13077 2.60818 1.21223 2.60832 1.28468 2.63896L8.74788 5.79872C8.78382 5.81388 8.81647 5.83609 8.84395 5.86409C8.87143 5.89209 8.8932 5.92532 8.90802 5.96189C8.92284 5.99845 8.9304 6.03763 8.93029 6.07718C8.93018 6.11672 8.92239 6.15586 8.90737 6.19233" fill="#CC0066"/>
<path d="M44.4907 12.8223C44.4951 13.0485 44.4605 13.2736 44.3884 13.4876C44.3276 13.665 44.2286 13.8265 44.0987 13.9601C43.9717 14.0871 43.8178 14.1828 43.6487 14.2399C43.4603 14.3028 43.2629 14.3336 43.0646 14.3311C42.9717 14.3311 42.8618 14.3268 42.735 14.3183C42.6155 14.3116 42.4976 14.2874 42.3849 14.2465C42.327 14.2349 42.275 14.2032 42.2377 14.1568C42.2004 14.1104 42.1803 14.0522 42.1807 13.9923V11.6358C42.178 11.5903 42.193 11.5454 42.2226 11.5111C42.2541 11.4789 42.2927 11.455 42.3351 11.4411C42.4457 11.4061 42.5596 11.3833 42.675 11.3731C42.7959 11.3618 42.9134 11.3561 43.0275 11.3561C43.2295 11.3538 43.4306 11.3838 43.6235 11.4449C43.7969 11.4991 43.9558 11.5925 44.0885 11.718C44.2202 11.8469 44.322 12.0039 44.3866 12.1778C44.4613 12.3838 44.4975 12.6023 44.493 12.8218M44.0053 12.8261C44.0089 12.6634 43.9842 12.5014 43.9323 12.3474C43.8895 12.2243 43.8195 12.1128 43.7277 12.0214C43.6396 11.9362 43.5342 11.8717 43.419 11.8324C43.2959 11.7907 43.1669 11.7699 43.0372 11.771C42.9085 11.7687 42.78 11.7802 42.6536 11.805V13.8812C42.7174 13.8963 42.7822 13.9062 42.8475 13.911C42.9185 13.9167 42.9915 13.9195 43.0665 13.9195C43.1955 13.9283 43.3248 13.9081 43.4454 13.8605C43.5659 13.8129 43.6746 13.739 43.764 13.644C43.9397 13.4104 44.0251 13.1194 44.0039 12.8261" fill="#CC0066"/>
<path d="M44.9833 11.3944C44.9822 11.3567 44.9885 11.3191 45.0017 11.2838C45.015 11.2486 45.0349 11.2163 45.0605 11.1889C45.0865 11.1613 45.118 11.1397 45.1529 11.1255C45.1877 11.1112 45.2252 11.1047 45.2627 11.1062C45.2996 11.105 45.3363 11.1117 45.3705 11.1259C45.4046 11.1402 45.4354 11.1616 45.4608 11.1889C45.5105 11.2454 45.538 11.3186 45.538 11.3944C45.538 11.4702 45.5105 11.5434 45.4608 11.6C45.4354 11.6272 45.4046 11.6486 45.3705 11.6629C45.3363 11.6771 45.2996 11.6839 45.2627 11.6826C45.2252 11.6842 45.1877 11.6776 45.1529 11.6633C45.118 11.6491 45.0865 11.6275 45.0605 11.6C45.0349 11.5725 45.015 11.5403 45.0017 11.505C44.9885 11.4697 44.9822 11.4321 44.9833 11.3944ZM45.4919 14.2673C45.4642 14.2784 45.4356 14.2869 45.4064 14.2929C45.3661 14.3016 45.3249 14.3059 45.2836 14.3056C45.2162 14.3113 45.1491 14.2925 45.094 14.2527C45.0719 14.2296 45.0551 14.2019 45.0447 14.1716C45.0342 14.1412 45.0304 14.1089 45.0335 14.0769V12.0833L45.1209 12.0602C45.1618 12.0498 45.2038 12.0449 45.246 12.0455C45.3122 12.0401 45.3782 12.0589 45.432 12.0985C45.4536 12.1226 45.4699 12.1512 45.4799 12.1822C45.4899 12.2132 45.4934 12.246 45.4901 12.2785L45.4919 14.2673Z" fill="#CC0066"/>
<path d="M47.4745 14.0676C47.411 14.1084 47.3423 14.1402 47.2704 14.1621C47.1768 14.1894 47.0798 14.2023 46.9825 14.2004C46.8572 14.2012 46.7327 14.1811 46.6138 14.1408C46.4992 14.1017 46.3945 14.0371 46.3074 13.9518C46.2136 13.858 46.1424 13.7436 46.0991 13.6173C46.0448 13.4528 46.0195 13.2799 46.0242 13.1065C46.0211 12.9443 46.0465 12.7829 46.0991 12.6297C46.1444 12.5004 46.2178 12.3831 46.3139 12.2867C46.4081 12.1942 46.5202 12.1227 46.6431 12.0769C46.7802 12.0271 46.9249 12.0027 47.0704 12.005C47.2047 12.0038 47.3383 12.0238 47.4666 12.0641C47.5728 12.0967 47.6739 12.1444 47.7669 12.2059C47.8115 12.237 47.8497 12.2766 47.8795 12.3226C47.9087 12.3716 47.9232 12.4283 47.9213 12.4856V14.3365C47.925 14.4759 47.8995 14.6146 47.8465 14.7433C47.8 14.8516 47.7276 14.9463 47.6358 15.0188C47.5401 15.0919 47.4308 15.1444 47.3145 15.1733C47.1842 15.2061 47.0503 15.222 46.916 15.2206C46.7866 15.2226 46.6576 15.2067 46.5324 15.1733C46.4485 15.1514 46.3674 15.1197 46.2907 15.0788C46.231 15.0418 46.1872 14.9834 46.168 14.9151C46.1487 14.8469 46.1553 14.7738 46.1865 14.7102C46.2059 14.6736 46.2346 14.6429 46.2697 14.6214C46.3516 14.6801 46.4416 14.7265 46.5366 14.7589C46.6517 14.8005 46.773 14.8213 46.8951 14.8203C47.0469 14.8297 47.1973 14.7871 47.3224 14.6994C47.376 14.6514 47.4176 14.5913 47.4441 14.5239C47.4705 14.4565 47.4809 14.3837 47.4745 14.3114V14.0676ZM47.0449 13.8134C47.1313 13.8158 47.2174 13.7997 47.2973 13.7661C47.36 13.7388 47.4172 13.7 47.4661 13.6518V12.5125C47.416 12.4803 47.3621 12.4547 47.3057 12.4364C47.2322 12.4126 47.1554 12.4011 47.0783 12.4024C46.9984 12.3992 46.9188 12.413 46.8444 12.4429C46.7701 12.4729 46.7028 12.5183 46.6468 12.5763C46.5266 12.7229 46.4675 12.9115 46.4822 13.1018C46.4797 13.2137 46.4944 13.3253 46.5259 13.4325C46.5502 13.5139 46.5914 13.589 46.6468 13.6527C46.6955 13.7073 46.7562 13.7494 46.824 13.7756C46.8947 13.8018 46.9696 13.8143 47.0449 13.8134Z" fill="#CC0066"/>
<path d="M48.4938 11.3944C48.4927 11.3567 48.499 11.3191 48.5122 11.2838C48.5255 11.2486 48.5454 11.2163 48.571 11.1889C48.597 11.1613 48.6285 11.1397 48.6634 11.1255C48.6982 11.1112 48.7357 11.1047 48.7732 11.1062C48.8101 11.1049 48.8468 11.1117 48.881 11.1259C48.9151 11.1402 48.9459 11.1616 48.9713 11.1889C49.021 11.2454 49.0485 11.3186 49.0485 11.3944C49.0485 11.4702 49.021 11.5434 48.9713 11.6C48.9459 11.6272 48.9151 11.6487 48.881 11.6629C48.8468 11.6772 48.8101 11.6839 48.7732 11.6826C48.7357 11.6842 48.6982 11.6776 48.6634 11.6633C48.6285 11.6491 48.597 11.6275 48.571 11.6C48.5454 11.5725 48.5254 11.5403 48.5122 11.505C48.4989 11.4697 48.4927 11.4321 48.4938 11.3944ZM49.0024 14.2673C48.9747 14.2783 48.9461 14.2869 48.9169 14.2929C48.8764 14.3017 48.8351 14.306 48.7937 14.3056C48.7263 14.3113 48.6591 14.2925 48.604 14.2527C48.5819 14.2296 48.5651 14.202 48.5546 14.1716C48.5442 14.1412 48.5404 14.1089 48.5435 14.0769V12.0833L48.6309 12.0602C48.6718 12.0498 48.7139 12.0449 48.756 12.0455C48.8222 12.0401 48.8882 12.0589 48.942 12.0985C48.9636 12.1226 48.9799 12.1512 48.9899 12.1822C48.9999 12.2132 49.0034 12.246 49.0001 12.2785L49.0024 14.2673Z" fill="#CC0066"/>
<path d="M50.1956 13.8706C50.2728 13.9215 50.364 13.946 50.456 13.9406C50.5096 13.9401 50.5629 13.9323 50.6145 13.9174C50.6651 13.9039 50.7141 13.8848 50.7605 13.8602C50.7808 13.8869 50.799 13.9152 50.8149 13.9448C50.8421 13.9999 50.8476 14.0634 50.8303 14.1225C50.8131 14.1816 50.7743 14.2318 50.7219 14.2628C50.6145 14.3234 50.4921 14.3513 50.3695 14.3431C50.181 14.3529 49.995 14.2969 49.8422 14.1844C49.7717 14.1194 49.717 14.0385 49.6826 13.9483C49.6483 13.8581 49.6351 13.7609 49.6441 13.6646V11.4655C49.6745 11.4547 49.7056 11.4462 49.7371 11.44C49.7783 11.4313 49.8202 11.427 49.8622 11.4272C49.9274 11.4218 49.9924 11.4399 50.0459 11.4782C50.0674 11.5012 50.0837 11.5287 50.0937 11.5587C50.1038 11.5887 50.1073 11.6206 50.104 11.6521V12.118H50.7879C50.8015 12.1437 50.8127 12.1706 50.8214 12.1984C50.8328 12.2339 50.8384 12.2711 50.8382 12.3085C50.8382 12.4414 50.7839 12.5077 50.6754 12.5074H50.104V13.6306C50.0993 13.6752 50.1052 13.7203 50.1214 13.762C50.1376 13.8037 50.1636 13.8408 50.197 13.8702" fill="#CC0066"/>
<path d="M52.0716 12.0049C52.3033 11.9919 52.5326 12.0585 52.7226 12.1939C52.8068 12.2676 52.8726 12.3605 52.9146 12.4651C52.9567 12.5696 52.9737 12.6828 52.9643 12.7954V13.8931C52.9682 13.9526 52.9518 14.0116 52.9179 14.0603C52.8816 14.1037 52.8395 14.1415 52.7928 14.1728C52.7008 14.2252 52.6026 14.2659 52.5008 14.2938C52.3635 14.3313 52.2217 14.3492 52.0795 14.3467C51.8446 14.3605 51.6116 14.2974 51.4146 14.1666C51.3348 14.1056 51.2712 14.0255 51.2293 13.9334C51.1874 13.8413 51.1687 13.7401 51.1747 13.6388C51.1695 13.551 51.1835 13.4631 51.2157 13.3814C51.2478 13.2998 51.2973 13.2263 51.3607 13.1663C51.5144 13.0441 51.7014 12.973 51.8963 12.9627L52.5091 12.8946V12.793C52.5141 12.7363 52.5053 12.6792 52.4835 12.6267C52.4617 12.5742 52.4275 12.528 52.3841 12.492C52.2816 12.4239 52.1604 12.3908 52.0381 12.3975C51.9237 12.3971 51.81 12.4141 51.7006 12.4481C51.6 12.4788 51.5022 12.5185 51.4086 12.5667C51.3792 12.539 51.354 12.5072 51.3337 12.4722C51.3112 12.434 51.2997 12.3902 51.3004 12.3456C51.3012 12.3011 51.3141 12.2577 51.3379 12.2203C51.3686 12.1804 51.4087 12.149 51.4546 12.1291C51.5438 12.0851 51.6384 12.0533 51.7359 12.0346C51.8465 12.0129 51.959 12.0023 52.0716 12.003M52.08 13.9606C52.1715 13.9624 52.2628 13.951 52.3511 13.9266C52.4078 13.9126 52.4616 13.8881 52.5096 13.8543V13.257L52.0344 13.3081C51.9267 13.3154 51.8223 13.3488 51.7299 13.4054C51.696 13.4313 51.6691 13.4654 51.6516 13.5046C51.6342 13.5439 51.6267 13.5869 51.6299 13.6299C51.628 13.6759 51.6369 13.7218 51.6557 13.7637C51.6745 13.8057 51.7028 13.8425 51.7382 13.8713C51.8392 13.9389 51.9595 13.9701 52.08 13.9602" fill="#CC0066"/>
<path d="M53.8352 14.3058C53.7691 14.3104 53.7034 14.2917 53.6492 14.2529C53.6265 14.2302 53.6091 14.2026 53.5983 14.1722C53.5874 14.1418 53.5834 14.1093 53.5865 14.0771V11.2211L53.6739 11.198C53.7148 11.1876 53.7568 11.1827 53.799 11.1833C53.8648 11.1787 53.9302 11.1965 53.9849 11.2339C54.0077 11.2561 54.0253 11.2833 54.0361 11.3135C54.047 11.3436 54.051 11.3759 54.0477 11.4078V14.268C54.0226 14.2765 53.9916 14.285 53.9547 14.2935C53.915 14.3024 53.8745 14.3067 53.8338 14.3063" fill="#CC0066"/>
<path d="M56.1423 13.2926V14.2674C56.1108 14.2777 56.0788 14.2862 56.0465 14.2929C56.0053 14.3017 55.9634 14.3059 55.9214 14.3057C55.8523 14.3117 55.7834 14.2921 55.7275 14.2504C55.7054 14.226 55.6886 14.1971 55.6782 14.1657C55.6678 14.1343 55.664 14.101 55.6671 14.068V11.6397C55.6643 11.5941 55.6794 11.5493 55.7089 11.5149C55.7404 11.4828 55.779 11.4588 55.8214 11.445C55.928 11.4085 56.0386 11.385 56.1506 11.3751C56.2746 11.3625 56.3927 11.3562 56.5049 11.3562C56.8103 11.3308 57.1138 11.4231 57.3553 11.6147C57.4482 11.705 57.5208 11.8146 57.5683 11.936C57.6158 12.0574 57.6371 12.1878 57.6306 12.3182C57.6364 12.4494 57.6149 12.5804 57.5675 12.7025C57.52 12.8246 57.4477 12.9352 57.3553 13.027C57.1246 13.2216 56.8285 13.3173 56.5296 13.294L56.1423 13.2926ZM56.5049 12.8815C56.6741 12.8913 56.8414 12.8412 56.9783 12.7397C57.0374 12.688 57.0838 12.6229 57.1138 12.5498C57.1438 12.4766 57.1566 12.3973 57.1512 12.3182C57.1578 12.2407 57.1463 12.1628 57.1177 12.0906C57.0891 12.0184 57.0442 11.9541 56.9866 11.9029C56.8477 11.8066 56.6811 11.7604 56.5133 11.7715C56.4494 11.7715 56.384 11.7744 56.3171 11.78C56.2568 11.7848 56.1969 11.7933 56.1376 11.8055V12.882L56.5049 12.8815Z" fill="#CC0066"/>
<path d="M58.888 12.0049C59.1197 11.9918 59.349 12.0584 59.539 12.1939C59.6232 12.2675 59.6891 12.3605 59.7311 12.4651C59.7731 12.5696 59.7901 12.6828 59.7807 12.7954V13.8931C59.7846 13.9526 59.7682 14.0116 59.7342 14.0603C59.698 14.1037 59.6559 14.1415 59.6092 14.1728C59.5171 14.2252 59.419 14.2658 59.3172 14.2938C59.1799 14.3314 59.0381 14.3492 58.8959 14.3467C58.661 14.3605 58.428 14.2974 58.231 14.1666C58.1512 14.1056 58.0876 14.0255 58.0457 13.9334C58.0038 13.8413 57.9851 13.7401 57.9911 13.6388C57.9859 13.551 57.9999 13.4631 58.0321 13.3814C58.0642 13.2998 58.1137 13.2263 58.1771 13.1663C58.3307 13.044 58.5178 12.9729 58.7127 12.9627L59.3255 12.8946V12.793C59.3305 12.7363 59.3218 12.6792 59.2999 12.6267C59.2781 12.5742 59.244 12.5279 59.2004 12.492C59.098 12.4239 58.9768 12.3908 58.8545 12.3975C58.7402 12.3971 58.6264 12.4141 58.517 12.4481C58.4164 12.4788 58.3187 12.5185 58.225 12.5667C58.1956 12.539 58.1704 12.5072 58.1501 12.4722C58.1276 12.434 58.1161 12.3902 58.1168 12.3456C58.1176 12.3011 58.1305 12.2577 58.1543 12.2203C58.185 12.1804 58.2251 12.149 58.271 12.1291C58.3602 12.0851 58.4548 12.0533 58.5523 12.0346C58.6629 12.0129 58.7753 12.0023 58.888 12.003M58.8964 13.9606C58.9879 13.9624 59.0791 13.951 59.1674 13.9266C59.2242 13.9126 59.278 13.8881 59.326 13.8543V13.257L58.8508 13.3081C58.7431 13.3154 58.6387 13.3487 58.5462 13.4054C58.5124 13.4313 58.4855 13.4654 58.468 13.5046C58.4506 13.5439 58.4431 13.5869 58.4463 13.6299C58.4445 13.6759 58.4533 13.7218 58.4721 13.7637C58.4909 13.8057 58.5192 13.8425 58.5546 13.8713C58.6556 13.9388 58.7759 13.9701 58.8964 13.9602" fill="#CC0066"/>
<path d="M60.7695 13.7625C60.6945 13.6072 60.6035 13.3883 60.4966 13.1057C60.3897 12.8232 60.2875 12.5039 60.1902 12.1479C60.22 12.1124 60.2561 12.0829 60.2967 12.061C60.3394 12.0371 60.3874 12.0247 60.4361 12.0251C60.4927 12.0223 60.5485 12.039 60.5947 12.0723C60.6444 12.1179 60.6792 12.1777 60.6947 12.2439C60.7753 12.4981 60.858 12.7488 60.943 12.9961C61.0279 13.2434 61.1217 13.4984 61.2243 13.7611H61.241C61.2853 13.6594 61.3305 13.5414 61.3763 13.4072C61.4222 13.273 61.4667 13.1303 61.5098 12.9791C61.5529 12.8279 61.5939 12.6746 61.633 12.5193C61.6721 12.364 61.7068 12.2158 61.7371 12.0747C61.7653 12.0605 61.7946 12.0485 61.8246 12.0388C61.8597 12.0283 61.8962 12.0234 61.9329 12.0241C61.9907 12.0219 62.0477 12.0384 62.0956 12.0714C62.1185 12.0895 62.1365 12.1131 62.1481 12.1401C62.1597 12.1671 62.1646 12.1966 62.1621 12.2259C62.1554 12.352 62.1351 12.4771 62.1017 12.5987C62.0614 12.7654 62.0093 12.9504 61.9455 13.1539C61.8816 13.3574 61.8086 13.5622 61.7264 13.7682C61.6443 13.9745 61.5615 14.1582 61.4782 14.3192C61.3675 14.5427 61.2347 14.7542 61.082 14.9505C61.0442 15.0089 60.9945 15.0584 60.9363 15.0957C60.878 15.1329 60.8126 15.157 60.7444 15.1664C60.7087 15.1685 60.673 15.1632 60.6393 15.1509C60.6057 15.1385 60.5748 15.1194 60.5487 15.0946C60.5 15.0449 60.4675 14.9813 60.4557 14.9122C60.5102 14.8624 60.5617 14.8094 60.6101 14.7534C60.6655 14.6904 60.7212 14.6227 60.777 14.5502C60.8328 14.4778 60.8862 14.4036 60.9374 14.3277C60.9858 14.2566 61.0283 14.1815 61.0643 14.1032C61.01 14.0832 60.9609 14.0509 60.9206 14.0087C60.8566 13.9346 60.8052 13.8501 60.7686 13.7588" fill="#CC0066"/>
<path d="M65.056 12.499C64.972 12.4317 64.8666 12.3981 64.7598 12.4045C64.68 12.4041 64.6009 12.4201 64.5273 12.4517C64.4522 12.4841 64.3831 12.5292 64.3228 12.585C64.3284 12.6115 64.3326 12.6383 64.3353 12.6653C64.3381 12.6936 64.3395 12.722 64.3395 12.7499V14.2671C64.3118 14.2782 64.2831 14.2867 64.2539 14.2927C64.215 14.3013 64.1752 14.3056 64.1353 14.3054C64.0672 14.3108 63.9994 14.2921 63.9433 14.2525C63.9207 14.2297 63.9034 14.2022 63.8926 14.1718C63.8819 14.1413 63.8779 14.1089 63.881 14.0767V12.8009C63.8859 12.7454 63.8787 12.6896 63.86 12.6372C63.8413 12.5849 63.8115 12.5374 63.7727 12.498C63.6887 12.4307 63.5833 12.3971 63.4765 12.4035C63.3971 12.403 63.3183 12.4175 63.244 12.446C63.1797 12.4706 63.1183 12.5023 63.0608 12.5405V14.2695C63.0331 14.2806 63.0045 14.2891 62.9753 14.295C62.9348 14.3038 62.8934 14.3081 62.852 14.3078C62.7859 14.3125 62.7202 14.2938 62.6661 14.2549C62.6434 14.2322 62.6259 14.2046 62.6151 14.1742C62.6042 14.1438 62.6002 14.1113 62.6033 14.0791V12.5283C62.6002 12.4671 62.6139 12.4062 62.6428 12.3525C62.6777 12.2998 62.7222 12.2544 62.7739 12.2188C62.9892 12.0825 63.2373 12.0093 63.4909 12.0071C63.6175 12.0048 63.7435 12.0256 63.8629 12.0685C63.966 12.1059 64.0589 12.1676 64.134 12.2485C64.2214 12.1767 64.319 12.1189 64.4236 12.077C64.5492 12.028 64.683 12.0042 64.8175 12.0071C64.9277 12.0063 65.0373 12.0222 65.1429 12.0543C65.2375 12.0822 65.3251 12.1306 65.3996 12.1961C65.4727 12.2629 65.5304 12.3453 65.5684 12.4375C65.6127 12.5485 65.6341 12.6675 65.6312 12.7872V14.2704C65.6006 14.2805 65.5696 14.2891 65.5382 14.296C65.4993 14.3046 65.4595 14.3089 65.4196 14.3087C65.3535 14.3133 65.2878 14.2946 65.2336 14.2558C65.211 14.2331 65.1935 14.2055 65.1827 14.1751C65.1718 14.1447 65.1678 14.1122 65.1709 14.08V12.8042C65.1759 12.7487 65.1688 12.6928 65.15 12.6404C65.1313 12.5881 65.1014 12.5406 65.0625 12.5013" fill="#CC0066"/>
<path d="M66.5938 13.4239C66.6206 13.5818 66.7055 13.7234 66.8314 13.8199C66.9671 13.9107 67.1275 13.9558 67.2898 13.9489C67.4046 13.9503 67.5185 13.9294 67.6256 13.8874C67.7129 13.8539 67.7962 13.8105 67.8739 13.758C67.9119 13.7781 67.9437 13.8085 67.9658 13.8459C67.9879 13.8832 67.9993 13.9261 67.9989 13.9697C67.9984 14.0248 67.9777 14.0777 67.9408 14.118C67.8963 14.1675 67.8424 14.2072 67.7823 14.2347C67.708 14.2699 67.63 14.2962 67.5498 14.3132C67.2999 14.3647 67.0411 14.3484 66.7993 14.2659C66.6649 14.218 66.5425 14.1406 66.4408 14.0391C66.3372 13.9338 66.2578 13.8065 66.2084 13.6663C66.1516 13.5023 66.124 13.3293 66.127 13.1555C66.1238 12.9862 66.1499 12.8176 66.2042 12.6575C66.25 12.524 66.3233 12.4019 66.419 12.2993C66.5102 12.2036 66.6203 12.1285 66.7421 12.0791C66.8674 12.028 67.0014 12.0022 67.1364 12.003C67.2685 12.0012 67.3996 12.0264 67.5219 12.0772C67.634 12.1239 67.7356 12.1933 67.8205 12.2811C67.9055 12.3689 67.972 12.4733 68.0161 12.588C68.0643 12.7121 68.0883 12.8445 68.0868 12.9778C68.0895 13.009 68.0861 13.0405 68.0768 13.0703C68.0675 13.1002 68.0524 13.1279 68.0324 13.1517C67.9897 13.1917 67.9357 13.2168 67.878 13.2235L66.5938 13.4239ZM67.136 12.3843C67.0604 12.3826 66.9854 12.3973 66.916 12.4277C66.8466 12.458 66.7845 12.5032 66.7338 12.5601C66.6188 12.6992 66.5587 12.8767 66.565 13.0582L67.6488 12.8928C67.6412 12.76 67.5907 12.6334 67.5051 12.5327C67.4582 12.4819 67.4009 12.4422 67.3371 12.4166C67.2734 12.3909 67.2044 12.3799 67.136 12.3843Z" fill="#CC0066"/>
<path d="M69.8299 12.5113C69.7372 12.435 69.6199 12.3965 69.5007 12.4031C69.4073 12.4016 69.3142 12.416 69.2254 12.4456C69.1533 12.4705 69.0836 12.5022 69.0171 12.5401V14.2691C68.9894 14.2801 68.9608 14.2887 68.9316 14.2946C68.8911 14.3034 68.8498 14.3077 68.8084 14.3074C68.7422 14.312 68.6765 14.2933 68.6224 14.2544C68.5997 14.2317 68.5823 14.2042 68.5714 14.1738C68.5606 14.1434 68.5565 14.1109 68.5596 14.0787V12.5278C68.5567 12.4667 68.5704 12.4059 68.5992 12.3521C68.6342 12.2993 68.6788 12.2539 68.7307 12.2183C68.8333 12.1597 68.9416 12.1122 69.0539 12.0766C69.1987 12.0295 69.3501 12.0067 69.5021 12.009C69.7421 11.9951 69.9791 12.0679 70.1712 12.2145C70.2558 12.2923 70.3217 12.3887 70.364 12.4963C70.4063 12.6039 70.4239 12.7199 70.4153 12.8354V14.2719C70.386 14.2825 70.356 14.291 70.3256 14.2974C70.2853 14.3062 70.2441 14.3105 70.2028 14.3102C70.1367 14.3148 70.071 14.2961 70.0168 14.2573C69.9942 14.2345 69.9769 14.207 69.9661 14.1765C69.9553 14.1461 69.9513 14.1137 69.9545 14.0815V12.8529C69.9597 12.7912 69.9516 12.7291 69.9307 12.6709C69.9098 12.6127 69.8768 12.5598 69.8337 12.516" fill="#CC0066"/>
<path d="M71.5789 13.8706C71.6562 13.9214 71.7474 13.9459 71.8393 13.9406C71.893 13.9401 71.9463 13.9323 71.9979 13.9174C72.0485 13.9039 72.0974 13.8847 72.1438 13.8602C72.1642 13.8869 72.1824 13.9152 72.1983 13.9448C72.2256 13.9999 72.2311 14.0635 72.2138 14.1226C72.1965 14.1817 72.1577 14.2318 72.1052 14.2628C71.9978 14.3234 71.8755 14.3513 71.7528 14.3431C71.5644 14.3529 71.3783 14.2969 71.2255 14.1844C71.155 14.1194 71.1003 14.0386 71.0659 13.9483C71.0315 13.8581 71.0184 13.7609 71.0275 13.6646V11.4655C71.0578 11.4547 71.0889 11.4462 71.1205 11.44C71.1616 11.4313 71.2035 11.427 71.2455 11.4272C71.3107 11.4218 71.3758 11.4399 71.4292 11.4782C71.4508 11.5012 71.4672 11.5286 71.4773 11.5586C71.4874 11.5887 71.491 11.6206 71.4878 11.6521V12.118H72.1718C72.1854 12.1437 72.1967 12.1706 72.2053 12.1984C72.2166 12.2339 72.2223 12.2711 72.222 12.3085C72.222 12.4414 72.1677 12.5077 72.0592 12.5074H71.4878V13.6306C71.483 13.6752 71.489 13.7203 71.5052 13.762C71.5214 13.8037 71.5474 13.8408 71.5808 13.8702" fill="#CC0066"/>
<path d="M74.2288 13.6701C74.233 13.7641 74.2154 13.8578 74.1773 13.9436C74.1393 14.0294 74.0819 14.1048 74.0099 14.1639C73.8244 14.2961 73.5998 14.3597 73.3738 14.344C73.2661 14.3448 73.1587 14.3348 73.053 14.3142C72.9679 14.2985 72.8851 14.2715 72.807 14.2339C72.7464 14.2047 72.6925 14.1628 72.6489 14.111C72.6115 14.0676 72.5907 14.0119 72.5903 13.9541C72.5902 13.909 72.6009 13.8646 72.6215 13.8247C72.6426 13.7832 72.6748 13.7486 72.7145 13.725C72.8023 13.7855 72.8957 13.8373 72.9934 13.8795C73.1097 13.9282 73.2346 13.952 73.3603 13.9494C73.4666 13.9564 73.5725 13.9315 73.6648 13.8776C73.6983 13.8551 73.7256 13.8242 73.7438 13.7878C73.7621 13.7515 73.7707 13.7109 73.769 13.6701C73.7708 13.6354 73.7654 13.6006 73.7533 13.5681C73.7411 13.5355 73.7224 13.5059 73.6983 13.4811C73.6375 13.4274 73.5642 13.3902 73.4854 13.3729L73.185 13.2884C73.0219 13.2507 72.8711 13.1712 72.747 13.0573C72.6986 13.0034 72.6613 12.9403 72.6373 12.8715C72.6134 12.8028 72.6033 12.7299 72.6075 12.6571C72.6071 12.5685 72.6256 12.481 72.6619 12.4005C72.6979 12.3203 72.7514 12.2493 72.8182 12.193C72.8942 12.1309 72.9814 12.0842 73.0748 12.0555C73.1882 12.02 73.3063 12.0028 73.4249 12.0045C73.5229 12.0035 73.6208 12.0126 73.7169 12.0319C73.7938 12.0473 73.8687 12.0715 73.9401 12.1042C73.9965 12.129 74.0464 12.1667 74.0861 12.2143C74.1193 12.2539 74.1377 12.3041 74.1382 12.3561C74.1392 12.4005 74.1284 12.4444 74.107 12.4832C74.0878 12.518 74.0614 12.5483 74.0299 12.572C73.9537 12.5282 73.8743 12.4906 73.7923 12.4595C73.6859 12.418 73.5728 12.3971 73.4589 12.3981C73.3572 12.3922 73.256 12.4157 73.1669 12.4657C73.1392 12.4834 73.1156 12.507 73.0979 12.5349C73.0801 12.5629 73.0686 12.5944 73.0642 12.6274C73.0598 12.6603 73.0625 12.6938 73.0722 12.7256C73.0819 12.7573 73.0984 12.7865 73.1204 12.8111C73.1787 12.8621 73.2493 12.8965 73.325 12.9108L73.5835 12.9788C73.7652 13.0219 73.9336 13.11 74.0736 13.2354C74.1272 13.2933 74.1687 13.3616 74.1955 13.4363C74.2224 13.5109 74.2341 13.5903 74.2298 13.6697" fill="#CC0066"/>
<path d="M10.5854 7.00635V15.2788C10.5854 15.8203 10.4219 16.3488 10.117 16.793C9.81209 17.2371 9.38044 17.5755 8.88032 17.7624L1.45664 20.537C1.3398 20.5808 1.21427 20.5953 1.09076 20.5791C0.967241 20.563 0.849392 20.5168 0.747245 20.4444C0.645098 20.372 0.561679 20.2756 0.504092 20.1634C0.446505 20.0511 0.416456 19.9265 0.416504 19.7999V12.7806C0.416742 12.3584 0.544174 11.9465 0.781663 11.6001C1.01915 11.2538 1.35531 10.9896 1.74492 10.8432L8.60645 8.2642C9.68936 7.81861 10.1125 7.54597 10.5858 7.00871" fill="white"/>
<path d="M17.112 9.0996C17.1042 9.40719 16.9818 9.7003 16.7694 9.91961C16.5571 10.1389 16.2706 10.2681 15.9681 10.2809H14.4124C14.3227 10.2831 14.2358 10.2489 14.1708 10.186C14.1059 10.1231 14.0682 10.0366 14.066 9.94542V6.50167C14.0653 6.456 14.0736 6.41064 14.0905 6.3683C14.1074 6.32597 14.1325 6.2875 14.1642 6.2552C14.196 6.2229 14.2339 6.19741 14.2755 6.18025C14.3172 6.16309 14.3618 6.15461 14.4068 6.15531H15.9082C16.1327 6.16738 16.349 6.2454 16.5309 6.37989C16.7127 6.51439 16.8522 6.69959 16.9325 6.91306C17.0128 7.12652 17.0305 7.35908 16.9834 7.58255C16.9362 7.80601 16.8263 8.01078 16.667 8.17204C16.8043 8.2834 16.9155 8.4244 16.9925 8.58483C17.0696 8.74526 17.1101 8.9211 17.112 9.0996ZM14.7262 7.87105L15.8314 7.8597C15.9657 7.85522 16.0932 7.79902 16.1882 7.7025C16.2832 7.60598 16.3385 7.47636 16.3429 7.33993C16.3421 7.2087 16.2912 7.08293 16.2009 6.98912C16.1106 6.89532 15.9879 6.84084 15.8589 6.83716H14.7262V7.87105ZM16.4308 9.0996C16.4216 8.96055 16.3619 8.82992 16.2634 8.73295C16.1649 8.63599 16.0345 8.57958 15.8975 8.57463H14.7536V9.60804H15.93C16.0614 9.60378 16.1862 9.54885 16.2791 9.45441C16.3721 9.35996 16.4261 9.2331 16.4303 9.0996" fill="white"/>
<path d="M19.818 8.57459H19.3177V9.94491C19.3157 10.0351 19.2788 10.1209 19.215 10.1836C19.1512 10.2463 19.0656 10.2809 18.9769 10.2799C18.8895 10.2797 18.8057 10.2443 18.7439 10.1816C18.682 10.1188 18.6471 10.0337 18.6467 9.94491V6.49029C18.6495 6.40037 18.6867 6.31509 18.7503 6.25255C18.8139 6.19 18.899 6.15511 18.9876 6.15527H20.1914C20.5009 6.16214 20.796 6.28942 21.0159 6.51088C21.2358 6.73234 21.3637 7.03109 21.3733 7.34556C21.3676 7.59918 21.2861 7.84504 21.1398 8.05059C20.9935 8.25614 20.7893 8.41168 20.554 8.49663L21.3184 9.76488C21.363 9.84298 21.3759 9.93564 21.3544 10.0232C21.3328 10.1108 21.2786 10.1865 21.2031 10.2341C21.1508 10.2633 21.0922 10.2787 21.0325 10.279C20.9752 10.2789 20.9188 10.264 20.8688 10.2357C20.8188 10.2073 20.7767 10.1664 20.7465 10.1169L19.818 8.57459ZM20.7089 7.35076C20.7026 7.21063 20.6428 7.07851 20.5421 6.9825C20.4415 6.88649 20.308 6.83417 20.17 6.83665H19.3177V7.89274H20.17C20.312 7.89287 20.4483 7.83599 20.5492 7.73449C20.6501 7.63298 20.7075 7.49506 20.7089 7.35076Z" fill="white"/>
<path d="M25.2332 10.2782C24.697 10.2723 24.1849 10.051 23.8089 9.66254C23.4328 9.27409 23.2234 8.75014 23.2263 8.20523C23.2333 7.80405 23.3567 7.41389 23.581 7.08371C23.8054 6.75353 24.1207 6.49803 24.4874 6.34927C24.8541 6.20051 25.2558 6.16512 25.6422 6.24754C26.0287 6.32995 26.3825 6.52651 26.6594 6.81254C26.9363 7.09857 27.1239 7.46133 27.1987 7.85532C27.2735 8.2493 27.2321 8.65695 27.0798 9.02713C26.9274 9.3973 26.6709 9.71351 26.3424 9.93608C26.0139 10.1587 25.628 10.2777 25.2332 10.2782ZM23.875 8.20523C23.8754 8.4788 23.9557 8.74608 24.1057 8.97328C24.2556 9.20047 24.4685 9.37738 24.7174 9.48161C24.9663 9.58585 25.24 9.61273 25.5039 9.55887C25.7678 9.50501 26.0101 9.37282 26.2001 9.17901C26.3901 8.98521 26.5192 8.7385 26.5713 8.47009C26.6233 8.20168 26.5958 7.92362 26.4923 7.67108C26.3888 7.41855 26.2139 7.20288 25.9898 7.05135C25.7657 6.89982 25.5023 6.81924 25.2332 6.8198C24.8732 6.82339 24.529 6.97067 24.2749 7.22986C24.0208 7.48905 23.8772 7.83937 23.875 8.20523Z" fill="white"/>
<path d="M31.985 10.2508C31.9424 10.2676 31.897 10.2756 31.8513 10.2743C31.8057 10.273 31.7607 10.2623 31.7192 10.243C31.6777 10.2237 31.6404 10.1961 31.6095 10.1619C31.5786 10.1277 31.5549 10.0875 31.5396 10.0438L30.6096 7.49218L29.675 10.0438C29.6608 10.0877 29.6378 10.1281 29.6076 10.1625C29.5774 10.197 29.5405 10.2248 29.4993 10.2442C29.458 10.2636 29.4133 10.2742 29.3679 10.2753C29.3225 10.2765 29.2773 10.2681 29.2352 10.2508C29.1918 10.2357 29.152 10.2118 29.118 10.1805C29.084 10.1492 29.0567 10.1113 29.0376 10.0689C29.0186 10.0265 29.0082 9.98069 29.0072 9.93413C29.0061 9.88758 29.0144 9.84129 29.0315 9.79809L30.2739 6.37278C30.3 6.30433 30.3462 6.24567 30.4061 6.2047C30.4661 6.16372 30.5369 6.1424 30.6092 6.1436C30.681 6.14395 30.7512 6.1659 30.8109 6.20667C30.8705 6.24745 30.917 6.30524 30.9444 6.37278L32.1868 9.79809C32.2039 9.84126 32.2122 9.88752 32.2112 9.93406C32.2102 9.98059 32.1999 10.0264 32.1809 10.0688C32.1618 10.1111 32.1345 10.1491 32.1006 10.1804C32.0667 10.2117 32.0269 10.2356 31.9836 10.2508" fill="white"/>
<path d="M33.574 9.94357V6.50644C33.5761 6.41827 33.6115 6.33431 33.6729 6.27194C33.7342 6.20957 33.8169 6.17358 33.9036 6.17142H34.7229C35.018 6.16966 35.3102 6.2305 35.5808 6.35004C35.8408 6.46599 36.0733 6.63746 36.2624 6.8528C36.4511 7.07053 36.5919 7.32669 36.6754 7.60416C36.7589 7.88162 36.7831 8.174 36.7465 8.46174C36.6858 8.96141 36.448 9.42147 36.0775 9.75574C35.7071 10.09 35.2295 10.2756 34.7341 10.2776H33.9041C33.8173 10.2755 33.7347 10.2395 33.6733 10.1771C33.612 10.1148 33.5766 10.0308 33.5744 9.94263M36.0815 8.3833C36.1106 8.19033 36.0976 7.99322 36.0434 7.80591C35.9893 7.61861 35.8953 7.44567 35.7682 7.29934C35.6367 7.15075 35.4754 7.0325 35.2952 6.95255C35.115 6.87259 34.92 6.83278 34.7234 6.83579H34.2342V9.60714H34.7345C35.068 9.6073 35.3899 9.48259 35.6386 9.25683C35.8874 9.03107 36.0456 8.72009 36.0829 8.3833" fill="white"/>
<path d="M40.0121 9.70341C39.8475 9.95602 39.594 10.135 39.3036 10.2035C39.0132 10.2721 38.708 10.225 38.4507 10.072C38.3718 10.0234 38.3135 9.94668 38.2871 9.85682C38.2607 9.76697 38.2682 9.67036 38.308 9.58575C38.3676 9.51564 38.4511 9.47097 38.5418 9.46064C38.6325 9.45031 38.7236 9.47507 38.7971 9.53C38.9111 9.59288 39.0443 9.60941 39.1698 9.57625C39.2953 9.54309 39.4038 9.46271 39.4732 9.35138C39.5115 9.29345 39.5382 9.22839 39.5518 9.15995C39.5654 9.0915 39.5656 9.02101 39.5523 8.9525C39.539 8.88399 39.5126 8.81881 39.4745 8.76069C39.4365 8.70257 39.3875 8.65264 39.3304 8.61377C39.0612 8.44036 39.0515 8.43516 38.7915 8.26175C38.5342 8.09204 38.3537 7.82541 38.2898 7.52049C38.2259 7.21558 38.2838 6.89735 38.4507 6.6358C38.617 6.38526 38.8704 6.20796 39.16 6.1395C39.4497 6.07105 39.7541 6.11651 40.0121 6.26676C40.0884 6.31206 40.1446 6.38544 40.1692 6.47171C40.1938 6.55799 40.1848 6.65057 40.1441 6.7303C40.0896 6.80336 40.0095 6.85228 39.9204 6.86688C39.8313 6.88149 39.74 6.86067 39.6657 6.80874C39.5467 6.74719 39.4091 6.73432 39.2811 6.77278C39.1531 6.81124 39.0444 6.8981 38.9775 7.01549C38.9106 7.13287 38.8906 7.27186 38.9214 7.40383C38.9523 7.53581 39.0318 7.65073 39.1435 7.72496C39.283 7.81427 39.283 7.81426 39.6768 8.07699C39.804 8.16129 39.9135 8.27025 39.9992 8.39763C40.0849 8.52501 40.1451 8.66831 40.1762 8.81932C40.2073 8.97034 40.2088 9.12612 40.1807 9.27774C40.1525 9.42936 40.0952 9.57432 40.0121 9.70341Z" fill="white"/>
<path d="M43.724 8.56457C43.4165 8.58676 43.108 8.59055 42.8001 8.57591V9.94623C42.7982 10.0364 42.7613 10.1222 42.6975 10.1849C42.6337 10.2476 42.5481 10.2823 42.4593 10.2812C42.372 10.2809 42.2884 10.2455 42.2266 10.1827C42.1649 10.12 42.13 10.035 42.1297 9.94623V6.50106C42.1291 6.45691 42.1372 6.41309 42.1536 6.37218C42.17 6.33128 42.1942 6.29412 42.225 6.26289C42.2557 6.23167 42.2922 6.20702 42.3325 6.19038C42.3727 6.17375 42.4159 6.16547 42.4593 6.16604H43.691C43.9979 6.17576 44.2894 6.30551 44.5045 6.52824C44.7195 6.75096 44.8417 7.04948 44.8455 7.36153C44.8406 7.66808 44.7226 7.96158 44.5149 8.18399C44.3072 8.4064 44.025 8.54154 43.724 8.56268M43.6473 6.83655H42.8006V7.89264H43.6473C43.789 7.8918 43.9248 7.8346 44.0255 7.7333C44.1262 7.632 44.1839 7.49465 44.1862 7.35066C44.179 7.21085 44.1189 7.07929 44.0185 6.98348C43.9181 6.88767 43.7851 6.83502 43.6473 6.83655Z" fill="white"/>
<path d="M46.6045 9.94401V6.49081C46.6049 6.40207 46.6397 6.31707 46.7015 6.25433C46.7632 6.19158 46.8468 6.15616 46.9341 6.15579H48.9149C49.0037 6.15465 49.0894 6.18922 49.1532 6.25197C49.2171 6.31472 49.2539 6.40057 49.2558 6.49081C49.2553 6.58251 49.2192 6.67033 49.1554 6.73517C49.0916 6.80002 49.0052 6.83667 48.9149 6.83717H47.2764V7.89326H48.5137C48.5571 7.89268 48.6002 7.90096 48.6405 7.91759C48.6807 7.93423 48.7173 7.95888 48.748 7.99011C48.7787 8.02133 48.803 8.05849 48.8194 8.0994C48.8357 8.1403 48.8439 8.18412 48.8433 8.22827C48.8439 8.27247 48.8358 8.31634 48.8195 8.3573C48.8032 8.39826 48.7789 8.43548 48.7482 8.46675C48.7175 8.49802 48.6809 8.52272 48.6406 8.53938C48.6003 8.55605 48.5571 8.56434 48.5137 8.56377H47.2764V9.59717H48.9149C49.0052 9.59767 49.0916 9.63432 49.1554 9.69917C49.2192 9.76402 49.2553 9.85182 49.2558 9.94353C49.2538 10.0337 49.2169 10.1195 49.1531 10.1822C49.0893 10.245 49.0037 10.2796 48.9149 10.2786H46.9356C46.8482 10.2782 46.7646 10.2428 46.7029 10.18C46.6411 10.1173 46.6062 10.0323 46.6059 9.94353" fill="white"/>
<path d="M54.4291 9.83159C54.079 10.1146 53.6447 10.2682 53.1974 10.2673C52.6593 10.2673 52.1432 10.05 51.7627 9.66336C51.3822 9.27668 51.1685 8.75225 51.1685 8.20541C51.1685 7.65857 51.3822 7.13413 51.7627 6.74746C52.1432 6.36078 52.6593 6.14355 53.1974 6.14355C53.5629 6.14406 53.921 6.24866 54.231 6.4455C54.2699 6.46608 54.3044 6.49445 54.3323 6.52891C54.3602 6.56338 54.3809 6.60322 54.3932 6.64604C54.4056 6.68886 54.4092 6.73377 54.404 6.77808C54.3989 6.82238 54.3849 6.86516 54.363 6.90384C54.3407 6.94215 54.3108 6.97536 54.2753 7.00141C54.2398 7.02746 54.1994 7.04578 54.1566 7.05522C54.1137 7.06467 54.0695 7.06504 54.0265 7.05631C53.9836 7.04758 53.9428 7.02994 53.9069 7.00449C53.6924 6.87501 53.4473 6.80738 53.1978 6.80887C53.0195 6.80887 52.8429 6.84457 52.6782 6.91395C52.5135 6.98332 52.3638 7.08501 52.2378 7.21319C52.1117 7.34137 52.0118 7.49353 51.9436 7.66098C51.8755 7.82844 51.8404 8.0079 51.8406 8.18911C51.8344 8.44864 51.9005 8.70467 52.031 8.9278C52.1616 9.15093 52.3515 9.3321 52.5788 9.45053C52.8061 9.56895 53.0617 9.61982 53.3162 9.59729C53.5707 9.57476 53.8138 9.47974 54.0175 9.32316C54.0495 9.29533 54.0866 9.27425 54.1267 9.26114C54.1668 9.24803 54.209 9.24316 54.2509 9.24681C54.2929 9.25046 54.3337 9.26256 54.371 9.2824C54.4082 9.30224 54.4413 9.32943 54.4681 9.36238C54.524 9.42987 54.5514 9.51714 54.5442 9.60508C54.537 9.69303 54.4957 9.77447 54.4295 9.83159" fill="white"/>
<path d="M59.008 6.48446C59.008 6.52826 58.9995 6.57162 58.9829 6.61203C58.9662 6.65244 58.9419 6.68909 58.9112 6.71986C58.8806 6.75063 58.8442 6.77491 58.8042 6.79128C58.7642 6.80765 58.7215 6.81579 58.6784 6.81522H57.8707V9.94427C57.8707 10.0324 57.8363 10.117 57.7749 10.1793C57.7136 10.2417 57.6304 10.2767 57.5436 10.2767C57.4569 10.2767 57.3737 10.2417 57.3123 10.1793C57.251 10.117 57.2165 10.0324 57.2165 9.94427V6.81428H56.4084C56.3216 6.81428 56.2385 6.77926 56.1771 6.71692C56.1158 6.65458 56.0813 6.57002 56.0813 6.48186C56.0813 6.3937 56.1158 6.30914 56.1771 6.2468C56.2385 6.18446 56.3216 6.14944 56.4084 6.14944H58.6788C58.7223 6.14887 58.7654 6.15715 58.8057 6.17378C58.8459 6.19041 58.8825 6.21507 58.9132 6.24629C58.9439 6.27752 58.9682 6.31467 58.9846 6.35558C59.0009 6.39648 59.0086 6.44031 59.008 6.48446Z" fill="white"/>
<path d="M61.8294 8.57459H61.3291V9.94491C61.3272 10.0351 61.2903 10.1209 61.2265 10.1836C61.1627 10.2463 61.0771 10.2809 60.9883 10.2799C60.9009 10.2797 60.8172 10.2443 60.7553 10.1816C60.6935 10.1188 60.6586 10.0337 60.6582 9.94491V6.49029C60.661 6.40037 60.6981 6.31509 60.7618 6.25255C60.8254 6.19 60.9105 6.15511 60.999 6.15527H62.2033C62.5128 6.16214 62.8079 6.28942 63.0278 6.51088C63.2477 6.73234 63.3757 7.03109 63.3852 7.34556C63.3795 7.59918 63.2981 7.84504 63.1518 8.05059C63.0055 8.25614 62.8012 8.41168 62.566 8.49663L63.3304 9.76488C63.3749 9.84303 63.3877 9.93574 63.3661 10.0233C63.3444 10.1109 63.2901 10.1865 63.2146 10.2341C63.1623 10.2633 63.1036 10.2787 63.0439 10.279C62.9866 10.2789 62.9303 10.264 62.8803 10.2357C62.8302 10.2073 62.7881 10.1664 62.758 10.1169L61.8294 8.57459ZM62.7203 7.35076C62.714 7.21063 62.6542 7.07851 62.5536 6.9825C62.453 6.88649 62.3195 6.83417 62.1814 6.83665H61.3291V7.89274H62.1814C62.3234 7.89287 62.4597 7.83599 62.5606 7.73449C62.6616 7.63298 62.719 7.49506 62.7203 7.35076Z" fill="white"/>
<path d="M68.2069 6.48448V8.7696C68.2103 8.96995 68.1745 9.169 68.1015 9.35513C68.0285 9.54126 67.9197 9.71074 67.7815 9.85368C67.6433 9.99661 67.4785 10.1101 67.2967 10.1876C67.1148 10.2651 66.9196 10.3051 66.7224 10.3051C66.5253 10.3051 66.33 10.2651 66.1482 10.1876C65.9664 10.1101 65.8016 9.99661 65.6634 9.85368C65.5252 9.71074 65.4164 9.54126 65.3434 9.35513C65.2703 9.169 65.2345 8.96995 65.238 8.7696V6.48448C65.238 6.39406 65.2734 6.30735 65.3363 6.24341C65.3992 6.17948 65.4845 6.14355 65.5735 6.14355C65.6624 6.14355 65.7478 6.17948 65.8107 6.24341C65.8736 6.30735 65.909 6.39406 65.909 6.48448V8.7696C65.909 8.99042 65.9953 9.20219 66.1489 9.35833C66.3026 9.51447 66.5109 9.60219 66.7282 9.60219C66.9455 9.60219 67.1539 9.51447 67.3076 9.35833C67.4612 9.20219 67.5475 8.99042 67.5475 8.7696V6.48448C67.547 6.44033 67.5551 6.39651 67.5715 6.3556C67.5879 6.3147 67.6121 6.27754 67.6428 6.24631C67.6736 6.21509 67.7101 6.19044 67.7503 6.1738C67.7906 6.15717 67.8337 6.14889 67.8772 6.14946C67.9206 6.14889 67.9637 6.15717 68.004 6.1738C68.0442 6.19044 68.0808 6.21509 68.1116 6.24631C68.1423 6.27754 68.1665 6.3147 68.1829 6.3556C68.1993 6.39651 68.2074 6.44033 68.2069 6.48448Z" fill="white"/>
<path d="M74.1285 9.87133C74.1404 9.91245 74.1439 9.95559 74.1389 9.99814C74.1339 10.0407 74.1205 10.0818 74.0994 10.1189C74.0783 10.156 74.05 10.1884 74.0162 10.214C73.9825 10.2397 73.944 10.2582 73.903 10.2683H73.8862C73.8807 10.2683 73.8806 10.2683 73.8755 10.2796H73.8369C73.76 10.2789 73.6857 10.2514 73.6264 10.2015C73.5671 10.1517 73.5265 10.0827 73.5115 10.006L73.0605 7.77097L72.2305 10.0339C72.2084 10.1022 72.1657 10.1616 72.1084 10.2038C72.0512 10.246 71.9822 10.2687 71.9115 10.2687C71.8408 10.2687 71.7719 10.246 71.7146 10.2038C71.6573 10.1616 71.6146 10.1022 71.5926 10.0339L70.8612 7.87729L70.4762 10.006C70.464 10.0845 70.4244 10.156 70.3646 10.2073C70.3048 10.2585 70.2289 10.2862 70.1507 10.2853C70.1339 10.2853 70.1121 10.2796 70.0958 10.2796C70.0516 10.2731 70.0095 10.2566 69.9724 10.2315C69.9354 10.2063 69.9043 10.173 69.8815 10.1341C69.8549 10.0998 69.8362 10.06 69.8267 10.0175C69.8173 9.97499 69.8172 9.93087 69.8266 9.88834L70.3929 6.42428C70.407 6.34888 70.4455 6.28042 70.5023 6.22982C70.5591 6.17921 70.6309 6.14937 70.7063 6.14502H70.7337C70.8047 6.14498 70.8738 6.16784 70.9312 6.2103C70.9885 6.25276 71.0311 6.31264 71.0527 6.38128L71.9213 8.8677L72.8284 6.36994C72.8496 6.30311 72.8917 6.24513 72.9483 6.2048C73.0048 6.16446 73.0727 6.14397 73.1418 6.14644H73.1585C73.2336 6.14694 73.306 6.17484 73.3625 6.22507C73.419 6.27529 73.4559 6.34449 73.4663 6.42003L74.1285 9.87133Z" fill="white"/>
</g>
</svg>
