<svg width="78" height="22" viewBox="0 0 78 22" fill="none" xmlns="http://www.w3.org/2000/svg">
<mask id="mask0_2057_110792" style="mask-type:luminance" maskUnits="userSpaceOnUse" x="0" y="0" width="78" height="22">
<path d="M77.2802 0.868164H0.251465V21.4534H77.2802V0.868164Z" fill="white"/>
</mask>
<g mask="url(#mask0_2057_110792)">
<path d="M8.61925 3.98382L1.58777 0.94709C1.44173 0.88392 1.28256 0.858524 1.12449 0.873175C0.966426 0.887825 0.814399 0.942066 0.682011 1.03104C0.549623 1.12002 0.441003 1.24096 0.365868 1.38305C0.290733 1.52513 0.251427 1.68392 0.251465 1.84522V9.66086C0.25146 9.82703 0.291078 9.99073 0.366928 10.138C0.442778 10.2852 0.5526 10.4115 0.686995 10.5062C0.821389 10.6008 0.976354 10.661 1.13862 10.6815C1.30089 10.702 1.46564 10.6822 1.61875 10.6239L6.28398 8.84634L1.22962 6.70626C1.15725 6.67225 1.10066 6.61106 1.07173 6.53555C1.0428 6.46004 1.04378 6.37608 1.07447 6.30129C1.10516 6.2265 1.16317 6.16671 1.23632 6.13445C1.30947 6.1022 1.39207 6.10001 1.46678 6.12833L7.12951 8.52466L8.72137 7.91771C11.4453 6.9576 11.5871 5.03935 8.61973 3.98284M9.28571 6.46968C9.25426 6.54614 9.19427 6.60682 9.11889 6.63844C9.04351 6.67006 8.95888 6.67004 8.88351 6.63838L1.11443 3.35031C1.07709 3.33452 1.04317 3.31141 1.01462 3.28229C0.986069 3.25318 0.963439 3.21864 0.948024 3.18064C0.916891 3.10389 0.917032 3.01772 0.948417 2.94108C0.979802 2.86445 1.03986 2.80362 1.11538 2.77198C1.1909 2.74034 1.27569 2.74048 1.3511 2.77238L9.1197 6.06143C9.15711 6.07721 9.1911 6.10033 9.2197 6.12947C9.24831 6.15862 9.27097 6.19321 9.28639 6.23128C9.30181 6.26934 9.30969 6.31012 9.30957 6.35128C9.30946 6.39245 9.30135 6.43318 9.28571 6.47115" fill="#CC0066"/>
<path d="M46.3252 13.3721C46.3298 13.6075 46.2937 13.8418 46.2187 14.0646C46.1554 14.2493 46.0524 14.4173 45.9172 14.5565C45.785 14.6886 45.6248 14.7883 45.4487 14.8476C45.2526 14.9131 45.0472 14.9452 44.8408 14.9426C44.744 14.9426 44.6296 14.9381 44.4977 14.9293C44.3733 14.9223 44.2505 14.8971 44.1332 14.8545C44.073 14.8425 44.0188 14.8095 43.98 14.7611C43.9412 14.7128 43.9203 14.6523 43.9207 14.5899V12.137C43.9179 12.0896 43.9335 12.0429 43.9643 12.0072C43.9971 11.9737 44.0372 11.9488 44.0814 11.9344C44.1965 11.8979 44.3151 11.8742 44.4352 11.8635C44.5611 11.8517 44.6834 11.8458 44.8021 11.8458C45.0124 11.8435 45.2218 11.8747 45.4226 11.9383C45.603 11.9947 45.7685 12.0919 45.9066 12.2226C46.0437 12.3567 46.1497 12.5202 46.2168 12.7012C46.2947 12.9156 46.3323 13.143 46.3277 13.3716M45.8199 13.376C45.8237 13.2067 45.798 13.038 45.744 12.8777C45.6994 12.7496 45.6266 12.6335 45.531 12.5384C45.4393 12.4497 45.3296 12.3825 45.2096 12.3416C45.0816 12.2982 44.9473 12.2766 44.8123 12.2777C44.6783 12.2754 44.5445 12.2873 44.413 12.3131V14.4743C44.4794 14.49 44.5468 14.5003 44.6148 14.5053C44.6887 14.5112 44.7647 14.5142 44.8428 14.5142C44.9771 14.5233 45.1117 14.5023 45.2371 14.4528C45.3625 14.4032 45.4758 14.3263 45.5688 14.2274C45.7517 13.9842 45.8406 13.6813 45.8185 13.376" fill="#CC0066"/>
<path d="M46.838 11.8857C46.8369 11.8464 46.8435 11.8073 46.8572 11.7706C46.871 11.7339 46.8918 11.7003 46.9184 11.6717C46.9455 11.6431 46.9783 11.6206 47.0145 11.6058C47.0508 11.5909 47.0898 11.5841 47.1289 11.5857C47.1673 11.5844 47.2055 11.5914 47.2411 11.6063C47.2766 11.6211 47.3087 11.6434 47.3351 11.6717C47.3868 11.7306 47.4154 11.8068 47.4154 11.8857C47.4154 11.9646 47.3868 12.0408 47.3351 12.0997C47.3087 12.128 47.2766 12.1503 47.2411 12.1651C47.2055 12.18 47.1673 12.187 47.1289 12.1857C47.0898 12.1873 47.0508 12.1805 47.0145 12.1656C46.9783 12.1508 46.9455 12.1283 46.9184 12.0997C46.8918 12.0711 46.871 12.0375 46.8572 12.0008C46.8434 11.9641 46.8369 11.925 46.838 11.8857ZM47.3675 14.8762C47.3386 14.8877 47.3089 14.8966 47.2785 14.9028C47.2365 14.9119 47.1936 14.9164 47.1507 14.916C47.0805 14.9219 47.0106 14.9024 46.9532 14.861C46.9303 14.8369 46.9128 14.8081 46.9019 14.7765C46.891 14.7449 46.8871 14.7113 46.8903 14.678V12.6028L46.9813 12.5787C47.0239 12.5679 47.0676 12.5628 47.1115 12.5635C47.1804 12.5578 47.2491 12.5774 47.3051 12.6186C47.3275 12.6437 47.3446 12.6734 47.355 12.7057C47.3654 12.738 47.369 12.7722 47.3656 12.806L47.3675 14.8762Z" fill="#CC0066"/>
<path d="M49.431 14.6686C49.365 14.7111 49.2935 14.7442 49.2186 14.767C49.1212 14.7953 49.0202 14.8088 48.919 14.8068C48.7886 14.8076 48.6589 14.7867 48.5352 14.7448C48.4158 14.7041 48.3069 14.6369 48.2162 14.5481C48.1186 14.4505 48.0444 14.3313 47.9994 14.1999C47.9429 14.0286 47.9166 13.8487 47.9215 13.6682C47.9183 13.4993 47.9446 13.3313 47.9994 13.1719C48.0465 13.0372 48.1229 12.9152 48.223 12.8148C48.321 12.7185 48.4377 12.6441 48.5657 12.5964C48.7083 12.5446 48.859 12.5193 49.0105 12.5216C49.1502 12.5204 49.2893 12.5411 49.4228 12.5831C49.5334 12.617 49.6387 12.6667 49.7355 12.7307C49.7819 12.7631 49.8217 12.8044 49.8526 12.8522C49.883 12.9032 49.8982 12.9622 49.8962 13.0219V14.9485C49.9 15.0936 49.8734 15.238 49.8183 15.372C49.77 15.4847 49.6946 15.5833 49.599 15.6587C49.4994 15.7348 49.3856 15.7895 49.2645 15.8195C49.1289 15.8537 48.9895 15.8702 48.8498 15.8687C48.7151 15.8709 48.5807 15.8544 48.4505 15.8195C48.3631 15.7968 48.2787 15.7638 48.1988 15.7212C48.1367 15.6826 48.0912 15.6218 48.0711 15.5508C48.051 15.4798 48.0579 15.4037 48.0904 15.3375C48.1106 15.2994 48.1405 15.2674 48.177 15.2451C48.2623 15.3062 48.3559 15.3544 48.4548 15.3882C48.5746 15.4315 48.7009 15.4531 48.828 15.4521C48.9859 15.4619 49.1426 15.4176 49.2728 15.3262C49.3285 15.2763 49.3719 15.2137 49.3994 15.1435C49.4269 15.0734 49.4377 14.9976 49.431 14.9224V14.6686ZM48.9839 14.404C49.0739 14.4065 49.1634 14.3898 49.2466 14.3548C49.3119 14.3264 49.3714 14.286 49.4223 14.2358V13.0499C49.3702 13.0164 49.3141 12.9898 49.2554 12.9707C49.1789 12.9458 49.0989 12.9339 49.0187 12.9353C48.9355 12.9319 48.8526 12.9463 48.7752 12.9774C48.6979 13.0086 48.6278 13.0559 48.5695 13.1163C48.4444 13.2689 48.3829 13.4652 48.3982 13.6632C48.3955 13.7797 48.4109 13.8959 48.4437 14.0075C48.4689 14.0923 48.5119 14.1704 48.5695 14.2367C48.6202 14.2936 48.6834 14.3374 48.7539 14.3646C48.8276 14.3919 48.9055 14.4049 48.9839 14.404Z" fill="#CC0066"/>
<path d="M50.4918 11.8857C50.4907 11.8464 50.4972 11.8073 50.511 11.7706C50.5248 11.7339 50.5456 11.7003 50.5722 11.6717C50.5993 11.6431 50.6321 11.6206 50.6684 11.6058C50.7046 11.5909 50.7436 11.5841 50.7827 11.5857C50.8211 11.5844 50.8593 11.5914 50.8949 11.6062C50.9304 11.6211 50.9625 11.6434 50.9889 11.6717C51.0406 11.7306 51.0692 11.8068 51.0692 11.8857C51.0692 11.9646 51.0406 12.0408 50.9889 12.0997C50.9625 12.128 50.9304 12.1504 50.8949 12.1652C50.8593 12.18 50.8211 12.187 50.7827 12.1857C50.7436 12.1873 50.7046 12.1805 50.6684 12.1656C50.6321 12.1508 50.5993 12.1283 50.5722 12.0997C50.5456 12.0711 50.5248 12.0375 50.511 12.0008C50.4972 11.9641 50.4907 11.925 50.4918 11.8857ZM51.0213 14.8762C50.9924 14.8877 50.9626 14.8965 50.9322 14.9028C50.8901 14.9119 50.8471 14.9164 50.804 14.916C50.7338 14.922 50.6639 14.9024 50.6065 14.861C50.5836 14.8369 50.5661 14.8081 50.5552 14.7765C50.5443 14.7449 50.5404 14.7113 50.5436 14.678V12.6028L50.6346 12.5787C50.6772 12.5679 50.7209 12.5628 50.7648 12.5635C50.8337 12.5578 50.9024 12.5774 50.9584 12.6186C50.9809 12.6437 50.9979 12.6734 51.0083 12.7057C51.0187 12.738 51.0223 12.7722 51.0189 12.806L51.0213 14.8762Z" fill="#CC0066"/>
<path d="M52.2634 14.4638C52.3438 14.5167 52.4388 14.5422 52.5345 14.5366C52.5903 14.5361 52.6458 14.528 52.6995 14.5125C52.7522 14.4985 52.8032 14.4785 52.8515 14.453C52.8726 14.4808 52.8916 14.5102 52.9081 14.541C52.9364 14.5984 52.9421 14.6645 52.9242 14.726C52.9062 14.7875 52.8658 14.8397 52.8113 14.8721C52.6995 14.9352 52.5721 14.9642 52.4444 14.9557C52.2483 14.9658 52.0546 14.9075 51.8956 14.7904C51.8222 14.7227 51.7653 14.6386 51.7295 14.5447C51.6937 14.4507 51.68 14.3496 51.6894 14.2494V11.9603C51.721 11.9491 51.7534 11.9402 51.7862 11.9337C51.829 11.9246 51.8727 11.9202 51.9164 11.9204C51.9843 11.9148 52.052 11.9336 52.1076 11.9735C52.13 11.9974 52.147 12.026 52.1574 12.0573C52.1679 12.0885 52.1715 12.1217 52.1681 12.1545V12.6395H52.88C52.8941 12.6662 52.9058 12.6942 52.9149 12.7231C52.9267 12.7601 52.9326 12.7988 52.9323 12.8377C52.9323 12.9761 52.8758 13.0451 52.7629 13.0448H52.1681V14.214C52.1632 14.2604 52.1694 14.3073 52.1863 14.3507C52.2031 14.3942 52.2301 14.4328 52.2649 14.4633" fill="#CC0066"/>
<path d="M54.2165 12.521C54.4577 12.5075 54.6964 12.5768 54.8941 12.7178C54.9818 12.7945 55.0503 12.8913 55.094 13.0001C55.1378 13.1089 55.1555 13.2268 55.1458 13.3439V14.4865C55.1498 14.5485 55.1327 14.61 55.0974 14.6606C55.0597 14.7057 55.0159 14.7452 54.9672 14.7777C54.8714 14.8323 54.7693 14.8746 54.6632 14.9036C54.5203 14.9427 54.3727 14.9613 54.2247 14.9587C53.9802 14.9731 53.7376 14.9074 53.5326 14.7713C53.4496 14.7078 53.3833 14.6244 53.3397 14.5285C53.2962 14.4327 53.2766 14.3273 53.2829 14.2219C53.2775 14.1305 53.2921 14.039 53.3256 13.954C53.359 13.8689 53.4106 13.7925 53.4765 13.73C53.6365 13.6028 53.8312 13.5288 54.034 13.518L54.6719 13.4472V13.3415C54.6771 13.2824 54.668 13.223 54.6453 13.1683C54.6226 13.1137 54.587 13.0656 54.5418 13.0282C54.4351 12.9573 54.3089 12.9228 54.1817 12.9298C54.0626 12.9293 53.9442 12.9471 53.8303 12.9824C53.7256 13.0143 53.6238 13.0557 53.5263 13.1059C53.4958 13.0771 53.4696 13.0439 53.4484 13.0075C53.425 12.9677 53.413 12.9221 53.4138 12.8758C53.4145 12.8295 53.4281 12.7843 53.4528 12.7453C53.4847 12.7038 53.5265 12.6711 53.5742 12.6504C53.6671 12.6045 53.7656 12.5714 53.8671 12.552C53.9822 12.5294 54.0992 12.5184 54.2165 12.5191M54.2252 14.5568C54.3205 14.5587 54.4155 14.5468 54.5074 14.5214C54.5665 14.5069 54.6225 14.4814 54.6724 14.4462V13.8245L54.1778 13.8776C54.0657 13.8852 53.957 13.9199 53.8608 13.9789C53.8255 14.0059 53.7975 14.0414 53.7793 14.0822C53.7612 14.123 53.7534 14.1679 53.7567 14.2125C53.7548 14.2605 53.764 14.3082 53.7836 14.3519C53.8032 14.3956 53.8326 14.4339 53.8695 14.4639C53.9746 14.5342 54.0998 14.5667 54.2252 14.5564" fill="#CC0066"/>
<path d="M56.052 14.916C55.9832 14.9208 55.9148 14.9014 55.8584 14.8609C55.8348 14.8373 55.8166 14.8086 55.8053 14.777C55.794 14.7453 55.7898 14.7115 55.793 14.6779V11.7051L55.884 11.681C55.9266 11.6702 55.9704 11.6651 56.0142 11.6658C56.0827 11.6609 56.1509 11.6795 56.2078 11.7184C56.2316 11.7416 56.2498 11.7699 56.2611 11.8012C56.2724 11.8326 56.2766 11.8662 56.2732 11.8994V14.8767C56.247 14.8855 56.2148 14.8944 56.1764 14.9032C56.1351 14.9125 56.0929 14.917 56.0506 14.9165" fill="#CC0066"/>
<path d="M58.4537 13.8617V14.8764C58.421 14.8871 58.3877 14.896 58.354 14.903C58.3112 14.9121 58.2676 14.9166 58.2238 14.9163C58.1519 14.9226 58.0802 14.9021 58.022 14.8587C57.999 14.8333 57.9815 14.8033 57.9707 14.7706C57.9598 14.7379 57.9559 14.7032 57.9591 14.6689V12.1412C57.9562 12.0938 57.9719 12.0471 58.0027 12.0114C58.0354 11.9779 58.0756 11.953 58.1198 11.9386C58.2308 11.9006 58.3458 11.8761 58.4625 11.8658C58.5915 11.8527 58.7144 11.8461 58.8312 11.8461C59.1491 11.8197 59.4651 11.9157 59.7165 12.1151C59.8131 12.2092 59.8887 12.3233 59.9382 12.4496C59.9876 12.576 60.0097 12.7117 60.003 12.8475C60.009 12.9841 59.9866 13.1204 59.9373 13.2475C59.8879 13.3746 59.8126 13.4898 59.7165 13.5853C59.4763 13.7879 59.1681 13.8875 58.8569 13.8632L58.4537 13.8617ZM58.8312 13.4338C59.0073 13.444 59.1814 13.3919 59.324 13.2863C59.3855 13.2324 59.4338 13.1647 59.465 13.0885C59.4963 13.0124 59.5096 12.9298 59.504 12.8475C59.5108 12.7668 59.4989 12.6857 59.4691 12.6106C59.4394 12.5355 59.3926 12.4685 59.3327 12.4152C59.1881 12.315 59.0146 12.2668 58.84 12.2784C58.7735 12.2784 58.7054 12.2814 58.6357 12.2873C58.573 12.2923 58.5106 12.3012 58.4489 12.3138V13.4343L58.8312 13.4338Z" fill="#CC0066"/>
<path d="M61.3117 12.521C61.5529 12.5075 61.7916 12.5768 61.9893 12.7178C62.077 12.7945 62.1455 12.8912 62.1893 13.0001C62.233 13.1089 62.2508 13.2268 62.241 13.3439V14.4865C62.245 14.5485 62.2279 14.61 62.1926 14.6606C62.1549 14.7057 62.111 14.7452 62.0624 14.7777C61.9666 14.8323 61.8645 14.8746 61.7584 14.9036C61.6155 14.9428 61.4679 14.9613 61.3199 14.9587C61.0754 14.9731 60.8329 14.9074 60.6278 14.7713C60.5448 14.7078 60.4785 14.6244 60.4349 14.5285C60.3914 14.4327 60.3718 14.3273 60.3781 14.2219C60.3727 14.1305 60.3873 14.039 60.4208 13.954C60.4542 13.8689 60.5058 13.7925 60.5717 13.73C60.7316 13.6028 60.9264 13.5287 61.1293 13.518L61.7672 13.4472V13.3415C61.7724 13.2824 61.7632 13.2229 61.7405 13.1683C61.7178 13.1137 61.6822 13.0655 61.6369 13.0282C61.5303 12.9572 61.4041 12.9228 61.2769 12.9298C61.1578 12.9293 61.0394 12.9471 60.9255 12.9824C60.8208 13.0143 60.7191 13.0557 60.6215 13.1059C60.591 13.0771 60.5648 13.0439 60.5436 13.0075C60.5202 12.9677 60.5082 12.9221 60.509 12.8758C60.5098 12.8295 60.5232 12.7843 60.548 12.7453C60.5799 12.7038 60.6217 12.6711 60.6695 12.6504C60.7623 12.6045 60.8608 12.5715 60.9623 12.552C61.0774 12.5294 61.1944 12.5184 61.3117 12.5191M61.3204 14.5568C61.4156 14.5587 61.5107 14.5468 61.6026 14.5214C61.6617 14.5069 61.7176 14.4814 61.7676 14.4462V13.8245L61.273 13.8776C61.1609 13.8852 61.0522 13.9199 60.956 13.9789C60.9207 14.0059 60.8927 14.0414 60.8746 14.0822C60.8564 14.123 60.8486 14.1679 60.8519 14.2125C60.85 14.2605 60.8592 14.3082 60.8788 14.3519C60.8984 14.3956 60.9278 14.4339 60.9647 14.4639C61.0698 14.5342 61.195 14.5667 61.3204 14.5564" fill="#CC0066"/>
<path d="M63.27 14.3513C63.192 14.1896 63.0973 13.9617 62.9859 13.6676C62.8746 13.3735 62.7683 13.0411 62.667 12.6706C62.698 12.6336 62.7356 12.6029 62.7778 12.5801C62.8223 12.5552 62.8723 12.5424 62.923 12.5427C62.9819 12.5399 63.04 12.5572 63.0881 12.5919C63.1398 12.6393 63.1761 12.7016 63.1921 12.7704C63.276 13.0351 63.3622 13.2961 63.4506 13.5535C63.539 13.8109 63.6366 14.0763 63.7434 14.3498H63.7608C63.807 14.2439 63.8539 14.1211 63.9017 13.9814C63.9494 13.8417 63.9957 13.6932 64.0406 13.5358C64.0854 13.3784 64.1282 13.2188 64.1688 13.0572C64.2095 12.8955 64.2456 12.7412 64.2773 12.5943C64.3066 12.5795 64.337 12.567 64.3682 12.557C64.4048 12.5461 64.4429 12.5409 64.481 12.5417C64.5412 12.5394 64.6005 12.5566 64.6504 12.5909C64.6742 12.6098 64.693 12.6343 64.705 12.6624C64.7171 12.6905 64.7221 12.7212 64.7196 12.7517C64.7126 12.883 64.6915 13.0132 64.6567 13.1398C64.6148 13.3133 64.5606 13.5059 64.4941 13.7177C64.4276 13.9296 64.3516 14.1427 64.2661 14.3572C64.1806 14.5719 64.0945 14.7631 64.0077 14.9307C63.8925 15.1633 63.7543 15.3835 63.5953 15.5878C63.5559 15.6486 63.5042 15.7002 63.4436 15.7389C63.383 15.7777 63.3149 15.8028 63.2439 15.8126C63.2067 15.8148 63.1695 15.8093 63.1345 15.7964C63.0995 15.7836 63.0674 15.7636 63.0402 15.7378C62.9895 15.6861 62.9557 15.6198 62.9433 15.548C63.0001 15.4961 63.0537 15.4409 63.104 15.3827C63.1618 15.3171 63.2197 15.2466 63.2778 15.1712C63.3359 15.0958 63.3915 15.0186 63.4448 14.9395C63.4952 14.8656 63.5394 14.7874 63.5769 14.7059C63.5204 14.685 63.4692 14.6514 63.4273 14.6075C63.3607 14.5304 63.3072 14.4424 63.2691 14.3473" fill="#CC0066"/>
<path d="M67.7319 13.0357C67.6444 12.9657 67.5347 12.9307 67.4235 12.9373C67.3404 12.9369 67.2581 12.9537 67.1815 12.9865C67.1034 13.0202 67.0314 13.0671 66.9686 13.1252C66.9745 13.1528 66.9789 13.1807 66.9817 13.2088C66.9846 13.2383 66.986 13.2679 66.986 13.2969V14.8762C66.9572 14.8877 66.9273 14.8966 66.8969 14.9028C66.8564 14.9118 66.815 14.9163 66.7735 14.9161C66.7026 14.9217 66.632 14.9022 66.5736 14.861C66.5501 14.8373 66.5321 14.8086 66.5209 14.7769C66.5097 14.7453 66.5055 14.7115 66.5088 14.678V13.35C66.5138 13.2923 66.5064 13.2341 66.4869 13.1796C66.4674 13.1251 66.4364 13.0757 66.396 13.0347C66.3086 12.9647 66.1989 12.9297 66.0877 12.9363C66.005 12.9359 65.923 12.9509 65.8457 12.9806C65.7788 13.0061 65.7148 13.0391 65.6551 13.079V14.8787C65.6262 14.8902 65.5964 14.8991 65.566 14.9053C65.5238 14.9144 65.4808 14.9189 65.4377 14.9185C65.3688 14.9234 65.3005 14.904 65.2441 14.8634C65.2205 14.8398 65.2023 14.8111 65.191 14.7795C65.1797 14.7478 65.1756 14.714 65.1788 14.6805V13.0662C65.1756 13.0025 65.1898 12.9392 65.2199 12.8832C65.2562 12.8283 65.3025 12.7811 65.3564 12.744C65.5805 12.6022 65.8387 12.526 66.1027 12.5237C66.2345 12.5213 66.3657 12.543 66.4899 12.5876C66.5972 12.6266 66.6939 12.6908 66.7721 12.775C66.8631 12.7002 66.9647 12.64 67.0736 12.5965C67.2043 12.5455 67.3436 12.5207 67.4836 12.5237C67.5983 12.5229 67.7124 12.5395 67.8223 12.5729C67.9208 12.6019 68.0119 12.6523 68.0895 12.7204C68.1656 12.79 68.2257 12.8758 68.2652 12.9718C68.3113 13.0872 68.3336 13.2111 68.3306 13.3357V14.8797C68.2987 14.8902 68.2665 14.899 68.2338 14.9062C68.1932 14.9152 68.1518 14.9197 68.1104 14.9195C68.0415 14.9243 67.9731 14.9049 67.9167 14.8644C67.8931 14.8408 67.875 14.8121 67.8637 14.7805C67.8524 14.7488 67.8482 14.715 67.8514 14.6815V13.3534C67.8566 13.2957 67.8492 13.2375 67.8297 13.183C67.8102 13.1285 67.7791 13.079 67.7386 13.0382" fill="#CC0066"/>
<path d="M69.3329 13.9982C69.3607 14.1625 69.4492 14.3099 69.5802 14.4103C69.7215 14.5049 69.8884 14.5518 70.0574 14.5446C70.1768 14.5461 70.2955 14.5244 70.4069 14.4807C70.4977 14.4458 70.5845 14.4006 70.6654 14.3459C70.7049 14.3669 70.738 14.3985 70.761 14.4374C70.784 14.4763 70.7959 14.5209 70.7955 14.5663C70.795 14.6236 70.7734 14.6787 70.735 14.7207C70.6887 14.7722 70.6326 14.8135 70.57 14.8422C70.4927 14.8787 70.4115 14.9061 70.328 14.9238C70.0679 14.9774 69.7984 14.9605 69.5468 14.8747C69.4069 14.8248 69.2795 14.7441 69.1737 14.6386C69.0658 14.5289 68.9832 14.3964 68.9317 14.2505C68.8726 14.0798 68.8439 13.8997 68.8469 13.7188C68.8437 13.5425 68.8709 13.3671 68.9273 13.2004C68.975 13.0614 69.0513 12.9343 69.1509 12.8275C69.2459 12.7279 69.3605 12.6498 69.4873 12.5983C69.6177 12.5451 69.7571 12.5182 69.8977 12.5191C70.0352 12.5172 70.1716 12.5435 70.2989 12.5964C70.4156 12.645 70.5214 12.7172 70.6098 12.8086C70.6982 12.9 70.7675 13.0087 70.8134 13.1281C70.8636 13.2572 70.8885 13.395 70.887 13.5338C70.8898 13.5663 70.8863 13.599 70.8766 13.6301C70.8668 13.6612 70.8511 13.69 70.8304 13.7148C70.7859 13.7564 70.7297 13.7826 70.6697 13.7896L69.3329 13.9982ZM69.8972 12.9161C69.8186 12.9142 69.7405 12.9296 69.6683 12.9612C69.596 12.9927 69.5313 13.0398 69.4786 13.099C69.3589 13.2438 69.2963 13.4285 69.3029 13.6175L70.4311 13.4453C70.4232 13.3071 70.3706 13.1753 70.2815 13.0705C70.2327 13.0176 70.173 12.9763 70.1066 12.9496C70.0403 12.9229 69.9685 12.9115 69.8972 12.9161Z" fill="#CC0066"/>
<path d="M72.7013 13.0485C72.6047 12.9691 72.4826 12.929 72.3586 12.9359C72.2613 12.9344 72.1645 12.9493 72.0721 12.9801C71.997 13.0061 71.9244 13.039 71.8552 13.0785V14.8782C71.8264 14.8897 71.7966 14.8986 71.7662 14.9048C71.7241 14.914 71.681 14.9184 71.6379 14.9181C71.5691 14.9229 71.5007 14.9035 71.4443 14.863C71.4207 14.8394 71.4026 14.8107 71.3913 14.779C71.38 14.7474 71.3758 14.7135 71.379 14.68V13.0657C71.3759 13.0021 71.3902 12.9388 71.4202 12.8828C71.4566 12.8279 71.5031 12.7806 71.5571 12.7436C71.6638 12.6825 71.7766 12.6331 71.8935 12.596C72.0443 12.547 72.2018 12.5232 72.3601 12.5257C72.6098 12.5112 72.8565 12.587 73.0565 12.7396C73.1446 12.8206 73.2132 12.9209 73.2572 13.0329C73.3013 13.1449 73.3196 13.2657 73.3107 13.3859V14.8812C73.2801 14.8922 73.2489 14.901 73.2172 14.9077C73.1753 14.9169 73.1324 14.9214 73.0894 14.921C73.0206 14.9259 72.9522 14.9064 72.8958 14.8659C72.8723 14.8423 72.8542 14.8136 72.843 14.7819C72.8318 14.7503 72.8277 14.7164 72.831 14.683V13.4041C72.8364 13.3399 72.8279 13.2752 72.8062 13.2146C72.7845 13.1541 72.75 13.0991 72.7052 13.0534" fill="#CC0066"/>
<path d="M74.5218 14.4638C74.6022 14.5167 74.6972 14.5422 74.7928 14.5366C74.8487 14.5362 74.9041 14.5281 74.9578 14.5125C75.0105 14.4985 75.0615 14.4785 75.1098 14.453C75.1309 14.4808 75.1499 14.5102 75.1665 14.541C75.1949 14.5984 75.2006 14.6645 75.1826 14.7261C75.1647 14.7876 75.1242 14.8398 75.0696 14.8721C74.9578 14.9352 74.8304 14.9642 74.7028 14.9557C74.5066 14.9658 74.313 14.9075 74.1539 14.7904C74.0805 14.7228 74.0236 14.6386 73.9878 14.5447C73.952 14.4508 73.9383 14.3496 73.9477 14.2494V11.9603C73.9793 11.9491 74.0117 11.9402 74.0446 11.9337C74.0874 11.9246 74.131 11.9202 74.1747 11.9204C74.2426 11.9148 74.3103 11.9336 74.3659 11.9735C74.3884 11.9974 74.4055 12.026 74.416 12.0572C74.4265 12.0885 74.4302 12.1217 74.4269 12.1545V12.6395H75.1389C75.1531 12.6662 75.1648 12.6942 75.1737 12.7231C75.1855 12.7601 75.1914 12.7988 75.1912 12.8377C75.1912 12.9761 75.1346 13.0451 75.0217 13.0448H74.4269V14.214C74.422 14.2604 74.4282 14.3073 74.4451 14.3507C74.4619 14.3942 74.4889 14.4328 74.5237 14.4633" fill="#CC0066"/>
<path d="M77.2808 14.2549C77.2851 14.3528 77.2667 14.4502 77.2271 14.5395C77.1875 14.6288 77.1278 14.7074 77.0528 14.7689C76.8597 14.9065 76.626 14.9726 76.3907 14.9563C76.2786 14.9571 76.1668 14.9468 76.0568 14.9253C75.9682 14.909 75.8821 14.8809 75.8007 14.8417C75.7376 14.8113 75.6816 14.7677 75.6362 14.7138C75.5972 14.6686 75.5756 14.6106 75.5752 14.5505C75.575 14.5036 75.5862 14.4573 75.6076 14.4157C75.6296 14.3726 75.6632 14.3366 75.7044 14.312C75.7959 14.375 75.8931 14.4289 75.9948 14.4728C76.1158 14.5235 76.2458 14.5483 76.3767 14.5456C76.4873 14.5529 76.5975 14.5269 76.6937 14.4708C76.7286 14.4474 76.7569 14.4152 76.7759 14.3774C76.7949 14.3396 76.8039 14.2974 76.8021 14.2549C76.8039 14.2187 76.7984 14.1825 76.7857 14.1487C76.773 14.1148 76.7536 14.084 76.7285 14.0582C76.6652 14.0022 76.5889 13.9635 76.5069 13.9455L76.1942 13.8575C76.0245 13.8183 75.8675 13.7355 75.7383 13.617C75.6879 13.5609 75.6491 13.4952 75.6241 13.4236C75.5992 13.3521 75.5887 13.2762 75.5931 13.2004C75.5926 13.1082 75.6119 13.0171 75.6497 12.9333C75.6872 12.8498 75.7428 12.776 75.8123 12.7174C75.8915 12.6527 75.9822 12.6041 76.0795 12.5742C76.1975 12.5373 76.3205 12.5193 76.4439 12.5211C76.5459 12.52 76.6478 12.5296 76.7479 12.5496C76.8279 12.5656 76.9058 12.5909 76.9802 12.6249C77.0389 12.6507 77.0909 12.6899 77.1322 12.7395C77.1667 12.7807 77.1859 12.8329 77.1864 12.8871C77.1874 12.9333 77.1762 12.979 77.154 13.0194C77.1339 13.0556 77.1065 13.0871 77.0736 13.1118C76.9944 13.0662 76.9117 13.0271 76.8263 12.9948C76.7156 12.9515 76.5979 12.9298 76.4793 12.9308C76.3734 12.9247 76.2681 12.9491 76.1753 13.0012C76.1465 13.0196 76.122 13.0442 76.1035 13.0733C76.085 13.1023 76.0731 13.1352 76.0685 13.1694C76.0639 13.2037 76.0667 13.2386 76.0768 13.2717C76.0869 13.3047 76.104 13.3351 76.127 13.3607C76.1877 13.4138 76.2611 13.4496 76.3399 13.4645L76.609 13.5353C76.7982 13.5801 76.9734 13.6719 77.1191 13.8024C77.1749 13.8626 77.2181 13.9338 77.2461 14.0115C77.274 14.0892 77.2862 14.1718 77.2818 14.2544" fill="#CC0066"/>
<path d="M11.0322 7.31738V15.9283C11.0322 16.492 10.8621 17.0422 10.5447 17.5045C10.2273 17.9668 9.77801 18.319 9.25742 18.5136L1.52996 21.4018C1.40834 21.4473 1.27768 21.4624 1.14911 21.4456C1.02054 21.4288 0.897868 21.3806 0.791541 21.3053C0.685214 21.2299 0.598382 21.1296 0.538438 21.0128C0.478495 20.896 0.447216 20.7662 0.447266 20.6344V13.3279C0.447514 12.8885 0.58016 12.4597 0.827367 12.0991C1.07457 11.7386 1.42448 11.4637 1.83004 11.3113L8.97235 8.62671C10.0996 8.16289 10.54 7.87908 11.0327 7.31984" fill="white"/>
<path d="M17.826 9.49645C17.8179 9.81663 17.6904 10.1217 17.4694 10.35C17.2483 10.5783 16.9502 10.7127 16.6353 10.7261H15.0159C14.9225 10.7283 14.8321 10.6928 14.7645 10.6273C14.6969 10.5619 14.6576 10.4718 14.6553 10.3769V6.79222C14.6546 6.74467 14.6633 6.69746 14.6809 6.65339C14.6984 6.60932 14.7245 6.56928 14.7576 6.53566C14.7907 6.50203 14.8301 6.4755 14.8735 6.45764C14.9168 6.43978 14.9633 6.43095 15.0101 6.43168H16.5729C16.8067 6.44425 17.0318 6.52545 17.2211 6.66545C17.4103 6.80545 17.5556 6.99823 17.6392 7.22043C17.7228 7.44263 17.7412 7.68471 17.6921 7.91732C17.6431 8.14993 17.5287 8.36308 17.3628 8.53094C17.5057 8.64685 17.6214 8.79363 17.7016 8.96062C17.7818 9.12761 17.824 9.31065 17.826 9.49645ZM15.3426 8.21762L16.493 8.20582C16.6328 8.20115 16.7655 8.14265 16.8644 8.04218C16.9633 7.94171 17.0208 7.80678 17.0254 7.66477C17.0246 7.52818 16.9716 7.39725 16.8776 7.29961C16.7836 7.20197 16.656 7.14526 16.5216 7.14143H15.3426V8.21762ZM17.1169 9.49645C17.1073 9.35171 17.0452 9.21573 16.9427 9.1148C16.8401 9.01386 16.7044 8.95515 16.5618 8.95H15.3711V10.0257H16.5956C16.7324 10.0213 16.8623 9.96408 16.9591 9.86578C17.0558 9.76747 17.1121 9.63541 17.1164 9.49645" fill="white"/>
<path d="M20.643 8.94996H20.1222V10.3763C20.1202 10.4702 20.0818 10.5595 20.0154 10.6248C19.949 10.6901 19.8599 10.7261 19.7675 10.7251C19.6765 10.7248 19.5893 10.688 19.5249 10.6227C19.4606 10.5574 19.4242 10.4688 19.4238 10.3763V6.78037C19.4267 6.68677 19.4654 6.598 19.5316 6.53289C19.5979 6.46779 19.6864 6.43147 19.7786 6.43164H21.0317C21.3539 6.43879 21.6611 6.57128 21.89 6.8018C22.1189 7.03232 22.252 7.3433 22.262 7.67064C22.256 7.93463 22.1713 8.19055 22.019 8.40451C21.8667 8.61847 21.654 8.78038 21.4092 8.8688L22.2049 10.1889C22.2512 10.2702 22.2647 10.3667 22.2423 10.4579C22.2199 10.5491 22.1634 10.6278 22.0848 10.6774C22.0304 10.7078 21.9693 10.7238 21.9072 10.7241C21.8476 10.724 21.7889 10.7085 21.7368 10.679C21.6847 10.6495 21.6409 10.6069 21.6096 10.5554L20.643 8.94996ZM21.5704 7.67605C21.5638 7.53018 21.5016 7.39266 21.3968 7.29272C21.2921 7.19278 21.1531 7.13832 21.0094 7.1409H20.1222V8.24021H21.0094C21.1572 8.24034 21.2991 8.18114 21.4041 8.07547C21.5092 7.96981 21.569 7.82625 21.5704 7.67605Z" fill="white"/>
<path d="M26.2794 10.7232C25.7213 10.7171 25.1882 10.4867 24.7968 10.0824C24.4054 9.67804 24.1874 9.13265 24.1905 8.56544C24.1977 8.14784 24.3262 7.74172 24.5597 7.39802C24.7932 7.05433 25.1214 6.78837 25.5031 6.63353C25.8848 6.47868 26.303 6.44185 26.7052 6.52763C27.1074 6.61342 27.4758 6.81803 27.764 7.11576C28.0522 7.41349 28.2475 7.7911 28.3254 8.2012C28.4032 8.61131 28.3601 9.03564 28.2016 9.42097C28.043 9.80629 27.776 10.1354 27.434 10.3671C27.0921 10.5988 26.6904 10.7227 26.2794 10.7232ZM24.8656 8.56544C24.8661 8.8502 24.9497 9.12842 25.1058 9.36491C25.2618 9.60141 25.4834 9.78555 25.7425 9.89405C26.0016 10.0026 26.2865 10.0305 26.5612 9.97447C26.8359 9.9184 27.0881 9.7808 27.2859 9.57907C27.4837 9.37733 27.6181 9.12053 27.6722 8.84113C27.7264 8.56174 27.6978 8.2723 27.59 8.00943C27.4823 7.74656 27.3003 7.52207 27.067 7.36434C26.8337 7.20661 26.5596 7.12273 26.2794 7.12331C25.9047 7.12705 25.5464 7.28036 25.2819 7.55016C25.0174 7.81996 24.8679 8.18461 24.8656 8.56544Z" fill="white"/>
<path d="M33.3078 10.6952C33.2635 10.7127 33.2162 10.7211 33.1686 10.7197C33.1211 10.7183 33.0744 10.7072 33.0311 10.6871C32.9879 10.667 32.949 10.6383 32.9169 10.6027C32.8848 10.5671 32.8601 10.5253 32.8441 10.4798L31.8761 7.82373L30.9033 10.4798C30.8885 10.5254 30.8646 10.5675 30.8331 10.6034C30.8016 10.6392 30.7633 10.6682 30.7203 10.6884C30.6774 10.7086 30.6309 10.7196 30.5836 10.7208C30.5363 10.7219 30.4893 10.7132 30.4454 10.6952C30.4003 10.6795 30.3588 10.6546 30.3235 10.622C30.2881 10.5895 30.2596 10.55 30.2398 10.5059C30.22 10.4618 30.2092 10.4141 30.2081 10.3656C30.207 10.3172 30.2156 10.269 30.2334 10.224L31.5267 6.65852C31.5539 6.58728 31.6019 6.52622 31.6643 6.48357C31.7267 6.44091 31.8005 6.41872 31.8756 6.41997C31.9505 6.42034 32.0235 6.44318 32.0856 6.48562C32.1477 6.52807 32.1961 6.58822 32.2246 6.65852L33.5178 10.224C33.5357 10.2689 33.5443 10.3171 33.5432 10.3655C33.5422 10.414 33.5314 10.4617 33.5117 10.5058C33.4919 10.5498 33.4635 10.5894 33.4282 10.6219C33.3929 10.6545 33.3514 10.6794 33.3063 10.6952" fill="white"/>
<path d="M34.9614 10.3753V6.7975C34.9636 6.70572 35.0005 6.61832 35.0644 6.5534C35.1283 6.48848 35.2143 6.45101 35.3046 6.44877H36.1574C36.4645 6.44694 36.7686 6.51026 37.0503 6.63469C37.3211 6.75539 37.563 6.93387 37.7599 7.15803C37.9563 7.38467 38.1029 7.65131 38.1898 7.94013C38.2766 8.22895 38.3019 8.53329 38.2637 8.83281C38.2006 9.35292 37.953 9.8318 37.5674 10.1798C37.1818 10.5277 36.6847 10.7209 36.169 10.723H35.305C35.2147 10.7208 35.1287 10.6833 35.0648 10.6184C35.001 10.5535 34.9641 10.4661 34.9619 10.3743M37.5716 8.75116C37.6019 8.55028 37.5883 8.34511 37.5319 8.15014C37.4756 7.95517 37.3778 7.77516 37.2454 7.62284C37.1085 7.46817 36.9407 7.34508 36.7531 7.26186C36.5655 7.17863 36.3625 7.13719 36.1579 7.14033H35.6487V10.0251H36.1695C36.5166 10.0252 36.8517 9.89543 37.1106 9.66043C37.3695 9.42543 37.5341 9.10172 37.5731 8.75116" fill="white"/>
<path d="M41.6629 10.1249C41.4916 10.3879 41.2277 10.5742 40.9255 10.6455C40.6232 10.7169 40.3055 10.6679 40.0377 10.5086C39.9555 10.458 39.8949 10.3782 39.8674 10.2846C39.8399 10.1911 39.8477 10.0905 39.8891 10.0025C39.9512 9.92948 40.0381 9.88298 40.1325 9.87223C40.2269 9.86147 40.3218 9.88725 40.3982 9.94442C40.5169 10.0099 40.6556 10.0271 40.7862 9.99257C40.9169 9.95805 41.0297 9.87438 41.102 9.7585C41.1419 9.69819 41.1697 9.63048 41.1839 9.55923C41.198 9.48799 41.1982 9.41461 41.1844 9.34329C41.1706 9.27198 41.143 9.20413 41.1034 9.14363C41.0638 9.08313 41.0128 9.03117 40.9534 8.99071C40.6732 8.8102 40.663 8.80479 40.3925 8.62428C40.1246 8.44763 39.9367 8.17008 39.8702 7.85269C39.8036 7.5353 39.8639 7.20405 40.0377 6.93179C40.2108 6.67101 40.4746 6.48645 40.776 6.41519C41.0775 6.34393 41.3944 6.39125 41.6629 6.54765C41.7424 6.59481 41.8009 6.67119 41.8265 6.761C41.8521 6.8508 41.8428 6.94717 41.8004 7.03016C41.7436 7.10622 41.6602 7.15713 41.5675 7.17233C41.4747 7.18754 41.3798 7.16586 41.3023 7.11181C41.1785 7.04774 41.0353 7.03435 40.902 7.07438C40.7688 7.11441 40.6557 7.20483 40.586 7.32702C40.5164 7.44921 40.4955 7.59388 40.5277 7.73126C40.5598 7.86863 40.6425 7.98826 40.7588 8.06552C40.904 8.15849 40.904 8.15848 41.314 8.43196C41.4463 8.51971 41.5604 8.63313 41.6496 8.76572C41.7388 8.89831 41.8014 9.04747 41.8338 9.20467C41.8662 9.36187 41.8678 9.52402 41.8384 9.68184C41.8091 9.83966 41.7495 9.99056 41.6629 10.1249Z" fill="white"/>
<path d="M45.5273 8.94006C45.2072 8.96316 44.8861 8.9671 44.5656 8.95187V10.3783C44.5636 10.4721 44.5252 10.5614 44.4588 10.6267C44.3923 10.692 44.3033 10.728 44.2108 10.727C44.12 10.7266 44.0329 10.6897 43.9686 10.6244C43.9043 10.5591 43.8681 10.4706 43.8677 10.3783V6.79212C43.8671 6.74616 43.8756 6.70054 43.8926 6.65796C43.9096 6.61538 43.9349 6.5767 43.9669 6.5442C43.9989 6.5117 44.0369 6.48604 44.0788 6.46872C44.1207 6.45141 44.1656 6.44279 44.2108 6.44339H45.4929C45.8124 6.4535 46.1158 6.58856 46.3397 6.8204C46.5636 7.05224 46.6908 7.36297 46.6947 7.68779C46.6895 8.00689 46.5667 8.3124 46.3505 8.54391C46.1344 8.77542 45.8406 8.91609 45.5273 8.93809M45.4475 7.14133H44.5661V8.24064H45.4475C45.595 8.23976 45.7363 8.18022 45.8411 8.07477C45.946 7.96933 46.006 7.82636 46.0084 7.67648C46.0009 7.53095 45.9384 7.39401 45.8338 7.29428C45.7293 7.19454 45.5908 7.13974 45.4475 7.14133Z" fill="white"/>
<path d="M48.5254 10.3754V6.78088C48.5258 6.68852 48.5621 6.60004 48.6263 6.53473C48.6906 6.46941 48.7776 6.43255 48.8685 6.43216H50.9304C51.0228 6.43097 51.112 6.46696 51.1784 6.53228C51.2449 6.5976 51.2832 6.68695 51.2851 6.78088C51.2846 6.87634 51.2471 6.96775 51.1807 7.03525C51.1142 7.10275 51.0243 7.1409 50.9304 7.14142H49.2248V8.24072H50.5127C50.5579 8.24013 50.6028 8.24874 50.6447 8.26606C50.6866 8.28337 50.7246 8.30903 50.7566 8.34154C50.7886 8.37404 50.8139 8.41272 50.8309 8.4553C50.8479 8.49788 50.8564 8.54349 50.8558 8.58945C50.8565 8.63545 50.8481 8.68112 50.831 8.72375C50.814 8.76639 50.7888 8.80513 50.7568 8.83768C50.7248 8.87024 50.6867 8.89595 50.6448 8.91329C50.6029 8.93064 50.5579 8.93927 50.5127 8.93867H49.2248V10.0144H50.9304C51.0243 10.0149 51.1142 10.053 51.1807 10.1205C51.2471 10.188 51.2846 10.2794 51.2851 10.3749C51.2831 10.4688 51.2447 10.5581 51.1783 10.6234C51.1119 10.6887 51.0228 10.7247 50.9304 10.7236H48.87C48.7791 10.7232 48.692 10.6864 48.6278 10.6211C48.5635 10.5557 48.5272 10.4673 48.5268 10.3749" fill="white"/>
<path d="M56.6704 10.2589C56.306 10.5534 55.8539 10.7134 55.3883 10.7124C54.8282 10.7124 54.291 10.4863 53.8949 10.0838C53.4989 9.68126 53.2764 9.13536 53.2764 8.56615C53.2764 7.99693 53.4989 7.45103 53.8949 7.04854C54.291 6.64604 54.8282 6.41992 55.3883 6.41992C55.7688 6.42044 56.1415 6.52933 56.4642 6.73422C56.5048 6.75564 56.5406 6.78518 56.5697 6.82105C56.5987 6.85693 56.6203 6.8984 56.6331 6.94297C56.6459 6.98754 56.6498 7.03429 56.6444 7.08041C56.639 7.12653 56.6245 7.17106 56.6017 7.21132C56.5784 7.2512 56.5473 7.28577 56.5104 7.31288C56.4734 7.34 56.4313 7.35906 56.3867 7.3689C56.3422 7.37873 56.2961 7.37912 56.2514 7.37003C56.2067 7.36094 56.1643 7.34258 56.1269 7.31609C55.9036 7.18131 55.6484 7.11091 55.3888 7.11246C55.2032 7.11246 55.0194 7.14963 54.8479 7.22184C54.6764 7.29406 54.5206 7.3999 54.3894 7.53332C54.2582 7.66675 54.1542 7.82514 54.0832 7.99944C54.0123 8.17375 53.9759 8.36055 53.976 8.54918C53.9696 8.81933 54.0383 9.08584 54.1743 9.3181C54.3102 9.55036 54.5078 9.73895 54.7444 9.86222C54.9811 9.98549 55.2471 10.0384 55.512 10.015C55.7769 9.99153 56.03 9.89263 56.242 9.72964C56.2753 9.70067 56.314 9.67872 56.3557 9.66508C56.3974 9.65144 56.4413 9.64637 56.485 9.65017C56.5286 9.65397 56.5711 9.66656 56.6099 9.68721C56.6487 9.70787 56.6831 9.73616 56.711 9.77046C56.7693 9.84072 56.7978 9.93156 56.7902 10.0231C56.7827 10.1146 56.7398 10.1994 56.6709 10.2589" fill="white"/>
<path d="M61.4362 6.77454C61.4362 6.82013 61.4272 6.86526 61.4099 6.90733C61.3927 6.94939 61.3673 6.98754 61.3354 7.01957C61.3035 7.0516 61.2656 7.07687 61.224 7.09391C61.1824 7.11095 61.1379 7.11942 61.093 7.11884H60.2523V10.3759C60.2523 10.4677 60.2164 10.5557 60.1526 10.6206C60.0887 10.6855 60.0021 10.7219 59.9118 10.7219C59.8215 10.7219 59.7349 10.6855 59.671 10.6206C59.6072 10.5557 59.5713 10.4677 59.5713 10.3759V7.11785H58.7301C58.6398 7.11785 58.5532 7.0814 58.4894 7.01651C58.4255 6.95162 58.3896 6.8636 58.3896 6.77183C58.3896 6.68006 58.4255 6.59205 58.4894 6.52716C58.5532 6.46226 58.6398 6.42581 58.7301 6.42581H61.0935C61.1387 6.42522 61.1836 6.43383 61.2255 6.45114C61.2674 6.46846 61.3054 6.49412 61.3374 6.52662C61.3694 6.55912 61.3947 6.5978 61.4117 6.64038C61.4288 6.68296 61.4367 6.72858 61.4362 6.77454Z" fill="white"/>
<path d="M64.3735 8.94996H63.8527V10.3763C63.8507 10.4702 63.8123 10.5595 63.7458 10.6248C63.6794 10.6901 63.5903 10.7261 63.4979 10.7251C63.4069 10.7248 63.3198 10.688 63.2554 10.6227C63.191 10.5574 63.1547 10.4688 63.1543 10.3763V6.78037C63.1572 6.68677 63.1959 6.598 63.2621 6.53289C63.3283 6.46779 63.4169 6.43147 63.5091 6.43164H64.7626C65.0848 6.43879 65.392 6.57128 65.6209 6.8018C65.8498 7.03232 65.983 7.3433 65.9929 7.67064C65.9869 7.93463 65.9022 8.19055 65.7499 8.40451C65.5976 8.61847 65.385 8.78038 65.1401 8.8688L65.9358 10.1889C65.9821 10.2703 65.9954 10.3668 65.973 10.458C65.9505 10.5492 65.8939 10.6279 65.8153 10.6774C65.7608 10.7078 65.6998 10.7238 65.6377 10.7241C65.578 10.724 65.5194 10.7085 65.4673 10.679C65.4152 10.6495 65.3714 10.6069 65.34 10.5554L64.3735 8.94996ZM65.3008 7.67605C65.2943 7.53018 65.232 7.39266 65.1273 7.29272C65.0225 7.19278 64.8835 7.13832 64.7399 7.1409H63.8527V8.24021H64.7399C64.8877 8.24034 65.0295 8.18114 65.1346 8.07547C65.2396 7.96981 65.2994 7.82625 65.3008 7.67605Z" fill="white"/>
<path d="M71.0119 6.7748V9.15343C71.0156 9.36197 70.9783 9.56917 70.9023 9.76291C70.8263 9.95666 70.713 10.1331 70.5692 10.2819C70.4253 10.4306 70.2538 10.5488 70.0645 10.6295C69.8752 10.7102 69.672 10.7517 69.4668 10.7517C69.2615 10.7517 69.0583 10.7102 68.8691 10.6295C68.6798 10.5488 68.5082 10.4306 68.3644 10.2819C68.2205 10.1331 68.1073 9.95666 68.0313 9.76291C67.9553 9.56917 67.918 9.36197 67.9216 9.15343V6.7748C67.9216 6.68068 67.9584 6.59042 68.0239 6.52386C68.0894 6.45731 68.1782 6.41992 68.2708 6.41992C68.3634 6.41992 68.4523 6.45731 68.5178 6.52386C68.5832 6.59042 68.62 6.68068 68.62 6.7748V9.15343C68.62 9.38328 68.7099 9.60371 68.8698 9.76624C69.0298 9.92877 69.2466 10.0201 69.4728 10.0201C69.699 10.0201 69.9159 9.92877 70.0759 9.76624C70.2358 9.60371 70.3257 9.38328 70.3257 9.15343V6.7748C70.3251 6.72884 70.3335 6.68322 70.3506 6.64065C70.3676 6.59807 70.3929 6.55939 70.4248 6.52689C70.4568 6.49438 70.4949 6.46872 70.5367 6.45141C70.5786 6.43409 70.6236 6.42548 70.6688 6.42607C70.714 6.42548 70.7589 6.43409 70.8008 6.45141C70.8427 6.46872 70.8808 6.49438 70.9127 6.52689C70.9447 6.55939 70.97 6.59807 70.987 6.64065C71.004 6.68322 71.0125 6.72884 71.0119 6.7748Z" fill="white"/>
<path d="M77.1757 10.2997C77.188 10.3425 77.1917 10.3874 77.1865 10.4317C77.1813 10.476 77.1673 10.5187 77.1454 10.5574C77.1234 10.596 77.0939 10.6297 77.0588 10.6564C77.0237 10.6831 76.9836 10.7023 76.9409 10.7129H76.9235C76.9177 10.7129 76.9177 10.7129 76.9123 10.7247H76.8722C76.7921 10.724 76.7147 10.6953 76.653 10.6434C76.5913 10.5916 76.5491 10.5197 76.5334 10.4399L76.0639 8.11338L75.2 10.4689C75.177 10.54 75.1326 10.6019 75.073 10.6458C75.0133 10.6897 74.9416 10.7133 74.8679 10.7133C74.7943 10.7133 74.7226 10.6897 74.663 10.6458C74.6034 10.6019 74.5589 10.54 74.536 10.4689L73.7746 8.22405L73.3739 10.4399C73.3612 10.5216 73.32 10.596 73.2577 10.6494C73.1955 10.7027 73.1165 10.7316 73.0351 10.7306C73.0176 10.7306 72.9949 10.7247 72.9779 10.7247C72.932 10.7179 72.8882 10.7008 72.8495 10.6746C72.8109 10.6484 72.7786 10.6137 72.7548 10.5732C72.7272 10.5375 72.7078 10.4961 72.6979 10.4518C72.688 10.4076 72.6879 10.3617 72.6977 10.3174L73.2872 6.71159C73.3019 6.6331 73.342 6.56184 73.4011 6.50917C73.4602 6.45649 73.535 6.42542 73.6135 6.4209H73.642C73.7159 6.42085 73.7878 6.44465 73.8475 6.48885C73.9072 6.53305 73.9515 6.59537 73.974 6.66683L74.8781 9.25499L75.8224 6.65502C75.8445 6.58546 75.8883 6.52511 75.9471 6.48312C76.006 6.44114 76.0767 6.41981 76.1486 6.42237H76.166C76.2442 6.42289 76.3195 6.45194 76.3784 6.50422C76.4372 6.5565 76.4755 6.62853 76.4864 6.70716L77.1757 10.2997Z" fill="white"/>
</g>
</svg>
