<svg width="73" height="20" viewBox="0 0 73 20" fill="none" xmlns="http://www.w3.org/2000/svg">
<mask id="mask0_2057_95058" style="mask-type:luminance" maskUnits="userSpaceOnUse" x="-1" y="0" width="74" height="20">
<path d="M72.5286 0.241211H-0.00292969V19.6246H72.5286V0.241211Z" fill="white"/>
</mask>
<g mask="url(#mask0_2057_95058)">
<path d="M7.87631 3.17502L1.25536 0.315586C1.11784 0.256104 0.967963 0.23219 0.819126 0.245986C0.670289 0.259781 0.527138 0.310855 0.40248 0.394638C0.277821 0.478422 0.175543 0.592301 0.104794 0.726089C0.0340459 0.859876 -0.00296574 1.0094 -0.00292966 1.16128V8.52061C-0.00293416 8.67708 0.0343708 8.83123 0.105792 8.96985C0.177213 9.10847 0.280624 9.22744 0.407172 9.31658C0.533721 9.40571 0.679638 9.46236 0.832434 9.48167C0.985229 9.50097 1.14035 9.48237 1.28453 9.42744L5.67738 7.75365L0.918115 5.73851C0.849969 5.70649 0.796682 5.64888 0.769443 5.57777C0.742204 5.50667 0.743131 5.42761 0.772029 5.35719C0.800927 5.28677 0.855549 5.23046 0.924426 5.20009C0.993304 5.16972 1.07108 5.16766 1.14143 5.19432L6.47355 7.45075L7.97247 6.87923C10.5374 5.97518 10.6709 4.16893 7.87677 3.1741M8.50386 5.51574C8.47424 5.58774 8.41776 5.64488 8.34678 5.67465C8.27581 5.70442 8.19611 5.70441 8.12514 5.6746L0.80965 2.5785C0.774489 2.56363 0.742555 2.54186 0.71567 2.51445C0.688785 2.48704 0.667477 2.45451 0.652962 2.41873C0.623646 2.34647 0.62378 2.26533 0.653332 2.19316C0.682885 2.121 0.739435 2.06372 0.810544 2.03393C0.881653 2.00414 0.961495 2.00427 1.03251 2.03431L8.34755 5.13134C8.38277 5.14619 8.41477 5.16796 8.44171 5.1954C8.46864 5.22284 8.48998 5.25542 8.5045 5.29126C8.51902 5.3271 8.52644 5.3655 8.52633 5.40426C8.52622 5.44302 8.51859 5.48138 8.50386 5.51713" fill="#CC0066"/>
<path d="M43.3816 12.0154C43.3859 12.237 43.352 12.4577 43.2813 12.6675C43.2217 12.8414 43.1247 12.9996 42.9974 13.1306C42.8729 13.2551 42.722 13.3489 42.5563 13.4048C42.3716 13.4664 42.1782 13.4966 41.9839 13.4942C41.8927 13.4942 41.785 13.49 41.6607 13.4817C41.5436 13.4751 41.428 13.4514 41.3176 13.4113C41.2609 13.4 41.2099 13.3689 41.1733 13.3234C41.1368 13.2779 41.1171 13.2208 41.1175 13.1621V10.8524C41.1148 10.8078 41.1296 10.7638 41.1585 10.7302C41.1894 10.6987 41.2272 10.6752 41.2688 10.6616C41.3772 10.6273 41.4889 10.605 41.6019 10.5949C41.7204 10.5838 41.8356 10.5782 41.9474 10.5782C42.1455 10.576 42.3426 10.6054 42.5317 10.6653C42.7015 10.7184 42.8574 10.8099 42.9874 10.933C43.1165 11.0593 43.2163 11.2133 43.2795 11.3836C43.3528 11.5856 43.3882 11.7997 43.3839 12.0149M42.9058 12.0191C42.9094 11.8596 42.8852 11.7008 42.8343 11.5499C42.7923 11.4292 42.7237 11.3199 42.6338 11.2303C42.5474 11.1468 42.4441 11.0836 42.3311 11.0451C42.2105 11.0042 42.0841 10.9839 41.957 10.9849C41.8309 10.9827 41.7049 10.9939 41.581 11.0182V13.0533C41.6435 13.068 41.707 13.0778 41.771 13.0825C41.8406 13.088 41.9122 13.0908 41.9857 13.0908C42.1121 13.0994 42.2389 13.0796 42.357 13.033C42.4751 12.9863 42.5817 12.9139 42.6693 12.8208C42.8416 12.5918 42.9252 12.3066 42.9045 12.0191" fill="#CC0066"/>
<path d="M43.8634 10.6152C43.8624 10.5783 43.8685 10.5414 43.8815 10.5069C43.8945 10.4723 43.914 10.4407 43.9391 10.4138C43.9646 10.3868 43.9955 10.3656 44.0296 10.3517C44.0638 10.3377 44.1005 10.3312 44.1373 10.3327C44.1735 10.3315 44.2095 10.3381 44.2429 10.3521C44.2764 10.3661 44.3066 10.3871 44.3315 10.4138C44.3802 10.4692 44.4071 10.5409 44.4071 10.6152C44.4071 10.6896 44.3802 10.7613 44.3315 10.8167C44.3066 10.8434 44.2764 10.8644 44.2429 10.8784C44.2095 10.8923 44.1735 10.899 44.1373 10.8978C44.1005 10.8993 44.0638 10.8928 44.0296 10.8788C43.9955 10.8649 43.9646 10.8437 43.9391 10.8167C43.914 10.7898 43.8945 10.7582 43.8815 10.7236C43.8685 10.6891 43.8623 10.6522 43.8634 10.6152ZM44.362 13.4312C44.3348 13.4419 44.3067 13.4503 44.2781 13.4562C44.2386 13.4648 44.1982 13.469 44.1578 13.4687C44.0917 13.4742 44.0259 13.4558 43.9719 13.4168C43.9503 13.3942 43.9338 13.367 43.9236 13.3373C43.9133 13.3075 43.9096 13.2759 43.9126 13.2445V11.2905L43.9983 11.2678C44.0384 11.2577 44.0796 11.2528 44.1209 11.2535C44.1858 11.2481 44.2504 11.2665 44.3032 11.3053C44.3244 11.329 44.3404 11.357 44.3502 11.3874C44.36 11.4178 44.3634 11.45 44.3602 11.4818L44.362 13.4312Z" fill="#CC0066"/>
<path d="M46.3058 13.2371C46.2436 13.2771 46.1763 13.3083 46.1057 13.3297C46.014 13.3564 45.9189 13.3691 45.8236 13.3672C45.7008 13.368 45.5787 13.3483 45.4622 13.3089C45.3498 13.2705 45.2473 13.2072 45.1619 13.1236C45.07 13.0317 45.0001 12.9195 44.9577 12.7957C44.9045 12.6345 44.8797 12.465 44.8843 12.2951C44.8813 12.1361 44.9062 11.9779 44.9577 11.8278C45.0021 11.701 45.074 11.586 45.1683 11.4915C45.2605 11.4009 45.3704 11.3308 45.4909 11.2859C45.6252 11.2371 45.7671 11.2132 45.9097 11.2155C46.0413 11.2143 46.1723 11.2338 46.298 11.2734C46.4021 11.3053 46.5013 11.3521 46.5924 11.4123C46.6361 11.4428 46.6736 11.4817 46.7027 11.5267C46.7314 11.5748 46.7456 11.6303 46.7437 11.6865V13.5006C46.7473 13.6373 46.7223 13.7732 46.6704 13.8994C46.6249 14.0055 46.5539 14.0984 46.4639 14.1694C46.3701 14.241 46.263 14.2926 46.149 14.3208C46.0213 14.353 45.89 14.3686 45.7584 14.3672C45.6316 14.3692 45.5051 14.3536 45.3824 14.3208C45.3002 14.2994 45.2207 14.2683 45.1455 14.2282C45.087 14.1919 45.0441 14.1347 45.0252 14.0678C45.0063 14.0009 45.0128 13.9292 45.0434 13.867C45.0624 13.831 45.0906 13.801 45.1249 13.7799C45.2052 13.8375 45.2934 13.8829 45.3866 13.9147C45.4993 13.9554 45.6182 13.9758 45.7379 13.9749C45.8867 13.9841 46.0341 13.9423 46.1568 13.8563C46.2092 13.8093 46.2501 13.7504 46.276 13.6843C46.3019 13.6182 46.3121 13.5469 46.3058 13.4761V13.2371ZM45.8847 12.9879C45.9695 12.9903 46.0538 12.9745 46.1321 12.9416C46.1936 12.9148 46.2496 12.8768 46.2976 12.8295V11.7129C46.2485 11.6813 46.1957 11.6563 46.1403 11.6383C46.0683 11.6149 45.9931 11.6036 45.9175 11.605C45.8392 11.6018 45.7611 11.6153 45.6882 11.6447C45.6154 11.674 45.5494 11.7186 45.4946 11.7754C45.3767 11.9191 45.3188 12.1039 45.3332 12.2904C45.3307 12.4001 45.3452 12.5095 45.3761 12.6146C45.3998 12.6944 45.4402 12.768 45.4946 12.8305C45.5423 12.884 45.6018 12.9252 45.6682 12.9509C45.7375 12.9765 45.8109 12.9888 45.8847 12.9879Z" fill="#CC0066"/>
<path d="M47.3038 10.6152C47.3028 10.5783 47.3089 10.5414 47.3219 10.5069C47.3349 10.4723 47.3545 10.4407 47.3795 10.4138C47.405 10.3868 47.4359 10.3656 47.4701 10.3517C47.5042 10.3377 47.5409 10.3312 47.5777 10.3327C47.6139 10.3315 47.6499 10.3381 47.6833 10.3521C47.7168 10.366 47.747 10.3871 47.7719 10.4138C47.8206 10.4692 47.8475 10.5409 47.8475 10.6152C47.8475 10.6896 47.8206 10.7613 47.7719 10.8167C47.747 10.8434 47.7168 10.8644 47.6833 10.8784C47.6499 10.8924 47.6139 10.899 47.5777 10.8978C47.5409 10.8993 47.5042 10.8928 47.4701 10.8788C47.4359 10.8649 47.405 10.8437 47.3795 10.8167C47.3545 10.7898 47.3349 10.7582 47.3219 10.7236C47.3089 10.6891 47.3028 10.6522 47.3038 10.6152ZM47.8024 13.4312C47.7752 13.4419 47.7471 13.4503 47.7185 13.4562C47.6789 13.4648 47.6383 13.469 47.5978 13.4687C47.5317 13.4742 47.4658 13.4558 47.4118 13.4168C47.3902 13.3942 47.3737 13.367 47.3635 13.3373C47.3533 13.3075 47.3495 13.2759 47.3526 13.2445V11.2905L47.4383 11.2678C47.4783 11.2577 47.5195 11.2528 47.5608 11.2535C47.6258 11.2481 47.6904 11.2665 47.7432 11.3053C47.7643 11.329 47.7803 11.357 47.7901 11.3874C47.8 11.4178 47.8033 11.45 47.8001 11.4818L47.8024 13.4312Z" fill="#CC0066"/>
<path d="M48.9719 13.0433C49.0477 13.0931 49.1371 13.1171 49.2271 13.1118C49.2797 13.1114 49.332 13.1038 49.3825 13.0891C49.4321 13.0759 49.4802 13.0571 49.5257 13.0331C49.5456 13.0593 49.5634 13.087 49.579 13.116C49.6056 13.17 49.611 13.2323 49.5941 13.2902C49.5772 13.3481 49.5392 13.3973 49.4878 13.4277C49.3825 13.4871 49.2626 13.5144 49.1424 13.5064C48.9577 13.516 48.7753 13.4611 48.6256 13.3508C48.5564 13.2871 48.5029 13.2079 48.4692 13.1194C48.4355 13.031 48.4226 12.9358 48.4314 12.8414V10.6859C48.4612 10.6754 48.4917 10.667 48.5226 10.6609C48.5629 10.6524 48.604 10.6482 48.6452 10.6484C48.7091 10.6431 48.7728 10.6608 48.8252 10.6984C48.8463 10.7209 48.8623 10.7478 48.8721 10.7773C48.882 10.8067 48.8854 10.8379 48.8822 10.8688V11.3255H49.5525C49.5658 11.3507 49.5768 11.377 49.5853 11.4042C49.5965 11.4391 49.602 11.4755 49.6018 11.5121C49.6018 11.6424 49.5486 11.7074 49.4422 11.7071H48.8822V12.808C48.8775 12.8517 48.8834 12.8959 48.8993 12.9368C48.9151 12.9777 48.9405 13.0141 48.9733 13.0428" fill="#CC0066"/>
<path d="M50.8109 11.2143C51.038 11.2016 51.2627 11.2668 51.4489 11.3995C51.5315 11.4718 51.596 11.5629 51.6372 11.6654C51.6784 11.7679 51.695 11.8788 51.6859 11.9891V13.065C51.6896 13.1233 51.6736 13.1812 51.6403 13.229C51.6048 13.2714 51.5635 13.3085 51.5177 13.3392C51.4275 13.3906 51.3314 13.4304 51.2315 13.4577C51.0969 13.4946 50.9579 13.5121 50.8186 13.5096C50.5884 13.5232 50.3599 13.4613 50.1669 13.3332C50.0887 13.2734 50.0263 13.1948 49.9853 13.1046C49.9442 13.0143 49.9258 12.9151 49.9317 12.8158C49.9267 12.7298 49.9404 12.6436 49.9719 12.5635C50.0034 12.4835 50.052 12.4115 50.114 12.3527C50.2647 12.2329 50.448 12.1632 50.639 12.1531L51.2397 12.0864V11.9868C51.2446 11.9312 51.236 11.8752 51.2146 11.8238C51.1932 11.7723 51.1597 11.727 51.1171 11.6918C51.0167 11.625 50.8979 11.5926 50.778 11.5992C50.6659 11.5988 50.5544 11.6155 50.4472 11.6487C50.3486 11.6788 50.2528 11.7177 50.161 11.765C50.1322 11.7379 50.1075 11.7067 50.0876 11.6723C50.0656 11.6349 50.0543 11.5919 50.055 11.5483C50.0557 11.5047 50.0684 11.4621 50.0917 11.4255C50.1218 11.3863 50.1611 11.3556 50.2061 11.3361C50.2935 11.2929 50.3863 11.2617 50.4818 11.2435C50.5902 11.2222 50.7004 11.2118 50.8109 11.2124M50.8191 13.1312C50.9087 13.133 50.9982 13.1218 51.0848 13.0979C51.1404 13.0842 51.1931 13.0602 51.2402 13.027V12.4416L50.7744 12.4916C50.6688 12.4988 50.5665 12.5315 50.4759 12.587C50.4427 12.6124 50.4163 12.6459 50.3992 12.6843C50.3821 12.7227 50.3748 12.765 50.3779 12.807C50.3761 12.8522 50.3848 12.8971 50.4032 12.9382C50.4217 12.9794 50.4494 13.0155 50.4841 13.0437C50.5831 13.1099 50.701 13.1405 50.8191 13.1308" fill="#CC0066"/>
<path d="M52.5397 13.4694C52.4749 13.4739 52.4105 13.4556 52.3574 13.4175C52.3352 13.3953 52.3181 13.3682 52.3075 13.3384C52.2968 13.3086 52.2929 13.2768 52.2959 13.2452V10.446L52.3816 10.4233C52.4217 10.4131 52.4629 10.4082 52.5042 10.4089C52.5687 10.4043 52.6328 10.4218 52.6865 10.4585C52.7088 10.4803 52.726 10.5069 52.7367 10.5365C52.7473 10.566 52.7512 10.5976 52.748 10.6289V13.4323C52.7234 13.4406 52.693 13.449 52.6569 13.4573C52.618 13.4661 52.5782 13.4703 52.5384 13.4698" fill="#CC0066"/>
<path d="M54.8018 12.4762V13.4317C54.7709 13.4417 54.7396 13.4501 54.7079 13.4567C54.6675 13.4653 54.6265 13.4695 54.5853 13.4692C54.5175 13.4751 54.45 13.4559 54.3952 13.415C54.3736 13.3911 54.3571 13.3628 54.3469 13.332C54.3367 13.3012 54.333 13.2686 54.336 13.2362V10.8561C54.3333 10.8115 54.348 10.7676 54.377 10.7339C54.4079 10.7024 54.4457 10.6789 54.4873 10.6653C54.5918 10.6295 54.7001 10.6065 54.81 10.5968C54.9315 10.5844 55.0472 10.5783 55.1572 10.5783C55.4565 10.5534 55.754 10.6438 55.9908 10.8316C56.0817 10.9202 56.153 11.0276 56.1995 11.1466C56.2461 11.2656 56.2669 11.3933 56.2606 11.5212C56.2662 11.6498 56.2451 11.7781 56.1987 11.8979C56.1522 12.0176 56.0813 12.126 55.9908 12.2159C55.7646 12.4067 55.4744 12.5005 55.1814 12.4776L54.8018 12.4762ZM55.1572 12.0733C55.323 12.0829 55.487 12.0338 55.6212 11.9343C55.6791 11.8836 55.7246 11.8199 55.754 11.7482C55.7834 11.6764 55.796 11.5987 55.7907 11.5212C55.7971 11.4453 55.7859 11.3688 55.7579 11.2981C55.7298 11.2274 55.6858 11.1644 55.6294 11.1141C55.4932 11.0198 55.3299 10.9744 55.1654 10.9854C55.1028 10.9854 55.0387 10.9881 54.9731 10.9937C54.914 10.9984 54.8553 11.0068 54.7972 11.0187V12.0737L55.1572 12.0733Z" fill="#CC0066"/>
<path d="M57.4925 11.2143C57.7196 11.2015 57.9443 11.2668 58.1305 11.3995C58.2131 11.4718 58.2776 11.5629 58.3188 11.6653C58.36 11.7678 58.3767 11.8788 58.3675 11.9891V13.065C58.3713 13.1233 58.3552 13.1812 58.3219 13.229C58.2864 13.2714 58.2451 13.3085 58.1993 13.3392C58.1091 13.3906 58.013 13.4304 57.9131 13.4577C57.7786 13.4946 57.6396 13.5121 57.5002 13.5096C57.27 13.5232 57.0416 13.4613 56.8485 13.3332C56.7703 13.2734 56.7079 13.1948 56.6669 13.1046C56.6259 13.0143 56.6075 12.9151 56.6134 12.8158C56.6083 12.7298 56.622 12.6436 56.6535 12.5635C56.6851 12.4835 56.7336 12.4115 56.7957 12.3527C56.9463 12.2328 57.1296 12.1631 57.3207 12.1531L57.9213 12.0864V11.9868C57.9263 11.9312 57.9176 11.8752 57.8963 11.8238C57.8749 11.7723 57.8414 11.727 57.7987 11.6918C57.6983 11.625 57.5795 11.5926 57.4597 11.5992C57.3476 11.5988 57.236 11.6155 57.1288 11.6487C57.0302 11.6788 56.9344 11.7177 56.8426 11.765C56.8139 11.7379 56.7891 11.7067 56.7692 11.6723C56.7472 11.6349 56.7359 11.5919 56.7366 11.5483C56.7374 11.5047 56.7501 11.4621 56.7733 11.4255C56.8034 11.3864 56.8428 11.3556 56.8877 11.3361C56.9752 11.2929 57.0679 11.2617 57.1634 11.2435C57.2719 11.2221 57.3821 11.2118 57.4925 11.2124M57.5007 13.1312C57.5904 13.133 57.6798 13.1218 57.7664 13.0979C57.822 13.0842 57.8747 13.0602 57.9218 13.027V12.4416L57.456 12.4916C57.3505 12.4988 57.2481 12.5315 57.1575 12.587C57.1243 12.6124 57.098 12.6459 57.0809 12.6843C57.0637 12.7227 57.0564 12.765 57.0595 12.807C57.0577 12.8522 57.0664 12.8971 57.0849 12.9382C57.1033 12.9794 57.131 13.0155 57.1657 13.0437C57.2647 13.1099 57.3826 13.1405 57.5007 13.1308" fill="#CC0066"/>
<path d="M59.3364 12.9375C59.2629 12.7853 59.1737 12.5707 59.0689 12.2937C58.9641 12.0168 58.864 11.7038 58.7686 11.3549C58.7977 11.3201 58.8332 11.2912 58.8729 11.2697C58.9148 11.2463 58.9619 11.2342 59.0096 11.2345C59.0651 11.2318 59.1198 11.2482 59.165 11.2808C59.2137 11.3255 59.2479 11.3841 59.263 11.449C59.342 11.6981 59.4232 11.9439 59.5064 12.1863C59.5896 12.4287 59.6815 12.6786 59.7821 12.9361H59.7985C59.842 12.8364 59.8862 12.7207 59.9312 12.5892C59.9761 12.4577 60.0197 12.3178 60.0619 12.1696C60.1042 12.0214 60.1444 11.8712 60.1827 11.719C60.221 11.5668 60.255 11.4215 60.2848 11.2832C60.3124 11.2692 60.3411 11.2574 60.3705 11.248C60.4049 11.2377 60.4407 11.2329 60.4767 11.2336C60.5333 11.2314 60.5892 11.2476 60.6362 11.2799C60.6586 11.2977 60.6762 11.3208 60.6876 11.3473C60.699 11.3737 60.7037 11.4026 60.7013 11.4314C60.6947 11.555 60.6749 11.6775 60.6421 11.7968C60.6026 11.9601 60.5516 12.1415 60.489 12.341C60.4264 12.5404 60.3548 12.7411 60.2743 12.9431C60.1938 13.1453 60.1127 13.3253 60.031 13.4831C59.9225 13.7022 59.7924 13.9095 59.6426 14.1018C59.6056 14.1591 59.5569 14.2076 59.4998 14.2441C59.4427 14.2807 59.3786 14.3043 59.3118 14.3135C59.2768 14.3155 59.2417 14.3104 59.2088 14.2983C59.1758 14.2862 59.1456 14.2674 59.1199 14.2431C59.0722 14.1944 59.0404 14.132 59.0288 14.0643C59.0822 14.0155 59.1327 13.9636 59.1801 13.9087C59.2345 13.847 59.289 13.7806 59.3437 13.7096C59.3984 13.6385 59.4508 13.5658 59.5009 13.4914C59.5484 13.4218 59.59 13.3482 59.6253 13.2714C59.5721 13.2518 59.5239 13.2201 59.4845 13.1788C59.4217 13.1061 59.3714 13.0233 59.3355 12.9338" fill="#CC0066"/>
<path d="M63.5378 11.6982C63.4555 11.6322 63.3522 11.5993 63.2475 11.6055C63.1692 11.6052 63.0917 11.6209 63.0196 11.6519C62.946 11.6836 62.8783 11.7278 62.8191 11.7825C62.8247 11.8085 62.8288 11.8347 62.8314 11.8612C62.8342 11.889 62.8355 11.9168 62.8355 11.9441V13.4312C62.8084 13.4421 62.7803 13.4504 62.7516 13.4563C62.7135 13.4648 62.6745 13.469 62.6354 13.4688C62.5687 13.4741 62.5022 13.4557 62.4472 13.4169C62.4251 13.3946 62.4081 13.3676 62.3975 13.3378C62.387 13.308 62.3831 13.2761 62.3861 13.2446V11.9941C62.3909 11.9398 62.3839 11.885 62.3656 11.8337C62.3472 11.7824 62.318 11.7358 62.28 11.6972C62.1976 11.6313 62.0943 11.5984 61.9897 11.6046C61.9118 11.6042 61.8346 11.6183 61.7618 11.6463C61.6987 11.6703 61.6386 11.7014 61.5823 11.7389V13.4336C61.5551 13.4444 61.527 13.4528 61.4984 13.4586C61.4587 13.4672 61.4182 13.4714 61.3776 13.4711C61.3128 13.4757 61.2484 13.4574 61.1953 13.4192C61.1731 13.397 61.156 13.37 61.1453 13.3401C61.1347 13.3103 61.1308 13.2785 61.1338 13.2469V11.7269C61.1308 11.6669 61.1442 11.6073 61.1725 11.5546C61.2067 11.5029 61.2503 11.4584 61.301 11.4235C61.5121 11.29 61.7552 11.2182 62.0038 11.216C62.1279 11.2138 62.2514 11.2342 62.3684 11.2763C62.4694 11.3129 62.5605 11.3734 62.6341 11.4527C62.7198 11.3823 62.8155 11.3256 62.918 11.2846C63.0411 11.2366 63.1722 11.2133 63.304 11.216C63.412 11.2153 63.5195 11.2309 63.623 11.2624C63.7157 11.2897 63.8015 11.3371 63.8746 11.4013C63.9463 11.4668 64.0028 11.5476 64.04 11.638C64.0834 11.7467 64.1044 11.8634 64.1016 11.9807V13.4345C64.0716 13.4444 64.0412 13.4527 64.0104 13.4595C63.9723 13.468 63.9333 13.4722 63.8942 13.472C63.8294 13.4765 63.765 13.4582 63.7119 13.4201C63.6897 13.3979 63.6726 13.3709 63.662 13.3411C63.6513 13.3113 63.6474 13.2794 63.6504 13.2478V11.9974C63.6553 11.943 63.6483 11.8882 63.63 11.8369C63.6116 11.7855 63.5823 11.739 63.5442 11.7005" fill="#CC0066"/>
<path d="M65.0457 12.6052C65.0719 12.7599 65.1552 12.8987 65.2786 12.9933C65.4116 13.0823 65.5688 13.1265 65.7279 13.1197C65.8404 13.1211 65.9521 13.1007 66.057 13.0595C66.1426 13.0266 66.2242 12.9841 66.3004 12.9326C66.3377 12.9523 66.3688 12.9822 66.3904 13.0188C66.4121 13.0554 66.4233 13.0974 66.4229 13.1401C66.4224 13.1941 66.4021 13.2459 66.366 13.2855C66.3224 13.334 66.2695 13.3729 66.2106 13.3999C66.1378 13.4343 66.0613 13.4601 65.9827 13.4768C65.7378 13.5273 65.4841 13.5113 65.2472 13.4305C65.1154 13.3835 64.9954 13.3076 64.8958 13.2082C64.7942 13.1049 64.7164 12.9802 64.6679 12.8427C64.6123 12.682 64.5853 12.5125 64.5881 12.3421C64.5851 12.1761 64.6107 12.0109 64.6638 11.8539C64.7088 11.7231 64.7805 11.6034 64.8744 11.5029C64.9638 11.4091 65.0717 11.3355 65.1911 11.2871C65.3139 11.237 65.4452 11.2116 65.5776 11.2125C65.707 11.2107 65.8355 11.2354 65.9554 11.2852C66.0652 11.331 66.1648 11.399 66.2481 11.4851C66.3314 11.5711 66.3966 11.6734 66.4398 11.7859C66.487 11.9075 66.5105 12.0372 66.5091 12.168C66.5117 12.1985 66.5084 12.2294 66.4993 12.2586C66.4901 12.2879 66.4753 12.315 66.4558 12.3384C66.4139 12.3775 66.3609 12.4022 66.3044 12.4088L65.0457 12.6052ZM65.5771 11.5862C65.5031 11.5845 65.4296 11.599 65.3615 11.6287C65.2935 11.6584 65.2326 11.7027 65.1829 11.7585C65.0702 11.8949 65.0113 12.0688 65.0175 12.2467L66.0798 12.0846C66.0723 11.9544 66.0228 11.8304 65.9389 11.7317C65.893 11.6819 65.8367 11.643 65.7743 11.6178C65.7118 11.5927 65.6442 11.5819 65.5771 11.5862Z" fill="#CC0066"/>
<path d="M68.2178 11.7108C68.1269 11.636 68.0119 11.5982 67.8951 11.6047C67.8035 11.6033 67.7123 11.6174 67.6253 11.6464C67.5546 11.6708 67.4862 11.7018 67.4211 11.739V13.4337C67.394 13.4445 67.3659 13.4529 67.3373 13.4587C67.2976 13.4673 67.2571 13.4715 67.2165 13.4712C67.1517 13.4757 67.0873 13.4574 67.0342 13.4193C67.0119 13.3971 66.9949 13.37 66.9842 13.3402C66.9736 13.3104 66.9696 13.2786 66.9727 13.247V11.727C66.9698 11.667 66.9832 11.6074 67.0114 11.5547C67.0458 11.503 67.0895 11.4585 67.1404 11.4236C67.2409 11.3661 67.3471 11.3196 67.4572 11.2847C67.5991 11.2385 67.7475 11.2162 67.8965 11.2184C68.1316 11.2048 68.3639 11.2762 68.5523 11.4199C68.6352 11.4961 68.6998 11.5906 68.7413 11.696C68.7827 11.8015 68.8 11.9152 68.7916 12.0285V13.4364C68.7628 13.4468 68.7334 13.4551 68.7036 13.4614C68.6641 13.4701 68.6237 13.4743 68.5833 13.4739C68.5184 13.4785 68.454 13.4602 68.401 13.4221C68.3788 13.3998 68.3618 13.3728 68.3512 13.343C68.3407 13.3131 68.3368 13.2813 68.3399 13.2498V12.0456C68.345 11.9851 68.337 11.9242 68.3166 11.8672C68.2961 11.8102 68.2637 11.7583 68.2214 11.7154" fill="#CC0066"/>
<path d="M69.931 13.0433C70.0067 13.0931 70.0961 13.1171 70.1862 13.1118C70.2388 13.1114 70.291 13.1038 70.3416 13.0891C70.3912 13.0759 70.4392 13.0571 70.4847 13.0331C70.5046 13.0593 70.5224 13.087 70.538 13.116C70.5648 13.17 70.5702 13.2323 70.5533 13.2902C70.5363 13.3482 70.4982 13.3973 70.4468 13.4277C70.3415 13.4871 70.2216 13.5144 70.1014 13.5064C69.9167 13.516 69.7344 13.4611 69.5846 13.3508C69.5154 13.2871 69.4619 13.2079 69.4282 13.1195C69.3944 13.031 69.3815 12.9358 69.3904 12.8414V10.6859C69.4202 10.6754 69.4507 10.667 69.4816 10.6609C69.5219 10.6524 69.563 10.6482 69.6042 10.6484C69.6681 10.6431 69.7318 10.6608 69.7842 10.6984C69.8054 10.7209 69.8215 10.7478 69.8314 10.7772C69.8413 10.8066 69.8448 10.8379 69.8416 10.8688V11.3255H70.512C70.5254 11.3506 70.5364 11.377 70.5449 11.4042C70.556 11.4391 70.5615 11.4755 70.5613 11.5121C70.5613 11.6424 70.508 11.7074 70.4017 11.7071H69.8416V12.808C69.837 12.8517 69.8429 12.8959 69.8587 12.9368C69.8746 12.9777 69.9 13.0141 69.9328 13.0428" fill="#CC0066"/>
<path d="M72.5298 12.8461C72.5339 12.9382 72.5166 13.03 72.4793 13.1141C72.442 13.1981 72.3858 13.2721 72.3152 13.33C72.1333 13.4596 71.9133 13.5219 71.6917 13.5065C71.5862 13.5073 71.4809 13.4975 71.3773 13.4773C71.2939 13.4619 71.2128 13.4355 71.1362 13.3986C71.0768 13.37 71.024 13.3289 70.9812 13.2782C70.9446 13.2356 70.9242 13.181 70.9238 13.1244C70.9237 13.0802 70.9342 13.0367 70.9544 12.9975C70.9751 12.9569 71.0067 12.923 71.0455 12.8998C71.1316 12.9591 71.2232 13.0098 71.3189 13.0512C71.4329 13.099 71.5553 13.1223 71.6785 13.1198C71.7827 13.1267 71.8865 13.1022 71.977 13.0494C72.0098 13.0273 72.0365 12.997 72.0544 12.9614C72.0723 12.9258 72.0808 12.886 72.0791 12.8461C72.0808 12.812 72.0756 12.7779 72.0637 12.746C72.0517 12.7141 72.0334 12.6851 72.0098 12.6608C71.9502 12.6081 71.8784 12.5716 71.8011 12.5547L71.5067 12.4718C71.3469 12.435 71.199 12.357 71.0774 12.2454C71.0299 12.1926 70.9934 12.1307 70.9699 12.0633C70.9464 11.9959 70.9365 11.9244 70.9407 11.8531C70.9402 11.7663 70.9584 11.6805 70.994 11.6016C71.0293 11.523 71.0817 11.4535 71.1471 11.3983C71.2217 11.3374 71.3071 11.2916 71.3987 11.2635C71.5098 11.2287 71.6256 11.2118 71.7418 11.2135C71.8379 11.2125 71.9338 11.2215 72.0281 11.2404C72.1034 11.2554 72.1768 11.2792 72.2468 11.3112C72.302 11.3355 72.351 11.3725 72.3899 11.4191C72.4224 11.4579 72.4405 11.5071 72.441 11.5581C72.4419 11.6016 72.4314 11.6446 72.4104 11.6827C72.3915 11.7168 72.3657 11.7464 72.3348 11.7697C72.2601 11.7268 72.1823 11.6899 72.1019 11.6595C71.9977 11.6187 71.8868 11.5983 71.7751 11.5993C71.6755 11.5935 71.5763 11.6165 71.4889 11.6655C71.4618 11.6828 71.4387 11.706 71.4213 11.7334C71.4039 11.7608 71.3926 11.7917 71.3883 11.824C71.384 11.8563 71.3866 11.8891 71.3961 11.9202C71.4057 11.9513 71.4218 11.98 71.4434 12.0041C71.5005 12.0541 71.5697 12.0878 71.6439 12.1018L71.8973 12.1685C72.0754 12.2107 72.2404 12.2971 72.3776 12.42C72.4302 12.4767 72.4708 12.5437 72.4972 12.6168C72.5235 12.69 72.5349 12.7678 72.5308 12.8456" fill="#CC0066"/>
<path d="M10.1486 6.31445V14.4227C10.1486 14.9535 9.9884 15.4715 9.68955 15.9068C9.3907 16.3421 8.96762 16.6737 8.47743 16.857L1.20112 19.5765C1.0866 19.6194 0.963572 19.6336 0.842508 19.6178C0.721444 19.602 0.605935 19.5566 0.505816 19.4857C0.405697 19.4147 0.323934 19.3202 0.26749 19.2103C0.211047 19.1003 0.181594 18.9781 0.181641 18.854V11.974C0.181874 11.5603 0.306777 11.1565 0.53955 10.817C0.772323 10.4776 1.1018 10.2187 1.48368 10.0752L8.209 7.54733C9.27041 7.11059 9.68513 6.84336 10.1491 6.31677" fill="white"/>
<path d="M16.5461 8.36635C16.5385 8.66783 16.4185 8.95511 16.2104 9.17008C16.0022 9.38504 15.7215 9.51162 15.425 9.5242H13.9001C13.8122 9.52632 13.727 9.49287 13.6634 9.43121C13.5997 9.36955 13.5627 9.28472 13.5606 9.19537V5.81999C13.5599 5.77522 13.5681 5.73077 13.5846 5.68927C13.6012 5.64777 13.6258 5.61007 13.6569 5.57841C13.6881 5.54675 13.7252 5.52177 13.766 5.50495C13.8068 5.48813 13.8506 5.47982 13.8946 5.48051H15.3662C15.5863 5.49234 15.7983 5.5688 15.9765 5.70063C16.1548 5.83245 16.2915 6.01398 16.3702 6.22321C16.449 6.43244 16.4663 6.66038 16.4201 6.87941C16.3739 7.09843 16.2662 7.29914 16.11 7.4572C16.2445 7.56635 16.3535 7.70455 16.429 7.8618C16.5046 8.01904 16.5442 8.19139 16.5461 8.36635ZM14.2077 7.16218L15.291 7.15106C15.4226 7.14667 15.5476 7.09158 15.6407 6.99698C15.7338 6.90237 15.788 6.77533 15.7923 6.64161C15.7915 6.51299 15.7416 6.3897 15.6531 6.29777C15.5646 6.20583 15.4444 6.15242 15.3179 6.14882H14.2077V7.16218ZM15.8785 8.36635C15.8694 8.23005 15.811 8.10201 15.7144 8.00697C15.6179 7.91193 15.4901 7.85664 15.3557 7.8518H14.2346V8.86469H15.3876C15.5164 8.86052 15.6387 8.80667 15.7298 8.71411C15.8209 8.62154 15.8739 8.49719 15.878 8.36635" fill="white"/>
<path d="M19.1988 7.85176H18.7084V9.19487C18.7065 9.28328 18.6703 9.36735 18.6078 9.42883C18.5453 9.49031 18.4614 9.52423 18.3744 9.52324C18.2887 9.52299 18.2066 9.48833 18.146 9.42682C18.0854 9.3653 18.0511 9.28193 18.0508 9.19487V5.80884C18.0535 5.7207 18.0899 5.63712 18.1523 5.57581C18.2147 5.5145 18.2981 5.48031 18.3848 5.48047H19.5648C19.8681 5.4872 20.1574 5.61196 20.3729 5.82902C20.5885 6.04608 20.7139 6.3389 20.7232 6.64713C20.7176 6.89571 20.6378 7.13669 20.4944 7.33816C20.351 7.53963 20.1508 7.69208 19.9202 7.77534L20.6694 9.01841C20.7131 9.09496 20.7258 9.18579 20.7047 9.27164C20.6836 9.35749 20.6304 9.43162 20.5564 9.47831C20.5052 9.50693 20.4477 9.52206 20.3892 9.52231C20.333 9.52226 20.2778 9.50764 20.2287 9.47984C20.1797 9.45204 20.1385 9.41198 20.1089 9.36345L19.1988 7.85176ZM20.072 6.65222C20.0658 6.51487 20.0072 6.38538 19.9086 6.29128C19.8099 6.19717 19.679 6.14589 19.5438 6.14832H18.7084V7.18344H19.5438C19.683 7.18357 19.8166 7.12782 19.9155 7.02833C20.0144 6.92884 20.0707 6.79366 20.072 6.65222Z" fill="white"/>
<path d="M24.5061 9.52251C23.9805 9.51676 23.4786 9.29981 23.11 8.91907C22.7414 8.53834 22.5362 8.02479 22.5391 7.4907C22.5459 7.09748 22.6669 6.71507 22.8868 6.39144C23.1066 6.06781 23.4157 5.81739 23.7751 5.67158C24.1345 5.52578 24.5283 5.49109 24.907 5.57187C25.2858 5.65265 25.6326 5.84531 25.904 6.12566C26.1754 6.40601 26.3593 6.76157 26.4326 7.14773C26.5059 7.53389 26.4653 7.93345 26.316 8.29628C26.1667 8.6591 25.9153 8.96904 25.5933 9.18719C25.2713 9.40534 24.8931 9.52199 24.5061 9.52251ZM23.1749 7.4907C23.1753 7.75884 23.254 8.02081 23.401 8.2435C23.5479 8.46618 23.7566 8.63958 24.0005 8.74174C24.2445 8.84391 24.5128 8.87026 24.7714 8.81746C25.0301 8.76467 25.2676 8.6351 25.4538 8.44515C25.64 8.25519 25.7666 8.01338 25.8176 7.7503C25.8686 7.48721 25.8416 7.21468 25.7402 6.96715C25.6387 6.71963 25.4673 6.50824 25.2477 6.35972C25.028 6.2112 24.7699 6.13222 24.5061 6.13277C24.1532 6.13629 23.8159 6.28065 23.5668 6.53469C23.3178 6.78874 23.177 7.13211 23.1749 7.4907Z" fill="white"/>
<path d="M31.1229 9.4954C31.0812 9.51192 31.0366 9.51975 30.9919 9.51845C30.9471 9.51714 30.9031 9.50672 30.8624 9.48781C30.8217 9.46889 30.7851 9.44186 30.7549 9.40832C30.7246 9.37478 30.7013 9.33541 30.6863 9.29255L29.7748 6.79158L28.8588 9.29255C28.8448 9.33553 28.8223 9.37514 28.7927 9.40893C28.7631 9.44271 28.7269 9.46996 28.6865 9.48897C28.6461 9.50799 28.6023 9.51837 28.5577 9.51948C28.5132 9.52058 28.4689 9.51239 28.4277 9.4954C28.3852 9.4806 28.3461 9.45716 28.3128 9.42652C28.2795 9.39587 28.2527 9.35866 28.234 9.31714C28.2154 9.27563 28.2052 9.23069 28.2042 9.18505C28.2032 9.13942 28.2113 9.09405 28.2281 9.05171L29.4458 5.6944C29.4714 5.62731 29.5166 5.56982 29.5754 5.52966C29.6341 5.48949 29.7036 5.46859 29.7744 5.46977C29.8448 5.47012 29.9136 5.49162 29.9721 5.53159C30.0306 5.57156 30.0761 5.6282 30.103 5.6944L31.3207 9.05171C31.3375 9.09402 31.3456 9.13937 31.3446 9.18498C31.3436 9.23059 31.3335 9.27551 31.3149 9.31702C31.2962 9.35853 31.2695 9.39575 31.2362 9.42641C31.203 9.45708 31.164 9.48055 31.1215 9.4954" fill="white"/>
<path d="M32.6807 9.19388V5.82499C32.6827 5.73856 32.7175 5.65627 32.7776 5.59514C32.8378 5.53401 32.9187 5.49873 33.0038 5.49662H33.8068C34.096 5.49489 34.3824 5.55452 34.6476 5.67169C34.9025 5.78534 35.1304 5.9534 35.3157 6.16447C35.5007 6.37788 35.6387 6.62895 35.7205 6.90091C35.8023 7.17287 35.8261 7.45944 35.7902 7.74147C35.7307 8.23121 35.4976 8.68214 35.1345 9.00978C34.7714 9.33741 34.3033 9.51929 33.8177 9.52132H33.0042C32.9192 9.51921 32.8382 9.48393 32.778 9.42281C32.7179 9.36168 32.6832 9.27938 32.6811 9.19296M35.1385 7.66459C35.1669 7.47544 35.1542 7.28225 35.1011 7.09866C35.048 6.91507 34.9559 6.74557 34.8313 6.60214C34.7024 6.4565 34.5443 6.3406 34.3677 6.26223C34.1911 6.18387 34 6.14485 33.8072 6.1478H33.3278V8.86413H33.8182C34.1451 8.86428 34.4605 8.74205 34.7043 8.52077C34.9481 8.29949 35.1032 7.99468 35.1398 7.66459" fill="white"/>
<path d="M38.9913 8.95821C38.83 9.20581 38.5815 9.38122 38.2969 9.44841C38.0123 9.5156 37.7131 9.46945 37.4609 9.31946C37.3836 9.27181 37.3264 9.19665 37.3006 9.10858C37.2747 9.02051 37.282 8.92581 37.321 8.84289C37.3795 8.77417 37.4614 8.73039 37.5502 8.72026C37.6391 8.71013 37.7284 8.7344 37.8004 8.78824C37.9122 8.84987 38.0427 8.86607 38.1658 8.83357C38.2888 8.80107 38.3951 8.72229 38.4631 8.61317C38.5007 8.55639 38.5269 8.49262 38.5402 8.42554C38.5535 8.35845 38.5537 8.28936 38.5407 8.22221C38.5277 8.15506 38.5018 8.09117 38.4644 8.0342C38.4271 7.97724 38.3791 7.9283 38.3232 7.89021C38.0593 7.72023 38.0497 7.71514 37.795 7.54517C37.5428 7.37883 37.3659 7.11749 37.3032 6.81863C37.2406 6.51977 37.2973 6.20786 37.4609 5.9515C37.6239 5.70594 37.8723 5.53216 38.1562 5.46506C38.4401 5.39796 38.7384 5.44252 38.9913 5.58978C39.0661 5.63419 39.1212 5.70611 39.1453 5.79067C39.1694 5.87524 39.1606 5.96597 39.1207 6.04412C39.0673 6.11574 38.9887 6.16368 38.9014 6.178C38.8141 6.19231 38.7247 6.1719 38.6518 6.12101C38.5352 6.06068 38.4003 6.04807 38.2748 6.08576C38.1493 6.12346 38.0428 6.20859 37.9773 6.32365C37.9117 6.43871 37.892 6.57493 37.9223 6.70429C37.9526 6.83364 38.0305 6.94629 38.14 7.01904C38.2767 7.10657 38.2767 7.10657 38.6627 7.36408C38.7874 7.44671 38.8947 7.55351 38.9787 7.67836C39.0627 7.80321 39.1216 7.94366 39.1522 8.09168C39.1827 8.2397 39.1842 8.39238 39.1566 8.54099C39.129 8.6896 39.0728 8.83168 38.9913 8.95821Z" fill="white"/>
<path d="M42.6291 7.84214C42.3278 7.8639 42.0254 7.86761 41.7236 7.85326V9.19637C41.7217 9.28478 41.6855 9.36885 41.623 9.43033C41.5604 9.49181 41.4766 9.52574 41.3895 9.52474C41.304 9.52438 41.222 9.48966 41.1615 9.42816C41.1009 9.36666 41.0668 9.28335 41.0664 9.19637V5.81961C41.0659 5.77633 41.0738 5.73338 41.0899 5.69328C41.1059 5.65319 41.1297 5.61677 41.1598 5.58617C41.19 5.55556 41.2258 5.5314 41.2652 5.51509C41.3047 5.49879 41.347 5.49068 41.3895 5.49124H42.5968C42.8976 5.50076 43.1833 5.62794 43.3941 5.84624C43.6049 6.06455 43.7247 6.35713 43.7284 6.66299C43.7235 6.96346 43.6079 7.25113 43.4043 7.46912C43.2008 7.68712 42.9241 7.81957 42.6291 7.84029M42.5539 6.14844H41.7241V7.18356H42.5539C42.6928 7.18273 42.8259 7.12667 42.9246 7.02738C43.0233 6.92809 43.0799 6.79347 43.0821 6.65233C43.0751 6.51531 43.0162 6.38636 42.9178 6.29245C42.8193 6.19854 42.689 6.14693 42.5539 6.14844Z" fill="white"/>
<path d="M45.4531 9.19448V5.80984C45.4535 5.72286 45.4877 5.63955 45.5482 5.57805C45.6087 5.51655 45.6907 5.48184 45.7762 5.48147H47.7177C47.8047 5.48035 47.8887 5.51424 47.9513 5.57575C48.0138 5.63725 48.05 5.72139 48.0518 5.80984C48.0513 5.89973 48.0159 5.98579 47.9534 6.04935C47.8908 6.11291 47.8061 6.14884 47.7177 6.14932H46.1117V7.18445H47.3244C47.367 7.18389 47.4092 7.192 47.4487 7.2083C47.4881 7.2246 47.524 7.24877 47.5541 7.27937C47.5842 7.30998 47.608 7.3464 47.624 7.38649C47.6401 7.42659 47.6481 7.46954 47.6475 7.51281C47.6481 7.55613 47.6402 7.59913 47.6242 7.63928C47.6081 7.67942 47.5844 7.7159 47.5543 7.74655C47.5241 7.77721 47.4883 7.80141 47.4488 7.81775C47.4093 7.83408 47.367 7.84221 47.3244 7.84164H46.1117V8.85454H47.7177C47.8061 8.85502 47.8908 8.89095 47.9534 8.95451C48.0159 9.01807 48.0513 9.10413 48.0518 9.19402C48.0498 9.28243 48.0137 9.3665 47.9511 9.42798C47.8886 9.48946 47.8047 9.52339 47.7177 9.52239H45.7776C45.692 9.52202 45.6101 9.48731 45.5495 9.42581C45.489 9.36431 45.4548 9.28099 45.4545 9.19402" fill="white"/>
<path d="M53.1216 9.08406C52.7785 9.36143 52.3528 9.51201 51.9144 9.51108C51.387 9.51108 50.8812 9.29816 50.5082 8.91916C50.1353 8.54017 49.9258 8.02614 49.9258 7.49016C49.9258 6.95418 50.1353 6.44015 50.5082 6.06115C50.8812 5.68216 51.387 5.46924 51.9144 5.46924C52.2727 5.46973 52.6237 5.57226 52.9275 5.76519C52.9657 5.78536 52.9995 5.81317 53.0268 5.84695C53.0541 5.88073 53.0744 5.91978 53.0865 5.96175C53.0986 6.00372 53.1022 6.04774 53.0971 6.09116C53.0921 6.13459 53.0784 6.17652 53.0569 6.21443C53.0351 6.25198 53.0058 6.28453 52.971 6.31006C52.9361 6.33559 52.8965 6.35355 52.8546 6.36281C52.8126 6.37207 52.7692 6.37243 52.7271 6.36388C52.685 6.35532 52.6451 6.33803 52.6099 6.31308C52.3996 6.18617 52.1594 6.11988 51.9148 6.12134C51.7401 6.12134 51.567 6.15634 51.4056 6.22434C51.2441 6.29234 51.0974 6.392 50.9739 6.51764C50.8503 6.64327 50.7523 6.79241 50.6855 6.95654C50.6187 7.12067 50.5844 7.29657 50.5845 7.47418C50.5785 7.72856 50.6433 7.97951 50.7712 8.19821C50.8992 8.41691 51.0853 8.59449 51.3081 8.71056C51.5309 8.82663 51.7815 8.87649 52.0309 8.85441C52.2803 8.83233 52.5186 8.7392 52.7183 8.58572C52.7496 8.55844 52.786 8.53778 52.8253 8.52493C52.8646 8.51208 52.9059 8.50731 52.947 8.51089C52.9881 8.51447 53.0282 8.52633 53.0647 8.54577C53.1013 8.56522 53.1336 8.59187 53.1599 8.62416C53.2148 8.69031 53.2416 8.77585 53.2345 8.86205C53.2274 8.94824 53.187 9.02808 53.1221 9.08406" fill="white"/>
<path d="M57.6098 5.80398C57.6099 5.84691 57.6015 5.88941 57.5852 5.92902C57.5689 5.96862 57.545 6.00455 57.515 6.03471C57.4849 6.06487 57.4493 6.08866 57.4101 6.10471C57.3709 6.12075 57.329 6.12873 57.2867 6.12818H56.4951V9.19511C56.4951 9.28152 56.4613 9.36439 56.4012 9.4255C56.3411 9.4866 56.2595 9.52093 56.1745 9.52093C56.0895 9.52093 56.0079 9.4866 55.9478 9.4255C55.8877 9.36439 55.8539 9.28152 55.8539 9.19511V6.12725H55.0618C54.9768 6.12725 54.8952 6.09293 54.8351 6.03182C54.775 5.97072 54.7412 5.88785 54.7412 5.80143C54.7412 5.71502 54.775 5.63215 54.8351 5.57104C54.8952 5.50994 54.9768 5.47561 55.0618 5.47561H57.2872C57.3298 5.47505 57.372 5.48316 57.4115 5.49947C57.4509 5.51577 57.4868 5.53994 57.5169 5.57054C57.547 5.60114 57.5708 5.63757 57.5868 5.67766C57.6029 5.71775 57.6104 5.7607 57.6098 5.80398Z" fill="white"/>
<path d="M60.3755 7.85176H59.8852V9.19487C59.8833 9.28328 59.8471 9.36735 59.7846 9.42883C59.722 9.49031 59.6381 9.52423 59.5511 9.52324C59.4654 9.52299 59.3833 9.48833 59.3227 9.42682C59.2621 9.3653 59.2279 9.28193 59.2275 9.19487V5.80884C59.2303 5.7207 59.2667 5.63712 59.329 5.57581C59.3914 5.5145 59.4748 5.48031 59.5616 5.48047H60.742C61.0453 5.4872 61.3346 5.61196 61.5501 5.82902C61.7657 6.04608 61.8911 6.3389 61.9004 6.64713C61.8948 6.89571 61.815 7.13669 61.6716 7.33816C61.5282 7.53963 61.328 7.69208 61.0974 7.77534L61.8466 9.01841C61.8903 9.09502 61.9028 9.18588 61.8816 9.27174C61.8604 9.3576 61.8072 9.43169 61.7331 9.47831C61.6819 9.50695 61.6244 9.52208 61.5659 9.52231C61.5098 9.52226 61.4545 9.50764 61.4055 9.47984C61.3564 9.45204 61.3152 9.41198 61.2856 9.36345L60.3755 7.85176ZM61.2487 6.65222C61.2426 6.51487 61.184 6.38538 61.0853 6.29128C60.9867 6.19717 60.8558 6.14589 60.7205 6.14832H59.8852V7.18344H60.7205C60.8597 7.18357 60.9933 7.12782 61.0922 7.02833C61.1911 6.92884 61.2474 6.79366 61.2487 6.65222Z" fill="white"/>
<path d="M66.6269 5.8034V8.04315C66.6303 8.23952 66.5952 8.43462 66.5237 8.61705C66.4521 8.79949 66.3454 8.9656 66.21 9.1057C66.0746 9.2458 65.913 9.35708 65.7348 9.43305C65.5566 9.50901 65.3652 9.54813 65.172 9.54813C64.9787 9.54813 64.7874 9.50901 64.6091 9.43305C64.4309 9.35708 64.2694 9.2458 64.1339 9.1057C63.9985 8.9656 63.8919 8.79949 63.8203 8.61705C63.7487 8.43462 63.7136 8.23952 63.717 8.04315V5.8034C63.717 5.71477 63.7517 5.62978 63.8133 5.56711C63.875 5.50445 63.9586 5.46924 64.0458 5.46924C64.133 5.46924 64.2167 5.50445 64.2784 5.56711C64.34 5.62978 64.3747 5.71477 64.3747 5.8034V8.04315C64.3747 8.25958 64.4593 8.46715 64.6099 8.62019C64.7605 8.77323 64.9647 8.85921 65.1776 8.85921C65.3906 8.85921 65.5949 8.77323 65.7455 8.62019C65.8961 8.46715 65.9807 8.25958 65.9807 8.04315V5.8034C65.9801 5.76012 65.9881 5.71717 66.0042 5.67707C66.0202 5.63698 66.044 5.60056 66.0741 5.56996C66.1042 5.53935 66.14 5.51519 66.1795 5.49888C66.2189 5.48258 66.2612 5.47447 66.3038 5.47503C66.3464 5.47447 66.3886 5.48258 66.4281 5.49888C66.4675 5.51519 66.5034 5.53935 66.5335 5.56996C66.5636 5.60056 66.5874 5.63698 66.6034 5.67707C66.6195 5.71717 66.6275 5.76012 66.6269 5.8034Z" fill="white"/>
<path d="M72.4304 9.12304C72.4421 9.16334 72.4455 9.20562 72.4406 9.24733C72.4357 9.28903 72.4225 9.32929 72.4019 9.36566C72.3812 9.40204 72.3534 9.43377 72.3204 9.45894C72.2873 9.48411 72.2495 9.50218 72.2094 9.51208H72.193C72.1875 9.51208 72.1875 9.51208 72.1824 9.5232H72.1446C72.0692 9.52255 71.9964 9.49554 71.9383 9.4467C71.8802 9.39786 71.8404 9.33018 71.8256 9.25503L71.3836 7.06438L70.5701 9.28236C70.5485 9.3493 70.5066 9.40758 70.4505 9.44891C70.3943 9.49023 70.3267 9.51248 70.2574 9.51248C70.1881 9.51248 70.1206 9.49023 70.0644 9.44891C70.0083 9.40758 69.9664 9.3493 69.9448 9.28236L69.2279 7.16858L68.8506 9.25503C68.8387 9.332 68.7998 9.40203 68.7412 9.4523C68.6826 9.50256 68.6082 9.5297 68.5315 9.52875C68.5151 9.52875 68.4937 9.5232 68.4777 9.5232C68.4345 9.51682 68.3932 9.5007 68.3569 9.47602C68.3205 9.45134 68.29 9.41873 68.2677 9.38055C68.2417 9.34698 68.2234 9.30795 68.2141 9.2663C68.2048 9.22464 68.2047 9.18139 68.2139 9.13971L68.769 5.74442C68.7828 5.67051 68.8205 5.60342 68.8762 5.55382C68.9318 5.50422 69.0023 5.47496 69.0762 5.4707H69.1031C69.1726 5.47066 69.2403 5.49307 69.2965 5.53469C69.3527 5.57631 69.3945 5.63499 69.4157 5.70227L70.267 8.13933L71.1562 5.69116C71.1769 5.62566 71.2182 5.56883 71.2736 5.5293C71.329 5.48976 71.3956 5.46968 71.4633 5.47209H71.4797C71.5533 5.47258 71.6243 5.49993 71.6796 5.54916C71.735 5.59839 71.7711 5.66621 71.7814 5.74025L72.4304 9.12304Z" fill="white"/>
</g>
</svg>
