<svg width="74" height="20" viewBox="0 0 74 20" fill="none" xmlns="http://www.w3.org/2000/svg">
<mask id="mask0_2057_110792" style="mask-type:luminance" maskUnits="userSpaceOnUse" x="0" y="0" width="74" height="20">
<path d="M73.9365 0.253418H0.866211V19.7808H73.9365V0.253418Z" fill="white"/>
</mask>
<g mask="url(#mask0_2057_110792)">
<path d="M8.80398 3.20902L2.13385 0.328338C1.99531 0.268414 1.84432 0.244323 1.69437 0.258221C1.54443 0.272119 1.40022 0.323572 1.27463 0.407978C1.14905 0.492383 1.04601 0.607109 0.974735 0.74189C0.903461 0.876672 0.866175 1.02731 0.866211 1.18032V8.59431C0.866206 8.75195 0.903789 8.90724 0.97574 9.04689C1.04769 9.18654 1.15187 9.3064 1.27936 9.39619C1.40685 9.48599 1.55385 9.54306 1.70778 9.56251C1.86171 9.58196 2.01799 9.56322 2.16323 9.50788L6.58872 7.82165L1.7941 5.79155C1.72545 5.75929 1.67176 5.70125 1.64432 5.62962C1.61688 5.55799 1.61781 5.47834 1.64693 5.40739C1.67604 5.33645 1.73107 5.27972 1.80046 5.24913C1.86985 5.21854 1.9482 5.21645 2.01907 5.24332L7.3908 7.51651L8.90086 6.94074C11.4848 6.02998 11.6193 4.2103 8.80444 3.20809M9.4362 5.56713C9.40636 5.63966 9.34946 5.69722 9.27795 5.72721C9.20645 5.75721 9.12616 5.75719 9.05467 5.72716L1.68483 2.60806C1.6494 2.59308 1.61723 2.57115 1.59015 2.54354C1.56306 2.51592 1.5416 2.48315 1.52697 2.44711C1.49744 2.37431 1.49758 2.29256 1.52735 2.21986C1.55712 2.14716 1.61409 2.08946 1.68573 2.05945C1.75736 2.02943 1.8378 2.02957 1.90934 2.05983L9.27872 5.17986C9.31421 5.19482 9.34645 5.21676 9.37358 5.2444C9.40071 5.27205 9.42221 5.30487 9.43684 5.34098C9.45147 5.37708 9.45894 5.41577 9.45883 5.45482C9.45872 5.49386 9.45103 5.53251 9.4362 5.56853" fill="#CC0066"/>
<path d="M44.5723 12.1149C44.5766 12.3382 44.5424 12.5606 44.4712 12.7719C44.4112 12.9471 44.3135 13.1064 44.1852 13.2384C44.0598 13.3638 43.9078 13.4583 43.7408 13.5147C43.5548 13.5768 43.3599 13.6072 43.1641 13.6047C43.0723 13.6047 42.9638 13.6005 42.8386 13.5921C42.7206 13.5855 42.6042 13.5616 42.4929 13.5212C42.4358 13.5098 42.3844 13.4784 42.3476 13.4326C42.3108 13.3868 42.2909 13.3293 42.2913 13.2702V10.9433C42.2886 10.8983 42.3035 10.8541 42.3327 10.8201C42.3637 10.7884 42.4018 10.7648 42.4438 10.7511C42.553 10.7166 42.6655 10.694 42.7794 10.6839C42.8987 10.6727 43.0148 10.6671 43.1274 10.6671C43.3269 10.6649 43.5255 10.6945 43.716 10.7548C43.8871 10.8083 44.0441 10.9005 44.1751 11.0245C44.3052 11.1518 44.4057 11.3068 44.4694 11.4785C44.5433 11.6819 44.5789 11.8977 44.5746 12.1145M44.0929 12.1187C44.0965 11.958 44.0721 11.798 44.0209 11.646C43.9786 11.5244 43.9095 11.4143 43.8188 11.3241C43.7319 11.2399 43.6278 11.1762 43.514 11.1374C43.3925 11.0962 43.2651 11.0757 43.1371 11.0768C43.01 11.0746 42.883 11.0859 42.7583 11.1104V13.1605C42.8212 13.1754 42.8853 13.1852 42.9497 13.1899C43.0198 13.1955 43.0919 13.1983 43.166 13.1983C43.2934 13.207 43.4211 13.1871 43.54 13.1401C43.659 13.0931 43.7664 13.0201 43.8547 12.9263C44.0282 12.6956 44.1125 12.4083 44.0916 12.1187" fill="#CC0066"/>
<path d="M45.0587 10.7047C45.0577 10.6675 45.0639 10.6304 45.077 10.5956C45.09 10.5607 45.1097 10.5289 45.1349 10.5018C45.1607 10.4746 45.1917 10.4533 45.2262 10.4392C45.2606 10.4251 45.2976 10.4186 45.3346 10.4201C45.3711 10.4189 45.4073 10.4256 45.4411 10.4397C45.4748 10.4537 45.5052 10.4749 45.5302 10.5018C45.5793 10.5576 45.6064 10.6299 45.6064 10.7047C45.6064 10.7796 45.5793 10.8519 45.5302 10.9077C45.5052 10.9346 45.4748 10.9558 45.4411 10.9698C45.4073 10.9839 45.3711 10.9906 45.3346 10.9894C45.2976 10.9909 45.2606 10.9844 45.2262 10.9703C45.1917 10.9562 45.1607 10.9349 45.1349 10.9077C45.1097 10.8806 45.09 10.8488 45.0769 10.8139C45.0638 10.7791 45.0576 10.742 45.0587 10.7047ZM45.561 13.5416C45.5336 13.5524 45.5054 13.5609 45.4765 13.5668C45.4367 13.5754 45.396 13.5797 45.3553 13.5794C45.2888 13.5849 45.2224 13.5664 45.168 13.5271C45.1463 13.5043 45.1296 13.477 45.1193 13.447C45.109 13.417 45.1053 13.3851 45.1083 13.3535V11.385L45.1946 11.3622C45.235 11.3519 45.2765 11.3471 45.3181 11.3477C45.3835 11.3423 45.4486 11.3609 45.5018 11.4C45.5231 11.4238 45.5392 11.452 45.5491 11.4826C45.559 11.5133 45.5624 11.5457 45.5592 11.5777L45.561 13.5416Z" fill="#CC0066"/>
<path d="M47.5185 13.3449C47.4558 13.3852 47.388 13.4166 47.3169 13.4382C47.2246 13.4651 47.1288 13.4779 47.0327 13.476C46.909 13.4768 46.786 13.4569 46.6687 13.4172C46.5554 13.3785 46.4521 13.3148 46.3661 13.2306C46.2735 13.138 46.2031 13.0249 46.1604 12.9002C46.1068 12.7378 46.0818 12.5671 46.0865 12.3959C46.0834 12.2357 46.1085 12.0763 46.1604 11.9251C46.2051 11.7974 46.2776 11.6816 46.3725 11.5863C46.4655 11.495 46.5762 11.4244 46.6976 11.3792C46.8329 11.33 46.9758 11.306 47.1195 11.3083C47.2521 11.3071 47.384 11.3268 47.5107 11.3666C47.6156 11.3987 47.7154 11.4459 47.8073 11.5065C47.8513 11.5373 47.889 11.5764 47.9184 11.6218C47.9472 11.6702 47.9616 11.7262 47.9597 11.7828V13.6104C47.9633 13.7481 47.9381 13.885 47.8858 14.0121C47.84 14.119 47.7685 14.2126 47.6778 14.2841C47.5833 14.3563 47.4754 14.4082 47.3605 14.4367C47.2319 14.4691 47.0996 14.4848 46.9671 14.4833C46.8393 14.4854 46.7119 14.4697 46.5883 14.4367C46.5054 14.4151 46.4253 14.3838 46.3496 14.3434C46.2907 14.3068 46.2474 14.2491 46.2284 14.1818C46.2094 14.1144 46.2159 14.0422 46.2467 13.9794C46.2659 13.9432 46.2942 13.9129 46.3289 13.8917C46.4098 13.9497 46.4986 13.9955 46.5924 14.0275C46.706 14.0686 46.8258 14.0891 46.9464 14.0882C47.0963 14.0974 47.2448 14.0553 47.3684 13.9687C47.4212 13.9213 47.4624 13.862 47.4885 13.7954C47.5145 13.7289 47.5248 13.657 47.5185 13.5856V13.3449ZM47.0943 13.0939C47.1797 13.0963 47.2646 13.0804 47.3436 13.0472C47.4054 13.0202 47.4619 12.982 47.5102 12.9343V11.8094C47.4608 11.7776 47.4076 11.7523 47.3518 11.7342C47.2793 11.7106 47.2034 11.6993 47.1273 11.7006C47.0484 11.6974 46.9698 11.7111 46.8964 11.7406C46.823 11.7702 46.7565 11.8151 46.7013 11.8723C46.5825 12.0171 46.5242 12.2033 46.5387 12.3912C46.5362 12.5017 46.5508 12.6119 46.5819 12.7178C46.6058 12.7982 46.6465 12.8723 46.7013 12.9352C46.7493 12.9891 46.8093 13.0307 46.8762 13.0565C46.946 13.0824 47.0199 13.0947 47.0943 13.0939Z" fill="#CC0066"/>
<path d="M48.525 10.7047C48.524 10.6675 48.5302 10.6304 48.5432 10.5956C48.5563 10.5607 48.576 10.5289 48.6012 10.5018C48.627 10.4746 48.6581 10.4533 48.6925 10.4392C48.7269 10.4251 48.7639 10.4186 48.801 10.4201C48.8374 10.4189 48.8736 10.4255 48.9074 10.4396C48.9411 10.4537 48.9715 10.4749 48.9965 10.5018C49.0456 10.5576 49.0728 10.6299 49.0728 10.7047C49.0728 10.7796 49.0456 10.8519 48.9965 10.9077C48.9715 10.9346 48.9411 10.9558 48.9074 10.9699C48.8736 10.9839 48.8374 10.9906 48.801 10.9894C48.7639 10.9909 48.7269 10.9844 48.6925 10.9703C48.6581 10.9562 48.627 10.9349 48.6012 10.9077C48.576 10.8806 48.5563 10.8488 48.5432 10.8139C48.5301 10.7791 48.524 10.742 48.525 10.7047ZM49.0273 13.5416C48.9999 13.5524 48.9716 13.5609 48.9428 13.5668C48.9028 13.5755 48.862 13.5797 48.8211 13.5794C48.7546 13.585 48.6882 13.5665 48.6338 13.5271C48.6121 13.5043 48.5954 13.477 48.5851 13.447C48.5748 13.417 48.5711 13.3851 48.5741 13.3535V11.385L48.6605 11.3622C48.7008 11.3519 48.7423 11.3471 48.7839 11.3477C48.8493 11.3423 48.9145 11.3609 48.9676 11.4C48.9889 11.4238 49.0051 11.452 49.0149 11.4826C49.0248 11.5133 49.0283 11.5457 49.025 11.5777L49.0273 13.5416Z" fill="#CC0066"/>
<path d="M50.2055 13.1504C50.2817 13.2007 50.3718 13.2248 50.4626 13.2195C50.5155 13.2191 50.5682 13.2114 50.6191 13.1966C50.6691 13.1833 50.7175 13.1644 50.7633 13.1402C50.7834 13.1665 50.8013 13.1944 50.817 13.2237C50.8439 13.2781 50.8493 13.3408 50.8322 13.3992C50.8152 13.4575 50.7769 13.507 50.7252 13.5377C50.6191 13.5976 50.4983 13.6251 50.3772 13.617C50.1911 13.6266 50.0074 13.5713 49.8565 13.4603C49.7869 13.3961 49.7329 13.3162 49.699 13.2271C49.665 13.138 49.652 13.0421 49.6609 12.947V10.7755C49.6909 10.7649 49.7216 10.7565 49.7528 10.7503C49.7934 10.7418 49.8348 10.7375 49.8763 10.7377C49.9407 10.7324 50.0049 10.7502 50.0576 10.7881C50.0789 10.8108 50.095 10.8379 50.1049 10.8676C50.1148 10.8972 50.1183 10.9287 50.115 10.9598V11.4199H50.7904C50.8038 11.4452 50.8148 11.4718 50.8234 11.4992C50.8346 11.5343 50.8402 11.571 50.84 11.6079C50.84 11.7392 50.7864 11.8047 50.6793 11.8044H50.115V12.9134C50.1104 12.9575 50.1163 13.002 50.1323 13.0432C50.1482 13.0844 50.1738 13.121 50.2068 13.15" fill="#CC0066"/>
<path d="M52.0581 11.3076C52.2869 11.2948 52.5133 11.3605 52.7009 11.4942C52.7841 11.567 52.8491 11.6587 52.8906 11.762C52.9321 11.8652 52.9489 11.977 52.9396 12.0882V13.172C52.9434 13.2308 52.9272 13.2891 52.8937 13.3372C52.858 13.38 52.8164 13.4174 52.7702 13.4482C52.6794 13.5 52.5825 13.5402 52.4819 13.5677C52.3463 13.6048 52.2063 13.6224 52.0659 13.6199C51.834 13.6336 51.6039 13.5713 51.4094 13.4422C51.3306 13.3819 51.2678 13.3028 51.2264 13.2119C51.1851 13.1209 51.1665 13.021 51.1725 12.921C51.1674 12.8343 51.1812 12.7475 51.213 12.6668C51.2447 12.5862 51.2936 12.5137 51.3561 12.4544C51.5079 12.3337 51.6926 12.2635 51.885 12.2533L52.4901 12.1861V12.0858C52.4951 12.0298 52.4864 11.9734 52.4648 11.9216C52.4433 11.8698 52.4096 11.8241 52.3667 11.7886C52.2655 11.7214 52.1458 11.6887 52.0251 11.6953C51.9121 11.6949 51.7998 11.7117 51.6918 11.7452C51.5924 11.7755 51.4959 11.8147 51.4034 11.8623C51.3744 11.835 51.3496 11.8036 51.3295 11.769C51.3073 11.7313 51.2959 11.688 51.2966 11.6441C51.2974 11.6001 51.3102 11.5573 51.3336 11.5203C51.3639 11.4809 51.4036 11.4499 51.4489 11.4303C51.537 11.3868 51.6304 11.3554 51.7266 11.337C51.8359 11.3155 51.9469 11.305 52.0581 11.3057M52.0664 13.2387C52.1567 13.2405 52.2469 13.2292 52.3341 13.2052C52.3901 13.1913 52.4432 13.1671 52.4906 13.1338V12.544L52.0214 12.5944C51.915 12.6016 51.8119 12.6346 51.7207 12.6905C51.6872 12.7161 51.6607 12.7498 51.6434 12.7885C51.6262 12.8272 51.6188 12.8698 51.622 12.9121C51.6201 12.9576 51.6289 13.0029 51.6475 13.0443C51.666 13.0857 51.694 13.1221 51.7289 13.1506C51.8286 13.2173 51.9474 13.2481 52.0664 13.2383" fill="#CC0066"/>
<path d="M53.7994 13.5795C53.7341 13.5841 53.6692 13.5656 53.6157 13.5272C53.5933 13.5048 53.5761 13.4776 53.5654 13.4476C53.5547 13.4176 53.5507 13.3855 53.5537 13.3537V10.5337L53.64 10.5108C53.6804 10.5005 53.722 10.4957 53.7636 10.4963C53.8285 10.4917 53.8932 10.5093 53.9472 10.5463C53.9697 10.5682 53.987 10.5951 53.9978 10.6248C54.0085 10.6546 54.0124 10.6864 54.0092 10.718V13.5422C53.9844 13.5506 53.9538 13.559 53.9174 13.5674C53.8782 13.5762 53.8381 13.5804 53.798 13.58" fill="#CC0066"/>
<path d="M56.0777 12.5792V13.5418C56.0466 13.5519 56.015 13.5603 55.9831 13.567C55.9425 13.5756 55.9011 13.5798 55.8596 13.5796C55.7914 13.5856 55.7233 13.5662 55.6681 13.525C55.6463 13.5009 55.6297 13.4724 55.6194 13.4414C55.6092 13.4104 55.6054 13.3775 55.6084 13.3449V10.9471C55.6057 10.9021 55.6206 10.8579 55.6498 10.8239C55.6809 10.7922 55.719 10.7685 55.7609 10.7549C55.8662 10.7188 55.9753 10.6956 56.086 10.6858C56.2084 10.6734 56.325 10.6672 56.4358 10.6672C56.7373 10.6421 57.037 10.7332 57.2755 10.9224C57.3672 11.0116 57.4389 11.1198 57.4858 11.2397C57.5327 11.3596 57.5537 11.4883 57.5473 11.6171C57.5531 11.7467 57.5318 11.8759 57.485 11.9966C57.4381 12.1172 57.3667 12.2264 57.2755 12.317C57.0477 12.5091 56.7553 12.6037 56.4601 12.5806L56.0777 12.5792ZM56.4358 12.1733C56.6028 12.1829 56.768 12.1335 56.9032 12.0333C56.9615 11.9822 57.0073 11.918 57.037 11.8457C57.0666 11.7735 57.0793 11.6952 57.074 11.6171C57.0805 11.5406 57.0691 11.4636 57.0409 11.3923C57.0126 11.3211 56.9683 11.2576 56.9114 11.207C56.7743 11.1119 56.6097 11.0663 56.4441 11.0773C56.381 11.0773 56.3164 11.0801 56.2503 11.0857C56.1908 11.0904 56.1316 11.0988 56.0731 11.1109V12.1738L56.4358 12.1733Z" fill="#CC0066"/>
<path d="M58.7886 11.3076C59.0174 11.2947 59.2438 11.3605 59.4313 11.4942C59.5145 11.567 59.5796 11.6587 59.6211 11.762C59.6626 11.8652 59.6794 11.977 59.6701 12.0882V13.172C59.6739 13.2308 59.6577 13.2891 59.6242 13.3372C59.5884 13.38 59.5468 13.4174 59.5007 13.4482C59.4098 13.5 59.3129 13.5401 59.2124 13.5677C59.0768 13.6048 58.9368 13.6224 58.7964 13.6199C58.5645 13.6336 58.3343 13.5713 58.1398 13.4422C58.0611 13.3819 57.9982 13.3028 57.9569 13.2119C57.9155 13.1209 57.897 13.021 57.9029 12.921C57.8978 12.8343 57.9117 12.7475 57.9434 12.6668C57.9752 12.5862 58.024 12.5137 58.0866 12.4544C58.2383 12.3337 58.423 12.2635 58.6155 12.2533L59.2206 12.1861V12.0858C59.2256 12.0298 59.2169 11.9734 59.1953 11.9216C59.1738 11.8697 59.1401 11.8241 59.0971 11.7886C58.9959 11.7213 58.8763 11.6887 58.7555 11.6953C58.6426 11.6949 58.5302 11.7117 58.4222 11.7452C58.3229 11.7755 58.2264 11.8147 58.1339 11.8623C58.1049 11.835 58.08 11.8036 58.0599 11.769C58.0377 11.7313 58.0264 11.688 58.0271 11.6441C58.0278 11.6001 58.0406 11.5573 58.0641 11.5203C58.0944 11.4809 58.1341 11.4499 58.1793 11.4303C58.2674 11.3868 58.3608 11.3554 58.4571 11.337C58.5663 11.3155 58.6773 11.305 58.7886 11.3057M58.7968 13.2387C58.8872 13.2405 58.9773 13.2292 59.0645 13.2052C59.1206 13.1913 59.1736 13.1671 59.2211 13.1338V12.544L58.7519 12.5944C58.6455 12.6016 58.5424 12.6346 58.4511 12.6905C58.4177 12.7161 58.3911 12.7498 58.3739 12.7885C58.3566 12.8272 58.3493 12.8698 58.3524 12.9121C58.3506 12.9576 58.3593 13.0029 58.3779 13.0443C58.3965 13.0857 58.4244 13.1221 58.4594 13.1506C58.5591 13.2172 58.6779 13.2481 58.7968 13.2383" fill="#CC0066"/>
<path d="M60.6463 13.0439C60.5722 12.8906 60.4824 12.6744 60.3768 12.3954C60.2712 12.1163 60.1703 11.8011 60.0742 11.4496C60.1036 11.4145 60.1393 11.3854 60.1794 11.3637C60.2215 11.3402 60.269 11.328 60.3171 11.3283C60.3729 11.3256 60.4281 11.342 60.4737 11.3749C60.5227 11.4199 60.5571 11.479 60.5724 11.5443C60.652 11.7953 60.7337 12.0429 60.8175 12.2871C60.9014 12.5313 60.994 12.7831 61.0953 13.0425H61.1118C61.1556 12.942 61.2002 12.8255 61.2455 12.693C61.2908 12.5605 61.3347 12.4196 61.3772 12.2703C61.4198 12.121 61.4603 11.9697 61.4989 11.8163C61.5375 11.663 61.5717 11.5166 61.6017 11.3773C61.6296 11.3632 61.6584 11.3514 61.688 11.3418C61.7228 11.3315 61.7588 11.3266 61.795 11.3274C61.8521 11.3251 61.9084 11.3415 61.9557 11.374C61.9783 11.3919 61.9961 11.4152 62.0075 11.4418C62.019 11.4685 62.0238 11.4976 62.0214 11.5266C62.0147 11.6511 61.9947 11.7746 61.9617 11.8947C61.9219 12.0593 61.8705 12.242 61.8074 12.4429C61.7444 12.6439 61.6723 12.8461 61.5912 13.0495C61.5101 13.2532 61.4283 13.4346 61.346 13.5935C61.2367 13.8142 61.1056 14.0231 60.9548 14.2169C60.9175 14.2746 60.8684 14.3235 60.8109 14.3603C60.7534 14.397 60.6888 14.4209 60.6215 14.4301C60.5862 14.4322 60.5509 14.427 60.5177 14.4148C60.4845 14.4026 60.454 14.3837 60.4282 14.3592C60.3801 14.3102 60.348 14.2473 60.3364 14.1791C60.3902 14.1299 60.4411 14.0776 60.4888 14.0223C60.5436 13.9601 60.5985 13.8932 60.6536 13.8217C60.7087 13.7502 60.7615 13.6769 60.812 13.6019C60.8599 13.5318 60.9018 13.4576 60.9374 13.3803C60.8837 13.3605 60.8352 13.3286 60.7955 13.287C60.7322 13.2138 60.6815 13.1304 60.6454 13.0402" fill="#CC0066"/>
<path d="M64.8789 11.7955C64.796 11.7291 64.6919 11.6959 64.5864 11.7022C64.5076 11.7018 64.4295 11.7177 64.3569 11.7488C64.2827 11.7808 64.2145 11.8253 64.1549 11.8804C64.1605 11.9066 64.1646 11.9331 64.1673 11.9597C64.17 11.9877 64.1714 12.0157 64.1714 12.0433V13.5415C64.1441 13.5524 64.1157 13.5608 64.0869 13.5667C64.0485 13.5752 64.0092 13.5794 63.9698 13.5793C63.9026 13.5846 63.8356 13.5661 63.7802 13.527C63.7579 13.5045 63.7408 13.4773 63.7302 13.4473C63.7195 13.4172 63.7156 13.3852 63.7187 13.3534V12.0937C63.7235 12.0389 63.7164 11.9837 63.698 11.932C63.6795 11.8804 63.65 11.8334 63.6118 11.7946C63.5288 11.7281 63.4247 11.6949 63.3193 11.7013C63.2409 11.7008 63.163 11.715 63.0897 11.7432C63.0262 11.7675 62.9656 11.7988 62.9088 11.8366V13.5438C62.8815 13.5547 62.8532 13.5631 62.8243 13.569C62.7843 13.5777 62.7435 13.5819 62.7027 13.5816C62.6373 13.5862 62.5725 13.5678 62.519 13.5293C62.4966 13.5069 62.4794 13.4797 62.4687 13.4497C62.4579 13.4196 62.454 13.3876 62.4571 13.3558V11.8244C62.454 11.764 62.4675 11.7039 62.4961 11.6509C62.5305 11.5988 62.5744 11.554 62.6255 11.5188C62.8381 11.3843 63.0831 11.312 63.3335 11.3098C63.4585 11.3076 63.5829 11.3281 63.7008 11.3704C63.8026 11.4074 63.8943 11.4683 63.9685 11.5482C64.0548 11.4773 64.1512 11.4202 64.2545 11.3788C64.3785 11.3305 64.5106 11.307 64.6434 11.3098C64.7522 11.3091 64.8605 11.3248 64.9648 11.3565C65.0582 11.384 65.1446 11.4318 65.2182 11.4964C65.2904 11.5624 65.3474 11.6438 65.3849 11.7349C65.4286 11.8444 65.4497 11.9619 65.4469 12.0801V13.5447C65.4167 13.5547 65.3861 13.5631 65.355 13.5699C65.3166 13.5785 65.2773 13.5827 65.238 13.5825C65.1727 13.5871 65.1078 13.5686 65.0543 13.5303C65.0319 13.5078 65.0147 13.4806 65.004 13.4506C64.9933 13.4206 64.9893 13.3885 64.9923 13.3567V12.0969C64.9973 12.0421 64.9903 11.9869 64.9718 11.9352C64.9533 11.8835 64.9238 11.8366 64.8853 11.7978" fill="#CC0066"/>
<path d="M66.3977 12.7088C66.4242 12.8647 66.5081 13.0045 66.6324 13.0998C66.7664 13.1894 66.9247 13.234 67.085 13.2271C67.1983 13.2285 67.3108 13.208 67.4165 13.1665C67.5027 13.1334 67.585 13.0905 67.6617 13.0386C67.6993 13.0585 67.7307 13.0886 67.7525 13.1255C67.7743 13.1623 67.7856 13.2046 67.7852 13.2477C67.7847 13.3021 67.7642 13.3543 67.7278 13.3942C67.6839 13.443 67.6306 13.4822 67.5713 13.5094C67.4979 13.5441 67.4209 13.5701 67.3417 13.5869C67.095 13.6377 66.8394 13.6216 66.6007 13.5402C66.4679 13.4929 66.3471 13.4164 66.2467 13.3163C66.1444 13.2123 66.066 13.0865 66.0171 12.9481C65.9611 12.7862 65.9339 12.6154 65.9368 12.4437C65.9337 12.2766 65.9595 12.1101 66.013 11.952C66.0583 11.8202 66.1306 11.6996 66.2251 11.5983C66.3152 11.5038 66.4239 11.4297 66.5442 11.3809C66.6679 11.3304 66.8002 11.3049 66.9335 11.3058C67.064 11.3039 67.1934 11.3289 67.3141 11.379C67.4248 11.4252 67.5252 11.4936 67.6091 11.5803C67.6929 11.667 67.7586 11.7701 67.8022 11.8834C67.8498 12.0059 67.8735 12.1366 67.872 12.2683C67.8747 12.2991 67.8713 12.3302 67.8621 12.3596C67.8529 12.3891 67.838 12.4164 67.8183 12.44C67.7761 12.4794 67.7227 12.5043 67.6658 12.5109L66.3977 12.7088ZM66.9331 11.6823C66.8585 11.6805 66.7844 11.6951 66.7159 11.7251C66.6474 11.755 66.586 11.7996 66.536 11.8559C66.4225 11.9932 66.3631 12.1684 66.3693 12.3476L67.4395 12.1843C67.432 12.0532 67.3821 11.9282 67.2976 11.8288C67.2513 11.7786 67.1947 11.7394 67.1317 11.7141C67.0688 11.6888 67.0007 11.6779 66.9331 11.6823Z" fill="#CC0066"/>
<path d="M69.5928 11.8082C69.5012 11.7329 69.3853 11.6948 69.2677 11.7013C69.1754 11.6999 69.0835 11.7141 68.9959 11.7433C68.9246 11.7679 68.8558 11.7992 68.7902 11.8366V13.5439C68.7628 13.5548 68.7346 13.5632 68.7057 13.5691C68.6657 13.5778 68.6249 13.582 68.584 13.5817C68.5187 13.5863 68.4539 13.5678 68.4004 13.5294C68.378 13.507 68.3608 13.4798 68.3501 13.4498C68.3393 13.4197 68.3353 13.3876 68.3384 13.3558V11.8245C68.3355 11.7641 68.349 11.7041 68.3775 11.6509C68.412 11.5989 68.4561 11.554 68.5074 11.5189C68.6086 11.461 68.7156 11.4141 68.8265 11.3789C68.9695 11.3324 69.119 11.3099 69.2691 11.3122C69.506 11.2985 69.74 11.3704 69.9298 11.5152C70.0132 11.5919 70.0784 11.6871 70.1201 11.7933C70.1619 11.8996 70.1793 12.0142 70.1708 12.1283V13.5467C70.1419 13.5571 70.1123 13.5655 70.0822 13.5719C70.0424 13.5806 70.0017 13.5848 69.961 13.5845C69.8957 13.5891 69.8308 13.5706 69.7773 13.5322C69.755 13.5098 69.7378 13.4825 69.7272 13.4525C69.7166 13.4225 69.7126 13.3904 69.7158 13.3586V12.1455C69.7209 12.0846 69.7129 12.0232 69.6923 11.9658C69.6717 11.9083 69.639 11.8561 69.5965 11.8128" fill="#CC0066"/>
<path d="M71.3198 13.1504C71.3961 13.2006 71.4861 13.2248 71.5769 13.2195C71.6299 13.2191 71.6825 13.2114 71.7334 13.1966C71.7834 13.1833 71.8317 13.1644 71.8776 13.1402C71.8976 13.1665 71.9156 13.1944 71.9313 13.2237C71.9583 13.2781 71.9637 13.3409 71.9467 13.3992C71.9296 13.4576 71.8913 13.5071 71.8395 13.5377C71.7334 13.5976 71.6126 13.6251 71.4915 13.617C71.3054 13.6266 71.1217 13.5713 70.9708 13.4603C70.9011 13.3961 70.8472 13.3163 70.8132 13.2272C70.7793 13.1381 70.7662 13.0421 70.7752 12.947V10.7755C70.8052 10.7649 70.8359 10.7565 70.8671 10.7503C70.9077 10.7418 70.9491 10.7375 70.9905 10.7377C71.0549 10.7324 71.1191 10.7502 71.1719 10.7881C71.1932 10.8108 71.2094 10.8379 71.2194 10.8675C71.2294 10.8972 71.2329 10.9287 71.2297 10.9598V11.4199H71.9051C71.9186 11.4452 71.9297 11.4717 71.9382 11.4992C71.9494 11.5343 71.955 11.571 71.9547 11.6079C71.9547 11.7392 71.9011 11.8047 71.794 11.8044H71.2297V12.9134C71.2251 12.9575 71.231 13.002 71.247 13.0432C71.263 13.0844 71.2886 13.121 71.3216 13.15" fill="#CC0066"/>
<path d="M73.9368 12.9519C73.9409 13.0448 73.9234 13.1372 73.8859 13.2219C73.8483 13.3066 73.7917 13.3812 73.7205 13.4395C73.5374 13.57 73.3156 13.6328 73.0924 13.6173C72.9862 13.6181 72.8801 13.6082 72.7757 13.5879C72.6916 13.5724 72.61 13.5457 72.5328 13.5086C72.4729 13.4798 72.4197 13.4384 72.3767 13.3873C72.3397 13.3444 72.3192 13.2894 72.3188 13.2324C72.3187 13.1878 72.3293 13.1439 72.3496 13.1045C72.3705 13.0636 72.4023 13.0294 72.4414 13.0061C72.5282 13.0658 72.6204 13.1169 72.7169 13.1586C72.8317 13.2067 72.955 13.2302 73.0792 13.2277C73.1841 13.2346 73.2886 13.21 73.3798 13.1568C73.4129 13.1346 73.4398 13.104 73.4579 13.0681C73.4759 13.0322 73.4844 12.9922 73.4827 12.9519C73.4845 12.9176 73.4792 12.8833 73.4672 12.8512C73.4551 12.819 73.4367 12.7898 73.4129 12.7653C73.3528 12.7122 73.2805 12.6755 73.2026 12.6585L72.906 12.5749C72.745 12.5378 72.5961 12.4592 72.4735 12.3468C72.4257 12.2936 72.3889 12.2313 72.3653 12.1634C72.3416 12.0955 72.3316 12.0235 72.3358 11.9516C72.3354 11.8642 72.3537 11.7777 72.3895 11.6982C72.4251 11.619 72.4779 11.549 72.5438 11.4934C72.6189 11.432 72.705 11.3859 72.7973 11.3576C72.9092 11.3226 73.0258 11.3056 73.1429 11.3072C73.2397 11.3062 73.3363 11.3153 73.4313 11.3343C73.5072 11.3495 73.5811 11.3734 73.6517 11.4057C73.7073 11.4302 73.7566 11.4674 73.7958 11.5144C73.8286 11.5535 73.8468 11.603 73.8473 11.6544C73.8482 11.6983 73.8376 11.7416 73.8165 11.7799C73.7974 11.8143 73.7715 11.8442 73.7403 11.8676C73.6651 11.8243 73.5866 11.7872 73.5057 11.7566C73.4007 11.7155 73.289 11.6949 73.1765 11.6959C73.0761 11.6901 72.9762 11.7132 72.8882 11.7626C72.8608 11.7801 72.8375 11.8034 72.82 11.831C72.8025 11.8586 72.7911 11.8897 72.7868 11.9223C72.7824 11.9548 72.7851 11.9879 72.7947 12.0192C72.8043 12.0506 72.8205 12.0794 72.8423 12.1037C72.8998 12.1541 72.9695 12.1881 73.0442 12.2021L73.2995 12.2693C73.479 12.3118 73.6452 12.3989 73.7834 12.5227C73.8364 12.5798 73.8773 12.6473 73.9039 12.721C73.9304 12.7947 73.9419 12.8731 73.9377 12.9515" fill="#CC0066"/>
<path d="M11.0928 6.37109V14.5396C11.0928 15.0743 10.9314 15.5961 10.6303 16.0347C10.3292 16.4732 9.90301 16.8073 9.40917 16.9919L2.07882 19.7317C1.96344 19.7749 1.8395 19.7892 1.71753 19.7732C1.59557 19.7573 1.4792 19.7117 1.37834 19.6402C1.27748 19.5687 1.19511 19.4735 1.13825 19.3627C1.08138 19.2519 1.05171 19.1288 1.05176 19.0038V12.0727C1.05199 11.6559 1.17782 11.2491 1.41233 10.9071C1.64683 10.5651 1.97876 10.3043 2.36347 10.1597L9.13875 7.61313C10.208 7.17315 10.6258 6.90393 11.0932 6.37343" fill="white"/>
<path d="M17.5375 8.43808C17.5299 8.7418 17.409 9.03122 17.1993 9.24778C16.9896 9.46433 16.7068 9.59186 16.4081 9.60453H14.8719C14.7833 9.60666 14.6975 9.57297 14.6334 9.51085C14.5692 9.44873 14.532 9.36327 14.5298 9.27326V5.87281C14.5291 5.8277 14.5374 5.78292 14.554 5.74111C14.5707 5.69931 14.5955 5.66133 14.6269 5.62943C14.6583 5.59753 14.6956 5.57237 14.7368 5.55542C14.7779 5.53848 14.822 5.53011 14.8664 5.5308H16.3489C16.5706 5.54272 16.7842 5.61975 16.9637 5.75256C17.1433 5.88536 17.281 6.06824 17.3603 6.27902C17.4397 6.4898 17.4571 6.71944 17.4106 6.94009C17.364 7.16075 17.2555 7.36294 17.0982 7.52218C17.2337 7.63214 17.3435 7.77137 17.4196 7.92978C17.4957 8.08819 17.5357 8.26182 17.5375 8.43808ZM15.1818 7.22496L16.2731 7.21377C16.4057 7.20934 16.5316 7.15384 16.6254 7.05854C16.7192 6.96323 16.7738 6.83524 16.7781 6.70053C16.7774 6.57095 16.7271 6.44675 16.6379 6.35413C16.5487 6.26151 16.4277 6.20771 16.3002 6.20408H15.1818V7.22496ZM16.8649 8.43808C16.8558 8.30077 16.7969 8.17178 16.6997 8.07603C16.6024 7.98029 16.4736 7.92459 16.3383 7.9197H15.2089V8.94012H16.3704C16.5002 8.93592 16.6234 8.88168 16.7152 8.78842C16.8069 8.69516 16.8603 8.56989 16.8645 8.43808" fill="white"/>
<path d="M20.2102 7.91967H19.7162V9.27276C19.7143 9.36182 19.6779 9.44652 19.6149 9.50845C19.5519 9.57039 19.4674 9.60457 19.3797 9.60356C19.2934 9.60332 19.2107 9.5684 19.1496 9.50643C19.0886 9.44446 19.0541 9.36046 19.0537 9.27276V5.86157C19.0565 5.77278 19.0931 5.68857 19.156 5.62681C19.2188 5.56505 19.3028 5.5306 19.3902 5.53076H20.5789C20.8846 5.53754 21.176 5.66323 21.3931 5.8819C21.6103 6.10057 21.7366 6.39557 21.746 6.70609C21.7403 6.95652 21.6599 7.19928 21.5155 7.40225C21.371 7.60522 21.1693 7.75881 20.937 7.84268L21.6918 9.09499C21.7358 9.17211 21.7486 9.26361 21.7273 9.35009C21.7061 9.43658 21.6525 9.51126 21.578 9.5583C21.5263 9.58714 21.4684 9.60238 21.4095 9.60263C21.3529 9.60258 21.2973 9.58785 21.2479 9.55984C21.1984 9.53184 21.1569 9.49148 21.1271 9.44259L20.2102 7.91967ZM21.0899 6.71122C21.0837 6.57285 21.0247 6.44239 20.9253 6.34759C20.8259 6.25279 20.6941 6.20112 20.5578 6.20357H19.7162V7.24639H20.5578C20.698 7.24652 20.8326 7.19035 20.9323 7.09012C21.0319 6.98989 21.0886 6.85371 21.0899 6.71122Z" fill="white"/>
<path d="M25.5568 9.60197C25.0274 9.59619 24.5217 9.37762 24.1504 8.99406C23.7791 8.6105 23.5723 8.09314 23.5752 7.55508C23.5821 7.15894 23.7039 6.77368 23.9255 6.44765C24.147 6.12162 24.4583 5.86933 24.8204 5.72244C25.1825 5.57556 25.5792 5.54061 25.9608 5.62199C26.3423 5.70337 26.6917 5.89746 26.9651 6.17989C27.2386 6.46232 27.4238 6.82053 27.4977 7.20956C27.5715 7.59859 27.5306 8.00112 27.3802 8.36664C27.2298 8.73216 26.9765 9.04439 26.6521 9.26417C26.3277 9.48394 25.9467 9.60145 25.5568 9.60197ZM24.2157 7.55508C24.2162 7.8252 24.2954 8.08913 24.4435 8.31347C24.5916 8.5378 24.8018 8.71249 25.0475 8.81541C25.2933 8.91834 25.5635 8.94488 25.8242 8.8917C26.0848 8.83851 26.324 8.70798 26.5116 8.51661C26.6992 8.32525 26.8267 8.08164 26.8781 7.8166C26.9294 7.55156 26.9023 7.277 26.8001 7.02764C26.6979 6.77828 26.5252 6.56532 26.3039 6.4157C26.0826 6.26607 25.8226 6.1865 25.5568 6.18706C25.2013 6.1906 24.8615 6.33603 24.6106 6.59197C24.3597 6.8479 24.2179 7.19382 24.2157 7.55508Z" fill="white"/>
<path d="M32.2237 9.57511C32.1817 9.59175 32.1368 9.59965 32.0917 9.59833C32.0466 9.59702 32.0022 9.58652 31.9612 9.56746C31.9202 9.5484 31.8834 9.52117 31.8529 9.48738C31.8224 9.45359 31.799 9.41393 31.7838 9.37075L30.8656 6.8512L29.9428 9.37075C29.9287 9.41405 29.906 9.45395 29.8762 9.48799C29.8463 9.52203 29.8099 9.54948 29.7692 9.56864C29.7285 9.58779 29.6843 9.59825 29.6395 9.59937C29.5946 9.60048 29.55 9.59223 29.5084 9.57511C29.4656 9.5602 29.4263 9.53659 29.3927 9.50571C29.3592 9.47484 29.3322 9.43735 29.3134 9.39553C29.2946 9.35371 29.2843 9.30843 29.2833 9.26246C29.2823 9.21649 29.2904 9.17078 29.3073 9.12813L30.5341 5.74587C30.5599 5.67829 30.6055 5.62037 30.6647 5.57991C30.7239 5.53945 30.7938 5.51839 30.8651 5.51958C30.9361 5.51992 31.0054 5.54159 31.0643 5.58186C31.1232 5.62212 31.1691 5.67918 31.1962 5.74587L32.4229 9.12813C32.4399 9.17075 32.4481 9.21643 32.447 9.26238C32.446 9.30833 32.4358 9.35359 32.4171 9.3954C32.3983 9.43722 32.3714 9.47472 32.3379 9.50561C32.3044 9.53651 32.2651 9.56015 32.2223 9.57511" fill="white"/>
<path d="M33.7925 9.27164V5.87772C33.7946 5.79065 33.8295 5.70775 33.8901 5.64616C33.9507 5.58458 34.0323 5.54904 34.118 5.54691H34.927C35.2183 5.54517 35.5068 5.60525 35.774 5.72328C36.0309 5.83778 36.2604 6.00709 36.4471 6.21972C36.6335 6.43472 36.7725 6.68766 36.8549 6.96163C36.9373 7.23561 36.9613 7.52431 36.9251 7.80844C36.8652 8.30182 36.6304 8.7561 36.2646 9.08617C35.8988 9.41624 35.4272 9.59946 34.938 9.60151H34.1184C34.0328 9.59938 33.9512 9.56385 33.8906 9.50227C33.83 9.44068 33.795 9.35777 33.7929 9.27071M36.2685 7.73098C36.2972 7.54043 36.2844 7.3458 36.2309 7.16085C36.1774 6.9759 36.0846 6.80514 35.9591 6.66064C35.8292 6.51393 35.67 6.39717 35.4921 6.31822C35.3141 6.23926 35.1216 6.19996 34.9274 6.20293H34.4444V8.93943H34.9384C35.2677 8.93959 35.5856 8.81645 35.8312 8.59353C36.0768 8.37061 36.233 8.06353 36.2699 7.73098" fill="white"/>
<path d="M40.1495 9.03468C39.987 9.28412 39.7367 9.46084 39.45 9.52852C39.1632 9.59621 38.8618 9.54972 38.6078 9.39862C38.5299 9.35061 38.4723 9.27489 38.4463 9.18616C38.4202 9.09744 38.4275 9.00204 38.4668 8.9185C38.5258 8.84927 38.6082 8.80517 38.6977 8.79496C38.7873 8.78476 38.8773 8.80921 38.9498 8.86345C39.0624 8.92553 39.1939 8.94186 39.3179 8.90912C39.4418 8.87637 39.5489 8.79701 39.6174 8.68708C39.6553 8.62987 39.6817 8.56563 39.6951 8.49805C39.7085 8.43047 39.7086 8.36086 39.6955 8.29321C39.6824 8.22556 39.6564 8.1612 39.6188 8.10381C39.5812 8.04642 39.5328 7.99712 39.4765 7.95874C39.2106 7.78751 39.201 7.78238 38.9443 7.61114C38.6902 7.44357 38.512 7.18029 38.4489 6.8792C38.3858 6.57812 38.4429 6.2639 38.6078 6.00563C38.772 5.75825 39.0222 5.58317 39.3082 5.51558C39.5942 5.44798 39.8948 5.49287 40.1495 5.64123C40.2249 5.68597 40.2804 5.75842 40.3047 5.84361C40.329 5.9288 40.3201 6.02022 40.2799 6.09894C40.2261 6.17109 40.1469 6.21939 40.059 6.23381C39.971 6.24824 39.8809 6.22767 39.8075 6.1764C39.69 6.11562 39.5541 6.10292 39.4277 6.14089C39.3013 6.17887 39.194 6.26464 39.128 6.38055C39.0619 6.49646 39.0421 6.6337 39.0726 6.76401C39.1031 6.89433 39.1816 7.00781 39.2919 7.0811C39.4296 7.16929 39.4296 7.16928 39.8185 7.4287C39.9441 7.51195 40.0522 7.61954 40.1368 7.74532C40.2214 7.87109 40.2808 8.01259 40.3116 8.16171C40.3423 8.31083 40.3438 8.46464 40.316 8.61436C40.2882 8.76407 40.2317 8.90721 40.1495 9.03468Z" fill="white"/>
<path d="M43.8155 7.91039C43.5119 7.9323 43.2073 7.93604 42.9033 7.92159V9.27468C42.9013 9.36374 42.8649 9.44844 42.8019 9.51038C42.7389 9.57231 42.6544 9.60649 42.5667 9.60549C42.4805 9.60512 42.3979 9.57015 42.337 9.50819C42.276 9.44623 42.2416 9.3623 42.2412 9.27468V5.87283C42.2407 5.82923 42.2487 5.78596 42.2649 5.74557C42.281 5.70518 42.305 5.66848 42.3353 5.63765C42.3657 5.60682 42.4018 5.58248 42.4415 5.56605C42.4813 5.54963 42.5238 5.54146 42.5667 5.54202H43.783C44.086 5.55161 44.3738 5.67973 44.5862 5.89966C44.7986 6.11959 44.9192 6.41435 44.923 6.72247C44.9181 7.02518 44.8015 7.31498 44.5965 7.5346C44.3914 7.75421 44.1127 7.88765 43.8155 7.90852M43.7398 6.2041H42.9037V7.24691H43.7398C43.8797 7.24608 44.0138 7.1896 44.1132 7.08957C44.2127 6.98954 44.2696 6.85392 44.2719 6.71174C44.2648 6.5737 44.2055 6.44379 44.1063 6.34918C44.0071 6.25457 43.8758 6.20259 43.7398 6.2041Z" fill="white"/>
<path d="M46.6597 9.27187V5.86208C46.66 5.77446 46.6945 5.69053 46.7554 5.62858C46.8164 5.56662 46.899 5.53165 46.9852 5.53128H48.941C49.0287 5.53015 49.1133 5.56429 49.1764 5.62625C49.2394 5.68821 49.2758 5.77298 49.2776 5.86208C49.2771 5.95264 49.2415 6.03934 49.1785 6.10338C49.1155 6.16741 49.0302 6.2036 48.941 6.20409H47.3231V7.2469H48.5448C48.5877 7.24634 48.6303 7.25451 48.67 7.27093C48.7098 7.28736 48.7459 7.3117 48.7762 7.34253C48.8066 7.37337 48.8305 7.41006 48.8467 7.45045C48.8629 7.49084 48.8709 7.53411 48.8703 7.57771C48.871 7.62135 48.863 7.66467 48.8468 7.70511C48.8307 7.74556 48.8068 7.7823 48.7764 7.81319C48.7461 7.84407 48.7099 7.86845 48.6702 7.88491C48.6304 7.90136 48.5878 7.90955 48.5448 7.90898H47.3231V8.9294H48.941C49.0302 8.92989 49.1155 8.96608 49.1785 9.03011C49.2415 9.09414 49.2771 9.18085 49.2776 9.2714C49.2757 9.36047 49.2392 9.44517 49.1762 9.5071C49.1132 9.56904 49.0287 9.60322 48.941 9.60221H46.9866C46.9004 9.60184 46.8178 9.56687 46.7568 9.50491C46.6958 9.44296 46.6614 9.35902 46.661 9.2714" fill="white"/>
<path d="M54.3861 9.16121C54.0404 9.44064 53.6116 9.59233 53.1699 9.59139C52.6386 9.59139 52.129 9.3769 51.7533 8.99508C51.3776 8.61327 51.1665 8.09543 51.1665 7.55546C51.1665 7.0155 51.3776 6.49765 51.7533 6.11584C52.129 5.73403 52.6386 5.51953 53.1699 5.51953C53.5308 5.52003 53.8844 5.62331 54.1905 5.81768C54.229 5.838 54.263 5.86602 54.2906 5.90005C54.3181 5.93408 54.3386 5.97342 54.3507 6.0157C54.3629 6.05798 54.3665 6.10233 54.3614 6.14608C54.3563 6.18983 54.3425 6.23207 54.3209 6.27026C54.2989 6.30809 54.2694 6.34088 54.2343 6.3666C54.1992 6.39232 54.1593 6.41041 54.117 6.41974C54.0748 6.42907 54.0311 6.42943 53.9886 6.42082C53.9462 6.4122 53.906 6.39477 53.8705 6.36964C53.6587 6.24179 53.4167 6.17501 53.1703 6.17648C52.9943 6.17648 52.8199 6.21174 52.6573 6.28024C52.4946 6.34874 52.3468 6.44915 52.2224 6.57572C52.0979 6.70229 51.9992 6.85254 51.9319 7.01788C51.8646 7.18323 51.83 7.36043 51.8302 7.53937C51.8241 7.79564 51.8893 8.04845 52.0183 8.26877C52.1472 8.4891 52.3346 8.668 52.5591 8.78493C52.7836 8.90187 53.036 8.9521 53.2873 8.92985C53.5386 8.9076 53.7786 8.81378 53.9798 8.65916C54.0113 8.63168 54.048 8.61087 54.0876 8.59792C54.1271 8.58498 54.1688 8.58017 54.2102 8.58378C54.2516 8.58738 54.2919 8.59933 54.3287 8.61892C54.3656 8.63851 54.3982 8.66536 54.4247 8.69789C54.4799 8.76453 54.5069 8.85071 54.4998 8.93755C54.4927 9.02438 54.4519 9.10481 54.3866 9.16121" fill="white"/>
<path d="M58.9065 5.85622C58.9066 5.89947 58.8981 5.94229 58.8817 5.98219C58.8653 6.02209 58.8412 6.05828 58.811 6.08867C58.7807 6.11905 58.7448 6.14302 58.7053 6.15919C58.6658 6.17535 58.6236 6.18339 58.581 6.18283H57.7835V9.27254C57.7835 9.3596 57.7495 9.44309 57.6889 9.50464C57.6284 9.5662 57.5462 9.60078 57.4606 9.60078C57.3749 9.60078 57.2927 9.5662 57.2321 9.50464C57.1716 9.44309 57.1376 9.3596 57.1376 9.27254V6.1819H56.3396C56.2539 6.1819 56.1718 6.14732 56.1112 6.08576C56.0506 6.0242 56.0166 5.94071 56.0166 5.85366C56.0166 5.7666 56.0506 5.68311 56.1112 5.62156C56.1718 5.56 56.2539 5.52542 56.3396 5.52542H58.5815C58.6244 5.52485 58.667 5.53302 58.7067 5.54945C58.7465 5.56587 58.7826 5.59022 58.8129 5.62105C58.8432 5.65188 58.8672 5.68857 58.8834 5.72896C58.8995 5.76935 58.9071 5.81263 58.9065 5.85622Z" fill="white"/>
<path d="M61.6931 7.91967H61.1991V9.27276C61.1972 9.36182 61.1608 9.44652 61.0978 9.50845C61.0348 9.57039 60.9502 9.60457 60.8626 9.60356C60.7763 9.60332 60.6936 9.5684 60.6325 9.50643C60.5714 9.44446 60.537 9.36046 60.5366 9.27276V5.86157C60.5394 5.77278 60.576 5.68857 60.6389 5.62681C60.7017 5.56505 60.7857 5.5306 60.8731 5.53076H62.0623C62.3679 5.53754 62.6593 5.66323 62.8765 5.8819C63.0936 6.10057 63.2199 6.39557 63.2294 6.70609C63.2237 6.95652 63.1433 7.19928 62.9989 7.40225C62.8544 7.60522 62.6527 7.75881 62.4204 7.84268L63.1752 9.09499C63.2191 9.17216 63.2318 9.2637 63.2104 9.3502C63.1891 9.43669 63.1354 9.51134 63.0608 9.5583C63.0092 9.58715 62.9513 9.6024 62.8924 9.60263C62.8358 9.60258 62.7801 9.58785 62.7307 9.55984C62.6813 9.53184 62.6398 9.49148 62.61 9.44259L61.6931 7.91967ZM62.5728 6.71122C62.5666 6.57285 62.5076 6.44239 62.4082 6.34759C62.3088 6.25279 62.177 6.20112 62.0407 6.20357H61.1991V7.24639H62.0407C62.1809 7.24652 62.3155 7.19035 62.4151 7.09012C62.5148 6.98989 62.5715 6.85371 62.5728 6.71122Z" fill="white"/>
<path d="M67.9903 5.85617V8.11256C67.9938 8.31039 67.9584 8.50694 67.8863 8.69073C67.8142 8.87452 67.7068 9.04187 67.5703 9.18301C67.4339 9.32415 67.2711 9.43626 67.0916 9.51278C66.912 9.58931 66.7193 9.62873 66.5246 9.62873C66.3299 9.62873 66.1371 9.58931 65.9576 9.51278C65.778 9.43626 65.6153 9.32415 65.4788 9.18301C65.3424 9.04187 65.235 8.87452 65.1628 8.69073C65.0907 8.50694 65.0554 8.31039 65.0588 8.11256V5.85617C65.0588 5.76689 65.0937 5.68126 65.1558 5.61813C65.218 5.555 65.3022 5.51953 65.3901 5.51953C65.4779 5.51953 65.5622 5.555 65.6243 5.61813C65.6864 5.68126 65.7213 5.76689 65.7213 5.85617V8.11256C65.7213 8.3306 65.8066 8.53971 65.9583 8.69389C66.11 8.84806 66.3157 8.93468 66.5303 8.93468C66.7448 8.93468 66.9506 8.84806 67.1023 8.69389C67.2541 8.53971 67.3393 8.3306 67.3393 8.11256V5.85617C67.3387 5.81257 67.3468 5.7693 67.363 5.72891C67.3791 5.68852 67.4031 5.65183 67.4334 5.621C67.4637 5.59017 67.4998 5.56582 67.5396 5.5494C67.5793 5.53297 67.6219 5.5248 67.6648 5.52537C67.7077 5.5248 67.7503 5.53297 67.79 5.5494C67.8298 5.56582 67.8659 5.59017 67.8962 5.621C67.9266 5.65183 67.9505 5.68852 67.9667 5.72891C67.9828 5.7693 67.9909 5.81257 67.9903 5.85617Z" fill="white"/>
<path d="M73.8373 9.20047C73.849 9.24106 73.8525 9.28366 73.8475 9.32568C73.8426 9.36769 73.8293 9.40825 73.8085 9.44489C73.7877 9.48154 73.7597 9.5135 73.7264 9.53886C73.6931 9.56421 73.6551 9.58243 73.6146 9.59239H73.5981C73.5926 9.59239 73.5925 9.59239 73.5875 9.60359H73.5494C73.4734 9.60294 73.4 9.57573 73.3415 9.52653C73.283 9.47733 73.2429 9.40914 73.228 9.33344L72.7827 7.12651L71.9631 9.36097C71.9413 9.4284 71.8992 9.48712 71.8426 9.52875C71.7861 9.57038 71.718 9.5928 71.6481 9.5928C71.5783 9.5928 71.5103 9.57038 71.4537 9.52875C71.3972 9.48712 71.355 9.4284 71.3332 9.36097L70.611 7.23149L70.2309 9.33344C70.2188 9.41098 70.1797 9.48153 70.1207 9.53217C70.0617 9.5828 69.9867 9.61015 69.9094 9.60919C69.8929 9.60919 69.8713 9.60359 69.8552 9.60359C69.8117 9.59717 69.7701 9.58093 69.7335 9.55607C69.6968 9.53121 69.6661 9.49835 69.6436 9.45989C69.6174 9.42607 69.599 9.38675 69.5896 9.34478C69.5802 9.30282 69.5802 9.25925 69.5894 9.21726L70.1486 5.79675C70.1626 5.72229 70.2006 5.6547 70.2566 5.60473C70.3127 5.55476 70.3837 5.52529 70.4581 5.521H70.4852C70.5552 5.52095 70.6235 5.54353 70.6801 5.58546C70.7367 5.62739 70.7788 5.68651 70.8002 5.75429L71.6578 8.20944L72.5535 5.74309C72.5745 5.6771 72.616 5.61985 72.6719 5.58002C72.7277 5.5402 72.7948 5.51996 72.863 5.5224H72.8795C72.9536 5.52289 73.0251 5.55044 73.0809 5.60004C73.1367 5.64963 73.1731 5.71796 73.1834 5.79255L73.8373 9.20047Z" fill="white"/>
</g>
</svg>
