<svg width="75" height="21" viewBox="0 0 75 21" fill="none" xmlns="http://www.w3.org/2000/svg">
<mask id="mask0_2057_99782" style="mask-type:luminance" maskUnits="userSpaceOnUse" x="0" y="0" width="75" height="21">
<path d="M74.3677 0.683594H0.367065V20.4596H74.3677V0.683594Z" fill="white"/>
</mask>
<g mask="url(#mask0_2057_99782)">
<path d="M8.4059 3.67681L1.65084 0.759455C1.51054 0.698768 1.35762 0.674371 1.20577 0.688446C1.05392 0.702521 0.90787 0.754629 0.780686 0.840109C0.653503 0.925589 0.549153 1.04178 0.476971 1.17827C0.40479 1.31477 0.367029 1.46732 0.367065 1.62228V9.13067C0.367061 9.29031 0.405121 9.44758 0.477989 9.58901C0.550857 9.73044 0.656362 9.85182 0.785474 9.94276C0.914585 10.0337 1.06346 10.0915 1.21935 10.1112C1.37524 10.1309 1.53351 10.1119 1.6806 10.0559L6.16243 8.34817L1.30677 6.29222C1.23724 6.25955 1.18287 6.20077 1.15508 6.12823C1.12729 6.05569 1.12824 5.97502 1.15772 5.90317C1.1872 5.83133 1.24293 5.77388 1.3132 5.7429C1.38348 5.71191 1.46283 5.7098 1.5346 5.73701L6.97473 8.03914L8.50401 7.45605C11.1208 6.53368 11.2571 4.69084 8.40636 3.67587M9.04616 6.06494C9.01594 6.13839 8.95832 6.19669 8.8859 6.22707C8.81348 6.25744 8.73217 6.25742 8.65977 6.22702L1.1961 3.0682C1.16023 3.05303 1.12765 3.03083 1.10022 3.00286C1.07279 2.97489 1.05105 2.94171 1.03624 2.9052C1.00633 2.83147 1.00647 2.74869 1.03662 2.67506C1.06677 2.60144 1.12447 2.543 1.19702 2.5126C1.26957 2.48221 1.35102 2.48235 1.42347 2.51299L8.88668 5.67275C8.92262 5.6879 8.95527 5.71011 8.98275 5.73811C9.01023 5.76611 9.032 5.79934 9.04681 5.83591C9.06163 5.87248 9.0692 5.91166 9.06909 5.9512C9.06897 5.99075 9.06118 6.02988 9.04616 6.06636" fill="#CC0066"/>
<path d="M44.6297 12.6959C44.6341 12.922 44.5995 13.1472 44.5274 13.3612C44.4666 13.5386 44.3677 13.7 44.2378 13.8337C44.1108 13.9607 43.9568 14.0564 43.7877 14.1134C43.5993 14.1763 43.402 14.2071 43.2037 14.2046C43.1107 14.2046 43.0008 14.2004 42.874 14.1919C42.7545 14.1852 42.6366 14.161 42.5239 14.12C42.4661 14.1085 42.414 14.0767 42.3767 14.0303C42.3395 13.9839 42.3193 13.9257 42.3198 13.8658V11.5093C42.317 11.4638 42.3321 11.419 42.3616 11.3846C42.3931 11.3525 42.4317 11.3285 42.4742 11.3147C42.5847 11.2797 42.6987 11.2569 42.814 11.2466C42.9349 11.2353 43.0524 11.2296 43.1665 11.2296C43.3686 11.2274 43.5697 11.2573 43.7626 11.3184C43.9359 11.3726 44.0949 11.466 44.2276 11.5916C44.3593 11.7204 44.4611 11.8775 44.5256 12.0513C44.6004 12.2574 44.6365 12.4758 44.6321 12.6954M44.1443 12.6996C44.148 12.5369 44.1233 12.3749 44.0713 12.221C44.0285 12.0978 43.9585 11.9863 43.8667 11.8949C43.7787 11.8097 43.6733 11.7452 43.558 11.7059C43.435 11.6642 43.306 11.6434 43.1763 11.6445C43.0476 11.6423 42.919 11.6537 42.7927 11.6785V13.7548C42.8564 13.7698 42.9213 13.7798 42.9866 13.7845C43.0575 13.7902 43.1305 13.793 43.2056 13.793C43.3346 13.8018 43.4639 13.7817 43.5844 13.7341C43.7049 13.6865 43.8137 13.6126 43.903 13.5176C44.0788 13.2839 44.1641 12.9929 44.1429 12.6996" fill="#CC0066"/>
<path d="M45.1221 11.2675C45.1211 11.2297 45.1274 11.1921 45.1406 11.1569C45.1538 11.1216 45.1738 11.0893 45.1993 11.0619C45.2254 11.0344 45.2569 11.0128 45.2917 10.9985C45.3266 10.9843 45.364 10.9777 45.4016 10.9792C45.4385 10.978 45.4752 10.9847 45.5093 10.999C45.5435 11.0132 45.5743 11.0347 45.5997 11.0619C45.6494 11.1185 45.6768 11.1916 45.6768 11.2675C45.6768 11.3433 45.6494 11.4165 45.5997 11.473C45.5743 11.5002 45.5435 11.5217 45.5093 11.5359C45.4752 11.5502 45.4385 11.5569 45.4016 11.5557C45.364 11.5572 45.3266 11.5506 45.2917 11.5364C45.2569 11.5221 45.2254 11.5005 45.1993 11.473C45.1738 11.4456 45.1538 11.4133 45.1406 11.378C45.1273 11.3428 45.121 11.3052 45.1221 11.2675ZM45.6308 14.1404C45.6031 14.1514 45.5745 14.1599 45.5453 14.1659C45.5049 14.1747 45.4637 14.179 45.4225 14.1787C45.3551 14.1843 45.2879 14.1656 45.2328 14.1257C45.2108 14.1027 45.194 14.075 45.1835 14.0446C45.1731 14.0143 45.1693 13.982 45.1724 13.95V11.9564L45.2598 11.9332C45.3007 11.9229 45.3427 11.9179 45.3848 11.9186C45.4511 11.9132 45.517 11.9319 45.5708 11.9715C45.5924 11.9957 45.6088 12.0242 45.6188 12.0552C45.6288 12.0863 45.6322 12.1191 45.629 12.1515L45.6308 14.1404Z" fill="#CC0066"/>
<path d="M47.6133 13.9416C47.5498 13.9825 47.4812 14.0143 47.4092 14.0361C47.3157 14.0634 47.2187 14.0763 47.1214 14.0744C46.9961 14.0752 46.8716 14.0551 46.7527 14.0149C46.638 13.9757 46.5334 13.9111 46.4463 13.8259C46.3525 13.7321 46.2812 13.6176 46.238 13.4913C46.1837 13.3268 46.1584 13.1539 46.1631 12.9805C46.16 12.8183 46.1854 12.6569 46.238 12.5037C46.2832 12.3744 46.3566 12.2571 46.4528 12.1607C46.5469 12.0682 46.659 11.9967 46.782 11.9509C46.919 11.9011 47.0638 11.8768 47.2093 11.8791C47.3435 11.8779 47.4772 11.8978 47.6054 11.9381C47.7116 11.9707 47.8128 12.0184 47.9058 12.0799C47.9504 12.111 47.9886 12.1507 48.0183 12.1966C48.0475 12.2457 48.0621 12.3023 48.0601 12.3596V14.2105C48.0638 14.35 48.0383 14.4886 47.9853 14.6173C47.9389 14.7256 47.8665 14.8203 47.7747 14.8928C47.679 14.9659 47.5697 15.0185 47.4534 15.0473C47.323 15.0801 47.1891 15.096 47.0549 15.0946C46.9255 15.0967 46.7964 15.0808 46.6713 15.0473C46.5874 15.0255 46.5062 14.9937 46.4295 14.9528C46.3699 14.9158 46.3261 14.8574 46.3068 14.7891C46.2875 14.7209 46.2942 14.6478 46.3254 14.5842C46.3448 14.5476 46.3735 14.5169 46.4086 14.4954C46.4905 14.5542 46.5804 14.6005 46.6755 14.6329C46.7905 14.6745 46.9119 14.6953 47.034 14.6943C47.1857 14.7037 47.3362 14.6611 47.4613 14.5734C47.5148 14.5254 47.5565 14.4653 47.5829 14.3979C47.6093 14.3305 47.6197 14.2577 47.6133 14.1854V13.9416ZM47.1837 13.6874C47.2702 13.6898 47.3562 13.6737 47.4362 13.6401C47.4988 13.6128 47.556 13.5741 47.6049 13.5258V12.3865C47.5549 12.3543 47.501 12.3288 47.4445 12.3105C47.3711 12.2866 47.2943 12.2751 47.2172 12.2764C47.1373 12.2732 47.0576 12.287 46.9833 12.3169C46.909 12.3469 46.8417 12.3923 46.7857 12.4503C46.6654 12.5969 46.6063 12.7855 46.6211 12.9758C46.6185 13.0877 46.6333 13.1993 46.6648 13.3065C46.689 13.3879 46.7303 13.463 46.7857 13.5267C46.8344 13.5813 46.8951 13.6234 46.9628 13.6496C47.0336 13.6758 47.1084 13.6883 47.1837 13.6874Z" fill="#CC0066"/>
<path d="M48.6326 11.2675C48.6316 11.2297 48.6378 11.1921 48.6511 11.1569C48.6643 11.1216 48.6843 11.0893 48.7098 11.0619C48.7359 11.0344 48.7674 11.0128 48.8022 10.9985C48.8371 10.9843 48.8745 10.9777 48.9121 10.9792C48.949 10.978 48.9857 10.9847 49.0198 10.999C49.054 11.0132 49.0848 11.0347 49.1101 11.0619C49.1598 11.1185 49.1873 11.1916 49.1873 11.2675C49.1873 11.3433 49.1598 11.4165 49.1101 11.473C49.0848 11.5002 49.054 11.5217 49.0198 11.536C48.9857 11.5502 48.949 11.5569 48.9121 11.5557C48.8745 11.5572 48.8371 11.5506 48.8022 11.5364C48.7674 11.5221 48.7359 11.5005 48.7098 11.473C48.6843 11.4456 48.6643 11.4133 48.651 11.378C48.6378 11.3428 48.6315 11.3052 48.6326 11.2675ZM49.1413 14.1404C49.1136 14.1514 49.0849 14.1599 49.0557 14.1659C49.0152 14.1747 48.9739 14.179 48.9325 14.1787C48.8651 14.1843 48.7979 14.1656 48.7428 14.1257C48.7208 14.1027 48.7039 14.075 48.6935 14.0446C48.6831 14.0143 48.6793 13.982 48.6824 13.95V11.9564L48.7698 11.9332C48.8107 11.9229 48.8527 11.9179 48.8949 11.9186C48.9611 11.9132 49.027 11.9319 49.0809 11.9715C49.1024 11.9957 49.1188 12.0242 49.1288 12.0552C49.1388 12.0863 49.1423 12.1191 49.139 12.1515L49.1413 14.1404Z" fill="#CC0066"/>
<path d="M50.3343 13.7446C50.4116 13.7955 50.5028 13.82 50.5947 13.8146C50.6483 13.8141 50.7017 13.8063 50.7532 13.7914C50.8039 13.778 50.8528 13.7588 50.8993 13.7343C50.9196 13.7609 50.9378 13.7892 50.9537 13.8188C50.9808 13.8739 50.9863 13.9375 50.9691 13.9965C50.9518 14.0556 50.913 14.1058 50.8607 14.1368C50.7532 14.1975 50.6308 14.2254 50.5082 14.2172C50.3198 14.2269 50.1337 14.1709 49.9809 14.0584C49.9104 13.9934 49.8558 13.9126 49.8214 13.8223C49.787 13.7321 49.7738 13.635 49.7829 13.5386V11.3395C49.8132 11.3288 49.8443 11.3202 49.8759 11.314C49.917 11.3053 49.9589 11.301 50.0009 11.3012C50.0661 11.2958 50.1312 11.3139 50.1846 11.3523C50.2061 11.3752 50.2224 11.4027 50.2325 11.4327C50.2425 11.4627 50.246 11.4946 50.2427 11.5262V11.9921H50.9267C50.9402 12.0177 50.9515 12.0446 50.9602 12.0724C50.9715 12.1079 50.9771 12.1451 50.9769 12.1825C50.9769 12.3154 50.9226 12.3817 50.8141 12.3814H50.2427V13.5046C50.238 13.5492 50.244 13.5943 50.2602 13.636C50.2764 13.6778 50.3023 13.7149 50.3357 13.7442" fill="#CC0066"/>
<path d="M52.2105 11.8784C52.4422 11.8654 52.6715 11.932 52.8615 12.0674C52.9457 12.1411 53.0115 12.234 53.0536 12.3386C53.0956 12.4432 53.1126 12.5564 53.1033 12.6689V13.7666C53.1071 13.8261 53.0907 13.8852 53.0568 13.9339C53.0206 13.9772 52.9784 14.0151 52.9317 14.0463C52.8397 14.0988 52.7416 14.1394 52.6397 14.1673C52.5024 14.2049 52.3606 14.2227 52.2184 14.2202C51.9835 14.2341 51.7505 14.171 51.5535 14.0402C51.4737 13.9792 51.4101 13.8991 51.3682 13.8069C51.3264 13.7148 51.3076 13.6136 51.3136 13.5124C51.3084 13.4246 51.3225 13.3367 51.3546 13.255C51.3868 13.1733 51.4363 13.0998 51.4996 13.0399C51.6533 12.9176 51.8403 12.8465 52.0352 12.8362L52.6481 12.7682V12.6666C52.653 12.6098 52.6442 12.5527 52.6224 12.5002C52.6006 12.4477 52.5665 12.4015 52.523 12.3656C52.4205 12.2975 52.2993 12.2644 52.177 12.2711C52.0627 12.2706 51.9489 12.2877 51.8395 12.3216C51.7389 12.3523 51.6412 12.392 51.5475 12.4402C51.5181 12.4126 51.4929 12.3807 51.4726 12.3457C51.4501 12.3075 51.4386 12.2637 51.4393 12.2192C51.4401 12.1747 51.4531 12.1313 51.4768 12.0939C51.5075 12.0539 51.5476 12.0226 51.5935 12.0027C51.6827 11.9586 51.7773 11.9268 51.8748 11.9082C51.9854 11.8864 52.0979 11.8758 52.2105 11.8765M52.2189 13.8342C52.3104 13.836 52.4017 13.8245 52.49 13.8001C52.5468 13.7862 52.6005 13.7616 52.6485 13.7278V13.1306L52.1733 13.1816C52.0656 13.1889 51.9612 13.2223 51.8688 13.2789C51.8349 13.3048 51.808 13.339 51.7905 13.3782C51.7731 13.4174 51.7656 13.4605 51.7688 13.5034C51.767 13.5495 51.7758 13.5953 51.7946 13.6373C51.8134 13.6792 51.8417 13.7161 51.8772 13.7449C51.9781 13.8124 52.0984 13.8437 52.2189 13.8337" fill="#CC0066"/>
<path d="M53.9742 14.1788C53.9081 14.1835 53.8424 14.1648 53.7882 14.1259C53.7655 14.1032 53.7481 14.0757 53.7372 14.0452C53.7264 14.0148 53.7223 13.9823 53.7254 13.9501V11.0942L53.8128 11.071C53.8537 11.0606 53.8958 11.0557 53.9379 11.0564C54.0038 11.0517 54.0692 11.0695 54.1239 11.107C54.1467 11.1292 54.1642 11.1564 54.1751 11.1865C54.186 11.2167 54.1899 11.2489 54.1867 11.2808V14.141C54.1616 14.1495 54.1306 14.158 54.0937 14.1665C54.054 14.1755 54.0135 14.1797 53.9728 14.1793" fill="#CC0066"/>
<path d="M56.2812 13.1661V14.1409C56.2498 14.1512 56.2178 14.1597 56.1854 14.1664C56.1443 14.1752 56.1024 14.1795 56.0604 14.1792C55.9913 14.1853 55.9224 14.1656 55.8665 14.1239C55.8444 14.0995 55.8276 14.0707 55.8172 14.0393C55.8067 14.0078 55.8029 13.9745 55.806 13.9415V11.5132C55.8033 11.4677 55.8183 11.4228 55.8479 11.3885C55.8794 11.3564 55.9179 11.3324 55.9604 11.3185C56.067 11.282 56.1775 11.2586 56.2896 11.2486C56.4136 11.236 56.5317 11.2297 56.6439 11.2297C56.9493 11.2043 57.2528 11.2966 57.4943 11.4882C57.5872 11.5785 57.6598 11.6881 57.7073 11.8095C57.7548 11.9309 57.776 12.0613 57.7696 12.1918C57.7754 12.3229 57.7539 12.4539 57.7064 12.576C57.659 12.6982 57.5867 12.8088 57.4943 12.9006C57.2636 13.0951 56.9675 13.1909 56.6685 13.1675L56.2812 13.1661ZM56.6439 12.755C56.8131 12.7648 56.9803 12.7147 57.1172 12.6133C57.1763 12.5615 57.2227 12.4965 57.2528 12.4233C57.2828 12.3501 57.2956 12.2709 57.2902 12.1918C57.2968 12.1143 57.2853 12.0363 57.2567 11.9641C57.2281 11.892 57.1832 11.8277 57.1256 11.7764C56.9867 11.6801 56.8201 11.6339 56.6523 11.6451C56.5884 11.6451 56.523 11.6479 56.4561 11.6536C56.3958 11.6584 56.3359 11.6669 56.2766 11.6791V12.7555L56.6439 12.755Z" fill="#CC0066"/>
<path d="M59.0269 11.8784C59.2586 11.8654 59.4879 11.932 59.6779 12.0674C59.7621 12.1411 59.828 12.234 59.87 12.3386C59.912 12.4432 59.9291 12.5564 59.9197 12.6689V13.7666C59.9235 13.8261 59.9071 13.8852 59.8732 13.9339C59.8369 13.9772 59.7948 14.0151 59.7481 14.0463C59.656 14.0987 59.558 14.1394 59.4561 14.1673C59.3188 14.2049 59.177 14.2227 59.0348 14.2202C58.7999 14.2341 58.5669 14.171 58.3699 14.0402C58.2902 13.9792 58.2265 13.8991 58.1846 13.807C58.1427 13.7148 58.124 13.6136 58.13 13.5124C58.1248 13.4246 58.1388 13.3367 58.171 13.255C58.2031 13.1733 58.2526 13.0998 58.316 13.0399C58.4697 12.9176 58.6567 12.8465 58.8516 12.8362L59.4645 12.7682V12.6666C59.4695 12.6098 59.4607 12.5527 59.4389 12.5002C59.4171 12.4477 59.3829 12.4015 59.3394 12.3656C59.2369 12.2974 59.1157 12.2643 58.9934 12.2711C58.8791 12.2706 58.7653 12.2877 58.6559 12.3216C58.5553 12.3523 58.4576 12.392 58.3639 12.4402C58.3346 12.4126 58.3093 12.3807 58.289 12.3457C58.2665 12.3075 58.255 12.2637 58.2558 12.2192C58.2565 12.1747 58.2694 12.1313 58.2932 12.0939C58.3239 12.0539 58.3641 12.0226 58.4099 12.0027C58.4991 11.9586 58.5937 11.9268 58.6912 11.9082C58.8018 11.8864 58.9143 11.8758 59.0269 11.8765M59.0353 13.8342C59.1268 13.836 59.218 13.8245 59.3064 13.8001C59.3631 13.7861 59.4169 13.7616 59.4649 13.7278V13.1306L58.9897 13.1816C58.882 13.1889 58.7776 13.2223 58.6852 13.2789C58.6513 13.3048 58.6244 13.339 58.6069 13.3782C58.5895 13.4174 58.582 13.4605 58.5852 13.5034C58.5834 13.5495 58.5922 13.5953 58.611 13.6373C58.6299 13.6792 58.6581 13.7161 58.6935 13.7449C58.7945 13.8124 58.9148 13.8436 59.0353 13.8337" fill="#CC0066"/>
<path d="M60.9083 13.6361C60.8332 13.4808 60.7423 13.2618 60.6353 12.9793C60.5284 12.6967 60.4263 12.3774 60.3289 12.0215C60.3587 11.9859 60.3948 11.9564 60.4354 11.9345C60.4781 11.9106 60.5261 11.8983 60.5749 11.8986C60.6314 11.8959 60.6873 11.9125 60.7334 11.9459C60.7831 11.9914 60.818 12.0512 60.8334 12.1174C60.914 12.3716 60.9968 12.6224 61.0817 12.8696C61.1666 13.1169 61.2604 13.3719 61.363 13.6347H61.3798C61.4241 13.5329 61.4692 13.4149 61.5151 13.2807C61.5609 13.1465 61.6054 13.0038 61.6485 12.8526C61.6916 12.7014 61.7327 12.5482 61.7717 12.3929C61.8108 12.2376 61.8455 12.0894 61.8759 11.9482C61.9041 11.934 61.9333 11.922 61.9633 11.9123C61.9985 11.9019 62.035 11.8969 62.0716 11.8977C62.1294 11.8954 62.1865 11.912 62.2344 11.9449C62.2572 11.963 62.2752 11.9866 62.2868 12.0136C62.2985 12.0406 62.3033 12.0701 62.3009 12.0994C62.2941 12.2256 62.2738 12.3506 62.2404 12.4723C62.2001 12.6389 62.148 12.824 62.0842 13.0275C62.0203 13.231 61.9473 13.4357 61.8652 13.6417C61.783 13.8481 61.7003 14.0317 61.6169 14.1927C61.5062 14.4162 61.3735 14.6277 61.2207 14.824C61.1829 14.8824 61.1332 14.9319 61.075 14.9692C61.0168 15.0064 60.9514 15.0306 60.8832 15.0399C60.8475 15.042 60.8117 15.0368 60.7781 15.0244C60.7444 15.0121 60.7136 14.9929 60.6874 14.9681C60.6387 14.9185 60.6062 14.8548 60.5944 14.7857C60.6489 14.7359 60.7004 14.6829 60.7488 14.627C60.8043 14.564 60.8599 14.4962 60.9157 14.4238C60.9715 14.3513 61.025 14.2771 61.0761 14.2012C61.1246 14.1302 61.167 14.0551 61.2031 13.9768C61.1487 13.9567 61.0996 13.9244 61.0594 13.8823C60.9953 13.8081 60.944 13.7237 60.9073 13.6323" fill="#CC0066"/>
<path d="M65.1949 12.372C65.1109 12.3047 65.0055 12.2711 64.8987 12.2775C64.8189 12.2771 64.7398 12.2932 64.6662 12.3248C64.5911 12.3571 64.522 12.4022 64.4617 12.458C64.4674 12.4845 64.4715 12.5113 64.4742 12.5383C64.477 12.5667 64.4784 12.595 64.4784 12.6229V14.1402C64.4507 14.1512 64.422 14.1598 64.3928 14.1657C64.3539 14.1744 64.3141 14.1787 64.2743 14.1785C64.2062 14.1839 64.1383 14.1652 64.0822 14.1255C64.0597 14.1028 64.0423 14.0752 64.0316 14.0448C64.0208 14.0144 64.0168 13.9819 64.0199 13.9498V12.6739C64.0248 12.6185 64.0176 12.5626 63.9989 12.5103C63.9802 12.4579 63.9504 12.4104 63.9116 12.3711C63.8276 12.3038 63.7222 12.2702 63.6154 12.2766C63.536 12.2761 63.4572 12.2905 63.3829 12.3191C63.3186 12.3436 63.2572 12.3753 63.1998 12.4136V14.1425C63.172 14.1536 63.1434 14.1621 63.1142 14.1681C63.0737 14.1769 63.0324 14.1812 62.9909 14.1808C62.9248 14.1855 62.8591 14.1668 62.805 14.1279C62.7823 14.1052 62.7648 14.0777 62.754 14.0472C62.7431 14.0168 62.7391 13.9843 62.7422 13.9521V12.4013C62.7391 12.3401 62.7528 12.2793 62.7817 12.2255C62.8166 12.1728 62.8611 12.1274 62.9128 12.0918C63.1281 11.9556 63.3762 11.8823 63.6298 11.8801C63.7564 11.8779 63.8824 11.8987 64.0018 11.9415C64.1049 11.9789 64.1978 12.0406 64.2729 12.1216C64.3603 12.0497 64.458 11.9919 64.5625 11.95C64.6881 11.901 64.8219 11.8773 64.9564 11.8801C65.0666 11.8794 65.1763 11.8953 65.2818 11.9274C65.3764 11.9553 65.464 12.0036 65.5385 12.0691C65.6117 12.1359 65.6693 12.2184 65.7073 12.3106C65.7516 12.4215 65.773 12.5405 65.7701 12.6602V14.1435C65.7395 14.1536 65.7085 14.1621 65.6771 14.169C65.6382 14.1777 65.5984 14.1819 65.5585 14.1818C65.4924 14.1864 65.4267 14.1677 65.3725 14.1288C65.3499 14.1061 65.3324 14.0786 65.3216 14.0482C65.3107 14.0178 65.3067 13.9853 65.3098 13.9531V12.6773C65.3148 12.6218 65.3077 12.5659 65.2889 12.5135C65.2702 12.4611 65.2403 12.4136 65.2014 12.3744" fill="#CC0066"/>
<path d="M66.7328 13.2974C66.7596 13.4553 66.8446 13.5969 66.9704 13.6934C67.1062 13.7842 67.2665 13.8293 67.4289 13.8224C67.5436 13.8238 67.6576 13.803 67.7646 13.761C67.8519 13.7275 67.9352 13.684 68.0129 13.6315C68.051 13.6516 68.0827 13.6821 68.1048 13.7194C68.1269 13.7568 68.1384 13.7996 68.138 13.8432C68.1375 13.8983 68.1167 13.9512 68.0798 13.9916C68.0353 14.041 67.9814 14.0807 67.9213 14.1083C67.847 14.1434 67.769 14.1697 67.6888 14.1867C67.4389 14.2382 67.1801 14.2219 66.9384 14.1395C66.8039 14.0915 66.6815 14.0141 66.5799 13.9127C66.4763 13.8073 66.3969 13.68 66.3474 13.5398C66.2907 13.3758 66.2631 13.2029 66.266 13.029C66.2629 12.8597 66.289 12.6911 66.3432 12.531C66.3891 12.3975 66.4623 12.2754 66.558 12.1728C66.6493 12.0771 66.7594 12.0021 66.8812 11.9526C67.0065 11.9015 67.1404 11.8757 67.2755 11.8766C67.4075 11.8747 67.5386 11.9 67.6609 11.9507C67.773 11.9975 67.8746 12.0668 67.9596 12.1546C68.0445 12.2424 68.1111 12.3468 68.1552 12.4615C68.2033 12.5856 68.2273 12.718 68.2258 12.8514C68.2286 12.8826 68.2252 12.914 68.2158 12.9439C68.2065 12.9737 68.1914 13.0014 68.1715 13.0253C68.1288 13.0652 68.0747 13.0903 68.0171 13.0971L66.7328 13.2974ZM67.275 12.2579C67.1995 12.2561 67.1245 12.2709 67.0551 12.3012C66.9857 12.3315 66.9235 12.3767 66.8728 12.4337C66.7579 12.5727 66.6977 12.7502 66.704 12.9317L67.7879 12.7663C67.7803 12.6335 67.7297 12.507 67.6442 12.4063C67.5973 12.3554 67.5399 12.3158 67.4762 12.2901C67.4124 12.2645 67.3434 12.2535 67.275 12.2579Z" fill="#CC0066"/>
<path d="M69.9688 12.3853C69.8761 12.3091 69.7588 12.2705 69.6396 12.2771C69.5462 12.2757 69.4532 12.29 69.3644 12.3196C69.2922 12.3446 69.2225 12.3762 69.1561 12.4141V14.1431C69.1283 14.1542 69.0997 14.1627 69.0705 14.1686C69.03 14.1775 68.9887 14.1817 68.9473 14.1814C68.8812 14.186 68.8154 14.1673 68.7613 14.1285C68.7386 14.1058 68.7212 14.0782 68.7103 14.0478C68.6995 14.0174 68.6954 13.9849 68.6985 13.9527V12.4019C68.6956 12.3407 68.7093 12.2799 68.7381 12.2261C68.7731 12.1733 68.8177 12.1279 68.8697 12.0924C68.9722 12.0337 69.0805 11.9862 69.1928 11.9506C69.3377 11.9035 69.489 11.8807 69.6411 11.883C69.881 11.8691 70.118 11.9419 70.3101 12.0886C70.3947 12.1663 70.4606 12.2627 70.5029 12.3703C70.5452 12.4779 70.5628 12.5939 70.5543 12.7095V14.1459C70.5249 14.1565 70.495 14.165 70.4645 14.1715C70.4242 14.1803 70.383 14.1845 70.3417 14.1842C70.2756 14.1889 70.2099 14.1702 70.1557 14.1313C70.1331 14.1086 70.1158 14.081 70.105 14.0506C70.0942 14.0202 70.0903 13.9877 70.0934 13.9555V12.7269C70.0986 12.6652 70.0905 12.6031 70.0696 12.5449C70.0488 12.4867 70.0157 12.4339 69.9726 12.39" fill="#CC0066"/>
<path d="M71.7178 13.7446C71.7951 13.7955 71.8863 13.82 71.9782 13.8146C72.0318 13.8142 72.0851 13.8064 72.1367 13.7914C72.1873 13.7779 72.2363 13.7588 72.2827 13.7343C72.303 13.7609 72.3212 13.7892 72.3371 13.8188C72.3644 13.8739 72.37 13.9375 72.3527 13.9966C72.3354 14.0557 72.2966 14.1059 72.2441 14.1368C72.1366 14.1975 72.0143 14.2254 71.8917 14.2172C71.7033 14.2269 71.5172 14.1709 71.3644 14.0584C71.2938 13.9934 71.2392 13.9126 71.2048 13.8224C71.1704 13.7321 71.1572 13.635 71.1663 13.5386V11.3395C71.1967 11.3288 71.2278 11.3202 71.2593 11.314C71.3005 11.3053 71.3424 11.301 71.3844 11.3012C71.4496 11.2958 71.5146 11.3139 71.568 11.3523C71.5896 11.3752 71.6061 11.4026 71.6162 11.4327C71.6263 11.4627 71.6298 11.4946 71.6266 11.5262V11.9921H72.3106C72.3243 12.0177 72.3355 12.0446 72.3441 12.0724C72.3555 12.1079 72.3611 12.1451 72.3609 12.1825C72.3609 12.3154 72.3066 12.3817 72.1981 12.3814H71.6266V13.5046C71.6219 13.5492 71.6279 13.5943 71.6441 13.636C71.6603 13.6778 71.6862 13.7149 71.7196 13.7442" fill="#CC0066"/>
<path d="M74.3678 13.5437C74.3719 13.6377 74.3543 13.7313 74.3162 13.8171C74.2782 13.9029 74.2208 13.9784 74.1488 14.0375C73.9633 14.1697 73.7387 14.2332 73.5127 14.2175C73.405 14.2183 73.2976 14.2083 73.1919 14.1877C73.1068 14.172 73.0241 14.145 72.9459 14.1074C72.8853 14.0782 72.8314 14.0363 72.7878 13.9845C72.7504 13.9411 72.7296 13.8854 72.7292 13.8277C72.7291 13.7826 72.7398 13.7381 72.7604 13.6982C72.7816 13.6567 72.8138 13.6222 72.8534 13.5985C72.9412 13.659 73.0347 13.7108 73.1324 13.753C73.2486 13.8017 73.3735 13.8255 73.4992 13.8229C73.6055 13.83 73.7114 13.805 73.8038 13.7511C73.8373 13.7286 73.8645 13.6977 73.8828 13.6614C73.901 13.625 73.9097 13.5845 73.9079 13.5437C73.9097 13.5089 73.9043 13.4742 73.8922 13.4416C73.88 13.4091 73.8613 13.3795 73.8372 13.3547C73.7764 13.3009 73.7031 13.2637 73.6243 13.2465L73.3239 13.1619C73.1609 13.1242 73.01 13.0447 72.8859 12.9308C72.8375 12.877 72.8002 12.8138 72.7762 12.7451C72.7523 12.6763 72.7422 12.6034 72.7464 12.5306C72.746 12.4421 72.7645 12.3545 72.8008 12.274C72.8368 12.1938 72.8903 12.1229 72.9571 12.0666C73.0332 12.0044 73.1203 11.9578 73.2137 11.9291C73.3271 11.8936 73.4452 11.8763 73.5638 11.878C73.6618 11.877 73.7597 11.8862 73.8559 11.9055C73.9327 11.9208 74.0076 11.9451 74.079 11.9777C74.1354 12.0026 74.1853 12.0402 74.225 12.0878C74.2582 12.1274 74.2767 12.1776 74.2771 12.2296C74.2781 12.274 74.2673 12.3179 74.246 12.3567C74.2267 12.3915 74.2004 12.4218 74.1688 12.4455C74.0926 12.4017 74.0132 12.3641 73.9312 12.3331C73.8248 12.2915 73.7117 12.2706 73.5978 12.2717C73.4961 12.2658 73.3949 12.2892 73.3058 12.3392C73.2781 12.3569 73.2545 12.3805 73.2368 12.4085C73.2191 12.4364 73.2076 12.468 73.2031 12.5009C73.1987 12.5338 73.2014 12.5674 73.2111 12.5991C73.2208 12.6308 73.2373 12.6601 73.2593 12.6846C73.3176 12.7357 73.3882 12.7701 73.4639 12.7843L73.7224 12.8524C73.9041 12.8954 74.0725 12.9836 74.2125 13.109C74.2661 13.1668 74.3076 13.2351 74.3344 13.3098C74.3613 13.3844 74.373 13.4639 74.3687 13.5432" fill="#CC0066"/>
<path d="M10.7238 6.87988V15.1523C10.7239 15.6939 10.5604 16.2224 10.2555 16.6665C9.95058 17.1106 9.51893 17.449 9.01881 17.6359L1.59513 20.4106C1.47828 20.4544 1.35276 20.4688 1.22925 20.4527C1.10573 20.4365 0.987881 20.3903 0.885734 20.3179C0.783587 20.2455 0.700168 20.1491 0.642581 20.0369C0.584994 19.9247 0.554945 19.8 0.554993 19.6734V12.6541C0.555231 12.232 0.682663 11.82 0.920151 11.4737C1.15764 11.1273 1.49379 10.8632 1.88341 10.7168L8.74494 8.13774C9.82785 7.69215 10.251 7.4195 10.7243 6.88224" fill="white"/>
<path d="M17.2504 8.97363C17.2427 9.28121 17.1203 9.57432 16.9079 9.79363C16.6955 10.0129 16.4091 10.1421 16.1066 10.1549H14.5508C14.4611 10.1571 14.3743 10.123 14.3093 10.0601C14.2444 9.99715 14.2066 9.9106 14.2044 9.81944V6.3757C14.2038 6.33002 14.2121 6.28467 14.229 6.24233C14.2459 6.19999 14.2709 6.16153 14.3027 6.12922C14.3345 6.09692 14.3724 6.07143 14.414 6.05427C14.4557 6.03712 14.5003 6.02864 14.5453 6.02934H16.0466C16.2712 6.04141 16.4875 6.11942 16.6693 6.25391C16.8512 6.38841 16.9907 6.57362 17.071 6.78708C17.1513 7.00055 17.169 7.23311 17.1219 7.45657C17.0747 7.68003 16.9648 7.88481 16.8055 8.04607C16.9428 8.15743 17.054 8.29843 17.131 8.45886C17.208 8.61929 17.2485 8.79512 17.2504 8.97363ZM14.8647 7.74507L15.9699 7.73373C16.1042 7.72924 16.2317 7.67304 16.3267 7.57652C16.4217 7.48 16.477 7.35038 16.4814 7.21395C16.4806 7.08273 16.4297 6.95695 16.3394 6.86315C16.2491 6.76935 16.1264 6.71486 15.9974 6.71119H14.8647V7.74507ZM16.5693 8.97363C16.56 8.83457 16.5004 8.70394 16.4019 8.60697C16.3034 8.51001 16.173 8.4536 16.036 8.44865H14.8921V9.48206H16.0685C16.1999 9.47781 16.3247 9.42287 16.4176 9.32843C16.5106 9.23399 16.5646 9.10712 16.5688 8.97363" fill="white"/>
<path d="M19.9566 8.44862H19.4563V9.81893C19.4543 9.90913 19.4174 9.9949 19.3536 10.0576C19.2898 10.1204 19.2042 10.155 19.1155 10.154C19.0281 10.1537 18.9443 10.1183 18.8825 10.0556C18.8206 9.99282 18.7857 9.90775 18.7853 9.81893V6.36432C18.7881 6.2744 18.8253 6.18912 18.8889 6.12657C18.9525 6.06402 19.0376 6.02913 19.1262 6.0293H20.33C20.6395 6.03617 20.9346 6.16345 21.1545 6.3849C21.3744 6.60636 21.5023 6.90512 21.5119 7.21958C21.5062 7.4732 21.4248 7.71906 21.2785 7.92461C21.1322 8.13016 20.9279 8.28571 20.6926 8.37065L21.457 9.6389C21.5016 9.717 21.5145 9.80967 21.493 9.89726C21.4714 9.98484 21.4172 10.0605 21.3417 10.1081C21.2894 10.1373 21.2308 10.1527 21.1711 10.153C21.1138 10.153 21.0575 10.138 21.0074 10.1097C20.9574 10.0813 20.9153 10.0404 20.8851 9.99093L19.9566 8.44862ZM20.8475 7.22478C20.8412 7.08465 20.7814 6.95253 20.6808 6.85653C20.5801 6.76052 20.4466 6.70819 20.3086 6.71068H19.4563V7.76676H20.3086C20.4506 7.7669 20.5869 7.71002 20.6878 7.60851C20.7887 7.507 20.8461 7.36908 20.8475 7.22478Z" fill="white"/>
<path d="M25.3718 10.1522C24.8357 10.1464 24.3236 9.92501 23.9475 9.53656C23.5715 9.14812 23.362 8.62417 23.365 8.07926C23.372 7.67807 23.4954 7.28792 23.7197 6.95773C23.9441 6.62755 24.2594 6.37205 24.626 6.22329C24.9927 6.07453 25.3945 6.03914 25.7809 6.12156C26.1673 6.20398 26.5212 6.40054 26.7981 6.68656C27.075 6.97259 27.2626 7.33536 27.3374 7.72934C27.4122 8.12332 27.3708 8.53097 27.2184 8.90115C27.0661 9.27133 26.8096 9.58754 26.4811 9.81011C26.1525 10.0327 25.7667 10.1517 25.3718 10.1522ZM24.0137 8.07926C24.0141 8.35282 24.0944 8.62011 24.2443 8.8473C24.3943 9.0745 24.6072 9.2514 24.8561 9.35564C25.1049 9.45987 25.3787 9.48676 25.6426 9.43289C25.9065 9.37903 26.1488 9.24684 26.3388 9.05304C26.5288 8.85923 26.6579 8.61252 26.7099 8.34411C26.7619 8.0757 26.7345 7.79764 26.631 7.54511C26.5274 7.29257 26.3526 7.0769 26.1285 6.92537C25.9043 6.77384 25.641 6.69326 25.3718 6.69382C25.0118 6.69741 24.6676 6.84469 24.4136 7.10389C24.1595 7.36308 24.0158 7.7134 24.0137 8.07926Z" fill="white"/>
<path d="M32.1237 10.1248C32.0812 10.1416 32.0357 10.1496 31.9901 10.1483C31.9444 10.147 31.8995 10.1363 31.8579 10.117C31.8164 10.0977 31.7791 10.0702 31.7482 10.0359C31.7174 10.0017 31.6936 9.96156 31.6783 9.91783L30.7484 7.3662L29.8138 9.91783C29.7995 9.96168 29.7766 10.0021 29.7463 10.0366C29.7161 10.071 29.6792 10.0988 29.638 10.1182C29.5968 10.1376 29.552 10.1482 29.5066 10.1494C29.4612 10.1505 29.416 10.1421 29.3739 10.1248C29.3306 10.1097 29.2907 10.0858 29.2567 10.0545C29.2228 10.0232 29.1954 9.98528 29.1764 9.94292C29.1573 9.90057 29.147 9.85472 29.1459 9.80816C29.1448 9.7616 29.1531 9.71532 29.1703 9.67212L30.4126 6.2468C30.4388 6.17836 30.4849 6.1197 30.5449 6.07872C30.6048 6.03775 30.6757 6.01642 30.7479 6.01763C30.8198 6.01798 30.89 6.03992 30.9496 6.0807C31.0093 6.12147 31.0557 6.17926 31.0831 6.2468L32.3255 9.67212C32.3427 9.71529 32.351 9.76154 32.3499 9.80808C32.3489 9.85461 32.3386 9.90045 32.3196 9.9428C32.3006 9.98514 32.2733 10.0231 32.2394 10.0544C32.2055 10.0857 32.1656 10.1096 32.1223 10.1248" fill="white"/>
<path d="M33.7125 9.8176V6.38047C33.7146 6.29229 33.75 6.20833 33.8114 6.14596C33.8727 6.0836 33.9554 6.0476 34.0421 6.04545H34.8614C35.1565 6.04369 35.4486 6.10452 35.7193 6.22406C35.9793 6.34002 36.2118 6.51148 36.4009 6.72683C36.5896 6.94456 36.7304 7.20072 36.8139 7.47818C36.8974 7.75565 36.9216 8.04802 36.8849 8.33577C36.8243 8.83543 36.5865 9.29549 36.216 9.62976C35.8456 9.96404 35.368 10.1496 34.8726 10.1517H34.0426C33.9558 10.1495 33.8732 10.1135 33.8118 10.0512C33.7505 9.98879 33.715 9.90483 33.7129 9.81665M36.22 8.25733C36.2491 8.06435 36.2361 7.86724 36.1819 7.67994C36.1278 7.49263 36.0338 7.31969 35.9066 7.17336C35.7752 7.02477 35.6139 6.90653 35.4337 6.82657C35.2535 6.74661 35.0585 6.70681 34.8619 6.70982H34.3727V9.48116H34.873C35.2065 9.48132 35.5284 9.35661 35.7771 9.13085C36.0259 8.90509 36.184 8.59411 36.2214 8.25733" fill="white"/>
<path d="M40.1506 9.57695C39.986 9.82956 39.7325 10.0085 39.4421 10.0771C39.1517 10.1456 38.8465 10.0985 38.5892 9.94551C38.5103 9.89689 38.452 9.82021 38.4256 9.73036C38.3992 9.6405 38.4067 9.54389 38.4464 9.45929C38.5061 9.38918 38.5896 9.34451 38.6803 9.33417C38.7709 9.32384 38.8621 9.3486 38.9356 9.40353C39.0496 9.46641 39.1828 9.48294 39.3083 9.44978C39.4338 9.41662 39.5423 9.33625 39.6117 9.22492C39.65 9.16698 39.6767 9.10193 39.6903 9.03348C39.7039 8.96504 39.7041 8.89454 39.6908 8.82603C39.6775 8.75752 39.6511 8.69234 39.613 8.63422C39.575 8.5761 39.526 8.52618 39.4689 8.48731C39.1997 8.31389 39.1899 8.3087 38.93 8.13528C38.6727 7.96558 38.4922 7.69894 38.4283 7.39403C38.3644 7.08911 38.4223 6.77088 38.5892 6.50933C38.7555 6.2588 39.0089 6.0815 39.2985 6.01304C39.5882 5.94458 39.8926 5.99004 40.1506 6.14029C40.2269 6.1856 40.2831 6.25897 40.3077 6.34525C40.3323 6.43153 40.3233 6.5241 40.2826 6.60383C40.2281 6.6769 40.1479 6.72581 40.0588 6.74042C39.9698 6.75502 39.8785 6.7342 39.8041 6.68227C39.6852 6.62072 39.5476 6.60786 39.4195 6.64632C39.2915 6.68477 39.1829 6.77164 39.116 6.88902C39.0491 7.00641 39.029 7.14539 39.0599 7.27737C39.0908 7.40934 39.1703 7.52427 39.282 7.5985C39.4215 7.6878 39.4215 7.6878 39.8153 7.95052C39.9425 8.03483 40.052 8.14379 40.1377 8.27117C40.2234 8.39855 40.2836 8.54184 40.3147 8.69286C40.3458 8.84388 40.3473 8.99965 40.3192 9.15127C40.291 9.30289 40.2337 9.44785 40.1506 9.57695Z" fill="white"/>
<path d="M43.8627 8.43859C43.5552 8.46078 43.2467 8.46457 42.9388 8.44993V9.82025C42.9368 9.91045 42.9 9.99622 42.8362 10.0589C42.7723 10.1217 42.6868 10.1563 42.598 10.1553C42.5107 10.1549 42.427 10.1195 42.3653 10.0567C42.3035 9.99398 42.2687 9.90899 42.2683 9.82025V6.37509C42.2678 6.33093 42.2759 6.28711 42.2923 6.2462C42.3086 6.2053 42.3329 6.16814 42.3636 6.13692C42.3944 6.10569 42.4309 6.08104 42.4712 6.0644C42.5114 6.04777 42.5545 6.0395 42.598 6.04007H43.8297C44.1366 6.04978 44.428 6.17953 44.6431 6.40226C44.8582 6.62499 44.9804 6.9235 44.9842 7.23555C44.9792 7.54211 44.8612 7.8356 44.6536 8.05801C44.4459 8.28043 44.1637 8.41556 43.8627 8.4367M43.786 6.71058H42.9393V7.76666H43.786C43.9277 7.76582 44.0634 7.70862 44.1642 7.60732C44.2649 7.50602 44.3226 7.36867 44.3249 7.22468C44.3177 7.08488 44.2576 6.95332 44.1572 6.8575C44.0567 6.76169 43.9237 6.70904 43.786 6.71058Z" fill="white"/>
<path d="M46.7432 9.81754V6.36434C46.7435 6.27561 46.7784 6.19061 46.8401 6.12786C46.9019 6.06511 46.9855 6.0297 47.0728 6.02932H49.0536C49.1424 6.02818 49.2281 6.06276 49.2919 6.12551C49.3557 6.18826 49.3926 6.2741 49.3944 6.36434C49.3939 6.45605 49.3579 6.54386 49.294 6.60871C49.2302 6.67356 49.1438 6.71021 49.0536 6.7107H47.415V7.76679H48.6523C48.6958 7.76622 48.7389 7.7745 48.7791 7.79113C48.8194 7.80776 48.856 7.83242 48.8867 7.86364C48.9174 7.89487 48.9417 7.93203 48.958 7.97293C48.9744 8.01384 48.9825 8.05766 48.982 8.10181C48.9826 8.146 48.9745 8.18988 48.9582 8.23083C48.9418 8.27179 48.9176 8.30901 48.8869 8.34028C48.8561 8.37156 48.8195 8.39626 48.7792 8.41292C48.739 8.42958 48.6958 8.43787 48.6523 8.4373H47.415V9.47071H49.0536C49.1438 9.47121 49.2302 9.50786 49.294 9.5727C49.3579 9.63755 49.3939 9.72536 49.3944 9.81707C49.3925 9.90727 49.3556 9.99304 49.2918 10.0558C49.228 10.1185 49.1424 10.1531 49.0536 10.1521H47.0742C46.9869 10.1517 46.9033 10.1163 46.8415 10.0536C46.7798 9.9908 46.7449 9.9058 46.7446 9.81707" fill="white"/>
<path d="M54.5677 9.70562C54.2176 9.9886 53.7833 10.1422 53.336 10.1413C52.7979 10.1413 52.2818 9.92405 51.9013 9.53738C51.5208 9.15071 51.3071 8.62627 51.3071 8.07943C51.3071 7.53259 51.5208 7.00815 51.9013 6.62148C52.2818 6.23481 52.7979 6.01758 53.336 6.01758C53.7015 6.01808 54.0596 6.12268 54.3696 6.31952C54.4086 6.3401 54.443 6.36847 54.4709 6.40294C54.4988 6.4374 54.5195 6.47724 54.5318 6.52006C54.5442 6.56288 54.5478 6.6078 54.5427 6.6521C54.5375 6.69641 54.5235 6.73919 54.5017 6.77787C54.4793 6.81617 54.4495 6.84939 54.4139 6.87544C54.3784 6.90148 54.338 6.9198 54.2952 6.92925C54.2524 6.93869 54.2081 6.93907 54.1651 6.93034C54.1222 6.92161 54.0815 6.90396 54.0455 6.87851C53.831 6.74903 53.5859 6.6814 53.3364 6.68289C53.1581 6.68289 52.9816 6.7186 52.8168 6.78797C52.6521 6.85735 52.5024 6.95903 52.3764 7.08721C52.2503 7.21539 52.1504 7.36755 52.0822 7.53501C52.0141 7.70246 51.9791 7.88192 51.9792 8.06313C51.973 8.32266 52.0391 8.57869 52.1697 8.80182C52.3002 9.02495 52.4901 9.20613 52.7174 9.32455C52.9447 9.44298 53.2003 9.49384 53.4548 9.47131C53.7093 9.44878 53.9524 9.35377 54.1562 9.19718C54.1881 9.16935 54.2252 9.14827 54.2653 9.13516C54.3054 9.12206 54.3476 9.11719 54.3895 9.12084C54.4315 9.12449 54.4723 9.13658 54.5096 9.15643C54.5469 9.17627 54.5799 9.20345 54.6067 9.2364C54.6627 9.30389 54.69 9.39117 54.6828 9.47911C54.6756 9.56705 54.6343 9.6485 54.5681 9.70562" fill="white"/>
<path d="M59.1465 6.358C59.1465 6.40179 59.1379 6.44515 59.1213 6.48556C59.1047 6.52597 59.0803 6.56263 59.0497 6.5934C59.019 6.62417 58.9826 6.64844 58.9426 6.66481C58.9027 6.68119 58.8599 6.68932 58.8168 6.68876H58.0092V9.81781C58.0092 9.90597 57.9747 9.99052 57.9134 10.0529C57.852 10.1152 57.7688 10.1502 57.6821 10.1502C57.5953 10.1502 57.5121 10.1152 57.4507 10.0529C57.3894 9.99052 57.355 9.90597 57.355 9.81781V6.68782H56.5468C56.4601 6.68782 56.3769 6.65279 56.3155 6.59045C56.2542 6.52811 56.2197 6.44356 56.2197 6.3554C56.2197 6.26723 56.2542 6.18268 56.3155 6.12034C56.3769 6.058 56.4601 6.02298 56.5468 6.02298H58.8173C58.8607 6.02241 58.9038 6.03068 58.9441 6.04731C58.9843 6.06395 59.0209 6.0886 59.0516 6.11983C59.0823 6.15105 59.1066 6.18821 59.123 6.22911C59.1394 6.27002 59.147 6.31384 59.1465 6.358Z" fill="white"/>
<path d="M61.9679 8.44862H61.4676V9.81893C61.4657 9.90913 61.4288 9.9949 61.365 10.0576C61.3012 10.1204 61.2156 10.155 61.1268 10.154C61.0394 10.1537 60.9557 10.1183 60.8938 10.0556C60.832 9.99282 60.7971 9.90775 60.7967 9.81893V6.36432C60.7995 6.2744 60.8366 6.18912 60.9002 6.12657C60.9639 6.06402 61.049 6.02913 61.1375 6.0293H62.3418C62.6513 6.03617 62.9464 6.16345 63.1663 6.3849C63.3862 6.60636 63.5142 6.90512 63.5237 7.21958C63.518 7.4732 63.4366 7.71906 63.2903 7.92461C63.144 8.13016 62.9397 8.28571 62.7045 8.37065L63.4688 9.6389C63.5134 9.71706 63.5262 9.80976 63.5045 9.89736C63.4829 9.98496 63.4286 10.0606 63.3531 10.1081C63.3008 10.1373 63.2421 10.1528 63.1824 10.153C63.1251 10.153 63.0688 10.138 63.0187 10.1097C62.9687 10.0813 62.9266 10.0404 62.8965 9.99093L61.9679 8.44862ZM62.8588 7.22478C62.8525 7.08465 62.7927 6.95253 62.6921 6.85653C62.5915 6.76052 62.4579 6.70819 62.3199 6.71068H61.4676V7.76676H62.3199C62.4619 7.7669 62.5982 7.71002 62.6991 7.60851C62.8001 7.507 62.8574 7.36908 62.8588 7.22478Z" fill="white"/>
<path d="M68.3455 6.35851V8.64362C68.349 8.84397 68.3131 9.04302 68.2401 9.22915C68.1671 9.41528 68.0583 9.58476 67.9201 9.7277C67.7819 9.87064 67.6171 9.98417 67.4353 10.0617C67.2534 10.1392 67.0582 10.1791 66.861 10.1791C66.6639 10.1791 66.4687 10.1392 66.2868 10.0617C66.105 9.98417 65.9402 9.87064 65.802 9.7277C65.6638 9.58476 65.555 9.41528 65.482 9.22915C65.4089 9.04302 65.3731 8.84397 65.3766 8.64362V6.35851C65.3766 6.26809 65.412 6.18137 65.4749 6.11743C65.5378 6.0535 65.6231 6.01758 65.7121 6.01758C65.8011 6.01758 65.8864 6.0535 65.9493 6.11743C66.0122 6.18137 66.0476 6.26809 66.0476 6.35851V8.64362C66.0476 8.86444 66.1339 9.07621 66.2876 9.23235C66.4412 9.38849 66.6496 9.47621 66.8668 9.47621C67.0841 9.47621 67.2925 9.38849 67.4462 9.23235C67.5998 9.07621 67.6862 8.86444 67.6862 8.64362V6.35851C67.6856 6.31435 67.6937 6.27053 67.7101 6.22962C67.7265 6.18872 67.7507 6.15156 67.7814 6.12034C67.8122 6.08911 67.8487 6.06446 67.889 6.04782C67.9292 6.03119 67.9724 6.02292 68.0158 6.02349C68.0593 6.02292 68.1024 6.03119 68.1426 6.04782C68.1829 6.06446 68.2194 6.08911 68.2502 6.12034C68.2809 6.15156 68.3051 6.18872 68.3215 6.22962C68.3379 6.27053 68.346 6.31435 68.3455 6.35851Z" fill="white"/>
<path d="M74.2671 9.74438C74.279 9.7855 74.2825 9.82864 74.2775 9.87119C74.2725 9.91374 74.2591 9.95481 74.238 9.99192C74.2169 10.029 74.1886 10.0614 74.1548 10.0871C74.1211 10.1128 74.0826 10.1312 74.0416 10.1413H74.0249C74.0193 10.1413 74.0192 10.1413 74.0141 10.1526H73.9755C73.8986 10.152 73.8243 10.1244 73.765 10.0746C73.7057 10.0248 73.6651 9.95571 73.6501 9.87905L73.1991 7.64402L72.3691 9.90693C72.347 9.97522 72.3043 10.0347 72.2471 10.0768C72.1898 10.119 72.1208 10.1417 72.0501 10.1417C71.9794 10.1417 71.9105 10.119 71.8532 10.0768C71.7959 10.0347 71.7532 9.97522 71.7312 9.90693L70.9998 7.75033L70.6148 9.87905C70.6026 9.95758 70.563 10.029 70.5032 10.0803C70.4434 10.1316 70.3675 10.1593 70.2893 10.1583C70.2725 10.1583 70.2507 10.1526 70.2344 10.1526C70.1903 10.1461 70.1481 10.1297 70.1111 10.1045C70.074 10.0793 70.0429 10.0461 70.0201 10.0071C69.9935 9.97286 69.9748 9.93304 69.9654 9.89054C69.9559 9.84804 69.9558 9.80392 69.9652 9.76139L70.5315 6.29733C70.5456 6.22192 70.5841 6.15347 70.6409 6.10286C70.6977 6.05226 70.7695 6.02241 70.8449 6.01807H70.8724C70.9433 6.01802 71.0124 6.04088 71.0698 6.08335C71.1271 6.12581 71.1697 6.18568 71.1913 6.25433L72.0599 8.74074L72.967 6.24299C72.9882 6.17616 73.0303 6.11818 73.0869 6.07785C73.1434 6.03751 73.2114 6.01702 73.2804 6.01948H73.2972C73.3722 6.01998 73.4446 6.04789 73.5011 6.09811C73.5576 6.14834 73.5945 6.21753 73.605 6.29308L74.2671 9.74438Z" fill="white"/>
</g>
</svg>
