<svg width="75" height="20" viewBox="0 0 75 20" fill="none" xmlns="http://www.w3.org/2000/svg">
<mask id="mask0_2057_96253" style="mask-type:luminance" maskUnits="userSpaceOnUse" x="0" y="0" width="75" height="20">
<path d="M74.2486 0.214355H0.248047V19.9966H74.2486V0.214355Z" fill="white"/>
</mask>
<g mask="url(#mask0_2057_96253)">
<path d="M8.28688 3.20901L1.53182 0.290729C1.39152 0.230023 1.23861 0.205618 1.08675 0.219697C0.934902 0.233776 0.788851 0.285901 0.661668 0.371408C0.534484 0.456915 0.430134 0.573138 0.357953 0.709679C0.285771 0.846219 0.24801 0.99882 0.248047 1.15383V8.66459C0.248042 8.82428 0.286103 8.9816 0.358971 9.12307C0.431839 9.26455 0.537344 9.38597 0.666455 9.47694C0.795567 9.5679 0.944439 9.62572 1.10033 9.64542C1.25622 9.66513 1.41449 9.64614 1.56158 9.59008L6.04341 7.88184L1.18775 5.82525C1.11822 5.79256 1.06385 5.73376 1.03606 5.6612C1.00827 5.58863 1.00922 5.50794 1.0387 5.43607C1.06819 5.3642 1.12391 5.30674 1.19419 5.27574C1.26446 5.24475 1.34381 5.24264 1.41558 5.26986L6.85571 7.57271L8.38499 6.98944C11.0018 6.06678 11.1381 4.22336 8.28735 3.20806M8.92714 5.59789C8.89692 5.67137 8.8393 5.72968 8.76688 5.76007C8.69446 5.79045 8.61316 5.79044 8.54075 5.76002L1.07708 2.6002C1.04121 2.58503 1.00863 2.56282 0.981202 2.53484C0.953772 2.50686 0.932032 2.47367 0.917223 2.43715C0.887314 2.3634 0.88745 2.28059 0.917601 2.20694C0.947752 2.13329 1.00545 2.07484 1.078 2.04443C1.15055 2.01403 1.23201 2.01416 1.30445 2.04482L8.76766 5.20557C8.8036 5.22073 8.83625 5.24295 8.86373 5.27096C8.89121 5.29896 8.91298 5.33221 8.92779 5.36879C8.94261 5.40537 8.95018 5.44456 8.95007 5.48411C8.94995 5.52367 8.94216 5.56282 8.92714 5.59931" fill="#CC0066"/>
<path d="M44.5105 12.2305C44.5149 12.4567 44.4802 12.6819 44.4082 12.896C44.3474 13.0735 44.2484 13.235 44.1185 13.3687C43.9915 13.4957 43.8375 13.5914 43.6684 13.6485C43.48 13.7114 43.2827 13.7422 43.0844 13.7397C42.9914 13.7397 42.8815 13.7355 42.7548 13.727C42.6353 13.7203 42.5173 13.6961 42.4046 13.6551C42.3468 13.6436 42.2947 13.6118 42.2575 13.5654C42.2202 13.519 42.2001 13.4608 42.2005 13.4008V11.0436C42.1978 10.998 42.2128 10.9532 42.2424 10.9188C42.2738 10.8867 42.3124 10.8627 42.3549 10.8489C42.4655 10.8139 42.5794 10.7911 42.6948 10.7808C42.8157 10.7695 42.9332 10.7638 43.0472 10.7638C43.2493 10.7615 43.4504 10.7915 43.6433 10.8527C43.8166 10.9068 43.9756 11.0002 44.1083 11.1259C44.24 11.2548 44.3418 11.4119 44.4063 11.5858C44.4811 11.7919 44.5172 12.0104 44.5128 12.23M44.0251 12.2343C44.0287 12.0715 44.004 11.9094 43.9521 11.7555C43.9093 11.6323 43.8393 11.5207 43.7475 11.4293C43.6594 11.3441 43.554 11.2795 43.4387 11.2402C43.3157 11.1985 43.1867 11.1778 43.057 11.1788C42.9283 11.1766 42.7998 11.188 42.6734 11.2128V13.2898C42.7372 13.3048 42.802 13.3147 42.8673 13.3195C42.9383 13.3252 43.0113 13.328 43.0863 13.328C43.2153 13.3368 43.3446 13.3166 43.4651 13.269C43.5856 13.2214 43.6944 13.1475 43.7837 13.0525C43.9595 12.8188 44.0449 12.5277 44.0237 12.2343" fill="#CC0066"/>
<path d="M45.003 10.8022C45.002 10.7645 45.0083 10.7269 45.0215 10.6916C45.0348 10.6563 45.0547 10.624 45.0802 10.5966C45.1063 10.5691 45.1378 10.5475 45.1726 10.5332C45.2075 10.519 45.245 10.5124 45.2825 10.5139C45.3194 10.5127 45.3561 10.5194 45.3903 10.5337C45.4244 10.5479 45.4552 10.5694 45.4806 10.5966C45.5303 10.6532 45.5578 10.7264 45.5578 10.8022C45.5578 10.8781 45.5303 10.9513 45.4806 11.0078C45.4552 11.0351 45.4244 11.0565 45.3903 11.0708C45.3561 11.085 45.3194 11.0918 45.2825 11.0905C45.245 11.0921 45.2075 11.0855 45.1726 11.0712C45.1378 11.057 45.1063 11.0354 45.0802 11.0078C45.0547 10.9804 45.0347 10.9481 45.0215 10.9128C45.0082 10.8776 45.002 10.84 45.003 10.8022ZM45.5117 13.6761C45.484 13.6871 45.4554 13.6956 45.4262 13.7016C45.3858 13.7104 45.3447 13.7147 45.3034 13.7143C45.236 13.72 45.1688 13.7012 45.1137 13.6614C45.0917 13.6383 45.0749 13.6106 45.0644 13.5803C45.054 13.5499 45.0502 13.5176 45.0533 13.4856V11.4914L45.1407 11.4682C45.1816 11.4578 45.2236 11.4529 45.2658 11.4536C45.332 11.4481 45.3979 11.4669 45.4518 11.5065C45.4733 11.5307 45.4897 11.5592 45.4997 11.5903C45.5097 11.6213 45.5132 11.6541 45.5099 11.6866L45.5117 13.6761Z" fill="#CC0066"/>
<path d="M47.4937 13.4774C47.4303 13.5183 47.3616 13.5501 47.2896 13.572C47.1961 13.5992 47.0991 13.6121 47.0018 13.6102C46.8765 13.611 46.752 13.5909 46.6331 13.5507C46.5185 13.5115 46.4138 13.4469 46.3267 13.3616C46.2329 13.2678 46.1616 13.1533 46.1184 13.027C46.0641 12.8624 46.0388 12.6895 46.0435 12.516C46.0404 12.3538 46.0658 12.1923 46.1184 12.0391C46.1637 11.9097 46.2371 11.7924 46.3332 11.6959C46.4273 11.6034 46.5395 11.5319 46.6624 11.4861C46.7994 11.4363 46.9442 11.4119 47.0897 11.4142C47.224 11.413 47.3576 11.433 47.4859 11.4733C47.5921 11.5059 47.6932 11.5536 47.7862 11.6151C47.8308 11.6463 47.869 11.6859 47.8987 11.7319C47.928 11.7809 47.9425 11.8376 47.9406 11.8949V13.7464C47.9442 13.8859 47.9187 14.0246 47.8657 14.1533C47.8193 14.2617 47.7469 14.3564 47.6551 14.4289C47.5594 14.502 47.4501 14.5546 47.3338 14.5835C47.2035 14.6163 47.0696 14.6322 46.9353 14.6307C46.8059 14.6328 46.6769 14.6169 46.5517 14.5835C46.4678 14.5616 46.3867 14.5299 46.31 14.4889C46.2503 14.4519 46.2065 14.3935 46.1872 14.3252C46.168 14.2569 46.1746 14.1838 46.2058 14.1203C46.2252 14.0836 46.2539 14.0529 46.289 14.0314C46.3709 14.0902 46.4609 14.1365 46.5559 14.1689C46.671 14.2106 46.7923 14.2314 46.9144 14.2304C47.0661 14.2398 47.2166 14.1972 47.3417 14.1094C47.3953 14.0614 47.4369 14.0013 47.4634 13.9338C47.4898 13.8664 47.5002 13.7936 47.4937 13.7213V13.4774ZM47.0641 13.2231C47.1506 13.2256 47.2366 13.2095 47.3166 13.1759C47.3793 13.1485 47.4365 13.1098 47.4854 13.0615V11.9219C47.4353 11.8896 47.3814 11.8641 47.325 11.8458C47.2515 11.8219 47.1747 11.8104 47.0976 11.8117C47.0177 11.8085 46.938 11.8223 46.8637 11.8522C46.7894 11.8822 46.7221 11.9277 46.6661 11.9857C46.5459 12.1323 46.4868 12.321 46.5015 12.5113C46.499 12.6232 46.5137 12.7349 46.5452 12.8422C46.5695 12.9236 46.6107 12.9987 46.6661 13.0624C46.7148 13.117 46.7755 13.1591 46.8433 13.1853C46.914 13.2115 46.9888 13.224 47.0641 13.2231Z" fill="#CC0066"/>
<path d="M48.5128 10.8022C48.5118 10.7645 48.518 10.7269 48.5313 10.6916C48.5445 10.6563 48.5645 10.624 48.59 10.5966C48.6161 10.5691 48.6475 10.5475 48.6824 10.5332C48.7173 10.519 48.7547 10.5124 48.7923 10.5139C48.8292 10.5126 48.8659 10.5194 48.9 10.5336C48.9342 10.5479 48.9649 10.5694 48.9903 10.5966C49.04 10.6532 49.0675 10.7264 49.0675 10.8022C49.0675 10.8781 49.04 10.9513 48.9903 11.0078C48.9649 11.0351 48.9342 11.0565 48.9 11.0708C48.8659 11.0851 48.8292 11.0918 48.7923 11.0905C48.7547 11.0921 48.7173 11.0855 48.6824 11.0712C48.6475 11.057 48.6161 11.0354 48.59 11.0078C48.5645 10.9804 48.5445 10.9481 48.5312 10.9128C48.518 10.8776 48.5117 10.84 48.5128 10.8022ZM49.0215 13.6761C48.9937 13.6871 48.9651 13.6956 48.9359 13.7016C48.8954 13.7104 48.8541 13.7147 48.8127 13.7143C48.7453 13.72 48.6781 13.7013 48.623 13.6614C48.601 13.6383 48.5841 13.6106 48.5737 13.5803C48.5632 13.5499 48.5595 13.5176 48.5626 13.4856V11.4914L48.65 11.4682C48.6909 11.4578 48.7329 11.4529 48.775 11.4536C48.8413 11.4481 48.9072 11.4669 48.961 11.5065C48.9826 11.5307 48.999 11.5592 49.009 11.5903C49.019 11.6213 49.0225 11.6541 49.0192 11.6866L49.0215 13.6761Z" fill="#CC0066"/>
<path d="M50.2153 13.2801C50.2926 13.331 50.3838 13.3555 50.4757 13.35C50.5294 13.3496 50.5827 13.3418 50.6343 13.3269C50.6849 13.3134 50.7339 13.2942 50.7803 13.2697C50.8006 13.2964 50.8188 13.3247 50.8347 13.3543C50.8619 13.4094 50.8674 13.473 50.8501 13.5321C50.8328 13.5912 50.7941 13.6413 50.7417 13.6724C50.6342 13.733 50.5119 13.7609 50.3893 13.7528C50.2008 13.7625 50.0148 13.7065 49.862 13.5939C49.7914 13.5289 49.7368 13.4481 49.7024 13.3578C49.668 13.2675 49.6549 13.1704 49.6639 13.074V10.8742C49.6943 10.8634 49.7254 10.8549 49.7569 10.8487C49.798 10.84 49.84 10.8357 49.882 10.8359C49.9472 10.8305 50.0122 10.8486 50.0656 10.8869C50.0872 10.9099 50.1035 10.9374 50.1135 10.9674C50.1236 10.9975 50.1271 11.0294 50.1238 11.0609V11.5269H50.8077C50.8213 11.5526 50.8325 11.5795 50.8412 11.6073C50.8525 11.6429 50.8582 11.6801 50.8579 11.7174C50.8579 11.8504 50.8037 11.9167 50.6952 11.9164H50.1238V13.04C50.1191 13.0846 50.125 13.1297 50.1412 13.1714C50.1574 13.2132 50.1833 13.2503 50.2167 13.2796" fill="#CC0066"/>
<path d="M52.0914 11.4131C52.3231 11.4001 52.5524 11.4667 52.7424 11.6021C52.8266 11.6759 52.8924 11.7688 52.9344 11.8734C52.9765 11.978 52.9935 12.0913 52.9841 12.2038V13.3019C52.988 13.3614 52.9716 13.4205 52.9376 13.4692C52.9014 13.5125 52.8593 13.5504 52.8126 13.5817C52.7205 13.6341 52.6224 13.6748 52.5205 13.7027C52.3832 13.7403 52.2414 13.7581 52.0993 13.7556C51.8644 13.7695 51.6313 13.7064 51.4344 13.5755C51.3546 13.5145 51.291 13.4344 51.2491 13.3422C51.2072 13.2501 51.1884 13.1489 51.1945 13.0476C51.1893 12.9597 51.2033 12.8718 51.2355 12.7901C51.2676 12.7084 51.3171 12.6349 51.3805 12.5749C51.5341 12.4526 51.7212 12.3815 51.9161 12.3712L52.5289 12.3031V12.2015C52.5339 12.1447 52.5251 12.0876 52.5033 12.0351C52.4815 11.9826 52.4473 11.9363 52.4038 11.9004C52.3014 11.8323 52.1802 11.7992 52.0579 11.8058C51.9435 11.8054 51.8298 11.8225 51.7204 11.8564C51.6198 11.8871 51.522 11.9268 51.4283 11.9751C51.399 11.9474 51.3738 11.9156 51.3535 11.8805C51.331 11.8423 51.3195 11.7985 51.3202 11.754C51.3209 11.7094 51.3339 11.666 51.3577 11.6286C51.3884 11.5887 51.4285 11.5573 51.4744 11.5374C51.5636 11.4933 51.6582 11.4615 51.7557 11.4428C51.8663 11.4211 51.9787 11.4105 52.0914 11.4112M52.0998 13.3694C52.1912 13.3713 52.2825 13.3598 52.3708 13.3354C52.4276 13.3214 52.4814 13.2969 52.5294 13.2631V12.6656L52.0542 12.7167C51.9465 12.724 51.8421 12.7574 51.7496 12.8141C51.7158 12.8399 51.6889 12.8741 51.6714 12.9133C51.6539 12.9526 51.6465 12.9956 51.6497 13.0386C51.6478 13.0847 51.6567 13.1305 51.6755 13.1725C51.6943 13.2144 51.7226 13.2513 51.758 13.2801C51.859 13.3477 51.9793 13.3789 52.0998 13.369" fill="#CC0066"/>
<path d="M53.8553 13.714C53.7891 13.7186 53.7234 13.7 53.6693 13.6611C53.6466 13.6384 53.6291 13.6108 53.6183 13.5804C53.6074 13.5499 53.6034 13.5174 53.6065 13.4852V10.6284L53.6939 10.6052C53.7348 10.5948 53.7768 10.5899 53.819 10.5906C53.8848 10.5859 53.9502 10.6037 54.005 10.6412C54.0278 10.6634 54.0453 10.6906 54.0562 10.7207C54.067 10.7509 54.071 10.7832 54.0677 10.8151V13.6762C54.0426 13.6847 54.0116 13.6932 53.9747 13.7017C53.935 13.7106 53.8945 13.7149 53.8539 13.7145" fill="#CC0066"/>
<path d="M56.1638 12.7014V13.6765C56.1323 13.6868 56.1003 13.6953 56.0679 13.702C56.0268 13.7108 55.9849 13.7151 55.9429 13.7148C55.8738 13.7209 55.8049 13.7012 55.749 13.6595C55.7269 13.6351 55.7101 13.6063 55.6997 13.5748C55.6893 13.5434 55.6855 13.5101 55.6885 13.477V11.048C55.6858 11.0024 55.7008 10.9576 55.7304 10.9232C55.7619 10.8911 55.8005 10.8671 55.8429 10.8532C55.9495 10.8167 56.06 10.7932 56.1721 10.7833C56.2961 10.7707 56.4142 10.7644 56.5264 10.7644C56.8318 10.739 57.1353 10.8313 57.3768 11.0229C57.4697 11.1133 57.5423 11.223 57.5898 11.3444C57.6373 11.4658 57.6586 11.5962 57.6521 11.7267C57.6579 11.858 57.6364 11.9889 57.5889 12.1111C57.5415 12.2333 57.4692 12.3439 57.3768 12.4358C57.1461 12.6304 56.85 12.7262 56.551 12.7028L56.1638 12.7014ZM56.5264 12.2902C56.6956 12.3 56.8628 12.2498 56.9998 12.1484C57.0588 12.0966 57.1052 12.0315 57.1353 11.9583C57.1653 11.8852 57.1781 11.8059 57.1727 11.7267C57.1793 11.6492 57.1678 11.5712 57.1392 11.499C57.1106 11.4269 57.0657 11.3625 57.0081 11.3113C56.8692 11.215 56.7026 11.1687 56.5348 11.1799C56.4709 11.1799 56.4055 11.1827 56.3386 11.1884C56.2783 11.1932 56.2184 11.2017 56.1591 11.2139V12.2906L56.5264 12.2902Z" fill="#CC0066"/>
<path d="M58.9078 11.4131C59.1395 11.4 59.3688 11.4666 59.5587 11.6021C59.643 11.6758 59.7088 11.7688 59.7509 11.8734C59.7929 11.978 59.8099 12.0912 59.8005 12.2038V13.3019C59.8044 13.3614 59.7879 13.4205 59.754 13.4692C59.7178 13.5125 59.6757 13.5504 59.6289 13.5817C59.5369 13.6341 59.4388 13.6748 59.3369 13.7027C59.1997 13.7403 59.0578 13.7581 58.9157 13.7556C58.6808 13.7695 58.4477 13.7064 58.2508 13.5755C58.171 13.5145 58.1073 13.4344 58.0655 13.3422C58.0236 13.2501 58.0049 13.1489 58.0109 13.0476C58.0057 12.9597 58.0197 12.8718 58.0518 12.7901C58.084 12.7084 58.1335 12.6349 58.1968 12.5749C58.3505 12.4526 58.5376 12.3814 58.7325 12.3712L59.3453 12.3031V12.2015C59.3503 12.1447 59.3415 12.0876 59.3197 12.0351C59.2979 11.9826 59.2637 11.9363 59.2202 11.9004C59.1177 11.8322 58.9966 11.7991 58.8743 11.8058C58.7599 11.8054 58.6461 11.8225 58.5367 11.8564C58.4361 11.8871 58.3384 11.9268 58.2447 11.9751C58.2154 11.9474 58.1902 11.9156 58.1699 11.8805C58.1474 11.8423 58.1359 11.7985 58.1366 11.754C58.1374 11.7094 58.1503 11.666 58.174 11.6286C58.2048 11.5887 58.2449 11.5573 58.2908 11.5374C58.38 11.4933 58.4746 11.4615 58.5721 11.4428C58.6827 11.4211 58.7951 11.4105 58.9078 11.4112M58.9161 13.3694C59.0076 13.3713 59.0989 13.3598 59.1872 13.3354C59.244 13.3214 59.2977 13.2969 59.3458 13.2631V12.6656L58.8706 12.7167C58.7629 12.724 58.6584 12.7574 58.566 12.8141C58.5322 12.8399 58.5053 12.8741 58.4878 12.9133C58.4703 12.9526 58.4629 12.9956 58.4661 13.0386C58.4642 13.0847 58.4731 13.1305 58.4919 13.1725C58.5107 13.2144 58.539 13.2513 58.5744 13.2801C58.6754 13.3476 58.7957 13.3789 58.9161 13.369" fill="#CC0066"/>
<path d="M60.7893 13.1718C60.7143 13.0164 60.6233 12.7974 60.5164 12.5148C60.4094 12.2321 60.3073 11.9127 60.21 11.5567C60.2397 11.5211 60.2759 11.4916 60.3164 11.4697C60.3592 11.4458 60.4072 11.4334 60.4559 11.4338C60.5125 11.431 60.5683 11.4477 60.6145 11.481C60.6641 11.5266 60.699 11.5864 60.7145 11.6526C60.7951 11.9069 60.8778 12.1577 60.9628 12.4051C61.0477 12.6525 61.1414 12.9076 61.244 13.1704H61.2608C61.3051 13.0686 61.3502 12.9506 61.3961 12.8163C61.442 12.6821 61.4865 12.5393 61.5295 12.3881C61.5726 12.2368 61.6137 12.0835 61.6528 11.9282C61.6918 11.7728 61.7265 11.6246 61.7569 11.4834C61.7851 11.4692 61.8143 11.4572 61.8443 11.4475C61.8795 11.437 61.916 11.4321 61.9527 11.4328C62.0105 11.4306 62.0675 11.4471 62.1154 11.4801C62.1383 11.4982 62.1563 11.5218 62.1679 11.5488C62.1795 11.5758 62.1843 11.6053 62.1819 11.6347C62.1752 11.7608 62.1549 11.8859 62.1215 12.0076C62.0812 12.1743 62.0291 12.3594 61.9652 12.563C61.9014 12.7665 61.8284 12.9714 61.7462 13.1775C61.6641 13.3839 61.5813 13.5676 61.4979 13.7286C61.3873 13.9522 61.2545 14.1638 61.1018 14.3601C61.064 14.4185 61.0143 14.4681 60.956 14.5053C60.8978 14.5426 60.8324 14.5667 60.7642 14.5761C60.7285 14.5782 60.6927 14.5729 60.6591 14.5606C60.6254 14.5482 60.5946 14.5291 60.5684 14.5042C60.5197 14.4546 60.4873 14.3909 60.4755 14.3218C60.5299 14.272 60.5815 14.219 60.6298 14.163C60.6853 14.1 60.741 14.0322 60.7968 13.9597C60.8526 13.8872 60.906 13.813 60.9572 13.7371C61.0056 13.666 61.0481 13.5909 61.0841 13.5126C61.0298 13.4925 60.9807 13.4602 60.9404 13.418C60.8764 13.3439 60.825 13.2594 60.7884 13.168" fill="#CC0066"/>
<path d="M65.0758 11.9068C64.9918 11.8395 64.8864 11.8059 64.7796 11.8123C64.6997 11.8119 64.6207 11.828 64.5471 11.8596C64.472 11.892 64.4029 11.937 64.3425 11.9929C64.3482 12.0194 64.3524 12.0462 64.3551 12.0732C64.3579 12.1016 64.3593 12.1299 64.3593 12.1578V13.6756C64.3316 13.6866 64.3029 13.6951 64.2737 13.7011C64.2348 13.7098 64.195 13.7141 64.1551 13.7139C64.087 13.7193 64.0192 13.7005 63.9631 13.6609C63.9405 13.6382 63.9232 13.6106 63.9124 13.5802C63.9016 13.5497 63.8977 13.5173 63.9008 13.4851V12.2089C63.9056 12.1534 63.8985 12.0975 63.8798 12.0451C63.8611 11.9928 63.8313 11.9452 63.7925 11.9059C63.7085 11.8386 63.603 11.805 63.4963 11.8113C63.4169 11.8109 63.338 11.8253 63.2638 11.8539C63.1995 11.8784 63.1381 11.9101 63.0806 11.9484V13.6779C63.0529 13.689 63.0242 13.6975 62.995 13.7035C62.9545 13.7123 62.9132 13.7166 62.8718 13.7162C62.8057 13.7209 62.74 13.7022 62.6859 13.6633C62.6632 13.6406 62.6457 13.613 62.6348 13.5826C62.624 13.5522 62.62 13.5197 62.6231 13.4874V11.9361C62.62 11.8749 62.6337 11.8141 62.6626 11.7603C62.6975 11.7076 62.742 11.6622 62.7937 11.6265C63.009 11.4903 63.2571 11.417 63.5107 11.4148C63.6373 11.4125 63.7633 11.4334 63.8827 11.4762C63.9858 11.5136 64.0787 11.5754 64.1538 11.6563C64.2412 11.5845 64.3388 11.5266 64.4434 11.4847C64.569 11.4357 64.7028 11.412 64.8373 11.4148C64.9474 11.414 65.0571 11.43 65.1627 11.462C65.2573 11.49 65.3448 11.5384 65.4194 11.6038C65.4925 11.6707 65.5502 11.7532 65.5882 11.8454C65.6325 11.9564 65.6538 12.0754 65.6509 12.1952V13.6789C65.6204 13.689 65.5894 13.6975 65.558 13.7044C65.519 13.7131 65.4793 13.7173 65.4394 13.7172C65.3733 13.7218 65.3076 13.7031 65.2534 13.6642C65.2307 13.6415 65.2133 13.6139 65.2024 13.5835C65.1916 13.5531 65.1876 13.5206 65.1906 13.4884V12.2122C65.1957 12.1567 65.1885 12.1007 65.1698 12.0484C65.1511 11.996 65.1212 11.9485 65.0823 11.9092" fill="#CC0066"/>
<path d="M66.6136 12.8325C66.6403 12.9905 66.7253 13.1321 66.8512 13.2287C66.9869 13.3195 67.1473 13.3646 67.3096 13.3577C67.4243 13.3591 67.5383 13.3382 67.6453 13.2962C67.7326 13.2627 67.816 13.2193 67.8937 13.1667C67.9317 13.1869 67.9635 13.2173 67.9856 13.2547C68.0076 13.292 68.0191 13.3349 68.0187 13.3785C68.0182 13.4336 67.9975 13.4865 67.9606 13.5269C67.9161 13.5764 67.8622 13.6161 67.8021 13.6437C67.7278 13.6788 67.6498 13.7051 67.5696 13.7221C67.3197 13.7736 67.0608 13.7573 66.8191 13.6749C66.6847 13.6269 66.5623 13.5494 66.4606 13.448C66.357 13.3426 66.2776 13.2153 66.2281 13.075C66.1714 12.911 66.1438 12.7379 66.1467 12.5641C66.1436 12.3947 66.1697 12.2261 66.2239 12.0659C66.2698 11.9323 66.343 11.8102 66.4388 11.7076C66.53 11.6118 66.6401 11.5368 66.7619 11.4873C66.8872 11.4362 67.0212 11.4104 67.1562 11.4112C67.2883 11.4094 67.4194 11.4346 67.5416 11.4854C67.6537 11.5322 67.7554 11.6016 67.8403 11.6894C67.9253 11.7772 67.9918 11.8817 68.0359 11.9964C68.0841 12.1205 68.1081 12.2529 68.1066 12.3863C68.1093 12.4176 68.1059 12.449 68.0966 12.4789C68.0872 12.5087 68.0721 12.5364 68.0522 12.5603C68.0095 12.6002 67.9554 12.6254 67.8978 12.6321L66.6136 12.8325ZM67.1557 11.7927C67.0802 11.7909 67.0052 11.8057 66.9358 11.836C66.8664 11.8664 66.8042 11.9115 66.7535 11.9685C66.6386 12.1076 66.5785 12.2851 66.5847 12.4667L67.6686 12.3013C67.661 12.1684 67.6105 12.0418 67.5249 11.9411C67.478 11.8902 67.4206 11.8506 67.3569 11.8249C67.2931 11.7993 67.2242 11.7882 67.1557 11.7927Z" fill="#CC0066"/>
<path d="M69.8495 11.9192C69.7567 11.8429 69.6394 11.8043 69.5203 11.8109C69.4268 11.8095 69.3338 11.8238 69.245 11.8535C69.1728 11.8784 69.1031 11.91 69.0367 11.948V13.6775C69.0089 13.6886 68.9803 13.6971 68.9511 13.703C68.9106 13.7119 68.8693 13.7162 68.8279 13.7158C68.7618 13.7205 68.6961 13.7018 68.6419 13.6629C68.6192 13.6402 68.6018 13.6126 68.5909 13.5822C68.5801 13.5517 68.576 13.5192 68.5791 13.487V11.9357C68.5762 11.8745 68.5899 11.8137 68.6187 11.7599C68.6537 11.7071 68.6984 11.6617 68.7503 11.6261C68.8528 11.5675 68.9611 11.5199 69.0735 11.4843C69.2183 11.4372 69.3696 11.4144 69.5217 11.4167C69.7616 11.4028 69.9986 11.4756 70.1907 11.6223C70.2753 11.7001 70.3412 11.7965 70.3836 11.9041C70.4259 12.0118 70.4434 12.1278 70.4349 12.2434V13.6803C70.4056 13.6909 70.3756 13.6994 70.3451 13.7059C70.3048 13.7147 70.2636 13.719 70.2224 13.7186C70.1562 13.7233 70.0905 13.7046 70.0364 13.6657C70.0137 13.643 69.9964 13.6154 69.9856 13.5849C69.9748 13.5545 69.9709 13.522 69.974 13.4899V12.2609C69.9793 12.1992 69.9711 12.137 69.9503 12.0788C69.9294 12.0206 69.8963 11.9677 69.8532 11.9239" fill="#CC0066"/>
<path d="M71.5982 13.2801C71.6755 13.3309 71.7667 13.3554 71.8586 13.35C71.9123 13.3496 71.9656 13.3418 72.0171 13.3269C72.0677 13.3134 72.1167 13.2942 72.1631 13.2697C72.1834 13.2964 72.2017 13.3247 72.2176 13.3543C72.2449 13.4094 72.2504 13.473 72.2331 13.5321C72.2158 13.5912 72.177 13.6414 72.1245 13.6724C72.0171 13.733 71.8948 13.7609 71.7721 13.7528C71.5837 13.7625 71.3976 13.7065 71.2448 13.5939C71.1743 13.5289 71.1196 13.4481 71.0852 13.3578C71.0508 13.2675 71.0376 13.1704 71.0467 13.074V10.8742C71.0771 10.8634 71.1082 10.8549 71.1398 10.8487C71.1809 10.84 71.2228 10.8357 71.2648 10.8359C71.33 10.8305 71.395 10.8486 71.4485 10.8869C71.4701 10.9099 71.4865 10.9373 71.4966 10.9674C71.5067 10.9974 71.5103 11.0293 71.5071 11.0609V11.5269H72.1911C72.2047 11.5526 72.2159 11.5795 72.2245 11.6073C72.2359 11.6429 72.2416 11.68 72.2413 11.7174C72.2413 11.8504 72.187 11.9167 72.0785 11.9164H71.5071V13.04C71.5023 13.0846 71.5083 13.1297 71.5245 13.1714C71.5407 13.2132 71.5667 13.2503 71.6001 13.2796" fill="#CC0066"/>
<path d="M74.2498 13.0784C74.254 13.1724 74.2363 13.2661 74.1983 13.3519C74.1603 13.4377 74.1029 13.5132 74.0309 13.5723C73.8453 13.7046 73.6208 13.7681 73.3948 13.7524C73.2871 13.7532 73.1797 13.7432 73.074 13.7226C72.9889 13.7069 72.9061 13.6799 72.828 13.6423C72.7674 13.6131 72.7135 13.5712 72.6699 13.5194C72.6325 13.4759 72.6117 13.4202 72.6113 13.3625C72.6112 13.3174 72.6219 13.2729 72.6425 13.233C72.6636 13.1915 72.6958 13.1569 72.7355 13.1332C72.8233 13.1938 72.9167 13.2455 73.0144 13.2878C73.1307 13.3365 73.2556 13.3603 73.3813 13.3577C73.4876 13.3648 73.5935 13.3398 73.6858 13.2859C73.7193 13.2634 73.7466 13.2325 73.7648 13.1961C73.7831 13.1597 73.7917 13.1192 73.79 13.0784C73.7918 13.0436 73.7864 13.0088 73.7743 12.9763C73.7621 12.9437 73.7434 12.9141 73.7193 12.8893C73.6585 12.8355 73.5852 12.7983 73.5064 12.7811L73.206 12.6965C73.0429 12.6588 72.8921 12.5792 72.768 12.4653C72.7196 12.4115 72.6823 12.3483 72.6583 12.2795C72.6344 12.2108 72.6243 12.1378 72.6285 12.065C72.6281 11.9764 72.6466 11.8888 72.6829 11.8083C72.7189 11.7281 72.7724 11.6571 72.8392 11.6008C72.9152 11.5387 73.0024 11.492 73.0958 11.4633C73.2092 11.4277 73.3273 11.4105 73.4459 11.4122C73.5439 11.4112 73.6418 11.4204 73.7379 11.4396C73.8148 11.455 73.8897 11.4793 73.9611 11.512C74.0175 11.5368 74.0674 11.5745 74.1071 11.6221C74.1403 11.6617 74.1587 11.7119 74.1592 11.7639C74.1602 11.8083 74.1494 11.8522 74.128 11.891C74.1088 11.9259 74.0824 11.9561 74.0508 11.9799C73.9747 11.936 73.8953 11.8984 73.8133 11.8674C73.7069 11.8258 73.5938 11.805 73.4799 11.806C73.3782 11.8001 73.277 11.8235 73.1879 11.8736C73.1602 11.8912 73.1366 11.9149 73.1189 11.9428C73.1011 11.9708 73.0896 12.0023 73.0852 12.0353C73.0808 12.0682 73.0835 12.1018 73.0932 12.1335C73.1029 12.1653 73.1194 12.1945 73.1414 12.2191C73.1997 12.2701 73.2703 12.3045 73.346 12.3188L73.6045 12.3869C73.7862 12.4299 73.9546 12.5181 74.0946 12.6435C74.1482 12.7014 74.1897 12.7698 74.2165 12.8444C74.2434 12.9191 74.2551 12.9985 74.2508 13.0779" fill="#CC0066"/>
<path d="M10.6064 6.41211V14.6872C10.6064 15.2289 10.4429 15.7576 10.138 16.2018C9.83309 16.6461 9.40144 16.9846 8.90131 17.1715L1.47763 19.9471C1.36079 19.9909 1.23527 20.0053 1.11175 19.9892C0.988237 19.973 0.870388 19.9268 0.768241 19.8544C0.666094 19.782 0.582675 19.6855 0.525088 19.5733C0.467501 19.461 0.437452 19.3363 0.4375 19.2097V12.1882C0.437738 11.7659 0.565171 11.3538 0.802659 11.0073C1.04015 10.6609 1.3763 10.3967 1.76591 10.2502L8.62745 7.67036C9.71036 7.22463 10.1335 6.9519 10.6068 6.41447" fill="white"/>
<path d="M17.133 8.50581C17.1252 8.81349 17.0028 9.10669 16.7904 9.32608C16.578 9.54546 16.2916 9.67465 15.9891 9.68749H14.4334C14.3436 9.68965 14.2568 9.65551 14.1918 9.59258C14.1269 9.52965 14.0891 9.44308 14.087 9.35189V5.90706C14.0863 5.86136 14.0946 5.816 14.1115 5.77365C14.1284 5.73129 14.1535 5.69282 14.1852 5.6605C14.217 5.62819 14.2549 5.60269 14.2965 5.58553C14.3382 5.56837 14.3828 5.55989 14.4278 5.56059H15.9292C16.1537 5.57266 16.37 5.6507 16.5518 5.78524C16.7337 5.91977 16.8732 6.10504 16.9535 6.31857C17.0338 6.5321 17.0515 6.76474 17.0044 6.98827C16.9572 7.21181 16.8473 7.41664 16.688 7.57795C16.8253 7.68935 16.9365 7.8304 17.0135 7.99088C17.0906 8.15136 17.131 8.32725 17.133 8.50581ZM14.7472 7.27686L15.8524 7.26552C15.9867 7.26103 16.1142 7.20481 16.2092 7.10826C16.3042 7.01171 16.3595 6.88205 16.3639 6.74558C16.3631 6.61431 16.3122 6.48849 16.2219 6.39466C16.1316 6.30083 16.0089 6.24633 15.8799 6.24265H14.7472V7.27686ZM16.4518 8.50581C16.4425 8.36671 16.3829 8.23604 16.2844 8.13904C16.1859 8.04204 16.0555 7.98562 15.9185 7.98067H14.7746V9.01441H15.951C16.0824 9.01015 16.2072 8.9552 16.3001 8.86072C16.3931 8.76625 16.4471 8.63935 16.4513 8.50581" fill="white"/>
<path d="M19.8392 7.98063H19.3389V9.35138C19.337 9.44161 19.3001 9.52741 19.2363 9.59015C19.1725 9.6529 19.0869 9.68752 18.9981 9.6865C18.9107 9.68626 18.8269 9.65088 18.7651 9.5881C18.7033 9.52532 18.6683 9.44023 18.668 9.35138V5.89567C18.6708 5.80572 18.7079 5.72042 18.7715 5.65785C18.8352 5.59528 18.9203 5.56038 19.0088 5.56055H20.2126C20.5221 5.56742 20.8172 5.69474 21.0372 5.91627C21.2571 6.13779 21.385 6.43664 21.3945 6.75121C21.3888 7.00491 21.3074 7.25085 21.1611 7.45646C21.0148 7.66208 20.8105 7.81767 20.5753 7.90264L21.3397 9.17129C21.3842 9.24942 21.3971 9.34211 21.3756 9.42973C21.3541 9.51735 21.2998 9.593 21.2244 9.64066C21.1721 9.66986 21.1134 9.6853 21.0537 9.68556C20.9964 9.68551 20.9401 9.67059 20.89 9.64222C20.84 9.61385 20.7979 9.57296 20.7678 9.52343L19.8392 7.98063ZM20.7301 6.75641C20.7238 6.61624 20.664 6.48408 20.5634 6.38804C20.4627 6.292 20.3292 6.23966 20.1912 6.24214H19.3389V7.29856H20.1912C20.3332 7.2987 20.4695 7.2418 20.5704 7.14026C20.6714 7.03872 20.7288 6.90076 20.7301 6.75641Z" fill="white"/>
<path d="M25.2549 9.68573C24.7187 9.67987 24.2066 9.45845 23.8306 9.06988C23.4545 8.68131 23.2451 8.1572 23.2481 7.61212C23.255 7.21081 23.3784 6.82053 23.6028 6.49024C23.8271 6.15995 24.1424 5.90437 24.5091 5.75556C24.8758 5.60676 25.2776 5.57136 25.664 5.6538C26.0504 5.73624 26.4042 5.93286 26.6811 6.21898C26.958 6.5051 27.1457 6.86798 27.2204 7.26209C27.2952 7.6562 27.2538 8.06398 27.1015 8.43427C26.9492 8.80456 26.6926 9.12087 26.3641 9.34351C26.0356 9.56615 25.6497 9.6852 25.2549 9.68573ZM23.8967 7.61212C23.8972 7.88577 23.9775 8.15314 24.1274 8.3804C24.2773 8.60767 24.4902 8.78463 24.7391 8.8889C24.988 8.99317 25.2617 9.02006 25.5256 8.96618C25.7896 8.9123 26.0318 8.78007 26.2218 8.5862C26.4118 8.39234 26.541 8.14555 26.593 7.87705C26.645 7.60856 26.6175 7.33041 26.514 7.0778C26.4105 6.82518 26.2356 6.60944 26.0115 6.45787C25.7874 6.30629 25.5241 6.22568 25.2549 6.22624C24.8949 6.22983 24.5507 6.37716 24.2966 6.63644C24.0425 6.89571 23.8989 7.24614 23.8967 7.61212Z" fill="white"/>
<path d="M32.0062 9.65832C31.9637 9.67517 31.9182 9.68317 31.8726 9.68184C31.8269 9.68051 31.782 9.66987 31.7404 9.65057C31.6989 9.63126 31.6616 9.60368 31.6307 9.56945C31.5999 9.53522 31.5761 9.49504 31.5608 9.45129L30.6309 6.89886L29.6963 9.45129C29.682 9.49515 29.6591 9.53558 29.6288 9.57006C29.5986 9.60455 29.5617 9.63235 29.5205 9.65176C29.4793 9.67117 29.4346 9.68176 29.3891 9.68289C29.3437 9.68402 29.2985 9.67566 29.2564 9.65832C29.2131 9.64321 29.1732 9.61929 29.1392 9.58801C29.1053 9.55674 29.0779 9.51876 29.0589 9.47639C29.0398 9.43402 29.0295 9.38816 29.0284 9.34158C29.0274 9.29501 29.0356 9.24871 29.0528 9.2055L30.2952 5.7791C30.3213 5.71063 30.3674 5.65196 30.4274 5.61097C30.4873 5.56998 30.5582 5.54865 30.6304 5.54985C30.7023 5.5502 30.7725 5.57215 30.8321 5.61294C30.8918 5.65373 30.9382 5.71154 30.9656 5.7791L32.208 9.2055C32.2252 9.24868 32.2335 9.29496 32.2324 9.3415C32.2314 9.38805 32.2211 9.4339 32.2021 9.47626C32.1831 9.51863 32.1558 9.55661 32.1219 9.58791C32.088 9.61921 32.0481 9.64317 32.0048 9.65832" fill="white"/>
<path d="M33.5957 9.35053V5.91231C33.5978 5.82411 33.6332 5.74012 33.6946 5.67773C33.756 5.61535 33.8386 5.57934 33.9254 5.57719H34.7446C35.0397 5.57542 35.3319 5.63628 35.6025 5.75586C35.8626 5.87185 36.095 6.04337 36.2841 6.25878C36.4728 6.47658 36.6136 6.73282 36.6971 7.01037C36.7806 7.28793 36.8048 7.58039 36.7682 7.86823C36.7075 8.36805 36.4697 8.82825 36.0993 9.16263C35.7288 9.49701 35.2512 9.68263 34.7558 9.68471H33.9258C33.839 9.68255 33.7564 9.64655 33.6951 9.58416C33.6337 9.52178 33.5983 9.43778 33.5962 9.34958M36.1033 7.78976C36.1323 7.59673 36.1193 7.39956 36.0652 7.21219C36.011 7.02482 35.917 6.85184 35.7899 6.70545C35.6584 6.55682 35.4971 6.43854 35.3169 6.35856C35.1367 6.27857 34.9417 6.23875 34.7451 6.24177H34.2559V9.01399H34.7563C35.0898 9.01415 35.4116 8.8894 35.6604 8.66356C35.9091 8.43773 36.0673 8.12665 36.1047 7.78976" fill="white"/>
<path d="M40.0328 9.10982C39.8683 9.36251 39.6147 9.54154 39.3243 9.61011C39.034 9.67868 38.7287 9.63158 38.4715 9.47851C38.3926 9.42987 38.3343 9.35316 38.3079 9.26328C38.2815 9.1734 38.2889 9.07676 38.3287 8.99213C38.3884 8.922 38.4719 8.87731 38.5626 8.86697C38.6532 8.85664 38.7444 8.88141 38.8179 8.93635C38.9318 8.99925 39.065 9.01579 39.1906 8.98262C39.3161 8.94945 39.4245 8.86905 39.4939 8.75768C39.5323 8.69973 39.559 8.63465 39.5726 8.56619C39.5862 8.49772 39.5863 8.4272 39.5731 8.35867C39.5598 8.29014 39.5334 8.22494 39.4953 8.1668C39.4572 8.10866 39.4083 8.05872 39.3512 8.01984C39.082 7.84637 39.0722 7.84117 38.8123 7.6677C38.555 7.49794 38.3745 7.23122 38.3105 6.92621C38.2466 6.6212 38.3045 6.30287 38.4715 6.04124C38.6377 5.79063 38.8912 5.61327 39.1808 5.54479C39.4704 5.47631 39.7748 5.52178 40.0328 5.67208C40.1091 5.7174 40.1654 5.7908 40.19 5.8771C40.2145 5.96341 40.2056 6.05601 40.1649 6.13577C40.1103 6.20886 40.0302 6.25779 39.9411 6.2724C39.852 6.28701 39.7608 6.26618 39.6864 6.21423C39.5675 6.15266 39.4298 6.13979 39.3018 6.17826C39.1738 6.21674 39.0652 6.30362 38.9983 6.42105C38.9314 6.53847 38.9113 6.6775 38.9422 6.80952C38.9731 6.94153 39.0525 7.05649 39.1643 7.13074C39.3037 7.22008 39.3038 7.22008 39.6976 7.48288C39.8248 7.56722 39.9343 7.67621 40.02 7.80363C40.1057 7.93105 40.1658 8.07439 40.197 8.22545C40.2281 8.37652 40.2296 8.53234 40.2014 8.68401C40.1733 8.83568 40.116 8.98069 40.0328 9.10982Z" fill="white"/>
<path d="M43.7448 7.97109C43.4373 7.99329 43.1288 7.99708 42.8209 7.98243V9.35318C42.8189 9.44341 42.782 9.52921 42.7182 9.59196C42.6544 9.6547 42.5688 9.68932 42.4801 9.68831C42.3928 9.68793 42.3091 9.65251 42.2474 9.58974C42.1856 9.52697 42.1508 9.44195 42.1504 9.35318V5.90693C42.1499 5.86276 42.158 5.81893 42.1743 5.77801C42.1907 5.73709 42.215 5.69992 42.2457 5.66869C42.2764 5.63745 42.313 5.61279 42.3532 5.59615C42.3935 5.57951 42.4366 5.57123 42.4801 5.57181H43.7118C44.0187 5.58153 44.3101 5.71131 44.5252 5.93411C44.7403 6.15691 44.8625 6.45552 44.8663 6.76766C44.8613 7.07432 44.7433 7.36791 44.5356 7.59039C44.328 7.81287 44.0458 7.94805 43.7448 7.9692M43.6681 6.24253H42.8214V7.29895H43.6681C43.8098 7.2981 43.9455 7.24089 44.0462 7.13955C44.147 7.03822 44.2047 6.90083 44.207 6.75679C44.1998 6.61695 44.1397 6.48534 44.0392 6.3895C43.9388 6.29366 43.8058 6.24099 43.6681 6.24253Z" fill="white"/>
<path d="M46.625 9.35097V5.89668C46.6254 5.80791 46.6602 5.72289 46.722 5.66012C46.7837 5.59735 46.8673 5.56192 46.9547 5.56155H48.9354C49.0242 5.56041 49.1099 5.59499 49.1737 5.65776C49.2376 5.72054 49.2744 5.80641 49.2763 5.89668C49.2758 5.98841 49.2397 6.07625 49.1759 6.14112C49.1121 6.20599 49.0257 6.24265 48.9354 6.24314H47.2969V7.29957H48.5342C48.5776 7.299 48.6207 7.30727 48.661 7.32391C48.7012 7.34055 48.7378 7.36521 48.7685 7.39645C48.7992 7.42768 48.8235 7.46486 48.8399 7.50577C48.8562 7.54669 48.8644 7.59052 48.8638 7.63469C48.8644 7.6789 48.8564 7.72279 48.84 7.76376C48.8237 7.80473 48.7994 7.84196 48.7687 7.87324C48.738 7.90453 48.7014 7.92923 48.6611 7.9459C48.6208 7.96257 48.5777 7.97086 48.5342 7.97029H47.2969V9.00402H48.9354C49.0257 9.00452 49.1121 9.04118 49.1759 9.10605C49.2397 9.17092 49.2758 9.25875 49.2763 9.35049C49.2743 9.44072 49.2374 9.52652 49.1736 9.58927C49.1098 9.65201 49.0242 9.68664 48.9354 9.68562H46.9561C46.8688 9.68525 46.7851 9.64982 46.7234 9.58705C46.6616 9.52428 46.6268 9.43926 46.6264 9.35049" fill="white"/>
<path d="M54.451 9.23901C54.101 9.52209 53.6666 9.67576 53.2193 9.67481C52.6812 9.67481 52.1652 9.45752 51.7847 9.07072C51.4042 8.68393 51.1904 8.15932 51.1904 7.61231C51.1904 7.0653 51.4042 6.54069 51.7847 6.1539C52.1652 5.7671 52.6812 5.5498 53.2193 5.5498C53.5849 5.55031 53.943 5.65494 54.253 5.85184C54.2919 5.87243 54.3264 5.90081 54.3543 5.93529C54.3821 5.96976 54.4029 6.00961 54.4152 6.05245C54.4275 6.09528 54.4312 6.14021 54.426 6.18453C54.4208 6.22885 54.4069 6.27164 54.385 6.31033C54.3627 6.34865 54.3328 6.38188 54.2973 6.40793C54.2618 6.43399 54.2213 6.45231 54.1785 6.46176C54.1357 6.47121 54.0914 6.47158 54.0485 6.46285C54.0055 6.45412 53.9648 6.43647 53.9289 6.41101C53.7144 6.28149 53.4692 6.21384 53.2198 6.21533C53.0415 6.21533 52.8649 6.25105 52.7002 6.32044C52.5355 6.38984 52.3858 6.49156 52.2597 6.61978C52.1337 6.748 52.0337 6.90021 51.9656 7.06771C51.8974 7.23522 51.8624 7.41474 51.8625 7.596C51.8564 7.85562 51.9224 8.11173 52.053 8.33493C52.1836 8.55813 52.3734 8.73936 52.6008 8.85782C52.8281 8.97629 53.0837 9.02717 53.3382 9.00463C53.5927 8.9821 53.8358 8.88705 54.0395 8.73041C54.0715 8.70258 54.1086 8.68149 54.1487 8.66838C54.1887 8.65526 54.2309 8.65039 54.2729 8.65405C54.3148 8.6577 54.3556 8.6698 54.3929 8.68965C54.4302 8.70949 54.4632 8.73669 54.4901 8.76965C54.546 8.83716 54.5734 8.92446 54.5662 9.01243C54.5589 9.1004 54.5177 9.18187 54.4515 9.23901" fill="white"/>
<path d="M59.0283 5.88984C59.0283 5.93365 59.0197 5.97703 59.0031 6.01745C58.9865 6.05787 58.9622 6.09454 58.9315 6.12532C58.9008 6.1561 58.8645 6.18038 58.8245 6.19676C58.7845 6.21313 58.7417 6.22127 58.6986 6.22071H57.891V9.35074C57.891 9.43894 57.8565 9.52352 57.7952 9.58588C57.7338 9.64824 57.6506 9.68327 57.5639 9.68327C57.4771 9.68327 57.3939 9.64824 57.3326 9.58588C57.2712 9.52352 57.2368 9.43894 57.2368 9.35074V6.21976H56.4287C56.3419 6.21976 56.2587 6.18473 56.1974 6.12237C56.136 6.06001 56.1016 5.97543 56.1016 5.88724C56.1016 5.79905 56.136 5.71447 56.1974 5.65211C56.2587 5.58975 56.3419 5.55472 56.4287 5.55472H58.6991C58.7425 5.55414 58.7857 5.56242 58.8259 5.57906C58.8662 5.5957 58.9027 5.62036 58.9335 5.6516C58.9642 5.68283 58.9885 5.72 59.0048 5.76092C59.0212 5.80184 59.0289 5.84567 59.0283 5.88984Z" fill="white"/>
<path d="M61.8509 7.98063H61.3506V9.35138C61.3487 9.44161 61.3118 9.52741 61.248 9.59015C61.1842 9.6529 61.0986 9.68752 61.0098 9.6865C60.9224 9.68626 60.8386 9.65088 60.7768 9.5881C60.715 9.52532 60.6801 9.44023 60.6797 9.35138V5.89567C60.6825 5.80572 60.7196 5.72042 60.7832 5.65785C60.8469 5.59528 60.932 5.56038 61.0205 5.56055H62.2248C62.5343 5.56742 62.8294 5.69474 63.0493 5.91627C63.2692 6.13779 63.3971 6.43664 63.4067 6.75121C63.401 7.00491 63.3196 7.25085 63.1733 7.45646C63.027 7.66208 62.8227 7.81767 62.5875 7.90264L63.3518 9.17129C63.3964 9.24947 63.4091 9.34221 63.3875 9.42983C63.3659 9.51746 63.3116 9.59308 63.236 9.64066C63.1838 9.66988 63.1251 9.68532 63.0654 9.68556C63.0081 9.68551 62.9518 9.67059 62.9017 9.64222C62.8517 9.61385 62.8096 9.57296 62.7795 9.52343L61.8509 7.98063ZM62.7418 6.75641C62.7355 6.61624 62.6757 6.48408 62.5751 6.38804C62.4745 6.292 62.3409 6.23966 62.2029 6.24214H61.3506V7.29856H62.2029C62.3449 7.2987 62.4812 7.2418 62.5821 7.14026C62.6831 7.03872 62.7404 6.90076 62.7418 6.75641Z" fill="white"/>
<path d="M68.2278 5.89035V8.17619C68.2313 8.37661 68.1955 8.57572 68.1225 8.76191C68.0495 8.94809 67.9407 9.11763 67.8025 9.26061C67.6643 9.40359 67.4995 9.51716 67.3177 9.59469C67.1358 9.67221 66.9406 9.71214 66.7434 9.71214C66.5463 9.71214 66.351 9.67221 66.1692 9.59469C65.9874 9.51716 65.8226 9.40359 65.6844 9.26061C65.5462 9.11763 65.4374 8.94809 65.3644 8.76191C65.2913 8.57572 65.2555 8.37661 65.259 8.17619V5.89035C65.259 5.7999 65.2944 5.71316 65.3573 5.6492C65.4202 5.58525 65.5055 5.54932 65.5945 5.54932C65.6834 5.54932 65.7688 5.58525 65.8317 5.6492C65.8946 5.71316 65.93 5.7999 65.93 5.89035V8.17619C65.93 8.39708 66.0163 8.60891 66.1699 8.7651C66.3236 8.92129 66.5319 9.00904 66.7492 9.00904C66.9665 9.00904 67.1749 8.92129 67.3286 8.7651C67.4822 8.60891 67.5685 8.39708 67.5685 8.17619V5.89035C67.568 5.84618 67.5761 5.80235 67.5925 5.76143C67.6089 5.72051 67.6331 5.68334 67.6638 5.65211C67.6946 5.62087 67.7311 5.59621 67.7713 5.57957C67.8116 5.56293 67.8547 5.55466 67.8982 5.55523C67.9416 5.55466 67.9847 5.56293 68.025 5.57957C68.0652 5.59621 68.1018 5.62087 68.1325 5.65211C68.1633 5.68334 68.1875 5.72051 68.2039 5.76143C68.2203 5.80235 68.2284 5.84618 68.2278 5.89035Z" fill="white"/>
<path d="M74.1488 9.27827C74.1606 9.3194 74.1641 9.36256 74.1591 9.40512C74.1541 9.44768 74.1407 9.48877 74.1196 9.52589C74.0986 9.56301 74.0702 9.5954 74.0365 9.62108C74.0027 9.64677 73.9642 9.66522 73.9233 9.67532H73.9065C73.9009 9.67532 73.9009 9.67532 73.8958 9.68666H73.8572C73.7803 9.686 73.7059 9.65844 73.6467 9.60859C73.5874 9.55875 73.5468 9.48967 73.5317 9.41298L73.0807 7.17725L72.2507 9.44087C72.2287 9.50919 72.186 9.56867 72.1287 9.61085C72.0714 9.65302 72.0025 9.67573 71.9318 9.67573C71.861 9.67573 71.7921 9.65302 71.7349 9.61085C71.6776 9.56867 71.6349 9.50919 71.6128 9.44087L70.8814 7.2836L70.4964 9.41298C70.4843 9.49154 70.4446 9.563 70.3849 9.6143C70.3251 9.6656 70.2491 9.6933 70.1709 9.69234C70.1542 9.69234 70.1323 9.68666 70.116 9.68666C70.0719 9.68016 70.0298 9.66371 69.9927 9.63852C69.9556 9.61333 69.9245 9.58004 69.9017 9.54108C69.8752 9.50682 69.8565 9.46699 69.847 9.42448C69.8375 9.38196 69.8375 9.33783 69.8468 9.29529L70.4132 5.83013C70.4273 5.7547 70.4658 5.68623 70.5226 5.63561C70.5793 5.58499 70.6512 5.55513 70.7266 5.55078H70.754C70.825 5.55074 70.8941 5.57361 70.9514 5.61608C71.0087 5.65856 71.0513 5.71845 71.073 5.78712L71.9415 8.27432L72.8487 5.77577C72.8699 5.70892 72.912 5.65093 72.9685 5.61058C73.0251 5.57023 73.093 5.54974 73.1621 5.5522H73.1788C73.2539 5.5527 73.3263 5.58061 73.3828 5.63085C73.4393 5.68109 73.4761 5.75031 73.4866 5.82588L74.1488 9.27827Z" fill="white"/>
</g>
</svg>
