<svg width="75" height="21" viewBox="0 0 75 21" fill="none" xmlns="http://www.w3.org/2000/svg">
<mask id="mask0_2057_96678" style="mask-type:luminance" maskUnits="userSpaceOnUse" x="0" y="0" width="75" height="21">
<path d="M74.9273 0.796875H0.926758V20.5792H74.9273V0.796875Z" fill="white"/>
</mask>
<g mask="url(#mask0_2057_96678)">
<path d="M8.96559 3.79104L2.21053 0.87276C2.07023 0.812054 1.91732 0.787649 1.76546 0.801728C1.61361 0.815808 1.46756 0.867932 1.34038 0.953439C1.21319 1.03895 1.10884 1.15517 1.03666 1.29171C0.964482 1.42825 0.926721 1.58085 0.926758 1.73586V9.24662C0.926753 9.40631 0.964814 9.56363 1.03768 9.7051C1.11055 9.84658 1.21605 9.968 1.34517 10.059C1.47428 10.1499 1.62315 10.2077 1.77904 10.2275C1.93493 10.2472 2.0932 10.2282 2.24029 10.1721L6.72212 8.46387L1.86646 6.40728C1.79693 6.37459 1.74257 6.31579 1.71477 6.24323C1.68698 6.17066 1.68793 6.08998 1.71741 6.0181C1.7469 5.94623 1.80262 5.88877 1.8729 5.85778C1.94317 5.82678 2.02252 5.82467 2.09429 5.85189L7.53442 8.15475L9.0637 7.57147C11.6805 6.64881 11.8168 4.80539 8.96606 3.79009M9.60585 6.17992C9.57563 6.2534 9.51801 6.31171 9.44559 6.3421C9.37318 6.37248 9.29187 6.37247 9.21946 6.34205L1.7558 3.18224C1.71992 3.16706 1.68734 3.14485 1.65991 3.11687C1.63248 3.08889 1.61074 3.0557 1.59593 3.01918C1.56602 2.94543 1.56616 2.86262 1.59631 2.78897C1.62646 2.71532 1.68416 2.65687 1.75671 2.62646C1.82926 2.59606 1.91072 2.5962 1.98317 2.62685L9.44637 5.7876C9.48231 5.80276 9.51496 5.82498 9.54244 5.85299C9.56992 5.881 9.59169 5.91424 9.6065 5.95082C9.62132 5.9874 9.62889 6.02659 9.62878 6.06615C9.62867 6.1057 9.62088 6.14485 9.60585 6.18134" fill="#CC0066"/>
<path d="M45.1892 12.813C45.1936 13.0392 45.1589 13.2645 45.0869 13.4785C45.0261 13.656 44.9271 13.8175 44.7972 13.9512C44.6702 14.0782 44.5163 14.174 44.3472 14.231C44.1588 14.2939 43.9614 14.3247 43.7631 14.3223C43.6701 14.3223 43.5603 14.318 43.4335 14.3095C43.314 14.3028 43.1961 14.2786 43.0834 14.2376C43.0255 14.2261 42.9735 14.1943 42.9362 14.1479C42.8989 14.1015 42.8788 14.0433 42.8792 13.9834V11.6261C42.8765 11.5806 42.8915 11.5357 42.9211 11.5013C42.9526 11.4692 42.9911 11.4452 43.0336 11.4314C43.1442 11.3964 43.2581 11.3736 43.3735 11.3633C43.4944 11.352 43.6119 11.3463 43.726 11.3463C43.928 11.3441 44.1291 11.374 44.322 11.4352C44.4953 11.4894 44.6543 11.5828 44.787 11.7084C44.9187 11.8373 45.0205 11.9944 45.085 12.1683C45.1598 12.3744 45.196 12.5929 45.1915 12.8125M44.7038 12.8168C44.7074 12.6541 44.6827 12.492 44.6308 12.338C44.588 12.2148 44.518 12.1032 44.4262 12.0118C44.3381 11.9266 44.2327 11.8621 44.1174 11.8228C43.9944 11.781 43.8654 11.7603 43.7357 11.7613C43.607 11.7591 43.4785 11.7705 43.3521 11.7954V13.8723C43.4159 13.8873 43.4807 13.8973 43.546 13.9021C43.617 13.9077 43.69 13.9106 43.765 13.9106C43.894 13.9193 44.0233 13.8992 44.1438 13.8515C44.2644 13.8039 44.3731 13.73 44.4625 13.635C44.6382 13.4013 44.7236 13.1102 44.7024 12.8168" fill="#CC0066"/>
<path d="M45.6808 11.3847C45.6797 11.347 45.686 11.3094 45.6993 11.2741C45.7125 11.2388 45.7325 11.2066 45.758 11.1791C45.784 11.1516 45.8155 11.13 45.8504 11.1157C45.8852 11.1015 45.9227 11.0949 45.9602 11.0964C45.9971 11.0952 46.0339 11.1019 46.068 11.1162C46.1021 11.1304 46.1329 11.1519 46.1583 11.1791C46.208 11.2357 46.2355 11.3089 46.2355 11.3847C46.2355 11.4606 46.208 11.5338 46.1583 11.5903C46.1329 11.6176 46.1021 11.639 46.068 11.6533C46.0339 11.6675 45.9971 11.6743 45.9602 11.6731C45.9227 11.6746 45.8852 11.668 45.8504 11.6537C45.8155 11.6395 45.784 11.6179 45.758 11.5903C45.7324 11.5629 45.7125 11.5306 45.6992 11.4954C45.686 11.4601 45.6797 11.4225 45.6808 11.3847ZM46.1895 14.2586C46.1617 14.2696 46.1331 14.2781 46.1039 14.2841C46.0636 14.2929 46.0224 14.2972 45.9812 14.2969C45.9138 14.3025 45.8466 14.2838 45.7915 14.2439C45.7694 14.2208 45.7526 14.1931 45.7422 14.1628C45.7317 14.1324 45.7279 14.1001 45.731 14.0681V12.0739L45.8184 12.0507C45.8593 12.0404 45.9014 12.0354 45.9435 12.0361C46.0097 12.0306 46.0757 12.0494 46.1295 12.089C46.1511 12.1132 46.1674 12.1417 46.1774 12.1728C46.1874 12.2038 46.1909 12.2366 46.1876 12.2691L46.1895 14.2586Z" fill="#CC0066"/>
<path d="M48.1734 14.0595C48.11 14.1003 48.0413 14.1321 47.9693 14.154C47.8758 14.1813 47.7788 14.1942 47.6815 14.1923C47.5562 14.1931 47.4317 14.173 47.3128 14.1327C47.1981 14.0935 47.0935 14.029 47.0064 13.9437C46.9126 13.8498 46.8413 13.7353 46.7981 13.609C46.7438 13.4445 46.7185 13.2715 46.7232 13.098C46.7201 12.9358 46.7455 12.7743 46.7981 12.6211C46.8433 12.4917 46.9168 12.3744 47.0129 12.278C47.107 12.1854 47.2192 12.114 47.3421 12.0681C47.4791 12.0183 47.6239 11.994 47.7694 11.9962C47.9037 11.9951 48.0373 12.015 48.1655 12.0553C48.2718 12.0879 48.3729 12.1357 48.4659 12.1971C48.5105 12.2283 48.5487 12.2679 48.5784 12.3139C48.6077 12.363 48.6222 12.4196 48.6203 12.4769V14.3284C48.6239 14.4679 48.5984 14.6066 48.5454 14.7354C48.499 14.8437 48.4266 14.9385 48.3348 15.0109C48.2391 15.0841 48.1298 15.1366 48.0135 15.1655C47.8832 15.1983 47.7493 15.2142 47.615 15.2128C47.4856 15.2149 47.3566 15.199 47.2314 15.1655C47.1475 15.1436 47.0664 15.1119 46.9896 15.071C46.93 15.0339 46.8862 14.9755 46.8669 14.9072C46.8476 14.839 46.8543 14.7658 46.8855 14.7023C46.9049 14.6656 46.9336 14.6349 46.9687 14.6134C47.0506 14.6722 47.1405 14.7185 47.2356 14.751C47.3507 14.7926 47.472 14.8134 47.5941 14.8124C47.7458 14.8218 47.8963 14.7792 48.0214 14.6914C48.075 14.6434 48.1166 14.5833 48.143 14.5159C48.1695 14.4484 48.1799 14.3756 48.1734 14.3034V14.0595ZM47.7438 13.8052C47.8303 13.8076 47.9163 13.7915 47.9963 13.7579C48.059 13.7306 48.1161 13.6918 48.1651 13.6435V12.5039C48.115 12.4717 48.0611 12.4461 48.0047 12.4278C47.9312 12.4039 47.8544 12.3924 47.7773 12.3938C47.6974 12.3905 47.6177 12.4043 47.5434 12.4343C47.4691 12.4642 47.4018 12.5097 47.3458 12.5677C47.2255 12.7143 47.1665 12.903 47.1812 13.0933C47.1786 13.2052 47.1934 13.3169 47.2249 13.4242C47.2491 13.5056 47.2904 13.5807 47.3458 13.6444C47.3945 13.699 47.4552 13.7412 47.5229 13.7673C47.5937 13.7936 47.6685 13.8061 47.7438 13.8052Z" fill="#CC0066"/>
<path d="M49.1915 11.3847C49.1905 11.347 49.1967 11.3094 49.21 11.2741C49.2232 11.2388 49.2432 11.2066 49.2687 11.1791C49.2948 11.1516 49.3263 11.13 49.3611 11.1157C49.396 11.1015 49.4334 11.0949 49.471 11.0964C49.5079 11.0952 49.5446 11.1019 49.5787 11.1161C49.6129 11.1304 49.6437 11.1519 49.669 11.1791C49.7187 11.2357 49.7462 11.3089 49.7462 11.3847C49.7462 11.4606 49.7187 11.5338 49.669 11.5903C49.6437 11.6176 49.6129 11.6391 49.5787 11.6533C49.5446 11.6676 49.5079 11.6743 49.471 11.6731C49.4334 11.6746 49.396 11.668 49.3611 11.6537C49.3263 11.6395 49.2948 11.6179 49.2687 11.5903C49.2432 11.5629 49.2232 11.5306 49.2099 11.4954C49.1967 11.4601 49.1904 11.4225 49.1915 11.3847ZM49.7002 14.2586C49.6725 14.2696 49.6438 14.2781 49.6146 14.2841C49.5741 14.2929 49.5328 14.2972 49.4914 14.2969C49.424 14.3025 49.3568 14.2838 49.3017 14.2439C49.2797 14.2209 49.2628 14.1932 49.2524 14.1628C49.242 14.1324 49.2382 14.1001 49.2413 14.0681V12.0739L49.3287 12.0507C49.3696 12.0404 49.4116 12.0354 49.4538 12.0361C49.52 12.0306 49.5859 12.0494 49.6397 12.089C49.6613 12.1132 49.6777 12.1417 49.6877 12.1728C49.6977 12.2038 49.7012 12.2366 49.6979 12.2691L49.7002 14.2586Z" fill="#CC0066"/>
<path d="M50.8941 13.8631C50.9713 13.914 51.0625 13.9385 51.1544 13.9331C51.2081 13.9326 51.2614 13.9248 51.313 13.9099C51.3636 13.8964 51.4126 13.8772 51.459 13.8527C51.4793 13.8794 51.4975 13.9077 51.5134 13.9373C51.5406 13.9924 51.5461 14.056 51.5288 14.1151C51.5115 14.1742 51.4728 14.2243 51.4204 14.2554C51.313 14.3161 51.1906 14.344 51.068 14.3358C50.8795 14.3455 50.6935 14.2895 50.5407 14.177C50.4701 14.1119 50.4155 14.0311 50.3811 13.9408C50.3467 13.8505 50.3336 13.7534 50.3426 13.657V11.4572C50.373 11.4465 50.4041 11.4379 50.4356 11.4317C50.4768 11.423 50.5187 11.4187 50.5607 11.4189C50.6259 11.4135 50.6909 11.4316 50.7444 11.47C50.7659 11.4929 50.7822 11.5204 50.7922 11.5504C50.8023 11.5805 50.8058 11.6124 50.8025 11.6439V12.11H51.4864C51.5 12.1356 51.5112 12.1625 51.5199 12.1903C51.5312 12.2259 51.5369 12.2631 51.5367 12.3004C51.5367 12.4334 51.4824 12.4998 51.3739 12.4994H50.8025V13.623C50.7978 13.6676 50.8037 13.7127 50.8199 13.7544C50.8361 13.7962 50.862 13.8333 50.8954 13.8626" fill="#CC0066"/>
<path d="M52.7701 11.9961C53.0018 11.9831 53.2311 12.0497 53.4211 12.1851C53.5053 12.2589 53.5711 12.3518 53.6131 12.4564C53.6552 12.561 53.6722 12.6743 53.6628 12.7868V13.8849C53.6667 13.9444 53.6503 14.0035 53.6163 14.0522C53.5801 14.0955 53.538 14.1334 53.4913 14.1647C53.3992 14.2171 53.3011 14.2578 53.1992 14.2857C53.062 14.3233 52.9202 14.3411 52.778 14.3386C52.5431 14.3525 52.31 14.2894 52.1131 14.1585C52.0333 14.0975 51.9697 14.0174 51.9278 13.9252C51.8859 13.8331 51.8672 13.7319 51.8732 13.6306C51.868 13.5427 51.882 13.4548 51.9142 13.3731C51.9463 13.2914 51.9958 13.2179 52.0592 13.1579C52.2129 13.0356 52.3999 12.9645 52.5948 12.9542L53.2076 12.8861V12.7845C53.2126 12.7277 53.2038 12.6706 53.182 12.6181C53.1602 12.5656 53.126 12.5194 53.0826 12.4834C52.9801 12.4153 52.8589 12.3822 52.7366 12.3889C52.6222 12.3884 52.5085 12.4055 52.3991 12.4394C52.2985 12.4701 52.2007 12.5098 52.107 12.5581C52.0777 12.5304 52.0525 12.4986 52.0322 12.4635C52.0097 12.4253 51.9982 12.3815 51.9989 12.337C51.9997 12.2924 52.0126 12.249 52.0364 12.2116C52.0671 12.1717 52.1072 12.1403 52.1531 12.1204C52.2423 12.0763 52.3369 12.0445 52.4344 12.0258C52.545 12.0041 52.6574 11.9935 52.7701 11.9942M52.7785 13.9525C52.87 13.9543 52.9612 13.9428 53.0495 13.9184C53.1063 13.9044 53.1601 13.8799 53.2081 13.8461V13.2486L52.7329 13.2997C52.6252 13.307 52.5208 13.3404 52.4284 13.3971C52.3945 13.423 52.3676 13.4571 52.3501 13.4963C52.3326 13.5356 52.3252 13.5786 52.3284 13.6216C52.3265 13.6677 52.3354 13.7135 52.3542 13.7555C52.373 13.7975 52.4013 13.8343 52.4367 13.8631C52.5377 13.9307 52.658 13.962 52.7785 13.952" fill="#CC0066"/>
<path d="M54.534 14.2975C54.4678 14.3021 54.4021 14.2834 54.348 14.2445C54.3253 14.2219 54.3079 14.1943 54.297 14.1639C54.2861 14.1334 54.2821 14.1009 54.2852 14.0687V11.2119L54.3726 11.1887C54.4135 11.1783 54.4556 11.1734 54.4977 11.1741C54.5635 11.1694 54.6289 11.1872 54.6837 11.2247C54.7065 11.2469 54.724 11.2741 54.7349 11.3042C54.7457 11.3344 54.7497 11.3667 54.7464 11.3986V14.2597C54.7213 14.2682 54.6903 14.2767 54.6534 14.2852C54.6138 14.2941 54.5732 14.2984 54.5326 14.298" fill="#CC0066"/>
<path d="M56.8425 13.2834V14.2585C56.811 14.2688 56.779 14.2773 56.7467 14.2841C56.7055 14.2928 56.6636 14.2971 56.6216 14.2968C56.5525 14.3029 56.4836 14.2833 56.4277 14.2415C56.4056 14.2171 56.3888 14.1883 56.3784 14.1568C56.368 14.1254 56.3642 14.0921 56.3673 14.0591V11.63C56.3645 11.5844 56.3796 11.5396 56.4091 11.5052C56.4406 11.4731 56.4792 11.4491 56.5216 11.4353C56.6282 11.3987 56.7388 11.3753 56.8508 11.3653C56.9748 11.3527 57.0929 11.3464 57.2051 11.3464C57.5105 11.321 57.814 11.4133 58.0555 11.605C58.1484 11.6954 58.221 11.805 58.2685 11.9264C58.316 12.0479 58.3373 12.1783 58.3308 12.3088C58.3366 12.44 58.3151 12.571 58.2676 12.6932C58.2202 12.8153 58.1479 12.926 58.0555 13.0178C57.8248 13.2124 57.5287 13.3082 57.2298 13.2848L56.8425 13.2834ZM57.2051 12.8722C57.3743 12.882 57.5416 12.8319 57.6785 12.7304C57.7376 12.6786 57.7839 12.6136 57.814 12.5404C57.844 12.4672 57.8568 12.3879 57.8514 12.3088C57.858 12.2313 57.8465 12.1532 57.8179 12.0811C57.7893 12.0089 57.7444 11.9446 57.6868 11.8933C57.5479 11.797 57.3813 11.7507 57.2135 11.7619C57.1496 11.7619 57.0842 11.7647 57.0173 11.7704C56.957 11.7752 56.8971 11.7837 56.8378 11.7959V12.8727L57.2051 12.8722Z" fill="#CC0066"/>
<path d="M59.5865 11.9961C59.8182 11.983 60.0475 12.0496 60.2374 12.1851C60.3217 12.2588 60.3875 12.3518 60.4296 12.4564C60.4716 12.561 60.4886 12.6743 60.4792 12.7868V13.8849C60.4831 13.9444 60.4667 14.0035 60.4327 14.0522C60.3965 14.0955 60.3544 14.1334 60.3077 14.1647C60.2156 14.2171 60.1175 14.2578 60.0157 14.2857C59.8784 14.3233 59.7366 14.3411 59.5944 14.3386C59.3595 14.3525 59.1265 14.2894 58.9295 14.1585C58.8497 14.0975 58.786 14.0174 58.7442 13.9252C58.7023 13.8331 58.6836 13.7319 58.6896 13.6306C58.6844 13.5427 58.6984 13.4548 58.7306 13.3731C58.7627 13.2914 58.8122 13.2179 58.8755 13.1579C59.0292 13.0356 59.2163 12.9644 59.4112 12.9542L60.024 12.8861V12.7845C60.029 12.7277 60.0202 12.6706 59.9984 12.6181C59.9766 12.5656 59.9424 12.5193 59.8989 12.4834C59.7965 12.4152 59.6753 12.3821 59.553 12.3889C59.4386 12.3884 59.3248 12.4055 59.2154 12.4394C59.1149 12.4701 59.0171 12.5098 58.9234 12.5581C58.8941 12.5304 58.8689 12.4986 58.8486 12.4635C58.8261 12.4253 58.8146 12.3815 58.8153 12.337C58.8161 12.2924 58.829 12.249 58.8528 12.2116C58.8835 12.1717 58.9236 12.1403 58.9695 12.1204C59.0587 12.0763 59.1533 12.0445 59.2508 12.0258C59.3614 12.0041 59.4738 11.9935 59.5865 11.9942M59.5948 13.9525C59.6863 13.9543 59.7776 13.9428 59.8659 13.9184C59.9227 13.9044 59.9765 13.8799 60.0245 13.8461V13.2486L59.5493 13.2997C59.4416 13.307 59.3372 13.3404 59.2447 13.3971C59.2109 13.423 59.184 13.4571 59.1665 13.4963C59.149 13.5356 59.1416 13.5786 59.1448 13.6216C59.1429 13.6677 59.1518 13.7135 59.1706 13.7555C59.1894 13.7975 59.2177 13.8343 59.2531 13.8631C59.3541 13.9306 59.4744 13.9619 59.5948 13.952" fill="#CC0066"/>
<path d="M61.468 13.7543C61.393 13.599 61.302 13.3799 61.1951 13.0973C61.0881 12.8146 60.986 12.4953 60.8887 12.1392C60.9185 12.1036 60.9546 12.0741 60.9952 12.0522C61.0379 12.0283 61.0859 12.016 61.1346 12.0163C61.1912 12.0136 61.247 12.0302 61.2932 12.0636C61.3428 12.1091 61.3777 12.169 61.3932 12.2351C61.4738 12.4894 61.5565 12.7403 61.6415 12.9876C61.7264 13.235 61.8202 13.4901 61.9228 13.7529H61.9395C61.9838 13.6511 62.0289 13.5331 62.0748 13.3989C62.1207 13.2646 62.1652 13.1219 62.2083 12.9706C62.2513 12.8194 62.2924 12.6661 62.3315 12.5107C62.3705 12.3554 62.4053 12.2071 62.4356 12.0659C62.4638 12.0517 62.493 12.0397 62.523 12.03C62.5582 12.0195 62.5947 12.0146 62.6314 12.0153C62.6892 12.0131 62.7462 12.0296 62.7941 12.0626C62.817 12.0807 62.835 12.1043 62.8466 12.1313C62.8582 12.1583 62.863 12.1878 62.8606 12.2172C62.8539 12.3434 62.8336 12.4684 62.8002 12.5901C62.7599 12.7568 62.7078 12.9419 62.6439 13.1455C62.5801 13.3491 62.5071 13.5539 62.4249 13.76C62.3428 13.9664 62.26 14.1501 62.1766 14.3111C62.066 14.5347 61.9332 14.7463 61.7805 14.9426C61.7427 15.001 61.693 15.0506 61.6347 15.0878C61.5765 15.1251 61.5111 15.1492 61.4429 15.1586C61.4072 15.1607 61.3714 15.1554 61.3378 15.1431C61.3042 15.1307 61.2733 15.1116 61.2472 15.0868C61.1985 15.0371 61.166 14.9734 61.1542 14.9043C61.2086 14.8545 61.2602 14.8015 61.3085 14.7455C61.364 14.6825 61.4197 14.6147 61.4755 14.5422C61.5313 14.4698 61.5847 14.3956 61.6359 14.3196C61.6843 14.2485 61.7268 14.1734 61.7628 14.0951C61.7085 14.075 61.6594 14.0427 61.6191 14.0006C61.5551 13.9264 61.5037 13.8419 61.4671 13.7505" fill="#CC0066"/>
<path d="M65.7545 12.4893C65.6705 12.4221 65.5651 12.3884 65.4583 12.3948C65.3785 12.3944 65.2994 12.4105 65.2258 12.4421C65.1507 12.4745 65.0816 12.5196 65.0213 12.5754C65.0269 12.6019 65.0311 12.6287 65.0338 12.6557C65.0366 12.6841 65.038 12.7124 65.038 12.7403V14.2581C65.0103 14.2691 64.9816 14.2777 64.9524 14.2836C64.9135 14.2923 64.8737 14.2966 64.8338 14.2964C64.7657 14.3018 64.6979 14.2831 64.6418 14.2434C64.6192 14.2207 64.6019 14.1931 64.5911 14.1627C64.5804 14.1323 64.5764 14.0998 64.5795 14.0676V12.7914C64.5844 12.7359 64.5772 12.68 64.5585 12.6277C64.5398 12.5753 64.51 12.5278 64.4712 12.4884C64.3872 12.4211 64.2818 12.3875 64.175 12.3939C64.0956 12.3934 64.0168 12.4078 63.9425 12.4364C63.8782 12.4609 63.8168 12.4927 63.7593 12.5309V14.2605C63.7316 14.2715 63.7029 14.28 63.6737 14.286C63.6333 14.2948 63.5919 14.2991 63.5505 14.2987C63.4844 14.3034 63.4187 14.2847 63.3646 14.2458C63.3419 14.2231 63.3244 14.1955 63.3136 14.1651C63.3027 14.1347 63.2987 14.1022 63.3018 14.07V12.5187C63.2987 12.4575 63.3124 12.3966 63.3413 12.3428C63.3762 12.2901 63.4207 12.2447 63.4724 12.2091C63.6877 12.0728 63.9358 11.9995 64.1894 11.9973C64.316 11.9951 64.442 12.0159 64.5614 12.0587C64.6645 12.0962 64.7574 12.1579 64.8325 12.2388C64.9199 12.167 65.0175 12.1091 65.1221 12.0673C65.2477 12.0182 65.3815 11.9945 65.516 11.9973C65.6262 11.9965 65.7358 12.0125 65.8414 12.0446C65.936 12.0725 66.0236 12.1209 66.0981 12.1864C66.1712 12.2532 66.2289 12.3357 66.2669 12.4279C66.3112 12.5389 66.3325 12.6579 66.3297 12.7777V14.2614C66.2991 14.2715 66.2681 14.28 66.2367 14.2869C66.1977 14.2956 66.158 14.2999 66.1181 14.2997C66.052 14.3043 65.9863 14.2856 65.9321 14.2467C65.9094 14.224 65.892 14.1965 65.8811 14.166C65.8703 14.1356 65.8663 14.1031 65.8693 14.0709V12.7947C65.8744 12.7392 65.8672 12.6833 65.8485 12.6309C65.8298 12.5785 65.7999 12.531 65.761 12.4917" fill="#CC0066"/>
<path d="M67.2923 13.416C67.3191 13.574 67.404 13.7156 67.5299 13.8121C67.6656 13.903 67.826 13.9481 67.9883 13.9412C68.1031 13.9426 68.217 13.9217 68.3241 13.8797C68.4113 13.8462 68.4947 13.8028 68.5724 13.7502C68.6104 13.7704 68.6422 13.8008 68.6643 13.8382C68.6863 13.8755 68.6978 13.9184 68.6974 13.962C68.6969 14.0171 68.6762 14.07 68.6393 14.1104C68.5948 14.1599 68.5409 14.1996 68.4808 14.2271C68.4065 14.2623 68.3285 14.2886 68.2483 14.3056C67.9984 14.3571 67.7395 14.3408 67.4978 14.2583C67.3634 14.2104 67.241 14.1329 67.1393 14.0315C67.0357 13.9261 66.9563 13.7988 66.9068 13.6585C66.8501 13.4945 66.8225 13.3214 66.8254 13.1476C66.8223 12.9782 66.8484 12.8096 66.9026 12.6494C66.9485 12.5158 67.0217 12.3937 67.1175 12.2911C67.2087 12.1953 67.3188 12.1203 67.4406 12.0708C67.5659 12.0197 67.6999 11.9939 67.8349 11.9947C67.967 11.9929 68.0981 12.0181 68.2204 12.0689C68.3325 12.1157 68.4341 12.1851 68.519 12.2729C68.604 12.3607 68.6705 12.4652 68.7146 12.5799C68.7628 12.704 68.7868 12.8364 68.7853 12.9698C68.788 13.0011 68.7846 13.0325 68.7753 13.0624C68.7659 13.0922 68.7509 13.1199 68.7309 13.1438C68.6882 13.1837 68.6342 13.2089 68.5765 13.2156L67.2923 13.416ZM67.8345 12.3762C67.7589 12.3744 67.6839 12.3892 67.6145 12.4195C67.5451 12.4499 67.4829 12.495 67.4323 12.552C67.3173 12.6911 67.2572 12.8686 67.2635 13.0502L68.3473 12.8848C68.3397 12.7519 68.2892 12.6253 68.2036 12.5246C68.1567 12.4737 68.0993 12.4341 68.0356 12.4084C67.9719 12.3828 67.9029 12.3717 67.8345 12.3762Z" fill="#CC0066"/>
<path d="M70.5291 12.5022C70.4364 12.4259 70.3191 12.3873 70.1999 12.3939C70.1065 12.3925 70.0135 12.4069 69.9247 12.4365C69.8525 12.4614 69.7828 12.4931 69.7164 12.531V14.2605C69.6886 14.2716 69.66 14.2801 69.6308 14.286C69.5903 14.2949 69.549 14.2992 69.5076 14.2988C69.4415 14.3035 69.3757 14.2848 69.3216 14.2459C69.2989 14.2232 69.2815 14.1956 69.2706 14.1652C69.2598 14.1348 69.2557 14.1022 69.2588 14.07V12.5187C69.2559 12.4575 69.2696 12.3967 69.2984 12.3429C69.3334 12.2901 69.378 12.2447 69.43 12.2091C69.5325 12.1505 69.6408 12.1029 69.7531 12.0673C69.898 12.0202 70.0493 11.9974 70.2014 11.9997C70.4413 11.9858 70.6783 12.0587 70.8704 12.2053C70.955 12.2831 71.0209 12.3795 71.0632 12.4871C71.1056 12.5948 71.1231 12.7108 71.1146 12.8264V14.2634C71.0852 14.2739 71.0553 14.2824 71.0248 14.2889C70.9845 14.2977 70.9433 14.302 70.902 14.3016C70.8359 14.3063 70.7702 14.2876 70.7161 14.2487C70.6934 14.226 70.6761 14.1984 70.6653 14.168C70.6545 14.1375 70.6506 14.105 70.6537 14.0729V12.8439C70.6589 12.7822 70.6508 12.72 70.6299 12.6618C70.6091 12.6036 70.576 12.5507 70.5329 12.5069" fill="#CC0066"/>
<path d="M72.2779 13.8626C72.3552 13.9134 72.4464 13.9379 72.5383 13.9326C72.5919 13.9321 72.6452 13.9243 72.6968 13.9094C72.7474 13.8959 72.7964 13.8767 72.8428 13.8522C72.8631 13.8789 72.8814 13.9072 72.8972 13.9368C72.9245 13.9919 72.9301 14.0555 72.9128 14.1146C72.8955 14.1738 72.8567 14.2239 72.8042 14.2549C72.6968 14.3156 72.5744 14.3435 72.4518 14.3353C72.2634 14.345 72.0773 14.289 71.9245 14.1765C71.8539 14.1115 71.7993 14.0306 71.7649 13.9403C71.7305 13.8501 71.7173 13.7529 71.7264 13.6565V11.4567C71.7568 11.446 71.7879 11.4374 71.8195 11.4312C71.8606 11.4225 71.9025 11.4182 71.9445 11.4184C72.0097 11.413 72.0747 11.4311 72.1282 11.4695C72.1498 11.4924 72.1662 11.5198 72.1763 11.5499C72.1864 11.5799 72.19 11.6118 72.1867 11.6434V12.1095H72.8707C72.8844 12.1351 72.8956 12.162 72.9042 12.1898C72.9156 12.2254 72.9212 12.2626 72.921 12.3C72.921 12.4329 72.8667 12.4993 72.7582 12.499H72.1867V13.6225C72.182 13.6671 72.188 13.7122 72.2042 13.754C72.2204 13.7957 72.2464 13.8328 72.2798 13.8621" fill="#CC0066"/>
<path d="M74.9276 13.6614C74.9317 13.7554 74.9141 13.8491 74.876 13.9349C74.838 14.0207 74.7806 14.0962 74.7086 14.1553C74.5231 14.2876 74.2986 14.3511 74.0725 14.3354C73.9649 14.3362 73.8574 14.3263 73.7517 14.3057C73.6666 14.29 73.5839 14.2629 73.5057 14.2253C73.4451 14.1961 73.3912 14.1542 73.3476 14.1024C73.3102 14.0589 73.2894 14.0032 73.2891 13.9455C73.2889 13.9004 73.2996 13.8559 73.3202 13.816C73.3414 13.7745 73.3736 13.7399 73.4132 13.7162C73.5011 13.7768 73.5945 13.8286 73.6922 13.8708C73.8084 13.9195 73.9333 13.9433 74.0591 13.9407C74.1653 13.9478 74.2712 13.9228 74.3636 13.8689C74.3971 13.8464 74.4243 13.8155 74.4426 13.7791C74.4608 13.7427 74.4695 13.7022 74.4677 13.6614C74.4695 13.6266 74.4642 13.5918 74.452 13.5593C74.4398 13.5267 74.4211 13.4971 74.3971 13.4723C74.3362 13.4186 74.2629 13.3813 74.1841 13.3641L73.8837 13.2795C73.7207 13.2418 73.5698 13.1622 73.4457 13.0483C73.3973 12.9945 73.36 12.9313 73.3361 12.8625C73.3121 12.7938 73.302 12.7208 73.3063 12.648C73.3058 12.5594 73.3244 12.4718 73.3606 12.3913C73.3967 12.3111 73.4501 12.2401 73.5169 12.1838C73.593 12.1217 73.6801 12.075 73.7736 12.0463C73.8869 12.0108 74.005 11.9935 74.1236 11.9952C74.2216 11.9942 74.3195 12.0034 74.4157 12.0226C74.4925 12.038 74.5674 12.0623 74.6388 12.095C74.6952 12.1198 74.7451 12.1575 74.7848 12.2051C74.818 12.2447 74.8365 12.2949 74.8369 12.3469C74.8379 12.3914 74.8271 12.4353 74.8058 12.474C74.7865 12.5089 74.7602 12.5392 74.7286 12.5629C74.6524 12.5191 74.573 12.4814 74.491 12.4504C74.3846 12.4088 74.2715 12.388 74.1576 12.389C74.0559 12.3831 73.9547 12.4065 73.8656 12.4566C73.8379 12.4742 73.8143 12.4979 73.7966 12.5258C73.7789 12.5538 73.7674 12.5853 73.7629 12.6183C73.7585 12.6512 73.7612 12.6848 73.7709 12.7165C73.7806 12.7483 73.7971 12.7775 73.8191 12.8021C73.8775 12.8531 73.948 12.8875 74.0237 12.9018L74.2822 12.9699C74.4639 13.0129 74.6323 13.1011 74.7723 13.2265C74.8259 13.2844 74.8674 13.3528 74.8943 13.4274C74.9211 13.5021 74.9328 13.5815 74.9285 13.6609" fill="#CC0066"/>
<path d="M11.2851 6.99512V15.2702C11.2851 15.8119 11.1216 16.3406 10.8167 16.7848C10.5118 17.2291 10.0801 17.5676 9.58002 17.7546L2.15634 20.5301C2.0395 20.5739 1.91398 20.5883 1.79046 20.5722C1.66695 20.556 1.5491 20.5098 1.44695 20.4374C1.34481 20.365 1.26139 20.2685 1.2038 20.1563C1.14621 20.044 1.11616 19.9193 1.11621 19.7927V12.7712C1.11645 12.3489 1.24388 11.9368 1.48137 11.5904C1.71886 11.2439 2.05501 10.9797 2.44462 10.8332L9.30616 8.25337C10.3891 7.80764 10.8122 7.53491 11.2855 6.99748" fill="white"/>
<path d="M17.8117 9.08833C17.8039 9.39601 17.6815 9.68921 17.4691 9.90859C17.2568 10.128 16.9703 10.2572 16.6678 10.27H15.1121C15.0224 10.2722 14.9355 10.238 14.8705 10.1751C14.8056 10.1122 14.7679 10.0256 14.7657 9.93441V6.48958C14.765 6.44388 14.7733 6.39852 14.7902 6.35616C14.8071 6.31381 14.8322 6.27534 14.8639 6.24302C14.8957 6.21071 14.9336 6.18521 14.9752 6.16805C15.0169 6.15089 15.0615 6.14241 15.1065 6.14311H16.6079C16.8324 6.15518 17.0487 6.23322 17.2306 6.36776C17.4124 6.50229 17.5519 6.68756 17.6322 6.90109C17.7125 7.11462 17.7302 7.34726 17.6831 7.57079C17.636 7.79433 17.526 7.99916 17.3667 8.16047C17.504 8.27187 17.6152 8.41291 17.6922 8.57339C17.7693 8.73387 17.8098 8.90977 17.8117 9.08833ZM15.4259 7.85938L16.5311 7.84804C16.6654 7.84355 16.7929 7.78733 16.8879 7.69078C16.9829 7.59423 17.0382 7.46457 17.0426 7.3281C17.0418 7.19683 16.9909 7.07101 16.9006 6.97718C16.8103 6.88335 16.6877 6.82885 16.5586 6.82517H15.4259V7.85938ZM17.1305 9.08833C17.1213 8.94923 17.0616 8.81856 16.9631 8.72156C16.8646 8.62456 16.7342 8.56814 16.5972 8.56319H15.4533V9.59693H16.6297C16.7611 9.59267 16.8859 9.53772 16.9788 9.44324C17.0718 9.34877 17.1258 9.22187 17.13 9.08833" fill="white"/>
<path d="M20.5189 8.56315H20.0186V9.9339C20.0167 10.0241 19.9798 10.1099 19.916 10.1727C19.8521 10.2354 19.7666 10.27 19.6778 10.269C19.5904 10.2688 19.5066 10.2334 19.4448 10.1706C19.3829 10.1078 19.348 10.0227 19.3477 9.9339V6.47819C19.3504 6.38824 19.3876 6.30294 19.4512 6.24037C19.5149 6.1778 19.6 6.1429 19.6885 6.14307H20.8923C21.2018 6.14994 21.4969 6.27726 21.7168 6.49879C21.9367 6.72031 22.0647 7.01916 22.0742 7.33373C22.0685 7.58743 21.9871 7.83337 21.8408 8.03898C21.6945 8.2446 21.4902 8.40019 21.255 8.48516L22.0194 9.75381C22.0639 9.83194 22.0768 9.92463 22.0553 10.0122C22.0338 10.0999 21.9795 10.1755 21.9041 10.2232C21.8518 10.2524 21.7931 10.2678 21.7334 10.2681C21.6761 10.268 21.6198 10.2531 21.5697 10.2247C21.5197 10.1964 21.4776 10.1555 21.4475 10.106L20.5189 8.56315ZM21.4098 7.33893C21.4035 7.19876 21.3437 7.0666 21.2431 6.97056C21.1424 6.87452 21.0089 6.82218 20.8709 6.82466H20.0186V7.88108H20.8709C21.0129 7.88121 21.1492 7.82432 21.2501 7.72278C21.3511 7.62124 21.4085 7.48328 21.4098 7.33893Z" fill="white"/>
<path d="M25.9336 10.2687C25.3974 10.2629 24.8853 10.0415 24.5093 9.65289C24.1332 9.26432 23.9238 8.74021 23.9268 8.19512C23.9338 7.79381 24.0571 7.40353 24.2815 7.07325C24.5058 6.74296 24.8211 6.48738 25.1878 6.33857C25.5545 6.18977 25.9563 6.15437 26.3427 6.23681C26.7291 6.31925 27.083 6.51587 27.3599 6.80199C27.6368 7.08811 27.8244 7.45099 27.8992 7.8451C27.9739 8.2392 27.9326 8.64698 27.7802 9.01728C27.6279 9.38757 27.3714 9.70388 27.0428 9.92652C26.7143 10.1492 26.3284 10.2682 25.9336 10.2687ZM24.5754 8.19512C24.5759 8.46878 24.6562 8.73614 24.8061 8.96341C24.9561 9.19068 25.1689 9.36764 25.4178 9.47191C25.6667 9.57618 25.9404 9.60307 26.2043 9.54919C26.4683 9.49531 26.7105 9.36308 26.9005 9.16921C27.0905 8.97535 27.2197 8.72856 27.2717 8.46006C27.3237 8.19156 27.2962 7.91342 27.1927 7.6608C27.0892 7.40819 26.9143 7.19245 26.6902 7.04087C26.4661 6.8893 26.2028 6.80869 25.9336 6.80925C25.5736 6.81284 25.2294 6.96017 24.9753 7.21944C24.7212 7.47872 24.5776 7.82915 24.5754 8.19512Z" fill="white"/>
<path d="M32.6849 10.2413C32.6424 10.2582 32.5969 10.2662 32.5513 10.2648C32.5056 10.2635 32.4607 10.2529 32.4192 10.2336C32.3776 10.2143 32.3403 10.1867 32.3095 10.1525C32.2786 10.1182 32.2548 10.078 32.2395 10.0343L31.3096 7.48187L30.375 10.0343C30.3607 10.0782 30.3378 10.1186 30.3076 10.1531C30.2773 10.1876 30.2405 10.2154 30.1992 10.2348C30.158 10.2542 30.1133 10.2648 30.0678 10.2659C30.0224 10.267 29.9772 10.2587 29.9351 10.2413C29.8918 10.2262 29.8519 10.2023 29.8179 10.171C29.784 10.1397 29.7566 10.1018 29.7376 10.0594C29.7185 10.017 29.7082 9.97116 29.7071 9.92459C29.7061 9.87802 29.7143 9.83172 29.7315 9.78851L30.9739 6.36211C31 6.29364 31.0461 6.23496 31.1061 6.19398C31.166 6.15299 31.2369 6.13166 31.3091 6.13286C31.381 6.13321 31.4512 6.15516 31.5108 6.19595C31.5705 6.23674 31.6169 6.29455 31.6444 6.36211L32.8867 9.78851C32.9039 9.83169 32.9122 9.87796 32.9112 9.92451C32.9101 9.97106 32.8998 10.0169 32.8808 10.0593C32.8618 10.1016 32.8345 10.1396 32.8006 10.1709C32.7667 10.2022 32.7269 10.2262 32.6836 10.2413" fill="white"/>
<path d="M34.2754 9.93354V6.49532C34.2775 6.40712 34.3129 6.32313 34.3743 6.26074C34.4357 6.19836 34.5183 6.16235 34.605 6.16019H35.4243C35.7194 6.15843 36.0116 6.21929 36.2822 6.33887C36.5423 6.45485 36.7747 6.62638 36.9638 6.84179C37.1525 7.05959 37.2933 7.31583 37.3768 7.59338C37.4603 7.87093 37.4845 8.1634 37.4479 8.45124C37.3872 8.95106 37.1494 9.41126 36.779 9.74564C36.4085 10.08 35.9309 10.2656 35.4355 10.2677H34.6055C34.5187 10.2656 34.4361 10.2296 34.3747 10.1672C34.3134 10.1048 34.278 10.0208 34.2758 9.93259M36.783 8.37277C36.812 8.17973 36.799 7.98256 36.7449 7.7952C36.6907 7.60783 36.5967 7.43484 36.4696 7.28846C36.3381 7.13983 36.1768 7.02155 35.9966 6.94156C35.8164 6.86158 35.6214 6.82176 35.4248 6.82477H34.9356V9.59699H35.4359C35.7694 9.59716 36.0913 9.4724 36.34 9.24657C36.5888 9.02074 36.747 8.70966 36.7844 8.37277" fill="white"/>
<path d="M40.7106 9.69283C40.546 9.94552 40.2925 10.1245 40.0021 10.1931C39.7117 10.2617 39.4065 10.2146 39.1492 10.0615C39.0703 10.0129 39.012 9.93617 38.9856 9.84629C38.9592 9.75641 38.9667 9.65976 39.0064 9.57513C39.0661 9.505 39.1496 9.46032 39.2403 9.44998C39.3309 9.43964 39.4221 9.46442 39.4956 9.51936C39.6096 9.58226 39.7428 9.59879 39.8683 9.56562C39.9938 9.53245 40.1023 9.45205 40.1717 9.34069C40.21 9.28273 40.2367 9.21766 40.2503 9.14919C40.2639 9.08073 40.2641 9.01021 40.2508 8.94168C40.2375 8.87315 40.2111 8.80795 40.173 8.74981C40.135 8.69167 40.086 8.64173 40.0289 8.60285C39.7597 8.42938 39.7499 8.42418 39.49 8.25071C39.2327 8.08095 39.0522 7.81423 38.9883 7.50922C38.9244 7.20421 38.9823 6.88588 39.1492 6.62424C39.3155 6.37363 39.5689 6.19627 39.8585 6.1278C40.1482 6.05932 40.4526 6.10479 40.7106 6.25509C40.7869 6.30041 40.8431 6.37381 40.8677 6.46011C40.8923 6.54641 40.8833 6.63902 40.8426 6.71878C40.7881 6.79186 40.7079 6.84079 40.6188 6.8554C40.5298 6.87001 40.4385 6.84918 40.3641 6.79724C40.2452 6.73567 40.1076 6.7228 39.9795 6.76127C39.8515 6.79974 39.7429 6.88663 39.676 7.00406C39.6091 7.12148 39.589 7.26051 39.6199 7.39252C39.6508 7.52454 39.7303 7.6395 39.842 7.71375C39.9815 7.80309 39.9815 7.80309 40.3753 8.06589C40.5025 8.15022 40.612 8.25922 40.6977 8.38664C40.7834 8.51406 40.8435 8.6574 40.8747 8.80846C40.9058 8.95953 40.9073 9.11535 40.8792 9.26702C40.851 9.41869 40.7937 9.5637 40.7106 9.69283Z" fill="white"/>
<path d="M44.4245 8.55361C44.117 8.57581 43.8085 8.5796 43.5006 8.56495V9.9357C43.4986 10.0259 43.4617 10.1117 43.3979 10.1745C43.3341 10.2372 43.2485 10.2718 43.1598 10.2708C43.0724 10.2705 42.9888 10.235 42.927 10.1723C42.8653 10.1095 42.8305 10.0245 42.8301 9.9357V6.48945C42.8295 6.44528 42.8377 6.40144 42.854 6.36053C42.8704 6.31961 42.8947 6.28244 42.9254 6.25121C42.9561 6.21997 42.9927 6.19531 43.0329 6.17867C43.0732 6.16203 43.1163 6.15375 43.1598 6.15432H44.3915C44.6984 6.16404 44.9898 6.29383 45.2049 6.51663C45.42 6.73943 45.5422 7.03804 45.546 7.35018C45.541 7.65684 45.423 7.95043 45.2153 8.17291C45.0077 8.39539 44.7254 8.53057 44.4245 8.55172M44.3478 6.82505H43.5011V7.88147H44.3478C44.4895 7.88062 44.6252 7.82341 44.7259 7.72207C44.8267 7.62074 44.8843 7.48335 44.8866 7.33931C44.8795 7.19947 44.8194 7.06786 44.7189 6.97202C44.6185 6.87618 44.4855 6.82351 44.3478 6.82505Z" fill="white"/>
<path d="M47.3047 9.933V6.47871C47.3051 6.38994 47.3399 6.30492 47.4017 6.24215C47.4634 6.17938 47.547 6.14396 47.6343 6.14358H49.6151C49.7039 6.14244 49.7896 6.17702 49.8534 6.2398C49.9173 6.30257 49.9541 6.38844 49.9559 6.47871C49.9555 6.57044 49.9194 6.65828 49.8556 6.72315C49.7918 6.78802 49.7054 6.82468 49.6151 6.82518H47.9766V7.8816H49.2139C49.2573 7.88103 49.3004 7.8893 49.3407 7.90594C49.3809 7.92258 49.4175 7.94725 49.4482 7.97848C49.4789 8.00971 49.5032 8.04689 49.5196 8.08781C49.5359 8.12872 49.5441 8.17256 49.5435 8.21672C49.5441 8.26093 49.536 8.30482 49.5197 8.34579C49.5034 8.38676 49.4791 8.42399 49.4484 8.45527C49.4177 8.48656 49.381 8.51126 49.3408 8.52793C49.3005 8.5446 49.2573 8.55289 49.2139 8.55232H47.9766V9.58606H49.6151C49.7054 9.58655 49.7918 9.62321 49.8556 9.68808C49.9194 9.75295 49.9555 9.84079 49.9559 9.93252C49.954 10.0227 49.9171 10.1086 49.8533 10.1713C49.7895 10.234 49.7039 10.2687 49.6151 10.2676H47.6358C47.5484 10.2673 47.4648 10.2318 47.4031 10.1691C47.3413 10.1063 47.3064 10.0213 47.3061 9.93252" fill="white"/>
<path d="M55.1288 9.82202C54.7787 10.1051 54.3444 10.2588 53.8971 10.2578C53.359 10.2578 52.8429 10.0405 52.4624 9.65373C52.0819 9.26693 51.8682 8.74233 51.8682 8.19532C51.8682 7.64831 52.0819 7.1237 52.4624 6.73691C52.8429 6.35011 53.359 6.13281 53.8971 6.13281C54.2626 6.13331 54.6207 6.23795 54.9307 6.43485C54.9697 6.45543 55.0041 6.48382 55.032 6.51829C55.0599 6.55277 55.0806 6.59262 55.0929 6.63546C55.1053 6.67829 55.1089 6.72322 55.1038 6.76754C55.0986 6.81186 55.0846 6.85465 55.0627 6.89334C55.0404 6.93166 55.0106 6.96489 54.975 6.99094C54.9395 7.017 54.8991 7.03532 54.8563 7.04477C54.8134 7.05422 54.7692 7.05459 54.7262 7.04586C54.6833 7.03713 54.6425 7.01948 54.6066 6.99402C54.3921 6.8645 54.147 6.79685 53.8975 6.79833C53.7192 6.79833 53.5426 6.83405 53.3779 6.90345C53.2132 6.97285 53.0635 7.07456 52.9375 7.20278C52.8114 7.331 52.7115 7.48322 52.6433 7.65072C52.5752 7.81823 52.5402 7.99774 52.5403 8.17901C52.5341 8.43863 52.6002 8.69474 52.7308 8.91794C52.8613 9.14114 53.0512 9.32237 53.2785 9.44083C53.5058 9.55929 53.7614 9.61018 54.0159 9.58764C54.2704 9.5651 54.5135 9.47006 54.7173 9.31342C54.7492 9.28558 54.7863 9.2645 54.8264 9.25138C54.8665 9.23827 54.9087 9.2334 54.9506 9.23705C54.9926 9.2407 55.0334 9.25281 55.0707 9.27265C55.108 9.2925 55.141 9.3197 55.1678 9.35265C55.2238 9.42017 55.2511 9.50747 55.2439 9.59544C55.2367 9.68341 55.1954 9.76488 55.1292 9.82202" fill="white"/>
<path d="M59.708 6.47382C59.708 6.51763 59.6994 6.56101 59.6828 6.60143C59.6662 6.64186 59.6419 6.67852 59.6112 6.7093C59.5805 6.74008 59.5441 6.76437 59.5042 6.78074C59.4642 6.79712 59.4214 6.80526 59.3783 6.80469H58.5707V9.93473C58.5707 10.0229 58.5362 10.1075 58.4749 10.1699C58.4135 10.2322 58.3303 10.2673 58.2436 10.2673C58.1568 10.2673 58.0736 10.2322 58.0123 10.1699C57.9509 10.1075 57.9165 10.0229 57.9165 9.93473V6.80375H57.1084C57.0216 6.80375 56.9384 6.76872 56.8771 6.70636C56.8157 6.644 56.7812 6.55941 56.7813 6.47122C56.7812 6.38303 56.8157 6.29845 56.8771 6.23609C56.9384 6.17373 57.0216 6.1387 57.1084 6.1387H59.3788C59.4222 6.13813 59.4654 6.14641 59.5056 6.16305C59.5459 6.17968 59.5824 6.20435 59.6131 6.23558C59.6439 6.26681 59.6682 6.30398 59.6845 6.3449C59.7009 6.38582 59.7086 6.42966 59.708 6.47382Z" fill="white"/>
<path d="M62.5287 8.56315H62.0284V9.9339C62.0264 10.0241 61.9895 10.1099 61.9257 10.1727C61.8619 10.2354 61.7763 10.27 61.6875 10.269C61.6001 10.2688 61.5164 10.2334 61.4545 10.1706C61.3927 10.1078 61.3578 10.0227 61.3574 9.9339V6.47819C61.3602 6.38824 61.3973 6.30294 61.461 6.24037C61.5246 6.1778 61.6097 6.1429 61.6982 6.14307H62.9025C63.212 6.14994 63.5071 6.27726 63.727 6.49879C63.947 6.72031 64.0749 7.01916 64.0845 7.33373C64.0787 7.58743 63.9973 7.83337 63.851 8.03898C63.7047 8.2446 63.5004 8.40019 63.2652 8.48516L64.0296 9.75381C64.0741 9.83199 64.0869 9.92473 64.0653 10.0124C64.0437 10.1 63.9893 10.1756 63.9138 10.2232C63.8615 10.2524 63.8028 10.2678 63.7432 10.2681C63.6859 10.268 63.6295 10.2531 63.5795 10.2247C63.5294 10.1964 63.4874 10.1555 63.4572 10.106L62.5287 8.56315ZM63.4195 7.33893C63.4133 7.19876 63.3535 7.0666 63.2528 6.97056C63.1522 6.87452 63.0187 6.82218 62.8807 6.82466H62.0284V7.88108H62.8807C63.0227 7.88121 63.1589 7.82432 63.2599 7.72278C63.3608 7.62124 63.4182 7.48328 63.4195 7.33893Z" fill="white"/>
<path d="M68.9066 6.47336V8.7592C68.91 8.95961 68.8742 9.15872 68.8012 9.34491C68.7282 9.5311 68.6194 9.70063 68.4812 9.84362C68.343 9.9866 68.1782 10.1002 67.9964 10.1777C67.8145 10.2552 67.6193 10.2952 67.4221 10.2952C67.225 10.2952 67.0297 10.2552 66.8479 10.1777C66.6661 10.1002 66.5013 9.9866 66.3631 9.84362C66.2249 9.70063 66.1161 9.5311 66.0431 9.34491C65.97 9.15872 65.9342 8.95961 65.9377 8.7592V6.47336C65.9377 6.38291 65.9731 6.29617 66.036 6.23221C66.0989 6.16826 66.1842 6.13232 66.2732 6.13232C66.3622 6.13232 66.4475 6.16826 66.5104 6.23221C66.5733 6.29617 66.6087 6.38291 66.6087 6.47336V8.7592C66.6087 8.98009 66.695 9.19192 66.8487 9.34811C67.0023 9.5043 67.2106 9.59205 67.4279 9.59205C67.6452 9.59205 67.8536 9.5043 68.0073 9.34811C68.1609 9.19192 68.2472 8.98009 68.2472 8.7592V6.47336C68.2467 6.42919 68.2548 6.38535 68.2712 6.34444C68.2876 6.30352 68.3118 6.26635 68.3425 6.23512C68.3733 6.20388 68.4098 6.17922 68.45 6.16258C68.4903 6.14594 68.5335 6.13766 68.5769 6.13823C68.6204 6.13766 68.6635 6.14594 68.7037 6.16258C68.744 6.17922 68.7805 6.20388 68.8113 6.23512C68.842 6.26635 68.8662 6.30352 68.8826 6.34444C68.899 6.38535 68.9071 6.42919 68.9066 6.47336Z" fill="white"/>
<path d="M74.8275 9.86079C74.8394 9.90192 74.8429 9.94508 74.8379 9.98764C74.8328 10.0302 74.8194 10.0713 74.7983 10.1084C74.7773 10.1455 74.749 10.1779 74.7152 10.2036C74.6814 10.2293 74.6429 10.2477 74.602 10.2578H74.5852C74.5796 10.2578 74.5796 10.2578 74.5745 10.2692H74.5359C74.459 10.2685 74.3847 10.241 74.3254 10.1911C74.2661 10.1413 74.2255 10.0722 74.2104 9.9955L73.7594 7.75977L72.9295 10.0234C72.9074 10.0917 72.8647 10.1512 72.8074 10.1934C72.7501 10.2355 72.6812 10.2582 72.6105 10.2582C72.5397 10.2582 72.4709 10.2355 72.4136 10.1934C72.3563 10.1512 72.3136 10.0917 72.2915 10.0234L71.5601 7.86612L71.1752 9.9955C71.163 10.0741 71.1233 10.1455 71.0636 10.1968C71.0038 10.2481 70.9279 10.2758 70.8496 10.2749C70.8329 10.2749 70.811 10.2692 70.7948 10.2692C70.7506 10.2627 70.7085 10.2462 70.6714 10.221C70.6343 10.1959 70.6032 10.1626 70.5804 10.1236C70.5539 10.0893 70.5352 10.0495 70.5257 10.007C70.5162 9.96448 70.5162 9.92035 70.5255 9.87781L71.0919 6.41265C71.106 6.33722 71.1445 6.26875 71.2013 6.21813C71.258 6.16751 71.3299 6.13765 71.4053 6.1333H71.4327C71.5037 6.13326 71.5728 6.15612 71.6301 6.1986C71.6875 6.24108 71.73 6.30097 71.7517 6.36964L72.6202 8.85684L73.5274 6.35829C73.5486 6.29144 73.5907 6.23345 73.6472 6.1931C73.7038 6.15275 73.7717 6.13226 73.8408 6.13472H73.8575C73.9326 6.13522 74.005 6.16313 74.0615 6.21337C74.118 6.26361 74.1548 6.33283 74.1653 6.4084L74.8275 9.86079Z" fill="white"/>
</g>
</svg>
