<svg width="94" height="26" viewBox="0 0 94 26" fill="none" xmlns="http://www.w3.org/2000/svg">
<mask id="mask0_2057_110574" style="mask-type:luminance" maskUnits="userSpaceOnUse" x="0" y="0" width="94" height="26">
<path d="M93.6113 0.649414H0V25.6662H93.6113V0.649414Z" fill="white"/>
</mask>
<g mask="url(#mask0_2057_110574)">
<path d="M10.1692 4.43608L1.62399 0.745609C1.4465 0.668839 1.25306 0.637976 1.06097 0.655781C0.868877 0.673586 0.684122 0.739504 0.523233 0.847637C0.362345 0.955769 0.230342 1.10275 0.139032 1.27542C0.0477218 1.44809 -4.65362e-05 1.64107 3.40189e-08 1.83709V11.3353C-5.76635e-06 11.5372 0.0481412 11.7361 0.14032 11.9151C0.232498 12.094 0.365963 12.2475 0.52929 12.3626C0.692617 12.4776 0.880941 12.5507 1.07814 12.5756C1.27535 12.6005 1.47556 12.5765 1.66163 12.5056L7.33118 10.3454L1.18873 7.7446C1.10078 7.70327 1.032 7.62891 0.996847 7.53714C0.961692 7.44538 0.962888 7.34334 1.00018 7.25245C1.03748 7.16156 1.10798 7.08889 1.19687 7.0497C1.28577 7.0105 1.38615 7.00783 1.47694 7.04225L8.35874 9.95446L10.2933 9.21685C13.6036 8.05005 13.776 5.71884 10.1698 4.43489M10.9791 7.45709C10.9409 7.55001 10.868 7.62375 10.7764 7.66218C10.6848 7.7006 10.5819 7.70058 10.4903 7.66211L1.04874 3.66619C1.00336 3.647 0.962144 3.61891 0.927446 3.58353C0.892748 3.54815 0.865247 3.50617 0.846513 3.45999C0.808678 3.36672 0.80885 3.262 0.846991 3.16887C0.885132 3.07573 0.958118 3.0018 1.04989 2.96335C1.14167 2.9249 1.24471 2.92508 1.33636 2.96384L10.7774 6.96096C10.8228 6.98013 10.8641 7.00822 10.8989 7.04364C10.9337 7.07906 10.9612 7.12111 10.9799 7.16736C10.9987 7.21362 11.0083 7.26318 11.0081 7.3132C11.008 7.36323 10.9981 7.41273 10.9791 7.45888" fill="#CC0066"/>
<path d="M55.9926 15.8457C55.9981 16.1317 55.9543 16.4166 55.8632 16.6873C55.7862 16.9117 55.6611 17.1159 55.4967 17.285C55.3361 17.4457 55.1413 17.5668 54.9274 17.6389C54.6891 17.7185 54.4394 17.7574 54.1886 17.7543C54.071 17.7543 53.932 17.7489 53.7716 17.7381C53.6204 17.7297 53.4713 17.6991 53.3287 17.6473C53.2555 17.6327 53.1897 17.5925 53.1425 17.5338C53.0954 17.4751 53.0699 17.4015 53.0705 17.3257V14.3447C53.067 14.2871 53.086 14.2304 53.1234 14.1869C53.1632 14.1463 53.212 14.116 53.2658 14.0985C53.4056 14.0542 53.5498 14.0254 53.6957 14.0124C53.8486 13.9981 53.9973 13.9909 54.1416 13.9909C54.3972 13.988 54.6516 14.0259 54.8956 14.1033C55.1149 14.1718 55.316 14.2899 55.4838 14.4487C55.6504 14.6118 55.7792 14.8104 55.8608 15.0303C55.9555 15.291 56.0011 15.5673 55.9955 15.8451M55.3785 15.8505C55.3831 15.6447 55.3519 15.4397 55.2862 15.2449C55.2321 15.0892 55.1435 14.9481 55.0274 14.8325C54.916 14.7247 54.7827 14.6431 54.6368 14.5934C54.4812 14.5406 54.318 14.5144 54.1539 14.5157C53.9912 14.5129 53.8285 14.5273 53.6687 14.5587V17.1852C53.7493 17.2042 53.8313 17.2168 53.9139 17.2229C54.0037 17.2301 54.0961 17.2336 54.191 17.2336C54.3542 17.2447 54.5178 17.2192 54.6702 17.159C54.8227 17.0988 54.9603 17.0053 55.0733 16.8852C55.2956 16.5896 55.4036 16.2215 55.3768 15.8505" fill="#CC0066"/>
<path d="M56.6154 14.0392C56.6141 13.9915 56.622 13.9439 56.6388 13.8993C56.6555 13.8547 56.6807 13.8139 56.713 13.7792C56.746 13.7444 56.7858 13.7171 56.8299 13.699C56.874 13.681 56.9214 13.6727 56.9689 13.6746C57.0156 13.6731 57.062 13.6816 57.1052 13.6996C57.1484 13.7176 57.1873 13.7448 57.2195 13.7792C57.2824 13.8507 57.3171 13.9433 57.3171 14.0392C57.3171 14.1351 57.2824 14.2277 57.2195 14.2992C57.1873 14.3337 57.1484 14.3608 57.1052 14.3788C57.062 14.3968 57.0156 14.4054 56.9689 14.4038C56.9214 14.4058 56.874 14.3974 56.8299 14.3794C56.7858 14.3614 56.746 14.334 56.713 14.2992C56.6807 14.2646 56.6555 14.2237 56.6387 14.1791C56.622 14.1345 56.614 14.087 56.6154 14.0392ZM57.2589 17.6735C57.2238 17.6874 57.1876 17.6982 57.1507 17.7058C57.0996 17.7169 57.0475 17.7223 56.9954 17.7219C56.9101 17.729 56.8251 17.7053 56.7554 17.655C56.7275 17.6258 56.7062 17.5907 56.693 17.5523C56.6798 17.5139 56.675 17.4731 56.6789 17.4326V14.9107L56.7895 14.8814C56.8412 14.8683 56.8944 14.8621 56.9477 14.8629C57.0315 14.856 57.1149 14.8798 57.183 14.9298C57.2103 14.9604 57.231 14.9965 57.2436 15.0358C57.2563 15.075 57.2607 15.1165 57.2565 15.1576L57.2589 17.6735Z" fill="#CC0066"/>
<path d="M59.7669 17.4218C59.6866 17.4735 59.5997 17.5137 59.5087 17.5414C59.3904 17.5759 59.2676 17.5922 59.1446 17.5898C58.9861 17.5908 58.8285 17.5654 58.6782 17.5145C58.5331 17.465 58.4007 17.3833 58.2906 17.2754C58.1719 17.1567 58.0818 17.0119 58.0271 16.8522C57.9584 16.6441 57.9264 16.4254 57.9323 16.206C57.9284 16.0009 57.9605 15.7966 58.0271 15.6029C58.0843 15.4393 58.1772 15.2909 58.2988 15.1689C58.4179 15.0519 58.5597 14.9615 58.7152 14.9035C58.8886 14.8406 59.0717 14.8098 59.2558 14.8127C59.4256 14.8112 59.5946 14.8364 59.7569 14.8874C59.8913 14.9286 60.0192 14.989 60.1369 15.0667C60.1933 15.1061 60.2416 15.1563 60.2792 15.2144C60.3162 15.2764 60.3346 15.3481 60.3321 15.4206V17.762C60.3368 17.9384 60.3045 18.1138 60.2375 18.2766C60.1788 18.4136 60.0871 18.5334 59.971 18.6251C59.85 18.7176 59.7117 18.7841 59.5645 18.8206C59.3997 18.8621 59.2303 18.8822 59.0605 18.8803C58.8968 18.883 58.7335 18.8629 58.5752 18.8206C58.469 18.7929 58.3664 18.7528 58.2694 18.701C58.194 18.6542 58.1385 18.5803 58.1141 18.494C58.0898 18.4076 58.0981 18.3151 58.1376 18.2348C58.1622 18.1884 58.1985 18.1496 58.2429 18.1224C58.3465 18.1967 58.4603 18.2553 58.5805 18.2963C58.7261 18.349 58.8795 18.3753 59.034 18.3741C59.226 18.3859 59.4163 18.332 59.5746 18.221C59.6423 18.1603 59.695 18.0843 59.7284 17.999C59.7619 17.9138 59.775 17.8217 59.7669 17.7303V17.4218ZM59.2234 17.1003C59.3328 17.1033 59.4416 17.083 59.5428 17.0405C59.6221 17.0059 59.6944 16.9569 59.7563 16.8958V15.4547C59.693 15.4139 59.6248 15.3816 59.5534 15.3584C59.4605 15.3282 59.3633 15.3137 59.2658 15.3154C59.1647 15.3113 59.0639 15.3287 58.9699 15.3666C58.8759 15.4045 58.7907 15.462 58.7199 15.5354C58.5678 15.7208 58.4931 15.9594 58.5117 16.2001C58.5085 16.3416 58.5271 16.4828 58.567 16.6185C58.5976 16.7214 58.6498 16.8164 58.7199 16.897C58.7815 16.9661 58.8583 17.0193 58.944 17.0524C59.0335 17.0856 59.1282 17.1014 59.2234 17.1003Z" fill="#CC0066"/>
<path d="M61.0563 14.0392C61.055 13.9915 61.0629 13.9439 61.0796 13.8993C61.0964 13.8547 61.1217 13.8139 61.154 13.7792C61.1869 13.7444 61.2267 13.7171 61.2708 13.699C61.3149 13.681 61.3623 13.6727 61.4098 13.6746C61.4565 13.673 61.5029 13.6815 61.5461 13.6996C61.5893 13.7176 61.6283 13.7447 61.6604 13.7792C61.7232 13.8507 61.758 13.9433 61.758 14.0392C61.758 14.1351 61.7232 14.2277 61.6604 14.2992C61.6283 14.3337 61.5893 14.3608 61.5461 14.3789C61.5029 14.3969 61.4565 14.4054 61.4098 14.4038C61.3623 14.4058 61.3149 14.3974 61.2708 14.3794C61.2267 14.3614 61.1869 14.334 61.154 14.2992C61.1216 14.2646 61.0964 14.2237 61.0796 14.1791C61.0628 14.1345 61.0549 14.087 61.0563 14.0392ZM61.6998 17.6735C61.6647 17.6874 61.6285 17.6982 61.5915 17.7058C61.5403 17.7169 61.488 17.7223 61.4357 17.7219C61.3504 17.7291 61.2654 17.7054 61.1957 17.655C61.1678 17.6258 61.1465 17.5908 61.1333 17.5524C61.1201 17.514 61.1153 17.4731 61.1192 17.4326V14.9107L61.2298 14.8814C61.2815 14.8683 61.3347 14.8621 61.388 14.8629C61.4718 14.856 61.5552 14.8798 61.6233 14.9298C61.6506 14.9604 61.6713 14.9965 61.6839 15.0358C61.6966 15.075 61.701 15.1165 61.6968 15.1576L61.6998 17.6735Z" fill="#CC0066"/>
<path d="M63.2089 17.1727C63.3066 17.237 63.422 17.268 63.5383 17.2612C63.6061 17.2606 63.6736 17.2507 63.7389 17.2319C63.8029 17.2148 63.8648 17.1906 63.9236 17.1595C63.9493 17.1933 63.9723 17.2291 63.9924 17.2665C64.0268 17.3362 64.0337 17.4166 64.0119 17.4913C63.99 17.5661 63.941 17.6295 63.8747 17.6688C63.7388 17.7455 63.584 17.7808 63.4289 17.7704C63.1905 17.7828 62.9552 17.7119 62.7619 17.5696C62.6726 17.4874 62.6035 17.3851 62.56 17.271C62.5165 17.1568 62.4999 17.0339 62.5113 16.9121V14.1302C62.5497 14.1166 62.589 14.1058 62.629 14.0979C62.681 14.0869 62.734 14.0815 62.7872 14.0818C62.8697 14.0749 62.9519 14.0978 63.0195 14.1463C63.0467 14.1754 63.0674 14.2101 63.0801 14.2481C63.0928 14.2861 63.0972 14.3264 63.093 14.3663V14.9557H63.9582C63.9754 14.9881 63.9896 15.0221 64.0006 15.0573C64.0149 15.1023 64.0221 15.1493 64.0218 15.1966C64.0218 15.3647 63.9531 15.4486 63.8159 15.4482H63.093V16.869C63.0871 16.9255 63.0946 16.9825 63.1151 17.0353C63.1356 17.0881 63.1684 17.135 63.2107 17.1721" fill="#CC0066"/>
<path d="M65.5823 14.8115C65.8754 14.7951 66.1654 14.8793 66.4058 15.0506C66.5123 15.1439 66.5956 15.2614 66.6487 15.3937C66.7019 15.526 66.7234 15.6692 66.7116 15.8115V17.2001C66.7165 17.2754 66.6957 17.3501 66.6528 17.4117C66.607 17.4665 66.5537 17.5144 66.4946 17.554C66.3782 17.6203 66.2541 17.6717 66.1252 17.707C65.9515 17.7545 65.7721 17.7771 65.5923 17.7739C65.2952 17.7915 65.0003 17.7116 64.7512 17.5462C64.6503 17.469 64.5697 17.3677 64.5168 17.2512C64.4638 17.1347 64.4401 17.0066 64.4477 16.8785C64.4412 16.7674 64.4589 16.6562 64.4996 16.5529C64.5402 16.4496 64.6028 16.3566 64.683 16.2808C64.8774 16.1261 65.114 16.0362 65.3605 16.0231L66.1358 15.9371V15.8085C66.1421 15.7368 66.1309 15.6645 66.1034 15.5981C66.0758 15.5318 66.0326 15.4733 65.9776 15.4278C65.8479 15.3417 65.6946 15.2998 65.5399 15.3082C65.3952 15.3077 65.2513 15.3293 65.1129 15.3722C64.9857 15.411 64.862 15.4612 64.7435 15.5222C64.7064 15.4873 64.6746 15.447 64.6489 15.4027C64.6204 15.3544 64.6058 15.2989 64.6067 15.2426C64.6077 15.1863 64.6241 15.1314 64.6541 15.0841C64.693 15.0336 64.7438 14.9939 64.8018 14.9687C64.9146 14.913 65.0343 14.8728 65.1576 14.8492C65.2976 14.8217 65.4398 14.8082 65.5823 14.8091M65.5929 17.2856C65.7086 17.2879 65.8241 17.2734 65.9358 17.2425C66.0076 17.2249 66.0756 17.1939 66.1364 17.1511V16.3955L65.5352 16.4601C65.399 16.4693 65.2669 16.5116 65.15 16.5832C65.1072 16.616 65.0731 16.6591 65.051 16.7088C65.0289 16.7584 65.0195 16.8129 65.0235 16.8672C65.0212 16.9254 65.0324 16.9834 65.0562 17.0365C65.08 17.0896 65.1158 17.1362 65.1606 17.1726C65.2883 17.258 65.4405 17.2976 65.5929 17.285" fill="#CC0066"/>
<path d="M67.8135 17.7218C67.7299 17.7277 67.6467 17.7041 67.5783 17.6549C67.5495 17.6262 67.5275 17.5913 67.5138 17.5528C67.5 17.5144 67.4949 17.4732 67.4988 17.4325V13.8197L67.6094 13.7905C67.6611 13.7773 67.7143 13.7711 67.7677 13.7719C67.8509 13.766 67.9337 13.7885 68.0029 13.8359C68.0318 13.864 68.0539 13.8984 68.0677 13.9365C68.0814 13.9746 68.0864 14.0155 68.0823 14.0559V17.674C68.0506 17.6848 68.0113 17.6955 67.9647 17.7063C67.9145 17.7176 67.8632 17.723 67.8118 17.7224" fill="#CC0066"/>
<path d="M70.7319 16.4401V17.6733C70.6921 17.6863 70.6516 17.697 70.6107 17.7056C70.5586 17.7166 70.5056 17.722 70.4524 17.7217C70.365 17.7294 70.2779 17.7045 70.2072 17.6518C70.1792 17.6209 70.158 17.5844 70.1448 17.5447C70.1316 17.5049 70.1268 17.4628 70.1307 17.421V14.3492C70.1272 14.2916 70.1463 14.2349 70.1837 14.1914C70.2235 14.1508 70.2723 14.1205 70.326 14.1029C70.4609 14.0568 70.6007 14.0271 70.7424 14.0145C70.8993 13.9985 71.0487 13.9906 71.1906 13.9906C71.5769 13.9585 71.9609 14.0752 72.2664 14.3175C72.3839 14.4319 72.4758 14.5705 72.5358 14.7241C72.5959 14.8776 72.6228 15.0425 72.6146 15.2076C72.622 15.3735 72.5947 15.5392 72.5347 15.6937C72.4747 15.8482 72.3833 15.9881 72.2664 16.1042C71.9746 16.3503 71.5999 16.4715 71.2218 16.4419L70.7319 16.4401ZM71.1906 15.9201C71.4046 15.9325 71.6162 15.8691 71.7894 15.7408C71.8642 15.6753 71.9228 15.593 71.9608 15.5005C71.9988 15.4079 72.015 15.3076 72.0082 15.2076C72.0165 15.1095 72.002 15.0109 71.9658 14.9196C71.9296 14.8283 71.8728 14.747 71.8 14.6822C71.6243 14.5604 71.4135 14.5019 71.2012 14.516C71.1204 14.516 71.0377 14.5196 70.953 14.5267C70.8767 14.5328 70.8009 14.5436 70.726 14.559V15.9207L71.1906 15.9201Z" fill="#CC0066"/>
<path d="M74.2051 14.8115C74.4982 14.7951 74.7882 14.8793 75.0285 15.0506C75.1351 15.1438 75.2184 15.2614 75.2716 15.3937C75.3248 15.5259 75.3463 15.6692 75.3344 15.8115V17.2001C75.3393 17.2754 75.3185 17.3501 75.2756 17.4117C75.2298 17.4665 75.1765 17.5144 75.1174 17.554C75.0009 17.6203 74.8769 17.6717 74.748 17.707C74.5743 17.7546 74.3949 17.7771 74.2151 17.7739C73.918 17.7915 73.6231 17.7116 73.374 17.5462C73.2731 17.469 73.1925 17.3677 73.1396 17.2512C73.0866 17.1347 73.0629 17.0066 73.0705 16.8785C73.064 16.7674 73.0816 16.6562 73.1223 16.5529C73.163 16.4496 73.2256 16.3566 73.3057 16.2808C73.5001 16.1261 73.7368 16.0361 73.9833 16.0231L74.7586 15.9371V15.8085C74.7649 15.7368 74.7538 15.6645 74.7262 15.5981C74.6986 15.5317 74.6554 15.4732 74.6003 15.4278C74.4707 15.3416 74.3174 15.2997 74.1627 15.3082C74.0181 15.3077 73.8741 15.3293 73.7357 15.3722C73.6085 15.411 73.4849 15.4612 73.3663 15.5222C73.3292 15.4873 73.2973 15.447 73.2716 15.4027C73.2432 15.3544 73.2286 15.2989 73.2296 15.2426C73.2305 15.1863 73.2469 15.1314 73.2769 15.0841C73.3158 15.0336 73.3666 14.9939 73.4246 14.9687C73.5374 14.913 73.6571 14.8728 73.7804 14.8492C73.9203 14.8217 74.0626 14.8082 74.2051 14.8091M74.2157 17.2856C74.3314 17.2879 74.4469 17.2734 74.5586 17.2425C74.6304 17.2248 74.6984 17.1938 74.7592 17.1511V16.3955L74.158 16.4601C74.0218 16.4693 73.8897 16.5115 73.7728 16.5832C73.7299 16.616 73.6959 16.6591 73.6738 16.7088C73.6517 16.7584 73.6423 16.8129 73.6463 16.8672C73.644 16.9254 73.6552 16.9834 73.679 17.0365C73.7028 17.0896 73.7385 17.1362 73.7833 17.1726C73.9111 17.258 74.0633 17.2975 74.2157 17.285" fill="#CC0066"/>
<path d="M76.5849 17.0358C76.49 16.8393 76.3749 16.5624 76.2397 16.2049C76.1044 15.8475 75.9752 15.4436 75.8521 14.9933C75.8897 14.9483 75.9354 14.911 75.9867 14.8833C76.0408 14.8531 76.1015 14.8375 76.1632 14.8379C76.2348 14.8344 76.3054 14.8555 76.3638 14.8977C76.4266 14.9553 76.4707 15.031 76.4902 15.1146C76.5922 15.4362 76.6969 15.7534 76.8043 16.0662C76.9118 16.3791 77.0304 16.7016 77.1602 17.034H77.1814C77.2374 16.9053 77.2945 16.756 77.3525 16.5863C77.4106 16.4165 77.4668 16.236 77.5213 16.0447C77.5758 15.8534 77.6278 15.6596 77.6772 15.4631C77.7266 15.2667 77.7705 15.0792 77.809 14.9006C77.8446 14.8826 77.8816 14.8675 77.9195 14.8552C77.964 14.842 78.0102 14.8357 78.0566 14.8367C78.1297 14.8338 78.2019 14.8548 78.2625 14.8965C78.2914 14.9194 78.3142 14.9492 78.3288 14.9834C78.3435 15.0175 78.3496 15.0548 78.3466 15.0919C78.338 15.2515 78.3124 15.4096 78.2701 15.5635C78.2191 15.7744 78.1533 16.0085 78.0725 16.2659C77.9917 16.5233 77.8993 16.7823 77.7954 17.043C77.6915 17.304 77.5868 17.5363 77.4813 17.7399C77.3413 18.0227 77.1734 18.2902 76.9802 18.5385C76.9324 18.6124 76.8695 18.6751 76.7958 18.7222C76.7222 18.7693 76.6394 18.7998 76.5532 18.8117C76.508 18.8143 76.4628 18.8077 76.4202 18.792C76.3776 18.7764 76.3386 18.7522 76.3055 18.7208C76.2439 18.658 76.2029 18.5775 76.1879 18.4901C76.2568 18.4271 76.322 18.36 76.3832 18.2893C76.4534 18.2096 76.5238 18.1239 76.5944 18.0322C76.6649 17.9406 76.7326 17.8467 76.7973 17.7507C76.8586 17.6608 76.9123 17.5658 76.9578 17.4668C76.8891 17.4414 76.827 17.4005 76.7761 17.3472C76.6951 17.2535 76.6301 17.1466 76.5838 17.031" fill="#CC0066"/>
<path d="M82.0076 15.436C81.9013 15.3509 81.7679 15.3084 81.6328 15.3165C81.5318 15.316 81.4318 15.3363 81.3387 15.3762C81.2437 15.4172 81.1563 15.4742 81.08 15.5448C81.0872 15.5783 81.0925 15.6123 81.0958 15.6464C81.0994 15.6823 81.1012 15.7182 81.1012 15.7534V17.6728C81.0661 17.6867 81.0298 17.6975 80.9929 17.7051C80.9436 17.716 80.8933 17.7214 80.8429 17.7212C80.7567 17.728 80.6709 17.7044 80.6 17.6543C80.5714 17.6255 80.5495 17.5906 80.5359 17.5521C80.5222 17.5136 80.5172 17.4726 80.5212 17.4319V15.818C80.5273 15.7478 80.5183 15.6771 80.4946 15.6109C80.4709 15.5447 80.4332 15.4846 80.3842 15.4348C80.2779 15.3497 80.1445 15.3072 80.0094 15.3153C79.909 15.3147 79.8093 15.3329 79.7153 15.3691C79.634 15.4001 79.5563 15.4402 79.4836 15.4886V17.6758C79.4486 17.6897 79.4123 17.7005 79.3754 17.708C79.3241 17.7192 79.2719 17.7246 79.2195 17.7242C79.1358 17.7301 79.0527 17.7065 78.9843 17.6572C78.9555 17.6285 78.9335 17.5937 78.9197 17.5552C78.906 17.5167 78.9009 17.4756 78.9049 17.4349V15.4731C78.9009 15.3957 78.9182 15.3187 78.9548 15.2507C78.9989 15.184 79.0552 15.1266 79.1207 15.0816C79.393 14.9092 79.7069 14.8165 80.0277 14.8138C80.1878 14.8109 80.3472 14.8373 80.4982 14.8915C80.6286 14.9388 80.7462 15.0168 80.8412 15.1192C80.9517 15.0283 81.0753 14.9552 81.2076 14.9022C81.3664 14.8403 81.5356 14.8102 81.7058 14.8138C81.8452 14.8128 81.9839 14.833 82.1175 14.8735C82.2372 14.9089 82.3479 14.97 82.4422 15.0529C82.5347 15.1374 82.6077 15.2417 82.6557 15.3583C82.7117 15.4987 82.7388 15.6492 82.7351 15.8006V17.677C82.6965 17.6897 82.6572 17.7005 82.6175 17.7092C82.5682 17.7202 82.5179 17.7256 82.4675 17.7254C82.3838 17.7312 82.3007 17.7076 82.2322 17.6584C82.2035 17.6297 82.1815 17.5948 82.1677 17.5564C82.154 17.5179 82.1489 17.4768 82.1528 17.4361V15.8222C82.1592 15.752 82.1502 15.6812 82.1265 15.615C82.1028 15.5488 82.065 15.4887 82.0157 15.439" fill="#CC0066"/>
<path d="M83.9532 16.6071C83.987 16.8068 84.0945 16.986 84.2537 17.108C84.4254 17.2229 84.6283 17.28 84.8337 17.2712C84.9788 17.273 85.123 17.2466 85.2584 17.1935C85.3688 17.1511 85.4742 17.0961 85.5725 17.0297C85.6206 17.0552 85.6608 17.0937 85.6887 17.1409C85.7167 17.1882 85.7312 17.2424 85.7307 17.2975C85.73 17.3672 85.7038 17.4341 85.6571 17.4852C85.6009 17.5477 85.5326 17.598 85.4566 17.6328C85.3626 17.6772 85.264 17.7105 85.1625 17.7321C84.8464 17.7972 84.519 17.7766 84.2132 17.6723C84.0431 17.6117 83.8883 17.5137 83.7597 17.3854C83.6286 17.2521 83.5282 17.0911 83.4656 16.9137C83.3938 16.7063 83.3589 16.4875 83.3626 16.2676C83.3586 16.0534 83.3917 15.8401 83.4603 15.6376C83.5183 15.4687 83.6109 15.3143 83.732 15.1845C83.8475 15.0634 83.9867 14.9684 84.1408 14.9059C84.2993 14.8413 84.4688 14.8086 84.6396 14.8097C84.8067 14.8074 84.9725 14.8393 85.1272 14.9035C85.269 14.9626 85.3975 15.0504 85.505 15.1615C85.6125 15.2725 85.6966 15.4046 85.7524 15.5497C85.8134 15.7066 85.8437 15.8741 85.8418 16.0428C85.8453 16.0823 85.841 16.1221 85.8292 16.1598C85.8174 16.1976 85.7983 16.2326 85.773 16.2628C85.719 16.3133 85.6506 16.3451 85.5777 16.3537L83.9532 16.6071ZM84.639 15.2921C84.5435 15.2898 84.4486 15.3085 84.3608 15.3469C84.273 15.3853 84.1944 15.4424 84.1302 15.5144C83.9849 15.6904 83.9088 15.9148 83.9167 16.1445L85.2878 15.9352C85.2782 15.7672 85.2142 15.6071 85.106 15.4798C85.0467 15.4155 84.9741 15.3653 84.8935 15.3328C84.8128 15.3004 84.7256 15.2865 84.639 15.2921Z" fill="#CC0066"/>
<path d="M88.047 15.452C87.9296 15.3555 87.7812 15.3067 87.6305 15.3151C87.5123 15.3133 87.3946 15.3314 87.2823 15.3689C87.191 15.4004 87.1028 15.4404 87.0188 15.4884V17.6756C86.9837 17.6896 86.9475 17.7004 86.9106 17.7079C86.8594 17.719 86.8071 17.7245 86.7547 17.724C86.671 17.7299 86.5879 17.7062 86.5194 17.6571C86.4907 17.6284 86.4687 17.5935 86.4549 17.555C86.4412 17.5165 86.4361 17.4754 86.44 17.4347V15.4729C86.4363 15.3955 86.4536 15.3186 86.49 15.2505C86.5343 15.1838 86.5908 15.1264 86.6565 15.0814C86.7862 15.0072 86.9232 14.9471 87.0653 14.9021C87.2485 14.8425 87.44 14.8136 87.6323 14.8166C87.9358 14.799 88.2356 14.8911 88.4787 15.0766C88.5857 15.1749 88.6691 15.2968 88.7226 15.433C88.7761 15.5691 88.7983 15.7159 88.7875 15.862V17.6792C88.7504 17.6925 88.7125 17.7033 88.674 17.7115C88.623 17.7226 88.5709 17.728 88.5187 17.7276C88.435 17.7335 88.3519 17.7098 88.2834 17.6606C88.2548 17.6319 88.2329 17.597 88.2192 17.5585C88.2056 17.5201 88.2006 17.479 88.2046 17.4383V15.8841C88.2112 15.8061 88.2009 15.7275 88.1745 15.6539C88.1481 15.5803 88.1062 15.5134 88.0517 15.458" fill="#CC0066"/>
<path d="M90.2592 17.1727C90.357 17.237 90.4724 17.268 90.5887 17.2612C90.6565 17.2606 90.724 17.2508 90.7892 17.2319C90.8532 17.2148 90.9152 17.1906 90.9739 17.1595C90.9996 17.1933 91.0226 17.2291 91.0427 17.2665C91.0773 17.3362 91.0843 17.4166 91.0624 17.4914C91.0405 17.5662 90.9914 17.6296 90.9251 17.6688C90.7891 17.7455 90.6344 17.7808 90.4792 17.7704C90.2409 17.7828 90.0055 17.7119 89.8122 17.5696C89.723 17.4874 89.6538 17.3851 89.6103 17.271C89.5668 17.1568 89.5501 17.0339 89.5616 16.9121V14.1302C89.6 14.1166 89.6394 14.1058 89.6793 14.0979C89.7314 14.0869 89.7843 14.0815 89.8375 14.0818C89.92 14.0749 90.0022 14.0978 90.0698 14.1463C90.0972 14.1753 90.1179 14.21 90.1307 14.248C90.1435 14.286 90.148 14.3264 90.1439 14.3663V14.9557H91.0092C91.0265 14.9881 91.0407 15.0221 91.0516 15.0573C91.0659 15.1022 91.0731 15.1493 91.0727 15.1966C91.0727 15.3647 91.0041 15.4486 90.8668 15.4482H90.1439V16.869C90.138 16.9255 90.1456 16.9825 90.1661 17.0353C90.1865 17.0881 90.2194 17.135 90.2616 17.1721" fill="#CC0066"/>
<path d="M93.6116 16.9177C93.6168 17.0366 93.5945 17.1551 93.5464 17.2636C93.4982 17.3721 93.4257 17.4676 93.3345 17.5424C93.0999 17.7096 92.8158 17.79 92.5299 17.7701C92.3937 17.7711 92.2578 17.7585 92.1241 17.7325C92.0164 17.7126 91.9118 17.6785 91.8129 17.6309C91.7362 17.5939 91.6681 17.541 91.6129 17.4754C91.5656 17.4205 91.5393 17.35 91.5388 17.277C91.5386 17.2199 91.5522 17.1637 91.5782 17.1132C91.605 17.0607 91.6457 17.017 91.6958 16.9871C91.807 17.0637 91.9252 17.1291 92.0487 17.1825C92.1958 17.2442 92.3538 17.2743 92.5129 17.271C92.6473 17.2799 92.7812 17.2483 92.8981 17.1801C92.9405 17.1517 92.9749 17.1126 92.998 17.0666C93.0211 17.0206 93.032 16.9693 93.0298 16.9177C93.0321 16.8738 93.0253 16.8298 93.0099 16.7886C92.9945 16.7474 92.9709 16.71 92.9404 16.6786C92.8634 16.6106 92.7708 16.5635 92.671 16.5418L92.2911 16.4348C92.0848 16.3871 91.894 16.2865 91.737 16.1425C91.6758 16.0744 91.6286 15.9945 91.5983 15.9075C91.568 15.8205 91.5552 15.7283 91.5606 15.6362C91.56 15.5242 91.5835 15.4134 91.6294 15.3116C91.6749 15.2101 91.7425 15.1204 91.827 15.0492C91.9233 14.9706 92.0335 14.9115 92.1517 14.8752C92.2951 14.8303 92.4445 14.8085 92.5946 14.8107C92.7185 14.8094 92.8424 14.821 92.964 14.8454C93.0612 14.8648 93.1559 14.8955 93.2463 14.9368C93.3176 14.9682 93.3808 15.0159 93.431 15.0761C93.473 15.1262 93.4963 15.1896 93.4969 15.2554C93.4981 15.3116 93.4845 15.3671 93.4575 15.4162C93.4331 15.4602 93.3998 15.4985 93.3598 15.5286C93.2635 15.4731 93.163 15.4255 93.0593 15.3863C92.9247 15.3337 92.7816 15.3073 92.6375 15.3086C92.5089 15.3012 92.3809 15.3308 92.2682 15.3941C92.2331 15.4165 92.2033 15.4464 92.1809 15.4817C92.1584 15.517 92.1439 15.5569 92.1383 15.5986C92.1327 15.6403 92.1361 15.6827 92.1484 15.7228C92.1607 15.763 92.1815 15.7999 92.2094 15.831C92.2831 15.8956 92.3724 15.9391 92.4681 15.9572L92.7952 16.0432C93.0251 16.0977 93.238 16.2092 93.4151 16.3678C93.4829 16.441 93.5354 16.5274 93.5694 16.6219C93.6034 16.7163 93.6181 16.8168 93.6128 16.9171" fill="#CC0066"/>
<path d="M13.102 8.48779V18.9525C13.102 19.6376 12.8952 20.3061 12.5095 20.8679C12.1238 21.4298 11.5777 21.8578 10.9451 22.0943L1.55406 25.6042C1.40625 25.6596 1.24746 25.6779 1.09122 25.6575C0.934968 25.637 0.785888 25.5786 0.656671 25.487C0.527454 25.3954 0.421929 25.2735 0.349081 25.1315C0.276233 24.9896 0.238221 24.8318 0.238281 24.6717V15.7922C0.238583 15.2582 0.399785 14.7371 0.70021 14.299C1.00063 13.8608 1.42587 13.5267 1.91873 13.3415L10.5986 10.079C11.9685 9.51531 12.5038 9.17042 13.1025 8.49078" fill="white"/>
<path d="M21.3581 11.1357C21.3483 11.5248 21.1934 11.8956 20.9248 12.173C20.6562 12.4505 20.2939 12.6139 19.9112 12.6301H17.9431C17.8297 12.6328 17.7198 12.5897 17.6376 12.5101C17.5554 12.4305 17.5077 12.321 17.5049 12.2057V7.84933C17.5041 7.79155 17.5146 7.73418 17.536 7.68062C17.5573 7.62706 17.5891 7.5784 17.6293 7.53754C17.6695 7.49668 17.7174 7.46443 17.7701 7.44273C17.8228 7.42102 17.8792 7.4103 17.9361 7.41118H19.8353C20.1194 7.42645 20.393 7.52514 20.623 7.69528C20.853 7.86541 21.0295 8.0997 21.1312 8.36974C21.2328 8.63977 21.2551 8.93396 21.1955 9.21664C21.1359 9.49933 20.9968 9.75837 20.7953 9.96236C20.9689 10.1032 21.1096 10.2816 21.207 10.4845C21.3045 10.6875 21.3557 10.9099 21.3581 11.1357ZM18.3402 9.5816L19.7383 9.56725C19.9081 9.56158 20.0695 9.49048 20.1896 9.36838C20.3097 9.24628 20.3797 9.08232 20.3853 8.90973C20.3843 8.74373 20.3199 8.58462 20.2056 8.46596C20.0914 8.3473 19.9363 8.27838 19.773 8.27373H18.3402V9.5816ZM20.4965 11.1357C20.4848 10.9598 20.4093 10.7946 20.2847 10.6719C20.1601 10.5493 19.9952 10.4779 19.8218 10.4716H18.3749V11.7789H19.863C20.0291 11.7735 20.1871 11.704 20.3046 11.5846C20.4222 11.4651 20.4906 11.3046 20.4959 11.1357" fill="white"/>
<path d="M24.7815 10.4716H24.1486V12.205C24.1461 12.3192 24.0994 12.4277 24.0187 12.507C23.938 12.5864 23.8297 12.6301 23.7174 12.6288C23.6069 12.6285 23.5009 12.5838 23.4227 12.5044C23.3444 12.425 23.3003 12.3174 23.2998 12.205V7.83493C23.3033 7.72118 23.3503 7.61331 23.4308 7.53418C23.5113 7.45506 23.619 7.41092 23.7309 7.41113H25.2538C25.6453 7.41982 26.0187 7.58083 26.2968 7.86098C26.575 8.14112 26.7368 8.51905 26.7489 8.91686C26.7417 9.23768 26.6387 9.5487 26.4536 9.80872C26.2685 10.0687 26.0101 10.2655 25.7126 10.373L26.6795 11.9773C26.7359 12.0761 26.7522 12.1933 26.725 12.3041C26.6978 12.4149 26.6291 12.5106 26.5337 12.5709C26.4675 12.6078 26.3933 12.6273 26.3178 12.6277C26.2453 12.6276 26.1741 12.6087 26.1108 12.5728C26.0474 12.537 25.9942 12.4853 25.9561 12.4226L24.7815 10.4716ZM25.9084 8.92343C25.9005 8.74617 25.8248 8.57903 25.6975 8.45758C25.5702 8.33613 25.4013 8.26994 25.2267 8.27308H24.1486V9.60904H25.2267C25.4063 9.60921 25.5788 9.53726 25.7064 9.40885C25.8341 9.28044 25.9067 9.10597 25.9084 8.92343Z" fill="white"/>
<path d="M31.6317 12.6274C30.9534 12.62 30.3056 12.34 29.8299 11.8486C29.3542 11.3572 29.0893 10.6944 29.0931 10.0051C29.1019 9.49758 29.258 9.00403 29.5418 8.58634C29.8255 8.16866 30.2244 7.84545 30.6883 7.65727C31.1521 7.46909 31.6604 7.42432 32.1492 7.52858C32.638 7.63284 33.0856 7.88148 33.4359 8.24331C33.7862 8.60514 34.0235 9.06404 34.1181 9.56243C34.2127 10.0608 34.1604 10.5765 33.9677 11.0448C33.775 11.5131 33.4505 11.9131 33.0349 12.1946C32.6193 12.4762 32.1311 12.6267 31.6317 12.6274ZM29.9136 10.0051C29.9142 10.3511 30.0157 10.6893 30.2054 10.9767C30.3951 11.2641 30.6644 11.4879 30.9792 11.6197C31.2941 11.7516 31.6403 11.7856 31.9742 11.7174C32.3081 11.6493 32.6145 11.4821 32.8549 11.2369C33.0952 10.9918 33.2586 10.6797 33.3244 10.3401C33.3902 10.0006 33.3554 9.64883 33.2245 9.32937C33.0935 9.00991 32.8723 8.73709 32.5888 8.5454C32.3053 8.35372 31.9722 8.25178 31.6317 8.25249C31.1763 8.25703 30.7409 8.44335 30.4195 8.77123C30.098 9.09911 29.9163 9.54226 29.9136 10.0051Z" fill="white"/>
<path d="M40.1726 12.5926C40.1188 12.6139 40.0613 12.6241 40.0035 12.6224C39.9458 12.6207 39.8889 12.6072 39.8364 12.5828C39.7838 12.5584 39.7366 12.5235 39.6976 12.4802C39.6586 12.437 39.6285 12.3861 39.6091 12.3308L38.4328 9.10299L37.2505 12.3308C37.2325 12.3863 37.2034 12.4374 37.1652 12.481C37.1269 12.5246 37.0803 12.5598 37.0281 12.5843C36.976 12.6089 36.9194 12.6223 36.8619 12.6237C36.8045 12.6251 36.7473 12.6146 36.6941 12.5926C36.6392 12.5735 36.5888 12.5433 36.5458 12.5037C36.5029 12.4642 36.4683 12.4161 36.4442 12.3626C36.4201 12.309 36.407 12.251 36.4056 12.1921C36.4043 12.1332 36.4148 12.0746 36.4364 12.02L38.0081 7.68694C38.0411 7.60036 38.0995 7.52615 38.1753 7.47432C38.2512 7.42248 38.3408 7.39551 38.4322 7.39703C38.5231 7.39748 38.6119 7.42524 38.6873 7.47682C38.7628 7.5284 38.8216 7.60151 38.8562 7.68694L40.4279 12.02C40.4496 12.0746 40.46 12.1331 40.4588 12.192C40.4575 12.2509 40.4444 12.3088 40.4204 12.3624C40.3963 12.416 40.3618 12.464 40.3189 12.5036C40.276 12.5432 40.2256 12.5735 40.1708 12.5926" fill="white"/>
<path d="M42.1826 12.204V7.85598C42.1853 7.74444 42.2301 7.63822 42.3077 7.55933C42.3854 7.48044 42.4899 7.43491 42.5996 7.43218H43.636C44.0093 7.42995 44.3789 7.50691 44.7212 7.65813C45.0502 7.80481 45.3443 8.02171 45.5835 8.29412C45.8222 8.56955 46.0003 8.8936 46.1059 9.2446C46.2115 9.59559 46.2422 9.96545 46.1958 10.3294C46.1191 10.9615 45.8183 11.5435 45.3497 11.9664C44.881 12.3892 44.2768 12.624 43.6501 12.6266H42.6002C42.4905 12.6239 42.3859 12.5783 42.3083 12.4994C42.2307 12.4205 42.1859 12.3143 42.1832 12.2028M45.3547 10.2302C45.3915 9.9861 45.375 9.73676 45.3065 9.49982C45.238 9.26287 45.1191 9.04411 44.9583 8.85899C44.7919 8.67103 44.5879 8.52145 44.36 8.4203C44.132 8.31916 43.8853 8.2688 43.6366 8.27261H43.0178V11.7784H43.6507C44.0726 11.7786 44.4798 11.6208 44.7944 11.3352C45.1091 11.0496 45.3092 10.6563 45.3565 10.2302" fill="white"/>
<path d="M50.327 11.8998C50.1188 12.2193 49.7981 12.4457 49.4308 12.5324C49.0634 12.6191 48.6774 12.5596 48.3519 12.366C48.2521 12.3045 48.1783 12.2075 48.145 12.0938C48.1116 11.9802 48.121 11.858 48.1713 11.7509C48.2468 11.6622 48.3524 11.6057 48.4671 11.5927C48.5818 11.5796 48.6971 11.6109 48.7901 11.6804C48.9343 11.7599 49.1028 11.7809 49.2616 11.7389C49.4203 11.697 49.5575 11.5953 49.6453 11.4545C49.6938 11.3812 49.7276 11.2989 49.7448 11.2123C49.762 11.1257 49.7622 11.0365 49.7454 10.9499C49.7286 10.8632 49.6952 10.7807 49.6471 10.7072C49.5989 10.6337 49.537 10.5705 49.4648 10.5214C49.1242 10.302 49.1118 10.2954 48.783 10.0761C48.4575 9.86137 48.2292 9.52408 48.1483 9.13836C48.0675 8.75264 48.1407 8.35008 48.3519 8.01921C48.5622 7.70229 48.8828 7.478 49.2492 7.3914C49.6156 7.3048 50.0007 7.36231 50.327 7.55237C50.4236 7.60969 50.4947 7.70251 50.5258 7.81165C50.5569 7.92079 50.5456 8.0379 50.4941 8.13876C50.4251 8.23119 50.3237 8.29306 50.211 8.31154C50.0983 8.33002 49.9829 8.30367 49.8888 8.23798C49.7383 8.16013 49.5642 8.14385 49.4023 8.1925C49.2404 8.24115 49.1029 8.35103 49.0183 8.49952C48.9337 8.64802 48.9083 8.82383 48.9474 8.99078C48.9864 9.15773 49.0869 9.30312 49.2283 9.39701C49.4047 9.50999 49.4048 9.50998 49.9029 9.84233C50.0638 9.94898 50.2024 10.0868 50.3108 10.2479C50.4192 10.4091 50.4953 10.5904 50.5346 10.7814C50.574 10.9724 50.5759 11.1695 50.5403 11.3613C50.5047 11.5531 50.4322 11.7365 50.327 11.8998Z" fill="white"/>
<path d="M55.0228 10.459C54.6338 10.4871 54.2436 10.4919 53.854 10.4733V12.2068C53.8516 12.3209 53.8049 12.4294 53.7242 12.5088C53.6435 12.5881 53.5352 12.6319 53.4229 12.6306C53.3125 12.6301 53.2066 12.5853 53.1285 12.5059C53.0504 12.4266 53.0064 12.3191 53.0059 12.2068V7.84864C53.0052 7.79279 53.0155 7.73735 53.0362 7.68561C53.0569 7.63386 53.0876 7.58685 53.1264 7.54736C53.1653 7.50786 53.2116 7.47667 53.2625 7.45563C53.3134 7.43459 53.3679 7.42412 53.4229 7.42484H54.981C55.3693 7.43713 55.7379 7.60126 56.01 7.88302C56.2821 8.16477 56.4367 8.54239 56.4415 8.93713C56.4352 9.32493 56.2859 9.69621 56.0232 9.97756C55.7605 10.2589 55.4035 10.4299 55.0228 10.4566M54.9257 8.27304H53.8546V9.609H54.9257C55.105 9.60793 55.2767 9.53557 55.4041 9.40743C55.5315 9.27928 55.6045 9.10553 55.6074 8.92338C55.5983 8.74653 55.5223 8.58011 55.3953 8.4589C55.2682 8.3377 55.1 8.2711 54.9257 8.27304Z" fill="white"/>
<path d="M58.6665 12.2038V7.83546C58.667 7.7232 58.7111 7.61568 58.7892 7.53631C58.8673 7.45693 58.9731 7.41213 59.0835 7.41166H61.5892C61.7015 7.41021 61.8099 7.45395 61.8907 7.53333C61.9714 7.61271 62.018 7.7213 62.0204 7.83546C62.0197 7.95147 61.9741 8.06255 61.8934 8.14458C61.8127 8.22661 61.7034 8.27298 61.5892 8.2736H59.5164V9.60956H61.0816C61.1366 9.60884 61.1911 9.61931 61.242 9.64035C61.2929 9.66139 61.3392 9.69258 61.3781 9.73208C61.4169 9.77158 61.4476 9.81859 61.4683 9.87033C61.489 9.92208 61.4993 9.97751 61.4986 10.0334C61.4994 10.0893 61.4892 10.1448 61.4685 10.1966C61.4478 10.2484 61.4172 10.2955 61.3783 10.335C61.3394 10.3746 61.2931 10.4058 61.2422 10.4269C61.1912 10.448 61.1366 10.4585 61.0816 10.4578H59.5164V11.765H61.5892C61.7034 11.7657 61.8127 11.812 61.8934 11.8941C61.9741 11.9761 62.0197 12.0872 62.0204 12.2032C62.0179 12.3173 61.9712 12.4258 61.8905 12.5051C61.8098 12.5845 61.7015 12.6283 61.5892 12.627H59.0853C58.9749 12.6265 58.869 12.5817 58.7909 12.5023C58.7128 12.423 58.6687 12.3154 58.6683 12.2032" fill="white"/>
<path d="M68.5644 12.0624C68.1215 12.4203 67.5721 12.6147 67.0063 12.6135C66.3256 12.6135 65.6728 12.3387 65.1914 11.8495C64.7101 11.3604 64.4397 10.697 64.4397 10.0052C64.4397 9.31348 64.7101 8.65006 65.1914 8.16091C65.6728 7.67177 66.3256 7.39697 67.0063 7.39697C67.4687 7.39761 67.9217 7.52993 68.3138 7.77893C68.3631 7.80496 68.4067 7.84086 68.442 7.88446C68.4772 7.92805 68.5035 7.97845 68.5191 8.03262C68.5347 8.08679 68.5393 8.1436 68.5327 8.19965C68.5262 8.2557 68.5086 8.30981 68.4809 8.35874C68.4526 8.4072 68.4148 8.44922 68.3699 8.48217C68.325 8.51512 68.2738 8.53829 68.2197 8.55024C68.1655 8.56219 68.1095 8.56266 68.0552 8.55162C68.0008 8.54058 67.9493 8.51826 67.9038 8.48606C67.6325 8.32227 67.3224 8.23671 67.0068 8.2386C66.7813 8.2386 66.5579 8.28377 66.3495 8.37153C66.1412 8.45929 65.9518 8.58792 65.7924 8.75007C65.6329 8.91221 65.5065 9.1047 65.4203 9.31653C65.3341 9.52836 65.2898 9.75538 65.2899 9.98461C65.2822 10.3129 65.3657 10.6368 65.5309 10.9191C65.6961 11.2013 65.9362 11.4305 66.2238 11.5803C66.5114 11.7301 66.8347 11.7945 67.1566 11.766C67.4786 11.7375 67.7861 11.6173 68.0438 11.4192C68.0843 11.384 68.1312 11.3573 68.1819 11.3407C68.2326 11.3242 68.286 11.318 68.339 11.3226C68.3921 11.3272 68.4437 11.3425 68.4909 11.3676C68.5381 11.3927 68.5798 11.4271 68.6138 11.4688C68.6845 11.5542 68.7192 11.6646 68.71 11.7758C68.7009 11.8871 68.6487 11.9901 68.565 12.0624" fill="white"/>
<path d="M74.3569 7.82813C74.3569 7.88354 74.3461 7.93839 74.325 7.98951C74.304 8.04063 74.2732 8.08699 74.2344 8.12592C74.1956 8.16484 74.1496 8.19555 74.0991 8.21626C74.0485 8.23697 73.9944 8.24726 73.9399 8.24655H72.9182V12.2048C72.9182 12.3163 72.8746 12.4233 72.797 12.5022C72.7194 12.581 72.6141 12.6253 72.5044 12.6253C72.3947 12.6253 72.2894 12.581 72.2118 12.5022C72.1342 12.4233 72.0906 12.3163 72.0906 12.2048V8.24536H71.0683C70.9586 8.24536 70.8533 8.20106 70.7757 8.12219C70.6981 8.04333 70.6545 7.93637 70.6545 7.82484C70.6545 7.71332 70.6981 7.60636 70.7757 7.5275C70.8533 7.44863 70.9586 7.40433 71.0683 7.40433H73.9404C73.9954 7.40361 74.05 7.41408 74.1009 7.43512C74.1518 7.45616 74.198 7.48735 74.2369 7.52685C74.2758 7.56635 74.3065 7.61335 74.3272 7.6651C74.3479 7.71684 74.3576 7.77228 74.3569 7.82813Z" fill="white"/>
<path d="M77.926 10.4716H77.2931V12.205C77.2906 12.3192 77.244 12.4277 77.1632 12.507C77.0825 12.5864 76.9742 12.6301 76.8619 12.6288C76.7514 12.6285 76.6454 12.5838 76.5672 12.5044C76.489 12.425 76.4448 12.3174 76.4443 12.205V7.83493C76.4479 7.72118 76.4948 7.61331 76.5753 7.53418C76.6558 7.45506 76.7635 7.41092 76.8755 7.41113H78.3989C78.7904 7.41982 79.1637 7.58083 79.4419 7.86098C79.7201 8.14112 79.8819 8.51905 79.8941 8.91686C79.8868 9.23768 79.7838 9.5487 79.5987 9.80872C79.4137 10.0687 79.1552 10.2655 78.8577 10.373L79.8246 11.9773C79.8809 12.0762 79.8971 12.1935 79.8698 12.3043C79.8424 12.4151 79.7737 12.5107 79.6781 12.5709C79.612 12.6078 79.5378 12.6274 79.4623 12.6277C79.3898 12.6276 79.3185 12.6087 79.2552 12.5728C79.1919 12.537 79.1387 12.4853 79.1006 12.4226L77.926 10.4716ZM79.0529 8.92343C79.045 8.74617 78.9693 8.57903 78.842 8.45758C78.7147 8.33613 78.5458 8.26994 78.3712 8.27308H77.2931V9.60904H78.3712C78.5509 9.60921 78.7233 9.53726 78.8509 9.40885C78.9786 9.28044 79.0512 9.10597 79.0529 8.92343Z" fill="white"/>
<path d="M85.9937 7.82776V10.7185C85.9981 10.9719 85.9528 11.2237 85.8604 11.4591C85.768 11.6946 85.6304 11.909 85.4556 12.0898C85.2808 12.2706 85.0723 12.4143 84.8423 12.5123C84.6123 12.6103 84.3653 12.6608 84.1159 12.6608C83.8664 12.6608 83.6195 12.6103 83.3895 12.5123C83.1595 12.4143 82.951 12.2706 82.7762 12.0898C82.6014 11.909 82.4637 11.6946 82.3713 11.4591C82.279 11.2237 82.2337 10.9719 82.2381 10.7185V7.82776C82.2381 7.71338 82.2828 7.60368 82.3624 7.5228C82.442 7.44192 82.5499 7.39648 82.6624 7.39648C82.775 7.39648 82.883 7.44192 82.9626 7.5228C83.0421 7.60368 83.0868 7.71338 83.0868 7.82776V10.7185C83.0868 10.9978 83.196 11.2657 83.3904 11.4632C83.5848 11.6607 83.8483 11.7717 84.1232 11.7717C84.3981 11.7717 84.6617 11.6607 84.8561 11.4632C85.0504 11.2657 85.1596 10.9978 85.1596 10.7185V7.82776C85.1589 7.77191 85.1692 7.71647 85.1899 7.66472C85.2106 7.61298 85.2413 7.56597 85.2802 7.52647C85.3191 7.48698 85.3653 7.45579 85.4162 7.43475C85.4671 7.4137 85.5217 7.40324 85.5767 7.40396C85.6316 7.40324 85.6861 7.4137 85.7371 7.43475C85.788 7.45579 85.8343 7.48698 85.8731 7.52647C85.912 7.56597 85.9427 7.61298 85.9634 7.66472C85.9841 7.71647 85.9944 7.77191 85.9937 7.82776Z" fill="white"/>
<path d="M93.4845 12.1118C93.4995 12.1638 93.504 12.2183 93.4976 12.2722C93.4913 12.326 93.4743 12.378 93.4477 12.4249C93.421 12.4718 93.3852 12.5128 93.3425 12.5453C93.2998 12.5778 93.2511 12.6011 93.1992 12.6139H93.1781C93.171 12.6139 93.171 12.6139 93.1645 12.6282H93.1157C93.0183 12.6274 92.9243 12.5925 92.8494 12.5295C92.7744 12.4665 92.723 12.3791 92.704 12.2821L92.1334 9.45479L91.0835 12.3174C91.0556 12.4038 91.0016 12.479 90.9291 12.5323C90.8567 12.5857 90.7694 12.6144 90.68 12.6144C90.5905 12.6144 90.5034 12.5857 90.4309 12.5323C90.3584 12.479 90.3044 12.4038 90.2765 12.3174L89.3513 9.58928L88.8643 12.2821C88.8489 12.3815 88.7987 12.4718 88.7231 12.5367C88.6475 12.6016 88.5515 12.6366 88.4525 12.6354C88.4313 12.6354 88.4037 12.6282 88.3831 12.6282C88.3273 12.62 88.274 12.5992 88.2271 12.5673C88.1802 12.5355 88.1408 12.4934 88.112 12.4441C88.0784 12.4008 88.0548 12.3504 88.0428 12.2967C88.0307 12.2429 88.0307 12.1871 88.0425 12.1333L88.759 7.75122C88.7768 7.65583 88.8255 7.56923 88.8973 7.50522C88.9692 7.44121 89.0601 7.40345 89.1554 7.39795H89.1901C89.2799 7.39789 89.3673 7.42681 89.4398 7.48053C89.5124 7.53425 89.5662 7.60998 89.5936 7.69682L90.6923 10.8422L91.8399 7.68247C91.8667 7.59794 91.9199 7.52459 91.9915 7.47357C92.063 7.42255 92.149 7.39663 92.2363 7.39974H92.2575C92.3525 7.40037 92.4441 7.43567 92.5156 7.49921C92.587 7.56274 92.6336 7.65028 92.6469 7.74584L93.4845 12.1118Z" fill="white"/>
</g>
</svg>
