<svg width="75" height="21" viewBox="0 0 75 21" fill="none" xmlns="http://www.w3.org/2000/svg">
<mask id="mask0_2057_99368" style="mask-type:luminance" maskUnits="userSpaceOnUse" x="0" y="0" width="75" height="21">
<path d="M74.3678 0.588867H0.367188V20.3649H74.3678V0.588867Z" fill="white"/>
</mask>
<g mask="url(#mask0_2057_99368)">
<path d="M8.40602 3.58208L1.65096 0.664729C1.51066 0.604042 1.35775 0.579644 1.20589 0.593719C1.05404 0.607794 0.907992 0.659902 0.780808 0.745382C0.653625 0.830863 0.549275 0.947049 0.477093 1.08355C0.404912 1.22004 0.367151 1.3726 0.367188 1.52756V9.03594C0.367183 9.19559 0.405244 9.35285 0.478111 9.49428C0.550979 9.63571 0.656484 9.75709 0.785596 9.84803C0.914707 9.93897 1.06358 9.99677 1.21947 10.0165C1.37536 10.0362 1.53363 10.0172 1.68072 9.96114L6.16255 8.25344L1.30689 6.1975C1.23736 6.16482 1.183 6.10604 1.1552 6.0335C1.12741 5.96096 1.12836 5.8803 1.15784 5.80845C1.18733 5.7366 1.24305 5.67915 1.31333 5.64817C1.3836 5.61719 1.46295 5.61508 1.53472 5.64228L6.97485 7.94441L8.50413 7.36132C11.121 6.43896 11.2572 4.59612 8.40649 3.58114M9.04628 5.97021C9.01606 6.04367 8.95844 6.10196 8.88602 6.13234C8.81361 6.16272 8.7323 6.1627 8.65989 6.13229L1.19623 2.97347C1.16035 2.9583 1.12777 2.9361 1.10034 2.90813C1.07291 2.88016 1.05117 2.84698 1.03636 2.81047C1.00645 2.73674 1.00659 2.65396 1.03674 2.58034C1.06689 2.50671 1.12459 2.44827 1.19714 2.41788C1.26969 2.38748 1.35115 2.38762 1.4236 2.41826L8.8868 5.57802C8.92274 5.59317 8.95539 5.61538 8.98287 5.64338C9.01035 5.67138 9.03212 5.70462 9.04694 5.74118C9.06175 5.77775 9.06932 5.81693 9.06921 5.85647C9.0691 5.89602 9.06131 5.93515 9.04628 5.97163" fill="#CC0066"/>
<path d="M44.6299 12.6011C44.6342 12.8273 44.5996 13.0524 44.5276 13.2664C44.4667 13.4439 44.3678 13.6053 44.2379 13.739C44.1109 13.8659 43.9569 13.9616 43.7878 14.0187C43.5994 14.0816 43.4021 14.1124 43.2038 14.1099C43.1108 14.1099 43.0009 14.1056 42.8741 14.0971C42.7546 14.0904 42.6367 14.0662 42.524 14.0253C42.4662 14.0137 42.4141 13.982 42.3769 13.9356C42.3396 13.8892 42.3194 13.831 42.3199 13.7711V11.4146C42.3172 11.3691 42.3322 11.3242 42.3618 11.2899C42.3932 11.2578 42.4318 11.2338 42.4743 11.2199C42.5849 11.185 42.6988 11.1621 42.8142 11.1519C42.935 11.1406 43.0526 11.1349 43.1666 11.1349C43.3687 11.1326 43.5698 11.1626 43.7627 11.2237C43.936 11.2779 44.095 11.3713 44.2277 11.4968C44.3594 11.6257 44.4612 11.7828 44.5257 11.9566C44.6005 12.1626 44.6366 12.3811 44.6322 12.6007M44.1444 12.6049C44.1481 12.4422 44.1234 12.2802 44.0714 12.1262C44.0287 12.0031 43.9587 11.8916 43.8669 11.8002C43.7788 11.715 43.6734 11.6505 43.5581 11.6112C43.4351 11.5695 43.3061 11.5487 43.1764 11.5498C43.0477 11.5476 42.9191 11.559 42.7928 11.5838V13.6601C42.8566 13.6751 42.9214 13.685 42.9867 13.6898C43.0577 13.6955 43.1307 13.6983 43.2057 13.6983C43.3347 13.7071 43.464 13.6869 43.5845 13.6393C43.705 13.5917 43.8138 13.5178 43.9031 13.4228C44.0789 13.1892 44.1643 12.8982 44.143 12.6049" fill="#CC0066"/>
<path d="M45.1223 11.1732C45.1212 11.1355 45.1275 11.0979 45.1407 11.0626C45.154 11.0274 45.1739 10.9951 45.1994 10.9677C45.2255 10.9402 45.257 10.9185 45.2918 10.9043C45.3267 10.89 45.3642 10.8835 45.4017 10.885C45.4386 10.8838 45.4753 10.8905 45.5095 10.9048C45.5436 10.919 45.5744 10.9405 45.5998 10.9677C45.6495 11.0242 45.677 11.0974 45.677 11.1732C45.677 11.249 45.6495 11.3222 45.5998 11.3788C45.5744 11.406 45.5436 11.4274 45.5095 11.4417C45.4753 11.4559 45.4386 11.4627 45.4017 11.4615C45.3642 11.463 45.3267 11.4564 45.2918 11.4421C45.257 11.4279 45.2255 11.4063 45.1994 11.3788C45.1739 11.3514 45.1539 11.3191 45.1407 11.2838C45.1275 11.2485 45.1212 11.211 45.1223 11.1732ZM45.6309 14.0462C45.6032 14.0572 45.5746 14.0657 45.5454 14.0717C45.505 14.0805 45.4639 14.0847 45.4226 14.0844C45.3552 14.0901 45.2881 14.0713 45.2329 14.0315C45.2109 14.0084 45.1941 13.9807 45.1836 13.9504C45.1732 13.92 45.1694 13.8877 45.1725 13.8557V11.8622L45.2599 11.839C45.3008 11.8286 45.3428 11.8237 45.385 11.8244C45.4512 11.8189 45.5171 11.8377 45.571 11.8773C45.5925 11.9015 45.6089 11.93 45.6189 11.961C45.6289 11.992 45.6324 12.0248 45.6291 12.0573L45.6309 14.0462Z" fill="#CC0066"/>
<path d="M47.6134 13.8469C47.55 13.8877 47.4813 13.9195 47.4093 13.9414C47.3158 13.9687 47.2188 13.9816 47.1215 13.9797C46.9962 13.9805 46.8717 13.9603 46.7528 13.9201C46.6381 13.881 46.5335 13.8164 46.4464 13.7311C46.3526 13.6373 46.2813 13.5229 46.2381 13.3966C46.1838 13.2321 46.1585 13.0592 46.1632 12.8858C46.1601 12.7236 46.1855 12.5622 46.2381 12.409C46.2833 12.2797 46.3568 12.1624 46.4529 12.066C46.547 11.9735 46.6592 11.902 46.7821 11.8562C46.9191 11.8064 47.0639 11.782 47.2094 11.7843C47.3437 11.7831 47.4773 11.8031 47.6055 11.8434C47.7118 11.876 47.8129 11.9237 47.9059 11.9852C47.9505 12.0163 47.9887 12.0559 48.0184 12.1019C48.0477 12.1509 48.0622 12.2076 48.0603 12.2649V14.1158C48.0639 14.2552 48.0384 14.3939 47.9854 14.5226C47.939 14.6309 47.8666 14.7256 47.7748 14.7981C47.6791 14.8712 47.5698 14.9237 47.4535 14.9526C47.3232 14.9854 47.1893 15.0013 47.055 14.9998C46.9256 15.0019 46.7966 14.986 46.6714 14.9526C46.5875 14.9307 46.5064 14.899 46.4296 14.8581C46.37 14.8211 46.3262 14.7627 46.3069 14.6944C46.2876 14.6262 46.2943 14.5531 46.3255 14.4895C46.3449 14.4529 46.3736 14.4222 46.4087 14.4007C46.4906 14.4594 46.5805 14.5058 46.6756 14.5382C46.7907 14.5798 46.912 14.6006 47.0341 14.5996C47.1858 14.609 47.3363 14.5664 47.4614 14.4787C47.515 14.4307 47.5566 14.3706 47.583 14.3032C47.6095 14.2358 47.6199 14.163 47.6134 14.0907V13.8469ZM47.1838 13.5927C47.2703 13.5951 47.3563 13.579 47.4363 13.5454C47.499 13.5181 47.5561 13.4793 47.6051 13.4311V12.2918C47.555 12.2596 47.5011 12.234 47.4447 12.2157C47.3712 12.1918 47.2944 12.1804 47.2173 12.1817C47.1374 12.1785 47.0577 12.1923 46.9834 12.2222C46.9091 12.2522 46.8418 12.2976 46.7858 12.3556C46.6655 12.5022 46.6065 12.6908 46.6212 12.8811C46.6187 12.993 46.6334 13.1046 46.6649 13.2118C46.6891 13.2932 46.7304 13.3683 46.7858 13.432C46.8345 13.4866 46.8952 13.5287 46.963 13.5549C47.0337 13.5811 47.1085 13.5936 47.1838 13.5927Z" fill="#CC0066"/>
<path d="M48.6327 11.1732C48.6317 11.1355 48.638 11.0979 48.6512 11.0626C48.6644 11.0274 48.6844 10.9951 48.7099 10.9677C48.736 10.9402 48.7675 10.9185 48.8023 10.9043C48.8372 10.89 48.8747 10.8835 48.9122 10.885C48.9491 10.8837 48.9858 10.8905 49.02 10.9047C49.0541 10.919 49.0849 10.9404 49.1103 10.9677C49.16 11.0242 49.1875 11.0974 49.1875 11.1732C49.1875 11.249 49.16 11.3222 49.1103 11.3788C49.0849 11.406 49.0541 11.4275 49.02 11.4417C48.9858 11.456 48.9491 11.4627 48.9122 11.4615C48.8747 11.463 48.8372 11.4564 48.8023 11.4421C48.7675 11.4279 48.736 11.4063 48.7099 11.3788C48.6844 11.3514 48.6644 11.3191 48.6512 11.2838C48.6379 11.2485 48.6317 11.211 48.6327 11.1732ZM49.1414 14.0462C49.1137 14.0572 49.085 14.0657 49.0559 14.0717C49.0154 14.0805 48.974 14.0848 48.9326 14.0844C48.8652 14.0901 48.798 14.0714 48.7429 14.0315C48.7209 14.0084 48.7041 13.9808 48.6936 13.9504C48.6832 13.92 48.6794 13.8877 48.6825 13.8557V11.8622L48.7699 11.839C48.8108 11.8286 48.8528 11.8237 48.895 11.8244C48.9612 11.8189 49.0272 11.8377 49.081 11.8773C49.1026 11.9015 49.1189 11.93 49.1289 11.961C49.1389 11.992 49.1424 12.0248 49.1391 12.0573L49.1414 14.0462Z" fill="#CC0066"/>
<path d="M50.3344 13.6499C50.4117 13.7008 50.5029 13.7253 50.5948 13.7199C50.6484 13.7194 50.7018 13.7116 50.7534 13.6967C50.804 13.6832 50.853 13.664 50.8994 13.6395C50.9197 13.6662 50.9379 13.6945 50.9538 13.7241C50.981 13.7792 50.9865 13.8427 50.9692 13.9018C50.9519 13.9609 50.9132 14.0111 50.8608 14.0421C50.7533 14.1027 50.631 14.1306 50.5083 14.1224C50.3199 14.1322 50.1338 14.0762 49.981 13.9637C49.9105 13.8987 49.8559 13.8178 49.8215 13.7276C49.7871 13.6374 49.7739 13.5402 49.783 13.4439V11.2448C49.8133 11.234 49.8444 11.2255 49.876 11.2193C49.9171 11.2106 49.959 11.2063 50.0011 11.2065C50.0663 11.2011 50.1313 11.2192 50.1847 11.2575C50.2062 11.2805 50.2226 11.308 50.2326 11.338C50.2426 11.368 50.2461 11.3999 50.2428 11.4314V11.8973H50.9268C50.9404 11.923 50.9516 11.9499 50.9603 11.9777C50.9716 12.0132 50.9773 12.0504 50.977 12.0878C50.977 12.2207 50.9228 12.287 50.8143 12.2867H50.2428V13.4099C50.2381 13.4545 50.2441 13.4996 50.2603 13.5413C50.2765 13.583 50.3024 13.6201 50.3358 13.6495" fill="#CC0066"/>
<path d="M52.2106 11.7837C52.4424 11.7707 52.6716 11.8373 52.8616 11.9727C52.9458 12.0464 53.0117 12.1393 53.0537 12.2439C53.0957 12.3484 53.1127 12.4616 53.1034 12.5742V13.6719C53.1072 13.7314 53.0908 13.7905 53.0569 13.8391C53.0207 13.8825 52.9786 13.9203 52.9318 13.9516C52.8398 14.004 52.7417 14.0447 52.6398 14.0726C52.5025 14.1102 52.3607 14.128 52.2185 14.1255C51.9837 14.1393 51.7506 14.0762 51.5536 13.9455C51.4739 13.8845 51.4102 13.8043 51.3683 13.7122C51.3265 13.6201 51.3077 13.5189 51.3137 13.4176C51.3086 13.3298 51.3226 13.2419 51.3547 13.1602C51.3869 13.0786 51.4364 13.0051 51.4997 12.9451C51.6534 12.8229 51.8404 12.7518 52.0353 12.7415L52.6482 12.6734V12.5718C52.6531 12.5151 52.6444 12.458 52.6225 12.4055C52.6007 12.353 52.5666 12.3068 52.5231 12.2708C52.4206 12.2027 52.2994 12.1696 52.1772 12.1763C52.0628 12.1759 51.949 12.193 51.8396 12.2269C51.739 12.2576 51.6413 12.2973 51.5476 12.3455C51.5183 12.3178 51.4931 12.286 51.4728 12.251C51.4503 12.2128 51.4387 12.169 51.4395 12.1245C51.4402 12.0799 51.4532 12.0365 51.4769 11.9991C51.5076 11.9592 51.5478 11.9278 51.5936 11.9079C51.6828 11.8639 51.7775 11.8321 51.8749 11.8134C51.9856 11.7917 52.098 11.7811 52.2106 11.7818M52.219 13.7394C52.3105 13.7412 52.4018 13.7298 52.4901 13.7054C52.5469 13.6914 52.6006 13.6669 52.6487 13.6331V13.0358L52.1734 13.0869C52.0657 13.0942 51.9613 13.1276 51.8689 13.1842C51.835 13.2101 51.8081 13.2442 51.7907 13.2835C51.7732 13.3227 51.7657 13.3657 51.7689 13.4087C51.7671 13.4547 51.7759 13.5006 51.7947 13.5425C51.8136 13.5845 51.8418 13.6213 51.8773 13.6501C51.9782 13.7177 52.0985 13.7489 52.219 13.739" fill="#CC0066"/>
<path d="M53.9743 14.0841C53.9081 14.0888 53.8424 14.0701 53.7883 14.0312C53.7656 14.0085 53.7482 13.9809 53.7373 13.9505C53.7264 13.9201 53.7224 13.8876 53.7255 13.8554V10.9995L53.8129 10.9763C53.8538 10.9659 53.8959 10.961 53.938 10.9617C54.0038 10.957 54.0692 10.9748 54.124 11.0122C54.1468 11.0344 54.1643 11.0617 54.1752 11.0918C54.1861 11.1219 54.19 11.1542 54.1868 11.1861V14.0463C54.1616 14.0548 54.1306 14.0633 54.0938 14.0718C54.0541 14.0807 54.0135 14.085 53.9729 14.0846" fill="#CC0066"/>
<path d="M56.2814 13.0714V14.0462C56.2499 14.0565 56.2179 14.065 56.1856 14.0717C56.1444 14.0805 56.1025 14.0847 56.0605 14.0845C55.9914 14.0905 55.9225 14.0709 55.8666 14.0292C55.8445 14.0048 55.8277 13.976 55.8173 13.9445C55.8069 13.9131 55.8031 13.8798 55.8062 13.8468V11.4185C55.8034 11.3729 55.8185 11.3281 55.848 11.2938C55.8795 11.2616 55.9181 11.2377 55.9605 11.2238C56.0671 11.1873 56.1777 11.1638 56.2897 11.1539C56.4137 11.1413 56.5318 11.135 56.644 11.135C56.9494 11.1096 57.2529 11.2019 57.4944 11.3935C57.5873 11.4838 57.6599 11.5934 57.7074 11.7148C57.7549 11.8362 57.7762 11.9666 57.7697 12.097C57.7755 12.2282 57.754 12.3592 57.7066 12.4813C57.6591 12.6034 57.5868 12.714 57.4944 12.8058C57.2637 13.0004 56.9676 13.0962 56.6687 13.0728L56.2814 13.0714ZM56.644 12.6603C56.8132 12.6701 56.9805 12.62 57.1174 12.5185C57.1765 12.4668 57.2229 12.4017 57.2529 12.3286C57.2829 12.2554 57.2957 12.1761 57.2903 12.097C57.2969 12.0195 57.2854 11.9416 57.2568 11.8694C57.2282 11.7973 57.1833 11.7329 57.1257 11.6817C56.9868 11.5854 56.8202 11.5392 56.6524 11.5503C56.5885 11.5503 56.5231 11.5532 56.4562 11.5588C56.3959 11.5636 56.336 11.5722 56.2767 11.5844V12.6608L56.644 12.6603Z" fill="#CC0066"/>
<path d="M59.027 11.7837C59.2587 11.7707 59.488 11.8372 59.678 11.9727C59.7622 12.0464 59.8281 12.1393 59.8701 12.2439C59.9122 12.3484 59.9292 12.4616 59.9198 12.5742V13.6719C59.9236 13.7314 59.9072 13.7905 59.8733 13.8391C59.8371 13.8825 59.7949 13.9203 59.7482 13.9516C59.6562 14.004 59.5581 14.0447 59.4562 14.0726C59.3189 14.1102 59.1771 14.128 59.0349 14.1255C58.8001 14.1393 58.567 14.0762 58.37 13.9455C58.2903 13.8845 58.2266 13.8043 58.1847 13.7122C58.1429 13.6201 58.1241 13.5189 58.1301 13.4176C58.125 13.3298 58.139 13.2419 58.1711 13.1602C58.2033 13.0786 58.2528 13.0051 58.3161 12.9451C58.4698 12.8229 58.6568 12.7517 58.8518 12.7415L59.4646 12.6734V12.5718C59.4696 12.5151 59.4608 12.458 59.439 12.4055C59.4172 12.353 59.383 12.3068 59.3395 12.2708C59.237 12.2027 59.1158 12.1696 58.9936 12.1763C58.8792 12.1759 58.7654 12.193 58.656 12.2269C58.5554 12.2576 58.4577 12.2973 58.364 12.3455C58.3347 12.3178 58.3095 12.286 58.2891 12.251C58.2666 12.2128 58.2551 12.169 58.2559 12.1245C58.2566 12.0799 58.2696 12.0365 58.2933 11.9991C58.324 11.9592 58.3642 11.9278 58.41 11.9079C58.4992 11.8639 58.5938 11.8321 58.6913 11.8134C58.8019 11.7917 58.9144 11.7811 59.027 11.7818M59.0354 13.7394C59.1269 13.7412 59.2182 13.7298 59.3065 13.7054C59.3633 13.6914 59.417 13.6669 59.465 13.6331V13.0358L58.9899 13.0869C58.8821 13.0942 58.7777 13.1275 58.6853 13.1842C58.6514 13.2101 58.6245 13.2442 58.6071 13.2835C58.5896 13.3227 58.5821 13.3657 58.5853 13.4087C58.5835 13.4547 58.5923 13.5006 58.6112 13.5425C58.63 13.5845 58.6582 13.6213 58.6937 13.6501C58.7946 13.7176 58.9149 13.7489 59.0354 13.739" fill="#CC0066"/>
<path d="M60.9084 13.5418C60.8334 13.3865 60.7424 13.1676 60.6355 12.885C60.5285 12.6025 60.4264 12.2832 60.329 11.9272C60.3588 11.8917 60.395 11.8622 60.4355 11.8403C60.4782 11.8164 60.5263 11.804 60.575 11.8044C60.6316 11.8016 60.6874 11.8183 60.7336 11.8516C60.7832 11.8972 60.8181 11.957 60.8335 12.0231C60.9141 12.2774 60.9969 12.5281 61.0818 12.7754C61.1668 13.0227 61.2605 13.2777 61.3631 13.5404H61.3799C61.4242 13.4387 61.4693 13.3207 61.5152 13.1865C61.5611 13.0523 61.6055 12.9096 61.6486 12.7584C61.6917 12.6072 61.7328 12.4539 61.7718 12.2986C61.8109 12.1433 61.8456 11.9951 61.876 11.854C61.9042 11.8398 61.9334 11.8278 61.9634 11.8181C61.9986 11.8076 62.0351 11.8027 62.0717 11.8034C62.1295 11.8012 62.1866 11.8177 62.2345 11.8507C62.2573 11.8688 62.2754 11.8924 62.287 11.9194C62.2986 11.9464 62.3034 11.9759 62.301 12.0052C62.2942 12.1313 62.274 12.2563 62.2405 12.378C62.2002 12.5447 62.1482 12.7297 62.0843 12.9332C62.0205 13.1367 61.9474 13.3415 61.8653 13.5475C61.7832 13.7538 61.7004 13.9375 61.617 14.0985C61.5063 14.322 61.3736 14.5335 61.2208 14.7298C61.183 14.7882 61.1333 14.8377 61.0751 14.8749C61.0169 14.9122 60.9515 14.9363 60.8833 14.9457C60.8476 14.9478 60.8118 14.9425 60.7782 14.9302C60.7445 14.9178 60.7137 14.8987 60.6875 14.8739C60.6388 14.8242 60.6064 14.7606 60.5945 14.6915C60.649 14.6417 60.7006 14.5887 60.7489 14.5327C60.8044 14.4697 60.86 14.402 60.9158 14.3295C60.9716 14.2571 61.0251 14.1829 61.0762 14.107C61.1247 14.0359 61.1672 13.9608 61.2032 13.8825C61.1489 13.8625 61.0997 13.8302 61.0595 13.788C60.9954 13.7139 60.9441 13.6294 60.9075 13.5381" fill="#CC0066"/>
<path d="M65.1951 12.2778C65.111 12.2105 65.0056 12.1769 64.8988 12.1833C64.819 12.1829 64.7399 12.199 64.6664 12.2305C64.5913 12.2629 64.5221 12.308 64.4618 12.3638C64.4675 12.3903 64.4717 12.4171 64.4743 12.4441C64.4771 12.4724 64.4785 12.5008 64.4785 12.5287V14.0459C64.4508 14.057 64.4222 14.0655 64.393 14.0715C64.354 14.0801 64.3142 14.0844 64.2744 14.0842C64.2063 14.0896 64.1385 14.0709 64.0824 14.0313C64.0598 14.0086 64.0425 13.981 64.0317 13.9506C64.0209 13.9202 64.0169 13.8877 64.02 13.8555V12.5797C64.0249 12.5242 64.0178 12.4684 63.999 12.416C63.9803 12.3637 63.9505 12.3162 63.9118 12.2768C63.8277 12.2095 63.7223 12.1759 63.6155 12.1823C63.5361 12.1819 63.4573 12.1963 63.383 12.2248C63.3187 12.2494 63.2573 12.2811 63.1999 12.3194V14.0483C63.1722 14.0594 63.1435 14.0679 63.1143 14.0738C63.0738 14.0827 63.0325 14.0869 62.9911 14.0866C62.9249 14.0913 62.8593 14.0726 62.8051 14.0337C62.7824 14.011 62.765 13.9834 62.7541 13.953C62.7432 13.9226 62.7393 13.8901 62.7424 13.8579V12.3071C62.7393 12.2459 62.7529 12.185 62.7819 12.1313C62.8167 12.0786 62.8612 12.0332 62.913 11.9976C63.1283 11.8613 63.3763 11.7881 63.6299 11.7859C63.7566 11.7836 63.8826 11.8044 64.0019 11.8473C64.105 11.8847 64.1979 11.9464 64.273 12.0273C64.3604 11.9555 64.4581 11.8977 64.5627 11.8558C64.6882 11.8068 64.822 11.7831 64.9565 11.7859C65.0667 11.7851 65.1764 11.8011 65.282 11.8331C65.3766 11.8611 65.4641 11.9094 65.5386 11.9749C65.6118 12.0417 65.6694 12.1242 65.7074 12.2163C65.7517 12.3273 65.7731 12.4463 65.7702 12.566V14.0493C65.7397 14.0593 65.7086 14.0679 65.6772 14.0748C65.6383 14.0834 65.5985 14.0877 65.5587 14.0875C65.4925 14.0921 65.4268 14.0735 65.3727 14.0346C65.35 14.0119 65.3326 13.9843 65.3217 13.9539C65.3108 13.9235 65.3068 13.891 65.3099 13.8588V12.583C65.3149 12.5275 65.3078 12.4716 65.2891 12.4193C65.2703 12.3669 65.2404 12.3194 65.2015 12.2801" fill="#CC0066"/>
<path d="M66.733 13.2027C66.7597 13.3606 66.8447 13.5022 66.9706 13.5987C67.1063 13.6895 67.2666 13.7346 67.429 13.7277C67.5437 13.7291 67.6577 13.7082 67.7647 13.6662C67.852 13.6327 67.9353 13.5893 68.013 13.5368C68.0511 13.5569 68.0829 13.5873 68.1049 13.6247C68.127 13.6621 68.1385 13.7049 68.1381 13.7485C68.1376 13.8036 68.1168 13.8565 68.08 13.8968C68.0355 13.9463 67.9815 13.986 67.9214 14.0136C67.8472 14.0487 67.7691 14.075 67.689 14.092C67.4391 14.1435 67.1802 14.1272 66.9385 14.0447C66.8041 13.9968 66.6817 13.9194 66.58 13.8179C66.4764 13.7126 66.397 13.5853 66.3475 13.4451C66.2908 13.2811 66.2632 13.1081 66.2661 12.9343C66.263 12.765 66.2891 12.5964 66.3433 12.4363C66.3892 12.3028 66.4624 12.1807 66.5581 12.0781C66.6494 11.9824 66.7595 11.9073 66.8813 11.8579C67.0066 11.8068 67.1405 11.781 67.2756 11.7818C67.4077 11.78 67.5387 11.8052 67.661 11.856C67.7731 11.9027 67.8747 11.9721 67.9597 12.0599C68.0446 12.1477 68.1112 12.2521 68.1553 12.3668C68.2035 12.4909 68.2275 12.6233 68.2259 12.7566C68.2287 12.7878 68.2253 12.8193 68.216 12.8491C68.2066 12.879 68.1915 12.9067 68.1716 12.9305C68.1289 12.9705 68.0748 12.9956 68.0172 13.0024L66.733 13.2027ZM67.2751 12.1632C67.1996 12.1614 67.1246 12.1762 67.0552 12.2065C66.9858 12.2368 66.9236 12.282 66.8729 12.3389C66.758 12.478 66.6978 12.6555 66.7041 12.837L67.788 12.6716C67.7804 12.5388 67.7298 12.4122 67.6443 12.3115C67.5974 12.2607 67.54 12.221 67.4763 12.1954C67.4125 12.1697 67.3435 12.1587 67.2751 12.1632Z" fill="#CC0066"/>
<path d="M69.969 12.2906C69.8762 12.2143 69.7589 12.1758 69.6398 12.1824C69.5463 12.1809 69.4533 12.1953 69.3645 12.2249C69.2923 12.2498 69.2226 12.2815 69.1562 12.3194V14.0484C69.1285 14.0594 69.0998 14.068 69.0706 14.0739C69.0302 14.0827 68.9888 14.087 68.9474 14.0866C68.8813 14.0913 68.8156 14.0726 68.7614 14.0337C68.7387 14.011 68.7213 13.9835 68.7105 13.9531C68.6996 13.9227 68.6955 13.8902 68.6986 13.858V12.3071C68.6957 12.246 68.7094 12.1852 68.7382 12.1313C68.7732 12.0786 68.8179 12.0332 68.8698 11.9976C68.9723 11.939 69.0806 11.8915 69.193 11.8559C69.3378 11.8088 69.4892 11.786 69.6412 11.7883C69.8811 11.7744 70.1181 11.8472 70.3103 11.9938C70.3948 12.0716 70.4608 12.1679 70.5031 12.2756C70.5454 12.3832 70.5629 12.4992 70.5544 12.6147V14.0512C70.5251 14.0618 70.4951 14.0703 70.4646 14.0767C70.4243 14.0855 70.3831 14.0898 70.3419 14.0895C70.2757 14.0941 70.21 14.0754 70.1559 14.0366C70.1333 14.0138 70.1159 13.9863 70.1051 13.9558C70.0943 13.9254 70.0904 13.893 70.0935 13.8608V12.6322C70.0988 12.5705 70.0906 12.5084 70.0698 12.4502C70.0489 12.392 70.0158 12.3391 69.9727 12.2953" fill="#CC0066"/>
<path d="M71.7179 13.6499C71.7952 13.7007 71.8864 13.7252 71.9783 13.7199C72.0319 13.7194 72.0852 13.7116 72.1368 13.6967C72.1874 13.6832 72.2364 13.664 72.2828 13.6395C72.3031 13.6662 72.3214 13.6945 72.3372 13.7241C72.3645 13.7792 72.3701 13.8428 72.3528 13.9019C72.3355 13.961 72.2967 14.0111 72.2442 14.0421C72.1368 14.1027 72.0144 14.1306 71.8918 14.1224C71.7034 14.1322 71.5173 14.0762 71.3645 13.9637C71.294 13.8987 71.2393 13.8179 71.2049 13.7276C71.1705 13.6374 71.1573 13.5402 71.1664 13.4439V11.2448C71.1968 11.234 71.2279 11.2255 71.2595 11.2193C71.3006 11.2106 71.3425 11.2063 71.3845 11.2065C71.4497 11.2011 71.5147 11.2192 71.5682 11.2575C71.5898 11.2805 71.6062 11.3079 71.6163 11.3379C71.6264 11.368 71.63 11.3999 71.6267 11.4314V11.8973H72.3107C72.3244 11.923 72.3356 11.9499 72.3442 11.9777C72.3556 12.0132 72.3612 12.0504 72.361 12.0878C72.361 12.2207 72.3067 12.287 72.1982 12.2867H71.6267V13.4099C71.622 13.4545 71.628 13.4996 71.6442 13.5413C71.6604 13.583 71.6864 13.6201 71.7198 13.6495" fill="#CC0066"/>
<path d="M74.3679 13.449C74.372 13.5429 74.3544 13.6366 74.3163 13.7224C74.2783 13.8082 74.2209 13.8836 74.1489 13.9427C73.9634 14.0749 73.7389 14.1385 73.5128 14.1228C73.4052 14.1236 73.2977 14.1136 73.192 14.093C73.1069 14.0773 73.0242 14.0503 72.946 14.0127C72.8854 13.9835 72.8315 13.9416 72.7879 13.8898C72.7505 13.8464 72.7297 13.7907 72.7294 13.7329C72.7292 13.6879 72.7399 13.6434 72.7605 13.6035C72.7817 13.562 72.8139 13.5274 72.8535 13.5038C72.9414 13.5643 73.0348 13.6161 73.1325 13.6583C73.2487 13.707 73.3736 13.7308 73.4994 13.7282C73.6056 13.7352 73.7115 13.7103 73.8039 13.6564C73.8374 13.6339 73.8646 13.603 73.8829 13.5666C73.9011 13.5303 73.9098 13.4897 73.908 13.449C73.9098 13.4142 73.9045 13.3794 73.8923 13.3469C73.8801 13.3143 73.8614 13.2847 73.8374 13.26C73.7765 13.2062 73.7032 13.169 73.6244 13.1517L73.324 13.0672C73.161 13.0295 73.0101 12.95 72.886 12.8361C72.8376 12.7823 72.8003 12.7191 72.7764 12.6504C72.7524 12.5816 72.7423 12.5087 72.7466 12.4359C72.7461 12.3473 72.7647 12.2598 72.8009 12.1793C72.837 12.0991 72.8904 12.0282 72.9572 11.9719C73.0333 11.9097 73.1204 11.863 73.2139 11.8344C73.3272 11.7988 73.4453 11.7816 73.564 11.7833C73.662 11.7823 73.7598 11.7914 73.856 11.8107C73.9328 11.8261 74.0077 11.8504 74.0792 11.883C74.1355 11.9078 74.1854 11.9455 74.2251 11.9931C74.2583 12.0327 74.2768 12.0829 74.2772 12.1349C74.2782 12.1793 74.2674 12.2232 74.2461 12.262C74.2268 12.2968 74.2005 12.3271 74.1689 12.3508C74.0928 12.307 74.0133 12.2694 73.9313 12.2384C73.825 12.1968 73.7118 12.1759 73.5979 12.1769C73.4962 12.171 73.3951 12.1945 73.3059 12.2445C73.2782 12.2622 73.2546 12.2858 73.2369 12.3138C73.2192 12.3417 73.2077 12.3732 73.2033 12.4062C73.1988 12.4391 73.2016 12.4726 73.2113 12.5044C73.221 12.5361 73.2374 12.5653 73.2594 12.5899C73.3178 12.6409 73.3883 12.6754 73.464 12.6896L73.7225 12.7577C73.9043 12.8007 74.0726 12.8889 74.2126 13.0142C74.2662 13.0721 74.3077 13.1404 74.3346 13.2151C74.3614 13.2897 74.3731 13.3691 74.3688 13.4485" fill="#CC0066"/>
<path d="M10.724 6.78516V15.0576C10.724 15.5991 10.5605 16.1276 10.2556 16.5718C9.9507 17.0159 9.51905 17.3543 9.01893 17.5412L1.59525 20.3158C1.47841 20.3596 1.35288 20.3741 1.22937 20.3579C1.10585 20.3418 0.988003 20.2956 0.885856 20.2232C0.783709 20.1508 0.70029 20.0544 0.642703 19.9422C0.585116 19.83 0.555067 19.7053 0.555115 19.5787V12.5594C0.555353 12.1372 0.682785 11.7253 0.920273 11.3789C1.15776 11.0326 1.49392 10.7684 1.88353 10.622L8.74506 8.04301C9.82797 7.59742 10.2511 7.32478 10.7244 6.78752" fill="white"/>
<path d="M17.2506 8.8789C17.2428 9.18649 17.1204 9.47959 16.908 9.69891C16.6957 9.91822 16.4093 10.0474 16.1067 10.0602H14.551C14.4613 10.0624 14.3744 10.0282 14.3094 9.96533C14.2445 9.90242 14.2068 9.81588 14.2046 9.72472V6.28097C14.2039 6.23529 14.2122 6.18994 14.2291 6.1476C14.246 6.10526 14.2711 6.0668 14.3029 6.0345C14.3346 6.00219 14.3725 5.9767 14.4142 5.95955C14.4558 5.94239 14.5004 5.93391 14.5454 5.93461H16.0468C16.2713 5.94668 16.4876 6.02469 16.6695 6.15919C16.8513 6.29368 16.9908 6.47889 17.0711 6.69235C17.1514 6.90582 17.1691 7.13838 17.122 7.36184C17.0749 7.58531 16.9649 7.79008 16.8056 7.95134C16.9429 8.0627 17.0541 8.2037 17.1311 8.36413C17.2082 8.52456 17.2487 8.7004 17.2506 8.8789ZM14.8648 7.65034L15.9701 7.639C16.1043 7.63452 16.2318 7.57832 16.3268 7.48179C16.4218 7.38527 16.4771 7.25566 16.4815 7.11923C16.4807 6.988 16.4298 6.86222 16.3395 6.76842C16.2492 6.67462 16.1266 6.62013 15.9975 6.61646H14.8648V7.65034ZM16.5694 8.8789C16.5602 8.73985 16.5005 8.60921 16.402 8.51225C16.3035 8.41528 16.1731 8.35887 16.0361 8.35393H14.8923V9.38734H16.0686C16.2 9.38308 16.3248 9.32815 16.4178 9.2337C16.5107 9.13926 16.5647 9.0124 16.5689 8.8789" fill="white"/>
<path d="M19.9567 8.35389H19.4564V9.72421C19.4545 9.8144 19.4176 9.90018 19.3538 9.9629C19.2899 10.0256 19.2044 10.0602 19.1156 10.0592C19.0282 10.059 18.9444 10.0236 18.8826 9.96085C18.8207 9.89809 18.7858 9.81302 18.7855 9.72421V6.26959C18.7882 6.17967 18.8254 6.09439 18.889 6.03184C18.9527 5.9693 19.0378 5.9344 19.1263 5.93457H20.3301C20.6396 5.94144 20.9347 6.06872 21.1546 6.29018C21.3746 6.51163 21.5025 6.81039 21.512 7.12486C21.5063 7.37848 21.4249 7.62434 21.2786 7.82989C21.1323 8.03544 20.928 8.19098 20.6928 8.27592L21.4572 9.54417C21.5017 9.62227 21.5146 9.71494 21.4931 9.80253C21.4716 9.89012 21.4173 9.96575 21.3419 10.0134C21.2896 10.0426 21.2309 10.058 21.1712 10.0583C21.1139 10.0582 21.0576 10.0433 21.0075 10.0149C20.9575 9.98659 20.9154 9.94572 20.8853 9.8962L19.9567 8.35389ZM20.8476 7.13006C20.8413 6.98993 20.7815 6.85781 20.6809 6.7618C20.5802 6.66579 20.4467 6.61347 20.3087 6.61595H19.4564V7.67204H20.3087C20.4507 7.67217 20.587 7.61529 20.6879 7.51378C20.7889 7.41227 20.8463 7.27436 20.8476 7.13006Z" fill="white"/>
<path d="M25.372 10.0575C24.8358 10.0516 24.3237 9.83028 23.9476 9.44183C23.5716 9.05339 23.3622 8.52944 23.3651 7.98453C23.3721 7.58335 23.4955 7.19319 23.7198 6.86301C23.9442 6.53282 24.2595 6.27732 24.6262 6.12857C24.9929 5.97981 25.3946 5.94442 25.781 6.02683C26.1675 6.10925 26.5213 6.30581 26.7982 6.59184C27.0751 6.87787 27.2627 7.24063 27.3375 7.63461C27.4123 8.0286 27.3709 8.43625 27.2186 8.80642C27.0662 9.1766 26.8097 9.49281 26.4812 9.71538C26.1527 9.93795 25.7668 10.057 25.372 10.0575ZM24.0138 7.98453C24.0142 8.2581 24.0945 8.52538 24.2445 8.75258C24.3944 8.97977 24.6073 9.15668 24.8562 9.26091C25.1051 9.36515 25.3788 9.39203 25.6427 9.33817C25.9066 9.2843 26.1489 9.15211 26.3389 8.95831C26.5289 8.76451 26.658 8.5178 26.7101 8.24938C26.7621 7.98097 26.7346 7.70292 26.6311 7.45038C26.5276 7.19784 26.3527 6.98217 26.1286 6.83064C25.9044 6.67912 25.6411 6.59853 25.372 6.59909C25.012 6.60268 24.6678 6.74997 24.4137 7.00916C24.1596 7.26835 24.016 7.61867 24.0138 7.98453Z" fill="white"/>
<path d="M32.1238 10.0301C32.0813 10.0469 32.0358 10.0549 31.9902 10.0536C31.9445 10.0522 31.8996 10.0416 31.8581 10.0223C31.8165 10.003 31.7792 9.97544 31.7484 9.94122C31.7175 9.907 31.6937 9.86683 31.6784 9.8231L30.7485 7.27148L29.8139 9.8231C29.7996 9.86695 29.7767 9.90737 29.7465 9.94184C29.7162 9.97631 29.6794 10.0041 29.6381 10.0235C29.5969 10.0429 29.5522 10.0535 29.5067 10.0546C29.4613 10.0558 29.4161 10.0474 29.374 10.0301C29.3307 10.015 29.2908 9.99105 29.2568 9.95978C29.2229 9.92852 29.1955 9.89055 29.1765 9.8482C29.1574 9.80584 29.1471 9.75999 29.146 9.71343C29.145 9.66687 29.1533 9.62059 29.1704 9.57739L30.4128 6.15207C30.4389 6.08363 30.485 6.02497 30.545 5.98399C30.6049 5.94302 30.6758 5.9217 30.748 5.9229C30.8199 5.92325 30.8901 5.94519 30.9497 5.98597C31.0094 6.02675 31.0558 6.08454 31.0833 6.15207L32.3257 9.57739C32.3428 9.62056 32.3511 9.66682 32.3501 9.71335C32.349 9.75989 32.3387 9.80572 32.3197 9.84807C32.3007 9.89042 32.2734 9.92839 32.2395 9.95968C32.2056 9.99097 32.1658 10.0149 32.1225 10.0301" fill="white"/>
<path d="M33.7125 9.72287V6.28574C33.7146 6.19757 33.7501 6.1136 33.8114 6.05124C33.8728 5.98887 33.9554 5.95288 34.0422 5.95072H34.8615C35.1565 5.94896 35.4487 6.0098 35.7193 6.12934C35.9794 6.24529 36.2119 6.41676 36.401 6.6321C36.5897 6.84983 36.7305 7.10599 36.8139 7.38346C36.8974 7.66092 36.9216 7.9533 36.885 8.24104C36.8244 8.7407 36.5865 9.20076 36.2161 9.53504C35.8457 9.86931 35.368 10.0549 34.8726 10.0569H34.0426C33.9559 10.0548 33.8733 10.0188 33.8119 9.95643C33.7505 9.89407 33.7151 9.8101 33.713 9.72193M36.2201 8.1626C36.2492 7.96962 36.2361 7.77252 36.182 7.58521C36.1278 7.3979 36.0339 7.22497 35.9067 7.07863C35.7752 6.93005 35.6139 6.8118 35.4337 6.73184C35.2535 6.65189 35.0585 6.61208 34.8619 6.61509H34.3728V9.38644H34.8731C35.2066 9.3866 35.5284 9.26188 35.7772 9.03612C36.0259 8.81036 36.1841 8.49938 36.2215 8.1626" fill="white"/>
<path d="M40.1507 9.48222C39.9861 9.73483 39.7326 9.9138 39.4422 9.98235C39.1518 10.0509 38.8466 10.0038 38.5893 9.85079C38.5104 9.80217 38.4521 9.72548 38.4257 9.63563C38.3994 9.54578 38.4068 9.44916 38.4466 9.36456C38.5063 9.29445 38.5898 9.24978 38.6804 9.23945C38.7711 9.22911 38.8622 9.25388 38.9357 9.30881C39.0497 9.37168 39.1829 9.38822 39.3084 9.35505C39.4339 9.32189 39.5424 9.24152 39.6118 9.13019C39.6501 9.07225 39.6769 9.0072 39.6904 8.93876C39.704 8.87031 39.7042 8.79982 39.6909 8.73131C39.6777 8.6628 39.6512 8.59762 39.6132 8.5395C39.5751 8.48137 39.5261 8.43145 39.469 8.39258C39.1998 8.21917 39.1901 8.21397 38.9302 8.04056C38.6728 7.87085 38.4923 7.60422 38.4284 7.2993C38.3645 6.99439 38.4224 6.67616 38.5893 6.4146C38.7556 6.16407 39.009 5.98677 39.2987 5.91831C39.5883 5.84986 39.8927 5.89532 40.1507 6.04556C40.227 6.09087 40.2833 6.16425 40.3078 6.25052C40.3324 6.3368 40.3234 6.42938 40.2827 6.50911C40.2282 6.58217 40.1481 6.63109 40.059 6.64569C39.9699 6.6603 39.8787 6.63947 39.8043 6.58755C39.6853 6.526 39.5477 6.51313 39.4197 6.55159C39.2917 6.59005 39.183 6.67691 39.1161 6.7943C39.0492 6.91168 39.0292 7.05067 39.06 7.18264C39.0909 7.31462 39.1704 7.42954 39.2821 7.50377C39.4216 7.59308 39.4216 7.59307 39.8154 7.8558C39.9426 7.9401 40.0522 8.04906 40.1378 8.17644C40.2235 8.30382 40.2837 8.44711 40.3148 8.59813C40.3459 8.74915 40.3475 8.90493 40.3193 9.05654C40.2911 9.20816 40.2339 9.35313 40.1507 9.48222Z" fill="white"/>
<path d="M43.8628 8.34386C43.5553 8.36606 43.2468 8.36984 42.9389 8.35521V9.72552C42.937 9.81572 42.9001 9.9015 42.8363 9.96422C42.7725 10.0269 42.6869 10.0616 42.5981 10.0605C42.5108 10.0602 42.4271 10.0248 42.3654 9.962C42.3037 9.89926 42.2688 9.81426 42.2685 9.72552V6.28036C42.2679 6.23621 42.276 6.19238 42.2924 6.15148C42.3088 6.11057 42.333 6.07341 42.3638 6.04219C42.3945 6.01097 42.431 5.98631 42.4713 5.96968C42.5115 5.95304 42.5547 5.94477 42.5981 5.94534H43.8298C44.1367 5.95506 44.4282 6.08481 44.6432 6.30753C44.8583 6.53026 44.9805 6.82877 44.9843 7.14082C44.9794 7.44738 44.8614 7.74088 44.6537 7.96329C44.446 8.1857 44.1638 8.32084 43.8628 8.34197M43.7861 6.61585H42.9394V7.67194H43.7861C43.9278 7.67109 44.0636 7.61389 44.1643 7.51259C44.265 7.41129 44.3227 7.27394 44.325 7.12995C44.3178 6.99015 44.2577 6.85859 44.1573 6.76278C44.0568 6.66696 43.9239 6.61432 43.7861 6.61585Z" fill="white"/>
<path d="M46.7433 9.72233V6.26913C46.7437 6.18039 46.7785 6.09539 46.8403 6.03265C46.902 5.9699 46.9856 5.93448 47.0729 5.93411H49.0537C49.1425 5.93297 49.2282 5.96754 49.292 6.03029C49.3558 6.09304 49.3927 6.17889 49.3945 6.26913C49.3941 6.36083 49.358 6.44865 49.2942 6.51349C49.2304 6.57834 49.144 6.61499 49.0537 6.61549H47.4152V7.67158H48.6525C48.6959 7.67101 48.739 7.67928 48.7793 7.69591C48.8195 7.71255 48.8561 7.7372 48.8868 7.76843C48.9175 7.79965 48.9418 7.83681 48.9582 7.87772C48.9745 7.91862 48.9827 7.96244 48.9821 8.00659C48.9827 8.05079 48.9746 8.09466 48.9583 8.13562C48.942 8.17658 48.9177 8.2138 48.887 8.24507C48.8562 8.27634 48.8196 8.30104 48.7794 8.3177C48.7391 8.33437 48.6959 8.34266 48.6525 8.34209H47.4152V9.37549H49.0537C49.144 9.37599 49.2304 9.41264 49.2942 9.47749C49.358 9.54234 49.3941 9.63014 49.3945 9.72185C49.3926 9.81205 49.3557 9.89783 49.2919 9.96055C49.2281 10.0233 49.1425 10.0579 49.0537 10.0569H47.0744C46.987 10.0565 46.9034 10.0211 46.8416 9.95834C46.7799 9.89559 46.745 9.81059 46.7447 9.72185" fill="white"/>
<path d="M54.5678 9.61089C54.2177 9.89388 53.7834 10.0475 53.3361 10.0466C52.798 10.0466 52.2819 9.82933 51.9015 9.44265C51.521 9.05598 51.3072 8.53154 51.3072 7.98471C51.3072 7.43787 51.521 6.91343 51.9015 6.52675C52.2819 6.14008 52.798 5.92285 53.3361 5.92285C53.7016 5.92335 54.0597 6.02796 54.3697 6.22479C54.4087 6.24537 54.4431 6.27375 54.471 6.30821C54.4989 6.34268 54.5196 6.38252 54.532 6.42534C54.5443 6.46816 54.548 6.51307 54.5428 6.55737C54.5376 6.60168 54.5237 6.64446 54.5018 6.68314C54.4795 6.72145 54.4496 6.75466 54.4141 6.78071C54.3785 6.80676 54.3381 6.82508 54.2953 6.83452C54.2525 6.84397 54.2082 6.84434 54.1653 6.83561C54.1223 6.82688 54.0816 6.80924 54.0456 6.78379C53.8312 6.65431 53.586 6.58668 53.3365 6.58816C53.1582 6.58816 52.9817 6.62387 52.8169 6.69325C52.6522 6.76262 52.5025 6.8643 52.3765 6.99248C52.2505 7.12066 52.1505 7.27283 52.0823 7.44028C52.0142 7.60773 51.9792 7.78719 51.9793 7.9684C51.9732 8.22794 52.0392 8.48397 52.1698 8.70709C52.3004 8.93022 52.4902 9.1114 52.7175 9.22983C52.9449 9.34825 53.2004 9.39912 53.4549 9.37659C53.7094 9.35406 53.9525 9.25904 54.1563 9.10245C54.1882 9.07463 54.2254 9.05354 54.2654 9.04044C54.3055 9.02733 54.3477 9.02246 54.3896 9.02611C54.4316 9.02976 54.4724 9.04186 54.5097 9.0617C54.547 9.08154 54.58 9.10873 54.6068 9.14167C54.6628 9.20917 54.6902 9.29644 54.6829 9.38438C54.6757 9.47232 54.6345 9.55377 54.5683 9.61089" fill="white"/>
<path d="M59.1466 6.26327C59.1466 6.30707 59.138 6.35043 59.1214 6.39084C59.1048 6.43125 59.0805 6.4679 59.0498 6.49867C59.0191 6.52944 58.9827 6.55372 58.9428 6.57009C58.9028 6.58646 58.86 6.5946 58.8169 6.59403H58.0093V9.72308C58.0093 9.81124 57.9748 9.8958 57.9135 9.95814C57.8521 10.0205 57.7689 10.0555 57.6822 10.0555C57.5954 10.0555 57.5122 10.0205 57.4509 9.95814C57.3895 9.8958 57.3551 9.81124 57.3551 9.72308V6.59309H56.5469C56.4602 6.59309 56.377 6.55807 56.3157 6.49573C56.2543 6.43339 56.2198 6.34883 56.2198 6.26067C56.2198 6.17251 56.2543 6.08795 56.3157 6.02561C56.377 5.96327 56.4602 5.92825 56.5469 5.92825H58.8174C58.8608 5.92768 58.904 5.93595 58.9442 5.95259C58.9845 5.96922 59.021 5.99388 59.0517 6.0251C59.0825 6.05632 59.1068 6.09348 59.1231 6.13439C59.1395 6.17529 59.1472 6.21912 59.1466 6.26327Z" fill="white"/>
<path d="M61.9681 8.35389H61.4678V9.72421C61.4658 9.8144 61.4289 9.90018 61.3651 9.9629C61.3013 10.0256 61.2157 10.0602 61.1269 10.0592C61.0395 10.059 60.9558 10.0236 60.8939 9.96085C60.8321 9.89809 60.7972 9.81302 60.7968 9.72421V6.26959C60.7996 6.17967 60.8367 6.09439 60.9004 6.03184C60.964 5.9693 61.0491 5.9344 61.1376 5.93457H62.3419C62.6514 5.94144 62.9465 6.06872 63.1664 6.29018C63.3863 6.51163 63.5143 6.81039 63.5238 7.12486C63.5181 7.37848 63.4367 7.62434 63.2904 7.82989C63.1441 8.03544 62.9398 8.19098 62.7046 8.27592L63.469 9.54417C63.5135 9.62233 63.5263 9.71504 63.5047 9.80263C63.483 9.89023 63.4287 9.96582 63.3532 10.0134C63.3009 10.0426 63.2422 10.058 63.1826 10.0583C63.1253 10.0582 63.0689 10.0433 63.0189 10.0149C62.9688 9.98659 62.9268 9.94572 62.8966 9.8962L61.9681 8.35389ZM62.8589 7.13006C62.8526 6.98993 62.7929 6.85781 62.6922 6.7618C62.5916 6.66579 62.4581 6.61347 62.32 6.61595H61.4678V7.67204H62.32C62.462 7.67217 62.5983 7.61529 62.6993 7.51378C62.8002 7.41227 62.8576 7.27436 62.8589 7.13006Z" fill="white"/>
<path d="M68.3456 6.26378V8.5489C68.3491 8.74925 68.3133 8.9483 68.2402 9.13442C68.1672 9.32055 68.0584 9.49003 67.9202 9.63297C67.782 9.77591 67.6172 9.88944 67.4354 9.96695C67.2536 10.0444 67.0583 10.0844 66.8612 10.0844C66.664 10.0844 66.4688 10.0444 66.2869 9.96695C66.1051 9.88944 65.9403 9.77591 65.8021 9.63297C65.6639 9.49003 65.5551 9.32055 65.4821 9.13442C65.4091 8.9483 65.3733 8.74925 65.3768 8.5489V6.26378C65.3768 6.17336 65.4121 6.08664 65.475 6.02271C65.5379 5.95877 65.6232 5.92285 65.7122 5.92285C65.8012 5.92285 65.8865 5.95877 65.9495 6.02271C66.0124 6.08664 66.0477 6.17336 66.0477 6.26378V8.5489C66.0477 8.76971 66.134 8.98148 66.2877 9.13762C66.4413 9.29376 66.6497 9.38148 66.867 9.38148C67.0842 9.38148 67.2927 9.29376 67.4463 9.13762C67.5999 8.98148 67.6863 8.76971 67.6863 8.5489V6.26378C67.6857 6.21963 67.6939 6.1758 67.7102 6.1349C67.7266 6.09399 67.7508 6.05683 67.7816 6.02561C67.8123 5.99439 67.8488 5.96973 67.8891 5.9531C67.9293 5.93646 67.9725 5.92819 68.0159 5.92876C68.0594 5.92819 68.1025 5.93646 68.1427 5.9531C68.183 5.96973 68.2196 5.99439 68.2503 6.02561C68.281 6.05683 68.3053 6.09399 68.3216 6.1349C68.338 6.1758 68.3461 6.21963 68.3456 6.26378Z" fill="white"/>
<path d="M74.2672 9.64965C74.2791 9.69077 74.2826 9.73391 74.2776 9.77646C74.2726 9.81901 74.2592 9.86008 74.2381 9.89719C74.217 9.9343 74.1887 9.96668 74.155 9.99236C74.1212 10.018 74.0827 10.0365 74.0417 10.0466H74.025C74.0194 10.0466 74.0194 10.0466 74.0143 10.0579H73.9757C73.8987 10.0573 73.8244 10.0297 73.7651 9.97987C73.7059 9.93004 73.6653 9.86099 73.6502 9.78432L73.1992 7.54929L72.3692 9.8122C72.3472 9.88049 72.3045 9.93996 72.2472 9.98212C72.1899 10.0243 72.121 10.047 72.0502 10.047C71.9795 10.047 71.9106 10.0243 71.8533 9.98212C71.7961 9.93996 71.7534 9.88049 71.7313 9.8122L70.9999 7.65561L70.6149 9.78432C70.6027 9.86285 70.5631 9.93429 70.5033 9.98558C70.4436 10.0369 70.3676 10.0646 70.2894 10.0636C70.2727 10.0636 70.2508 10.0579 70.2345 10.0579C70.1904 10.0514 70.1483 10.035 70.1112 10.0098C70.0741 9.98461 70.043 9.95133 70.0202 9.91238C69.9937 9.87813 69.975 9.83831 69.9655 9.79581C69.956 9.75331 69.9559 9.70919 69.9653 9.66666L70.5316 6.2026C70.5457 6.1272 70.5842 6.05874 70.641 6.00814C70.6978 5.95753 70.7697 5.92769 70.8451 5.92334H70.8725C70.9434 5.9233 71.0126 5.94616 71.0699 5.98862C71.1272 6.03108 71.1698 6.09096 71.1915 6.1596L72.06 8.64602L72.9672 6.14826C72.9884 6.08143 73.0304 6.02345 73.087 5.98312C73.1435 5.94278 73.2115 5.92229 73.2805 5.92476H73.2973C73.3723 5.92526 73.4448 5.95316 73.5013 6.00339C73.5578 6.05361 73.5946 6.12281 73.6051 6.19835L74.2672 9.64965Z" fill="white"/>
</g>
</svg>
