<svg width="74" height="20" viewBox="0 0 74 20" fill="none" xmlns="http://www.w3.org/2000/svg">
<mask id="mask0_2057_111206" style="mask-type:luminance" maskUnits="userSpaceOnUse" x="0" y="0" width="74" height="20">
<path d="M73.9375 0.447266H0.867188V19.9747H73.9375V0.447266Z" fill="white"/>
</mask>
<g mask="url(#mask0_2057_111206)">
<path d="M8.80496 3.40287L2.13483 0.522186C1.99629 0.462262 1.84529 0.438171 1.69535 0.452069C1.54541 0.465967 1.40119 0.51742 1.27561 0.601826C1.15002 0.686231 1.04699 0.800956 0.975712 0.935738C0.904438 1.07052 0.867151 1.22115 0.867188 1.37417V8.78816C0.867183 8.9458 0.904765 9.10109 0.976717 9.24074C1.04867 9.38039 1.15285 9.50025 1.28034 9.59004C1.40782 9.67984 1.55483 9.73691 1.70876 9.75636C1.86269 9.77581 2.01896 9.75706 2.16421 9.70173L6.58969 8.0155L1.79507 5.9854C1.72642 5.95314 1.67274 5.89509 1.6453 5.82346C1.61786 5.75183 1.61879 5.67219 1.6479 5.60124C1.67702 5.53029 1.73204 5.47357 1.80143 5.44298C1.87082 5.41238 1.94918 5.4103 2.02004 5.43716L7.39178 7.71035L8.90184 7.13459C11.4858 6.22382 11.6203 4.40415 8.80542 3.40193M9.43717 5.76097C9.40733 5.8335 9.35043 5.89107 9.27893 5.92106C9.20742 5.95106 9.12714 5.95104 9.05564 5.92101L1.6858 2.80191C1.65038 2.78693 1.61821 2.765 1.59113 2.73739C1.56404 2.70977 1.54257 2.677 1.52795 2.64095C1.49842 2.56815 1.49855 2.48641 1.52832 2.41371C1.5581 2.34101 1.61507 2.28331 1.6867 2.25329C1.75834 2.22328 1.83878 2.22342 1.91031 2.25367L9.27969 5.37371C9.31519 5.38867 9.34742 5.4106 9.37456 5.43825C9.40169 5.4659 9.42319 5.49872 9.43782 5.53482C9.45245 5.57093 9.45992 5.60962 9.45981 5.64866C9.4597 5.68771 9.45201 5.72635 9.43717 5.76237" fill="#CC0066"/>
<path d="M44.5732 12.3088C44.5776 12.5321 44.5434 12.7544 44.4722 12.9657C44.4122 13.1409 44.3145 13.3003 44.1862 13.4323C44.0608 13.5577 43.9088 13.6522 43.7418 13.7085C43.5558 13.7706 43.3609 13.801 43.1651 13.7986C43.0733 13.7986 42.9648 13.7944 42.8396 13.786C42.7216 13.7794 42.6052 13.7555 42.4939 13.715C42.4368 13.7036 42.3854 13.6723 42.3485 13.6265C42.3117 13.5806 42.2919 13.5232 42.2923 13.464V11.1372C42.2896 11.0922 42.3045 11.0479 42.3336 11.014C42.3647 10.9823 42.4028 10.9586 42.4448 10.9449C42.5539 10.9104 42.6664 10.8879 42.7804 10.8778C42.8997 10.8666 43.0158 10.861 43.1284 10.861C43.3279 10.8587 43.5265 10.8883 43.717 10.9487C43.8881 11.0022 44.0451 11.0944 44.1761 11.2184C44.3062 11.3456 44.4067 11.5007 44.4704 11.6723C44.5442 11.8758 44.5799 12.0915 44.5755 12.3083M44.0939 12.3125C44.0975 12.1519 44.0731 11.9918 44.0218 11.8399C43.9796 11.7183 43.9105 11.6081 43.8198 11.5179C43.7329 11.4338 43.6288 11.3701 43.515 11.3313C43.3935 11.2901 43.2661 11.2696 43.138 11.2706C43.011 11.2684 42.884 11.2797 42.7592 11.3042V13.3544C42.8222 13.3692 42.8862 13.3791 42.9507 13.3838C43.0208 13.3894 43.0929 13.3922 43.167 13.3922C43.2943 13.4008 43.422 13.3809 43.541 13.3339C43.66 13.2869 43.7674 13.2139 43.8556 13.1202C44.0292 12.8895 44.1135 12.6021 44.0925 12.3125" fill="#CC0066"/>
<path d="M45.0592 10.8986C45.0582 10.8613 45.0644 10.8242 45.0774 10.7894C45.0905 10.7546 45.1102 10.7227 45.1354 10.6956C45.1611 10.6685 45.1922 10.6471 45.2267 10.6331C45.2611 10.619 45.2981 10.6125 45.3351 10.614C45.3716 10.6128 45.4078 10.6194 45.4415 10.6335C45.4753 10.6476 45.5057 10.6688 45.5307 10.6956C45.5798 10.7515 45.6069 10.8237 45.6069 10.8986C45.6069 10.9735 45.5798 11.0457 45.5307 11.1016C45.5057 11.1284 45.4753 11.1496 45.4415 11.1637C45.4078 11.1778 45.3716 11.1844 45.3351 11.1832C45.2981 11.1847 45.2611 11.1782 45.2267 11.1641C45.1922 11.1501 45.1611 11.1287 45.1354 11.1016C45.1102 11.0745 45.0905 11.0426 45.0774 11.0078C45.0643 10.973 45.0581 10.9359 45.0592 10.8986ZM45.5615 13.7354C45.5341 13.7463 45.5058 13.7547 45.477 13.7606C45.4372 13.7693 45.3965 13.7735 45.3558 13.7732C45.2892 13.7788 45.2229 13.7603 45.1685 13.721C45.1467 13.6982 45.1301 13.6708 45.1198 13.6408C45.1095 13.6109 45.1058 13.579 45.1088 13.5474V11.5789L45.1951 11.556C45.2355 11.5458 45.277 11.5409 45.3186 11.5415C45.384 11.5362 45.4491 11.5547 45.5023 11.5938C45.5236 11.6177 45.5397 11.6458 45.5496 11.6765C45.5595 11.7071 45.5629 11.7395 45.5597 11.7716L45.5615 13.7354Z" fill="#CC0066"/>
<path d="M47.5195 13.5387C47.4568 13.5791 47.389 13.6105 47.3179 13.632C47.2256 13.659 47.1298 13.6717 47.0337 13.6698C46.91 13.6706 46.787 13.6508 46.6696 13.6111C46.5564 13.5724 46.4531 13.5086 46.3671 13.4244C46.2745 13.3318 46.2041 13.2188 46.1614 13.0941C46.1078 12.9317 46.0828 12.7609 46.0875 12.5897C46.0844 12.4296 46.1094 12.2701 46.1614 12.1189C46.2061 11.9912 46.2786 11.8754 46.3735 11.7802C46.4665 11.6889 46.5772 11.6183 46.6986 11.573C46.8339 11.5239 46.9768 11.4998 47.1205 11.5021C47.2531 11.5009 47.385 11.5206 47.5117 11.5604C47.6165 11.5926 47.7164 11.6397 47.8083 11.7004C47.8523 11.7312 47.89 11.7703 47.9194 11.8156C47.9482 11.8641 47.9626 11.92 47.9607 11.9766V13.8042C47.9643 13.9419 47.9391 14.0789 47.8868 14.2059C47.8409 14.3129 47.7694 14.4064 47.6788 14.478C47.5843 14.5501 47.4763 14.602 47.3615 14.6305C47.2328 14.6629 47.1006 14.6786 46.9681 14.6772C46.8403 14.6792 46.7128 14.6635 46.5893 14.6305C46.5064 14.609 46.4263 14.5776 46.3505 14.5372C46.2917 14.5007 46.2484 14.443 46.2294 14.3756C46.2103 14.3082 46.2169 14.236 46.2477 14.1733C46.2669 14.1371 46.2952 14.1068 46.3299 14.0856C46.4108 14.1436 46.4995 14.1893 46.5934 14.2213C46.707 14.2624 46.8268 14.2829 46.9474 14.282C47.0972 14.2912 47.2458 14.2492 47.3693 14.1626C47.4222 14.1152 47.4634 14.0558 47.4894 13.9893C47.5155 13.9227 47.5258 13.8508 47.5195 13.7795V13.5387ZM47.0952 13.2877C47.1806 13.2901 47.2656 13.2742 47.3445 13.2411C47.4064 13.2141 47.4629 13.1758 47.5112 13.1281V12.0032C47.4618 11.9714 47.4085 11.9462 47.3528 11.9281C47.2803 11.9045 47.2044 11.8931 47.1283 11.8945C47.0494 11.8913 46.9707 11.9049 46.8973 11.9345C46.824 11.9641 46.7575 12.0089 46.7022 12.0662C46.5835 12.2109 46.5251 12.3972 46.5397 12.585C46.5372 12.6955 46.5517 12.8057 46.5829 12.9116C46.6068 12.992 46.6475 13.0662 46.7022 13.1291C46.7503 13.183 46.8102 13.2245 46.8771 13.2504C46.947 13.2763 47.0209 13.2886 47.0952 13.2877Z" fill="#CC0066"/>
<path d="M48.5255 10.8986C48.5245 10.8613 48.5306 10.8242 48.5437 10.7894C48.5568 10.7546 48.5765 10.7227 48.6017 10.6956C48.6275 10.6685 48.6585 10.6471 48.693 10.6331C48.7274 10.619 48.7644 10.6125 48.8014 10.614C48.8379 10.6128 48.8741 10.6194 48.9078 10.6335C48.9416 10.6475 48.972 10.6687 48.997 10.6956C49.0461 10.7515 49.0732 10.8237 49.0732 10.8986C49.0732 10.9735 49.0461 11.0457 48.997 11.1016C48.972 11.1285 48.9416 11.1496 48.9078 11.1637C48.8741 11.1778 48.8379 11.1844 48.8014 11.1832C48.7644 11.1847 48.7274 11.1782 48.693 11.1641C48.6585 11.1501 48.6275 11.1287 48.6017 11.1016C48.5765 11.0745 48.5568 11.0426 48.5437 11.0078C48.5306 10.973 48.5244 10.9359 48.5255 10.8986ZM49.0278 13.7354C49.0004 13.7463 48.9721 13.7547 48.9433 13.7606C48.9033 13.7693 48.8625 13.7735 48.8216 13.7732C48.7551 13.7788 48.6887 13.7603 48.6343 13.721C48.6126 13.6982 48.5959 13.6708 48.5856 13.6409C48.5753 13.6109 48.5716 13.579 48.5746 13.5474V11.5789L48.6609 11.556C48.7013 11.5458 48.7428 11.5409 48.7844 11.5415C48.8498 11.5362 48.915 11.5547 48.9681 11.5938C48.9894 11.6177 49.0055 11.6458 49.0154 11.6765C49.0253 11.7071 49.0287 11.7395 49.0255 11.7716L49.0278 13.7354Z" fill="#CC0066"/>
<path d="M50.2064 13.3443C50.2827 13.3945 50.3728 13.4187 50.4635 13.4133C50.5165 13.4129 50.5692 13.4052 50.6201 13.3905C50.6701 13.3772 50.7184 13.3582 50.7643 13.334C50.7843 13.3604 50.8023 13.3883 50.818 13.4175C50.8448 13.4719 50.8503 13.5347 50.8332 13.593C50.8162 13.6513 50.7779 13.7009 50.7262 13.7316C50.6201 13.7914 50.4992 13.819 50.3781 13.8109C50.1921 13.8205 50.0084 13.7652 49.8575 13.6541C49.7878 13.5899 49.7339 13.5101 49.6999 13.421C49.666 13.3319 49.653 13.236 49.6619 13.1409V10.9694C49.6919 10.9588 49.7226 10.9504 49.7537 10.9442C49.7944 10.9356 49.8358 10.9314 49.8772 10.9316C49.9416 10.9263 50.0058 10.9441 50.0586 10.982C50.0798 11.0047 50.096 11.0318 50.1059 11.0614C50.1158 11.0911 50.1192 11.1226 50.116 11.1537V11.6137H50.7913C50.8047 11.6391 50.8158 11.6656 50.8244 11.6931C50.8356 11.7282 50.8412 11.7649 50.8409 11.8018C50.8409 11.933 50.7874 11.9985 50.6802 11.9982H50.116V13.1073C50.1113 13.1513 50.1172 13.1958 50.1332 13.237C50.1492 13.2782 50.1748 13.3149 50.2078 13.3438" fill="#CC0066"/>
<path d="M52.0591 11.5014C52.2879 11.4886 52.5143 11.5543 52.7019 11.688C52.785 11.7608 52.85 11.8526 52.8915 11.9558C52.933 12.0591 52.9498 12.1709 52.9406 12.282V13.3659C52.9444 13.4247 52.9282 13.483 52.8947 13.531C52.8589 13.5738 52.8174 13.6112 52.7712 13.6421C52.6803 13.6939 52.5835 13.734 52.4829 13.7615C52.3473 13.7987 52.2073 13.8162 52.0669 13.8138C51.835 13.8275 51.6048 13.7652 51.4103 13.636C51.3316 13.5758 51.2687 13.4967 51.2274 13.4057C51.186 13.3148 51.1675 13.2149 51.1734 13.1149C51.1684 13.0281 51.1822 12.9413 51.2139 12.8607C51.2457 12.78 51.2946 12.7075 51.3571 12.6483C51.5089 12.5276 51.6935 12.4573 51.886 12.4472L52.4911 12.38V12.2797C52.496 12.2236 52.4874 12.1672 52.4658 12.1154C52.4443 12.0636 52.4106 12.018 52.3676 11.9825C52.2664 11.9152 52.1468 11.8825 52.026 11.8891C51.9131 11.8887 51.8008 11.9056 51.6927 11.9391C51.5934 11.9694 51.4969 12.0086 51.4044 12.0562C51.3754 12.0289 51.3505 11.9974 51.3305 11.9629C51.3083 11.9251 51.2969 11.8819 51.2976 11.8379C51.2983 11.794 51.3112 11.7511 51.3346 11.7142C51.3649 11.6748 51.4046 11.6438 51.4498 11.6241C51.5379 11.5806 51.6314 11.5492 51.7276 11.5308C51.8368 11.5093 51.9479 11.4989 52.0591 11.4995M52.0674 13.4326C52.1577 13.4344 52.2478 13.4231 52.335 13.399C52.3911 13.3852 52.4442 13.361 52.4916 13.3276V12.7379L52.0224 12.7882C51.916 12.7955 51.8129 12.8284 51.7217 12.8844C51.6882 12.9099 51.6616 12.9436 51.6444 12.9823C51.6271 13.0211 51.6198 13.0636 51.6229 13.106C51.6211 13.1515 51.6298 13.1968 51.6484 13.2382C51.667 13.2796 51.6949 13.316 51.7299 13.3444C51.8296 13.4111 51.9484 13.442 52.0674 13.4321" fill="#CC0066"/>
<path d="M53.8004 13.7734C53.735 13.7779 53.6702 13.7595 53.6167 13.7211C53.5943 13.6987 53.5771 13.6715 53.5664 13.6414C53.5556 13.6114 53.5516 13.5793 53.5547 13.5475V10.7275L53.641 10.7046C53.6814 10.6944 53.7229 10.6895 53.7645 10.6902C53.8295 10.6856 53.8941 10.7031 53.9482 10.7401C53.9707 10.762 53.988 10.7889 53.9987 10.8187C54.0095 10.8484 54.0134 10.8803 54.0102 10.9118V13.736C53.9854 13.7444 53.9548 13.7528 53.9183 13.7612C53.8791 13.77 53.8391 13.7743 53.799 13.7738" fill="#CC0066"/>
<path d="M56.0787 12.7731V13.7356C56.0476 13.7458 56.016 13.7542 55.9841 13.7608C55.9434 13.7695 55.9021 13.7737 55.8606 13.7734C55.7923 13.7794 55.7243 13.76 55.6691 13.7188C55.6473 13.6947 55.6307 13.6663 55.6204 13.6352C55.6101 13.6042 55.6064 13.5713 55.6094 13.5387V11.141C55.6067 11.096 55.6216 11.0517 55.6508 11.0178C55.6818 10.9861 55.7199 10.9624 55.7619 10.9487C55.8671 10.9127 55.9763 10.8895 56.0869 10.8797C56.2094 10.8672 56.326 10.861 56.4368 10.861C56.7383 10.836 57.038 10.9271 57.2765 11.1162C57.3682 11.2055 57.4399 11.3137 57.4868 11.4335C57.5337 11.5534 57.5547 11.6821 57.5483 11.811C57.554 11.9405 57.5328 12.0698 57.4859 12.1904C57.4391 12.311 57.3677 12.4202 57.2765 12.5108C57.0487 12.703 56.7563 12.7975 56.4611 12.7745L56.0787 12.7731ZM56.4368 12.3671C56.6038 12.3768 56.769 12.3273 56.9042 12.2272C56.9625 12.1761 57.0083 12.1118 57.038 12.0396C57.0676 11.9673 57.0803 11.8891 57.075 11.811C57.0814 11.7344 57.0701 11.6574 57.0419 11.5862C57.0136 11.5149 56.9693 11.4515 56.9124 11.4008C56.7753 11.3058 56.6107 11.2601 56.445 11.2711C56.382 11.2711 56.3174 11.2739 56.2513 11.2795C56.1918 11.2843 56.1326 11.2927 56.0741 11.3047V12.3676L56.4368 12.3671Z" fill="#CC0066"/>
<path d="M58.7895 11.5019C59.0183 11.4891 59.2447 11.5548 59.4323 11.6885C59.5155 11.7613 59.5805 11.8531 59.622 11.9563C59.6635 12.0596 59.6804 12.1714 59.6711 12.2825V13.3664C59.6749 13.4251 59.6587 13.4835 59.6251 13.5315C59.5894 13.5743 59.5478 13.6117 59.5017 13.6426C59.4108 13.6943 59.3139 13.7345 59.2133 13.762C59.0778 13.7992 58.9377 13.8167 58.7974 13.8143C58.5654 13.828 58.3353 13.7657 58.1408 13.6365C58.0621 13.5763 57.9992 13.4972 57.9578 13.4062C57.9165 13.3153 57.898 13.2153 57.9039 13.1153C57.8988 13.0286 57.9126 12.9418 57.9444 12.8612C57.9761 12.7805 58.025 12.708 58.0875 12.6488C58.2393 12.528 58.424 12.4578 58.6165 12.4477L59.2216 12.3805V12.2802C59.2265 12.2241 59.2179 12.1677 59.1963 12.1159C59.1748 12.0641 59.141 12.0184 59.0981 11.9829C58.9969 11.9157 58.8772 11.883 58.7565 11.8896C58.6436 11.8892 58.5312 11.906 58.4232 11.9396C58.3238 11.9698 58.2274 12.009 58.1348 12.0567C58.1059 12.0294 58.081 11.9979 58.0609 11.9633C58.0387 11.9256 58.0274 11.8824 58.0281 11.8384C58.0288 11.7945 58.0416 11.7516 58.065 11.7147C58.0954 11.6753 58.135 11.6443 58.1803 11.6246C58.2684 11.5811 58.3618 11.5497 58.4581 11.5313C58.5673 11.5098 58.6783 11.4993 58.7895 11.5M58.7978 13.4331C58.8881 13.4349 58.9783 13.4236 59.0655 13.3995C59.1215 13.3857 59.1746 13.3615 59.222 13.3281V12.7383L58.7528 12.7887C58.6465 12.7959 58.5434 12.8289 58.4521 12.8848C58.4187 12.9104 58.3921 12.9441 58.3749 12.9828C58.3576 13.0216 58.3502 13.0641 58.3534 13.1065C58.3516 13.152 58.3603 13.1972 58.3789 13.2387C58.3975 13.2801 58.4254 13.3165 58.4604 13.3449C58.5601 13.4116 58.6788 13.4424 58.7978 13.4326" fill="#CC0066"/>
<path d="M60.6472 13.2378C60.5732 13.0844 60.4834 12.8682 60.3778 12.5892C60.2722 12.3102 60.1713 11.9949 60.0752 11.6434C60.1046 11.6083 60.1403 11.5792 60.1803 11.5576C60.2225 11.534 60.2699 11.5218 60.3181 11.5221C60.3739 11.5194 60.4291 11.5359 60.4746 11.5688C60.5237 11.6138 60.5581 11.6728 60.5734 11.7382C60.6529 11.9892 60.7347 12.2368 60.8185 12.481C60.9024 12.7251 60.995 12.9769 61.0963 13.2364H61.1128C61.1566 13.1359 61.2011 13.0194 61.2464 12.8869C61.2917 12.7544 61.3356 12.6135 61.3782 12.4642C61.4207 12.3149 61.4613 12.1635 61.4999 12.0102C61.5384 11.8568 61.5727 11.7105 61.6027 11.5711C61.6305 11.5571 61.6594 11.5452 61.689 11.5357C61.7237 11.5253 61.7598 11.5205 61.796 11.5212C61.8531 11.519 61.9094 11.5353 61.9567 11.5679C61.9792 11.5857 61.997 11.6091 62.0085 11.6357C62.02 11.6623 62.0247 11.6915 62.0223 11.7204C62.0157 11.845 61.9957 11.9684 61.9627 12.0886C61.9229 12.2531 61.8714 12.4359 61.8084 12.6368C61.7453 12.8377 61.6733 13.0399 61.5921 13.2434C61.511 13.4471 61.4293 13.6284 61.347 13.7874C61.2377 14.0081 61.1066 14.217 60.9558 14.4107C60.9184 14.4684 60.8694 14.5173 60.8119 14.5541C60.7544 14.5909 60.6898 14.6147 60.6225 14.624C60.5872 14.626 60.5519 14.6208 60.5187 14.6086C60.4855 14.5964 60.455 14.5775 60.4292 14.5531C60.3811 14.504 60.349 14.4411 60.3373 14.373C60.3911 14.3238 60.4421 14.2714 60.4898 14.2162C60.5446 14.154 60.5995 14.0871 60.6546 14.0155C60.7097 13.944 60.7625 13.8708 60.813 13.7958C60.8608 13.7256 60.9028 13.6515 60.9383 13.5742C60.8847 13.5544 60.8362 13.5225 60.7965 13.4808C60.7332 13.4077 60.6825 13.3242 60.6464 13.234" fill="#CC0066"/>
<path d="M64.8794 11.9894C64.7965 11.9229 64.6924 11.8897 64.5869 11.896C64.5081 11.8957 64.43 11.9115 64.3574 11.9427C64.2832 11.9747 64.215 12.0192 64.1554 12.0743C64.161 12.1005 64.1651 12.1269 64.1678 12.1536C64.1705 12.1816 64.1719 12.2096 64.1719 12.2371V13.7353C64.1445 13.7462 64.1162 13.7546 64.0874 13.7605C64.049 13.7691 64.0097 13.7733 63.9703 13.7731C63.9031 13.7784 63.8361 13.76 63.7807 13.7208C63.7584 13.6984 63.7413 13.6711 63.7307 13.6411C63.72 13.6111 63.7161 13.579 63.7192 13.5473V12.2875C63.724 12.2327 63.7169 12.1776 63.6984 12.1259C63.68 12.0742 63.6505 12.0273 63.6123 11.9884C63.5293 11.922 63.4252 11.8888 63.3198 11.8951C63.2413 11.8947 63.1635 11.9089 63.0902 11.9371C63.0267 11.9613 62.9661 11.9926 62.9093 12.0304V13.7376C62.882 13.7486 62.8536 13.757 62.8248 13.7628C62.7848 13.7716 62.744 13.7758 62.7031 13.7754C62.6378 13.7801 62.573 13.7616 62.5195 13.7232C62.4971 13.7008 62.4799 13.6736 62.4692 13.6435C62.4584 13.6135 62.4545 13.5814 62.4575 13.5496V12.0183C62.4545 11.9579 62.468 11.8978 62.4966 11.8447C62.531 11.7927 62.5749 11.7478 62.626 11.7127C62.8386 11.5781 63.0836 11.5058 63.334 11.5036C63.459 11.5014 63.5834 11.522 63.7013 11.5643C63.8031 11.6012 63.8948 11.6622 63.969 11.7421C64.0553 11.6711 64.1517 11.614 64.255 11.5727C64.379 11.5243 64.5111 11.5009 64.6439 11.5036C64.7527 11.5029 64.861 11.5186 64.9652 11.5503C65.0586 11.5779 65.1451 11.6256 65.2187 11.6903C65.2909 11.7562 65.3478 11.8377 65.3854 11.9287C65.4291 12.0383 65.4502 12.1558 65.4473 12.274V13.7386C65.4172 13.7485 65.3865 13.7569 65.3555 13.7638C65.3171 13.7723 65.2778 13.7765 65.2385 13.7764C65.1732 13.7809 65.1083 13.7625 65.0548 13.7241C65.0324 13.7017 65.0152 13.6745 65.0045 13.6444C64.9937 13.6144 64.9898 13.5823 64.9928 13.5505V12.2908C64.9978 12.236 64.9907 12.1808 64.9722 12.1291C64.9538 12.0774 64.9242 12.0304 64.8858 11.9917" fill="#CC0066"/>
<path d="M66.3987 12.9026C66.4251 13.0585 66.509 13.1983 66.6333 13.2936C66.7673 13.3833 66.9257 13.4278 67.086 13.421C67.1993 13.4224 67.3118 13.4018 67.4175 13.3603C67.5037 13.3272 67.586 13.2843 67.6627 13.2325C67.7003 13.2524 67.7317 13.2824 67.7534 13.3193C67.7752 13.3562 67.7866 13.3985 67.7862 13.4415C67.7857 13.4959 67.7652 13.5482 67.7288 13.588C67.6848 13.6368 67.6316 13.6761 67.5723 13.7033C67.4989 13.7379 67.4219 13.7639 67.3427 13.7807C67.0959 13.8316 66.8404 13.8155 66.6017 13.7341C66.4689 13.6867 66.3481 13.6103 66.2477 13.5101C66.1454 13.4061 66.067 13.2804 66.0181 13.142C65.9621 12.98 65.9349 12.8092 65.9378 12.6376C65.9346 12.4704 65.9604 12.3039 66.014 12.1458C66.0593 12.014 66.1316 11.8935 66.2261 11.7922C66.3162 11.6976 66.4249 11.6235 66.5452 11.5747C66.6689 11.5243 66.8012 11.4987 66.9345 11.4996C67.0649 11.4978 67.1944 11.5227 67.3151 11.5729C67.4258 11.619 67.5261 11.6875 67.61 11.7742C67.6939 11.8609 67.7596 11.964 67.8032 12.0772C67.8507 12.1997 67.8744 12.3305 67.8729 12.4622C67.8756 12.493 67.8723 12.524 67.8631 12.5535C67.8539 12.583 67.839 12.6103 67.8192 12.6339C67.7771 12.6733 67.7237 12.6981 67.6668 12.7048L66.3987 12.9026ZM66.9341 11.8761C66.8595 11.8744 66.7854 11.889 66.7169 11.9189C66.6484 11.9489 66.587 11.9935 66.5369 12.0497C66.4234 12.187 66.364 12.3623 66.3703 12.5415L67.4405 12.3782C67.433 12.247 67.3831 12.1221 67.2986 12.0226C67.2523 11.9725 67.1956 11.9333 67.1327 11.908C67.0697 11.8826 67.0016 11.8718 66.9341 11.8761Z" fill="#CC0066"/>
<path d="M69.5937 12.002C69.5021 11.9267 69.3863 11.8887 69.2687 11.8952C69.1764 11.8937 69.0845 11.9079 68.9968 11.9372C68.9256 11.9618 68.8568 11.993 68.7912 12.0305V13.7377C68.7638 13.7486 68.7355 13.7571 68.7067 13.7629C68.6667 13.7716 68.6259 13.7759 68.585 13.7755C68.5197 13.7801 68.4548 13.7616 68.4014 13.7233C68.3789 13.7009 68.3618 13.6736 68.351 13.6436C68.3403 13.6136 68.3363 13.5815 68.3394 13.5497V12.0184C68.3365 11.958 68.35 11.8979 68.3784 11.8448C68.413 11.7927 68.4571 11.7479 68.5084 11.7128C68.6096 11.6548 68.7166 11.6079 68.8275 11.5728C68.9705 11.5263 69.12 11.5038 69.2701 11.5061C69.507 11.4923 69.741 11.5642 69.9307 11.709C70.0142 11.7858 70.0793 11.8809 70.1211 11.9872C70.1629 12.0934 70.1802 12.208 70.1718 12.3221V13.7405C70.1428 13.7509 70.1132 13.7594 70.0832 13.7657C70.0433 13.7744 70.0027 13.7786 69.9619 13.7783C69.8966 13.7829 69.8318 13.7644 69.7783 13.726C69.756 13.7036 69.7388 13.6764 69.7282 13.6463C69.7175 13.6163 69.7136 13.5842 69.7167 13.5525V12.3394C69.7219 12.2784 69.7139 12.2171 69.6933 12.1596C69.6726 12.1022 69.64 12.05 69.5974 12.0067" fill="#CC0066"/>
<path d="M71.3207 13.3443C71.397 13.3945 71.4871 13.4187 71.5779 13.4133C71.6308 13.4129 71.6835 13.4052 71.7344 13.3905C71.7844 13.3772 71.8327 13.3582 71.8785 13.334C71.8986 13.3604 71.9166 13.3883 71.9323 13.4175C71.9592 13.4719 71.9647 13.5347 71.9477 13.5931C71.9306 13.6514 71.8922 13.701 71.8404 13.7316C71.7343 13.7914 71.6135 13.819 71.4925 13.8109C71.3064 13.8205 71.1227 13.7652 70.9718 13.6541C70.9021 13.5899 70.8481 13.5101 70.8142 13.421C70.7802 13.3319 70.7672 13.236 70.7762 13.1409V10.9694C70.8062 10.9588 70.8369 10.9504 70.8681 10.9442C70.9087 10.9356 70.95 10.9314 70.9915 10.9316C71.0559 10.9263 71.1201 10.9441 71.1729 10.982C71.1942 11.0046 71.2104 11.0317 71.2204 11.0614C71.2304 11.091 71.2339 11.1225 71.2307 11.1537V11.6137H71.9061C71.9196 11.639 71.9307 11.6656 71.9392 11.6931C71.9504 11.7282 71.956 11.7649 71.9557 11.8018C71.9557 11.933 71.9021 11.9985 71.795 11.9982H71.2307V13.1073C71.2261 13.1513 71.232 13.1958 71.248 13.237C71.264 13.2782 71.2896 13.3149 71.3226 13.3438" fill="#CC0066"/>
<path d="M73.9377 13.1458C73.9418 13.2386 73.9244 13.3311 73.8869 13.4158C73.8493 13.5005 73.7926 13.575 73.7215 13.6334C73.5383 13.7639 73.3166 13.8266 73.0934 13.8111C72.9871 13.8119 72.881 13.8021 72.7767 13.7817C72.6926 13.7662 72.6109 13.7396 72.5338 13.7024C72.4739 13.6736 72.4207 13.6323 72.3777 13.5811C72.3407 13.5382 72.3202 13.4832 72.3198 13.4262C72.3197 13.3817 72.3303 13.3378 72.3506 13.2984C72.3715 13.2574 72.4033 13.2233 72.4424 13.1999C72.5292 13.2597 72.6214 13.3108 72.7179 13.3525C72.8326 13.4006 72.956 13.4241 73.0801 13.4215C73.1851 13.4285 73.2896 13.4038 73.3808 13.3506C73.4139 13.3284 73.4408 13.2979 73.4588 13.262C73.4769 13.2261 73.4854 13.1861 73.4837 13.1458C73.4854 13.1115 73.4802 13.0771 73.4681 13.045C73.4561 13.0129 73.4376 12.9836 73.4139 12.9592C73.3538 12.9061 73.2814 12.8693 73.2036 12.8523L72.907 12.7688C72.746 12.7316 72.5971 12.6531 72.4745 12.5406C72.4267 12.4875 72.3899 12.4251 72.3662 12.3572C72.3426 12.2893 72.3326 12.2173 72.3368 12.1454C72.3364 12.058 72.3547 11.9716 72.3905 11.8921C72.4261 11.8129 72.4788 11.7428 72.5448 11.6873C72.6199 11.6259 72.706 11.5798 72.7982 11.5515C72.9102 11.5164 73.0268 11.4994 73.1439 11.5011C73.2407 11.5 73.3373 11.5091 73.4323 11.5282C73.5082 11.5433 73.5821 11.5673 73.6526 11.5995C73.7083 11.624 73.7576 11.6612 73.7968 11.7083C73.8296 11.7473 73.8478 11.7969 73.8482 11.8482C73.8492 11.8921 73.8386 11.9354 73.8175 11.9737C73.7984 12.0081 73.7724 12.038 73.7412 12.0615C73.6661 12.0182 73.5876 11.981 73.5066 11.9504C73.4016 11.9093 73.2899 11.8888 73.1774 11.8897C73.0771 11.8839 72.9771 11.9071 72.8891 11.9565C72.8618 11.9739 72.8385 11.9973 72.821 12.0249C72.8035 12.0524 72.7921 12.0836 72.7877 12.1161C72.7834 12.1486 72.7861 12.1817 72.7956 12.2131C72.8052 12.2444 72.8215 12.2733 72.8432 12.2975C72.9008 12.3479 72.9705 12.3819 73.0452 12.396L73.3005 12.4632C73.4799 12.5057 73.6462 12.5927 73.7844 12.7165C73.8373 12.7737 73.8783 12.8411 73.9048 12.9148C73.9314 12.9885 73.9429 13.067 73.9387 13.1453" fill="#CC0066"/>
<path d="M11.0937 6.56494V14.7334C11.0938 15.2681 10.9323 15.79 10.6313 16.2285C10.3302 16.6671 9.90398 17.0012 9.41014 17.1858L2.07979 19.9255C1.96442 19.9688 1.84047 19.983 1.71851 19.9671C1.59655 19.9512 1.48018 19.9055 1.37932 19.834C1.27845 19.7625 1.19608 19.6673 1.13922 19.5565C1.08236 19.4457 1.05269 19.3226 1.05273 19.1977V12.2666C1.05297 11.8497 1.1788 11.443 1.4133 11.101C1.6478 10.759 1.97973 10.4982 2.36445 10.3536L9.13972 7.80698C10.209 7.36699 10.6268 7.09778 11.0942 6.56727" fill="white"/>
<path d="M17.5385 8.63193C17.5309 8.93564 17.41 9.22507 17.2003 9.44162C16.9906 9.65818 16.7078 9.7857 16.4091 9.79838H14.8728C14.7843 9.80051 14.6985 9.76681 14.6343 9.7047C14.5702 9.64258 14.533 9.55712 14.5308 9.46711V6.06665C14.5301 6.02155 14.5384 5.97677 14.555 5.93496C14.5717 5.89316 14.5965 5.85518 14.6279 5.82328C14.6592 5.79138 14.6966 5.76621 14.7377 5.74927C14.7789 5.73233 14.8229 5.72396 14.8673 5.72465H16.3498C16.5716 5.73657 16.7852 5.8136 16.9647 5.9464C17.1442 6.07921 17.282 6.26209 17.3613 6.47287C17.4406 6.68365 17.4581 6.91329 17.4115 7.13394C17.365 7.35459 17.2565 7.55679 17.0991 7.71603C17.2347 7.82598 17.3445 7.96521 17.4206 8.12363C17.4966 8.28204 17.5366 8.45567 17.5385 8.63193ZM15.1828 7.41881L16.2741 7.40761C16.4066 7.40318 16.5326 7.34769 16.6264 7.25238C16.7202 7.15708 16.7748 7.02909 16.7791 6.89437C16.7783 6.7648 16.7281 6.6406 16.6389 6.54798C16.5497 6.45536 16.4286 6.40156 16.3012 6.39793H15.1828V7.41881ZM16.8659 8.63193C16.8568 8.49462 16.7979 8.36563 16.7006 8.26988C16.6034 8.17414 16.4746 8.11844 16.3393 8.11355H15.2098V9.13397H16.3714C16.5011 9.12977 16.6244 9.07552 16.7162 8.98227C16.8079 8.88901 16.8613 8.76374 16.8654 8.63193" fill="white"/>
<path d="M20.2107 8.11351H19.7167V9.4666C19.7148 9.55567 19.6784 9.64036 19.6154 9.7023C19.5523 9.76424 19.4678 9.79841 19.3802 9.79741C19.2939 9.79716 19.2112 9.76225 19.1501 9.70027C19.089 9.6383 19.0546 9.55431 19.0542 9.4666V6.05542C19.0569 5.96663 19.0936 5.88242 19.1565 5.82066C19.2193 5.7589 19.3033 5.72444 19.3907 5.72461H20.5794C20.885 5.73139 21.1765 5.85707 21.3936 6.07575C21.6107 6.29442 21.7371 6.58942 21.7465 6.89993C21.7408 7.15036 21.6604 7.39313 21.516 7.5961C21.3715 7.79906 21.1698 7.95265 20.9375 8.03653L21.6923 9.28883C21.7363 9.36595 21.7491 9.45745 21.7278 9.54394C21.7065 9.63043 21.653 9.70511 21.5785 9.75215C21.5268 9.78098 21.4689 9.79622 21.41 9.79648C21.3534 9.79643 21.2978 9.7817 21.2483 9.75369C21.1989 9.72569 21.1574 9.68533 21.1276 9.63644L20.2107 8.11351ZM21.0904 6.90507C21.0842 6.7667 21.0252 6.63624 20.9258 6.54144C20.8264 6.44664 20.6946 6.39497 20.5583 6.39742H19.7167V7.44023H20.5583C20.6985 7.44036 20.8331 7.3842 20.9328 7.28397C21.0324 7.18374 21.0891 7.04755 21.0904 6.90507Z" fill="white"/>
<path d="M25.5578 9.79582C25.0283 9.79003 24.5227 9.57147 24.1514 9.18791C23.7801 8.80434 23.5733 8.28698 23.5762 7.74892C23.5831 7.35278 23.7049 6.96753 23.9264 6.6415C24.148 6.31547 24.4593 6.06318 24.8214 5.91629C25.1835 5.7694 25.5802 5.73446 25.9617 5.81584C26.3433 5.89722 26.6927 6.09131 26.9661 6.37374C27.2395 6.65617 27.4248 7.01438 27.4986 7.40341C27.5725 7.79244 27.5316 8.19496 27.3812 8.56048C27.2308 8.92601 26.9775 9.23824 26.6531 9.45801C26.3287 9.67778 25.9476 9.7953 25.5578 9.79582ZM24.2167 7.74892C24.2171 8.01905 24.2964 8.28297 24.4445 8.50731C24.5925 8.73165 24.8027 8.90633 25.0485 9.00926C25.2943 9.11218 25.5645 9.13873 25.8251 9.08554C26.0857 9.03236 26.325 8.90183 26.5126 8.71046C26.7002 8.51909 26.8277 8.27549 26.8791 8.01045C26.9304 7.74541 26.9033 7.47085 26.8011 7.22149C26.6989 6.97213 26.5262 6.75917 26.3049 6.60954C26.0836 6.45992 25.8236 6.38035 25.5578 6.38091C25.2023 6.38445 24.8625 6.52988 24.6116 6.78582C24.3607 7.04175 24.2188 7.38766 24.2167 7.74892Z" fill="white"/>
<path d="M32.2247 9.76945C32.1826 9.78609 32.1377 9.79398 32.0927 9.79267C32.0476 9.79135 32.0032 9.78085 31.9622 9.7618C31.9212 9.74274 31.8844 9.71551 31.8539 9.68172C31.8234 9.64793 31.7999 9.60827 31.7848 9.56509L30.8666 7.04554L29.9437 9.56509C29.9297 9.60838 29.907 9.64829 29.8772 9.68233C29.8473 9.71637 29.8109 9.74381 29.7702 9.76297C29.7295 9.78213 29.6853 9.79259 29.6404 9.7937C29.5956 9.79482 29.551 9.78656 29.5094 9.76945C29.4666 9.75454 29.4272 9.73092 29.3937 9.70005C29.3602 9.66917 29.3332 9.63169 29.3143 9.58986C29.2955 9.54804 29.2853 9.50277 29.2843 9.45679C29.2832 9.41082 29.2914 9.36512 29.3083 9.32246L30.5351 5.94021C30.5609 5.87263 30.6065 5.8147 30.6656 5.77424C30.7248 5.73378 30.7948 5.71273 30.8661 5.71391C30.9371 5.71426 31.0064 5.73593 31.0653 5.77619C31.1242 5.81646 31.1701 5.87352 31.1971 5.94021L32.4239 9.32246C32.4408 9.36509 32.449 9.41077 32.448 9.45672C32.447 9.50267 32.4368 9.54792 32.4181 9.58974C32.3993 9.63156 32.3723 9.66905 32.3388 9.69995C32.3054 9.73084 32.266 9.75449 32.2233 9.76945" fill="white"/>
<path d="M33.7935 9.46598V6.07205C33.7956 5.98499 33.8305 5.90208 33.8911 5.8405C33.9517 5.77892 34.0333 5.74338 34.119 5.74125H34.928C35.2193 5.73951 35.5078 5.79958 35.775 5.91762C36.0318 6.03211 36.2614 6.20142 36.4481 6.41406C36.6344 6.62905 36.7735 6.88199 36.8559 7.15597C36.9383 7.42995 36.9622 7.71865 36.9261 8.00277C36.8662 8.49616 36.6313 8.95043 36.2656 9.2805C35.8998 9.61057 35.4281 9.7938 34.939 9.79585H34.1194C34.0337 9.79372 33.9522 9.75818 33.8916 9.6966C33.831 9.63502 33.796 9.55211 33.7939 9.46504M36.2695 7.92532C36.2982 7.73477 36.2853 7.54014 36.2319 7.35519C36.1784 7.17024 36.0856 6.99948 35.9601 6.85498C35.8302 6.70826 35.671 6.5915 35.493 6.51255C35.3151 6.4336 35.1225 6.39429 34.9284 6.39727H34.4454V9.13377H34.9394C35.2687 9.13393 35.5865 9.01078 35.8322 8.78786C36.0778 8.56494 36.234 8.25787 36.2709 7.92532" fill="white"/>
<path d="M40.1505 9.22853C39.988 9.47797 39.7377 9.65468 39.4509 9.72237C39.1642 9.79005 38.8628 9.74357 38.6088 9.59246C38.5309 9.54445 38.4733 9.46873 38.4472 9.38001C38.4212 9.29129 38.4285 9.19589 38.4678 9.11235C38.5267 9.04312 38.6092 8.99901 38.6987 8.98881C38.7882 8.97861 38.8782 9.00306 38.9508 9.05729C39.0633 9.11938 39.1949 9.13571 39.3188 9.10296C39.4428 9.07022 39.5499 8.99086 39.6184 8.88093C39.6562 8.82372 39.6826 8.75948 39.696 8.6919C39.7094 8.62431 39.7096 8.5547 39.6965 8.48706C39.6834 8.41941 39.6573 8.35505 39.6197 8.29766C39.5821 8.24027 39.5338 8.19097 39.4774 8.15259C39.2116 7.98135 39.202 7.97622 38.9453 7.80499C38.6912 7.63742 38.513 7.37413 38.4499 7.07305C38.3868 6.77197 38.4439 6.45774 38.6088 6.19948C38.773 5.9521 39.0232 5.77702 39.3092 5.70943C39.5952 5.64183 39.8958 5.68672 40.1505 5.83508C40.2259 5.87981 40.2814 5.95227 40.3057 6.03746C40.3299 6.12265 40.3211 6.21406 40.2809 6.29279C40.227 6.36494 40.1479 6.41324 40.0599 6.42766C39.972 6.44208 39.8819 6.42152 39.8084 6.37025C39.691 6.30947 39.5551 6.29676 39.4287 6.33474C39.3023 6.37272 39.195 6.45849 39.1289 6.5744C39.0629 6.69031 39.0431 6.82754 39.0736 6.95786C39.1041 7.08817 39.1825 7.20166 39.2929 7.27495C39.4306 7.36313 39.4306 7.36313 39.8195 7.62255C39.945 7.7058 40.0532 7.81339 40.1378 7.93917C40.2224 8.06494 40.2818 8.20644 40.3126 8.35556C40.3433 8.50467 40.3448 8.65849 40.317 8.80821C40.2892 8.95792 40.2326 9.10106 40.1505 9.22853Z" fill="white"/>
<path d="M43.816 8.10424C43.5124 8.12615 43.2078 8.12989 42.9038 8.11544V9.46853C42.9018 9.55759 42.8654 9.64229 42.8024 9.70422C42.7394 9.76616 42.6549 9.80034 42.5672 9.79933C42.481 9.79896 42.3984 9.76399 42.3375 9.70203C42.2765 9.64008 42.2421 9.55615 42.2417 9.46853V6.06667C42.2412 6.02308 42.2492 5.9798 42.2653 5.93941C42.2815 5.89902 42.3055 5.86233 42.3358 5.8315C42.3662 5.80067 42.4023 5.77632 42.442 5.7599C42.4817 5.74347 42.5243 5.7353 42.5672 5.73587H43.7834C44.0865 5.74546 44.3743 5.87358 44.5867 6.09351C44.7991 6.31343 44.9197 6.60819 44.9235 6.91632C44.9185 7.21902 44.802 7.50883 44.597 7.72845C44.3919 7.94806 44.1132 8.0815 43.816 8.10237M43.7403 6.39795H42.9042V7.44076H43.7403C43.8802 7.43992 44.0143 7.38344 44.1137 7.28342C44.2132 7.18339 44.2701 7.04777 44.2724 6.90559C44.2653 6.76754 44.206 6.63764 44.1068 6.54303C44.0076 6.44842 43.8763 6.39643 43.7403 6.39795Z" fill="white"/>
<path d="M46.6602 9.46621V6.05642C46.6605 5.9688 46.6949 5.88487 46.7559 5.82291C46.8169 5.76095 46.8994 5.72598 46.9857 5.72561H48.9415C49.0292 5.72449 49.1138 5.75862 49.1768 5.82059C49.2399 5.88255 49.2763 5.96731 49.2781 6.05642C49.2776 6.14697 49.242 6.23368 49.179 6.29771C49.116 6.36175 49.0306 6.39794 48.9415 6.39843H47.3236V7.44124H48.5453C48.5882 7.44067 48.6308 7.44884 48.6705 7.46527C48.7103 7.48169 48.7464 7.50604 48.7767 7.53687C48.8071 7.5677 48.831 7.6044 48.8472 7.64479C48.8633 7.68518 48.8714 7.72845 48.8708 7.77204C48.8715 7.81568 48.8635 7.859 48.8473 7.89945C48.8312 7.93989 48.8072 7.97664 48.7769 8.00752C48.7466 8.0384 48.7104 8.06279 48.6706 8.07924C48.6309 8.0957 48.5883 8.10388 48.5453 8.10332H47.3236V9.12374H48.9415C49.0306 9.12423 49.116 9.16042 49.179 9.22445C49.242 9.28848 49.2776 9.37518 49.2781 9.46574C49.2762 9.5548 49.2397 9.6395 49.1767 9.70144C49.1137 9.76338 49.0292 9.79755 48.9415 9.79655H46.9871C46.9008 9.79618 46.8183 9.76121 46.7573 9.69925C46.6963 9.63729 46.6619 9.55336 46.6615 9.46574" fill="white"/>
<path d="M54.3866 9.35554C54.0409 9.63497 53.6121 9.78667 53.1704 9.78573C52.6391 9.78573 52.1295 9.57123 51.7538 9.18942C51.3781 8.80761 51.167 8.28976 51.167 7.7498C51.167 7.20984 51.3781 6.69199 51.7538 6.31018C52.1295 5.92837 52.6391 5.71387 53.1704 5.71387C53.5313 5.71436 53.8849 5.81765 54.191 6.01201C54.2295 6.03233 54.2635 6.06035 54.291 6.09438C54.3186 6.12841 54.3391 6.16775 54.3512 6.21003C54.3634 6.25232 54.367 6.29667 54.3619 6.34041C54.3568 6.38416 54.343 6.4264 54.3214 6.4646C54.2994 6.50242 54.2699 6.53522 54.2348 6.56094C54.1997 6.58666 54.1598 6.60475 54.1175 6.61408C54.0753 6.6234 54.0315 6.62377 53.9891 6.61515C53.9467 6.60653 53.9065 6.58911 53.871 6.56398C53.6592 6.43613 53.4172 6.36935 53.1708 6.37081C52.9948 6.37081 52.8204 6.40607 52.6578 6.47458C52.4951 6.54308 52.3473 6.64349 52.2229 6.77005C52.0984 6.89662 51.9997 7.04687 51.9324 7.21222C51.8651 7.37757 51.8305 7.55477 51.8307 7.7337C51.8246 7.98997 51.8898 8.24279 52.0187 8.46311C52.1477 8.68343 52.3351 8.86233 52.5596 8.97927C52.7841 9.0962 53.0364 9.14643 53.2877 9.12418C53.539 9.10194 53.7791 9.00812 53.9803 8.8535C54.0118 8.82602 54.0485 8.8052 54.088 8.79226C54.1276 8.77932 54.1693 8.77451 54.2107 8.77811C54.2521 8.78172 54.2924 8.79366 54.3292 8.81326C54.3661 8.83285 54.3986 8.85969 54.4252 8.89223C54.4804 8.95887 54.5074 9.04504 54.5003 9.13188C54.4931 9.21872 54.4524 9.29914 54.3871 9.35554" fill="white"/>
<path d="M58.9075 6.05007C58.9075 6.09332 58.8991 6.13614 58.8827 6.17604C58.8663 6.21594 58.8422 6.25213 58.8119 6.28252C58.7817 6.3129 58.7457 6.33687 58.7063 6.35303C58.6668 6.3692 58.6246 6.37723 58.582 6.37668H57.7845V9.46639C57.7845 9.55344 57.7505 9.63693 57.6899 9.69849C57.6293 9.76005 57.5472 9.79463 57.4615 9.79463C57.3759 9.79463 57.2937 9.76005 57.2331 9.69849C57.1725 9.63693 57.1385 9.55344 57.1385 9.46639V6.37575H56.3406C56.2549 6.37575 56.1728 6.34117 56.1122 6.27961C56.0516 6.21805 56.0176 6.13456 56.0176 6.04751C56.0176 5.96045 56.0516 5.87696 56.1122 5.8154C56.1728 5.75385 56.2549 5.71927 56.3406 5.71927H58.5825C58.6254 5.7187 58.668 5.72687 58.7077 5.7433C58.7474 5.75972 58.7835 5.78407 58.8139 5.8149C58.8442 5.84573 58.8682 5.88242 58.8843 5.92281C58.9005 5.9632 58.9081 6.00647 58.9075 6.05007Z" fill="white"/>
<path d="M61.6936 8.11351H61.1996V9.4666C61.1977 9.55567 61.1613 9.64036 61.0983 9.7023C61.0353 9.76424 60.9507 9.79841 60.8631 9.79741C60.7768 9.79716 60.6941 9.76225 60.633 9.70027C60.5719 9.6383 60.5375 9.55431 60.5371 9.4666V6.05542C60.5399 5.96663 60.5765 5.88242 60.6394 5.82066C60.7022 5.7589 60.7862 5.72444 60.8736 5.72461H62.0628C62.3684 5.73139 62.6598 5.85707 62.8769 6.07575C63.0941 6.29442 63.2204 6.58942 63.2299 6.89993C63.2242 7.15036 63.1438 7.39313 62.9993 7.5961C62.8549 7.79906 62.6532 7.95265 62.4209 8.03653L63.1757 9.28883C63.2196 9.36601 63.2323 9.45755 63.2109 9.54404C63.1896 9.63054 63.1359 9.70518 63.0613 9.75215C63.0097 9.781 62.9518 9.79624 62.8929 9.79648C62.8363 9.79643 62.7806 9.7817 62.7312 9.75369C62.6818 9.72569 62.6403 9.68533 62.6105 9.63644L61.6936 8.11351ZM62.5733 6.90507C62.5671 6.7667 62.5081 6.63624 62.4087 6.54144C62.3093 6.44664 62.1775 6.39497 62.0412 6.39742H61.1996V7.44023H62.0412C62.1814 7.44036 62.316 7.3842 62.4156 7.28397C62.5153 7.18374 62.572 7.04755 62.5733 6.90507Z" fill="white"/>
<path d="M67.9913 6.05051V8.3069C67.9947 8.50473 67.9594 8.70128 67.8873 8.88507C67.8152 9.06886 67.7077 9.2362 67.5713 9.37735C67.4349 9.51849 67.2721 9.63059 67.0926 9.70712C66.913 9.78365 66.7203 9.82306 66.5256 9.82306C66.3309 9.82306 66.1381 9.78365 65.9585 9.70712C65.779 9.63059 65.6163 9.51849 65.4798 9.37735C65.3434 9.2362 65.2359 9.06886 65.1638 8.88507C65.0917 8.70128 65.0564 8.50473 65.0598 8.3069V6.05051C65.0598 5.96123 65.0947 5.8756 65.1568 5.81247C65.2189 5.74934 65.3032 5.71387 65.391 5.71387C65.4789 5.71387 65.5632 5.74934 65.6253 5.81247C65.6874 5.8756 65.7223 5.96123 65.7223 6.05051V8.3069C65.7223 8.52494 65.8076 8.73405 65.9593 8.88822C66.111 9.0424 66.3167 9.12902 66.5313 9.12902C66.7458 9.12902 66.9516 9.0424 67.1033 8.88822C67.255 8.73405 67.3403 8.52494 67.3403 8.3069V6.05051C67.3397 6.00691 67.3478 5.96364 67.3639 5.92325C67.3801 5.88286 67.404 5.84617 67.4344 5.81533C67.4647 5.7845 67.5008 5.76016 67.5405 5.74373C67.5803 5.72731 67.6229 5.71914 67.6658 5.7197C67.7087 5.71914 67.7513 5.72731 67.791 5.74373C67.8307 5.76016 67.8669 5.7845 67.8972 5.81533C67.9275 5.84617 67.9515 5.88286 67.9677 5.92325C67.9838 5.96364 67.9919 6.00691 67.9913 6.05051Z" fill="white"/>
<path d="M73.8382 9.39431C73.85 9.43491 73.8534 9.47751 73.8485 9.51952C73.8436 9.56154 73.8303 9.6021 73.8095 9.63874C73.7887 9.67538 73.7607 9.70735 73.7274 9.73271C73.694 9.75806 73.656 9.77627 73.6156 9.78624H73.599C73.5935 9.78624 73.5935 9.78624 73.5884 9.79744H73.5503C73.4744 9.79679 73.401 9.76958 73.3425 9.72038C73.2839 9.67117 73.2438 9.60299 73.229 9.52729L72.7836 7.32035L71.9641 9.55482C71.9423 9.62225 71.9001 9.68097 71.8436 9.7226C71.787 9.76423 71.7189 9.78664 71.6491 9.78664C71.5793 9.78664 71.5112 9.76423 71.4547 9.7226C71.3981 9.68097 71.356 9.62225 71.3342 9.55482L70.612 7.42534L70.2318 9.52729C70.2198 9.60483 70.1807 9.67537 70.1217 9.72601C70.0626 9.77665 69.9877 9.804 69.9104 9.80304C69.8939 9.80304 69.8723 9.79744 69.8562 9.79744C69.8126 9.79102 69.7711 9.77478 69.7344 9.74992C69.6978 9.72505 69.6671 9.69219 69.6446 9.65373C69.6184 9.61992 69.5999 9.5806 69.5906 9.53863C69.5812 9.49666 69.5811 9.4531 69.5904 9.41111L70.1496 5.9906C70.1635 5.91614 70.2015 5.84854 70.2576 5.79858C70.3137 5.74861 70.3846 5.71913 70.4591 5.71484H70.4862C70.5562 5.7148 70.6245 5.73737 70.6811 5.7793C70.7377 5.82123 70.7797 5.88035 70.8011 5.94814L71.6588 8.40329L72.5545 5.93694C72.5755 5.87095 72.617 5.8137 72.6728 5.77387C72.7287 5.73404 72.7958 5.71381 72.8639 5.71624H72.8805C72.9546 5.71674 73.0261 5.74429 73.0819 5.79388C73.1377 5.84348 73.1741 5.9118 73.1844 5.9864L73.8382 9.39431Z" fill="white"/>
</g>
</svg>
