<svg width="73" height="21" viewBox="0 0 73 21" fill="none" xmlns="http://www.w3.org/2000/svg">
<mask id="mask0_2045_2438" style="mask-type:luminance" maskUnits="userSpaceOnUse" x="-1" y="0" width="74" height="21">
<path d="M72.5286 0.98877H-0.00292969V20.3722H72.5286V0.98877Z" fill="white"/>
</mask>
<g mask="url(#mask0_2045_2438)">
<path d="M7.87631 3.92307L1.25536 1.06363C1.11784 1.00415 0.967963 0.980237 0.819126 0.994033C0.670289 1.00783 0.527138 1.0589 0.40248 1.14269C0.277821 1.22647 0.175543 1.34035 0.104794 1.47414C0.0340459 1.60792 -0.00296574 1.75745 -0.00292966 1.90933V9.26866C-0.00293416 9.42513 0.0343708 9.57928 0.105792 9.7179C0.177213 9.85652 0.280624 9.97549 0.407172 10.0646C0.533721 10.1538 0.679638 10.2104 0.832434 10.2297C0.985229 10.249 1.14035 10.2304 1.28453 10.1755L5.67738 8.50169L0.918115 6.48656C0.849969 6.45454 0.796682 6.39692 0.769443 6.32582C0.742204 6.25472 0.743131 6.17566 0.772029 6.10524C0.800927 6.03481 0.855549 5.97851 0.924426 5.94814C0.993304 5.91777 1.07108 5.9157 1.14143 5.94237L6.47355 8.1988L7.97247 7.62728C10.5374 6.72323 10.6709 4.91697 7.87677 3.92214M8.50386 6.26379C8.47424 6.33579 8.41776 6.39292 8.34678 6.4227C8.27581 6.45247 8.19611 6.45245 8.12514 6.42265L0.80965 3.32654C0.774489 3.31167 0.742555 3.28991 0.71567 3.2625C0.688785 3.23509 0.667477 3.20256 0.652962 3.16678C0.623646 3.09451 0.62378 3.01337 0.653332 2.94121C0.682885 2.86905 0.739435 2.81177 0.810544 2.78198C0.881653 2.75218 0.961495 2.75232 1.03251 2.78235L8.34755 5.87938C8.38277 5.89423 8.41477 5.91601 8.44171 5.94345C8.46864 5.97089 8.48998 6.00347 8.5045 6.03931C8.51902 6.07515 8.52644 6.11355 8.52633 6.15231C8.52622 6.19107 8.51859 6.22942 8.50386 6.26518" fill="#CC0066"/>
<path d="M43.3806 12.7629C43.3849 12.9846 43.351 13.2053 43.2804 13.415C43.2208 13.5889 43.1238 13.7471 42.9964 13.8782C42.872 14.0026 42.7211 14.0964 42.5553 14.1524C42.3707 14.214 42.1772 14.2442 41.9829 14.2417C41.8917 14.2417 41.784 14.2376 41.6598 14.2292C41.5426 14.2227 41.4271 14.199 41.3166 14.1588C41.2599 14.1475 41.2089 14.1164 41.1724 14.0709C41.1358 14.0254 41.1161 13.9684 41.1165 13.9097V11.6C41.1138 11.5553 41.1286 11.5114 41.1576 11.4777C41.1884 11.4462 41.2262 11.4227 41.2678 11.4092C41.3762 11.3749 41.4879 11.3525 41.601 11.3425C41.7195 11.3314 41.8346 11.3258 41.9464 11.3258C42.1445 11.3236 42.3416 11.353 42.5307 11.4129C42.7006 11.466 42.8564 11.5575 42.9864 11.6806C43.1155 11.8069 43.2153 11.9608 43.2786 12.1312C43.3519 12.3331 43.3873 12.5473 43.3829 12.7625M42.9048 12.7666C42.9084 12.6072 42.8842 12.4483 42.8333 12.2975C42.7914 12.1768 42.7228 12.0675 42.6328 11.9779C42.5465 11.8944 42.4432 11.8311 42.3302 11.7927C42.2096 11.7518 42.0831 11.7314 41.956 11.7324C41.8299 11.7303 41.7039 11.7415 41.58 11.7658V13.8008C41.6425 13.8156 41.7061 13.8253 41.7701 13.83C41.8396 13.8356 41.9112 13.8383 41.9847 13.8383C42.1112 13.8469 42.2379 13.8272 42.356 13.7805C42.4742 13.7339 42.5808 13.6614 42.6683 13.5683C42.8406 13.3394 42.9243 13.0541 42.9035 12.7666" fill="#CC0066"/>
<path d="M43.8634 11.3633C43.8624 11.3263 43.8685 11.2895 43.8815 11.2549C43.8945 11.2203 43.914 11.1887 43.9391 11.1618C43.9646 11.1349 43.9955 11.1137 44.0296 11.0997C44.0638 11.0857 44.1005 11.0793 44.1373 11.0808C44.1735 11.0796 44.2095 11.0862 44.2429 11.1002C44.2764 11.1141 44.3066 11.1352 44.3315 11.1618C44.3802 11.2173 44.4071 11.289 44.4071 11.3633C44.4071 11.4376 44.3802 11.5093 44.3315 11.5648C44.3066 11.5914 44.2764 11.6124 44.2429 11.6264C44.2095 11.6404 44.1735 11.647 44.1373 11.6458C44.1005 11.6473 44.0638 11.6408 44.0296 11.6269C43.9955 11.6129 43.9646 11.5917 43.9391 11.5648C43.914 11.5379 43.8945 11.5063 43.8815 11.4717C43.8685 11.4371 43.8623 11.4003 43.8634 11.3633ZM44.362 14.1792C44.3348 14.19 44.3067 14.1984 44.2781 14.2042C44.2386 14.2128 44.1982 14.217 44.1578 14.2167C44.0917 14.2222 44.0259 14.2039 43.9719 14.1648C43.9503 14.1422 43.9338 14.1151 43.9236 14.0853C43.9133 14.0556 43.9096 14.0239 43.9126 13.9926V12.0386L43.9983 12.0159C44.0384 12.0057 44.0796 12.0009 44.1209 12.0015C44.1858 11.9962 44.2504 12.0146 44.3032 12.0534C44.3244 12.0771 44.3404 12.105 44.3502 12.1354C44.36 12.1658 44.3634 12.198 44.3602 12.2298L44.362 14.1792Z" fill="#CC0066"/>
<path d="M46.3058 13.9847C46.2436 14.0247 46.1763 14.0559 46.1057 14.0773C46.014 14.104 45.9189 14.1166 45.8236 14.1148C45.7008 14.1156 45.5787 14.0959 45.4622 14.0564C45.3498 14.0181 45.2473 13.9548 45.1619 13.8712C45.07 13.7793 45.0001 13.6671 44.9577 13.5433C44.9045 13.3821 44.8797 13.2126 44.8843 13.0426C44.8813 12.8837 44.9062 12.7254 44.9577 12.5753C45.0021 12.4485 45.074 12.3336 45.1683 12.2391C45.2605 12.1484 45.3704 12.0784 45.4909 12.0334C45.6252 11.9846 45.7671 11.9608 45.9097 11.963C46.0413 11.9619 46.1723 11.9814 46.298 12.0209C46.4021 12.0529 46.5013 12.0996 46.5924 12.1599C46.6361 12.1904 46.6736 12.2293 46.7027 12.2743C46.7314 12.3224 46.7456 12.3779 46.7437 12.434V14.2482C46.7473 14.3849 46.7223 14.5208 46.6704 14.6469C46.6249 14.7531 46.5539 14.8459 46.4639 14.917C46.3701 14.9886 46.263 15.0401 46.149 15.0684C46.0213 15.1006 45.89 15.1161 45.7584 15.1147C45.6316 15.1168 45.5051 15.1012 45.3824 15.0684C45.3002 15.047 45.2207 15.0159 45.1455 14.9758C45.087 14.9395 45.0441 14.8822 45.0252 14.8153C45.0063 14.7485 45.0128 14.6768 45.0434 14.6145C45.0624 14.5786 45.0906 14.5485 45.1249 14.5275C45.2052 14.585 45.2934 14.6304 45.3866 14.6622C45.4993 14.703 45.6182 14.7234 45.7379 14.7224C45.8867 14.7316 46.0341 14.6899 46.1568 14.6039C46.2092 14.5569 46.2501 14.4979 46.276 14.4319C46.3019 14.3658 46.3121 14.2945 46.3058 14.2236V13.9847ZM45.8847 13.7355C45.9695 13.7379 46.0538 13.7221 46.1321 13.6892C46.1936 13.6624 46.2496 13.6244 46.2976 13.5771V12.4605C46.2485 12.4289 46.1957 12.4038 46.1403 12.3859C46.0683 12.3625 45.9931 12.3512 45.9175 12.3525C45.8392 12.3494 45.7611 12.3629 45.6882 12.3922C45.6154 12.4216 45.5494 12.4661 45.4946 12.523C45.3767 12.6667 45.3188 12.8515 45.3332 13.038C45.3307 13.1477 45.3452 13.2571 45.3761 13.3622C45.3998 13.442 45.4402 13.5156 45.4946 13.578C45.5423 13.6315 45.6018 13.6728 45.6682 13.6984C45.7375 13.7241 45.8109 13.7364 45.8847 13.7355Z" fill="#CC0066"/>
<path d="M47.3038 11.3633C47.3028 11.3263 47.3089 11.2895 47.3219 11.2549C47.3349 11.2203 47.3545 11.1887 47.3795 11.1618C47.405 11.1349 47.4359 11.1137 47.4701 11.0997C47.5042 11.0857 47.5409 11.0793 47.5777 11.0808C47.6139 11.0796 47.6499 11.0861 47.6833 11.1001C47.7168 11.1141 47.747 11.1351 47.7719 11.1618C47.8206 11.2173 47.8475 11.289 47.8475 11.3633C47.8475 11.4376 47.8206 11.5093 47.7719 11.5648C47.747 11.5915 47.7168 11.6125 47.6833 11.6265C47.6499 11.6404 47.6139 11.647 47.5777 11.6458C47.5409 11.6473 47.5042 11.6408 47.4701 11.6269C47.4359 11.6129 47.405 11.5917 47.3795 11.5648C47.3545 11.5379 47.3349 11.5063 47.3219 11.4717C47.3089 11.4371 47.3028 11.4003 47.3038 11.3633ZM47.8024 14.1792C47.7752 14.19 47.7471 14.1983 47.7185 14.2042C47.6789 14.2128 47.6383 14.217 47.5978 14.2167C47.5317 14.2223 47.4658 14.2039 47.4118 14.1648C47.3902 14.1422 47.3737 14.1151 47.3635 14.0853C47.3533 14.0556 47.3495 14.0239 47.3526 13.9926V12.0386L47.4383 12.0159C47.4783 12.0057 47.5195 12.0009 47.5608 12.0015C47.6258 11.9962 47.6904 12.0146 47.7432 12.0534C47.7643 12.0771 47.7803 12.105 47.7901 12.1354C47.8 12.1658 47.8033 12.198 47.8001 12.2298L47.8024 14.1792Z" fill="#CC0066"/>
<path d="M48.9719 13.7913C49.0477 13.8412 49.1371 13.8652 49.2271 13.8599C49.2797 13.8594 49.332 13.8518 49.3825 13.8372C49.4321 13.824 49.4802 13.8052 49.5257 13.7811C49.5456 13.8073 49.5634 13.835 49.579 13.864C49.6056 13.918 49.611 13.9803 49.5941 14.0382C49.5772 14.0961 49.5392 14.1453 49.4878 14.1757C49.3825 14.2352 49.2626 14.2625 49.1424 14.2545C48.9577 14.264 48.7753 14.2091 48.6256 14.0989C48.5564 14.0352 48.5029 13.9559 48.4692 13.8675C48.4355 13.779 48.4226 13.6838 48.4314 13.5894V11.4339C48.4612 11.4234 48.4917 11.4151 48.5226 11.4089C48.5629 11.4004 48.604 11.3962 48.6452 11.3964C48.7091 11.3911 48.7728 11.4088 48.8252 11.4464C48.8463 11.469 48.8623 11.4959 48.8721 11.5253C48.882 11.5547 48.8854 11.586 48.8822 11.6169V12.0735H49.5525C49.5658 12.0987 49.5768 12.1251 49.5853 12.1523C49.5965 12.1871 49.602 12.2236 49.6018 12.2602C49.6018 12.3905 49.5486 12.4555 49.4422 12.4552H48.8822V13.5561C48.8775 13.5998 48.8834 13.644 48.8993 13.6849C48.9151 13.7258 48.9405 13.7621 48.9733 13.7909" fill="#CC0066"/>
<path d="M50.8109 11.9618C51.038 11.9491 51.2627 12.0144 51.4489 12.1471C51.5315 12.2193 51.596 12.3104 51.6372 12.4129C51.6784 12.5154 51.695 12.6264 51.6859 12.7367V13.8126C51.6896 13.8709 51.6736 13.9288 51.6403 13.9765C51.6048 14.019 51.5635 14.0561 51.5177 14.0867C51.4275 14.1381 51.3314 14.178 51.2315 14.2053C51.0969 14.2422 50.9579 14.2596 50.8186 14.2572C50.5884 14.2708 50.3599 14.2089 50.1669 14.0807C50.0887 14.0209 50.0263 13.9424 49.9853 13.8521C49.9442 13.7618 49.9258 13.6627 49.9317 13.5634C49.9267 13.4773 49.9404 13.3912 49.9719 13.3111C50.0034 13.231 50.052 13.159 50.114 13.1003C50.2647 12.9804 50.448 12.9107 50.639 12.9006L51.2397 12.8339V12.7344C51.2446 12.6787 51.236 12.6228 51.2146 12.5713C51.1932 12.5199 51.1597 12.4746 51.1171 12.4393C51.0167 12.3726 50.8979 12.3402 50.778 12.3467C50.6659 12.3463 50.5544 12.363 50.4472 12.3963C50.3486 12.4263 50.2528 12.4652 50.161 12.5125C50.1322 12.4854 50.1075 12.4542 50.0876 12.4199C50.0656 12.3824 50.0543 12.3395 50.055 12.2959C50.0557 12.2522 50.0684 12.2097 50.0917 12.173C50.1218 12.1339 50.1611 12.1032 50.2061 12.0837C50.2935 12.0405 50.3863 12.0093 50.4818 11.991C50.5902 11.9697 50.7004 11.9593 50.8109 11.96M50.8191 13.8788C50.9087 13.8806 50.9982 13.8693 51.0848 13.8454C51.1404 13.8317 51.1931 13.8077 51.2402 13.7746V13.1892L50.7744 13.2392C50.6688 13.2464 50.5665 13.2791 50.4759 13.3346C50.4427 13.36 50.4163 13.3934 50.3992 13.4319C50.3821 13.4703 50.3748 13.5125 50.3779 13.5546C50.3761 13.5997 50.3848 13.6447 50.4032 13.6858C50.4217 13.7269 50.4494 13.763 50.4841 13.7913C50.5831 13.8575 50.701 13.8881 50.8191 13.8783" fill="#CC0066"/>
<path d="M52.5397 14.2169C52.4749 14.2215 52.4105 14.2032 52.3574 14.165C52.3352 14.1428 52.3181 14.1158 52.3075 14.086C52.2968 14.0562 52.2929 14.0243 52.2959 13.9928V11.1935L52.3816 11.1708C52.4217 11.1606 52.4629 11.1558 52.5042 11.1565C52.5687 11.1519 52.6328 11.1693 52.6865 11.206C52.7088 11.2278 52.726 11.2545 52.7367 11.284C52.7473 11.3136 52.7512 11.3452 52.748 11.3765V14.1799C52.7234 14.1882 52.693 14.1965 52.6569 14.2049C52.618 14.2136 52.5782 14.2178 52.5384 14.2174" fill="#CC0066"/>
<path d="M54.8018 13.2238V14.1792C54.7709 14.1893 54.7396 14.1976 54.7079 14.2043C54.6675 14.2128 54.6265 14.217 54.5853 14.2168C54.5175 14.2227 54.45 14.2034 54.3952 14.1626C54.3736 14.1387 54.3571 14.1104 54.3469 14.0796C54.3367 14.0488 54.333 14.0161 54.336 13.9838V11.6037C54.3333 11.5591 54.348 11.5151 54.377 11.4814C54.4079 11.45 54.4457 11.4265 54.4873 11.4129C54.5918 11.3771 54.7001 11.3541 54.81 11.3443C54.9315 11.332 55.0472 11.3258 55.1572 11.3258C55.4565 11.301 55.754 11.3914 55.9908 11.5792C56.0817 11.6677 56.153 11.7752 56.1995 11.8941C56.2461 12.0131 56.2669 12.1409 56.2606 12.2688C56.2662 12.3974 56.2451 12.5257 56.1987 12.6454C56.1522 12.7651 56.0813 12.8735 55.9908 12.9635C55.7646 13.1542 55.4744 13.2481 55.1814 13.2252L54.8018 13.2238ZM55.1572 12.8208C55.323 12.8304 55.487 12.7813 55.6212 12.6819C55.6791 12.6312 55.7246 12.5674 55.754 12.4957C55.7834 12.424 55.796 12.3463 55.7907 12.2688C55.7971 12.1928 55.7859 12.1164 55.7579 12.0457C55.7298 11.9749 55.6858 11.9119 55.6294 11.8617C55.4932 11.7673 55.3299 11.722 55.1654 11.7329C55.1028 11.7329 55.0387 11.7357 54.9731 11.7413C54.914 11.746 54.8553 11.7543 54.7972 11.7663V12.8213L55.1572 12.8208Z" fill="#CC0066"/>
<path d="M57.4925 11.9618C57.7196 11.9491 57.9443 12.0143 58.1305 12.1471C58.2131 12.2193 58.2776 12.3104 58.3188 12.4129C58.36 12.5154 58.3767 12.6264 58.3675 12.7367V13.8126C58.3713 13.8709 58.3552 13.9288 58.3219 13.9765C58.2864 14.019 58.2451 14.0561 58.1993 14.0867C58.1091 14.1381 58.013 14.178 57.9131 14.2053C57.7786 14.2422 57.6396 14.2596 57.5002 14.2572C57.27 14.2708 57.0416 14.2089 56.8485 14.0807C56.7703 14.0209 56.7079 13.9424 56.6669 13.8521C56.6259 13.7618 56.6075 13.6627 56.6134 13.5634C56.6083 13.4773 56.622 13.3912 56.6535 13.3111C56.6851 13.231 56.7336 13.159 56.7957 13.1003C56.9463 12.9804 57.1296 12.9107 57.3207 12.9006L57.9213 12.8339V12.7344C57.9263 12.6787 57.9176 12.6228 57.8963 12.5713C57.8749 12.5199 57.8414 12.4746 57.7987 12.4393C57.6983 12.3726 57.5795 12.3401 57.4597 12.3467C57.3476 12.3463 57.236 12.363 57.1288 12.3963C57.0302 12.4263 56.9344 12.4652 56.8426 12.5125C56.8139 12.4854 56.7891 12.4542 56.7692 12.4199C56.7472 12.3825 56.7359 12.3395 56.7366 12.2959C56.7374 12.2522 56.7501 12.2097 56.7733 12.173C56.8034 12.1339 56.8428 12.1032 56.8877 12.0837C56.9752 12.0405 57.0679 12.0093 57.1634 11.991C57.2719 11.9697 57.3821 11.9593 57.4925 11.96M57.5007 13.8788C57.5904 13.8806 57.6798 13.8693 57.7664 13.8454C57.822 13.8317 57.8747 13.8077 57.9218 13.7746V13.1892L57.456 13.2392C57.3505 13.2463 57.2481 13.2791 57.1575 13.3346C57.1243 13.36 57.098 13.3934 57.0809 13.4319C57.0637 13.4703 57.0564 13.5125 57.0595 13.5546C57.0577 13.5997 57.0664 13.6447 57.0849 13.6858C57.1033 13.7269 57.131 13.763 57.1657 13.7913C57.2647 13.8574 57.3826 13.8881 57.5007 13.8783" fill="#CC0066"/>
<path d="M59.3364 13.6855C59.2629 13.5333 59.1737 13.3187 59.0689 13.0418C58.9641 12.7648 58.864 12.4519 58.7686 12.103C58.7977 12.0682 58.8332 12.0392 58.8729 12.0178C58.9148 11.9944 58.9619 11.9822 59.0096 11.9826C59.0651 11.9799 59.1198 11.9962 59.165 12.0289C59.2137 12.0735 59.2479 12.1322 59.263 12.197C59.342 12.4462 59.4232 12.6919 59.5064 12.9343C59.5896 13.1767 59.6815 13.4266 59.7821 13.6842H59.7985C59.842 13.5844 59.8862 13.4688 59.9312 13.3373C59.9761 13.2057 60.0197 13.0659 60.0619 12.9177C60.1042 12.7694 60.1444 12.6192 60.1827 12.467C60.221 12.3148 60.255 12.1695 60.2848 12.0312C60.3124 12.0172 60.3411 12.0055 60.3705 11.996C60.4049 11.9858 60.4407 11.9809 60.4767 11.9816C60.5333 11.9794 60.5892 11.9957 60.6362 12.028C60.6586 12.0457 60.6762 12.0689 60.6876 12.0953C60.699 12.1217 60.7037 12.1507 60.7013 12.1794C60.6947 12.303 60.6749 12.4256 60.6421 12.5448C60.6026 12.7082 60.5516 12.8896 60.489 13.089C60.4264 13.2885 60.3548 13.4892 60.2743 13.6911C60.1938 13.8933 60.1127 14.0733 60.031 14.2311C59.9225 14.4502 59.7924 14.6575 59.6426 14.8499C59.6056 14.9071 59.5569 14.9557 59.4998 14.9922C59.4427 15.0287 59.3786 15.0523 59.3118 15.0615C59.2768 15.0636 59.2417 15.0584 59.2088 15.0463C59.1758 15.0342 59.1456 15.0155 59.1199 14.9911C59.0722 14.9425 59.0404 14.8801 59.0288 14.8124C59.0822 14.7636 59.1327 14.7116 59.1801 14.6568C59.2345 14.595 59.289 14.5286 59.3437 14.4576C59.3984 14.3866 59.4508 14.3139 59.5009 14.2395C59.5484 14.1698 59.59 14.0962 59.6253 14.0195C59.5721 13.9998 59.5239 13.9682 59.4845 13.9268C59.4217 13.8542 59.3714 13.7714 59.3355 13.6818" fill="#CC0066"/>
<path d="M63.5378 12.4462C63.4555 12.3803 63.3522 12.3473 63.2475 12.3536C63.1692 12.3532 63.0917 12.369 63.0196 12.3999C62.946 12.4317 62.8783 12.4758 62.8191 12.5305C62.8247 12.5565 62.8288 12.5828 62.8314 12.6092C62.8342 12.637 62.8355 12.6648 62.8355 12.6921V14.1793C62.8084 14.1901 62.7803 14.1985 62.7516 14.2043C62.7135 14.2128 62.6745 14.217 62.6354 14.2168C62.5687 14.2221 62.5022 14.2038 62.4472 14.1649C62.4251 14.1426 62.4081 14.1156 62.3975 14.0858C62.387 14.056 62.3831 14.0242 62.3861 13.9927V12.7422C62.3909 12.6878 62.3839 12.633 62.3656 12.5817C62.3472 12.5304 62.318 12.4839 62.28 12.4453C62.1976 12.3794 62.0943 12.3464 61.9897 12.3527C61.9118 12.3522 61.8346 12.3663 61.7618 12.3943C61.6987 12.4184 61.6386 12.4495 61.5823 12.487V14.1816C61.5551 14.1924 61.527 14.2008 61.4984 14.2066C61.4587 14.2153 61.4182 14.2195 61.3776 14.2191C61.3128 14.2237 61.2484 14.2054 61.1953 14.1673C61.1731 14.145 61.156 14.118 61.1453 14.0882C61.1347 14.0584 61.1308 14.0265 61.1338 13.995V12.4749C61.1308 12.415 61.1442 12.3553 61.1725 12.3026C61.2067 12.251 61.2503 12.2065 61.301 12.1716C61.5121 12.038 61.7552 11.9662 62.0038 11.9641C62.1279 11.9619 62.2514 11.9823 62.3684 12.0243C62.4694 12.061 62.5605 12.1214 62.6341 12.2008C62.7198 12.1303 62.8155 12.0737 62.918 12.0326C63.0411 11.9846 63.1722 11.9613 63.304 11.9641C63.412 11.9634 63.5195 11.979 63.623 12.0104C63.7157 12.0378 63.8015 12.0852 63.8746 12.1493C63.9463 12.2148 64.0028 12.2957 64.04 12.386C64.0834 12.4948 64.1044 12.6114 64.1016 12.7287V14.1825C64.0716 14.1924 64.0412 14.2008 64.0104 14.2076C63.9723 14.216 63.9333 14.2202 63.8942 14.2201C63.8294 14.2246 63.765 14.2063 63.7119 14.1682C63.6897 14.1459 63.6726 14.1189 63.662 14.0891C63.6513 14.0593 63.6474 14.0275 63.6504 13.9959V12.7454C63.6553 12.691 63.6483 12.6362 63.63 12.5849C63.6116 12.5336 63.5823 12.487 63.5442 12.4485" fill="#CC0066"/>
<path d="M65.0457 13.3532C65.0719 13.508 65.1552 13.6468 65.2786 13.7413C65.4116 13.8303 65.5688 13.8746 65.7279 13.8678C65.8404 13.8691 65.9521 13.8487 66.057 13.8075C66.1426 13.7747 66.2242 13.7321 66.3004 13.6806C66.3377 13.7004 66.3688 13.7302 66.3904 13.7668C66.4121 13.8034 66.4233 13.8454 66.4229 13.8881C66.4224 13.9421 66.4021 13.994 66.366 14.0336C66.3224 14.082 66.2695 14.1209 66.2106 14.148C66.1378 14.1824 66.0613 14.2082 65.9827 14.2248C65.7378 14.2753 65.4841 14.2593 65.2472 14.1785C65.1154 14.1316 64.9954 14.0556 64.8958 13.9562C64.7942 13.853 64.7164 13.7282 64.6679 13.5908C64.6123 13.43 64.5853 13.2605 64.5881 13.0901C64.5851 12.9242 64.6107 12.759 64.6638 12.602C64.7088 12.4712 64.7805 12.3515 64.8744 12.2509C64.9638 12.1571 65.0717 12.0835 65.1911 12.0351C65.3139 11.985 65.4452 11.9597 65.5776 11.9605C65.707 11.9587 65.8355 11.9835 65.9554 12.0333C66.0652 12.0791 66.1648 12.147 66.2481 12.2331C66.3314 12.3192 66.3966 12.4215 66.4398 12.5339C66.487 12.6555 66.5105 12.7853 66.5091 12.916C66.5117 12.9466 66.5084 12.9774 66.4993 13.0067C66.4901 13.0359 66.4753 13.063 66.4558 13.0864C66.4139 13.1256 66.3609 13.1502 66.3044 13.1568L65.0457 13.3532ZM65.5771 12.3343C65.5031 12.3325 65.4296 12.347 65.3615 12.3768C65.2935 12.4065 65.2326 12.4508 65.1829 12.5066C65.0702 12.6429 65.0113 12.8168 65.0175 12.9947L66.0798 12.8326C66.0723 12.7025 66.0228 12.5784 65.9389 12.4797C65.893 12.4299 65.8367 12.391 65.7743 12.3659C65.7118 12.3407 65.6442 12.33 65.5771 12.3343Z" fill="#CC0066"/>
<path d="M68.2178 12.4578C68.1269 12.3831 68.0119 12.3453 67.8951 12.3518C67.8035 12.3503 67.7123 12.3644 67.6253 12.3935C67.5546 12.4179 67.4862 12.4489 67.4211 12.4861V14.1807C67.394 14.1916 67.3659 14.1999 67.3373 14.2057C67.2976 14.2144 67.2571 14.2186 67.2165 14.2182C67.1517 14.2228 67.0873 14.2045 67.0342 14.1664C67.0119 14.1441 66.9949 14.1171 66.9842 14.0873C66.9736 14.0575 66.9696 14.0256 66.9727 13.9941V12.474C66.9698 12.4141 66.9832 12.3545 67.0114 12.3018C67.0458 12.25 67.0895 12.2056 67.1404 12.1707C67.2409 12.1132 67.3471 12.0666 67.4572 12.0317C67.5991 11.9856 67.7475 11.9632 67.8965 11.9655C68.1316 11.9519 68.3639 12.0233 68.5523 12.167C68.6352 12.2432 68.6998 12.3376 68.7413 12.4431C68.7827 12.5486 68.8 12.6623 68.7916 12.7756V14.1835C68.7628 14.1938 68.7334 14.2022 68.7036 14.2085C68.6641 14.2171 68.6237 14.2213 68.5833 14.221C68.5184 14.2256 68.454 14.2073 68.401 14.1691C68.3788 14.1469 68.3618 14.1198 68.3512 14.09C68.3407 14.0602 68.3368 14.0284 68.3399 13.9969V12.7927C68.345 12.7322 68.337 12.6713 68.3166 12.6143C68.2961 12.5572 68.2637 12.5054 68.2214 12.4625" fill="#CC0066"/>
<path d="M69.931 13.7908C70.0067 13.8407 70.0961 13.8647 70.1862 13.8594C70.2388 13.859 70.291 13.8513 70.3416 13.8367C70.3912 13.8235 70.4392 13.8047 70.4847 13.7807C70.5046 13.8068 70.5224 13.8345 70.538 13.8636C70.5648 13.9175 70.5702 13.9799 70.5533 14.0378C70.5363 14.0957 70.4982 14.1449 70.4468 14.1753C70.3415 14.2347 70.2216 14.262 70.1014 14.254C69.9167 14.2635 69.7344 14.2086 69.5846 14.0984C69.5154 14.0347 69.4619 13.9555 69.4282 13.867C69.3944 13.7786 69.3815 13.6833 69.3904 13.5889V11.4335C69.4202 11.4229 69.4507 11.4146 69.4816 11.4084C69.5219 11.3999 69.563 11.3957 69.6042 11.3959C69.6681 11.3906 69.7318 11.4083 69.7842 11.446C69.8054 11.4684 69.8215 11.4953 69.8314 11.5248C69.8413 11.5542 69.8448 11.5855 69.8416 11.6164V12.0731H70.512C70.5254 12.0982 70.5364 12.1245 70.5449 12.1518C70.556 12.1866 70.5615 12.2231 70.5613 12.2597C70.5613 12.39 70.508 12.455 70.4017 12.4547H69.8416V13.5556C69.837 13.5993 69.8429 13.6435 69.8587 13.6844C69.8746 13.7253 69.9 13.7617 69.9328 13.7904" fill="#CC0066"/>
<path d="M72.5298 13.5936C72.5339 13.6857 72.5166 13.7776 72.4793 13.8616C72.442 13.9457 72.3858 14.0197 72.3152 14.0776C72.1333 14.2072 71.9133 14.2695 71.6917 14.2541C71.5862 14.2548 71.4809 14.2451 71.3773 14.2249C71.2939 14.2095 71.2128 14.183 71.1362 14.1462C71.0768 14.1175 71.024 14.0765 70.9812 14.0257C70.9446 13.9831 70.9242 13.9286 70.9238 13.872C70.9237 13.8278 70.9342 13.7842 70.9544 13.7451C70.9751 13.7044 71.0067 13.6706 71.0455 13.6473C71.1316 13.7067 71.2232 13.7574 71.3189 13.7988C71.4329 13.8465 71.5553 13.8699 71.6785 13.8673C71.7827 13.8742 71.8865 13.8497 71.977 13.7969C72.0098 13.7749 72.0365 13.7446 72.0544 13.709C72.0723 13.6733 72.0808 13.6336 72.0791 13.5936C72.0808 13.5595 72.0756 13.5255 72.0637 13.4936C72.0517 13.4617 72.0334 13.4327 72.0098 13.4084C71.9502 13.3557 71.8784 13.3192 71.8011 13.3023L71.5067 13.2194C71.3469 13.1825 71.199 13.1045 71.0774 12.9929C71.0299 12.9402 70.9934 12.8782 70.9699 12.8109C70.9464 12.7435 70.9365 12.672 70.9407 12.6006C70.9402 12.5139 70.9584 12.4281 70.994 12.3492C71.0293 12.2705 71.0817 12.201 71.1471 12.1458C71.2217 12.0849 71.3071 12.0392 71.3987 12.0111C71.5098 11.9763 71.6256 11.9594 71.7418 11.9611C71.8379 11.96 71.9338 11.969 72.0281 11.9879C72.1034 12.003 72.1768 12.0268 72.2468 12.0588C72.302 12.0831 72.351 12.12 72.3899 12.1667C72.4224 12.2055 72.4405 12.2547 72.441 12.3056C72.4419 12.3492 72.4314 12.3922 72.4104 12.4302C72.3915 12.4643 72.3657 12.494 72.3348 12.5173C72.2601 12.4743 72.1823 12.4374 72.1019 12.4071C71.9977 12.3663 71.8868 12.3459 71.7751 12.3468C71.6755 12.3411 71.5763 12.364 71.4889 12.4131C71.4618 12.4304 71.4387 12.4536 71.4213 12.481C71.4039 12.5083 71.3926 12.5392 71.3883 12.5715C71.384 12.6038 71.3866 12.6367 71.3961 12.6678C71.4057 12.6989 71.4218 12.7275 71.4434 12.7516C71.5005 12.8017 71.5697 12.8354 71.6439 12.8494L71.8973 12.916C72.0754 12.9582 72.2404 13.0446 72.3776 13.1675C72.4302 13.2242 72.4708 13.2912 72.4972 13.3644C72.5235 13.4375 72.5349 13.5154 72.5308 13.5932" fill="#CC0066"/>
<path d="M10.1476 7.06201V15.1702C10.1477 15.701 9.98742 16.219 9.68857 16.6543C9.38972 17.0896 8.96664 17.4213 8.47645 17.6045L1.20015 20.3241C1.08563 20.367 0.962595 20.3811 0.841531 20.3653C0.720468 20.3495 0.604958 20.3042 0.504839 20.2333C0.40472 20.1623 0.322957 20.0678 0.266514 19.9578C0.21007 19.8478 0.180617 19.7256 0.180664 19.6016V12.7216C0.180898 12.3078 0.3058 11.9041 0.538573 11.5646C0.771347 11.2251 1.10083 10.9662 1.48271 10.8227L8.20802 8.29489C9.26943 7.85815 9.68415 7.59092 10.1481 7.06433" fill="white"/>
<path d="M16.5451 9.11391C16.5375 9.41539 16.4175 9.70267 16.2094 9.91763C16.0012 10.1326 15.7205 10.2592 15.424 10.2718H13.8991C13.8112 10.2739 13.7261 10.2404 13.6624 10.1788C13.5987 10.1171 13.5618 10.0323 13.5596 9.94293V6.56755C13.5589 6.52278 13.5671 6.47833 13.5837 6.43683C13.6002 6.39533 13.6248 6.35763 13.6559 6.32597C13.6871 6.29431 13.7242 6.26933 13.765 6.25251C13.8059 6.23569 13.8496 6.22738 13.8937 6.22807H15.3652C15.5853 6.2399 15.7974 6.31636 15.9756 6.44819C16.1538 6.58001 16.2905 6.76154 16.3693 6.97077C16.448 7.18 16.4653 7.40794 16.4191 7.62697C16.3729 7.84599 16.2652 8.0467 16.109 8.20476C16.2436 8.31391 16.3526 8.45211 16.4281 8.60935C16.5036 8.7666 16.5433 8.93895 16.5451 9.11391ZM14.2068 7.90974L15.29 7.89862C15.4216 7.89423 15.5466 7.83914 15.6397 7.74454C15.7328 7.64993 15.787 7.52289 15.7913 7.38917C15.7906 7.26055 15.7407 7.13726 15.6522 7.04532C15.5636 6.95339 15.4434 6.89998 15.3169 6.89638H14.2068V7.90974ZM15.8775 9.11391C15.8684 8.97761 15.81 8.84957 15.7134 8.75453C15.6169 8.65949 15.4891 8.6042 15.3548 8.59935H14.2336V9.61225H15.3867C15.5154 9.60808 15.6378 9.55423 15.7289 9.46166C15.8199 9.3691 15.8729 9.24475 15.877 9.11391" fill="white"/>
<path d="M19.1978 8.59932H18.7074V9.94243C18.7055 10.0308 18.6694 10.1149 18.6068 10.1764C18.5443 10.2379 18.4604 10.2718 18.3734 10.2708C18.2877 10.2706 18.2056 10.2359 18.145 10.1744C18.0844 10.1129 18.0502 10.0295 18.0498 9.94243V6.5564C18.0525 6.46826 18.089 6.38467 18.1513 6.32337C18.2137 6.26206 18.2971 6.22786 18.3839 6.22803H19.5638C19.8671 6.23476 20.1564 6.35952 20.372 6.57658C20.5875 6.79364 20.7129 7.08646 20.7223 7.39468C20.7166 7.64327 20.6368 7.88425 20.4934 8.08572C20.35 8.28719 20.1498 8.43964 19.9192 8.5229L20.6685 9.76597C20.7121 9.84252 20.7248 9.93335 20.7037 10.0192C20.6826 10.105 20.6294 10.1792 20.5555 10.2259C20.5042 10.2545 20.4467 10.2696 20.3882 10.2699C20.332 10.2698 20.2768 10.2552 20.2278 10.2274C20.1787 10.1996 20.1375 10.1595 20.1079 10.111L19.1978 8.59932ZM20.071 7.39978C20.0649 7.26243 20.0062 7.13294 19.9076 7.03883C19.809 6.94473 19.6781 6.89345 19.5428 6.89588H18.7074V7.931H19.5428C19.682 7.93113 19.8156 7.87538 19.9145 7.77589C20.0134 7.6764 20.0697 7.54122 20.071 7.39978Z" fill="white"/>
<path d="M24.5051 10.2696C23.9796 10.2638 23.4776 10.0469 23.1091 9.66614C22.7405 9.28541 22.5352 8.77186 22.5381 8.23777C22.5449 7.84455 22.6659 7.46214 22.8858 7.13851C23.1057 6.81489 23.4147 6.56446 23.7741 6.41865C24.1335 6.27285 24.5273 6.23816 24.9061 6.31894C25.2848 6.39972 25.6316 6.59238 25.903 6.87273C26.1744 7.15308 26.3583 7.50864 26.4316 7.8948C26.5049 8.28096 26.4644 8.68052 26.315 9.04335C26.1657 9.40617 25.9143 9.71611 25.5923 9.93426C25.2703 10.1524 24.8921 10.2691 24.5051 10.2696ZM23.1739 8.23777C23.1743 8.50591 23.253 8.76788 23.4 8.99057C23.547 9.21325 23.7556 9.38665 23.9996 9.48881C24.2435 9.59098 24.5118 9.61733 24.7705 9.56453C25.0291 9.51174 25.2666 9.38217 25.4528 9.19222C25.639 9.00226 25.7656 8.76045 25.8166 8.49737C25.8676 8.23428 25.8407 7.96175 25.7392 7.71422C25.6378 7.4667 25.4664 7.25531 25.2467 7.10679C25.027 6.95827 24.7689 6.87929 24.5051 6.87984C24.1522 6.88336 23.8149 7.02772 23.5658 7.28176C23.3168 7.53581 23.176 7.87918 23.1739 8.23777Z" fill="white"/>
<path d="M31.1219 10.2425C31.0802 10.259 31.0357 10.2668 30.9909 10.2655C30.9462 10.2642 30.9021 10.2538 30.8614 10.2349C30.8207 10.216 30.7841 10.1889 30.7539 10.1554C30.7236 10.1219 30.7003 10.0825 30.6853 10.0396L29.7739 7.53865L28.8578 10.0396C28.8439 10.0826 28.8214 10.1222 28.7917 10.156C28.7621 10.1898 28.726 10.217 28.6855 10.236C28.6451 10.2551 28.6013 10.2654 28.5568 10.2665C28.5122 10.2677 28.468 10.2595 28.4267 10.2425C28.3842 10.2277 28.3451 10.2042 28.3118 10.1736C28.2785 10.1429 28.2517 10.1057 28.2331 10.0642C28.2144 10.0227 28.2042 9.97776 28.2032 9.93212C28.2022 9.88649 28.2103 9.84112 28.2271 9.79878L29.4448 6.44147C29.4704 6.37438 29.5157 6.31689 29.5744 6.27673C29.6332 6.23656 29.7026 6.21566 29.7734 6.21684C29.8439 6.21719 29.9126 6.2387 29.9711 6.27866C30.0296 6.31863 30.0751 6.37527 30.102 6.44147L31.3197 9.79878C31.3365 9.84109 31.3446 9.88644 31.3436 9.93205C31.3426 9.97766 31.3325 10.0226 31.3139 10.0641C31.2953 10.1056 31.2685 10.1428 31.2353 10.1735C31.202 10.2042 31.163 10.2276 31.1206 10.2425" fill="white"/>
<path d="M32.6797 9.94144V6.57254C32.6818 6.48612 32.7165 6.40383 32.7766 6.3427C32.8368 6.28157 32.9178 6.24629 33.0028 6.24418H33.8058C34.095 6.24245 34.3814 6.30208 34.6466 6.41925C34.9016 6.5329 35.1294 6.70096 35.3148 6.91203C35.4997 7.12544 35.6377 7.37651 35.7195 7.64847C35.8013 7.92043 35.8251 8.207 35.7892 8.48903C35.7298 8.97877 35.4966 9.4297 35.1336 9.75733C34.7705 10.085 34.3023 10.2668 33.8167 10.2689H33.0032C32.9182 10.2668 32.8372 10.2315 32.7771 10.1704C32.7169 10.1092 32.6822 10.0269 32.6801 9.94051M35.1375 8.41214C35.166 8.223 35.1532 8.02981 35.1001 7.84622C35.047 7.66263 34.9549 7.49313 34.8303 7.3497C34.7014 7.20406 34.5434 7.08816 34.3667 7.00979C34.1901 6.93142 33.999 6.89241 33.8063 6.89536H33.3268V9.61168H33.8172C34.1441 9.61184 34.4596 9.48961 34.7034 9.26833C34.9472 9.04705 35.1022 8.74224 35.1388 8.41214" fill="white"/>
<path d="M38.9903 9.70577C38.829 9.95337 38.5805 10.1288 38.2959 10.196C38.0113 10.2632 37.7121 10.217 37.4599 10.067C37.3826 10.0194 37.3255 9.94421 37.2996 9.85614C37.2738 9.76807 37.281 9.67337 37.32 9.59045C37.3785 9.52173 37.4604 9.47795 37.5492 9.46782C37.6381 9.45769 37.7274 9.48196 37.7995 9.5358C37.9112 9.59743 38.0418 9.61363 38.1648 9.58113C38.2878 9.54863 38.3941 9.46985 38.4621 9.36073C38.4997 9.30395 38.5259 9.24018 38.5392 9.1731C38.5525 9.10601 38.5527 9.03692 38.5397 8.96977C38.5267 8.90262 38.5008 8.83873 38.4635 8.78176C38.4261 8.72479 38.3782 8.67586 38.3222 8.63777C38.0583 8.46779 38.0488 8.4627 37.794 8.29273C37.5418 8.12639 37.3649 7.86505 37.3022 7.56619C37.2396 7.26733 37.2963 6.95542 37.4599 6.69906C37.6229 6.4535 37.8713 6.27972 38.1552 6.21262C38.4391 6.14552 38.7374 6.19008 38.9903 6.33734C39.0651 6.38175 39.1203 6.45367 39.1443 6.53823C39.1684 6.6228 39.1596 6.71353 39.1198 6.79168C39.0663 6.8633 38.9877 6.91124 38.9004 6.92556C38.8131 6.93987 38.7237 6.91946 38.6508 6.86856C38.5342 6.80824 38.3993 6.79563 38.2738 6.83332C38.1483 6.87102 38.0419 6.95615 37.9763 7.07121C37.9107 7.18627 37.8911 7.32249 37.9213 7.45184C37.9516 7.5812 38.0295 7.69384 38.139 7.7666C38.2757 7.85413 38.2757 7.85413 38.6617 8.11164C38.7864 8.19427 38.8937 8.30107 38.9777 8.42592C39.0617 8.55076 39.1207 8.69122 39.1512 8.83924C39.1817 8.98725 39.1832 9.13994 39.1556 9.28855C39.128 9.43716 39.0718 9.57924 38.9903 9.70577Z" fill="white"/>
<path d="M42.6282 8.58922C42.3268 8.61097 42.0244 8.61468 41.7226 8.60033V9.94344C41.7207 10.0319 41.6845 10.1159 41.622 10.1774C41.5595 10.2389 41.4756 10.2728 41.3886 10.2718C41.303 10.2714 41.221 10.2367 41.1605 10.1752C41.1 10.1137 41.0658 10.0304 41.0655 9.94344V6.56668C41.0649 6.5234 41.0729 6.48045 41.0889 6.44035C41.1049 6.40026 41.1287 6.36384 41.1589 6.33324C41.189 6.30263 41.2248 6.27847 41.2643 6.26216C41.3037 6.24586 41.346 6.23775 41.3886 6.23831H42.5958C42.8967 6.24783 43.1823 6.37501 43.3931 6.59331C43.6039 6.81162 43.7237 7.1042 43.7274 7.41006C43.7225 7.71053 43.6069 7.9982 43.4033 8.2162C43.1998 8.43419 42.9232 8.56664 42.6282 8.58736M42.553 6.89551H41.7231V7.93063H42.553C42.6919 7.9298 42.8249 7.87374 42.9236 7.77445C43.0224 7.67516 43.0789 7.54054 43.0812 7.3994C43.0741 7.26238 43.0152 7.13343 42.9168 7.03952C42.8183 6.94561 42.688 6.894 42.553 6.89551Z" fill="white"/>
<path d="M45.4521 9.94204V6.5574C45.4525 6.47042 45.4867 6.38711 45.5472 6.32561C45.6077 6.26411 45.6897 6.2294 45.7753 6.22903H47.7167C47.8037 6.22791 47.8877 6.2618 47.9503 6.3233C48.0128 6.38481 48.049 6.46895 48.0508 6.5574C48.0503 6.64728 48.0149 6.73335 47.9524 6.79691C47.8898 6.86047 47.8052 6.8964 47.7167 6.89688H46.1107V7.932H47.3234C47.366 7.93144 47.4082 7.93956 47.4477 7.95586C47.4871 7.97216 47.523 7.99633 47.5531 8.02693C47.5832 8.05754 47.607 8.09396 47.623 8.13405C47.6391 8.17415 47.6471 8.2171 47.6465 8.26037C47.6471 8.30369 47.6392 8.34669 47.6232 8.38684C47.6072 8.42698 47.5834 8.46346 47.5533 8.49411C47.5232 8.52477 47.4873 8.54897 47.4478 8.56531C47.4083 8.58164 47.366 8.58976 47.3234 8.5892H46.1107V9.6021H47.7167C47.8052 9.60258 47.8898 9.63851 47.9524 9.70207C48.0149 9.76563 48.0503 9.85169 48.0508 9.94158C48.0489 10.03 48.0127 10.1141 47.9502 10.1755C47.8876 10.237 47.8037 10.2709 47.7167 10.2699H45.7766C45.6911 10.2696 45.6091 10.2349 45.5486 10.1734C45.488 10.1119 45.4539 10.0286 45.4535 9.94158" fill="white"/>
<path d="M53.1207 9.83162C52.7776 10.109 52.3519 10.2596 51.9134 10.2586C51.386 10.2586 50.8802 10.0457 50.5073 9.66672C50.1343 9.28773 49.9248 8.7737 49.9248 8.23772C49.9248 7.70174 50.1343 7.18771 50.5073 6.80871C50.8802 6.42971 51.386 6.2168 51.9134 6.2168C52.2717 6.21729 52.6227 6.31981 52.9265 6.51274C52.9647 6.53291 52.9985 6.56073 53.0258 6.59451C53.0531 6.62829 53.0735 6.66734 53.0856 6.70931C53.0977 6.75128 53.1012 6.7953 53.0962 6.83872C53.0911 6.88215 53.0774 6.92408 53.056 6.96199C53.0341 6.99954 53.0048 7.03209 52.97 7.05762C52.9352 7.08315 52.8955 7.10111 52.8536 7.11037C52.8116 7.11963 52.7682 7.11999 52.7261 7.11143C52.684 7.10288 52.6441 7.08559 52.6089 7.06064C52.3987 6.93373 52.1584 6.86744 51.9139 6.8689C51.7391 6.8689 51.566 6.9039 51.4046 6.9719C51.2431 7.03989 51.0964 7.13956 50.9729 7.26519C50.8493 7.39083 50.7514 7.53997 50.6846 7.7041C50.6178 7.86823 50.5835 8.04413 50.5836 8.22174C50.5776 8.47612 50.6423 8.72707 50.7703 8.94577C50.8983 9.16446 51.0843 9.34205 51.3071 9.45812C51.53 9.57419 51.7805 9.62405 52.0299 9.60197C52.2794 9.57989 52.5176 9.48676 52.7173 9.33328C52.7487 9.306 52.785 9.28534 52.8243 9.27249C52.8636 9.25964 52.905 9.25487 52.9461 9.25845C52.9872 9.26203 53.0272 9.27388 53.0637 9.29333C53.1003 9.31278 53.1326 9.33943 53.1589 9.37172C53.2138 9.43787 53.2406 9.52341 53.2335 9.60961C53.2264 9.6958 53.186 9.77563 53.1211 9.83162" fill="white"/>
<path d="M57.6089 6.55105C57.6089 6.59398 57.6005 6.63648 57.5842 6.67609C57.5679 6.71569 57.544 6.75162 57.514 6.78178C57.4839 6.81194 57.4483 6.83573 57.4091 6.85178C57.3699 6.86782 57.328 6.8758 57.2858 6.87525H56.4941V9.94218C56.4941 10.0286 56.4604 10.1115 56.4002 10.1726C56.3401 10.2337 56.2586 10.268 56.1735 10.268C56.0885 10.268 56.0069 10.2337 55.9468 10.1726C55.8867 10.1115 55.8529 10.0286 55.8529 9.94218V6.87432H55.0608C54.9758 6.87432 54.8943 6.84 54.8341 6.77889C54.774 6.71779 54.7402 6.63492 54.7402 6.5485C54.7402 6.46209 54.774 6.37922 54.8341 6.31811C54.8943 6.25701 54.9758 6.22268 55.0608 6.22268H57.2862C57.3288 6.22212 57.3711 6.23023 57.4105 6.24654C57.45 6.26284 57.4858 6.28701 57.5159 6.31761C57.546 6.34821 57.5698 6.38464 57.5859 6.42473C57.6019 6.46482 57.6094 6.50777 57.6089 6.55105Z" fill="white"/>
<path d="M60.3746 8.59932H59.8842V9.94243C59.8823 10.0308 59.8461 10.1149 59.7836 10.1764C59.721 10.2379 59.6371 10.2718 59.5501 10.2708C59.4645 10.2706 59.3824 10.2359 59.3217 10.1744C59.2611 10.1129 59.2269 10.0295 59.2266 9.94243V6.5564C59.2293 6.46826 59.2657 6.38467 59.3281 6.32337C59.3904 6.26206 59.4738 6.22786 59.5606 6.22803H60.741C61.0443 6.23476 61.3336 6.35952 61.5491 6.57658C61.7647 6.79364 61.8901 7.08646 61.8995 7.39468C61.8938 7.64327 61.814 7.88425 61.6706 8.08572C61.5272 8.28719 61.327 8.43964 61.0965 8.5229L61.8457 9.76597C61.8893 9.84258 61.9018 9.93344 61.8807 10.0193C61.8595 10.1052 61.8062 10.1793 61.7322 10.2259C61.6809 10.2545 61.6234 10.2696 61.5649 10.2699C61.5088 10.2698 61.4535 10.2552 61.4045 10.2274C61.3555 10.1996 61.3142 10.1595 61.2847 10.111L60.3746 8.59932ZM61.2477 7.39978C61.2416 7.26243 61.183 7.13294 61.0843 7.03883C60.9857 6.94473 60.8548 6.89345 60.7196 6.89588H59.8842V7.931H60.7196C60.8587 7.93113 60.9923 7.87538 61.0912 7.77589C61.1902 7.6764 61.2464 7.54122 61.2477 7.39978Z" fill="white"/>
<path d="M66.6259 6.55096V8.79071C66.6294 8.98708 66.5943 9.18218 66.5227 9.36461C66.4511 9.54705 66.3445 9.71316 66.209 9.85326C66.0736 9.99336 65.912 10.1046 65.7338 10.1806C65.5556 10.2566 65.3643 10.2957 65.171 10.2957C64.9777 10.2957 64.7864 10.2566 64.6082 10.1806C64.4299 10.1046 64.2684 9.99336 64.133 9.85326C63.9975 9.71316 63.8909 9.54705 63.8193 9.36461C63.7477 9.18218 63.7126 8.98708 63.716 8.79071V6.55096C63.716 6.46233 63.7507 6.37734 63.8123 6.31467C63.874 6.252 63.9576 6.2168 64.0448 6.2168C64.132 6.2168 64.2157 6.252 64.2774 6.31467C64.339 6.37734 64.3737 6.46233 64.3737 6.55096V8.79071C64.3737 9.00714 64.4583 9.21471 64.6089 9.36775C64.7595 9.52079 64.9637 9.60677 65.1767 9.60677C65.3896 9.60677 65.5939 9.52079 65.7445 9.36775C65.8951 9.21471 65.9797 9.00714 65.9797 8.79071V6.55096C65.9792 6.50768 65.9871 6.46473 66.0032 6.42463C66.0192 6.38454 66.043 6.34812 66.0731 6.31752C66.1032 6.28691 66.139 6.26275 66.1785 6.24644C66.2179 6.23014 66.2602 6.22203 66.3028 6.22259C66.3454 6.22203 66.3877 6.23014 66.4271 6.24644C66.4666 6.26275 66.5024 6.28691 66.5325 6.31752C66.5626 6.34812 66.5864 6.38454 66.6025 6.42463C66.6185 6.46473 66.6265 6.50768 66.6259 6.55096Z" fill="white"/>
<path d="M72.4294 9.8706C72.4411 9.9109 72.4445 9.95318 72.4396 9.99489C72.4347 10.0366 72.4216 10.0768 72.4009 10.1132C72.3802 10.1496 72.3525 10.1813 72.3194 10.2065C72.2863 10.2317 72.2486 10.2497 72.2084 10.2596H72.192C72.1865 10.2596 72.1865 10.2596 72.1815 10.2708H72.1436C72.0682 10.2701 71.9954 10.2431 71.9373 10.1943C71.8792 10.1454 71.8394 10.0777 71.8246 10.0026L71.3826 7.81193L70.5691 10.0299C70.5475 10.0969 70.5056 10.1551 70.4495 10.1965C70.3933 10.2378 70.3258 10.26 70.2564 10.26C70.1871 10.26 70.1196 10.2378 70.0635 10.1965C70.0073 10.1551 69.9655 10.0969 69.9438 10.0299L69.227 7.91614L68.8496 10.0026C68.8377 10.0796 68.7988 10.1496 68.7402 10.1999C68.6817 10.2501 68.6072 10.2773 68.5306 10.2763C68.5142 10.2763 68.4927 10.2708 68.4768 10.2708C68.4335 10.2644 68.3922 10.2483 68.3559 10.2236C68.3195 10.1989 68.2891 10.1663 68.2667 10.1281C68.2407 10.0945 68.2224 10.0555 68.2131 10.0139C68.2038 9.9722 68.2037 9.92895 68.2129 9.88727L68.768 6.49198C68.7818 6.41807 68.8195 6.35098 68.8752 6.30138C68.9309 6.25178 69.0013 6.22252 69.0752 6.21826H69.1021C69.1716 6.21822 69.2394 6.24063 69.2956 6.28225C69.3518 6.32387 69.3935 6.38255 69.4147 6.44983L70.266 8.88689L71.1552 6.43872C71.176 6.37322 71.2172 6.31639 71.2726 6.27685C71.328 6.23732 71.3946 6.21724 71.4623 6.21965H71.4787C71.5523 6.22014 71.6233 6.24749 71.6787 6.29672C71.7341 6.34595 71.7701 6.41377 71.7804 6.48781L72.4294 9.8706Z" fill="white"/>
</g>
</svg>
