<svg width="93" height="16" viewBox="0 0 93 16" fill="none" xmlns="http://www.w3.org/2000/svg">
<path d="M15.9343 1.59333H12.7593C12.6555 1.59582 12.5522 1.5774 12.4556 1.53913C12.359 1.50087 12.2709 1.44355 12.1966 1.37054C12.1223 1.29753 12.0633 1.2103 12.023 1.11399C11.9827 1.01768 11.9619 0.914225 11.9619 0.809718C11.9619 0.705211 11.9827 0.601759 12.023 0.505447C12.0633 0.409135 12.1223 0.321908 12.1966 0.248896C12.2709 0.175884 12.359 0.118561 12.4556 0.0803003C12.5522 0.0420391 12.6555 0.0236113 12.7593 0.0261015H15.9343C16.0381 0.0236113 16.1414 0.0420391 16.238 0.0803003C16.3346 0.118561 16.4227 0.175884 16.497 0.248896C16.5712 0.321908 16.6303 0.409135 16.6706 0.505447C16.7109 0.601759 16.7317 0.705211 16.7317 0.809718C16.7317 0.914225 16.7109 1.01768 16.6706 1.11399C16.6303 1.2103 16.5712 1.29753 16.497 1.37054C16.4227 1.44355 16.3346 1.50087 16.238 1.53913C16.1414 1.5774 16.0381 1.59582 15.9343 1.59333Z" fill="#AB2346"/>
<path d="M17.51 3.96833H12.7593C12.6555 3.97082 12.5522 3.9524 12.4556 3.91413C12.359 3.87587 12.2709 3.81855 12.1966 3.74554C12.1223 3.67253 12.0633 3.5853 12.023 3.48899C11.9827 3.39268 11.9619 3.28922 11.9619 3.18472C11.9619 3.08021 11.9827 2.97676 12.023 2.88045C12.0633 2.78414 12.1223 2.69691 12.1966 2.6239C12.2709 2.55088 12.359 2.49356 12.4556 2.4553C12.5522 2.41704 12.6555 2.39861 12.7593 2.4011H17.51C17.6139 2.39861 17.7171 2.41704 17.8138 2.4553C17.9104 2.49356 17.9984 2.55088 18.0727 2.6239C18.147 2.69691 18.206 2.78414 18.2463 2.88045C18.2867 2.97676 18.3074 3.08021 18.3074 3.18472C18.3074 3.28922 18.2867 3.39268 18.2463 3.48899C18.206 3.5853 18.147 3.67253 18.0727 3.74554C17.9984 3.81855 17.9104 3.87587 17.8138 3.91413C17.7171 3.9524 17.6139 3.97082 17.51 3.96833Z" fill="#AB2346"/>
<path d="M19.0752 6.34284H12.7593C12.556 6.33797 12.3627 6.25327 12.2206 6.10684C12.0786 5.96042 11.999 5.76388 11.999 5.55923C11.999 5.35458 12.0786 5.15804 12.2206 5.01162C12.3627 4.86519 12.556 4.78049 12.7593 4.77561H19.0752C19.179 4.77312 19.2823 4.79155 19.3789 4.82981C19.4755 4.86807 19.5636 4.92539 19.6379 4.99841C19.7122 5.07142 19.7712 5.15864 19.8115 5.25496C19.8518 5.35127 19.8726 5.45472 19.8726 5.55923C19.8726 5.66373 19.8518 5.76719 19.8115 5.8635C19.7712 5.95981 19.7122 6.04704 19.6379 6.12005C19.5636 6.19306 19.4755 6.25039 19.3789 6.28865C19.2823 6.32691 19.179 6.34533 19.0752 6.34284Z" fill="#AB2346"/>
<path d="M15.9343 11.0919H12.7593C12.6555 11.0944 12.5522 11.0759 12.4556 11.0377C12.359 10.9994 12.2709 10.9421 12.1966 10.8691C12.1223 10.7961 12.0633 10.7088 12.023 10.6125C11.9827 10.5162 11.9619 10.4128 11.9619 10.3083C11.9619 10.2037 11.9827 10.1003 12.023 10.004C12.0633 9.90767 12.1223 9.82044 12.1966 9.74743C12.2709 9.67442 12.359 9.6171 12.4556 9.57884C12.5522 9.54057 12.6555 9.52215 12.7593 9.52464H15.9343C16.0381 9.52215 16.1414 9.54057 16.238 9.57884C16.3346 9.6171 16.4227 9.67442 16.497 9.74743C16.5712 9.82044 16.6303 9.90767 16.6706 10.004C16.7109 10.1003 16.7317 10.2037 16.7317 10.3083C16.7317 10.4128 16.7109 10.5162 16.6706 10.6125C16.6303 10.7088 16.5712 10.7961 16.497 10.8691C16.4227 10.9421 16.3346 10.9994 16.238 11.0377C16.1414 11.0759 16.0381 11.0944 15.9343 11.0919Z" fill="#AB2346"/>
<path d="M15.1465 13.4669H12.7583C12.6545 13.4694 12.5513 13.4509 12.4546 13.4127C12.358 13.3744 12.27 13.3171 12.1957 13.2441C12.1214 13.1711 12.0623 13.0838 12.022 12.9875C11.9817 12.8912 11.9609 12.7878 11.9609 12.6833C11.9609 12.5787 11.9817 12.4753 12.022 12.379C12.0623 12.2827 12.1214 12.1954 12.1957 12.1224C12.27 12.0494 12.358 11.9921 12.4546 11.9538C12.5513 11.9156 12.6545 11.8971 12.7583 11.8996H15.1465C15.2504 11.8971 15.3536 11.9156 15.4502 11.9538C15.5469 11.9921 15.6349 12.0494 15.7092 12.1224C15.7835 12.1954 15.8425 12.2827 15.8828 12.379C15.9232 12.4753 15.9439 12.5787 15.9439 12.6833C15.9439 12.7878 15.9232 12.8912 15.8828 12.9875C15.8425 13.0838 15.7835 13.1711 15.7092 13.2441C15.6349 13.3171 15.5469 13.3744 15.4502 13.4127C15.3536 13.4509 15.2504 13.4694 15.1465 13.4669Z" fill="#AB2346"/>
<path d="M10.4255 1.59333H8.82668C8.72288 1.59582 8.61961 1.5774 8.52298 1.53913C8.42635 1.50087 8.3383 1.44355 8.26401 1.37054C8.18971 1.29753 8.13069 1.2103 8.09038 1.11399C8.05008 1.01768 8.0293 0.914225 8.0293 0.809718C8.0293 0.705211 8.05008 0.601759 8.09038 0.505447C8.13069 0.409135 8.18971 0.321908 8.26401 0.248896C8.3383 0.175884 8.42635 0.118561 8.52298 0.0803003C8.61961 0.0420391 8.72288 0.0236113 8.82668 0.0261015H10.4255C10.5293 0.0236113 10.6325 0.0420391 10.7292 0.0803003C10.8258 0.118561 10.9138 0.175884 10.9881 0.248896C11.0624 0.321908 11.1214 0.409135 11.1618 0.505447C11.2021 0.601759 11.2228 0.705211 11.2228 0.809718C11.2228 0.914225 11.2021 1.01768 11.1618 1.11399C11.1214 1.2103 11.0624 1.29753 10.9881 1.37054C10.9138 1.44355 10.8258 1.50087 10.7292 1.53913C10.6325 1.5774 10.5293 1.59582 10.4255 1.59333Z" fill="#82AEC9"/>
<path d="M10.4249 3.96833H7.26321C7.1594 3.97082 7.05616 3.9524 6.95953 3.91413C6.8629 3.87587 6.77485 3.81855 6.70056 3.74554C6.62626 3.67253 6.56721 3.5853 6.52691 3.48899C6.4866 3.39268 6.46582 3.28922 6.46582 3.18472C6.46582 3.08021 6.4866 2.97676 6.52691 2.88045C6.56721 2.78414 6.62626 2.69691 6.70056 2.6239C6.77485 2.55088 6.8629 2.49356 6.95953 2.4553C7.05616 2.41704 7.1594 2.39861 7.26321 2.4011H10.4249C10.5287 2.39861 10.632 2.41704 10.7286 2.4553C10.8253 2.49356 10.9133 2.55088 10.9876 2.6239C11.0619 2.69691 11.1209 2.78414 11.1613 2.88045C11.2016 2.97676 11.2223 3.08021 11.2223 3.18472C11.2223 3.28922 11.2016 3.39268 11.1613 3.48899C11.1209 3.5853 11.0619 3.67253 10.9876 3.74554C10.9133 3.81855 10.8253 3.87587 10.7286 3.91413C10.632 3.9524 10.5287 3.97082 10.4249 3.96833Z" fill="#82AEC9"/>
<path d="M10.4252 6.34284H5.69875C5.59495 6.34533 5.49168 6.32691 5.39505 6.28865C5.29842 6.25039 5.21037 6.19306 5.13608 6.12005C5.06178 6.04704 5.00273 5.95981 4.96243 5.8635C4.92212 5.76719 4.90137 5.66373 4.90137 5.55923C4.90137 5.45472 4.92212 5.35127 4.96243 5.25496C5.00273 5.15864 5.06178 5.07142 5.13608 4.99841C5.21037 4.92539 5.29842 4.86807 5.39505 4.82981C5.49168 4.79155 5.59495 4.77312 5.69875 4.77561H10.4252C10.529 4.77312 10.6323 4.79155 10.7289 4.82981C10.8255 4.86807 10.9136 4.92539 10.9879 4.99841C11.0622 5.07142 11.1212 5.15864 11.1615 5.25496C11.2018 5.35127 11.2226 5.45472 11.2226 5.55923C11.2226 5.66373 11.2018 5.76719 11.1615 5.8635C11.1212 5.95981 11.0622 6.04704 10.9879 6.12005C10.9136 6.19306 10.8255 6.25039 10.7289 6.28865C10.6323 6.32691 10.529 6.34533 10.4252 6.34284Z" fill="#82AEC9"/>
<path d="M10.4252 8.71735H4.11672C4.01291 8.71984 3.90968 8.70142 3.81305 8.66315C3.71642 8.62489 3.62837 8.56757 3.55407 8.49456C3.47978 8.42155 3.42073 8.33432 3.38042 8.23801C3.34011 8.1417 3.31934 8.03825 3.31934 7.93374C3.31934 7.82923 3.34011 7.72578 3.38042 7.62947C3.42073 7.53316 3.47978 7.44593 3.55407 7.37292C3.62837 7.29991 3.71642 7.24258 3.81305 7.20432C3.90968 7.16606 4.01291 7.14763 4.11672 7.15012H10.4252C10.529 7.14763 10.6322 7.16606 10.7288 7.20432C10.8255 7.24258 10.9135 7.29991 10.9878 7.37292C11.0621 7.44593 11.1211 7.53316 11.1615 7.62947C11.2018 7.72578 11.2225 7.82923 11.2225 7.93374C11.2225 8.03825 11.2018 8.1417 11.1615 8.23801C11.1211 8.33432 11.0621 8.42155 10.9878 8.49456C10.9135 8.56757 10.8255 8.62489 10.7288 8.66315C10.6322 8.70142 10.529 8.71984 10.4252 8.71735Z" fill="#82AEC9"/>
<path d="M20.651 8.71735H12.7593C12.6555 8.71984 12.5522 8.70142 12.4556 8.66315C12.359 8.62489 12.2709 8.56757 12.1966 8.49456C12.1223 8.42155 12.0633 8.33432 12.023 8.23801C11.9827 8.1417 11.9619 8.03825 11.9619 7.93374C11.9619 7.82923 11.9827 7.72578 12.023 7.62947C12.0633 7.53316 12.1223 7.44593 12.1966 7.37292C12.2709 7.29991 12.359 7.24258 12.4556 7.20432C12.5522 7.16606 12.6555 7.14763 12.7593 7.15012H20.651C20.7548 7.14763 20.8581 7.16606 20.9547 7.20432C21.0513 7.24258 21.1394 7.29991 21.2137 7.37292C21.288 7.44593 21.347 7.53316 21.3873 7.62947C21.4276 7.72578 21.4484 7.82923 21.4484 7.93374C21.4484 8.03825 21.4276 8.1417 21.3873 8.23801C21.347 8.33432 21.288 8.42155 21.2137 8.49456C21.1394 8.56757 21.0513 8.62489 20.9547 8.66315C20.8581 8.70142 20.7548 8.71984 20.651 8.71735Z" fill="#82AEC9"/>
<path d="M10.4261 11.0919H5.69387C5.59006 11.0944 5.48682 11.0759 5.3902 11.0377C5.29357 10.9994 5.20551 10.9421 5.13122 10.8691C5.05693 10.7961 4.99788 10.7088 4.95757 10.6125C4.91726 10.5162 4.89648 10.4128 4.89648 10.3083C4.89648 10.2037 4.91726 10.1003 4.95757 10.004C4.99788 9.90767 5.05693 9.82044 5.13122 9.74743C5.20551 9.67442 5.29357 9.6171 5.3902 9.57884C5.48682 9.54057 5.59006 9.52215 5.69387 9.52464H10.4261C10.5299 9.52215 10.6331 9.54057 10.7298 9.57884C10.8264 9.6171 10.9144 9.67442 10.9887 9.74743C11.063 9.82044 11.1221 9.90767 11.1624 10.004C11.2027 10.1003 11.2235 10.2037 11.2235 10.3083C11.2235 10.4128 11.2027 10.5162 11.1624 10.6125C11.1221 10.7088 11.063 10.7961 10.9887 10.8691C10.9144 10.9421 10.8264 10.9994 10.7298 11.0377C10.6331 11.0759 10.5299 11.0944 10.4261 11.0919Z" fill="#82AEC9"/>
<path d="M20.6512 11.0919H18.2661C18.0628 11.087 17.8695 11.0023 17.7274 10.8559C17.5854 10.7094 17.5059 10.5129 17.5059 10.3083C17.5059 10.1036 17.5854 9.90706 17.7274 9.76064C17.8695 9.61421 18.0628 9.52951 18.2661 9.52464H20.6512C20.7551 9.52215 20.8583 9.54057 20.955 9.57884C21.0516 9.6171 21.1396 9.67442 21.2139 9.74743C21.2882 9.82044 21.3472 9.90767 21.3875 10.004C21.4279 10.1003 21.4486 10.2037 21.4486 10.3083C21.4486 10.4128 21.4279 10.5162 21.3875 10.6125C21.3472 10.7088 21.2882 10.7961 21.2139 10.8691C21.1396 10.9421 21.0516 10.9994 20.955 11.0377C20.8583 11.0759 20.7551 11.0944 20.6512 11.0919Z" fill="#82AEC9"/>
<path d="M10.4244 13.4669H7.25735C7.15354 13.4694 7.05027 13.4509 6.95364 13.4127C6.85702 13.3744 6.76896 13.3171 6.69467 13.2441C6.62037 13.1711 6.56133 13.0838 6.52102 12.9875C6.48071 12.8912 6.45996 12.7878 6.45996 12.6833C6.45996 12.5787 6.48071 12.4753 6.52102 12.379C6.56133 12.2827 6.62037 12.1954 6.69467 12.1224C6.76896 12.0494 6.85702 11.9921 6.95364 11.9538C7.05027 11.9156 7.15354 11.8971 7.25735 11.8996H10.4244C10.5282 11.8971 10.6314 11.9156 10.7281 11.9538C10.8247 11.9921 10.9127 12.0494 10.987 12.1224C11.0613 12.1954 11.1204 12.2827 11.1607 12.379C11.201 12.4753 11.2217 12.5787 11.2217 12.6833C11.2217 12.7878 11.201 12.8912 11.1607 12.9875C11.1204 13.0838 11.0613 13.1711 10.987 13.2441C10.9127 13.3171 10.8247 13.3744 10.7281 13.4127C10.6314 13.4509 10.5282 13.4694 10.4244 13.4669Z" fill="#82AEC9"/>
<path d="M20.7971 13.4669H17.4907C17.2875 13.462 17.0941 13.3773 16.9521 13.2309C16.81 13.0844 16.7305 12.8879 16.7305 12.6833C16.7305 12.4786 16.81 12.2821 16.9521 12.1356C17.0941 11.9892 17.2875 11.9045 17.4907 11.8996H20.7971C20.9009 11.8971 21.0041 11.9156 21.1008 11.9538C21.1974 11.9921 21.2854 12.0494 21.3597 12.1224C21.434 12.1954 21.4931 12.2827 21.5334 12.379C21.5737 12.4753 21.5945 12.5787 21.5945 12.6833C21.5945 12.7878 21.5737 12.8912 21.5334 12.9875C21.4931 13.0838 21.434 13.1711 21.3597 13.2441C21.2854 13.3171 21.1974 13.3744 21.1008 13.4127C21.0041 13.4509 20.9009 13.4694 20.7971 13.4669Z" fill="#82AEC9"/>
<path d="M10.4255 15.8414H8.82668C8.72288 15.8439 8.61961 15.8254 8.52298 15.7872C8.42635 15.7489 8.3383 15.6916 8.26401 15.6186C8.18971 15.5456 8.13069 15.4583 8.09038 15.362C8.05008 15.2657 8.0293 15.1623 8.0293 15.0578C8.0293 14.9533 8.05008 14.8498 8.09038 14.7535C8.13069 14.6572 8.18971 14.57 8.26401 14.4969C8.3383 14.4239 8.42635 14.3666 8.52298 14.3283C8.61961 14.2901 8.72288 14.2717 8.82668 14.2741H10.4255C10.5293 14.2717 10.6325 14.2901 10.7292 14.3283C10.8258 14.3666 10.9138 14.4239 10.9881 14.4969C11.0624 14.57 11.1214 14.6572 11.1618 14.7535C11.2021 14.8498 11.2228 14.9533 11.2228 15.0578C11.2228 15.1623 11.2021 15.2657 11.1618 15.362C11.1214 15.4583 11.0624 15.5456 10.9881 15.6186C10.9138 15.6916 10.8258 15.7489 10.7292 15.7872C10.6325 15.8254 10.5293 15.8439 10.4255 15.8414Z" fill="#82AEC9"/>
<path d="M15.9343 15.8414H12.7593C12.6555 15.8439 12.5522 15.8254 12.4556 15.7872C12.359 15.7489 12.2709 15.6916 12.1966 15.6186C12.1223 15.5456 12.0633 15.4583 12.023 15.362C11.9827 15.2657 11.9619 15.1623 11.9619 15.0578C11.9619 14.9533 11.9827 14.8498 12.023 14.7535C12.0633 14.6572 12.1223 14.57 12.1966 14.4969C12.2709 14.4239 12.359 14.3666 12.4556 14.3283C12.5522 14.2901 12.6555 14.2717 12.7593 14.2741H15.9343C16.0381 14.2717 16.1414 14.2901 16.238 14.3283C16.3346 14.3666 16.4227 14.4239 16.497 14.4969C16.5712 14.57 16.6303 14.6572 16.6706 14.7535C16.7109 14.8498 16.7317 14.9533 16.7317 15.0578C16.7317 15.1623 16.7109 15.2657 16.6706 15.362C16.6303 15.4583 16.5712 15.5456 16.497 15.6186C16.4227 15.6916 16.3346 15.7489 16.238 15.7872C16.1414 15.8254 16.0381 15.8439 15.9343 15.8414Z" fill="#82AEC9"/>
<path d="M7.29321 1.40873C7.29321 1.52714 7.25832 1.64288 7.19296 1.74134C7.1276 1.83979 7.03468 1.91652 6.92599 1.96183C6.8173 2.00714 6.6977 2.019 6.58231 1.9959C6.46692 1.9728 6.36093 1.91578 6.27774 1.83206C6.19455 1.74833 6.1379 1.64166 6.11495 1.52553C6.09199 1.4094 6.10377 1.28902 6.1488 1.17963C6.19382 1.07024 6.27005 0.976736 6.36787 0.910953C6.4657 0.84517 6.58071 0.810059 6.69836 0.810059C6.85612 0.810059 7.00741 0.873134 7.11897 0.985407C7.23052 1.09768 7.29321 1.24995 7.29321 1.40873Z" fill="#1D365A"/>
<path d="M7.27173 14.854C7.27173 14.9724 7.23683 15.0882 7.17147 15.1866C7.10611 15.2851 7.0132 15.3618 6.90451 15.4071C6.79581 15.4525 6.67621 15.4643 6.56083 15.4412C6.44544 15.4181 6.33945 15.3611 6.25626 15.2774C6.17307 15.1936 6.11641 15.087 6.09346 14.9708C6.07051 14.8547 6.08229 14.7343 6.12731 14.6249C6.17233 14.5155 6.2486 14.422 6.34642 14.3563C6.44424 14.2905 6.55922 14.2554 6.67687 14.2554C6.83463 14.2554 6.98596 14.3184 7.09751 14.4307C7.20907 14.543 7.27173 14.6953 7.27173 14.854Z" fill="#1D365A"/>
<path d="M5.30271 3.9689H4.51636C4.41308 3.9689 4.31403 3.92761 4.241 3.85411C4.16797 3.78061 4.12695 3.68092 4.12695 3.57698C4.12695 3.47304 4.16797 3.37335 4.241 3.29985C4.31403 3.22635 4.41308 3.18506 4.51636 3.18506H5.30271C5.40599 3.18506 5.50504 3.22635 5.57807 3.29985C5.6511 3.37335 5.69212 3.47304 5.69212 3.57698C5.69212 3.68092 5.6511 3.78061 5.57807 3.85411C5.50504 3.92761 5.40599 3.9689 5.30271 3.9689Z" fill="#1D365A"/>
<path d="M3.72646 6.34292H2.15601C2.05273 6.34292 1.95368 6.30163 1.88065 6.22813C1.80762 6.15463 1.7666 6.05494 1.7666 5.951C1.7666 5.84706 1.80762 5.74737 1.88065 5.67387C1.95368 5.60038 2.05273 5.55908 2.15601 5.55908H3.72646C3.82974 5.55908 3.9288 5.60038 4.00182 5.67387C4.07485 5.74737 4.1159 5.84706 4.1159 5.951C4.1159 6.05494 4.07485 6.15463 4.00182 6.22813C3.9288 6.30163 3.82974 6.34292 3.72646 6.34292Z" fill="#1D365A"/>
<path d="M3.73725 10.2921H1.37867C1.27539 10.2921 1.17636 10.2508 1.10333 10.1773C1.0303 10.1038 0.989258 10.0042 0.989258 9.90022C0.989258 9.79628 1.0303 9.69659 1.10333 9.62309C1.17636 9.54959 1.27539 9.5083 1.37867 9.5083H3.73725C3.84053 9.5083 3.93958 9.54959 4.01261 9.62309C4.08564 9.69659 4.12666 9.79628 4.12666 9.90022C4.12666 10.0042 4.08564 10.1038 4.01261 10.1773C3.93958 10.2508 3.84053 10.2921 3.73725 10.2921Z" fill="#1D365A"/>
<path d="M5.30624 12.6584H4.51636C4.41308 12.6584 4.31403 12.6171 4.241 12.5436C4.16797 12.4701 4.12695 12.3704 4.12695 12.2664C4.12695 12.1625 4.16797 12.0628 4.241 11.9893C4.31403 11.9158 4.41308 11.8745 4.51636 11.8745H5.30624C5.40952 11.8745 5.50858 11.9158 5.5816 11.9893C5.65463 12.0628 5.69565 12.1625 5.69565 12.2664C5.69565 12.3704 5.65463 12.4701 5.5816 12.5436C5.50858 12.6171 5.40952 12.6584 5.30624 12.6584Z" fill="#1D365A"/>
<path d="M29.7468 7.41535C29.9582 7.68006 30.0717 8.01047 30.0679 8.35008C30.0738 8.64606 29.9931 8.93725 29.8357 9.18733C29.6705 9.43691 29.4372 9.6332 29.1639 9.75262C28.8364 9.89565 28.4819 9.96522 28.125 9.95648H25.582V4.02273H28.0145C28.3692 4.01403 28.7218 4.08061 29.0493 4.21813C29.3173 4.33053 29.5466 4.51986 29.7083 4.7625C29.8586 4.99827 29.9364 5.2734 29.9321 5.55346C29.943 5.86583 29.8461 6.17236 29.6579 6.42098C29.4701 6.6566 29.2151 6.8287 28.9273 6.91416C29.253 6.97255 29.5453 7.1513 29.7468 7.41535ZM26.7642 6.47172H27.846C28.0783 6.48694 28.3085 6.41916 28.4961 6.28032C28.5733 6.21263 28.6341 6.12798 28.6737 6.03289C28.7132 5.93781 28.7306 5.83484 28.7243 5.73195C28.7303 5.62843 28.7129 5.5249 28.6733 5.42914C28.6338 5.33338 28.5732 5.24789 28.4961 5.17912C28.3098 5.03743 28.079 4.96792 27.846 4.98328H26.7642V6.47172ZM28.627 8.78629C28.7083 8.71472 28.7723 8.62536 28.814 8.52506C28.8557 8.42476 28.874 8.31618 28.8676 8.20765C28.8733 8.09491 28.8534 7.98236 28.8095 7.87849C28.7656 7.77462 28.6988 7.68216 28.6142 7.60808C28.4196 7.45509 28.1766 7.3781 27.93 7.39132H26.7642V8.98971H27.9556C28.1966 9.00453 28.4348 8.93223 28.6274 8.78585" fill="#AB2346"/>
<path d="M32.7813 5.39126C33.0376 5.24655 33.3277 5.17312 33.6216 5.1785V6.4297H33.3089C33.151 6.40399 32.9893 6.41728 32.8376 6.46844C32.686 6.5196 32.549 6.60709 32.4384 6.72337C32.3279 6.83966 32.247 6.98125 32.2029 7.13596C32.1588 7.29067 32.1527 7.45385 32.1851 7.61147V9.95808H31.0029V5.2466H32.1838V5.97791C32.3297 5.73471 32.5347 5.53284 32.7795 5.39126" fill="#AB2346"/>
<path d="M35.3702 9.73171C35.0125 9.5334 34.7181 9.23706 34.5211 8.8771C34.3094 8.48634 34.2027 8.0468 34.2115 7.60186C34.2024 7.15585 34.3117 6.71547 34.5281 6.32617C34.7315 5.96527 35.0316 5.66914 35.3941 5.47156C35.7724 5.27339 36.1926 5.16992 36.6191 5.16992C37.0457 5.16992 37.4659 5.27339 37.8442 5.47156C38.2067 5.66918 38.5067 5.9653 38.7101 6.32617C38.9268 6.71542 39.0363 7.15581 39.0273 7.60186C39.0363 8.0488 38.9239 8.48974 38.7022 8.8771C38.493 9.23792 38.1889 9.53365 37.8234 9.73171C37.4426 9.93594 37.0166 10.0398 36.5851 10.0335C36.1605 10.0401 35.7414 9.93611 35.3684 9.73171M37.1892 8.83882C37.3823 8.72922 37.5394 8.56523 37.6412 8.367C37.76 8.1301 37.8181 7.86709 37.8102 7.60186C37.8224 7.41491 37.7977 7.22738 37.7376 7.05007C37.6775 6.87276 37.5831 6.70918 37.4599 6.56876C37.3496 6.45201 37.2165 6.35962 37.0688 6.29748C36.9212 6.23533 36.7623 6.20478 36.6023 6.20777C36.4435 6.20428 36.2857 6.23464 36.1394 6.29685C35.993 6.35906 35.8614 6.45173 35.7532 6.56876C35.5092 6.85477 35.3863 7.22568 35.4109 7.60186C35.3862 7.97661 35.5057 8.34655 35.7448 8.63496C35.8509 8.75237 35.9808 8.84541 36.1258 8.90778C36.2708 8.97014 36.4275 9.00036 36.5851 8.99639C36.7965 8.99707 37.0046 8.94251 37.1892 8.83882Z" fill="#AB2346"/>
<path d="M39.9222 6.31835C40.0945 5.96814 40.361 5.6736 40.6913 5.46819C41.0185 5.26885 41.3946 5.1657 41.7771 5.17042C42.0956 5.16314 42.4108 5.23629 42.6939 5.38318C42.9406 5.51177 43.1556 5.69427 43.3232 5.91731V5.24698H44.5147V9.95846H43.3232V9.26898C43.1601 9.49985 42.9443 9.68791 42.6939 9.81736C42.4083 9.96632 42.0902 10.0408 41.7687 10.0341C41.3878 10.0379 41.0139 9.93162 40.6913 9.72789C40.361 9.51681 40.0949 9.21819 39.9222 8.86483C39.7276 8.46718 39.6305 8.02834 39.6392 7.58514C39.6308 7.14595 39.7279 6.71167 39.9222 6.31835ZM43.1538 6.85783C43.049 6.65929 42.8909 6.49441 42.6974 6.382C42.5101 6.27246 42.2971 6.21515 42.0805 6.21598C41.8629 6.21358 41.6488 6.27139 41.4616 6.38308C41.2745 6.49478 41.1214 6.65608 41.0191 6.84937C40.899 7.07539 40.8392 7.32891 40.8457 7.58514C40.8398 7.84399 40.8995 8.10009 41.0191 8.32936C41.1241 8.53132 41.2819 8.70061 41.4755 8.81898C41.6575 8.93052 41.8665 8.98936 42.0796 8.98901C42.2962 8.98991 42.5091 8.93276 42.6965 8.82343C42.89 8.71078 43.0481 8.54577 43.1529 8.34716C43.2641 8.11509 43.3218 7.86078 43.3218 7.60316C43.3218 7.34554 43.2641 7.09124 43.1529 6.85916" fill="#AB2346"/>
<path d="M45.6161 6.31789C45.7867 5.9686 46.0523 5.67526 46.3821 5.47203C46.7119 5.2688 47.0923 5.16404 47.479 5.16996C47.7804 5.16938 48.078 5.23772 48.3493 5.36981C48.609 5.48983 48.8353 5.67235 49.0083 5.90127V3.66504H50.2081V9.95711H49.0083V9.26007C48.8554 9.49849 48.6428 9.6921 48.3918 9.82135C48.1071 9.96786 47.7907 10.041 47.471 10.0341C47.089 10.0376 46.7139 9.93133 46.3897 9.72788C46.0575 9.51777 45.7899 9.21899 45.6166 8.86481C45.4219 8.46717 45.3248 8.02833 45.3335 7.58512C45.3251 7.14593 45.4222 6.71119 45.6166 6.31789M48.8482 6.85781C48.7435 6.65934 48.5855 6.49447 48.3922 6.38199C48.205 6.27252 47.9922 6.21521 47.7757 6.21596C47.5581 6.21357 47.3441 6.27137 47.1569 6.38307C46.9697 6.49477 46.8166 6.65606 46.7143 6.84935C46.5942 7.07537 46.5344 7.32889 46.5409 7.58512C46.5351 7.84397 46.5948 8.10007 46.7143 8.32934C46.8193 8.53131 46.9771 8.7006 47.1707 8.81896C47.3527 8.93053 47.5617 8.98937 47.7748 8.989C47.9913 8.98982 48.2041 8.93267 48.3913 8.82342C48.5846 8.7107 48.7426 8.5457 48.8473 8.34715C48.9586 8.11511 49.0163 7.86079 49.0163 7.60315C49.0163 7.3455 48.9586 7.09118 48.8473 6.85915" fill="#AB2346"/>
<path d="M52.0801 9.82421C51.7954 9.7005 51.5469 9.50579 51.3579 9.25847C51.1842 9.03033 51.0826 8.75491 51.0664 8.46796H52.2578C52.2687 8.55742 52.298 8.64364 52.3436 8.72117C52.3893 8.7987 52.4505 8.86586 52.5232 8.91841C52.6907 9.04138 52.8945 9.10409 53.1017 9.09645C53.2875 9.10729 53.472 9.05969 53.6297 8.96025C53.6881 8.92304 53.7361 8.87157 53.7694 8.81062C53.8027 8.74968 53.82 8.68126 53.8199 8.61173C53.8203 8.53742 53.7984 8.46472 53.7569 8.40321C53.7155 8.34171 53.6565 8.29429 53.5877 8.26721C53.3492 8.16155 53.1017 8.07754 52.8483 8.01617C52.5565 7.9491 52.2699 7.86104 51.9907 7.75267C51.7686 7.66232 51.5714 7.51941 51.4158 7.33605C51.2463 7.12195 51.1607 6.85272 51.1752 6.57936C51.174 6.32426 51.2523 6.0752 51.399 5.86718C51.5619 5.64058 51.7843 5.46398 52.0411 5.35709C52.3526 5.22576 52.688 5.16191 53.0256 5.1697C53.5063 5.14466 53.9799 5.29408 54.3604 5.59077C54.5256 5.73091 54.6598 5.9043 54.7544 6.09978C54.849 6.29526 54.9019 6.50851 54.9097 6.7258H53.7775C53.772 6.63937 53.7484 6.55507 53.7084 6.47838C53.6684 6.4017 53.6128 6.33434 53.5453 6.28069C53.3899 6.18133 53.2113 6.1249 53.0273 6.11709C52.8434 6.10928 52.6607 6.15035 52.4975 6.23618C52.4427 6.27166 52.3979 6.32088 52.3676 6.379C52.3373 6.43713 52.3225 6.50218 52.3246 6.56779C52.3242 6.64488 52.3464 6.72039 52.3885 6.78479C52.4306 6.84919 52.4907 6.8996 52.5613 6.92966C52.7968 7.03896 53.0432 7.12296 53.2963 7.18026C53.5809 7.24833 53.8603 7.33653 54.1326 7.44421C54.3537 7.5359 54.5493 7.68025 54.7027 7.86484C54.8713 8.07831 54.9597 8.34488 54.9521 8.61752C54.9553 8.87884 54.877 9.13459 54.7283 9.34883C54.5658 9.57491 54.3432 9.75031 54.0862 9.85492C53.7769 9.98258 53.4448 10.0447 53.1105 10.0374C52.756 10.0433 52.4044 9.97222 52.0796 9.8291" fill="#AB2346"/>
<path d="M57.7172 5.38704C58 5.23869 58.3152 5.16416 58.634 5.17027C59.0164 5.16544 59.3925 5.26844 59.7198 5.4676C60.0492 5.6722 60.3155 5.96503 60.4889 6.31331C60.684 6.70777 60.7812 7.14399 60.7719 7.58455C60.7805 8.02774 60.6835 8.46656 60.4889 8.86424C60.316 9.21749 60.05 9.51608 59.7198 9.7273C59.3944 9.93183 59.0176 10.0381 58.634 10.0335C58.3185 10.0401 58.0063 9.96699 57.7261 9.82078C57.4778 9.69094 57.2603 9.50876 57.0883 9.28664V12.203H55.9053V5.24683H57.0883V5.92696C57.2535 5.70015 57.4686 5.51527 57.7172 5.38704ZM59.3903 6.84922C59.2848 6.65238 59.1269 6.48901 58.9343 6.37741C58.7478 6.27026 58.5366 6.21452 58.3218 6.21583C58.1092 6.21533 57.9005 6.2727 57.7177 6.38186C57.5248 6.49681 57.367 6.66296 57.2617 6.86213C57.1478 7.09188 57.0885 7.34514 57.0885 7.60191C57.0885 7.85867 57.1478 8.11193 57.2617 8.34168C57.3671 8.5408 57.5248 8.70695 57.7177 8.82195C57.9022 8.93102 58.1126 8.98815 58.3266 8.98737C58.5407 8.98659 58.7505 8.92792 58.9343 8.8175C59.1268 8.70008 59.2843 8.53264 59.3903 8.33277C59.5107 8.1024 59.5704 7.84478 59.5637 7.58455C59.5702 7.32831 59.5104 7.07522 59.3903 6.84922Z" fill="#AB2346"/>
<path d="M65.9343 7.95901H62.5125C62.5225 8.26219 62.6494 8.54954 62.8663 8.76021C63.0754 8.95348 63.3511 9.05725 63.6349 9.04953C63.8302 9.06122 64.0244 9.01296 64.1918 8.91115C64.3592 8.80933 64.492 8.65876 64.5725 8.47934H65.8484C65.7173 8.92739 65.4445 9.32012 65.0714 9.5979C64.6628 9.89803 64.1662 10.052 63.6606 10.0354C63.2373 10.0423 62.8196 9.93827 62.4483 9.73366C62.0938 9.53562 61.8034 9.2389 61.612 8.87905C61.4063 8.48643 61.3031 8.0476 61.3122 7.60381C61.3024 7.15758 61.4041 6.71603 61.608 6.31967C61.7957 5.96104 62.0835 5.6655 62.436 5.46951C62.8099 5.27537 63.2244 5.17336 63.6452 5.17189C64.066 5.17042 64.4811 5.26952 64.8565 5.46105C65.2031 5.64851 65.4878 5.93358 65.676 6.28139C65.8753 6.65642 65.9756 7.07666 65.9674 7.50188C65.9686 7.65552 65.9573 7.80899 65.9338 7.96079M64.7424 7.15959C64.7449 7.02014 64.7166 6.88186 64.6596 6.75471C64.6026 6.62757 64.5184 6.51471 64.4129 6.42427C64.1937 6.23814 63.9141 6.13974 63.6274 6.14786C63.3562 6.13954 63.092 6.23498 62.888 6.41493C62.6796 6.6096 62.5489 6.87404 62.5204 7.1587L64.7424 7.15959Z" fill="#AB2346"/>
<path d="M66.9493 6.32265C67.1369 5.9668 67.4211 5.67195 67.7688 5.47249C68.1352 5.26681 68.5493 5.16267 68.9687 5.1707C69.4839 5.15052 69.9909 5.30473 70.4087 5.60869C70.7986 5.91553 71.0692 6.35026 71.1734 6.83719H69.8975C69.8377 6.6442 69.7176 6.47576 69.5551 6.35692C69.3797 6.2362 69.1705 6.17521 68.9581 6.18288C68.8049 6.17654 68.6523 6.20675 68.5129 6.27103C68.3735 6.33531 68.2511 6.43185 68.1558 6.55277C67.9624 6.86694 67.86 7.22919 67.86 7.59878C67.86 7.96836 67.9624 8.33061 68.1558 8.64478C68.2511 8.76571 68.3735 8.86224 68.5129 8.92652C68.6523 8.99081 68.8049 9.02101 68.9581 9.01467C69.1645 9.03249 69.3707 8.97785 69.5416 8.86004C69.7125 8.74223 69.8376 8.5685 69.8957 8.36837H71.1716C71.0603 8.85001 70.7889 9.27899 70.4025 9.58441C69.9888 9.89489 69.4822 10.0538 68.9665 10.0349C68.547 10.0429 68.133 9.93877 67.7667 9.73308C67.419 9.53353 67.1348 9.23871 66.9471 8.88292C66.7525 8.48475 66.6514 8.04695 66.6514 7.60323C66.6514 7.15951 66.7525 6.7217 66.9471 6.32354" fill="#AB2346"/>
<path d="M73.5005 6.22479V8.50375C73.4947 8.566 73.5019 8.62878 73.5215 8.68809C73.5411 8.7474 73.5728 8.80195 73.6146 8.84826C73.7255 8.92978 73.8622 8.96747 73.9989 8.9542H74.5482V9.95748H73.8047C72.8079 9.95748 72.3095 9.47008 72.3095 8.49529V6.22523H71.75V5.246H72.3077V4.08203H73.4987V5.24688H74.5464V6.22612L73.5005 6.22479Z" fill="#AB2346"/>
<path d="M77.2958 5.39126C77.5522 5.24653 77.8422 5.1731 78.1361 5.1785V6.4297H77.8234C77.6655 6.40388 77.5038 6.4171 77.3521 6.46822C77.2004 6.51934 77.0634 6.60683 76.9528 6.72314C76.8422 6.83945 76.7613 6.98109 76.7172 7.13585C76.6731 7.29061 76.6671 7.45384 76.6997 7.61147V9.95809H75.5166V5.2466H76.6997V5.97792C76.8456 5.73465 77.051 5.53276 77.2958 5.39126Z" fill="#AB2346"/>
<path d="M83.371 5.24756V9.95815H82.1795V9.36304C82.0238 9.57034 81.8192 9.73538 81.5843 9.84331C81.3344 9.96042 81.0616 10.0199 80.786 10.0174C80.4471 10.0245 80.1121 9.94404 79.813 9.78367C79.529 9.62534 79.2981 9.38567 79.1496 9.09508C78.9817 8.75936 78.899 8.38698 78.909 8.01124V5.24756H80.0921V7.84121C80.0714 8.1541 80.1712 8.46299 80.3707 8.70383C80.4686 8.80592 80.5871 8.88569 80.7183 8.93775C80.8494 8.98981 80.9901 9.01295 81.1309 9.00562C81.273 9.01351 81.4152 8.99066 81.5478 8.9386C81.6804 8.88654 81.8003 8.80649 81.8996 8.70383C82.0992 8.46302 82.199 8.1541 82.1782 7.84121V5.24756H83.371Z" fill="#AB2346"/>
<path d="M91.8087 5.71004C91.9917 5.90868 92.1329 6.14259 92.2236 6.39764C92.3144 6.65269 92.3529 6.92361 92.3367 7.19404V9.95728H91.1541V7.35517C91.1749 7.04734 91.0746 6.74362 90.875 6.50946C90.7758 6.40975 90.6568 6.33211 90.5258 6.28159C90.3949 6.23106 90.2548 6.20876 90.1148 6.21613C89.9741 6.20907 89.8335 6.2315 89.7019 6.28199C89.5703 6.33248 89.4504 6.40994 89.3501 6.50946C89.25 6.62478 89.1735 6.75883 89.1249 6.90395C89.0764 7.04907 89.0568 7.20239 89.0671 7.35517V9.95728H87.8845V7.35517C87.9051 7.04743 87.8051 6.74381 87.6059 6.50946C87.5066 6.40977 87.3876 6.33215 87.2567 6.28163C87.1257 6.2311 86.9857 6.20879 86.8456 6.21613C86.7036 6.20848 86.5616 6.23061 86.4285 6.2811C86.2954 6.33159 86.1742 6.40935 86.0726 6.50946C85.9725 6.62481 85.896 6.75887 85.8474 6.90397C85.7989 7.04908 85.7792 7.2024 85.7895 7.35517V9.95728H84.6064V5.24668H85.7895V5.81642C85.945 5.61531 86.1465 5.45497 86.3768 5.34906C86.6243 5.2339 86.8941 5.17582 87.1667 5.17902C87.5077 5.17301 87.8447 5.25337 88.1467 5.41271C88.4296 5.56434 88.6618 5.79658 88.8141 6.08037C88.9705 5.80439 89.2002 5.57779 89.4775 5.42606C89.8475 5.22423 90.2707 5.14321 90.6885 5.19426C91.1062 5.2453 91.4979 5.42587 91.8091 5.71093" fill="#AB2346"/>
</svg>
