<svg width="13" height="14" viewBox="0 0 13 14" fill="none" xmlns="http://www.w3.org/2000/svg">
<path d="M9.02232 0.495117H3.473C1.80018 0.495117 0.444092 1.95552 0.444092 3.75702V9.73321C0.444092 11.5347 1.80018 12.9951 3.473 12.9951H9.02232C10.6951 12.9951 12.0512 11.5347 12.0512 9.73321V3.75702C12.0512 1.95552 10.6951 0.495117 9.02232 0.495117Z" stroke="#0A2804" stroke-width="0.830241" stroke-linecap="round" stroke-linejoin="round"/>
<path d="M6.24761 10.0188C7.92653 10.0188 9.28757 8.55308 9.28757 6.745C9.28757 4.93693 7.92653 3.47119 6.24761 3.47119C4.56868 3.47119 3.20764 4.93693 3.20764 6.745C3.20764 8.55308 4.56868 10.0188 6.24761 10.0188Z" stroke="#0A2804" stroke-width="0.830241" stroke-linecap="round" stroke-linejoin="round"/>
<path d="M9.56396 2.87453C9.71659 2.87453 9.84032 2.74129 9.84032 2.57692C9.84032 2.41255 9.71659 2.2793 9.56396 2.2793C9.41133 2.2793 9.2876 2.41255 9.2876 2.57692C9.2876 2.74129 9.41133 2.87453 9.56396 2.87453Z" stroke="#0A2804" stroke-width="0.830241" stroke-linecap="round" stroke-linejoin="round"/>
</svg>
