<svg width="92" height="16" viewBox="0 0 92 16" fill="none" xmlns="http://www.w3.org/2000/svg">
<path d="M15.3304 1.64166H12.1554C12.0516 1.64415 11.9483 1.62573 11.8517 1.58748C11.7551 1.54924 11.667 1.49193 11.5927 1.41894C11.5184 1.34595 11.4594 1.25875 11.4191 1.16247C11.3788 1.06619 11.358 0.962772 11.358 0.858298C11.358 0.753824 11.3788 0.650405 11.4191 0.554123C11.4594 0.457842 11.5184 0.370642 11.5927 0.297653C11.667 0.224664 11.7551 0.16736 11.8517 0.129111C11.9483 0.0908622 12.0516 0.0724401 12.1554 0.0749295H15.3304C15.4342 0.0724401 15.5375 0.0908622 15.6341 0.129111C15.7307 0.16736 15.8188 0.224664 15.8931 0.297653C15.9674 0.370642 16.0264 0.457842 16.0667 0.554123C16.107 0.650405 16.1278 0.753824 16.1278 0.858298C16.1278 0.962772 16.107 1.06619 16.0667 1.16247C16.0264 1.25875 15.9674 1.34595 15.8931 1.41894C15.8188 1.49193 15.7307 1.54924 15.6341 1.58748C15.5375 1.62573 15.4342 1.64415 15.3304 1.64166Z" fill="#AB2346"/>
<path d="M16.907 4.01569H12.1562C12.0524 4.01818 11.9491 3.99976 11.8525 3.96151C11.7559 3.92326 11.6678 3.86595 11.5935 3.79297C11.5192 3.71998 11.4602 3.63278 11.4199 3.5365C11.3796 3.44021 11.3588 3.3368 11.3588 3.23232C11.3588 3.12785 11.3796 3.02443 11.4199 2.92815C11.4602 2.83187 11.5192 2.74467 11.5935 2.67168C11.6678 2.59869 11.7559 2.54138 11.8525 2.50313C11.9491 2.46489 12.0524 2.44646 12.1562 2.44895H16.907C17.0108 2.44646 17.114 2.46489 17.2107 2.50313C17.3073 2.54138 17.3953 2.59869 17.4696 2.67168C17.5439 2.74467 17.603 2.83187 17.6433 2.92815C17.6836 3.02443 17.7043 3.12785 17.7043 3.23232C17.7043 3.3368 17.6836 3.44021 17.6433 3.5365C17.603 3.63278 17.5439 3.71998 17.4696 3.79297C17.3953 3.86595 17.3073 3.92326 17.2107 3.96151C17.114 3.99976 17.0108 4.01818 16.907 4.01569Z" fill="#AB2346"/>
<path d="M18.4716 6.38971H12.1556C11.9523 6.38483 11.759 6.30016 11.617 6.15379C11.4749 6.00741 11.3954 5.81093 11.3954 5.60634C11.3954 5.40176 11.4749 5.20528 11.617 5.0589C11.759 4.91253 11.9523 4.82785 12.1556 4.82298H18.4716C18.5754 4.82049 18.6786 4.83891 18.7753 4.87716C18.8719 4.91541 18.96 4.97271 19.0342 5.0457C19.1085 5.11869 19.1676 5.20589 19.2079 5.30217C19.2482 5.39845 19.269 5.50187 19.269 5.60634C19.269 5.71082 19.2482 5.81424 19.2079 5.91052C19.1676 6.0068 19.1085 6.094 19.0342 6.16699C18.96 6.23998 18.8719 6.29728 18.7753 6.33553C18.6786 6.37378 18.5754 6.3922 18.4716 6.38971Z" fill="#AB2346"/>
<path d="M15.3305 11.1373H12.1555C12.0516 11.1398 11.9484 11.1213 11.8518 11.0831C11.7551 11.0448 11.6671 10.9875 11.5928 10.9145C11.5185 10.8416 11.4595 10.7544 11.4192 10.6581C11.3788 10.5618 11.3581 10.4584 11.3581 10.3539C11.3581 10.2494 11.3788 10.146 11.4192 10.0497C11.4595 9.95345 11.5185 9.86625 11.5928 9.79326C11.6671 9.72027 11.7551 9.66297 11.8518 9.62472C11.9484 9.58647 12.0516 9.56805 12.1555 9.57053H15.3305C15.4343 9.56805 15.5375 9.58647 15.6342 9.62472C15.7308 9.66297 15.8188 9.72027 15.8931 9.79326C15.9674 9.86625 16.0264 9.95345 16.0668 10.0497C16.1071 10.146 16.1278 10.2494 16.1278 10.3539C16.1278 10.4584 16.1071 10.5618 16.0668 10.6581C16.0264 10.7544 15.9674 10.8416 15.8931 10.9145C15.8188 10.9875 15.7308 11.0448 15.6342 11.0831C15.5375 11.1213 15.4343 11.1398 15.3305 11.1373Z" fill="#AB2346"/>
<path d="M14.5427 13.5113H12.1544C12.0506 13.5138 11.9474 13.4954 11.8508 13.4571C11.7541 13.4189 11.6661 13.3616 11.5918 13.2886C11.5175 13.2156 11.4584 13.1284 11.4181 13.0321C11.3778 12.9358 11.3571 12.8324 11.3571 12.7279C11.3571 12.6235 11.3778 12.52 11.4181 12.4238C11.4584 12.3275 11.5175 12.2403 11.5918 12.1673C11.6661 12.0943 11.7541 12.037 11.8508 11.9987C11.9474 11.9605 12.0506 11.9421 12.1544 11.9446H14.5427C14.6465 11.9421 14.7497 11.9605 14.8463 11.9987C14.943 12.037 15.031 12.0943 15.1053 12.1673C15.1796 12.2403 15.2387 12.3275 15.279 12.4238C15.3193 12.52 15.34 12.6235 15.34 12.7279C15.34 12.8324 15.3193 12.9358 15.279 13.0321C15.2387 13.1284 15.1796 13.2156 15.1053 13.2886C15.031 13.3616 14.943 13.4189 14.8463 13.4571C14.7497 13.4954 14.6465 13.5138 14.5427 13.5113Z" fill="#AB2346"/>
<path d="M9.82224 1.64166H8.22347C8.11967 1.64415 8.0164 1.62573 7.91977 1.58748C7.82314 1.54924 7.73509 1.49193 7.66079 1.41894C7.5865 1.34595 7.52748 1.25875 7.48717 1.16247C7.44686 1.06619 7.42609 0.962772 7.42609 0.858298C7.42609 0.753824 7.44686 0.650405 7.48717 0.554123C7.52748 0.457842 7.5865 0.370642 7.66079 0.297653C7.73509 0.224664 7.82314 0.16736 7.91977 0.129111C8.0164 0.0908622 8.11967 0.0724401 8.22347 0.0749295H9.82224C9.92605 0.0724401 10.0293 0.0908622 10.1259 0.129111C10.2226 0.16736 10.3106 0.224664 10.3849 0.297653C10.4592 0.370642 10.5182 0.457842 10.5585 0.554123C10.5989 0.650405 10.6196 0.753824 10.6196 0.858298C10.6196 0.962772 10.5989 1.06619 10.5585 1.16247C10.5182 1.25875 10.4592 1.34595 10.3849 1.41894C10.3106 1.49193 10.2226 1.54924 10.1259 1.58748C10.0293 1.62573 9.92605 1.64415 9.82224 1.64166Z" fill="#82AEC9"/>
<path d="M9.82214 4.01569H6.66042C6.55662 4.01818 6.45338 3.99976 6.35675 3.96151C6.26012 3.92326 6.17207 3.86595 6.09777 3.79297C6.02348 3.71998 5.96443 3.63278 5.92412 3.5365C5.88382 3.44021 5.86304 3.3368 5.86304 3.23232C5.86304 3.12785 5.88382 3.02443 5.92412 2.92815C5.96443 2.83187 6.02348 2.74467 6.09777 2.67168C6.17207 2.59869 6.26012 2.54138 6.35675 2.50313C6.45338 2.46489 6.55662 2.44646 6.66042 2.44895H9.82214C9.92595 2.44646 10.0292 2.46489 10.1258 2.50313C10.2225 2.54138 10.3105 2.59869 10.3848 2.67168C10.4591 2.74467 10.5182 2.83187 10.5585 2.92815C10.5988 3.02443 10.6195 3.12785 10.6195 3.23232C10.6195 3.3368 10.5988 3.44021 10.5585 3.5365C10.5182 3.63278 10.4591 3.71998 10.3848 3.79297C10.3105 3.86595 10.2225 3.92326 10.1258 3.96151C10.0292 3.99976 9.92595 4.01818 9.82214 4.01569Z" fill="#82AEC9"/>
<path d="M9.8216 6.38971H5.09518C4.99137 6.3922 4.8881 6.37378 4.79147 6.33553C4.69485 6.29728 4.60679 6.23998 4.5325 6.16699C4.4582 6.094 4.39916 6.0068 4.35885 5.91052C4.31854 5.81424 4.29779 5.71082 4.29779 5.60634C4.29779 5.50187 4.31854 5.39845 4.35885 5.30217C4.39916 5.20589 4.4582 5.11869 4.5325 5.0457C4.60679 4.97271 4.69485 4.91541 4.79147 4.87716C4.8881 4.83891 4.99137 4.82049 5.09518 4.82298H9.8216C9.92541 4.82049 10.0287 4.83891 10.1253 4.87716C10.2219 4.91541 10.31 4.97271 10.3843 5.0457C10.4586 5.11869 10.5176 5.20589 10.5579 5.30217C10.5982 5.39845 10.619 5.50187 10.619 5.60634C10.619 5.71082 10.5982 5.81424 10.5579 5.91052C10.5176 6.0068 10.4586 6.094 10.3843 6.16699C10.31 6.23998 10.2219 6.29728 10.1253 6.33553C10.0287 6.37378 9.92541 6.3922 9.8216 6.38971Z" fill="#82AEC9"/>
<path d="M9.82225 8.76324H3.51382C3.41001 8.76573 3.30677 8.74731 3.21014 8.70906C3.11351 8.67081 3.02546 8.61351 2.95117 8.54052C2.87687 8.46753 2.81782 8.38033 2.77752 8.28405C2.73721 8.18777 2.71643 8.08435 2.71643 7.97988C2.71643 7.8754 2.73721 7.77199 2.77752 7.6757C2.81782 7.57942 2.87687 7.49222 2.95117 7.41923C3.02546 7.34624 3.11351 7.28894 3.21014 7.25069C3.30677 7.21244 3.41001 7.19402 3.51382 7.19651H9.82225C9.92606 7.19402 10.0293 7.21244 10.1259 7.25069C10.2226 7.28894 10.3106 7.34624 10.3849 7.41923C10.4592 7.49222 10.5182 7.57942 10.5586 7.6757C10.5989 7.77199 10.6196 7.8754 10.6196 7.97988C10.6196 8.08435 10.5989 8.18777 10.5586 8.28405C10.5182 8.38033 10.4592 8.46753 10.3849 8.54052C10.3106 8.61351 10.2226 8.67081 10.1259 8.70906C10.0293 8.74731 9.92606 8.76573 9.82225 8.76324Z" fill="#82AEC9"/>
<path d="M20.0479 8.76324H12.1562C12.0524 8.76573 11.9491 8.74731 11.8525 8.70906C11.7559 8.67081 11.6678 8.61351 11.5935 8.54052C11.5192 8.46753 11.4602 8.38033 11.4199 8.28405C11.3796 8.18777 11.3588 8.08435 11.3588 7.97988C11.3588 7.8754 11.3796 7.77199 11.4199 7.6757C11.4602 7.57942 11.5192 7.49222 11.5935 7.41923C11.6678 7.34624 11.7559 7.28894 11.8525 7.25069C11.9491 7.21244 12.0524 7.19402 12.1562 7.19651H20.0479C20.1517 7.19402 20.255 7.21244 20.3516 7.25069C20.4482 7.28894 20.5363 7.34624 20.6106 7.41923C20.6849 7.49222 20.7439 7.57942 20.7842 7.6757C20.8245 7.77199 20.8453 7.8754 20.8453 7.97988C20.8453 8.08435 20.8245 8.18777 20.7842 8.28405C20.7439 8.38033 20.6849 8.46753 20.6106 8.54052C20.5363 8.61351 20.4482 8.67081 20.3516 8.70906C20.255 8.74731 20.1517 8.76573 20.0479 8.76324Z" fill="#82AEC9"/>
<path d="M9.82195 11.1373H5.08975C4.98594 11.1398 4.8827 11.1213 4.78607 11.0831C4.68944 11.0448 4.60139 10.9875 4.52709 10.9145C4.4528 10.8416 4.39375 10.7544 4.35344 10.6581C4.31314 10.5618 4.29236 10.4584 4.29236 10.3539C4.29236 10.2494 4.31314 10.146 4.35344 10.0497C4.39375 9.95345 4.4528 9.86625 4.52709 9.79326C4.60139 9.72027 4.68944 9.66297 4.78607 9.62472C4.8827 9.58647 4.98594 9.56805 5.08975 9.57053H9.82195C9.92576 9.56805 10.029 9.58647 10.1257 9.62472C10.2223 9.66297 10.3103 9.72027 10.3846 9.79326C10.4589 9.86625 10.5179 9.95345 10.5582 10.0497C10.5986 10.146 10.6193 10.2494 10.6193 10.3539C10.6193 10.4584 10.5986 10.5618 10.5582 10.6581C10.5179 10.7544 10.4589 10.8416 10.3846 10.9145C10.3103 10.9875 10.2223 11.0448 10.1257 11.0831C10.029 11.1213 9.92576 11.1398 9.82195 11.1373Z" fill="#82AEC9"/>
<path d="M20.048 11.1373H17.6629C17.4596 11.1324 17.2662 11.0477 17.1242 10.9013C16.9821 10.755 16.9026 10.5585 16.9026 10.3539C16.9026 10.1493 16.9821 9.95284 17.1242 9.80646C17.2662 9.66008 17.4596 9.57541 17.6629 9.57053H20.048C20.1518 9.56805 20.2551 9.58647 20.3517 9.62472C20.4483 9.66297 20.5364 9.72027 20.6107 9.79326C20.685 9.86625 20.744 9.95345 20.7843 10.0497C20.8246 10.146 20.8454 10.2494 20.8454 10.3539C20.8454 10.4584 20.8246 10.5618 20.7843 10.6581C20.744 10.7544 20.685 10.8416 20.6107 10.9145C20.5364 10.9875 20.4483 11.0448 20.3517 11.0831C20.2551 11.1213 20.1518 11.1398 20.048 11.1373Z" fill="#82AEC9"/>
<path d="M9.82133 13.5113H6.65432C6.55051 13.5138 6.44725 13.4954 6.35062 13.4571C6.25399 13.4189 6.16594 13.3616 6.09164 13.2886C6.01735 13.2156 5.9583 13.1284 5.91799 13.0321C5.87768 12.9358 5.85693 12.8324 5.85693 12.7279C5.85693 12.6235 5.87768 12.52 5.91799 12.4238C5.9583 12.3275 6.01735 12.2403 6.09164 12.1673C6.16594 12.0943 6.25399 12.037 6.35062 11.9987C6.44725 11.9605 6.55051 11.9421 6.65432 11.9446H9.82133C9.92514 11.9421 10.0284 11.9605 10.125 11.9987C10.2217 12.037 10.3097 12.0943 10.384 12.1673C10.4583 12.2403 10.5174 12.3275 10.5577 12.4238C10.598 12.52 10.6187 12.6235 10.6187 12.7279C10.6187 12.8324 10.598 12.9358 10.5577 13.0321C10.5174 13.1284 10.4583 13.2156 10.384 13.2886C10.3097 13.3616 10.2217 13.4189 10.125 13.4571C10.0284 13.4954 9.92514 13.5138 9.82133 13.5113Z" fill="#82AEC9"/>
<path d="M20.1947 13.5113H16.8883C16.685 13.5064 16.4917 13.4217 16.3496 13.2754C16.2076 13.129 16.1281 12.9325 16.1281 12.7279C16.1281 12.5233 16.2076 12.3269 16.3496 12.1805C16.4917 12.0341 16.685 11.9494 16.8883 11.9446H20.1947C20.2985 11.9421 20.4017 11.9605 20.4984 11.9987C20.595 12.037 20.683 12.0943 20.7573 12.1673C20.8316 12.2403 20.8907 12.3275 20.931 12.4238C20.9713 12.52 20.992 12.6235 20.992 12.7279C20.992 12.8324 20.9713 12.9358 20.931 13.0321C20.8907 13.1284 20.8316 13.2156 20.7573 13.2886C20.683 13.3616 20.595 13.4189 20.4984 13.4571C20.4017 13.4954 20.2985 13.5138 20.1947 13.5113Z" fill="#82AEC9"/>
<path d="M9.82224 15.8853H8.22347C8.11967 15.8878 8.0164 15.8694 7.91977 15.8311C7.82314 15.7929 7.73509 15.7356 7.66079 15.6626C7.5865 15.5896 7.52748 15.5024 7.48717 15.4061C7.44686 15.3098 7.42609 15.2064 7.42609 15.1019C7.42609 14.9975 7.44686 14.8941 7.48717 14.7978C7.52748 14.7015 7.5865 14.6143 7.66079 14.5413C7.73509 14.4683 7.82314 14.411 7.91977 14.3728C8.0164 14.3345 8.11967 14.3161 8.22347 14.3186H9.82224C9.92605 14.3161 10.0293 14.3345 10.1259 14.3728C10.2226 14.411 10.3106 14.4683 10.3849 14.5413C10.4592 14.6143 10.5182 14.7015 10.5585 14.7978C10.5989 14.8941 10.6196 14.9975 10.6196 15.1019C10.6196 15.2064 10.5989 15.3098 10.5585 15.4061C10.5182 15.5024 10.4592 15.5896 10.3849 15.6626C10.3106 15.7356 10.2226 15.7929 10.1259 15.8311C10.0293 15.8694 9.92605 15.8878 9.82224 15.8853Z" fill="#82AEC9"/>
<path d="M15.3304 15.8853H12.1554C12.0516 15.8878 11.9483 15.8694 11.8517 15.8311C11.7551 15.7929 11.667 15.7356 11.5927 15.6626C11.5184 15.5896 11.4594 15.5024 11.4191 15.4061C11.3788 15.3098 11.358 15.2064 11.358 15.1019C11.358 14.9975 11.3788 14.8941 11.4191 14.7978C11.4594 14.7015 11.5184 14.6143 11.5927 14.5413C11.667 14.4683 11.7551 14.411 11.8517 14.3728C11.9483 14.3345 12.0516 14.3161 12.1554 14.3186H15.3304C15.4342 14.3161 15.5375 14.3345 15.6341 14.3728C15.7307 14.411 15.8188 14.4683 15.8931 14.5413C15.9674 14.6143 16.0264 14.7015 16.0667 14.7978C16.107 14.8941 16.1278 14.9975 16.1278 15.1019C16.1278 15.2064 16.107 15.3098 16.0667 15.4061C16.0264 15.5024 15.9674 15.5896 15.8931 15.6626C15.8188 15.7356 15.7307 15.7929 15.6341 15.8311C15.5375 15.8694 15.4342 15.8878 15.3304 15.8853Z" fill="#82AEC9"/>
<path d="M6.69055 1.45591C6.69055 1.57427 6.65566 1.68998 6.5903 1.7884C6.52493 1.88682 6.43202 1.96353 6.32333 2.00883C6.21464 2.05413 6.09504 2.06598 5.97965 2.04289C5.86426 2.0198 5.75827 1.9628 5.67508 1.8791C5.59189 1.7954 5.53524 1.68876 5.51228 1.57266C5.48933 1.45657 5.50111 1.33623 5.54613 1.22688C5.59116 1.11752 5.66739 1.02405 5.76521 0.958284C5.86303 0.892522 5.97805 0.857422 6.09569 0.857422C6.25346 0.857422 6.40475 0.920477 6.51631 1.03271C6.62786 1.14495 6.69055 1.29718 6.69055 1.45591Z" fill="#1D365A"/>
<path d="M6.66772 14.8978C6.66772 15.0162 6.63283 15.1319 6.56747 15.2303C6.50211 15.3287 6.4092 15.4054 6.3005 15.4507C6.19181 15.496 6.07221 15.5079 5.95682 15.4848C5.84143 15.4617 5.73545 15.4047 5.65226 15.321C5.56906 15.2373 5.51241 15.1306 5.48946 15.0146C5.46651 14.8985 5.47829 14.7781 5.52331 14.6688C5.56833 14.5594 5.64459 14.4659 5.74241 14.4002C5.84023 14.3344 5.95522 14.2993 6.07287 14.2993C6.23063 14.2993 6.38195 14.3624 6.49351 14.4746C6.60506 14.5868 6.66772 14.7391 6.66772 14.8978Z" fill="#1D365A"/>
<path d="M4.6987 4.01601H3.91236C3.80908 4.01601 3.71003 3.97473 3.637 3.90126C3.56397 3.82778 3.52295 3.72813 3.52295 3.62422C3.52295 3.52031 3.56397 3.42065 3.637 3.34718C3.71003 3.2737 3.80908 3.23242 3.91236 3.23242H4.6987C4.80198 3.23242 4.90104 3.2737 4.97407 3.34718C5.04709 3.42065 5.08811 3.52031 5.08811 3.62422C5.08811 3.72813 5.04709 3.82778 4.97407 3.90126C4.90104 3.97473 4.80198 4.01601 4.6987 4.01601Z" fill="#1D365A"/>
<path d="M3.12325 6.38955H1.5528C1.44952 6.38955 1.35047 6.34827 1.27744 6.2748C1.20441 6.20132 1.16339 6.10166 1.16339 5.99775C1.16339 5.89384 1.20441 5.79419 1.27744 5.72071C1.35047 5.64724 1.44952 5.60596 1.5528 5.60596H3.12325C3.22653 5.60596 3.32559 5.64724 3.39861 5.72071C3.47164 5.79419 3.51269 5.89384 3.51269 5.99775C3.51269 6.10166 3.47164 6.20132 3.39861 6.2748C3.32559 6.34827 3.22653 6.38955 3.12325 6.38955Z" fill="#1D365A"/>
<path d="M3.13361 10.3368H0.775028C0.67175 10.3368 0.572723 10.2955 0.499695 10.2221C0.426666 10.1486 0.38562 10.0489 0.38562 9.94502C0.38562 9.84111 0.426666 9.74145 0.499695 9.66798C0.572723 9.5945 0.67175 9.55322 0.775028 9.55322H3.13361C3.23689 9.55322 3.33594 9.5945 3.40897 9.66798C3.482 9.74145 3.52302 9.84111 3.52302 9.94502C3.52302 10.0489 3.482 10.1486 3.40897 10.2221C3.33594 10.2955 3.23689 10.3368 3.13361 10.3368Z" fill="#1D365A"/>
<path d="M4.70224 12.703H3.91236C3.80908 12.703 3.71003 12.6617 3.637 12.5883C3.56397 12.5148 3.52295 12.4151 3.52295 12.3112C3.52295 12.2073 3.56397 12.1077 3.637 12.0342C3.71003 11.9607 3.80908 11.9194 3.91236 11.9194H4.70224C4.80552 11.9194 4.90457 11.9607 4.9776 12.0342C5.05063 12.1077 5.09165 12.2073 5.09165 12.3112C5.09165 12.4151 5.05063 12.5148 4.9776 12.5883C4.90457 12.6617 4.80552 12.703 4.70224 12.703Z" fill="#1D365A"/>
<path d="M29.1434 7.46164C29.3548 7.72627 29.4683 8.05657 29.4645 8.39608C29.4705 8.69196 29.3897 8.98306 29.2323 9.23306C29.0671 9.48256 28.8338 9.67878 28.5605 9.79817C28.233 9.94116 27.8785 10.0107 27.5216 10.002H24.9786V4.07009H27.4111C27.7658 4.0614 28.1184 4.12796 28.446 4.26543C28.714 4.3778 28.9432 4.56707 29.1049 4.80963C29.2552 5.04533 29.333 5.32036 29.3287 5.60034C29.3396 5.91261 29.2427 6.21904 29.0545 6.46758C28.8667 6.70313 28.6117 6.87518 28.3239 6.96061C28.6496 7.01898 28.9419 7.19767 29.1434 7.46164ZM26.1608 6.51831H27.2426C27.4749 6.53352 27.7051 6.46576 27.8927 6.32697C27.9699 6.2593 28.0307 6.17467 28.0703 6.07962C28.1099 5.98457 28.1272 5.88163 28.1209 5.77877C28.1269 5.67529 28.1095 5.57178 28.0699 5.47606C28.0304 5.38033 27.9698 5.29487 27.8927 5.22612C27.7064 5.08447 27.4756 5.01498 27.2426 5.03033H26.1608V6.51831ZM28.0236 8.83215C28.1049 8.7606 28.1689 8.67127 28.2106 8.571C28.2523 8.47073 28.2707 8.36219 28.2642 8.25369C28.2699 8.14099 28.25 8.02847 28.2061 7.92463C28.1622 7.8208 28.0954 7.72836 28.0108 7.65431C27.8162 7.50137 27.5732 7.4244 27.3266 7.43761H26.1608V9.0355H27.3523C27.5932 9.05032 27.8314 8.97804 28.024 8.8317" fill="#AB2346"/>
<path d="M32.1786 5.43856C32.435 5.29389 32.725 5.22048 33.0189 5.22586V6.47667H32.7062C32.5483 6.45096 32.3866 6.46425 32.235 6.5154C32.0834 6.56654 31.9464 6.654 31.8358 6.77025C31.7252 6.88649 31.6444 7.02804 31.6002 7.1827C31.5561 7.33736 31.55 7.5005 31.5824 7.65806V10.0039H30.4003V5.29394H31.5811V6.02502C31.7271 5.7819 31.9321 5.58009 32.1768 5.43856" fill="#AB2346"/>
<path d="M34.7664 9.77763C34.4088 9.57939 34.1143 9.28314 33.9173 8.92329C33.7057 8.53266 33.599 8.09325 33.6077 7.64845C33.5986 7.20258 33.7079 6.76234 33.9244 6.37317C34.1277 6.01238 34.4278 5.71635 34.7903 5.51883C35.1686 5.32072 35.5889 5.21729 36.0154 5.21729C36.4419 5.21729 36.8621 5.32072 37.2404 5.51883C37.6029 5.71639 37.903 6.01241 38.1064 6.37317C38.323 6.76229 38.4325 7.20254 38.4235 7.64845C38.4325 8.09525 38.3201 8.53605 38.0984 8.92329C37.8892 9.284 37.5851 9.57963 37.2196 9.77763C36.8388 9.98179 36.4128 10.0856 35.9813 10.0793C35.5567 10.0859 35.1376 9.98197 34.7647 9.77763M36.5855 8.88502C36.7786 8.77546 36.9357 8.61152 37.0374 8.41335C37.1562 8.17653 37.2143 7.9136 37.2064 7.64845C37.2186 7.46157 37.194 7.27409 37.1339 7.09684C37.0737 6.91958 36.9794 6.75605 36.8561 6.61568C36.7459 6.49897 36.6127 6.40661 36.4651 6.34448C36.3174 6.28236 36.1586 6.25182 35.9986 6.25481C35.8397 6.25131 35.682 6.28166 35.5356 6.34386C35.3893 6.40605 35.2577 6.49869 35.1494 6.61568C34.9054 6.9016 34.7825 7.27239 34.8071 7.64845C34.7824 8.02309 34.902 8.39291 35.141 8.68123C35.2471 8.7986 35.3771 8.89162 35.5221 8.95396C35.667 9.01631 35.8237 9.04652 35.9813 9.04254C36.1928 9.04322 36.4008 8.98868 36.5855 8.88502Z" fill="#AB2346"/>
<path d="M39.3193 6.36535C39.4916 6.01525 39.7581 5.7208 40.0884 5.51546C40.4156 5.31618 40.7917 5.21306 41.1742 5.21778C41.4927 5.21051 41.8078 5.28363 42.091 5.43048C42.3377 5.55903 42.5527 5.74147 42.7203 5.96444V5.29432H43.9118V10.0043H42.7203V9.31505C42.5572 9.54584 42.3414 9.73385 42.091 9.86325C41.8054 10.0122 41.4873 10.0867 41.1658 10.08C40.7849 10.0837 40.411 9.97748 40.0884 9.77382C39.7581 9.5628 39.492 9.26427 39.3193 8.91102C39.1247 8.5135 39.0276 8.0748 39.0363 7.63174C39.0279 7.19269 39.125 6.75854 39.3193 6.36535ZM42.5509 6.90466C42.4461 6.70619 42.288 6.54136 42.0945 6.42898C41.9072 6.31947 41.6942 6.26218 41.4776 6.26301C41.26 6.26062 41.0459 6.3184 40.8587 6.43006C40.6716 6.54172 40.5185 6.70297 40.4162 6.8962C40.2961 7.12215 40.2363 7.37559 40.2428 7.63174C40.2369 7.89051 40.2966 8.14653 40.4162 8.37572C40.5212 8.57763 40.679 8.74686 40.8726 8.86519C41.0546 8.9767 41.2636 9.03552 41.4767 9.03517C41.6933 9.03607 41.9062 8.97893 42.0936 8.86964C42.2871 8.75703 42.4452 8.59207 42.55 8.39352C42.6612 8.16152 42.7189 7.90729 42.7189 7.64976C42.7189 7.39222 42.6612 7.13799 42.55 6.90599" fill="#AB2346"/>
<path d="M45.0121 6.36442C45.1827 6.01523 45.4483 5.72199 45.7781 5.51882C46.1079 5.31566 46.4883 5.21093 46.875 5.21684C47.1764 5.21627 47.474 5.28458 47.7453 5.41663C48.005 5.53661 48.2313 5.71908 48.4043 5.94793V3.7124H49.6041V10.0025H48.4043V9.30566C48.2514 9.54401 48.0388 9.73756 47.7878 9.86677C47.5031 10.0132 47.1867 10.0863 46.867 10.0795C46.485 10.0829 46.1099 9.97671 45.7857 9.77332C45.4535 9.56329 45.1859 9.26459 45.0126 8.91053C44.8179 8.51302 44.7208 8.07431 44.7295 7.63124C44.7211 7.19219 44.8182 6.75759 45.0126 6.36442M48.2442 6.90417C48.1395 6.70576 47.9815 6.54093 47.7882 6.42849C47.601 6.31906 47.3882 6.26177 47.1717 6.26252C46.9541 6.26012 46.7401 6.31791 46.5529 6.42957C46.3657 6.54123 46.2126 6.70248 46.1103 6.89571C45.9902 7.12165 45.9304 7.3751 45.9369 7.63124C45.9311 7.89002 45.9907 8.14603 46.1103 8.37523C46.2153 8.57714 46.3731 8.74637 46.5667 8.8647C46.7487 8.97623 46.9577 9.03505 47.1708 9.03468C47.3873 9.0355 47.6001 8.97837 47.7873 8.86915C47.9806 8.75647 48.1386 8.59152 48.2433 8.39303C48.3546 8.16107 48.4123 7.90683 48.4123 7.64927C48.4123 7.3917 48.3546 7.13746 48.2433 6.9055" fill="#AB2346"/>
<path d="M51.4763 9.8701C51.1917 9.74643 50.9431 9.55178 50.7541 9.30454C50.5804 9.07647 50.4789 8.80114 50.4626 8.51428H51.6541C51.665 8.60371 51.6942 8.68991 51.7399 8.76741C51.7855 8.84492 51.8467 8.91206 51.9195 8.96459C52.087 9.08752 52.2907 9.1502 52.4979 9.14257C52.6837 9.15341 52.8683 9.10582 53.026 9.00641C53.0843 8.96922 53.1324 8.91776 53.1656 8.85684C53.1989 8.79591 53.2163 8.72751 53.2161 8.658C53.2166 8.58371 53.1946 8.51104 53.1532 8.44955C53.1117 8.38807 53.0527 8.34067 52.984 8.3136C52.7454 8.20796 52.4979 8.12398 52.2445 8.06264C51.9528 7.99559 51.6662 7.90755 51.387 7.79921C51.1648 7.7089 50.9676 7.56603 50.812 7.38272C50.6425 7.16869 50.5569 6.89955 50.5714 6.62628C50.5702 6.37126 50.6485 6.12228 50.7952 5.91433C50.9582 5.68779 51.1805 5.51125 51.4374 5.40439C51.7488 5.27311 52.0843 5.20927 52.4219 5.21706C52.9025 5.19203 53.3761 5.3414 53.7566 5.638C53.9218 5.77809 54.056 5.95143 54.1506 6.14685C54.2452 6.34227 54.2981 6.55545 54.3059 6.77267H53.1737C53.1682 6.68626 53.1447 6.60199 53.1047 6.52533C53.0647 6.44867 53.0091 6.38134 52.9415 6.3277C52.7861 6.22837 52.6075 6.17196 52.4236 6.16415C52.2397 6.15634 52.0569 6.1974 51.8938 6.28321C51.8389 6.31868 51.7941 6.36788 51.7638 6.42598C51.7335 6.48409 51.7187 6.54912 51.7209 6.61471C51.7204 6.69177 51.7426 6.76726 51.7847 6.83164C51.8268 6.89602 51.887 6.94641 51.9575 6.97647C52.1931 7.08573 52.4394 7.1697 52.6925 7.22699C52.9771 7.29504 53.2566 7.38321 53.5288 7.49085C53.7499 7.58252 53.9455 7.72681 54.0989 7.91135C54.2676 8.12475 54.3559 8.39124 54.3483 8.66379C54.3515 8.92503 54.2733 9.1807 54.1246 9.39487C53.962 9.62088 53.7395 9.79622 53.4824 9.9008C53.1731 10.0284 52.841 10.0905 52.5068 10.0832C52.1523 10.0891 51.8006 10.0181 51.4758 9.87499" fill="#AB2346"/>
<path d="M57.1138 5.43433C57.3966 5.28603 57.7118 5.21152 58.0307 5.21763C58.413 5.2128 58.7891 5.31577 59.1164 5.51487C59.4458 5.71941 59.7121 6.01214 59.8855 6.36031C60.0806 6.75464 60.1778 7.19073 60.1685 7.63115C60.1771 8.0742 60.0801 8.51288 59.8855 8.91043C59.7127 9.26358 59.4466 9.56207 59.1164 9.77323C58.791 9.97768 58.4142 10.0839 58.0307 10.0794C57.7151 10.086 57.4029 10.0128 57.1227 9.86667C56.8744 9.73688 56.6569 9.55475 56.485 9.3327V12.2481H55.3019V5.29417H56.485V5.97408C56.6501 5.74734 56.8652 5.56252 57.1138 5.43433ZM58.7869 6.89606C58.6814 6.69928 58.5235 6.53595 58.3309 6.42439C58.1444 6.31728 57.9332 6.26156 57.7184 6.26286C57.5059 6.26236 57.2971 6.31971 57.1143 6.42884C56.9214 6.54375 56.7636 6.70986 56.6583 6.90896C56.5444 7.13864 56.4851 7.39181 56.4851 7.6485C56.4851 7.90519 56.5444 8.15836 56.6583 8.38804C56.7637 8.5871 56.9214 8.75319 57.1143 8.86816C57.2989 8.97719 57.5092 9.03431 57.7232 9.03353C57.9373 9.03274 58.1471 8.97409 58.3309 8.86371C58.5234 8.74632 58.6809 8.57894 58.7869 8.37914C58.9073 8.14884 58.967 7.89129 58.9603 7.63115C58.9668 7.375 58.9071 7.12198 58.7869 6.89606Z" fill="#AB2346"/>
<path d="M65.3303 8.005H61.9085C61.9185 8.30809 62.0454 8.59535 62.2623 8.80595C62.4714 8.99916 62.7471 9.10289 63.0309 9.09518C63.2262 9.10686 63.4204 9.05862 63.5878 8.95684C63.7552 8.85506 63.888 8.70453 63.9685 8.52517H65.2444C65.1133 8.97307 64.8405 9.36568 64.4674 9.64338C64.0588 9.94341 63.5622 10.0974 63.0566 10.0808C62.6333 10.0876 62.2156 9.98364 61.8443 9.7791C61.4898 9.58111 61.1994 9.28449 61.008 8.92475C60.8023 8.53225 60.6991 8.09357 60.7082 7.64992C60.6984 7.20383 60.8001 6.76242 61.004 6.36618C61.1917 6.00766 61.4795 5.71222 61.832 5.51629C62.2059 5.32221 62.6204 5.22024 63.0412 5.21877C63.462 5.2173 63.8771 5.31637 64.2525 5.50784C64.5991 5.69523 64.8838 5.98022 65.072 6.32792C65.2713 6.70282 65.3716 7.12293 65.3634 7.54802C65.3645 7.70161 65.3533 7.85503 65.3298 8.00678M64.1384 7.20584C64.1408 7.06643 64.1126 6.9282 64.0556 6.80109C63.9986 6.67398 63.9144 6.56116 63.8089 6.47075C63.5897 6.28468 63.3101 6.18631 63.0234 6.19442C62.7522 6.18611 62.488 6.28151 62.284 6.46141C62.0756 6.65602 61.9449 6.92037 61.9164 7.20495L64.1384 7.20584Z" fill="#AB2346"/>
<path d="M66.3451 6.36965C66.5327 6.01391 66.8169 5.71916 67.1646 5.51975C67.531 5.31414 67.945 5.21004 68.3645 5.21807C68.8796 5.19789 69.3867 5.35205 69.8045 5.65591C70.1943 5.96266 70.4649 6.39725 70.5691 6.88403H69.2932C69.2334 6.69109 69.1134 6.52271 68.9509 6.40391C68.7755 6.28323 68.5662 6.22226 68.3538 6.22993C68.2006 6.22359 68.0481 6.25378 67.9086 6.31804C67.7692 6.3823 67.6469 6.47881 67.5516 6.59969C67.3582 6.91377 67.2557 7.2759 67.2557 7.64537C67.2557 8.01484 67.3582 8.37697 67.5516 8.69105C67.6469 8.81193 67.7692 8.90844 67.9086 8.9727C68.0481 9.03696 68.2006 9.06715 68.3538 9.06082C68.5602 9.07863 68.7664 9.02401 68.9373 8.90624C69.1083 8.78846 69.2334 8.61479 69.2914 8.41472H70.5674C70.456 8.89621 70.1847 9.32505 69.7983 9.63038C69.3846 9.94076 68.8779 10.0996 68.3622 10.0807C67.9428 10.0887 67.5288 9.98463 67.1624 9.779C66.8147 9.57952 66.5305 9.28478 66.3429 8.92911C66.1483 8.53107 66.0471 8.0934 66.0471 7.64982C66.0471 7.20624 66.1483 6.76858 66.3429 6.37054" fill="#AB2346"/>
<path d="M72.897 6.27148V8.54971C72.8912 8.61194 72.8983 8.6747 72.918 8.734C72.9376 8.79329 72.9693 8.84782 73.0111 8.89412C73.1219 8.97561 73.2587 9.01329 73.3954 9.00002H73.9447V10.003H73.2012C72.2044 10.003 71.706 9.51574 71.706 8.54126V6.27192H71.1465V5.29299H71.7042V4.12939H72.8952V5.29388H73.9429V6.27281L72.897 6.27148Z" fill="#AB2346"/>
<path d="M76.6922 5.43856C76.9486 5.29387 77.2386 5.22046 77.5325 5.22586V6.47667H77.2198C77.0619 6.45086 76.9002 6.46407 76.7485 6.51517C76.5968 6.56628 76.4597 6.65374 76.3491 6.77001C76.2385 6.88629 76.1577 7.02789 76.1136 7.1826C76.0695 7.33731 76.0635 7.50048 76.096 7.65806V10.0039H74.913V5.29394H76.096V6.02503C76.2419 5.78184 76.4474 5.58001 76.6922 5.43856Z" fill="#AB2346"/>
<path d="M82.7676 5.29443V10.0035H81.5762V9.40862C81.4204 9.61584 81.2158 9.78083 80.9809 9.88874C80.731 10.0058 80.4582 10.0652 80.1826 10.0627C79.8437 10.0699 79.5087 9.98943 79.2096 9.82911C78.9256 9.67083 78.6947 9.43124 78.5462 9.14074C78.3783 8.80513 78.2956 8.43286 78.3056 8.05724V5.29443H79.4887V7.88726C79.468 8.20005 79.5678 8.50885 79.7673 8.74962C79.8652 8.85167 79.9837 8.93141 80.1149 8.98346C80.246 9.0355 80.3867 9.05864 80.5275 9.05131C80.6696 9.05919 80.8118 9.03635 80.9444 8.98431C81.077 8.93227 81.1969 8.85224 81.2962 8.74962C81.4958 8.50887 81.5956 8.20006 81.5748 7.88726V5.29443H82.7676Z" fill="#AB2346"/>
<path d="M91.2052 5.75772C91.3882 5.9563 91.5294 6.19013 91.6201 6.44511C91.7109 6.70008 91.7493 6.97091 91.7332 7.24125V10.0036H90.5506V7.40233C90.5714 7.0946 90.4711 6.79098 90.2715 6.55689C90.1722 6.45721 90.0533 6.3796 89.9223 6.32909C89.7914 6.27858 89.6513 6.25629 89.5113 6.26365C89.3706 6.2566 89.23 6.27901 89.0984 6.32949C88.9668 6.37997 88.8469 6.4574 88.7466 6.55689C88.6465 6.67217 88.57 6.80619 88.5214 6.95126C88.4729 7.09633 88.4532 7.24961 88.4636 7.40233V10.0036H87.281V7.40233C87.3016 7.09469 87.2016 6.79117 87.0023 6.55689C86.903 6.45723 86.7841 6.37964 86.6532 6.32913C86.5222 6.27862 86.3822 6.25632 86.2421 6.26365C86.1001 6.25601 85.9581 6.27812 85.825 6.3286C85.6919 6.37908 85.5707 6.45682 85.4691 6.55689C85.369 6.6722 85.2925 6.80622 85.2439 6.95128C85.1954 7.09634 85.1757 7.24961 85.186 7.40233V10.0036H84.0029V5.29451H85.186V5.86407C85.3415 5.66302 85.543 5.50273 85.7733 5.39685C86.0208 5.28174 86.2906 5.22367 86.5632 5.22688C86.9042 5.22087 87.2412 5.3012 87.5432 5.46049C87.8261 5.61207 88.0583 5.84424 88.2106 6.12794C88.3669 5.85204 88.5967 5.62551 88.874 5.47383C89.244 5.27206 89.6672 5.19108 90.0849 5.2421C90.5027 5.29313 90.8944 5.47364 91.2056 5.75861" fill="#AB2346"/>
</svg>
