<svg width="93" height="17" viewBox="0 0 93 17" fill="none" xmlns="http://www.w3.org/2000/svg">
<path d="M15.2778 2.45462H12.0524C11.9469 2.45715 11.8421 2.43844 11.7439 2.39958C11.6457 2.36073 11.5563 2.30251 11.4808 2.22837C11.4053 2.15422 11.3453 2.06563 11.3044 1.96782C11.2635 1.87001 11.2424 1.76495 11.2424 1.65882C11.2424 1.55269 11.2635 1.44763 11.3044 1.34982C11.3453 1.25201 11.4053 1.16343 11.4808 1.08928C11.5563 1.01513 11.6457 0.956917 11.7439 0.918061C11.8421 0.879205 11.9469 0.86049 12.0524 0.863019H15.2778C15.3832 0.86049 15.4881 0.879205 15.5863 0.918061C15.6845 0.956917 15.7739 1.01513 15.8494 1.08928C15.9249 1.16343 15.9848 1.25201 16.0258 1.34982C16.0667 1.44763 16.0878 1.55269 16.0878 1.65882C16.0878 1.76495 16.0667 1.87001 16.0258 1.96782C15.9848 2.06563 15.9249 2.15422 15.8494 2.22837C15.7739 2.30251 15.6845 2.36073 15.5863 2.39958C15.4881 2.43844 15.3832 2.45715 15.2778 2.45462Z" fill="#AB2346"/>
<path d="M16.8793 4.86576H12.0531C11.9477 4.86829 11.8428 4.84957 11.7446 4.81072C11.6465 4.77186 11.557 4.71365 11.4815 4.6395C11.4061 4.56535 11.3461 4.47677 11.3051 4.37896C11.2642 4.28115 11.2431 4.17609 11.2431 4.06995C11.2431 3.96382 11.2642 3.85876 11.3051 3.76095C11.3461 3.66314 11.4061 3.57456 11.4815 3.50041C11.557 3.42626 11.6465 3.36805 11.7446 3.32919C11.8428 3.29034 11.9477 3.27162 12.0531 3.27415H16.8793C16.9848 3.27162 17.0897 3.29034 17.1878 3.32919C17.286 3.36805 17.3754 3.42626 17.4509 3.50041C17.5264 3.57456 17.5863 3.66314 17.6273 3.76095C17.6682 3.85876 17.6893 3.96382 17.6893 4.06995C17.6893 4.17609 17.6682 4.28115 17.6273 4.37896C17.5863 4.47677 17.5264 4.56535 17.4509 4.6395C17.3754 4.71365 17.286 4.77186 17.1878 4.81072C17.0897 4.84957 16.9848 4.86829 16.8793 4.86576Z" fill="#AB2346"/>
<path d="M18.4688 7.27738H12.0526C11.8461 7.27242 11.6498 7.18641 11.5054 7.03771C11.3611 6.889 11.2803 6.68941 11.2803 6.48157C11.2803 6.27374 11.3611 6.07415 11.5054 5.92545C11.6498 5.77674 11.8461 5.69073 12.0526 5.68577H18.4688C18.5743 5.68324 18.6792 5.70196 18.7774 5.74081C18.8755 5.77967 18.965 5.83788 19.0404 5.91203C19.1159 5.98618 19.1759 6.07476 19.2168 6.17257C19.2578 6.27038 19.2789 6.37544 19.2789 6.48157C19.2789 6.58771 19.2578 6.69277 19.2168 6.79058C19.1759 6.88839 19.1159 6.97697 19.0404 7.05112C18.965 7.12527 18.8755 7.18348 18.7774 7.22234C18.6792 7.26119 18.5743 7.2799 18.4688 7.27738Z" fill="#AB2346"/>
<path d="M15.2778 12.1006H12.0524C11.9469 12.1031 11.8421 12.0844 11.7439 12.0456C11.6457 12.0067 11.5563 11.9485 11.4808 11.8744C11.4053 11.8002 11.3453 11.7116 11.3044 11.6138C11.2635 11.516 11.2424 11.4109 11.2424 11.3048C11.2424 11.1987 11.2635 11.0936 11.3044 10.9958C11.3453 10.898 11.4053 10.8094 11.4808 10.7353C11.5563 10.6611 11.6457 10.6029 11.7439 10.5641C11.8421 10.5252 11.9469 10.5065 12.0524 10.509H15.2778C15.3832 10.5065 15.4881 10.5252 15.5863 10.5641C15.6845 10.6029 15.7739 10.6611 15.8494 10.7353C15.9249 10.8094 15.9848 10.898 16.0258 10.9958C16.0667 11.0936 16.0878 11.1987 16.0878 11.3048C16.0878 11.4109 16.0667 11.516 16.0258 11.6138C15.9848 11.7116 15.9249 11.8002 15.8494 11.8744C15.7739 11.9485 15.6845 12.0067 15.5863 12.0456C15.4881 12.0844 15.3832 12.1031 15.2778 12.1006Z" fill="#AB2346"/>
<path d="M14.4777 14.5118H12.0516C11.9461 14.5143 11.8412 14.4956 11.7431 14.4567C11.6449 14.4179 11.5555 14.3596 11.48 14.2855C11.4045 14.2113 11.3445 14.1228 11.3036 14.025C11.2626 13.9271 11.2415 13.8221 11.2415 13.7159C11.2415 13.6098 11.2626 13.5048 11.3036 13.4069C11.3445 13.3091 11.4045 13.2206 11.48 13.1464C11.5555 13.0723 11.6449 13.014 11.7431 12.9752C11.8412 12.9363 11.9461 12.9176 12.0516 12.9201H14.4777C14.5831 12.9176 14.688 12.9363 14.7862 12.9752C14.8844 13.014 14.9738 13.0723 15.0493 13.1464C15.1247 13.2206 15.1847 13.3091 15.2257 13.4069C15.2666 13.5048 15.2877 13.6098 15.2877 13.7159C15.2877 13.8221 15.2666 13.9271 15.2257 14.025C15.1847 14.1228 15.1247 14.2113 15.0493 14.2855C14.9738 14.3596 14.8844 14.4179 14.7862 14.4567C14.688 14.4956 14.5831 14.5143 14.4777 14.5118Z" fill="#AB2346"/>
<path d="M9.6823 2.45462H8.05815C7.9527 2.45715 7.84779 2.43844 7.74963 2.39958C7.65147 2.36073 7.56202 2.30251 7.48654 2.22837C7.41107 2.15422 7.35111 2.06563 7.31016 1.96782C7.26922 1.87001 7.24811 1.76495 7.24811 1.65882C7.24811 1.55269 7.26922 1.44763 7.31016 1.34982C7.35111 1.25201 7.41107 1.16343 7.48654 1.08928C7.56202 1.01513 7.65147 0.956917 7.74963 0.918061C7.84779 0.879205 7.9527 0.86049 8.05815 0.863019H9.6823C9.78776 0.86049 9.89266 0.879205 9.99082 0.918061C10.089 0.956917 10.1784 1.01513 10.2539 1.08928C10.3294 1.16343 10.3893 1.25201 10.4303 1.34982C10.4712 1.44763 10.4923 1.55269 10.4923 1.65882C10.4923 1.76495 10.4712 1.87001 10.4303 1.96782C10.3893 2.06563 10.3294 2.15422 10.2539 2.22837C10.1784 2.30251 10.089 2.36073 9.99082 2.39958C9.89266 2.43844 9.78776 2.45715 9.6823 2.45462Z" fill="#82AEC9"/>
<path d="M9.68205 4.86576H6.47014C6.36468 4.86829 6.25981 4.84957 6.16164 4.81072C6.06348 4.77186 5.97403 4.71365 5.89856 4.6395C5.82308 4.56535 5.7631 4.47677 5.72215 4.37896C5.6812 4.28115 5.6601 4.17609 5.6601 4.06995C5.6601 3.96382 5.6812 3.85876 5.72215 3.76095C5.7631 3.66314 5.82308 3.57456 5.89856 3.50041C5.97403 3.42626 6.06348 3.36805 6.16164 3.32919C6.25981 3.29034 6.36468 3.27162 6.47014 3.27415H9.68205C9.7875 3.27162 9.89241 3.29034 9.99057 3.32919C10.0887 3.36805 10.1782 3.42626 10.2537 3.50041C10.3291 3.57456 10.3891 3.66314 10.4301 3.76095C10.471 3.85876 10.4921 3.96382 10.4921 4.06995C10.4921 4.17609 10.471 4.28115 10.4301 4.37896C10.3891 4.47677 10.3291 4.56535 10.2537 4.6395C10.1782 4.71365 10.0887 4.77186 9.99057 4.81072C9.89241 4.84957 9.7875 4.86829 9.68205 4.86576Z" fill="#82AEC9"/>
<path d="M9.6815 7.27738H4.88005C4.7746 7.2799 4.66969 7.26119 4.57153 7.22234C4.47336 7.18348 4.38391 7.12527 4.30844 7.05112C4.23297 6.97697 4.17298 6.88839 4.13204 6.79058C4.09109 6.69277 4.07001 6.58771 4.07001 6.48157C4.07001 6.37544 4.09109 6.27038 4.13204 6.17257C4.17298 6.07476 4.23297 5.98618 4.30844 5.91203C4.38391 5.83788 4.47336 5.77967 4.57153 5.74081C4.66969 5.70196 4.7746 5.68324 4.88005 5.68577H9.6815C9.78696 5.68324 9.89186 5.70196 9.99002 5.74081C10.0882 5.77967 10.1776 5.83788 10.2531 5.91203C10.3286 5.98618 10.3886 6.07476 10.4295 6.17257C10.4705 6.27038 10.4915 6.37544 10.4915 6.48157C10.4915 6.58771 10.4705 6.69277 10.4295 6.79058C10.3886 6.88839 10.3286 6.97697 10.2531 7.05112C10.1776 7.12527 10.0882 7.18348 9.99002 7.22234C9.89186 7.26119 9.78696 7.2799 9.6815 7.27738Z" fill="#82AEC9"/>
<path d="M9.6823 9.68948H3.27373C3.16827 9.69201 3.06339 9.6733 2.96523 9.63444C2.86707 9.59559 2.77762 9.53737 2.70215 9.46323C2.62667 9.38908 2.56669 9.3005 2.52574 9.20269C2.48479 9.10488 2.46368 8.99982 2.46368 8.89368C2.46368 8.78755 2.48479 8.68249 2.52574 8.58468C2.56669 8.48687 2.62667 8.39829 2.70215 8.32414C2.77762 8.24999 2.86707 8.19178 2.96523 8.15292C3.06339 8.11406 3.16827 8.09535 3.27373 8.09788H9.6823C9.78775 8.09535 9.89263 8.11406 9.99079 8.15292C10.089 8.19178 10.1784 8.24999 10.2539 8.32414C10.3294 8.39829 10.3893 8.48687 10.4303 8.58468C10.4712 8.68249 10.4923 8.78755 10.4923 8.89368C10.4923 8.99982 10.4712 9.10488 10.4303 9.20269C10.3893 9.3005 10.3294 9.38908 10.2539 9.46323C10.1784 9.53737 10.089 9.59559 9.99079 9.63444C9.89263 9.6733 9.78775 9.69201 9.6823 9.68948Z" fill="#82AEC9"/>
<path d="M20.0702 9.68948H12.0533C11.9478 9.69201 11.8429 9.6733 11.7447 9.63444C11.6466 9.59559 11.5571 9.53737 11.4817 9.46323C11.4062 9.38908 11.3462 9.3005 11.3053 9.20269C11.2643 9.10488 11.2432 8.99982 11.2432 8.89368C11.2432 8.78755 11.2643 8.68249 11.3053 8.58468C11.3462 8.48687 11.4062 8.39829 11.4817 8.32414C11.5571 8.24999 11.6466 8.19178 11.7447 8.15292C11.8429 8.11406 11.9478 8.09535 12.0533 8.09788H20.0702C20.1757 8.09535 20.2806 8.11406 20.3787 8.15292C20.4769 8.19178 20.5664 8.24999 20.6418 8.32414C20.7173 8.39829 20.7773 8.48687 20.8182 8.58468C20.8592 8.68249 20.8803 8.78755 20.8803 8.89368C20.8803 8.99982 20.8592 9.10488 20.8182 9.20269C20.7773 9.3005 20.7173 9.38908 20.6418 9.46323C20.5664 9.53737 20.4769 9.59559 20.3787 9.63444C20.2806 9.6733 20.1757 9.69201 20.0702 9.68948Z" fill="#82AEC9"/>
<path d="M9.68194 12.1006H4.87462C4.76916 12.1031 4.66429 12.0844 4.56612 12.0456C4.46796 12.0067 4.37851 11.9485 4.30304 11.8744C4.22756 11.8002 4.16758 11.7116 4.12663 11.6138C4.08568 11.516 4.06458 11.4109 4.06458 11.3048C4.06458 11.1987 4.08568 11.0936 4.12663 10.9958C4.16758 10.898 4.22756 10.8094 4.30304 10.7353C4.37851 10.6611 4.46796 10.6029 4.56612 10.5641C4.66429 10.5252 4.76916 10.5065 4.87462 10.509H9.68194C9.78739 10.5065 9.8923 10.5252 9.99046 10.5641C10.0886 10.6029 10.178 10.6611 10.2535 10.7353C10.329 10.8094 10.389 10.898 10.4299 10.9958C10.4709 11.0936 10.492 11.1987 10.492 11.3048C10.492 11.4109 10.4709 11.516 10.4299 11.6138C10.389 11.7116 10.329 11.8002 10.2535 11.8744C10.178 11.9485 10.0886 12.0067 9.99046 12.0456C9.8923 12.0844 9.78739 12.1031 9.68194 12.1006Z" fill="#82AEC9"/>
<path d="M20.0703 12.1006H17.6473C17.4408 12.0957 17.2444 12.0096 17.1 11.8609C16.9557 11.7122 16.8749 11.5127 16.8749 11.3048C16.8749 11.097 16.9557 10.8974 17.1 10.7487C17.2444 10.6 17.4408 10.514 17.6473 10.509H20.0703C20.1757 10.5065 20.2806 10.5252 20.3788 10.5641C20.4769 10.6029 20.5664 10.6611 20.6419 10.7353C20.7173 10.8094 20.7773 10.898 20.8182 10.9958C20.8592 11.0936 20.8803 11.1987 20.8803 11.3048C20.8803 11.4109 20.8592 11.516 20.8182 11.6138C20.7773 11.7116 20.7173 11.8002 20.6419 11.8744C20.5664 11.9485 20.4769 12.0067 20.3788 12.0456C20.2806 12.0844 20.1757 12.1031 20.0703 12.1006Z" fill="#82AEC9"/>
<path d="M9.68132 14.5118H6.46404C6.35858 14.5143 6.25367 14.4956 6.15551 14.4567C6.05735 14.4179 5.9679 14.3596 5.89243 14.2855C5.81695 14.2113 5.75697 14.1228 5.71602 14.025C5.67507 13.9271 5.65399 13.8221 5.65399 13.7159C5.65399 13.6098 5.67507 13.5048 5.71602 13.4069C5.75697 13.3091 5.81695 13.2206 5.89243 13.1464C5.9679 13.0723 6.05735 13.014 6.15551 12.9752C6.25367 12.9363 6.35858 12.9176 6.46404 12.9201H9.68132C9.78677 12.9176 9.89168 12.9363 9.98984 12.9752C10.088 13.014 10.1775 13.0723 10.2529 13.1464C10.3284 13.2206 10.3884 13.3091 10.4293 13.4069C10.4703 13.5048 10.4914 13.6098 10.4914 13.7159C10.4914 13.8221 10.4703 13.9271 10.4293 14.025C10.3884 14.1228 10.3284 14.2113 10.2529 14.2855C10.1775 14.3596 10.088 14.4179 9.98984 14.4567C9.89168 14.4956 9.78677 14.5143 9.68132 14.5118Z" fill="#82AEC9"/>
<path d="M20.2192 14.5118H16.8604C16.6538 14.5068 16.4574 14.4208 16.3131 14.2721C16.1688 14.1234 16.088 13.9238 16.088 13.7159C16.088 13.5081 16.1688 13.3085 16.3131 13.1598C16.4574 13.0111 16.6538 12.9251 16.8604 12.9201H20.2192C20.3246 12.9176 20.4295 12.9363 20.5277 12.9752C20.6258 13.014 20.7153 13.0723 20.7908 13.1464C20.8662 13.2206 20.9262 13.3091 20.9672 13.4069C21.0081 13.5048 21.0292 13.6098 21.0292 13.7159C21.0292 13.8221 21.0081 13.9271 20.9672 14.025C20.9262 14.1228 20.8662 14.2113 20.7908 14.2855C20.7153 14.3596 20.6258 14.4179 20.5277 14.4567C20.4295 14.4956 20.3246 14.5143 20.2192 14.5118Z" fill="#82AEC9"/>
<path d="M9.6823 16.9239H8.05815C7.9527 16.9264 7.84779 16.9077 7.74963 16.8688C7.65147 16.83 7.56202 16.7717 7.48654 16.6976C7.41107 16.6235 7.35111 16.5349 7.31016 16.4371C7.26922 16.3393 7.24811 16.2342 7.24811 16.1281C7.24811 16.0219 7.26922 15.9169 7.31016 15.8191C7.35111 15.7212 7.41107 15.6327 7.48654 15.5585C7.56202 15.4844 7.65147 15.4262 7.74963 15.3873C7.84779 15.3484 7.9527 15.3297 8.05815 15.3323H9.6823C9.78776 15.3297 9.89266 15.3484 9.99082 15.3873C10.089 15.4262 10.1784 15.4844 10.2539 15.5585C10.3294 15.6327 10.3893 15.7212 10.4303 15.8191C10.4712 15.9169 10.4923 16.0219 10.4923 16.1281C10.4923 16.2342 10.4712 16.3393 10.4303 16.4371C10.3893 16.5349 10.3294 16.6235 10.2539 16.6976C10.1784 16.7717 10.089 16.83 9.99082 16.8688C9.89266 16.9077 9.78776 16.9264 9.6823 16.9239Z" fill="#82AEC9"/>
<path d="M15.2778 16.9239H12.0524C11.947 16.9264 11.8421 16.9077 11.744 16.8688C11.6458 16.83 11.5563 16.7717 11.4809 16.6976C11.4054 16.6235 11.3454 16.5349 11.3045 16.4371C11.2635 16.3393 11.2424 16.2342 11.2424 16.1281C11.2424 16.0219 11.2635 15.9169 11.3045 15.8191C11.3454 15.7212 11.4054 15.6327 11.4809 15.5585C11.5563 15.4844 11.6458 15.4262 11.744 15.3873C11.8421 15.3484 11.947 15.3297 12.0524 15.3323H15.2778C15.3833 15.3297 15.4882 15.3484 15.5864 15.3873C15.6845 15.4262 15.774 15.4844 15.8495 15.5585C15.9249 15.6327 15.9849 15.7212 16.0258 15.8191C16.0668 15.9169 16.0879 16.0219 16.0879 16.1281C16.0879 16.2342 16.0668 16.3393 16.0258 16.4371C15.9849 16.5349 15.9249 16.6235 15.8495 16.6976C15.774 16.7717 15.6845 16.83 15.5864 16.8688C15.4882 16.9077 15.3833 16.9264 15.2778 16.9239Z" fill="#82AEC9"/>
<path d="M6.50088 2.2657C6.50088 2.38595 6.46543 2.50349 6.39903 2.60348C6.33263 2.70346 6.23825 2.78138 6.12783 2.8274C6.01741 2.87342 5.89591 2.88546 5.77869 2.862C5.66147 2.83854 5.5538 2.78063 5.46929 2.69561C5.38478 2.61058 5.32723 2.50225 5.30391 2.38431C5.28059 2.26637 5.29256 2.14413 5.3383 2.03303C5.38403 1.92194 5.46148 1.82698 5.56085 1.76018C5.66023 1.69337 5.77706 1.65771 5.89658 1.65771C6.05685 1.65771 6.21054 1.72177 6.32387 1.83579C6.43719 1.94981 6.50088 2.10445 6.50088 2.2657Z" fill="#1D365A"/>
<path d="M6.47756 15.9215C6.47756 16.0417 6.44212 16.1593 6.37572 16.2592C6.30932 16.3592 6.21493 16.4371 6.10451 16.4832C5.99409 16.5292 5.8726 16.5412 5.75538 16.5178C5.63816 16.4943 5.53049 16.4364 5.44598 16.3514C5.36146 16.2663 5.30391 16.158 5.28059 16.0401C5.25728 15.9221 5.26924 15.7999 5.31498 15.6888C5.36072 15.5777 5.43819 15.4827 5.53756 15.4159C5.63694 15.3491 5.75375 15.3135 5.87326 15.3135C6.03353 15.3135 6.18726 15.3775 6.30058 15.4915C6.41391 15.6056 6.47756 15.7602 6.47756 15.9215Z" fill="#1D365A"/>
<path d="M4.4775 4.86634H3.67867C3.57375 4.86634 3.47313 4.82441 3.39894 4.74977C3.32475 4.67512 3.28308 4.57389 3.28308 4.46833C3.28308 4.36277 3.32475 4.26153 3.39894 4.18689C3.47313 4.11225 3.57375 4.07031 3.67867 4.07031H4.4775C4.58242 4.07031 4.68304 4.11225 4.75723 4.18689C4.83142 4.26153 4.87309 4.36277 4.87309 4.46833C4.87309 4.57389 4.83142 4.67512 4.75723 4.74977C4.68304 4.82441 4.58242 4.86634 4.4775 4.86634Z" fill="#1D365A"/>
<path d="M2.87684 7.27699H1.28145C1.17654 7.27699 1.07591 7.23505 1.00172 7.16041C0.927534 7.08577 0.885864 6.98453 0.885864 6.87897C0.885864 6.77341 0.927534 6.67218 1.00172 6.59753C1.07591 6.52289 1.17654 6.48096 1.28145 6.48096H2.87684C2.98175 6.48096 3.08238 6.52289 3.15657 6.59753C3.23075 6.67218 3.27245 6.77341 3.27245 6.87897C3.27245 6.98453 3.23075 7.08577 3.15657 7.16041C3.08238 7.23505 2.98175 7.27699 2.87684 7.27699Z" fill="#1D365A"/>
<path d="M2.88737 11.2877H0.491353C0.386436 11.2877 0.285837 11.2458 0.211649 11.1712C0.137461 11.0965 0.0957642 10.9953 0.0957642 10.8897C0.0957642 10.7842 0.137461 10.6829 0.211649 10.6083C0.285837 10.5336 0.386436 10.4917 0.491353 10.4917H2.88737C2.99229 10.4917 3.09292 10.5336 3.16711 10.6083C3.24129 10.6829 3.28296 10.7842 3.28296 10.8897C3.28296 10.9953 3.24129 11.0965 3.16711 11.1712C3.09292 11.2458 2.99229 11.2877 2.88737 11.2877Z" fill="#1D365A"/>
<path d="M4.48103 13.691H3.67861C3.57369 13.691 3.47307 13.6491 3.39888 13.5745C3.32469 13.4998 3.28302 13.3986 3.28302 13.293C3.28302 13.1875 3.32469 13.0862 3.39888 13.0116C3.47307 12.937 3.57369 12.895 3.67861 12.895H4.48103C4.58595 12.895 4.68657 12.937 4.76076 13.0116C4.83495 13.0862 4.87662 13.1875 4.87662 13.293C4.87662 13.3986 4.83495 13.4998 4.76076 13.5745C4.68657 13.6491 4.58595 13.691 4.48103 13.691Z" fill="#1D365A"/>
<path d="M29.3102 8.36656C29.5249 8.63539 29.6403 8.97094 29.6363 9.31583C29.6424 9.61641 29.5604 9.91213 29.4005 10.1661C29.2326 10.4196 28.9957 10.6189 28.718 10.7402C28.3853 10.8854 28.0252 10.9561 27.6627 10.9472H25.0793V4.92118H27.5503C27.9107 4.91235 28.2689 4.97996 28.6016 5.11962C28.8739 5.23377 29.1067 5.42604 29.2711 5.67245C29.4237 5.91189 29.5028 6.1913 29.4984 6.47571C29.5095 6.79294 29.4111 7.10424 29.2199 7.35672C29.0291 7.59601 28.7701 7.77079 28.4776 7.85758C28.8085 7.91688 29.1054 8.09841 29.3102 8.36656ZM26.2802 7.40825H27.3792C27.6152 7.42371 27.8491 7.35488 28.0396 7.21388C28.1181 7.14514 28.1798 7.05917 28.22 6.9626C28.2602 6.86604 28.2778 6.76147 28.2714 6.65698C28.2775 6.55185 28.2598 6.44671 28.2196 6.34946C28.1795 6.25221 28.1179 6.1654 28.0396 6.09555C27.8503 5.95166 27.6159 5.88107 27.3792 5.89666H26.2802V7.40825ZM28.1726 9.75882C28.2552 9.68614 28.3202 9.59539 28.3625 9.49353C28.4049 9.39167 28.4236 9.2814 28.417 9.17118C28.4228 9.05669 28.4026 8.94239 28.358 8.8369C28.3134 8.73142 28.2455 8.63752 28.1596 8.56229C27.9619 8.40692 27.715 8.32873 27.4645 8.34215H26.2802V9.9654H27.4906C27.7353 9.98045 27.9773 9.90703 28.173 9.75837" fill="#AB2346"/>
<path d="M32.3934 6.31108C32.6539 6.16412 32.9485 6.08954 33.2471 6.09501V7.36567H32.9294C32.769 7.33955 32.6047 7.35306 32.4507 7.40501C32.2967 7.45696 32.1575 7.54581 32.0452 7.66391C31.9328 7.782 31.8507 7.92579 31.8059 8.08291C31.761 8.24002 31.7548 8.40575 31.7878 8.56581V10.9489H30.5869V6.16417H31.7864V6.90685C31.9347 6.65987 32.143 6.45486 32.3916 6.31108" fill="#AB2346"/>
<path d="M35.0223 10.7187C34.659 10.5173 34.3599 10.2163 34.1597 9.85077C33.9447 9.45393 33.8363 9.00756 33.8452 8.5557C33.8359 8.10275 33.947 7.65552 34.1669 7.26017C34.3735 6.89365 34.6783 6.59292 35.0466 6.39227C35.4309 6.19102 35.8578 6.08594 36.2911 6.08594C36.7244 6.08594 37.1513 6.19102 37.5356 6.39227C37.9038 6.59296 38.2086 6.89368 38.4153 7.26017C38.6354 7.65547 38.7466 8.10271 38.7374 8.5557C38.7466 9.00959 38.6324 9.45738 38.4072 9.85077C38.1947 10.2172 37.8858 10.5175 37.5145 10.7187C37.1276 10.9261 36.6948 11.0315 36.2565 11.0251C35.8251 11.0318 35.3994 10.9262 35.0205 10.7187M36.8702 9.81189C37.0664 9.70059 37.226 9.53405 37.3294 9.33274C37.45 9.09215 37.509 8.82505 37.501 8.5557C37.5135 8.36584 37.4884 8.17539 37.4273 7.99532C37.3663 7.81525 37.2704 7.64913 37.1452 7.50653C37.0332 7.38796 36.8979 7.29414 36.7479 7.23103C36.5979 7.16792 36.4366 7.13689 36.274 7.13993C36.1127 7.13638 35.9524 7.16721 35.8037 7.23039C35.6551 7.29357 35.5214 7.38768 35.4114 7.50653C35.1635 7.79699 35.0386 8.17366 35.0637 8.5557C35.0386 8.93628 35.16 9.31197 35.4028 9.60486C35.5106 9.7241 35.6426 9.81859 35.7899 9.88193C35.9372 9.94526 36.0964 9.97595 36.2565 9.97191C36.4713 9.9726 36.6827 9.9172 36.8702 9.81189Z" fill="#AB2346"/>
<path d="M39.6475 7.25223C39.8225 6.89657 40.0932 6.59744 40.4288 6.38885C40.7612 6.1864 41.1433 6.08165 41.5318 6.08644C41.8553 6.07905 42.1755 6.15334 42.4632 6.30251C42.7138 6.4331 42.9322 6.61844 43.1025 6.84495V6.16419H44.3129V10.9489H43.1025V10.2487C42.9368 10.4832 42.7175 10.6742 42.4632 10.8057C42.1731 10.9569 41.8499 11.0326 41.5232 11.0258C41.1364 11.0296 40.7565 10.9217 40.4288 10.7148C40.0933 10.5004 39.8229 10.1972 39.6475 9.8383C39.4497 9.43447 39.3512 8.98881 39.36 8.53871C39.3515 8.0927 39.4501 7.65166 39.6475 7.25223ZM42.9304 7.80009C42.8239 7.59847 42.6633 7.43103 42.4668 7.31687C42.2764 7.20562 42.0601 7.14742 41.84 7.14826C41.6189 7.14583 41.4015 7.20453 41.2113 7.31797C41.0212 7.4314 40.8657 7.59521 40.7617 7.7915C40.6397 8.02104 40.579 8.2785 40.5856 8.53871C40.5797 8.8016 40.6403 9.06168 40.7617 9.29451C40.8684 9.49962 41.0287 9.67154 41.2254 9.79174C41.4103 9.90502 41.6226 9.96478 41.8391 9.96442C42.0591 9.96533 42.2755 9.90729 42.4658 9.79626C42.6623 9.68187 42.823 9.51429 42.9295 9.31259C43.0424 9.07691 43.101 8.81865 43.101 8.55702C43.101 8.29539 43.0424 8.03713 42.9295 7.80145" fill="#AB2346"/>
<path d="M45.4308 7.25221C45.604 6.89749 45.8739 6.59959 46.2089 6.3932C46.5439 6.18681 46.9304 6.08042 47.3231 6.08643C47.6293 6.08584 47.9317 6.15524 48.2073 6.28939C48.4711 6.41127 48.701 6.59664 48.8767 6.82911V4.55811H50.0956V10.948H48.8767V10.2401C48.7214 10.4823 48.5054 10.6789 48.2504 10.8102C47.9612 10.9589 47.6398 11.0332 47.3151 11.0262C46.927 11.0297 46.5459 10.9218 46.2166 10.7152C45.8792 10.5019 45.6073 10.1984 45.4312 9.83874C45.2334 9.43492 45.1348 8.98925 45.1437 8.53915C45.1351 8.09313 45.2338 7.65163 45.4312 7.25221M48.7141 7.80053C48.6077 7.59897 48.4473 7.43154 48.2509 7.31731C48.0607 7.20614 47.8445 7.14794 47.6246 7.1487C47.4035 7.14627 47.1861 7.20497 46.9959 7.31841C46.8058 7.43184 46.6503 7.59564 46.5463 7.79194C46.4243 8.02147 46.3636 8.27894 46.3702 8.53915C46.3643 8.80203 46.4249 9.06211 46.5463 9.29495C46.653 9.50006 46.8133 9.67198 47.01 9.79218C47.1949 9.90549 47.4072 9.96524 47.6237 9.96486C47.8436 9.96569 48.0598 9.90766 48.25 9.7967C48.4463 9.68224 48.6068 9.51467 48.7132 9.31303C48.8262 9.07738 48.8849 8.81911 48.8849 8.55746C48.8849 8.29581 48.8262 8.03753 48.7132 7.80189" fill="#AB2346"/>
<path d="M51.9975 10.8131C51.7084 10.6875 51.4559 10.4898 51.2638 10.2386C51.0874 10.0069 50.9843 9.72721 50.9678 9.4358H52.1781C52.1892 9.52665 52.2189 9.61422 52.2653 9.69295C52.3117 9.77169 52.3738 9.83989 52.4477 9.89326C52.6179 10.0181 52.8249 10.0818 53.0354 10.0741C53.2241 10.0851 53.4116 10.0367 53.5718 9.93575C53.6311 9.89796 53.6799 9.84568 53.7137 9.78379C53.7475 9.7219 53.7651 9.65242 53.765 9.58181C53.7654 9.50634 53.7431 9.43251 53.701 9.37005C53.6589 9.30759 53.599 9.25943 53.5291 9.23193C53.2868 9.12462 53.0354 9.0393 52.7779 8.97699C52.4815 8.90887 52.1904 8.81944 51.9068 8.70938C51.6811 8.61763 51.4808 8.4725 51.3227 8.28628C51.1505 8.06885 51.0635 7.79544 51.0783 7.51783C51.0771 7.25876 51.1566 7.00583 51.3056 6.79458C51.4712 6.56445 51.697 6.38511 51.958 6.27655C52.2744 6.14318 52.6151 6.07833 52.9581 6.08624C53.4464 6.06082 53.9275 6.21256 54.314 6.51386C54.4818 6.65618 54.6182 6.83227 54.7143 7.03079C54.8104 7.22931 54.8641 7.44587 54.872 7.66655H53.7219C53.7163 7.57877 53.6924 7.49316 53.6517 7.41528C53.6111 7.3374 53.5546 7.269 53.486 7.21452C53.3281 7.11361 53.1467 7.0563 52.9598 7.04837C52.773 7.04043 52.5874 7.08215 52.4216 7.16931C52.3659 7.20535 52.3204 7.25533 52.2896 7.31436C52.2588 7.37339 52.2438 7.43944 52.246 7.50607C52.2455 7.58437 52.2681 7.66105 52.3108 7.72645C52.3536 7.79185 52.4147 7.84305 52.4863 7.87358C52.7257 7.98458 52.9759 8.06988 53.233 8.12807C53.5222 8.1972 53.8061 8.28678 54.0826 8.39613C54.3072 8.48925 54.5059 8.63584 54.6618 8.8233C54.8331 9.04009 54.9228 9.31081 54.9151 9.58768C54.9184 9.85307 54.8389 10.1128 54.6878 10.3304C54.5227 10.56 54.2966 10.7381 54.0355 10.8443C53.7213 10.974 53.3839 11.0371 53.0444 11.0297C52.6842 11.0356 52.327 10.9635 51.9971 10.8181" fill="#AB2346"/>
<path d="M57.7245 6.30643C58.0117 6.15577 58.3319 6.08008 58.6558 6.08629C59.0443 6.08139 59.4263 6.18598 59.7588 6.38825C60.0934 6.59603 60.3639 6.89341 60.5401 7.24711C60.7383 7.6477 60.837 8.09071 60.8276 8.53811C60.8364 8.9882 60.7378 9.43385 60.5401 9.8377C60.3645 10.1965 60.0942 10.4997 59.7588 10.7142C59.4283 10.9219 59.0455 11.0298 58.6558 11.0252C58.3352 11.0319 58.0181 10.9576 57.7334 10.8091C57.4812 10.6773 57.2603 10.4922 57.0856 10.2667V13.2284H55.8837V6.16404H57.0856V6.85475C57.2534 6.62441 57.4718 6.43665 57.7245 6.30643ZM59.4241 7.79136C59.3169 7.59145 59.1565 7.42554 58.9609 7.3122C58.7714 7.20339 58.5568 7.14678 58.3386 7.14811C58.1227 7.14761 57.9106 7.20587 57.7249 7.31672C57.5289 7.43346 57.3687 7.6022 57.2617 7.80446C57.146 8.03779 57.0857 8.29498 57.0857 8.55574C57.0857 8.81651 57.146 9.0737 57.2617 9.30702C57.3687 9.50924 57.529 9.67797 57.7249 9.79476C57.9124 9.90553 58.1261 9.96355 58.3435 9.96276C58.5609 9.96196 58.7742 9.90238 58.9609 9.79024C59.1564 9.67099 59.3164 9.50095 59.4241 9.29798C59.5464 9.06402 59.6071 8.80239 59.6002 8.53811C59.6068 8.2779 59.5461 8.02087 59.4241 7.79136Z" fill="#AB2346"/>
<path d="M66.0714 8.91886H62.5953C62.6055 9.22676 62.7344 9.51858 62.9547 9.73252C63.1672 9.9288 63.4473 10.0342 63.7356 10.0263C63.934 10.0382 64.1312 9.9892 64.3013 9.8858C64.4714 9.78241 64.6063 9.62949 64.6881 9.44728H65.9842C65.851 9.9023 65.5739 10.3011 65.1948 10.5832C64.7797 10.888 64.2753 11.0444 63.7616 11.0276C63.3317 11.0345 62.9073 10.9289 62.5302 10.7211C62.17 10.52 61.875 10.2187 61.6806 9.85321C61.4716 9.45448 61.3667 9.00883 61.376 8.55814C61.366 8.10497 61.4694 7.65655 61.6765 7.25402C61.8671 6.88981 62.1595 6.58968 62.5176 6.39065C62.8975 6.19348 63.3185 6.08989 63.746 6.0884C64.1735 6.0869 64.5952 6.18755 64.9765 6.38205C65.3286 6.57242 65.6179 6.86193 65.809 7.21515C66.0115 7.59601 66.1134 8.02278 66.1051 8.45462C66.1063 8.61065 66.0948 8.7665 66.071 8.92067M64.8606 8.10701C64.8631 7.96538 64.8344 7.82496 64.7765 7.69583C64.7187 7.56671 64.6331 7.4521 64.5259 7.36025C64.3032 7.17123 64.0192 7.0713 63.728 7.07954C63.4525 7.0711 63.1841 7.16801 62.9768 7.35076C62.7651 7.54846 62.6324 7.81701 62.6034 8.10611L64.8606 8.10701Z" fill="#AB2346"/>
<path d="M67.1023 7.25661C67.2928 6.89522 67.5815 6.59579 67.9348 6.39322C68.307 6.18435 68.7276 6.07859 69.1537 6.08675C69.677 6.06625 70.1921 6.22286 70.6166 6.53155C71.0126 6.84316 71.2875 7.28465 71.3933 7.77915H70.0972C70.0365 7.58316 69.9145 7.4121 69.7494 7.29141C69.5712 7.16882 69.3587 7.10688 69.1429 7.11467C68.9872 7.10823 68.8323 7.1389 68.6906 7.20418C68.549 7.26946 68.4247 7.3675 68.3279 7.49031C68.1314 7.80936 68.0274 8.17725 68.0274 8.55258C68.0274 8.92791 68.1314 9.2958 68.3279 9.61485C68.4247 9.73766 68.549 9.8357 68.6906 9.90098C68.8323 9.96626 68.9872 9.99693 69.1429 9.99049C69.3526 10.0086 69.562 9.9531 69.7357 9.83346C69.9093 9.71381 70.0364 9.53739 70.0954 9.33414H71.3916C71.2784 9.82327 71.0028 10.2589 70.6103 10.5691C70.19 10.8844 69.6753 11.0458 69.1514 11.0265C68.7253 11.0347 68.3047 10.929 67.9326 10.7201C67.5794 10.5174 67.2906 10.218 67.1 9.85669C66.9023 9.45233 66.7996 9.00772 66.7996 8.5571C66.7996 8.10648 66.9023 7.66187 67.1 7.25751" fill="#AB2346"/>
<path d="M73.758 7.15753V9.47193C73.7521 9.53515 73.7594 9.5989 73.7794 9.65914C73.7993 9.71937 73.8315 9.77477 73.8739 9.8218C73.9866 9.90458 74.1255 9.94286 74.2643 9.92938H74.8224V10.9483H74.0671C73.0544 10.9483 72.5481 10.4533 72.5481 9.46334V7.15798H71.9797V6.16351H72.5463V4.98145H73.7562V6.16441H74.8205V7.15888L73.758 7.15753Z" fill="#AB2346"/>
<path d="M77.6135 6.31108C77.8739 6.1641 78.1686 6.08952 78.4671 6.09501V7.36567H78.1495C77.9891 7.33944 77.8248 7.35287 77.6707 7.40478C77.5166 7.4567 77.3773 7.54555 77.265 7.66367C77.1526 7.78179 77.0705 7.92564 77.0257 8.0828C76.9809 8.23997 76.9748 8.40574 77.0079 8.56581V10.9489H75.806V6.16417H77.0079V6.90686C77.1561 6.65981 77.3648 6.45478 77.6135 6.31108Z" fill="#AB2346"/>
<path d="M83.7858 6.16455V10.9484H82.5754V10.344C82.4171 10.5546 82.2093 10.7222 81.9707 10.8318C81.7168 10.9507 81.4397 11.0111 81.1597 11.0085C80.8155 11.0158 80.4752 10.9341 80.1713 10.7712C79.8828 10.6104 79.6482 10.367 79.4974 10.0719C79.3268 9.73097 79.2428 9.3528 79.253 8.97122V6.16455H80.4548V8.79854C80.4338 9.11629 80.5351 9.42999 80.7378 9.67458C80.8373 9.77825 80.9577 9.85926 81.0909 9.91213C81.2242 9.965 81.3671 9.9885 81.5101 9.98106C81.6545 9.98907 81.7989 9.96586 81.9336 9.913C82.0683 9.86013 82.1902 9.77883 82.291 9.67458C82.4938 9.43002 82.5951 9.1163 82.5741 8.79854V6.16455H83.7858Z" fill="#AB2346"/>
<path d="M92.3568 6.63481C92.5428 6.83654 92.6862 7.07408 92.7784 7.3331C92.8706 7.59212 92.9097 7.86725 92.8933 8.14188V10.9481H91.6919V8.30552C91.713 7.9929 91.6112 7.68446 91.4084 7.44666C91.3075 7.34539 91.1867 7.26656 91.0536 7.21524C90.9206 7.16393 90.7783 7.14128 90.6361 7.14877C90.4931 7.1416 90.3503 7.16437 90.2166 7.21565C90.0829 7.26693 89.9612 7.34559 89.8593 7.44666C89.7576 7.56377 89.6798 7.69991 89.6305 7.84728C89.5812 7.99466 89.5612 8.15037 89.5718 8.30552V10.9481H88.3704V8.30552C88.3913 7.993 88.2897 7.68465 88.0873 7.44666C87.9864 7.34542 87.8656 7.2666 87.7326 7.21528C87.5995 7.16397 87.4573 7.14131 87.315 7.14877C87.1707 7.141 87.0265 7.16347 86.8913 7.21475C86.7561 7.26602 86.6329 7.345 86.5297 7.44666C86.428 7.5638 86.3503 7.69994 86.301 7.84731C86.2516 7.99467 86.2317 8.15037 86.2421 8.30552V10.9481H85.0403V6.16424H86.2421V6.74284C86.4001 6.5386 86.6048 6.37577 86.8388 6.26821C87.0901 6.15127 87.3643 6.09227 87.6412 6.09553C87.9876 6.08943 88.3299 6.17104 88.6368 6.33285C88.9242 6.48684 89.16 6.7227 89.3148 7.0109C89.4736 6.73062 89.707 6.5005 89.9887 6.34641C90.3645 6.14144 90.7944 6.05917 91.2188 6.111C91.6432 6.16284 92.0411 6.34621 92.3573 6.63571" fill="#AB2346"/>
</svg>
