<svg width="91" height="17" viewBox="0 0 91 17" fill="none" xmlns="http://www.w3.org/2000/svg">
<path d="M14.9385 2.29335H11.8034C11.7009 2.29581 11.599 2.27762 11.5036 2.23985C11.4082 2.20209 11.3212 2.1455 11.2479 2.07343C11.1745 2.00136 11.1162 1.91526 11.0764 1.82018C11.0366 1.72511 11.0161 1.62299 11.0161 1.51983C11.0161 1.41667 11.0366 1.31455 11.0764 1.21948C11.1162 1.12441 11.1745 1.03831 11.2479 0.966237C11.3212 0.894166 11.4082 0.837582 11.5036 0.799814C11.599 0.762046 11.7009 0.743855 11.8034 0.746313H14.9385C15.041 0.743855 15.143 0.762046 15.2384 0.799814C15.3338 0.837582 15.4208 0.894166 15.4941 0.966237C15.5675 1.03831 15.6258 1.12441 15.6656 1.21948C15.7054 1.31455 15.7259 1.41667 15.7259 1.51983C15.7259 1.62299 15.7054 1.72511 15.6656 1.82018C15.6258 1.91526 15.5675 2.00136 15.4941 2.07343C15.4208 2.1455 15.3338 2.20209 15.2384 2.23985C15.143 2.27762 15.041 2.29581 14.9385 2.29335Z" fill="#AB2346"/>
<path d="M16.4955 4.63759H11.8044C11.7019 4.64005 11.6 4.62186 11.5046 4.58409C11.4092 4.54632 11.3222 4.48974 11.2488 4.41767C11.1755 4.3456 11.1172 4.25949 11.0774 4.16442C11.0376 4.06935 11.0171 3.96723 11.0171 3.86407C11.0171 3.76091 11.0376 3.65879 11.0774 3.56372C11.1172 3.46865 11.1755 3.38255 11.2488 3.31048C11.3222 3.2384 11.4092 3.18182 11.5046 3.14405C11.6 3.10628 11.7019 3.08809 11.8044 3.09055H16.4955C16.598 3.08809 16.6999 3.10628 16.7954 3.14405C16.8908 3.18182 16.9777 3.2384 17.0511 3.31048C17.1244 3.38255 17.1827 3.46865 17.2225 3.56372C17.2623 3.65879 17.2828 3.76091 17.2828 3.86407C17.2828 3.96723 17.2623 4.06935 17.2225 4.16442C17.1827 4.25949 17.1244 4.3456 17.0511 4.41767C16.9777 4.48974 16.8908 4.54632 16.7954 4.58409C16.6999 4.62186 16.598 4.64005 16.4955 4.63759Z" fill="#AB2346"/>
<path d="M18.0404 6.98134H11.8039C11.6032 6.97653 11.4123 6.89292 11.272 6.74838C11.1318 6.60384 11.0532 6.40984 11.0532 6.20782C11.0532 6.0058 11.1318 5.8118 11.272 5.66726C11.4123 5.52273 11.6032 5.43912 11.8039 5.4343H18.0404C18.143 5.43184 18.2449 5.45003 18.3403 5.4878C18.4357 5.52557 18.5227 5.58215 18.5961 5.65422C18.6694 5.7263 18.7277 5.8124 18.7675 5.90747C18.8073 6.00254 18.8278 6.10466 18.8278 6.20782C18.8278 6.31098 18.8073 6.4131 18.7675 6.50817C18.7277 6.60324 18.6694 6.68935 18.5961 6.76142C18.5227 6.83349 18.4357 6.89007 18.3403 6.92784C18.2449 6.96561 18.143 6.9838 18.0404 6.98134Z" fill="#AB2346"/>
<path d="M14.9385 11.6698H11.8034C11.7009 11.6723 11.599 11.6541 11.5036 11.6163C11.4082 11.5786 11.3212 11.522 11.2479 11.4499C11.1745 11.3778 11.1162 11.2917 11.0764 11.1966C11.0366 11.1016 11.0161 10.9995 11.0161 10.8963C11.0161 10.7931 11.0366 10.691 11.0764 10.5959C11.1162 10.5009 11.1745 10.4148 11.2479 10.3427C11.3212 10.2706 11.4082 10.214 11.5036 10.1763C11.599 10.1385 11.7009 10.1203 11.8034 10.1228H14.9385C15.041 10.1203 15.143 10.1385 15.2384 10.1763C15.3338 10.214 15.4208 10.2706 15.4941 10.3427C15.5675 10.4148 15.6258 10.5009 15.6656 10.5959C15.7054 10.691 15.7259 10.7931 15.7259 10.8963C15.7259 10.9995 15.7054 11.1016 15.6656 11.1966C15.6258 11.2917 15.5675 11.3778 15.4941 11.4499C15.4208 11.522 15.3338 11.5786 15.2384 11.6163C15.143 11.6541 15.041 11.6723 14.9385 11.6698Z" fill="#AB2346"/>
<path d="M14.1607 14.0136H11.8025C11.7 14.016 11.5981 13.9978 11.5026 13.9601C11.4072 13.9223 11.3203 13.8657 11.2469 13.7936C11.1736 13.7216 11.1153 13.6355 11.0755 13.5404C11.0357 13.4453 11.0151 13.3432 11.0151 13.24C11.0151 13.1369 11.0357 13.0348 11.0755 12.9397C11.1153 12.8446 11.1736 12.7585 11.2469 12.6865C11.3203 12.6144 11.4072 12.5578 11.5026 12.52C11.5981 12.4823 11.7 12.4641 11.8025 12.4665H14.1607C14.2632 12.4641 14.3651 12.4823 14.4606 12.52C14.556 12.5578 14.6429 12.6144 14.7163 12.6865C14.7896 12.7585 14.8479 12.8446 14.8877 12.9397C14.9275 13.0348 14.948 13.1369 14.948 13.24C14.948 13.3432 14.9275 13.4453 14.8877 13.5404C14.8479 13.6355 14.7896 13.7216 14.7163 13.7936C14.6429 13.8657 14.556 13.9223 14.4606 13.9601C14.3651 13.9978 14.2632 14.016 14.1607 14.0136Z" fill="#AB2346"/>
<path d="M9.49982 2.29335H7.92115C7.81865 2.29581 7.71668 2.27762 7.62127 2.23985C7.52585 2.20209 7.43891 2.1455 7.36555 2.07343C7.29219 2.00136 7.23391 1.91526 7.19411 1.82018C7.15431 1.72511 7.13379 1.62299 7.13379 1.51983C7.13379 1.41667 7.15431 1.31455 7.19411 1.21948C7.23391 1.12441 7.29219 1.03831 7.36555 0.966237C7.43891 0.894166 7.52585 0.837582 7.62127 0.799814C7.71668 0.762046 7.81865 0.743855 7.92115 0.746313H9.49982C9.60233 0.743855 9.7043 0.762046 9.79971 0.799814C9.89512 0.837582 9.98207 0.894166 10.0554 0.966237C10.1288 1.03831 10.1871 1.12441 10.2269 1.21948C10.2667 1.31455 10.2872 1.41667 10.2872 1.51983C10.2872 1.62299 10.2667 1.72511 10.2269 1.82018C10.1871 1.91526 10.1288 2.00136 10.0554 2.07343C9.98207 2.1455 9.89512 2.20209 9.79971 2.23985C9.7043 2.27762 9.60233 2.29581 9.49982 2.29335Z" fill="#82AEC9"/>
<path d="M9.49967 4.63759H6.3777C6.27519 4.64005 6.17325 4.62186 6.07784 4.58409C5.98242 4.54632 5.89548 4.48974 5.82212 4.41767C5.74876 4.3456 5.69045 4.25949 5.65065 4.16442C5.61085 4.06935 5.59033 3.96723 5.59033 3.86407C5.59033 3.76091 5.61085 3.65879 5.65065 3.56372C5.69045 3.46865 5.74876 3.38255 5.82212 3.31048C5.89548 3.2384 5.98242 3.18182 6.07784 3.14405C6.17325 3.10628 6.27519 3.08809 6.3777 3.09055H9.49967C9.60217 3.08809 9.70414 3.10628 9.79955 3.14405C9.89497 3.18182 9.98191 3.2384 10.0553 3.31048C10.1286 3.38255 10.1869 3.46865 10.2267 3.56372C10.2665 3.65879 10.287 3.76091 10.287 3.86407C10.287 3.96723 10.2665 4.06935 10.2267 4.16442C10.1869 4.25949 10.1286 4.3456 10.0553 4.41767C9.98191 4.48974 9.89497 4.54632 9.79955 4.58409C9.70414 4.62186 9.60217 4.64005 9.49967 4.63759Z" fill="#82AEC9"/>
<path d="M9.4988 6.98134H4.8318C4.72929 6.9838 4.62733 6.96561 4.53191 6.92784C4.4365 6.89007 4.34955 6.83349 4.27619 6.76142C4.20283 6.68935 4.14453 6.60324 4.10473 6.50817C4.06492 6.4131 4.04443 6.31098 4.04443 6.20782C4.04443 6.10466 4.06492 6.00254 4.10473 5.90747C4.14453 5.8124 4.20283 5.7263 4.27619 5.65422C4.34955 5.58215 4.4365 5.52557 4.53191 5.4878C4.62733 5.45003 4.72929 5.43184 4.8318 5.4343H9.4988C9.60131 5.43184 9.70328 5.45003 9.79869 5.4878C9.8941 5.52557 9.98105 5.58215 10.0544 5.65422C10.1278 5.7263 10.1861 5.8124 10.2259 5.90747C10.2657 6.00254 10.2862 6.10466 10.2862 6.20782C10.2862 6.31098 10.2657 6.4131 10.2259 6.50817C10.1861 6.60324 10.1278 6.68935 10.0544 6.76142C9.98105 6.83349 9.8941 6.89007 9.79869 6.92784C9.70328 6.96561 9.60131 6.9838 9.4988 6.98134Z" fill="#82AEC9"/>
<path d="M9.4994 9.32558H3.27027C3.16777 9.32804 3.06583 9.30984 2.97041 9.27208C2.875 9.23431 2.78805 9.17773 2.71469 9.10566C2.64133 9.03358 2.58303 8.94748 2.54323 8.85241C2.50343 8.75734 2.48291 8.65522 2.48291 8.55206C2.48291 8.4489 2.50343 8.34678 2.54323 8.25171C2.58303 8.15664 2.64133 8.07053 2.71469 7.99846C2.78805 7.92639 2.875 7.86981 2.97041 7.83204C3.06583 7.79427 3.16777 7.77608 3.27027 7.77854H9.4994C9.6019 7.77608 9.70385 7.79427 9.79926 7.83204C9.89467 7.86981 9.98162 7.92639 10.055 7.99846C10.1283 8.07053 10.1866 8.15664 10.2264 8.25171C10.2662 8.34678 10.2867 8.4489 10.2867 8.55206C10.2867 8.65522 10.2662 8.75734 10.2264 8.85241C10.1866 8.94748 10.1283 9.03358 10.055 9.10566C9.98162 9.17773 9.89467 9.23431 9.79926 9.27208C9.70385 9.30984 9.6019 9.32804 9.4994 9.32558Z" fill="#82AEC9"/>
<path d="M19.597 9.32558H11.8045C11.7019 9.32804 11.6 9.30984 11.5046 9.27208C11.4092 9.23431 11.3222 9.17773 11.2488 9.10566C11.1755 9.03358 11.1172 8.94748 11.0774 8.85241C11.0376 8.75734 11.0171 8.65522 11.0171 8.55206C11.0171 8.4489 11.0376 8.34678 11.0774 8.25171C11.1172 8.15664 11.1755 8.07053 11.2488 7.99846C11.3222 7.92639 11.4092 7.86981 11.5046 7.83204C11.6 7.79427 11.7019 7.77608 11.8045 7.77854H19.597C19.6995 7.77608 19.8014 7.79427 19.8968 7.83204C19.9922 7.86981 20.0792 7.92639 20.1525 7.99846C20.2259 8.07053 20.2842 8.15664 20.324 8.25171C20.3638 8.34678 20.3843 8.4489 20.3843 8.55206C20.3843 8.65522 20.3638 8.75734 20.324 8.85241C20.2842 8.94748 20.2259 9.03358 20.1525 9.10566C20.0792 9.17773 19.9922 9.23431 19.8968 9.27208C19.8014 9.30984 19.6995 9.32804 19.597 9.32558Z" fill="#82AEC9"/>
<path d="M9.49962 11.6693H4.82691C4.72441 11.6718 4.62247 11.6536 4.52706 11.6158C4.43164 11.5781 4.3447 11.5215 4.27134 11.4494C4.19797 11.3773 4.13967 11.2912 4.09987 11.1962C4.06007 11.1011 4.03955 10.999 4.03955 10.8958C4.03955 10.7926 4.06007 10.6905 4.09987 10.5955C4.13967 10.5004 4.19797 10.4143 4.27134 10.3422C4.3447 10.2701 4.43164 10.2136 4.52706 10.1758C4.62247 10.138 4.72441 10.1198 4.82691 10.1223H9.49962C9.60213 10.1198 9.7041 10.138 9.79951 10.1758C9.89492 10.2136 9.98184 10.2701 10.0552 10.3422C10.1286 10.4143 10.1869 10.5004 10.2267 10.5955C10.2665 10.6905 10.287 10.7926 10.287 10.8958C10.287 10.999 10.2665 11.1011 10.2267 11.1962C10.1869 11.2912 10.1286 11.3773 10.0552 11.4494C9.98184 11.5215 9.89492 11.5781 9.79951 11.6158C9.7041 11.6536 9.60213 11.6718 9.49962 11.6693Z" fill="#82AEC9"/>
<path d="M19.5971 11.6693H17.2419C17.0412 11.6645 16.8503 11.5809 16.71 11.4364C16.5697 11.2918 16.4912 11.0978 16.4912 10.8958C16.4912 10.6938 16.5697 10.4998 16.71 10.3553C16.8503 10.2107 17.0412 10.1271 17.2419 10.1223H19.5971C19.6996 10.1198 19.8015 10.138 19.8969 10.1758C19.9924 10.2136 20.0793 10.2701 20.1527 10.3422C20.226 10.4143 20.2843 10.5004 20.3241 10.5955C20.3639 10.6905 20.3844 10.7926 20.3844 10.8958C20.3844 10.999 20.3639 11.1011 20.3241 11.1962C20.2843 11.2912 20.226 11.3773 20.1527 11.4494C20.0793 11.5215 19.9924 11.5781 19.8969 11.6158C19.8015 11.6536 19.6996 11.6718 19.5971 11.6693Z" fill="#82AEC9"/>
<path d="M9.49903 14.0136H6.37184C6.26933 14.016 6.16736 13.9978 6.07195 13.9601C5.97654 13.9223 5.88959 13.8657 5.81623 13.7936C5.74287 13.7216 5.68457 13.6355 5.64476 13.5404C5.60496 13.4453 5.58447 13.3432 5.58447 13.24C5.58447 13.1369 5.60496 13.0348 5.64476 12.9397C5.68457 12.8446 5.74287 12.7585 5.81623 12.6865C5.88959 12.6144 5.97654 12.5578 6.07195 12.52C6.16736 12.4823 6.26933 12.4641 6.37184 12.4665H9.49903C9.60154 12.4641 9.7035 12.4823 9.79892 12.52C9.89433 12.5578 9.98128 12.6144 10.0546 12.6865C10.128 12.7585 10.1863 12.8446 10.2261 12.9397C10.2659 13.0348 10.2864 13.1369 10.2864 13.24C10.2864 13.3432 10.2659 13.4453 10.2261 13.5404C10.1863 13.6355 10.128 13.7216 10.0546 13.7936C9.98128 13.8657 9.89433 13.9223 9.79892 13.9601C9.7035 13.9978 9.60154 14.016 9.49903 14.0136Z" fill="#82AEC9"/>
<path d="M19.7411 14.0136H16.4763C16.2756 14.0088 16.0847 13.9251 15.9444 13.7806C15.8041 13.6361 15.7256 13.4421 15.7256 13.24C15.7256 13.038 15.8041 12.844 15.9444 12.6995C16.0847 12.555 16.2756 12.4713 16.4763 12.4665H19.7411C19.8436 12.4641 19.9455 12.4823 20.0409 12.52C20.1364 12.5578 20.2233 12.6144 20.2967 12.6865C20.37 12.7585 20.4283 12.8446 20.4681 12.9397C20.5079 13.0348 20.5284 13.1369 20.5284 13.24C20.5284 13.3432 20.5079 13.4453 20.4681 13.5404C20.4283 13.6355 20.37 13.7216 20.2967 13.7936C20.2233 13.8657 20.1364 13.9223 20.0409 13.9601C19.9455 13.9978 19.8436 14.016 19.7411 14.0136Z" fill="#82AEC9"/>
<path d="M9.49982 16.3578H7.92115C7.81865 16.3603 7.71668 16.3421 7.62127 16.3043C7.52585 16.2665 7.43891 16.21 7.36555 16.1379C7.29219 16.0658 7.23391 15.9797 7.19411 15.8846C7.15431 15.7896 7.13379 15.6874 7.13379 15.5843C7.13379 15.4811 7.15431 15.379 7.19411 15.2839C7.23391 15.1889 7.29219 15.1028 7.36555 15.0307C7.43891 14.9586 7.52585 14.902 7.62127 14.8643C7.71668 14.8265 7.81865 14.8083 7.92115 14.8108H9.49982C9.60233 14.8083 9.7043 14.8265 9.79971 14.8643C9.89512 14.902 9.98207 14.9586 10.0554 15.0307C10.1288 15.1028 10.1871 15.1889 10.2269 15.2839C10.2667 15.379 10.2872 15.4811 10.2872 15.5843C10.2872 15.6874 10.2667 15.7896 10.2269 15.8846C10.1871 15.9797 10.1288 16.0658 10.0554 16.1379C9.98207 16.21 9.89512 16.2665 9.79971 16.3043C9.7043 16.3421 9.60233 16.3603 9.49982 16.3578Z" fill="#82AEC9"/>
<path d="M14.9385 16.3578H11.8034C11.7009 16.3603 11.599 16.3421 11.5036 16.3043C11.4082 16.2665 11.3212 16.21 11.2479 16.1379C11.1745 16.0658 11.1162 15.9797 11.0764 15.8846C11.0366 15.7896 11.0161 15.6874 11.0161 15.5843C11.0161 15.4811 11.0366 15.379 11.0764 15.2839C11.1162 15.1889 11.1745 15.1028 11.2479 15.0307C11.3212 14.9586 11.4082 14.902 11.5036 14.8643C11.599 14.8265 11.7009 14.8083 11.8034 14.8108H14.9385C15.041 14.8083 15.143 14.8265 15.2384 14.8643C15.3338 14.902 15.4208 14.9586 15.4941 15.0307C15.5675 15.1028 15.6258 15.1889 15.6656 15.2839C15.7054 15.379 15.7259 15.4811 15.7259 15.5843C15.7259 15.6874 15.7054 15.7896 15.6656 15.8846C15.6258 15.9797 15.5675 16.0658 15.4941 16.1379C15.4208 16.21 15.3338 16.2665 15.2384 16.3043C15.143 16.3421 15.041 16.3603 14.9385 16.3578Z" fill="#82AEC9"/>
<path d="M6.40716 2.11C6.40716 2.22688 6.37271 2.34114 6.30817 2.43832C6.24363 2.5355 6.15188 2.61125 6.04456 2.65598C5.93723 2.70071 5.81914 2.71241 5.7052 2.68961C5.59126 2.6668 5.4866 2.61052 5.40446 2.52787C5.32232 2.44523 5.26637 2.33993 5.24371 2.22529C5.22104 2.11066 5.23268 1.99184 5.27713 1.88385C5.32159 1.77587 5.39687 1.68357 5.49346 1.61864C5.59005 1.5537 5.70361 1.51904 5.81978 1.51904C5.97556 1.51904 6.12496 1.58131 6.23511 1.69213C6.34526 1.80296 6.40716 1.95327 6.40716 2.11Z" fill="#1D365A"/>
<path d="M6.3847 15.3829C6.3847 15.4998 6.35025 15.6141 6.28571 15.7113C6.22117 15.8085 6.12942 15.8842 6.0221 15.9289C5.91477 15.9737 5.79667 15.9854 5.68274 15.9626C5.5688 15.9398 5.46414 15.8835 5.382 15.8008C5.29985 15.7182 5.24391 15.6129 5.22125 15.4982C5.19858 15.3836 5.21022 15.2648 5.25467 15.1568C5.29913 15.0488 5.37443 14.9565 5.47102 14.8916C5.56761 14.8266 5.68115 14.792 5.79732 14.792C5.9531 14.792 6.10252 14.8543 6.21267 14.9651C6.32283 15.0759 6.3847 15.2262 6.3847 15.3829Z" fill="#1D365A"/>
<path d="M4.44027 4.63751H3.66381C3.56183 4.63751 3.46402 4.59675 3.39191 4.5242C3.3198 4.45165 3.2793 4.35325 3.2793 4.25064C3.2793 4.14804 3.3198 4.04963 3.39191 3.97708C3.46402 3.90453 3.56183 3.86377 3.66381 3.86377H4.44027C4.54225 3.86377 4.64006 3.90453 4.71217 3.97708C4.78428 4.04963 4.82478 4.14804 4.82478 4.25064C4.82478 4.35325 4.78428 4.45165 4.71217 4.5242C4.64006 4.59675 4.54225 4.63751 4.44027 4.63751Z" fill="#1D365A"/>
<path d="M2.88493 6.98175H1.33422C1.23224 6.98175 1.13443 6.94099 1.06232 6.86844C0.99021 6.79589 0.949707 6.69748 0.949707 6.59488C0.949707 6.49227 0.99021 6.39387 1.06232 6.32132C1.13443 6.24877 1.23224 6.20801 1.33422 6.20801H2.88493C2.98691 6.20801 3.08472 6.24877 3.15683 6.32132C3.22894 6.39387 3.26947 6.49227 3.26947 6.59488C3.26947 6.69748 3.22894 6.79589 3.15683 6.86844C3.08472 6.94099 2.98691 6.98175 2.88493 6.98175Z" fill="#1D365A"/>
<path d="M2.89508 10.8792H0.566153C0.464173 10.8792 0.366392 10.8384 0.294281 10.7659C0.22217 10.6933 0.181641 10.5949 0.181641 10.4923C0.181641 10.3897 0.22217 10.2913 0.294281 10.2188C0.366392 10.1462 0.464173 10.1055 0.566153 10.1055H2.89508C2.99706 10.1055 3.09487 10.1462 3.16698 10.2188C3.23909 10.2913 3.2796 10.3897 3.2796 10.4923C3.2796 10.5949 3.23909 10.6933 3.16698 10.7659C3.09487 10.8384 2.99706 10.8792 2.89508 10.8792Z" fill="#1D365A"/>
<path d="M4.44376 13.2156H3.66381C3.56183 13.2156 3.46402 13.1749 3.39191 13.1023C3.3198 13.0298 3.2793 12.9314 3.2793 12.8288C3.2793 12.7262 3.3198 12.6278 3.39191 12.5552C3.46402 12.4827 3.56183 12.4419 3.66381 12.4419H4.44376C4.54574 12.4419 4.64355 12.4827 4.71566 12.5552C4.78777 12.6278 4.82828 12.7262 4.82828 12.8288C4.82828 12.9314 4.78777 13.0298 4.71566 13.1023C4.64355 13.1749 4.54574 13.2156 4.44376 13.2156Z" fill="#1D365A"/>
<path d="M28.5777 8.04009C28.7865 8.30139 28.8986 8.62754 28.8948 8.96278C28.9007 9.25494 28.8209 9.54238 28.6655 9.78924C28.5024 10.0356 28.2721 10.2294 28.0022 10.3472C27.6788 10.4884 27.3288 10.5571 26.9764 10.5485H24.4653V4.69117H26.8672C27.2175 4.68259 27.5657 4.74831 27.8891 4.88406C28.1537 4.99501 28.38 5.1819 28.5398 5.42142C28.6881 5.65415 28.765 5.92573 28.7607 6.20219C28.7715 6.51053 28.6758 6.81311 28.49 7.05853C28.3045 7.29111 28.0528 7.461 27.7685 7.54535C28.0901 7.60299 28.3787 7.77944 28.5777 8.04009ZM25.6326 7.10861H26.7008C26.9302 7.12364 27.1575 7.05673 27.3428 6.91968C27.419 6.85286 27.479 6.7693 27.5181 6.67544C27.5572 6.58158 27.5743 6.47994 27.5681 6.37838C27.574 6.27619 27.5568 6.17399 27.5178 6.07947C27.4787 5.98494 27.4189 5.90056 27.3428 5.83267C27.1588 5.6928 26.9309 5.62419 26.7008 5.63935H25.6326V7.10861ZM27.472 9.39337C27.5523 9.32272 27.6155 9.23451 27.6567 9.1355C27.6978 9.03649 27.716 8.92931 27.7096 8.82218C27.7152 8.7109 27.6956 8.59979 27.6522 8.49726C27.6089 8.39473 27.5429 8.30346 27.4594 8.23034C27.2672 8.07931 27.0272 8.00331 26.7838 8.01636H25.6326V9.59416H26.8091C27.047 9.60879 27.2822 9.53742 27.4725 9.39293" fill="#AB2346"/>
<path d="M31.5743 6.04281C31.8275 5.89997 32.1139 5.82748 32.4041 5.83279V7.06787H32.0953C31.9394 7.04249 31.7797 7.05562 31.63 7.10611C31.4803 7.15661 31.345 7.24298 31.2358 7.35776C31.1266 7.47255 31.0468 7.61232 31.0032 7.76503C30.9597 7.91775 30.9536 8.07883 30.9857 8.23441V10.5508H29.8184V5.90002H30.9843V6.62191C31.1285 6.38184 31.3309 6.18257 31.5726 6.04281" fill="#AB2346"/>
<path d="M34.13 10.3267C33.7769 10.131 33.4861 9.83847 33.2916 9.48314C33.0826 9.09742 32.9772 8.66354 32.9859 8.22434C32.9769 7.78407 33.0848 7.34937 33.2986 6.96509C33.4994 6.60883 33.7957 6.31652 34.1536 6.12149C34.5272 5.92587 34.9421 5.82373 35.3633 5.82373C35.7844 5.82373 36.1994 5.92587 36.5729 6.12149C36.9309 6.31656 37.2271 6.60886 37.428 6.96509C37.6419 7.34932 37.75 7.78403 37.7411 8.22434C37.7501 8.66552 37.6391 9.10077 37.4201 9.48314C37.2136 9.83932 36.9133 10.1312 36.5524 10.3267C36.1764 10.5283 35.7557 10.6308 35.3296 10.6246C34.9104 10.6311 34.4966 10.5285 34.1283 10.3267M35.9262 9.44536C36.1169 9.33717 36.272 9.17529 36.3725 8.97962C36.4898 8.74577 36.5471 8.48615 36.5393 8.22434C36.5514 8.0398 36.5271 7.85468 36.4677 7.67965C36.4083 7.50463 36.3151 7.34315 36.1935 7.20455C36.0846 7.0893 35.9531 6.99811 35.8073 6.93676C35.6615 6.87541 35.5047 6.84526 35.3467 6.84821C35.1899 6.84476 35.0341 6.87473 34.8896 6.93614C34.7451 6.99755 34.6151 7.08902 34.5082 7.20455C34.2672 7.48687 34.1459 7.853 34.1702 8.22434C34.1458 8.59426 34.2639 8.95943 34.4999 9.24412C34.6047 9.36002 34.733 9.45187 34.8762 9.51343C35.0193 9.57499 35.174 9.60482 35.3296 9.6009C35.5384 9.60157 35.7439 9.54772 35.9262 9.44536Z" fill="#AB2346"/>
<path d="M38.6252 6.95786C38.7953 6.61216 39.0585 6.3214 39.3846 6.11865C39.7077 5.92187 40.0791 5.82005 40.4568 5.82471C40.7712 5.81753 41.0824 5.88973 41.362 6.03473C41.6057 6.16166 41.818 6.34181 41.9834 6.56198V5.90028H43.1599V10.5511H41.9834V9.87047C41.8224 10.0984 41.6093 10.284 41.362 10.4118C41.0801 10.5588 40.766 10.6324 40.4484 10.6258C40.0724 10.6295 39.7032 10.5246 39.3846 10.3235C39.0585 10.1151 38.7957 9.82033 38.6252 9.47152C38.433 9.079 38.3372 8.64581 38.3457 8.20832C38.3375 7.77479 38.4333 7.3461 38.6252 6.95786ZM41.8162 7.49038C41.7127 7.2944 41.5565 7.13165 41.3655 7.02068C41.1805 6.91255 40.9703 6.85598 40.7563 6.8568C40.5415 6.85443 40.3301 6.91149 40.1453 7.02175C39.9604 7.13201 39.8093 7.29123 39.7083 7.48203C39.5897 7.70513 39.5307 7.95539 39.5371 8.20832C39.5313 8.46384 39.5902 8.71664 39.7083 8.94295C39.812 9.14231 39.9678 9.30942 40.1589 9.42626C40.3386 9.53637 40.545 9.59445 40.7554 9.5941C40.9693 9.59499 41.1796 9.53858 41.3646 9.43066C41.5556 9.31946 41.7118 9.15658 41.8153 8.96053C41.925 8.73144 41.982 8.48041 41.982 8.22611C41.982 7.97181 41.925 7.72078 41.8153 7.49169" fill="#AB2346"/>
<path d="M44.2469 6.95705C44.4153 6.61226 44.6776 6.3227 45.0032 6.12209C45.3289 5.92148 45.7045 5.81807 46.0863 5.82391C46.3839 5.82334 46.6777 5.89079 46.9457 6.02119C47.2021 6.13966 47.4256 6.31983 47.5964 6.5458V4.33838H48.7811V10.5494H47.5964V9.86132C47.4454 10.0967 47.2354 10.2878 46.9876 10.4154C46.7065 10.56 46.3941 10.6322 46.0784 10.6254C45.7012 10.6288 45.3308 10.5239 45.0107 10.3231C44.6827 10.1157 44.4185 9.82077 44.2473 9.47116C44.0551 9.07865 43.9592 8.64545 43.9678 8.20795C43.9595 7.77443 44.0554 7.34529 44.2473 6.95705M47.4383 7.49002C47.3349 7.2941 47.1789 7.13135 46.9881 7.02033C46.8032 6.91227 46.5931 6.8557 46.3793 6.85644C46.1644 6.85407 45.9531 6.91113 45.7682 7.02139C45.5834 7.13165 45.4322 7.29086 45.3312 7.48167C45.2126 7.70477 45.1536 7.95503 45.16 8.20795C45.1542 8.46347 45.2132 8.71627 45.3312 8.94259C45.4349 9.14196 45.5907 9.30906 45.7819 9.4259C45.9616 9.53603 46.168 9.59412 46.3784 9.59375C46.5921 9.59455 46.8023 9.53814 46.9872 9.4303C47.178 9.31904 47.334 9.15616 47.4374 8.96017C47.5473 8.73112 47.6043 8.48007 47.6043 8.22575C47.6043 7.97143 47.5473 7.72038 47.4374 7.49133" fill="#AB2346"/>
<path d="M50.6298 10.418C50.3488 10.2959 50.1033 10.1037 49.9167 9.85957C49.7452 9.63436 49.6449 9.36249 49.6289 9.07924H50.8054C50.8161 9.16755 50.845 9.25266 50.8901 9.32919C50.9352 9.40572 50.9956 9.47202 51.0674 9.52389C51.2328 9.64527 51.434 9.70717 51.6386 9.69964C51.8221 9.71033 52.0043 9.66335 52.16 9.56519C52.2176 9.52846 52.2651 9.47765 52.2979 9.41749C52.3308 9.35733 52.3479 9.28979 52.3478 9.22116C52.3482 9.1478 52.3265 9.07604 52.2856 9.01533C52.2447 8.95462 52.1864 8.90781 52.1185 8.88108C51.883 8.77678 51.6386 8.69385 51.3884 8.63328C51.1003 8.56707 50.8173 8.48014 50.5416 8.37316C50.3223 8.28398 50.1275 8.14291 49.9739 7.96191C49.8065 7.75057 49.722 7.48481 49.7363 7.21497C49.7351 6.96316 49.8124 6.71731 49.9573 6.51197C50.1182 6.28828 50.3378 6.11397 50.5914 6.00845C50.8989 5.87881 51.2301 5.81578 51.5635 5.82347C52.0381 5.79876 52.5058 5.94625 52.8815 6.23912C53.0446 6.37745 53.1771 6.5486 53.2705 6.74157C53.3639 6.93453 53.4162 7.14503 53.4238 7.35953H52.3059C52.3004 7.27421 52.2772 7.191 52.2377 7.1153C52.1982 7.0396 52.1433 6.97311 52.0766 6.92015C51.9232 6.82207 51.7468 6.76637 51.5652 6.75866C51.3836 6.75094 51.2031 6.79149 51.0421 6.87621C50.9879 6.91124 50.9436 6.95982 50.9137 7.0172C50.8838 7.07457 50.8692 7.13878 50.8713 7.20355C50.8708 7.27965 50.8928 7.35418 50.9344 7.41775C50.976 7.48132 51.0353 7.53108 51.105 7.56076C51.3376 7.66865 51.5809 7.75157 51.8308 7.80813C52.1118 7.87532 52.3877 7.96239 52.6566 8.06868C52.8748 8.15919 53.068 8.30167 53.2195 8.48389C53.386 8.69461 53.4732 8.95775 53.4657 9.22687C53.4689 9.48482 53.3916 9.73728 53.2448 9.94876C53.0843 10.1719 52.8645 10.3451 52.6107 10.4483C52.3053 10.5743 51.9774 10.6357 51.6473 10.6285C51.2973 10.6342 50.9501 10.5641 50.6294 10.4228" fill="#AB2346"/>
<path d="M56.1969 6.03805C56.4761 5.89161 56.7874 5.81804 57.1022 5.82407C57.4798 5.81931 57.8511 5.92098 58.1743 6.11758C58.4995 6.31954 58.7625 6.6086 58.9337 6.95239C59.1264 7.34176 59.2223 7.77237 59.2132 8.20724C59.2217 8.64473 59.1258 9.0779 58.9337 9.47045C58.763 9.81915 58.5003 10.1139 58.1743 10.3224C57.853 10.5243 57.4809 10.6292 57.1022 10.6247C56.7906 10.6312 56.4823 10.559 56.2056 10.4147C55.9605 10.2865 55.7457 10.1067 55.5759 9.88741V12.7662H54.4077V5.89965H55.5759V6.57101C55.739 6.34712 55.9514 6.16462 56.1969 6.03805ZM57.8489 7.4814C57.7448 7.28709 57.5888 7.12582 57.3987 7.01566C57.2145 6.90989 57.0059 6.85487 56.7939 6.85617C56.584 6.85567 56.3778 6.9123 56.1973 7.02005C56.0069 7.13352 55.8511 7.29754 55.7471 7.49414C55.6346 7.72093 55.576 7.97092 55.576 8.22438C55.576 8.47784 55.6346 8.72783 55.7471 8.95462C55.8511 9.15118 56.0069 9.31519 56.1973 9.42871C56.3796 9.53637 56.5873 9.59277 56.7986 9.592C57.01 9.59122 57.2172 9.53331 57.3987 9.42431C57.5888 9.3084 57.7443 9.14312 57.8489 8.94583C57.9679 8.71843 58.0268 8.46412 58.0201 8.20724C58.0266 7.95432 57.9676 7.70448 57.8489 7.4814Z" fill="#AB2346"/>
<path d="M64.3093 8.57691H60.9305C60.9404 8.87619 61.0657 9.15983 61.2798 9.36778C61.4864 9.55857 61.7586 9.661 62.0388 9.65338C62.2316 9.66492 62.4234 9.61728 62.5887 9.51678C62.754 9.41628 62.8851 9.26764 62.9646 9.09054H64.2245C64.095 9.53281 63.8256 9.92049 63.4572 10.1947C63.0537 10.4909 62.5634 10.643 62.0641 10.6266C61.6462 10.6333 61.2338 10.5307 60.8672 10.3287C60.517 10.1332 60.2303 9.84031 60.0414 9.4851C59.8382 9.09753 59.7363 8.66436 59.7453 8.22629C59.7356 7.78581 59.8361 7.34995 60.0374 6.95869C60.2227 6.60468 60.5069 6.31295 60.8549 6.11949C61.2242 5.92784 61.6334 5.82715 62.049 5.8257C62.4645 5.82425 62.8744 5.92208 63.245 6.11114C63.5872 6.29617 63.8684 6.57758 64.0542 6.92091C64.251 7.2911 64.3501 7.70592 64.342 8.12567C64.3431 8.27733 64.332 8.42882 64.3088 8.57867M63.1323 7.78779C63.1348 7.65013 63.1069 7.51364 63.0506 7.38813C62.9944 7.26262 62.9112 7.15122 62.807 7.06194C62.5906 6.87821 62.3145 6.78108 62.0314 6.78909C61.7636 6.78088 61.5027 6.87509 61.3013 7.05272C61.0955 7.24489 60.9665 7.50591 60.9383 7.78691L63.1323 7.78779Z" fill="#AB2346"/>
<path d="M65.3118 6.9611C65.497 6.60984 65.7776 6.31879 66.121 6.1219C66.4828 5.91887 66.8916 5.81607 67.3058 5.824C67.8145 5.80408 68.3151 5.9563 68.7277 6.25635C69.1127 6.55923 69.3798 6.98836 69.4827 7.46902H68.2229C68.1639 7.27851 68.0453 7.11224 67.8848 6.99493C67.7116 6.87577 67.505 6.81557 67.2953 6.82314C67.144 6.81688 66.9934 6.8467 66.8557 6.91015C66.718 6.9736 66.5972 7.0689 66.5031 7.18826C66.3121 7.49838 66.211 7.85597 66.211 8.22079C66.211 8.58561 66.3121 8.9432 66.5031 9.25332C66.5972 9.37269 66.718 9.46798 66.8557 9.53143C66.9934 9.59489 67.144 9.6247 67.2953 9.61844C67.4991 9.63603 67.7027 9.5821 67.8715 9.46581C68.0402 9.34951 68.1638 9.17802 68.2211 8.98047H69.481C69.371 9.4559 69.1031 9.87936 68.7216 10.1808C68.3131 10.4873 67.8128 10.6442 67.3036 10.6255C66.8894 10.6334 66.4806 10.5306 66.1188 10.3276C65.7756 10.1306 65.4949 9.83959 65.3096 9.48839C65.1175 9.09535 65.0176 8.66319 65.0176 8.22519C65.0176 7.78718 65.1175 7.35502 65.3096 6.96198" fill="#AB2346"/>
<path d="M71.7812 6.86515V9.11475C71.7755 9.1762 71.7826 9.23817 71.802 9.29672C71.8214 9.35527 71.8527 9.40911 71.8939 9.45483C72.0034 9.53529 72.1384 9.5725 72.2734 9.5594H72.8158V10.5498H72.0816C71.0973 10.5498 70.6052 10.0686 70.6052 9.1064V6.86559H70.0527V5.89897H70.6034V4.75H71.7795V5.89985H72.814V6.86647L71.7812 6.86515Z" fill="#AB2346"/>
<path d="M75.5288 6.04233C75.782 5.89946 76.0684 5.82697 76.3586 5.83231V7.06739H76.0498C75.8939 7.0419 75.7342 7.05495 75.5844 7.10541C75.4346 7.15587 75.2993 7.24223 75.1901 7.35704C75.0809 7.47186 75.001 7.61167 74.9575 7.76444C74.914 7.9172 74.908 8.07833 74.9402 8.23393V10.5503H73.772V5.89953H74.9402V6.62142C75.0842 6.38129 75.2871 6.182 75.5288 6.04233Z" fill="#AB2346"/>
<path d="M81.5278 5.8999V10.5498H80.3513V9.96236C80.1975 10.167 79.9955 10.3299 79.7635 10.4364C79.5167 10.552 79.2474 10.6107 78.9753 10.6082C78.6407 10.6153 78.3099 10.5359 78.0145 10.3776C77.7341 10.2213 77.5061 9.9847 77.3595 9.69786C77.1936 9.36646 77.112 8.99888 77.1219 8.62798V5.8999H78.2901V8.46014C78.2696 8.76899 78.3682 9.07391 78.5652 9.31165C78.6619 9.41242 78.7789 9.49116 78.9084 9.54255C79.0379 9.59394 79.1769 9.61679 79.3159 9.60954C79.4562 9.61733 79.5965 9.59478 79.7275 9.54339C79.8584 9.492 79.9769 9.41298 80.0749 9.31165C80.2719 9.07393 80.3705 8.769 80.35 8.46014V5.8999H81.5278Z" fill="#AB2346"/>
<path d="M89.8593 6.35749C90.04 6.55357 90.1794 6.78447 90.269 7.03623C90.3586 7.288 90.3966 7.55542 90.3807 7.82237V10.55H89.2129V7.98142C89.2335 7.67756 89.1344 7.37776 88.9373 7.14661C88.8393 7.04818 88.7219 6.97155 88.5925 6.92168C88.4632 6.8718 88.325 6.84979 88.1867 6.85706C88.0477 6.85009 87.9089 6.87223 87.779 6.92207C87.649 6.97191 87.5307 7.04837 87.4316 7.14661C87.3328 7.26045 87.2572 7.39277 87.2092 7.53602C87.1613 7.67927 87.1419 7.83062 87.1522 7.98142V10.55H85.9844V7.98142C86.0048 7.67765 85.906 7.37794 85.7093 7.14661C85.6112 7.0482 85.4938 6.97159 85.3645 6.92172C85.2352 6.87184 85.0969 6.84982 84.9586 6.85706C84.8183 6.84951 84.6781 6.87135 84.5467 6.92119C84.4153 6.97104 84.2956 7.04779 84.1953 7.14661C84.0965 7.26047 84.0209 7.3928 83.973 7.53604C83.925 7.67928 83.9056 7.83062 83.9158 7.98142V10.55H82.7476V5.9001H83.9158V6.4625C84.0693 6.26398 84.2683 6.10571 84.4957 6.00116C84.74 5.88749 85.0065 5.83015 85.2757 5.83332C85.6123 5.82738 85.9451 5.90671 86.2434 6.06399C86.5227 6.21367 86.7519 6.44292 86.9024 6.72305C87.0567 6.45063 87.2836 6.22694 87.5574 6.07717C87.9227 5.87794 88.3406 5.79797 88.7531 5.84835C89.1656 5.89874 89.5523 6.07698 89.8597 6.35837" fill="#AB2346"/>
</svg>
