<svg width="92" height="17" viewBox="0 0 92 17" fill="none" xmlns="http://www.w3.org/2000/svg">
<path d="M15.607 2.47792H12.4719C12.3694 2.48038 12.2675 2.46219 12.172 2.42442C12.0766 2.38666 11.9897 2.33007 11.9163 2.258C11.843 2.18593 11.7847 2.09983 11.7449 2.00475C11.7051 1.90968 11.6846 1.80756 11.6846 1.7044C11.6846 1.60124 11.7051 1.49912 11.7449 1.40405C11.7847 1.30898 11.843 1.22288 11.9163 1.15081C11.9897 1.07874 12.0766 1.02215 12.172 0.984384C12.2675 0.946616 12.3694 0.928426 12.4719 0.930884H15.607C15.7095 0.928426 15.8115 0.946616 15.9069 0.984384C16.0023 1.02215 16.0892 1.07874 16.1626 1.15081C16.236 1.22288 16.2942 1.30898 16.334 1.40405C16.3738 1.49912 16.3944 1.60124 16.3944 1.7044C16.3944 1.80756 16.3738 1.90968 16.334 2.00475C16.2942 2.09983 16.236 2.18593 16.1626 2.258C16.0892 2.33007 16.0023 2.38666 15.9069 2.42442C15.8115 2.46219 15.7095 2.48038 15.607 2.47792Z" fill="#AB2346"/>
<path d="M17.1639 4.82167H12.4729C12.3704 4.82413 12.2684 4.80594 12.173 4.76817C12.0776 4.73041 11.9907 4.67382 11.9173 4.60175C11.8439 4.52968 11.7856 4.44358 11.7458 4.3485C11.706 4.25343 11.6855 4.15131 11.6855 4.04815C11.6855 3.94499 11.706 3.84287 11.7458 3.7478C11.7856 3.65273 11.8439 3.56663 11.9173 3.49456C11.9907 3.42249 12.0776 3.3659 12.173 3.32813C12.2684 3.29037 12.3704 3.27218 12.4729 3.27463H17.1639C17.2664 3.27218 17.3684 3.29037 17.4638 3.32813C17.5592 3.3659 17.6462 3.42249 17.7195 3.49456C17.7929 3.56663 17.8512 3.65273 17.891 3.7478C17.9308 3.84287 17.9513 3.94499 17.9513 4.04815C17.9513 4.15131 17.9308 4.25343 17.891 4.3485C17.8512 4.44358 17.7929 4.52968 17.7195 4.60175C17.6462 4.67382 17.5592 4.73041 17.4638 4.76817C17.3684 4.80594 17.2664 4.82413 17.1639 4.82167Z" fill="#AB2346"/>
<path d="M18.7089 7.16591H12.4724C12.2716 7.1611 12.0808 7.07749 11.9405 6.93295C11.8002 6.78841 11.7217 6.59441 11.7217 6.39239C11.7217 6.19038 11.8002 5.99637 11.9405 5.85183C12.0808 5.7073 12.2716 5.62369 12.4724 5.61887H18.7089C18.8114 5.61641 18.9134 5.6346 19.0088 5.67237C19.1042 5.71014 19.1911 5.76672 19.2645 5.83879C19.3379 5.91087 19.3961 5.99697 19.4359 6.09204C19.4757 6.18711 19.4963 6.28923 19.4963 6.39239C19.4963 6.49555 19.4757 6.59767 19.4359 6.69274C19.3961 6.78781 19.3379 6.87392 19.2645 6.94599C19.1911 7.01806 19.1042 7.07464 19.0088 7.11241C18.9134 7.15018 18.8114 7.16837 18.7089 7.16591Z" fill="#AB2346"/>
<path d="M15.607 11.8534H12.4719C12.3694 11.8559 12.2675 11.8377 12.172 11.7999C12.0766 11.7621 11.9897 11.7056 11.9163 11.6335C11.843 11.5614 11.7847 11.4753 11.7449 11.3802C11.7051 11.2852 11.6846 11.1831 11.6846 11.0799C11.6846 10.9767 11.7051 10.8746 11.7449 10.7795C11.7847 10.6845 11.843 10.5984 11.9163 10.5263C11.9897 10.4542 12.0766 10.3976 12.172 10.3599C12.2675 10.3221 12.3694 10.3039 12.4719 10.3064H15.607C15.7095 10.3039 15.8115 10.3221 15.9069 10.3599C16.0023 10.3976 16.0892 10.4542 16.1626 10.5263C16.236 10.5984 16.2942 10.6845 16.334 10.7795C16.3738 10.8746 16.3944 10.9767 16.3944 11.0799C16.3944 11.1831 16.3738 11.2852 16.334 11.3802C16.2942 11.4753 16.236 11.5614 16.1626 11.6335C16.0892 11.7056 16.0023 11.7621 15.9069 11.7999C15.8115 11.8377 15.7095 11.8559 15.607 11.8534Z" fill="#AB2346"/>
<path d="M14.8292 14.1981H12.471C12.3685 14.2006 12.2665 14.1824 12.1711 14.1446C12.0757 14.1069 11.9887 14.0503 11.9154 13.9782C11.842 13.9061 11.7837 13.82 11.7439 13.725C11.7041 13.6299 11.6836 13.5278 11.6836 13.4246C11.6836 13.3215 11.7041 13.2193 11.7439 13.1243C11.7837 13.0292 11.842 12.9431 11.9154 12.871C11.9887 12.7989 12.0757 12.7424 12.1711 12.7046C12.2665 12.6668 12.3685 12.6486 12.471 12.6511H14.8292C14.9317 12.6486 15.0336 12.6668 15.129 12.7046C15.2244 12.7424 15.3114 12.7989 15.3847 12.871C15.4581 12.9431 15.5164 13.0292 15.5562 13.1243C15.596 13.2193 15.6165 13.3215 15.6165 13.4246C15.6165 13.5278 15.596 13.6299 15.5562 13.725C15.5164 13.82 15.4581 13.9061 15.3847 13.9782C15.3114 14.0503 15.2244 14.1069 15.129 14.1446C15.0336 14.1824 14.9317 14.2006 14.8292 14.1981Z" fill="#AB2346"/>
<path d="M10.1683 2.47792H8.58961C8.48711 2.48038 8.38514 2.46219 8.28972 2.42442C8.19431 2.38666 8.10736 2.33007 8.034 2.258C7.96064 2.18593 7.90237 2.09983 7.86256 2.00475C7.82276 1.90968 7.80225 1.80756 7.80225 1.7044C7.80225 1.60124 7.82276 1.49912 7.86256 1.40405C7.90237 1.30898 7.96064 1.22288 8.034 1.15081C8.10736 1.07874 8.19431 1.02215 8.28972 0.984384C8.38514 0.946616 8.48711 0.928426 8.58961 0.930884H10.1683C10.2708 0.928426 10.3728 0.946616 10.4682 0.984384C10.5636 1.02215 10.6505 1.07874 10.7239 1.15081C10.7972 1.22288 10.8555 1.30898 10.8953 1.40405C10.9351 1.49912 10.9556 1.60124 10.9556 1.7044C10.9556 1.80756 10.9351 1.90968 10.8953 2.00475C10.8555 2.09983 10.7972 2.18593 10.7239 2.258C10.6505 2.33007 10.5636 2.38666 10.4682 2.42442C10.3728 2.46219 10.2708 2.48038 10.1683 2.47792Z" fill="#82AEC9"/>
<path d="M10.1681 4.82167H7.04615C6.94365 4.82413 6.84171 4.80594 6.74629 4.76817C6.65088 4.73041 6.56393 4.67382 6.49057 4.60175C6.41721 4.52968 6.35891 4.44358 6.31911 4.3485C6.27931 4.25343 6.25879 4.15131 6.25879 4.04815C6.25879 3.94499 6.27931 3.84287 6.31911 3.7478C6.35891 3.65273 6.41721 3.56663 6.49057 3.49456C6.56393 3.42249 6.65088 3.3659 6.74629 3.32813C6.84171 3.29037 6.94365 3.27218 7.04615 3.27463H10.1681C10.2706 3.27218 10.3726 3.29037 10.468 3.32813C10.5634 3.3659 10.6504 3.42249 10.7237 3.49456C10.7971 3.56663 10.8554 3.65273 10.8952 3.7478C10.935 3.84287 10.9555 3.94499 10.9555 4.04815C10.9555 4.15131 10.935 4.25343 10.8952 4.3485C10.8554 4.44358 10.7971 4.52968 10.7237 4.60175C10.6504 4.67382 10.5634 4.73041 10.468 4.76817C10.3726 4.80594 10.2706 4.82413 10.1681 4.82167Z" fill="#82AEC9"/>
<path d="M10.1673 7.16591H5.50025C5.39775 7.16837 5.29578 7.15018 5.20037 7.11241C5.10495 7.07464 5.01801 7.01806 4.94465 6.94599C4.87129 6.87392 4.81298 6.78781 4.77318 6.69274C4.73338 6.59767 4.71289 6.49555 4.71289 6.39239C4.71289 6.28923 4.73338 6.18711 4.77318 6.09204C4.81298 5.99697 4.87129 5.91087 4.94465 5.83879C5.01801 5.76672 5.10495 5.71014 5.20037 5.67237C5.29578 5.6346 5.39775 5.61641 5.50025 5.61887H10.1673C10.2698 5.61641 10.3717 5.6346 10.4671 5.67237C10.5626 5.71014 10.6495 5.76672 10.7229 5.83879C10.7962 5.91087 10.8545 5.99697 10.8943 6.09204C10.9341 6.18711 10.9546 6.28923 10.9546 6.39239C10.9546 6.49555 10.9341 6.59767 10.8943 6.69274C10.8545 6.78781 10.7962 6.87392 10.7229 6.94599C10.6495 7.01806 10.5626 7.07464 10.4671 7.11241C10.3717 7.15018 10.2698 7.16837 10.1673 7.16591Z" fill="#82AEC9"/>
<path d="M10.1683 9.50966H3.93922C3.83672 9.51212 3.73477 9.49393 3.63936 9.45616C3.54395 9.41839 3.457 9.36181 3.38364 9.28974C3.31028 9.21767 3.25198 9.13156 3.21217 9.03649C3.17237 8.94142 3.15186 8.8393 3.15186 8.73614C3.15186 8.63298 3.17237 8.53086 3.21217 8.43579C3.25198 8.34072 3.31028 8.25462 3.38364 8.18254C3.457 8.11047 3.54395 8.05389 3.63936 8.01612C3.73477 7.97835 3.83672 7.96016 3.93922 7.96262H10.1683C10.2708 7.96016 10.3728 7.97835 10.4682 8.01612C10.5636 8.05389 10.6506 8.11047 10.7239 8.18254C10.7973 8.25462 10.8556 8.34072 10.8954 8.43579C10.9352 8.53086 10.9557 8.63298 10.9557 8.73614C10.9557 8.8393 10.9352 8.94142 10.8954 9.03649C10.8556 9.13156 10.7973 9.21767 10.7239 9.28974C10.6506 9.36181 10.5636 9.41839 10.4682 9.45616C10.3728 9.49393 10.2708 9.51212 10.1683 9.50966Z" fill="#82AEC9"/>
<path d="M20.2654 9.50966H12.4729C12.3704 9.51212 12.2684 9.49393 12.173 9.45616C12.0776 9.41839 11.9907 9.36181 11.9173 9.28974C11.8439 9.21767 11.7856 9.13156 11.7458 9.03649C11.706 8.94142 11.6855 8.8393 11.6855 8.73614C11.6855 8.63298 11.706 8.53086 11.7458 8.43579C11.7856 8.34072 11.8439 8.25462 11.9173 8.18254C11.9907 8.11047 12.0776 8.05389 12.173 8.01612C12.2684 7.97835 12.3704 7.96016 12.4729 7.96262H20.2654C20.3679 7.96016 20.4699 7.97835 20.5653 8.01612C20.6607 8.05389 20.7476 8.11047 20.821 8.18254C20.8943 8.25462 20.9527 8.34072 20.9925 8.43579C21.0323 8.53086 21.0527 8.63298 21.0527 8.73614C21.0527 8.8393 21.0323 8.94142 20.9925 9.03649C20.9527 9.13156 20.8943 9.21767 20.821 9.28974C20.7476 9.36181 20.6607 9.41839 20.5653 9.45616C20.4699 9.49393 20.3679 9.51212 20.2654 9.50966Z" fill="#82AEC9"/>
<path d="M10.1686 11.8534H5.49586C5.39336 11.8559 5.29141 11.8377 5.196 11.7999C5.10059 11.7621 5.01364 11.7056 4.94028 11.6335C4.86692 11.5614 4.80862 11.4753 4.76881 11.3802C4.72901 11.2852 4.7085 11.1831 4.7085 11.0799C4.7085 10.9767 4.72901 10.8746 4.76881 10.7795C4.80862 10.6845 4.86692 10.5984 4.94028 10.5263C5.01364 10.4542 5.10059 10.3976 5.196 10.3599C5.29141 10.3221 5.39336 10.3039 5.49586 10.3064H10.1686C10.2711 10.3039 10.373 10.3221 10.4685 10.3599C10.5639 10.3976 10.6508 10.4542 10.7241 10.5263C10.7975 10.5984 10.8558 10.6845 10.8956 10.7795C10.9354 10.8746 10.9559 10.9767 10.9559 11.0799C10.9559 11.1831 10.9354 11.2852 10.8956 11.3802C10.8558 11.4753 10.7975 11.5614 10.7241 11.6335C10.6508 11.7056 10.5639 11.7621 10.4685 11.7999C10.373 11.8377 10.2711 11.8559 10.1686 11.8534Z" fill="#82AEC9"/>
<path d="M20.2655 11.8534H17.9104C17.7097 11.8486 17.5187 11.765 17.3785 11.6205C17.2382 11.4759 17.1597 11.2819 17.1597 11.0799C17.1597 10.8779 17.2382 10.6839 17.3785 10.5393C17.5187 10.3948 17.7097 10.3112 17.9104 10.3064H20.2655C20.368 10.3039 20.47 10.3221 20.5654 10.3599C20.6608 10.3976 20.7478 10.4542 20.8211 10.5263C20.8945 10.5984 20.9528 10.6845 20.9926 10.7795C21.0324 10.8746 21.0529 10.9767 21.0529 11.0799C21.0529 11.1831 21.0324 11.2852 20.9926 11.3802C20.9528 11.4753 20.8945 11.5614 20.8211 11.6335C20.7478 11.7056 20.6608 11.7621 20.5654 11.7999C20.47 11.8377 20.368 11.8559 20.2655 11.8534Z" fill="#82AEC9"/>
<path d="M10.1675 14.1981H7.04029C6.93779 14.2006 6.83582 14.1824 6.74041 14.1446C6.64499 14.1069 6.55805 14.0503 6.48469 13.9782C6.41133 13.9061 6.35302 13.82 6.31322 13.725C6.27342 13.6299 6.25293 13.5278 6.25293 13.4246C6.25293 13.3215 6.27342 13.2193 6.31322 13.1243C6.35302 13.0292 6.41133 12.9431 6.48469 12.871C6.55805 12.7989 6.64499 12.7424 6.74041 12.7046C6.83582 12.6668 6.93779 12.6486 7.04029 12.6511H10.1675C10.27 12.6486 10.372 12.6668 10.4674 12.7046C10.5628 12.7424 10.6497 12.7989 10.7231 12.871C10.7965 12.9431 10.8548 13.0292 10.8946 13.1243C10.9344 13.2193 10.9549 13.3215 10.9549 13.4246C10.9549 13.5278 10.9344 13.6299 10.8946 13.725C10.8548 13.82 10.7965 13.9061 10.7231 13.9782C10.6497 14.0503 10.5628 14.1069 10.4674 14.1446C10.372 14.1824 10.27 14.2006 10.1675 14.1981Z" fill="#82AEC9"/>
<path d="M20.4105 14.1981H17.1457C16.945 14.1933 16.7541 14.1097 16.6138 13.9652C16.4735 13.8206 16.395 13.6266 16.395 13.4246C16.395 13.2226 16.4735 13.0286 16.6138 12.8841C16.7541 12.7395 16.945 12.6559 17.1457 12.6511H20.4105C20.513 12.6486 20.615 12.6668 20.7104 12.7046C20.8058 12.7424 20.8927 12.7989 20.9661 12.871C21.0395 12.9431 21.0978 13.0292 21.1376 13.1243C21.1774 13.2193 21.1979 13.3215 21.1979 13.4246C21.1979 13.5278 21.1774 13.6299 21.1376 13.725C21.0978 13.82 21.0395 13.9061 20.9661 13.9782C20.8927 14.0503 20.8058 14.1069 20.7104 14.1446C20.615 14.1824 20.513 14.2006 20.4105 14.1981Z" fill="#82AEC9"/>
<path d="M10.1683 16.5419H8.58961C8.48711 16.5443 8.38514 16.5262 8.28972 16.4884C8.19431 16.4506 8.10736 16.394 8.034 16.322C7.96064 16.2499 7.90237 16.1638 7.86256 16.0687C7.82276 15.9736 7.80225 15.8715 7.80225 15.7684C7.80225 15.6652 7.82276 15.5631 7.86256 15.468C7.90237 15.3729 7.96064 15.2868 8.034 15.2148C8.10736 15.1427 8.19431 15.0861 8.28972 15.0483C8.38514 15.0106 8.48711 14.9924 8.58961 14.9948H10.1683C10.2708 14.9924 10.3728 15.0106 10.4682 15.0483C10.5636 15.0861 10.6505 15.1427 10.7239 15.2148C10.7972 15.2868 10.8555 15.3729 10.8953 15.468C10.9351 15.5631 10.9556 15.6652 10.9556 15.7684C10.9556 15.8715 10.9351 15.9736 10.8953 16.0687C10.8555 16.1638 10.7972 16.2499 10.7239 16.322C10.6505 16.394 10.5636 16.4506 10.4682 16.4884C10.3728 16.5262 10.2708 16.5443 10.1683 16.5419Z" fill="#82AEC9"/>
<path d="M15.6075 16.5419H12.4724C12.3699 16.5443 12.268 16.5262 12.1725 16.4884C12.0771 16.4506 11.9902 16.394 11.9168 16.322C11.8435 16.2499 11.7852 16.1638 11.7454 16.0687C11.7055 15.9736 11.6851 15.8715 11.6851 15.7684C11.6851 15.6652 11.7055 15.5631 11.7454 15.468C11.7852 15.3729 11.8435 15.2868 11.9168 15.2148C11.9902 15.1427 12.0771 15.0861 12.1725 15.0483C12.268 15.0106 12.3699 14.9924 12.4724 14.9948H15.6075C15.71 14.9924 15.812 15.0106 15.9074 15.0483C16.0028 15.0861 16.0897 15.1427 16.1631 15.2148C16.2364 15.2868 16.2947 15.3729 16.3345 15.468C16.3743 15.5631 16.3948 15.6652 16.3948 15.7684C16.3948 15.8715 16.3743 15.9736 16.3345 16.0687C16.2947 16.1638 16.2364 16.2499 16.1631 16.322C16.0897 16.394 16.0028 16.4506 15.9074 16.4884C15.812 16.5262 15.71 16.5443 15.6075 16.5419Z" fill="#82AEC9"/>
<path d="M7.07611 2.29408C7.07611 2.41097 7.04165 2.52522 6.97711 2.6224C6.91257 2.71959 6.82083 2.79533 6.7135 2.84006C6.60618 2.88479 6.48808 2.89649 6.37414 2.87369C6.26021 2.85089 6.15555 2.7946 6.0734 2.71196C5.99126 2.62931 5.93532 2.52401 5.91265 2.40938C5.88999 2.29474 5.90162 2.17592 5.94608 2.06793C5.99053 1.95995 6.06581 1.86765 6.1624 1.80272C6.25899 1.73778 6.37256 1.70312 6.48873 1.70312C6.64451 1.70312 6.7939 1.76539 6.90405 1.87621C7.01421 1.98704 7.07611 2.13735 7.07611 2.29408Z" fill="#1D365A"/>
<path d="M7.05316 15.567C7.05316 15.6839 7.0187 15.7982 6.95416 15.8954C6.88962 15.9925 6.79788 16.0683 6.69055 16.113C6.58323 16.1577 6.46513 16.1694 6.35119 16.1466C6.23726 16.1238 6.1326 16.0676 6.05046 15.9849C5.96831 15.9023 5.91237 15.797 5.8897 15.6823C5.86704 15.5677 5.87867 15.4489 5.92313 15.3409C5.96758 15.2329 6.04289 15.1406 6.13948 15.0757C6.23607 15.0107 6.34961 14.9761 6.46578 14.9761C6.62156 14.9761 6.77098 15.0383 6.88113 15.1492C6.99128 15.26 7.05316 15.4103 7.05316 15.567Z" fill="#1D365A"/>
<path d="M5.10922 4.82159H4.33275C4.23077 4.82159 4.13297 4.78083 4.06086 4.70828C3.98875 4.63573 3.94824 4.53733 3.94824 4.43472C3.94824 4.33212 3.98875 4.23372 4.06086 4.16116C4.13297 4.08861 4.23077 4.04785 4.33275 4.04785H5.10922C5.2112 4.04785 5.309 4.08861 5.38112 4.16116C5.45323 4.23372 5.49373 4.33212 5.49373 4.43472C5.49373 4.53733 5.45323 4.63573 5.38112 4.70828C5.309 4.78083 5.2112 4.82159 5.10922 4.82159Z" fill="#1D365A"/>
<path d="M3.55339 7.16632H2.00268C1.9007 7.16632 1.80289 7.12556 1.73078 7.05301C1.65867 6.98046 1.61816 6.88205 1.61816 6.77945C1.61816 6.67684 1.65867 6.57844 1.73078 6.50589C1.80289 6.43334 1.9007 6.39258 2.00268 6.39258H3.55339C3.65537 6.39258 3.75318 6.43334 3.82529 6.50589C3.8974 6.57844 3.93793 6.67684 3.93793 6.77945C3.93793 6.88205 3.8974 6.98046 3.82529 7.05301C3.75318 7.12556 3.65537 7.16632 3.55339 7.16632Z" fill="#1D365A"/>
<path d="M3.56354 11.0633H1.23461C1.13263 11.0633 1.03485 11.0225 0.962738 10.95C0.890627 10.8774 0.850098 10.779 0.850098 10.6764C0.850098 10.5738 0.890627 10.4754 0.962738 10.4029C1.03485 10.3303 1.13263 10.2896 1.23461 10.2896H3.56354C3.66552 10.2896 3.76333 10.3303 3.83544 10.4029C3.90755 10.4754 3.94805 10.5738 3.94805 10.6764C3.94805 10.779 3.90755 10.8774 3.83544 10.95C3.76333 11.0225 3.66552 11.0633 3.56354 11.0633Z" fill="#1D365A"/>
<path d="M5.11271 13.3997H4.33275C4.23077 13.3997 4.13297 13.359 4.06086 13.2864C3.98875 13.2139 3.94824 13.1155 3.94824 13.0128C3.94824 12.9102 3.98875 12.8118 4.06086 12.7393C4.13297 12.6667 4.23077 12.626 4.33275 12.626H5.11271C5.21469 12.626 5.3125 12.6667 5.38461 12.7393C5.45672 12.8118 5.49722 12.9102 5.49722 13.0128C5.49722 13.1155 5.45672 13.2139 5.38461 13.2864C5.3125 13.359 5.21469 13.3997 5.11271 13.3997Z" fill="#1D365A"/>
<path d="M29.2467 8.22417C29.4555 8.48547 29.5675 8.81162 29.5637 9.14686C29.5696 9.43902 29.4899 9.72646 29.3345 9.97332C29.1713 10.2197 28.941 10.4134 28.6711 10.5313C28.3478 10.6725 27.9977 10.7412 27.6453 10.7326H25.1343V4.87526H27.5361C27.8864 4.86667 28.2346 4.9324 28.558 5.06814C28.8226 5.17909 29.049 5.36598 29.2087 5.6055C29.3571 5.83823 29.4339 6.10981 29.4297 6.38627C29.4404 6.69461 29.3448 6.99719 29.1589 7.24261C28.9735 7.47519 28.7217 7.64508 28.4375 7.72944C28.7591 7.78708 29.0477 7.96352 29.2467 8.22417ZM26.3016 7.2927H27.3698C27.5992 7.30772 27.8265 7.24081 28.0117 7.10376C28.088 7.03695 28.148 6.95338 28.1871 6.85952C28.2261 6.76566 28.2432 6.66403 28.237 6.56246C28.2429 6.46027 28.2257 6.35807 28.1867 6.26355C28.1477 6.16902 28.0878 6.08464 28.0117 6.01675C27.8277 5.87688 27.5999 5.80827 27.3698 5.82343H26.3016V7.2927ZM28.141 9.57745C28.2213 9.5068 28.2844 9.41859 28.3256 9.31959C28.3668 9.22058 28.3849 9.1134 28.3785 9.00626C28.3841 8.89498 28.3645 8.78387 28.3212 8.68134C28.2778 8.57881 28.2119 8.48754 28.1283 8.41442C27.9362 8.2634 27.6962 8.1874 27.4527 8.20045H26.3016V9.77824H27.4781C27.7159 9.79287 27.9512 9.72151 28.1414 9.57701" fill="#AB2346"/>
<path d="M32.2438 6.22641C32.4969 6.08356 32.7833 6.01107 33.0735 6.01639V7.25147H32.7647C32.6089 7.22609 32.4492 7.23921 32.2994 7.28971C32.1497 7.34021 32.0144 7.42657 31.9053 7.54136C31.7961 7.65614 31.7163 7.79591 31.6727 7.94863C31.6291 8.10134 31.6231 8.26243 31.6551 8.41801V10.7344H30.4878V6.08361H31.6538V6.8055C31.7979 6.56543 32.0003 6.36616 32.242 6.22641" fill="#AB2346"/>
<path d="M34.799 10.5108C34.4458 10.3151 34.1551 10.0226 33.9605 9.66723C33.7516 9.28151 33.6462 8.84763 33.6548 8.40842C33.6458 7.96815 33.7538 7.53345 33.9675 7.14917C34.1683 6.79291 34.4646 6.5006 34.8226 6.30557C35.1961 6.10995 35.6111 6.00781 36.0322 6.00781C36.4534 6.00781 36.8683 6.10995 37.2419 6.30557C37.5998 6.50064 37.8961 6.79294 38.0969 7.14917C38.3108 7.5334 38.419 7.96811 38.4101 8.40842C38.419 8.8496 38.308 9.28486 38.0891 9.66723C37.8825 10.0234 37.5822 10.3153 37.2214 10.5108C36.8453 10.7124 36.4246 10.8149 35.9986 10.8087C35.5793 10.8152 35.1655 10.7126 34.7972 10.5108M36.5951 9.62944C36.7858 9.52125 36.9409 9.35938 37.0414 9.1637C37.1587 8.92985 37.2161 8.67023 37.2083 8.40842C37.2204 8.22388 37.196 8.03876 37.1366 7.86373C37.0773 7.68871 36.9841 7.52724 36.8624 7.38863C36.7536 7.27338 36.622 7.18219 36.4763 7.12084C36.3305 7.0595 36.1736 7.02934 36.0156 7.03229C35.8588 7.02884 35.703 7.05881 35.5585 7.12022C35.414 7.18163 35.284 7.27311 35.1772 7.38863C34.9362 7.67095 34.8148 8.03708 34.8392 8.40842C34.8148 8.77834 34.9328 9.14352 35.1689 9.42821C35.2736 9.5441 35.4019 9.63595 35.5451 9.69751C35.6883 9.75907 35.8429 9.7889 35.9986 9.78498C36.2074 9.78565 36.4128 9.7318 36.5951 9.62944Z" fill="#AB2346"/>
<path d="M39.2946 7.14145C39.4648 6.79575 39.7279 6.505 40.0541 6.30224C40.3772 6.10547 40.7485 6.00364 41.1262 6.0083C41.4406 6.00112 41.7519 6.07333 42.0315 6.21832C42.2751 6.34526 42.4874 6.5254 42.6529 6.74557V6.08387H43.8294V10.7347H42.6529V10.0541C42.4918 10.282 42.2787 10.4676 42.0315 10.5954C41.7495 10.7424 41.4354 10.816 41.1179 10.8094C40.7418 10.8131 40.3726 10.7082 40.0541 10.5071C39.7279 10.2987 39.4652 10.0039 39.2946 9.65511C39.1024 9.26259 39.0066 8.82941 39.0152 8.39191C39.0069 7.95839 39.1027 7.5297 39.2946 7.14145ZM42.4856 7.67397C42.3821 7.478 42.226 7.31524 42.035 7.20428C41.85 7.09615 41.6397 7.03957 41.4258 7.04039C41.2109 7.03803 40.9995 7.09509 40.8147 7.20534C40.6299 7.3156 40.4787 7.47482 40.3777 7.66562C40.2591 7.88873 40.2001 8.13899 40.2065 8.39191C40.2007 8.64743 40.2596 8.90023 40.3777 9.12654C40.4814 9.32591 40.6372 9.49302 40.8284 9.60986C41.0081 9.71997 41.2145 9.77805 41.4249 9.7777C41.6388 9.77859 41.849 9.72217 42.0341 9.61425C42.2251 9.50306 42.3812 9.34017 42.4847 9.14412C42.5945 8.91503 42.6515 8.66401 42.6515 8.4097C42.6515 8.1554 42.5945 7.90437 42.4847 7.67529" fill="#AB2346"/>
<path d="M44.9153 7.14114C45.0837 6.79634 45.346 6.50678 45.6717 6.30617C45.9973 6.10556 46.3729 6.00215 46.7547 6.00799C47.0523 6.00742 47.3462 6.07488 47.6141 6.20527C47.8705 6.32374 48.094 6.50392 48.2648 6.72988V4.52246H49.4496V10.7335H48.2648V10.0454C48.1139 10.2808 47.9039 10.4719 47.6561 10.5995C47.3749 10.7441 47.0625 10.8162 46.7469 10.8095C46.3696 10.8129 45.9992 10.708 45.6791 10.5072C45.3512 10.2998 45.0869 10.0049 44.9158 9.65524C44.7235 9.26273 44.6277 8.82954 44.6363 8.39204C44.628 7.95851 44.7238 7.52937 44.9158 7.14114M48.1067 7.6741C48.0033 7.47818 47.8474 7.31543 47.6565 7.20441C47.4717 7.09635 47.2615 7.03978 47.0477 7.04052C46.8329 7.03816 46.6215 7.09522 46.4367 7.20547C46.2519 7.31573 46.1007 7.47495 45.9997 7.66575C45.8811 7.88885 45.8221 8.13911 45.8285 8.39204C45.8227 8.64756 45.8816 8.90035 45.9997 9.12667C46.1034 9.32604 46.2592 9.49314 46.4503 9.60998C46.63 9.72012 46.8364 9.7782 47.0468 9.77783C47.2606 9.77864 47.4707 9.72222 47.6556 9.61438C47.8465 9.50312 48.0024 9.34024 48.1059 9.14425C48.2157 8.9152 48.2728 8.66416 48.2728 8.40983C48.2728 8.15551 48.2157 7.90447 48.1059 7.67542" fill="#AB2346"/>
<path d="M51.2983 10.6026C51.0172 10.4805 50.7718 10.2883 50.5851 10.0441C50.4136 9.81893 50.3134 9.54706 50.2974 9.26381H51.4738C51.4846 9.35212 51.5134 9.43723 51.5585 9.51376C51.6036 9.59029 51.664 9.65659 51.7359 9.70846C51.9013 9.82984 52.1025 9.89174 52.3071 9.88421C52.4905 9.8949 52.6727 9.84792 52.8285 9.74976C52.8861 9.71303 52.9335 9.66222 52.9664 9.60206C52.9992 9.5419 53.0164 9.47436 53.0162 9.40573C53.0167 9.33237 52.995 9.26061 52.9541 9.1999C52.9131 9.13919 52.8549 9.09238 52.787 9.06565C52.5514 8.96135 52.3071 8.87842 52.0568 8.81785C51.7688 8.75164 51.4858 8.66471 51.2101 8.55773C50.9907 8.46855 50.796 8.32748 50.6423 8.14648C50.475 7.93514 50.3905 7.66938 50.4048 7.39954C50.4036 7.14773 50.4809 6.90188 50.6257 6.69654C50.7867 6.47285 51.0062 6.29854 51.2598 6.19302C51.5674 6.06338 51.8986 6.00035 52.2319 6.00804C52.7066 5.98333 53.1742 6.13082 53.5499 6.42369C53.713 6.56202 53.8455 6.73317 53.939 6.92614C54.0324 7.1191 54.0846 7.3296 54.0923 7.5441H52.9743C52.9689 7.45878 52.9457 7.37557 52.9062 7.29987C52.8667 7.22417 52.8118 7.15768 52.7451 7.10472C52.5916 7.00664 52.4153 6.95094 52.2337 6.94323C52.052 6.93551 51.8716 6.97606 51.7105 7.06078C51.6563 7.09581 51.6121 7.14439 51.5822 7.20177C51.5522 7.25914 51.5376 7.32335 51.5398 7.38812C51.5393 7.46422 51.5613 7.53875 51.6028 7.60232C51.6444 7.66589 51.7038 7.71566 51.7734 7.74533C52.006 7.85322 52.2493 7.93614 52.4992 7.9927C52.7802 8.05989 53.0562 8.14696 53.325 8.25325C53.5433 8.34376 53.7365 8.48624 53.8879 8.66846C54.0545 8.87918 54.1417 9.14232 54.1342 9.41144C54.1373 9.66939 54.0601 9.92185 53.9132 10.1333C53.7527 10.3565 53.533 10.5296 53.2792 10.6329C52.9738 10.7589 52.6458 10.8202 52.3158 10.813C51.9657 10.8188 51.6185 10.7487 51.2978 10.6074" fill="#AB2346"/>
<path d="M56.8654 6.22213C57.1446 6.07569 57.4558 6.00212 57.7706 6.00816C58.1482 6.00339 58.5196 6.10506 58.8427 6.30166C59.168 6.50362 59.4309 6.79268 59.6022 7.13647C59.7949 7.52584 59.8908 7.95645 59.8816 8.39133C59.8901 8.82881 59.7943 9.26198 59.6022 9.65453C59.4315 10.0032 59.1688 10.298 58.8427 10.5065C58.5215 10.7084 58.1494 10.8133 57.7706 10.8088C57.459 10.8153 57.1508 10.7431 56.8741 10.5987C56.6289 10.4706 56.4142 10.2907 56.2444 10.0715V12.9503H55.0762V6.08373H56.2444V6.7551C56.4075 6.5312 56.6198 6.34871 56.8654 6.22213ZM58.5174 7.66548C58.4132 7.47117 58.2573 7.3099 58.0671 7.19974C57.883 7.09397 57.6744 7.03896 57.4623 7.04025C57.2524 7.03975 57.0463 7.09638 56.8658 7.20413C56.6753 7.3176 56.5195 7.48162 56.4155 7.67822C56.3031 7.90501 56.2445 8.155 56.2445 8.40846C56.2445 8.66192 56.3031 8.91191 56.4155 9.1387C56.5196 9.33526 56.6754 9.49927 56.8658 9.61279C57.048 9.72045 57.2557 9.77685 57.4671 9.77608C57.6784 9.77531 57.8857 9.71739 58.0671 9.60839C58.2572 9.49249 58.4127 9.3272 58.5174 9.12992C58.6363 8.90251 58.6953 8.6482 58.6886 8.39133C58.695 8.1384 58.636 7.88856 58.5174 7.66548Z" fill="#AB2346"/>
<path d="M64.9782 8.76099H61.5994C61.6093 9.06027 61.7346 9.34392 61.9488 9.55187C62.1553 9.74265 62.4275 9.84508 62.7078 9.83746C62.9006 9.849 63.0923 9.80137 63.2576 9.70086C63.423 9.60036 63.5541 9.45172 63.6336 9.27462H64.8935C64.764 9.71689 64.4946 10.1046 64.1262 10.3788C63.7227 10.675 63.2323 10.8271 62.7331 10.8107C62.3152 10.8174 61.9027 10.7148 61.5361 10.5128C61.186 10.3173 60.8993 10.0244 60.7103 9.66918C60.5071 9.28161 60.4052 8.84844 60.4142 8.41037C60.4046 7.96989 60.505 7.53403 60.7064 7.14277C60.8916 6.78876 61.1758 6.49703 61.5239 6.30357C61.8932 6.11192 62.3024 6.01123 62.7179 6.00978C63.1334 6.00833 63.5434 6.10616 63.914 6.29522C64.2562 6.48026 64.5374 6.76166 64.7231 7.10499C64.92 7.47518 65.019 7.89001 65.0109 8.30976C65.0121 8.46141 65.001 8.6129 64.9777 8.76275M63.8013 7.97187C63.8037 7.83422 63.7758 7.69772 63.7196 7.57221C63.6633 7.4467 63.5801 7.3353 63.4759 7.24603C63.2595 7.06229 62.9834 6.96517 62.7004 6.97317C62.4326 6.96497 62.1717 7.05917 61.9702 7.2368C61.7645 7.42897 61.6354 7.69 61.6073 7.971L63.8013 7.97187Z" fill="#AB2346"/>
<path d="M65.9808 7.14567C66.166 6.79441 66.4466 6.50336 66.79 6.30647C67.1517 6.10344 67.5606 6.00064 67.9747 6.00857C68.4834 5.98865 68.9841 6.14087 69.3966 6.44092C69.7816 6.7438 70.0488 7.17293 70.1517 7.65359H68.8918C68.8328 7.46308 68.7142 7.29682 68.5538 7.1795C68.3806 7.06034 68.174 7.00014 67.9643 7.00771C67.813 7.00145 67.6623 7.03127 67.5246 7.09472C67.387 7.15817 67.2662 7.25347 67.1721 7.37283C66.9811 7.68296 66.8799 8.04054 66.8799 8.40536C66.8799 8.77018 66.9811 9.12777 67.1721 9.43789C67.2662 9.55726 67.387 9.65255 67.5246 9.716C67.6623 9.77946 67.813 9.80927 67.9643 9.80301C68.1681 9.8206 68.3716 9.76667 68.5404 9.65038C68.7092 9.53408 68.8327 9.36259 68.8901 9.16504H70.1499C70.04 9.64048 69.7721 10.0639 69.3905 10.3654C68.982 10.6719 68.4818 10.8288 67.9725 10.8101C67.5584 10.818 67.1496 10.7152 66.7878 10.5122C66.4445 10.3152 66.1639 10.0242 65.9786 9.67296C65.7864 9.27992 65.6865 8.84776 65.6865 8.40976C65.6865 7.97175 65.7864 7.53959 65.9786 7.14655" fill="#AB2346"/>
<path d="M72.4497 7.04923V9.29883C72.444 9.36028 72.451 9.42225 72.4704 9.4808C72.4898 9.53935 72.5211 9.59319 72.5623 9.63891C72.6718 9.71937 72.8069 9.75658 72.9418 9.74348H73.4842V10.7338H72.7501C71.7658 10.7338 71.2736 10.2527 71.2736 9.29048V7.04967H70.7212V6.08305H71.2719V4.93408H72.4479V6.08393H73.4825V7.05055L72.4497 7.04923Z" fill="#AB2346"/>
<path d="M76.1978 6.22641C76.4509 6.08354 76.7373 6.01105 77.0275 6.01639V7.25147H76.7188C76.5628 7.22598 76.4031 7.23903 76.2533 7.28949C76.1036 7.33995 75.9682 7.42631 75.859 7.54113C75.7498 7.65594 75.67 7.79576 75.6264 7.94852C75.5829 8.10129 75.577 8.26241 75.6091 8.41801V10.7344H74.4409V6.08361H75.6091V6.8055C75.7532 6.56537 75.956 6.36608 76.1978 6.22641Z" fill="#AB2346"/>
<path d="M82.1967 6.08398V10.7339H81.0203V10.1464C80.8664 10.3511 80.6644 10.514 80.4325 10.6205C80.1857 10.7361 79.9164 10.7948 79.6442 10.7923C79.3096 10.7994 78.9788 10.72 78.6835 10.5617C78.403 10.4054 78.175 10.1688 78.0284 9.88194C77.8626 9.55054 77.781 9.18296 77.7908 8.81206V6.08398H78.959V8.64422C78.9386 8.95308 79.0371 9.25799 79.2341 9.49573C79.3308 9.5965 79.4479 9.67524 79.5774 9.72663C79.7069 9.77802 79.8458 9.80087 79.9848 9.79363C80.1251 9.80142 80.2655 9.77886 80.3964 9.72747C80.5273 9.67609 80.6458 9.59706 80.7438 9.49573C80.9409 9.25802 81.0394 8.95308 81.019 8.64422V6.08398H82.1967Z" fill="#AB2346"/>
<path d="M90.5282 6.54157C90.7089 6.73766 90.8483 6.96855 90.9379 7.22031C91.0275 7.47208 91.0655 7.73951 91.0496 8.00645V10.7341H89.8819V8.1655C89.9024 7.86164 89.8034 7.56184 89.6063 7.33069C89.5083 7.23226 89.3908 7.15563 89.2615 7.10576C89.1322 7.05588 88.9939 7.03387 88.8556 7.04114C88.7167 7.03417 88.5779 7.05631 88.4479 7.10615C88.3179 7.156 88.1996 7.23246 88.1005 7.33069C88.0017 7.44453 87.9262 7.57686 87.8782 7.7201C87.8302 7.86335 87.8109 8.0147 87.8211 8.1655V10.7341H86.6533V8.1655C86.6737 7.86173 86.5749 7.56202 86.3782 7.33069C86.2802 7.23229 86.1627 7.15567 86.0334 7.1058C85.9041 7.05592 85.7658 7.0339 85.6275 7.04114C85.4873 7.03359 85.3471 7.05543 85.2157 7.10527C85.0843 7.15512 84.9646 7.23188 84.8642 7.33069C84.7654 7.44455 84.6899 7.57689 84.6419 7.72013C84.5939 7.86336 84.5745 8.0147 84.5847 8.1655V10.7341H83.4165V6.08419H84.5847V6.64658C84.7383 6.44806 84.9372 6.28979 85.1646 6.18524C85.409 6.07157 85.6754 6.01423 85.9446 6.0174C86.2813 6.01147 86.614 6.09079 86.9123 6.24807C87.1916 6.39775 87.4209 6.627 87.5713 6.90713C87.7257 6.63471 87.9525 6.41103 88.2264 6.26125C88.5917 6.06202 89.0095 5.98205 89.4221 6.03243C89.8346 6.08282 90.2213 6.26106 90.5286 6.54245" fill="#AB2346"/>
</svg>
