<svg width="96" height="17" viewBox="0 0 96 17" fill="none" xmlns="http://www.w3.org/2000/svg">
<path d="M16.3678 1.96262H13.0629C12.9548 1.96521 12.8474 1.94604 12.7468 1.90622C12.6462 1.86641 12.5546 1.80676 12.4772 1.73079C12.3999 1.65481 12.3384 1.56404 12.2965 1.46382C12.2545 1.3636 12.2329 1.25595 12.2329 1.1472C12.2329 1.03845 12.2545 0.930799 12.2965 0.830577C12.3384 0.730356 12.3999 0.639588 12.4772 0.563612C12.5546 0.487637 12.6462 0.427988 12.7468 0.388173C12.8474 0.348359 12.9548 0.329183 13.0629 0.331775H16.3678C16.4759 0.329183 16.5834 0.348359 16.684 0.388173C16.7845 0.427988 16.8762 0.487637 16.9535 0.563612C17.0309 0.639588 17.0923 0.730356 17.1343 0.830577C17.1762 0.930799 17.1978 1.03845 17.1978 1.1472C17.1978 1.25595 17.1762 1.3636 17.1343 1.46382C17.0923 1.56404 17.0309 1.65481 16.9535 1.73079C16.8762 1.80676 16.7845 1.86641 16.684 1.90622C16.5834 1.94604 16.4759 1.96521 16.3678 1.96262Z" fill="#AB2346"/>
<path d="M18.0091 4.43333H13.0639C12.9558 4.43592 12.8484 4.41674 12.7478 4.37693C12.6472 4.33711 12.5555 4.27746 12.4782 4.20149C12.4009 4.12551 12.3394 4.03474 12.2974 3.93452C12.2555 3.8343 12.2339 3.72665 12.2339 3.6179C12.2339 3.50915 12.2555 3.4015 12.2974 3.30128C12.3394 3.20106 12.4009 3.11029 12.4782 3.03432C12.5555 2.95834 12.6472 2.89869 12.7478 2.85888C12.8484 2.81906 12.9558 2.79989 13.0639 2.80248H18.0091C18.1171 2.79989 18.2246 2.81906 18.3252 2.85888C18.4258 2.89869 18.5174 2.95834 18.5948 3.03432C18.6721 3.11029 18.7335 3.20106 18.7755 3.30128C18.8174 3.4015 18.8391 3.50915 18.8391 3.6179C18.8391 3.72665 18.8174 3.8343 18.7755 3.93452C18.7335 4.03474 18.6721 4.12551 18.5948 4.20149C18.5174 4.27746 18.4258 4.33711 18.3252 4.37693C18.2246 4.41674 18.1171 4.43592 18.0091 4.43333Z" fill="#AB2346"/>
<path d="M19.6377 6.90451H13.0633C12.8517 6.89944 12.6505 6.8113 12.5026 6.65893C12.3548 6.50657 12.272 6.30205 12.272 6.08909C12.272 5.87613 12.3548 5.67162 12.5026 5.51925C12.6505 5.36688 12.8517 5.27874 13.0633 5.27367H19.6377C19.7458 5.27108 19.8533 5.29025 19.9538 5.33007C20.0544 5.36988 20.1461 5.42953 20.2234 5.5055C20.3008 5.58148 20.3622 5.67225 20.4041 5.77247C20.4461 5.87269 20.4677 5.98034 20.4677 6.08909C20.4677 6.19784 20.4461 6.30549 20.4041 6.40571C20.3622 6.50593 20.3008 6.5967 20.2234 6.67268C20.1461 6.74865 20.0544 6.8083 19.9538 6.84812C19.8533 6.88793 19.7458 6.9071 19.6377 6.90451Z" fill="#AB2346"/>
<path d="M16.3678 11.8464H13.0629C12.9548 11.849 12.8474 11.8298 12.7468 11.79C12.6462 11.7502 12.5546 11.6905 12.4772 11.6146C12.3999 11.5386 12.3384 11.4478 12.2965 11.3476C12.2545 11.2474 12.2329 11.1397 12.2329 11.031C12.2329 10.9222 12.2545 10.8146 12.2965 10.7144C12.3384 10.6141 12.3999 10.5234 12.4772 10.4474C12.5546 10.3714 12.6462 10.3118 12.7468 10.272C12.8474 10.2321 12.9548 10.213 13.0629 10.2156H16.3678C16.4759 10.213 16.5834 10.2321 16.684 10.272C16.7845 10.3118 16.8762 10.3714 16.9535 10.4474C17.0309 10.5234 17.0923 10.6141 17.1343 10.7144C17.1762 10.8146 17.1978 10.9222 17.1978 11.031C17.1978 11.1397 17.1762 11.2474 17.1343 11.3476C17.0923 11.4478 17.0309 11.5386 16.9535 11.6146C16.8762 11.6905 16.7845 11.7502 16.684 11.79C16.5834 11.8298 16.4759 11.849 16.3678 11.8464Z" fill="#AB2346"/>
<path d="M15.5479 14.3176H13.062C12.9539 14.3202 12.8464 14.301 12.7458 14.2612C12.6453 14.2214 12.5536 14.1617 12.4763 14.0858C12.3989 14.0098 12.3375 13.919 12.2955 13.8188C12.2536 13.7186 12.2319 13.6109 12.2319 13.5022C12.2319 13.3934 12.2536 13.2858 12.2955 13.1856C12.3375 13.0853 12.3989 12.9946 12.4763 12.9186C12.5536 12.8426 12.6453 12.783 12.7458 12.7432C12.8464 12.7033 12.9539 12.6842 13.062 12.6868H15.5479C15.656 12.6842 15.7634 12.7033 15.864 12.7432C15.9646 12.783 16.0562 12.8426 16.1336 12.9186C16.2109 12.9946 16.2724 13.0853 16.3143 13.1856C16.3563 13.2858 16.3779 13.3934 16.3779 13.5022C16.3779 13.6109 16.3563 13.7186 16.3143 13.8188C16.2724 13.919 16.2109 14.0098 16.1336 14.0858C16.0562 14.1617 15.9646 14.2214 15.864 14.2612C15.7634 14.301 15.656 14.3202 15.5479 14.3176Z" fill="#AB2346"/>
<path d="M10.6343 1.96262H8.97015C8.8621 1.96521 8.75461 1.94604 8.65402 1.90622C8.55344 1.86641 8.46178 1.80676 8.38445 1.73079C8.30711 1.65481 8.24568 1.56404 8.20372 1.46382C8.16177 1.3636 8.14014 1.25595 8.14014 1.1472C8.14014 1.03845 8.16177 0.930799 8.20372 0.830577C8.24568 0.730356 8.30711 0.639588 8.38445 0.563612C8.46178 0.487637 8.55344 0.427988 8.65402 0.388173C8.75461 0.348359 8.8621 0.329183 8.97015 0.331775H10.6343C10.7424 0.329183 10.8499 0.348359 10.9505 0.388173C11.0511 0.427988 11.1427 0.487637 11.2201 0.563612C11.2974 0.639588 11.3588 0.730356 11.4008 0.830577C11.4427 0.930799 11.4644 1.03845 11.4644 1.1472C11.4644 1.25595 11.4427 1.3636 11.4008 1.46382C11.3588 1.56404 11.2974 1.65481 11.2201 1.73079C11.1427 1.80676 11.0511 1.86641 10.9505 1.90622C10.8499 1.94604 10.7424 1.96521 10.6343 1.96262Z" fill="#82AEC9"/>
<path d="M10.6343 4.43333H7.3432C7.23514 4.43592 7.12768 4.41674 7.0271 4.37693C6.92651 4.33711 6.83486 4.27746 6.75752 4.20149C6.68019 4.12551 6.61873 4.03474 6.57677 3.93452C6.53481 3.8343 6.51318 3.72665 6.51318 3.6179C6.51318 3.50915 6.53481 3.4015 6.57677 3.30128C6.61873 3.20106 6.68019 3.11029 6.75752 3.03432C6.83486 2.95834 6.92651 2.89869 7.0271 2.85888C7.12768 2.81906 7.23514 2.79989 7.3432 2.80248H10.6343C10.7424 2.79989 10.8498 2.81906 10.9504 2.85888C11.051 2.89869 11.1427 2.95834 11.22 3.03432C11.2973 3.11029 11.3588 3.20106 11.4008 3.30128C11.4427 3.4015 11.4643 3.50915 11.4643 3.6179C11.4643 3.72665 11.4427 3.8343 11.4008 3.93452C11.3588 4.03474 11.2973 4.12551 11.22 4.20149C11.1427 4.27746 11.051 4.33711 10.9504 4.37693C10.8498 4.41674 10.7424 4.43592 10.6343 4.43333Z" fill="#82AEC9"/>
<path d="M10.6336 6.90451H5.71381C5.60575 6.9071 5.49826 6.88793 5.39767 6.84812C5.29709 6.8083 5.20544 6.74865 5.1281 6.67268C5.05077 6.5967 4.9893 6.50593 4.94735 6.40571C4.90539 6.30549 4.88379 6.19784 4.88379 6.08909C4.88379 5.98034 4.90539 5.87269 4.94735 5.77247C4.9893 5.67225 5.05077 5.58148 5.1281 5.5055C5.20544 5.42953 5.29709 5.36988 5.39767 5.33007C5.49826 5.29025 5.60575 5.27108 5.71381 5.27367H10.6336C10.7417 5.27108 10.8492 5.29025 10.9498 5.33007C11.0504 5.36988 11.142 5.42953 11.2193 5.5055C11.2967 5.58148 11.3581 5.67225 11.4001 5.77247C11.4421 5.87269 11.4637 5.98034 11.4637 6.08909C11.4637 6.19784 11.4421 6.30549 11.4001 6.40571C11.3581 6.50593 11.2967 6.5967 11.2193 6.67268C11.142 6.74865 11.0504 6.8083 10.9498 6.84812C10.8492 6.88793 10.7417 6.9071 10.6336 6.90451Z" fill="#82AEC9"/>
<path d="M10.6344 9.37571H4.06781C3.95975 9.3783 3.85229 9.35912 3.75171 9.31931C3.65112 9.27949 3.55947 9.21984 3.48213 9.14387C3.4048 9.06789 3.34334 8.97713 3.30138 8.8769C3.25942 8.77668 3.23779 8.66903 3.23779 8.56028C3.23779 8.45153 3.25942 8.34388 3.30138 8.24366C3.34334 8.14344 3.4048 8.05267 3.48213 7.9767C3.55947 7.90072 3.65112 7.84107 3.75171 7.80126C3.85229 7.76144 3.95975 7.74227 4.06781 7.74486H10.6344C10.7424 7.74227 10.8499 7.76144 10.9505 7.80126C11.0511 7.84107 11.1427 7.90072 11.2201 7.9767C11.2974 8.05267 11.3589 8.14344 11.4008 8.24366C11.4428 8.34388 11.4644 8.45153 11.4644 8.56028C11.4644 8.66903 11.4428 8.77668 11.4008 8.8769C11.3589 8.97713 11.2974 9.06789 11.2201 9.14387C11.1427 9.21984 11.0511 9.27949 10.9505 9.31931C10.8499 9.35912 10.7424 9.3783 10.6344 9.37571Z" fill="#82AEC9"/>
<path d="M21.2785 9.37571H13.0639C12.9558 9.3783 12.8484 9.35912 12.7478 9.31931C12.6472 9.27949 12.5555 9.21984 12.4782 9.14387C12.4009 9.06789 12.3394 8.97713 12.2974 8.8769C12.2555 8.77668 12.2339 8.66903 12.2339 8.56028C12.2339 8.45153 12.2555 8.34388 12.2974 8.24366C12.3394 8.14344 12.4009 8.05267 12.4782 7.9767C12.5555 7.90072 12.6472 7.84107 12.7478 7.80126C12.8484 7.76144 12.9558 7.74227 13.0639 7.74486H21.2785C21.3866 7.74227 21.4941 7.76144 21.5946 7.80126C21.6952 7.84107 21.7869 7.90072 21.8642 7.9767C21.9416 8.05267 22.003 8.14344 22.045 8.24366C22.0869 8.34388 22.1085 8.45153 22.1085 8.56028C22.1085 8.66903 22.0869 8.77668 22.045 8.8769C22.003 8.97713 21.9416 9.06789 21.8642 9.14387C21.7869 9.21984 21.6952 9.27949 21.5946 9.31931C21.4941 9.35912 21.3866 9.3783 21.2785 9.37571Z" fill="#82AEC9"/>
<path d="M10.6343 11.8464H5.70843C5.60038 11.849 5.49291 11.8298 5.39233 11.79C5.29175 11.7502 5.20009 11.6905 5.12276 11.6146C5.04542 11.5386 4.98396 11.4478 4.942 11.3476C4.90005 11.2474 4.87842 11.1397 4.87842 11.031C4.87842 10.9222 4.90005 10.8146 4.942 10.7144C4.98396 10.6141 5.04542 10.5234 5.12276 10.4474C5.20009 10.3714 5.29175 10.3118 5.39233 10.272C5.49291 10.2321 5.60038 10.213 5.70843 10.2156H10.6343C10.7423 10.213 10.8498 10.2321 10.9504 10.272C11.051 10.3118 11.1426 10.3714 11.22 10.4474C11.2973 10.5234 11.3588 10.6141 11.4007 10.7144C11.4427 10.8146 11.4643 10.9222 11.4643 11.031C11.4643 11.1397 11.4427 11.2474 11.4007 11.3476C11.3588 11.4478 11.2973 11.5386 11.22 11.6146C11.1426 11.6905 11.051 11.7502 10.9504 11.79C10.8498 11.8298 10.7423 11.849 10.6343 11.8464Z" fill="#82AEC9"/>
<path d="M21.2785 11.8464H18.7958C18.5842 11.8413 18.3829 11.7532 18.2351 11.6008C18.0872 11.4485 18.0044 11.2439 18.0044 11.031C18.0044 10.818 18.0872 10.6135 18.2351 10.4611C18.3829 10.3088 18.5842 10.2206 18.7958 10.2156H21.2785C21.3866 10.213 21.494 10.2321 21.5946 10.272C21.6952 10.3118 21.7869 10.3714 21.8642 10.4474C21.9415 10.5234 22.003 10.6141 22.0449 10.7144C22.0869 10.8146 22.1085 10.9222 22.1085 11.031C22.1085 11.1397 22.0869 11.2474 22.0449 11.3476C22.003 11.4478 21.9415 11.5386 21.8642 11.6146C21.7869 11.6905 21.6952 11.7502 21.5946 11.79C21.494 11.8298 21.3866 11.849 21.2785 11.8464Z" fill="#82AEC9"/>
<path d="M10.6335 14.3176H7.33685C7.2288 14.3202 7.1213 14.301 7.02072 14.2612C6.92014 14.2214 6.82848 14.1617 6.75115 14.0858C6.67381 14.0098 6.61235 13.919 6.57039 13.8188C6.52844 13.7186 6.50684 13.6109 6.50684 13.5022C6.50684 13.3934 6.52844 13.2858 6.57039 13.1856C6.61235 13.0853 6.67381 12.9946 6.75115 12.9186C6.82848 12.8426 6.92014 12.783 7.02072 12.7432C7.1213 12.7033 7.2288 12.6842 7.33685 12.6868H10.6335C10.7415 12.6842 10.849 12.7033 10.9496 12.7432C11.0502 12.783 11.1418 12.8426 11.2192 12.9186C11.2965 12.9946 11.358 13.0853 11.3999 13.1856C11.4419 13.2858 11.4635 13.3934 11.4635 13.5022C11.4635 13.6109 11.4419 13.7186 11.3999 13.8188C11.358 13.919 11.2965 14.0098 11.2192 14.0858C11.1418 14.1617 11.0502 14.2214 10.9496 14.2612C10.849 14.301 10.7415 14.3202 10.6335 14.3176Z" fill="#82AEC9"/>
<path d="M21.4313 14.3176H17.9896C17.778 14.3125 17.5768 14.2244 17.4289 14.072C17.281 13.9197 17.1982 13.7151 17.1982 13.5022C17.1982 13.2892 17.281 13.0847 17.4289 12.9323C17.5768 12.78 17.778 12.6918 17.9896 12.6868H21.4313C21.5393 12.6842 21.6468 12.7033 21.7474 12.7432C21.848 12.783 21.9396 12.8426 22.0169 12.9186C22.0943 12.9946 22.1557 13.0853 22.1977 13.1856C22.2397 13.2858 22.2613 13.3934 22.2613 13.5022C22.2613 13.6109 22.2397 13.7186 22.1977 13.8188C22.1557 13.919 22.0943 14.0098 22.0169 14.0858C21.9396 14.1617 21.848 14.2214 21.7474 14.2612C21.6468 14.301 21.5393 14.3202 21.4313 14.3176Z" fill="#82AEC9"/>
<path d="M10.6343 16.7888H8.97015C8.8621 16.7914 8.75461 16.7722 8.65402 16.7324C8.55344 16.6926 8.46178 16.6329 8.38445 16.557C8.30711 16.481 8.24568 16.3902 8.20372 16.29C8.16177 16.1898 8.14014 16.0821 8.14014 15.9734C8.14014 15.8646 8.16177 15.757 8.20372 15.6567C8.24568 15.5565 8.30711 15.4658 8.38445 15.3898C8.46178 15.3138 8.55344 15.2542 8.65402 15.2143C8.75461 15.1745 8.8621 15.1554 8.97015 15.1579H10.6343C10.7424 15.1554 10.8499 15.1745 10.9505 15.2143C11.0511 15.2542 11.1427 15.3138 11.2201 15.3898C11.2974 15.4658 11.3588 15.5565 11.4008 15.6567C11.4427 15.757 11.4644 15.8646 11.4644 15.9734C11.4644 16.0821 11.4427 16.1898 11.4008 16.29C11.3588 16.3902 11.2974 16.481 11.2201 16.557C11.1427 16.6329 11.0511 16.6926 10.9505 16.7324C10.8499 16.7722 10.7424 16.7914 10.6343 16.7888Z" fill="#82AEC9"/>
<path d="M16.3678 16.7888H13.0629C12.9548 16.7914 12.8474 16.7722 12.7468 16.7324C12.6462 16.6926 12.5546 16.6329 12.4772 16.557C12.3999 16.481 12.3384 16.3902 12.2965 16.29C12.2545 16.1898 12.2329 16.0821 12.2329 15.9734C12.2329 15.8646 12.2545 15.757 12.2965 15.6567C12.3384 15.5565 12.3999 15.4658 12.4772 15.3898C12.5546 15.3138 12.6462 15.2542 12.7468 15.2143C12.8474 15.1745 12.9548 15.1554 13.0629 15.1579H16.3678C16.4759 15.1554 16.5834 15.1745 16.684 15.2143C16.7845 15.2542 16.8762 15.3138 16.9535 15.3898C17.0309 15.4658 17.0923 15.5565 17.1343 15.6567C17.1762 15.757 17.1978 15.8646 17.1978 15.9734C17.1978 16.0821 17.1762 16.1898 17.1343 16.29C17.0923 16.3902 17.0309 16.481 16.9535 16.557C16.8762 16.6329 16.7845 16.6926 16.684 16.7324C16.5834 16.7722 16.4759 16.7914 16.3678 16.7888Z" fill="#82AEC9"/>
<path d="M7.37461 1.76946C7.37461 1.89267 7.33829 2.01312 7.27025 2.11556C7.20222 2.21801 7.1055 2.29786 6.99236 2.34501C6.87922 2.39216 6.75473 2.4045 6.63462 2.38046C6.51451 2.35642 6.40418 2.29709 6.31759 2.20997C6.23099 2.12284 6.17202 2.01184 6.14813 1.89099C6.12424 1.77015 6.1365 1.64489 6.18336 1.53106C6.23023 1.41722 6.30958 1.31993 6.41141 1.25147C6.51323 1.18302 6.63295 1.14648 6.75541 1.14648C6.91963 1.14648 7.07712 1.21212 7.19324 1.32895C7.30935 1.44578 7.37461 1.60424 7.37461 1.76946Z" fill="#1D365A"/>
<path d="M7.35068 15.7612C7.35068 15.8844 7.31436 16.0048 7.24633 16.1073C7.17829 16.2097 7.08158 16.2896 6.96844 16.3367C6.8553 16.3839 6.7308 16.3962 6.61069 16.3722C6.49058 16.3481 6.38026 16.2888 6.29366 16.2017C6.20707 16.1145 6.14809 16.0035 6.1242 15.8827C6.10031 15.7618 6.11257 15.6366 6.15944 15.5228C6.2063 15.4089 6.28569 15.3116 6.38751 15.2432C6.48933 15.1747 6.60902 15.1382 6.73149 15.1382C6.8957 15.1382 7.05322 15.2038 7.16934 15.3206C7.28546 15.4375 7.35068 15.5959 7.35068 15.7612Z" fill="#1D365A"/>
<path d="M5.30102 4.43382H4.48249C4.37499 4.43382 4.27188 4.39085 4.19586 4.31437C4.11985 4.23789 4.07715 4.13416 4.07715 4.02599C4.07715 3.91783 4.11985 3.8141 4.19586 3.73761C4.27188 3.66113 4.37499 3.61816 4.48249 3.61816H5.30102C5.40852 3.61816 5.51163 3.66113 5.58764 3.73761C5.66366 3.8141 5.70636 3.91783 5.70636 4.02599C5.70636 4.13416 5.66366 4.23789 5.58764 4.31437C5.51163 4.39085 5.40852 4.43382 5.30102 4.43382Z" fill="#1D365A"/>
<path d="M3.66115 6.90501H2.02644C1.91893 6.90501 1.81583 6.86205 1.73981 6.78556C1.66379 6.70908 1.62109 6.60535 1.62109 6.49718C1.62109 6.38902 1.66379 6.28529 1.73981 6.20881C1.81583 6.13232 1.91893 6.08936 2.02644 6.08936H3.66115C3.76866 6.08936 3.87177 6.13232 3.94778 6.20881C4.0238 6.28529 4.06652 6.38902 4.06652 6.49718C4.06652 6.60535 4.0238 6.70908 3.94778 6.78556C3.87177 6.86205 3.76866 6.90501 3.66115 6.90501Z" fill="#1D365A"/>
<path d="M3.67196 11.0134H1.21687C1.10936 11.0134 1.00628 10.9704 0.930266 10.894C0.854249 10.8175 0.811523 10.7137 0.811523 10.6056C0.811523 10.4974 0.854249 10.3937 0.930266 10.3172C1.00628 10.2407 1.10936 10.1978 1.21687 10.1978H3.67196C3.77947 10.1978 3.88257 10.2407 3.95859 10.3172C4.03461 10.3937 4.07731 10.4974 4.07731 10.6056C4.07731 10.7137 4.03461 10.8175 3.95859 10.894C3.88257 10.9704 3.77947 11.0134 3.67196 11.0134Z" fill="#1D365A"/>
<path d="M5.3047 13.4763H4.48249C4.37499 13.4763 4.27188 13.4333 4.19586 13.3569C4.11985 13.2804 4.07715 13.1766 4.07715 13.0685C4.07715 12.9603 4.11985 12.8566 4.19586 12.7801C4.27188 12.7036 4.37499 12.6606 4.48249 12.6606H5.3047C5.4122 12.6606 5.51531 12.7036 5.59133 12.7801C5.66734 12.8566 5.71004 12.9603 5.71004 13.0685C5.71004 13.1766 5.66734 13.2804 5.59133 13.3569C5.51531 13.4333 5.4122 13.4763 5.3047 13.4763Z" fill="#1D365A"/>
<path d="M30.7463 8.02038C30.9664 8.29583 31.0846 8.63965 31.0806 8.99305C31.0868 9.30104 31.0027 9.60405 30.8389 9.86429C30.6669 10.124 30.4241 10.3282 30.1396 10.4525C29.7987 10.6014 29.4297 10.6737 29.0582 10.6647H26.4111V4.49004H28.9431C29.3124 4.481 29.6794 4.55028 30.0203 4.69338C30.2993 4.81034 30.5379 5.00735 30.7063 5.25984C30.8627 5.50519 30.9437 5.79148 30.9392 6.08291C30.9506 6.40796 30.8497 6.72693 30.6538 6.98564C30.4583 7.23082 30.1929 7.40992 29.8933 7.49884C30.2323 7.5596 30.5366 7.74561 30.7463 8.02038ZM27.6417 7.03844H28.7677C29.0096 7.05428 29.2492 6.98375 29.4444 6.83928C29.5248 6.76884 29.5881 6.68075 29.6293 6.5818C29.6705 6.48286 29.6885 6.37571 29.682 6.26864C29.6882 6.16092 29.6701 6.05319 29.6289 5.95354C29.5878 5.8539 29.5247 5.76494 29.4444 5.69338C29.2505 5.54593 29.0103 5.4736 28.7677 5.48958H27.6417V7.03844ZM29.5807 9.44696C29.6654 9.37249 29.7319 9.27951 29.7753 9.17513C29.8188 9.07076 29.8379 8.95777 29.8311 8.84483C29.837 8.72753 29.8163 8.6104 29.7707 8.50232C29.725 8.39423 29.6555 8.29801 29.5674 8.22093C29.3648 8.06173 29.1118 7.98161 28.8552 7.99537H27.6417V9.65864H28.8819C29.1327 9.67406 29.3807 9.59883 29.5812 9.4465" fill="#AB2346"/>
<path d="M33.9053 5.91456C34.1722 5.76397 34.4741 5.68756 34.78 5.69316V6.99515H34.4545C34.2902 6.96839 34.1218 6.98223 33.964 7.03546C33.8062 7.0887 33.6636 7.17974 33.5485 7.30074C33.4334 7.42174 33.3492 7.56909 33.3033 7.73007C33.2573 7.89106 33.251 8.06087 33.2848 8.22488V10.6668H32.0542V5.76402H33.2833V6.52502C33.4353 6.27195 33.6487 6.06188 33.9035 5.91456" fill="#AB2346"/>
<path d="M36.5993 10.431C36.227 10.2247 35.9205 9.91632 35.7154 9.54174C35.4951 9.13512 35.384 8.67774 35.3931 8.21474C35.3836 7.75062 35.4974 7.29237 35.7227 6.88727C35.9344 6.51171 36.2468 6.20357 36.6241 5.99797C37.0179 5.79175 37.4554 5.68408 37.8993 5.68408C38.3433 5.68408 38.7807 5.79175 39.1745 5.99797C39.5518 6.20361 39.8642 6.51174 40.0759 6.88727C40.3014 7.29231 40.4154 7.75058 40.406 8.21474C40.4154 8.67982 40.2984 9.13865 40.0676 9.54174C39.8498 9.91721 39.5333 10.2249 39.1529 10.431C38.7565 10.6436 38.313 10.7516 37.8639 10.7451C37.4219 10.7519 36.9856 10.6437 36.5974 10.431M38.4927 9.5019C38.6938 9.38785 38.8573 9.21721 38.9632 9.01093C39.0868 8.76442 39.1473 8.49073 39.1391 8.21474C39.1518 8.0202 39.1262 7.82505 39.0636 7.64054C39.001 7.45604 38.9028 7.28582 38.7745 7.1397C38.6597 7.01821 38.5211 6.92208 38.3674 6.85741C38.2137 6.79274 38.0484 6.76095 37.8818 6.76406C37.7165 6.76042 37.5523 6.79201 37.3999 6.85675C37.2476 6.92149 37.1106 7.01792 36.9979 7.1397C36.7439 7.43732 36.616 7.82328 36.6416 8.21474C36.6159 8.6047 36.7404 8.98966 36.9892 9.28977C37.0996 9.41194 37.2349 9.50877 37.3858 9.57366C37.5367 9.63856 37.6998 9.67001 37.8639 9.66587C38.084 9.66658 38.3005 9.60981 38.4927 9.5019Z" fill="#AB2346"/>
<path d="M41.3386 6.87913C41.518 6.5147 41.7953 6.2082 42.1392 5.99446C42.4798 5.78703 42.8713 5.67969 43.2694 5.6846C43.6009 5.67703 43.929 5.75315 44.2237 5.906C44.4805 6.03981 44.7043 6.22971 44.8788 6.46181V5.76426H46.119V10.667H44.8788V9.94953C44.709 10.1898 44.4843 10.3855 44.2237 10.5202C43.9265 10.6752 43.5953 10.7527 43.2606 10.7457C42.8642 10.7497 42.475 10.6391 42.1392 10.4271C41.7954 10.2074 41.5184 9.89667 41.3386 9.52897C41.136 9.11518 41.035 8.65853 41.044 8.19733C41.0353 7.74032 41.1363 7.28841 41.3386 6.87913ZM44.7025 7.4405C44.5934 7.23391 44.4288 7.06234 44.2274 6.94536C44.0324 6.83137 43.8107 6.77174 43.5852 6.7726C43.3587 6.77011 43.1359 6.83026 42.941 6.94649C42.7462 7.06272 42.5868 7.23056 42.4803 7.4317C42.3553 7.66689 42.2931 7.93071 42.2999 8.19733C42.2938 8.4667 42.3559 8.73319 42.4803 8.97176C42.5897 9.18193 42.7539 9.35809 42.9554 9.48126C43.1449 9.59733 43.3624 9.65856 43.5842 9.65819C43.8097 9.65913 44.0314 9.59966 44.2265 9.48589C44.4278 9.36867 44.5924 9.19696 44.7015 8.99029C44.8172 8.7488 44.8773 8.48417 44.8773 8.21609C44.8773 7.94801 44.8172 7.68338 44.7015 7.44189" fill="#AB2346"/>
<path d="M47.264 6.8787C47.4415 6.51523 47.718 6.20998 48.0613 5.9985C48.4046 5.78702 48.8005 5.67801 49.203 5.68417C49.5168 5.68357 49.8265 5.75468 50.109 5.89213C50.3793 6.01702 50.6149 6.20696 50.7949 6.44517V4.11816H52.0439V10.6656H50.7949V9.9403C50.6358 10.1884 50.4144 10.3899 50.1532 10.5244C49.8568 10.6768 49.5275 10.7529 49.1947 10.7458C48.797 10.7494 48.4066 10.6388 48.0691 10.4271C47.7234 10.2085 47.4449 9.89755 47.2644 9.529C47.0618 9.11522 46.9607 8.65856 46.9698 8.19736C46.961 7.74035 47.0621 7.28797 47.2644 6.8787M50.6283 7.44054C50.5193 7.23401 50.3548 7.06244 50.1536 6.9454C49.9588 6.83149 49.7373 6.77185 49.5119 6.77263C49.2854 6.77014 49.0626 6.83029 48.8677 6.94652C48.6729 7.06275 48.5135 7.23059 48.407 7.43173C48.282 7.66692 48.2198 7.93074 48.2266 8.19736C48.2205 8.46673 48.2826 8.73322 48.407 8.9718C48.5164 9.18196 48.6806 9.35812 48.8821 9.48129C49.0716 9.59739 49.2892 9.65862 49.511 9.65823C49.7363 9.65908 49.9578 9.59961 50.1527 9.48593C50.3539 9.36864 50.5183 9.19694 50.6274 8.99033C50.7432 8.74887 50.8033 8.48423 50.8033 8.21613C50.8033 7.94802 50.7432 7.68338 50.6274 7.44192" fill="#AB2346"/>
<path d="M53.9926 10.5274C53.6964 10.3987 53.4376 10.1961 53.2409 9.93871C53.0601 9.70131 52.9544 9.41471 52.9375 9.11611H54.1777C54.189 9.20921 54.2194 9.29892 54.267 9.3796C54.3145 9.46028 54.3782 9.53016 54.4539 9.58485C54.6283 9.71281 54.8404 9.77806 55.0561 9.77011C55.2495 9.78139 55.4416 9.73186 55.6057 9.62838C55.6665 9.58967 55.7165 9.5361 55.7511 9.47268C55.7857 9.40927 55.8038 9.33807 55.8037 9.26572C55.8041 9.18839 55.7813 9.11273 55.7381 9.04874C55.695 8.98474 55.6336 8.9354 55.562 8.90722C55.3137 8.79726 55.0561 8.70984 54.7923 8.64599C54.4886 8.57619 54.1903 8.48456 53.8996 8.37178C53.6684 8.27777 53.4631 8.12906 53.3012 7.93825C53.1247 7.71546 53.0356 7.43531 53.0507 7.15085C53.0495 6.8854 53.131 6.62623 53.2837 6.40977C53.4533 6.17396 53.6847 5.9902 53.9521 5.87897C54.2763 5.74231 54.6255 5.67586 54.9769 5.68397C55.4772 5.65792 55.9702 5.8134 56.3663 6.12213C56.5382 6.26796 56.6779 6.44838 56.7764 6.6518C56.8748 6.85522 56.9299 7.07712 56.938 7.30323H55.7595C55.7538 7.21329 55.7293 7.12557 55.6876 7.04578C55.646 6.96598 55.5881 6.89589 55.5178 6.84006C55.3561 6.73666 55.1701 6.67795 54.9787 6.66982C54.7872 6.66168 54.597 6.70443 54.4272 6.79374C54.3701 6.83066 54.3235 6.88187 54.2919 6.94236C54.2604 7.00285 54.245 7.07053 54.2472 7.13881C54.2467 7.21903 54.2699 7.2976 54.3137 7.36462C54.3575 7.43163 54.4201 7.48409 54.4935 7.51537C54.7387 7.6291 54.9952 7.71651 55.2586 7.77614C55.5549 7.84698 55.8458 7.93876 56.1292 8.0508C56.3593 8.14622 56.5629 8.29642 56.7226 8.4885C56.8981 8.71064 56.9901 8.98803 56.9822 9.27174C56.9855 9.54366 56.904 9.8098 56.7493 10.0327C56.5801 10.268 56.3484 10.4505 56.0808 10.5594C55.7589 10.6922 55.4132 10.7569 55.0653 10.7493C54.6963 10.7554 54.3302 10.6814 53.9922 10.5325" fill="#AB2346"/>
<path d="M59.8612 5.91001C60.1555 5.75564 60.4837 5.67808 60.8155 5.68444C61.2136 5.67942 61.6051 5.7866 61.9457 5.99385C62.2886 6.20675 62.5658 6.51147 62.7463 6.87388C62.9494 7.28435 63.0505 7.73828 63.0409 8.19672C63.0499 8.65791 62.9488 9.11454 62.7463 9.52835C62.5664 9.89595 62.2894 10.2067 61.9457 10.4265C61.607 10.6393 61.2148 10.7499 60.8155 10.7451C60.487 10.752 60.1621 10.6759 59.8704 10.5237C59.612 10.3886 59.3856 10.199 59.2066 9.96791V13.0026H57.9751V5.76411H59.2066V6.47185C59.3785 6.23583 59.6024 6.04344 59.8612 5.91001ZM61.6027 7.43155C61.4929 7.22672 61.3286 7.05671 61.1281 6.94058C60.934 6.82908 60.7141 6.77109 60.4905 6.77245C60.2693 6.77193 60.052 6.83162 59.8617 6.94521C59.6609 7.06483 59.4967 7.23773 59.387 7.44498C59.2684 7.68406 59.2067 7.94759 59.2067 8.21478C59.2067 8.48197 59.2684 8.74551 59.387 8.98458C59.4967 9.19179 59.6609 9.36468 59.8617 9.48435C60.0538 9.59785 60.2727 9.6573 60.4955 9.65649C60.7183 9.65567 60.9368 9.59462 61.1281 9.47972C61.3285 9.35753 61.4924 9.18329 61.6027 8.97532C61.7281 8.73559 61.7902 8.46751 61.7832 8.19672C61.79 7.93009 61.7278 7.66672 61.6027 7.43155Z" fill="#AB2346"/>
<path d="M68.4135 8.5863H64.8517C64.8621 8.90179 64.9942 9.20081 65.2199 9.42002C65.4377 9.62114 65.7246 9.72912 66.02 9.72109C66.2233 9.73325 66.4254 9.68304 66.5997 9.57709C66.774 9.47114 66.9122 9.31445 66.996 9.12776H68.3241C68.1876 9.59399 67.9036 10.0027 67.5153 10.2917C67.0899 10.604 66.573 10.7643 66.0467 10.747C65.6062 10.7541 65.1714 10.6459 64.7849 10.433C64.4158 10.2269 64.1136 9.91815 63.9144 9.54369C63.7002 9.13513 63.5928 8.67849 63.6022 8.21669C63.5921 7.75235 63.698 7.29287 63.9102 6.88042C64.1055 6.50723 64.4051 6.1997 64.772 5.99575C65.1613 5.79373 65.5927 5.68758 66.0307 5.68605C66.4687 5.68452 66.9009 5.78765 67.2916 5.98695C67.6523 6.18201 67.9488 6.47866 68.1446 6.84059C68.3521 7.23084 68.4565 7.66813 68.448 8.11062C68.4492 8.27049 68.4375 8.43019 68.413 8.58816M67.1728 7.75444C67.1754 7.60932 67.1459 7.46543 67.0866 7.33312C67.0273 7.20082 66.9396 7.08338 66.8298 6.98927C66.6017 6.79558 66.3106 6.69319 66.0122 6.70163C65.73 6.69298 65.4549 6.79229 65.2425 6.97954C65.0257 7.18212 64.8896 7.45729 64.8599 7.75351L67.1728 7.75444Z" fill="#AB2346"/>
<path d="M69.4703 6.88315C69.6656 6.51286 69.9614 6.20604 70.3234 5.99848C70.7047 5.78446 71.1357 5.67609 71.5723 5.68445C72.1086 5.66344 72.6363 5.82391 73.0713 6.14021C73.4771 6.45951 73.7587 6.91188 73.8672 7.41858H72.5391C72.4769 7.21775 72.3519 7.04248 72.1827 6.91881C72.0001 6.7932 71.7823 6.72973 71.5613 6.73771C71.4018 6.73111 71.243 6.76254 71.0979 6.82943C70.9527 6.89632 70.8254 6.99678 70.7262 7.12261C70.5249 7.44954 70.4182 7.82649 70.4182 8.21108C70.4182 8.59566 70.5249 8.97262 70.7262 9.29954C70.8254 9.42537 70.9527 9.52583 71.0979 9.59272C71.243 9.65961 71.4018 9.69104 71.5613 9.68444C71.7761 9.70299 71.9907 9.64613 72.1686 9.52354C72.3466 9.40094 72.4768 9.22017 72.5372 9.01191H73.8654C73.7495 9.5131 73.467 9.95949 73.0648 10.2773C72.6342 10.6004 72.1068 10.7658 71.57 10.746C71.1334 10.7544 70.7024 10.6461 70.3211 10.432C69.9592 10.2244 69.6633 9.91758 69.468 9.54734C69.2655 9.13302 69.1602 8.67744 69.1602 8.21571C69.1602 7.75398 69.2655 7.2984 69.468 6.88408" fill="#AB2346"/>
<path d="M76.2899 6.78149V9.15296C76.2839 9.21773 76.2913 9.28306 76.3118 9.34478C76.3322 9.4065 76.3652 9.46327 76.4086 9.51146C76.5241 9.59628 76.6664 9.63551 76.8087 9.62169H77.3805V10.6657H76.6066C75.5689 10.6657 75.0501 10.1585 75.0501 9.14416V6.78196H74.4678V5.76297H75.0483V4.55176H76.2881V5.76389H77.3786V6.78288L76.2899 6.78149Z" fill="#AB2346"/>
<path d="M80.2407 5.91456C80.5076 5.76395 80.8095 5.68754 81.1154 5.69316V6.99515H80.7899C80.6255 6.96828 80.4572 6.98203 80.2993 7.03523C80.1414 7.08843 79.9987 7.17947 79.8836 7.3005C79.7685 7.42153 79.6843 7.56892 79.6384 7.72996C79.5925 7.891 79.5863 8.06086 79.6202 8.22488V10.6668H78.3887V5.76403H79.6202V6.52503C79.772 6.27189 79.9859 6.0618 80.2407 5.91456Z" fill="#AB2346"/>
<path d="M86.5648 5.76465V10.6665H85.3246V10.0472C85.1625 10.2629 84.9495 10.4346 84.705 10.547C84.4449 10.6688 84.161 10.7307 83.8741 10.7281C83.5213 10.7355 83.1726 10.6518 82.8613 10.4849C82.5656 10.3201 82.3253 10.0707 82.1707 9.76835C81.9959 9.419 81.9099 9.0315 81.9203 8.64051V5.76465H83.1517V8.46358C83.1302 8.78917 83.2341 9.1106 83.4418 9.36122C83.5437 9.46745 83.6671 9.55045 83.8036 9.60463C83.9401 9.6588 84.0866 9.68289 84.2331 9.67525C84.381 9.68346 84.529 9.65968 84.667 9.60551C84.805 9.55134 84.9299 9.46804 85.0332 9.36122C85.241 9.11063 85.3448 8.78917 85.3233 8.46358V5.76465H86.5648Z" fill="#AB2346"/>
<path d="M95.3475 6.24674C95.5381 6.45345 95.685 6.69685 95.7795 6.96225C95.8739 7.22766 95.914 7.50957 95.8972 7.79098V10.6664H94.6662V7.95865C94.6878 7.63833 94.5835 7.32228 94.3757 7.07861C94.2724 6.97485 94.1485 6.89407 94.0122 6.84149C93.8759 6.78891 93.7301 6.76571 93.5843 6.77338C93.4379 6.76603 93.2916 6.78937 93.1545 6.84191C93.0175 6.89445 92.8928 6.97505 92.7884 7.07861C92.6842 7.19861 92.6045 7.33811 92.554 7.48912C92.5034 7.64012 92.483 7.79967 92.4938 7.95865V10.6664H91.2628V7.95865C91.2843 7.63842 91.1801 7.32248 90.9727 7.07861C90.8694 6.97487 90.7456 6.89411 90.6093 6.84153C90.4729 6.78896 90.3272 6.76574 90.1814 6.77338C90.0335 6.76542 89.8857 6.78844 89.7472 6.84098C89.6087 6.89352 89.4825 6.97444 89.3767 7.07861C89.2726 7.19864 89.1929 7.33814 89.1424 7.48914C89.0918 7.64014 89.0713 7.79968 89.0821 7.95865V10.6664H87.8506V5.76458H89.0821V6.35744C89.244 6.14816 89.4537 5.98132 89.6934 5.87111C89.951 5.75128 90.2319 5.69083 90.5156 5.69417C90.8706 5.68792 91.2213 5.77154 91.5358 5.93734C91.8302 6.09513 92.0719 6.3368 92.2305 6.63211C92.3932 6.34492 92.6323 6.10912 92.921 5.95124C93.3061 5.74121 93.7466 5.65691 94.1815 5.71002C94.6163 5.76314 95.024 5.95103 95.348 6.24767" fill="#AB2346"/>
</svg>
