<svg width="94" height="17" viewBox="0 0 94 17" fill="none" xmlns="http://www.w3.org/2000/svg">
<path d="M15.9115 1.9639H12.6861C12.5807 1.96643 12.4758 1.94772 12.3776 1.90886C12.2795 1.87 12.19 1.81179 12.1145 1.73764C12.0391 1.6635 11.9791 1.57491 11.9381 1.4771C11.8972 1.37929 11.8761 1.27423 11.8761 1.1681C11.8761 1.06197 11.8972 0.956906 11.9381 0.859096C11.9791 0.761287 12.0391 0.672703 12.1145 0.598555C12.19 0.524408 12.2795 0.466194 12.3776 0.427338C12.4758 0.388482 12.5807 0.369767 12.6861 0.372296H15.9115C16.017 0.369767 16.1219 0.388482 16.22 0.427338C16.3182 0.466194 16.4076 0.524408 16.4831 0.598555C16.5586 0.672703 16.6186 0.761287 16.6595 0.859096C16.7004 0.956906 16.7216 1.06197 16.7216 1.1681C16.7216 1.27423 16.7004 1.37929 16.6595 1.4771C16.6186 1.57491 16.5586 1.6635 16.4831 1.73764C16.4076 1.81179 16.3182 1.87 16.22 1.90886C16.1219 1.94772 16.017 1.96643 15.9115 1.9639Z" fill="#AB2346"/>
<path d="M17.5131 4.37552H12.6869C12.5815 4.37805 12.4766 4.35934 12.3784 4.32048C12.2802 4.28163 12.1908 4.22341 12.1153 4.14926C12.0399 4.07512 11.9799 3.98653 11.9389 3.88872C11.898 3.79091 11.8769 3.68585 11.8769 3.57972C11.8769 3.47359 11.898 3.36853 11.9389 3.27072C11.9799 3.17291 12.0399 3.08432 12.1153 3.01018C12.1908 2.93603 12.2802 2.87782 12.3784 2.83896C12.4766 2.8001 12.5815 2.78139 12.6869 2.78392H17.5131C17.6185 2.78139 17.7235 2.8001 17.8216 2.83896C17.9198 2.87782 18.0092 2.93603 18.0847 3.01018C18.1602 3.08432 18.2201 3.17291 18.2611 3.27072C18.302 3.36853 18.3231 3.47359 18.3231 3.57972C18.3231 3.68585 18.302 3.79091 18.2611 3.88872C18.2201 3.98653 18.1602 4.07512 18.0847 4.14926C18.0092 4.22341 17.9198 4.28163 17.8216 4.32048C17.7235 4.35934 17.6185 4.37805 17.5131 4.37552Z" fill="#AB2346"/>
<path d="M19.1025 6.78714H12.6863C12.4798 6.78219 12.2834 6.69617 12.1391 6.54747C11.9948 6.39877 11.914 6.19917 11.914 5.99134C11.914 5.7835 11.9948 5.58391 12.1391 5.43521C12.2834 5.28651 12.4798 5.20049 12.6863 5.19554H19.1025C19.208 5.19301 19.3129 5.21172 19.411 5.25058C19.5092 5.28944 19.5986 5.34765 19.6741 5.4218C19.7496 5.49594 19.8095 5.58453 19.8505 5.68234C19.8914 5.78015 19.9125 5.88521 19.9125 5.99134C19.9125 6.09747 19.8914 6.20253 19.8505 6.30034C19.8095 6.39815 19.7496 6.48674 19.6741 6.56088C19.5986 6.63503 19.5092 6.69325 19.411 6.7321C19.3129 6.77096 19.208 6.78967 19.1025 6.78714Z" fill="#AB2346"/>
<path d="M15.9115 11.6099H12.6861C12.5807 11.6124 12.4758 11.5937 12.3776 11.5549C12.2795 11.516 12.19 11.4578 12.1145 11.3836C12.0391 11.3095 11.9791 11.2209 11.9381 11.1231C11.8972 11.0253 11.8761 10.9202 11.8761 10.8141C11.8761 10.708 11.8972 10.6029 11.9381 10.5051C11.9791 10.4073 12.0391 10.3187 12.1145 10.2446C12.19 10.1704 12.2795 10.1122 12.3776 10.0733C12.4758 10.0345 12.5807 10.0158 12.6861 10.0183H15.9115C16.017 10.0158 16.1219 10.0345 16.22 10.0733C16.3182 10.1122 16.4076 10.1704 16.4831 10.2446C16.5586 10.3187 16.6186 10.4073 16.6595 10.5051C16.7004 10.6029 16.7216 10.708 16.7216 10.8141C16.7216 10.9202 16.7004 11.0253 16.6595 11.1231C16.6186 11.2209 16.5586 11.3095 16.4831 11.3836C16.4076 11.4578 16.3182 11.516 16.22 11.5549C16.1219 11.5937 16.017 11.6124 15.9115 11.6099Z" fill="#AB2346"/>
<path d="M15.1115 14.021H12.6853C12.5799 14.0236 12.475 14.0048 12.3769 13.966C12.2787 13.9271 12.1892 13.8689 12.1138 13.7948C12.0383 13.7206 11.9783 13.632 11.9374 13.5342C11.8964 13.4364 11.8753 13.3314 11.8753 13.2252C11.8753 13.1191 11.8964 13.014 11.9374 12.9162C11.9783 12.8184 12.0383 12.7298 12.1138 12.6557C12.1892 12.5815 12.2787 12.5233 12.3769 12.4845C12.475 12.4456 12.5799 12.4269 12.6853 12.4294H15.1115C15.2169 12.4269 15.3218 12.4456 15.42 12.4845C15.5181 12.5233 15.6076 12.5815 15.6831 12.6557C15.7585 12.7298 15.8185 12.8184 15.8595 12.9162C15.9004 13.014 15.9215 13.1191 15.9215 13.2252C15.9215 13.3314 15.9004 13.4364 15.8595 13.5342C15.8185 13.632 15.7585 13.7206 15.6831 13.7948C15.6076 13.8689 15.5181 13.9271 15.42 13.966C15.3218 14.0048 15.2169 14.0236 15.1115 14.021Z" fill="#AB2346"/>
<path d="M10.3159 1.9639H8.69176C8.5863 1.96643 8.4814 1.94772 8.38323 1.90886C8.28507 1.87 8.19562 1.81179 8.12015 1.73764C8.04467 1.6635 7.98472 1.57491 7.94377 1.4771C7.90282 1.37929 7.88171 1.27423 7.88171 1.1681C7.88171 1.06197 7.90282 0.956906 7.94377 0.859096C7.98472 0.761287 8.04467 0.672703 8.12015 0.598555C8.19562 0.524408 8.28507 0.466194 8.38323 0.427338C8.4814 0.388482 8.5863 0.369767 8.69176 0.372296H10.3159C10.4214 0.369767 10.5263 0.388482 10.6244 0.427338C10.7226 0.466194 10.812 0.524408 10.8875 0.598555C10.963 0.672703 11.0229 0.761287 11.0639 0.859096C11.1048 0.956906 11.126 1.06197 11.126 1.1681C11.126 1.27423 11.1048 1.37929 11.0639 1.4771C11.0229 1.57491 10.963 1.6635 10.8875 1.73764C10.812 1.81179 10.7226 1.87 10.6244 1.90886C10.5263 1.94772 10.4214 1.96643 10.3159 1.9639Z" fill="#82AEC9"/>
<path d="M10.3158 4.37552H7.10393C6.99847 4.37805 6.89359 4.35934 6.79543 4.32048C6.69727 4.28163 6.60782 4.22341 6.53235 4.14926C6.45687 4.07512 6.39689 3.98653 6.35594 3.88872C6.31499 3.79091 6.29388 3.68585 6.29388 3.57972C6.29388 3.47359 6.31499 3.36853 6.35594 3.27072C6.39689 3.17291 6.45687 3.08432 6.53235 3.01018C6.60782 2.93603 6.69727 2.87782 6.79543 2.83896C6.89359 2.8001 6.99847 2.78139 7.10393 2.78392H10.3158C10.4213 2.78139 10.5262 2.8001 10.6244 2.83896C10.7225 2.87782 10.812 2.93603 10.8874 3.01018C10.9629 3.08432 11.0229 3.17291 11.0639 3.27072C11.1048 3.36853 11.1259 3.47359 11.1259 3.57972C11.1259 3.68585 11.1048 3.79091 11.0639 3.88872C11.0229 3.98653 10.9629 4.07512 10.8874 4.14926C10.812 4.22341 10.7225 4.28163 10.6244 4.32048C10.5262 4.35934 10.4213 4.37805 10.3158 4.37552Z" fill="#82AEC9"/>
<path d="M10.3152 6.78714H5.51378C5.40832 6.78967 5.30342 6.77096 5.20526 6.7321C5.10709 6.69325 5.01764 6.63503 4.94217 6.56088C4.8667 6.48674 4.80671 6.39815 4.76576 6.30034C4.72482 6.20253 4.70374 6.09747 4.70374 5.99134C4.70374 5.88521 4.72482 5.78015 4.76576 5.68234C4.80671 5.58453 4.8667 5.49594 4.94217 5.4218C5.01764 5.34765 5.10709 5.28944 5.20526 5.25058C5.30342 5.21172 5.40832 5.19301 5.51378 5.19554H10.3152C10.4207 5.19301 10.5256 5.21172 10.6238 5.25058C10.7219 5.28944 10.8114 5.34765 10.8868 5.4218C10.9623 5.49594 11.0223 5.58453 11.0632 5.68234C11.1042 5.78015 11.1253 5.88521 11.1253 5.99134C11.1253 6.09747 11.1042 6.20253 11.0632 6.30034C11.0223 6.39815 10.9623 6.48674 10.8868 6.56088C10.8114 6.63503 10.7219 6.69325 10.6238 6.7321C10.5256 6.77096 10.4207 6.78967 10.3152 6.78714Z" fill="#82AEC9"/>
<path d="M10.316 9.19876H3.9074C3.80194 9.20129 3.69706 9.18258 3.5989 9.14372C3.50074 9.10486 3.41129 9.04665 3.33581 8.9725C3.26034 8.89836 3.20035 8.80977 3.15941 8.71196C3.11846 8.61415 3.09735 8.50909 3.09735 8.40296C3.09735 8.29683 3.11846 8.19177 3.15941 8.09396C3.20035 7.99615 3.26034 7.90756 3.33581 7.83342C3.41129 7.75927 3.50074 7.70105 3.5989 7.6622C3.69706 7.62334 3.80194 7.60463 3.9074 7.60716H10.316C10.4214 7.60463 10.5263 7.62334 10.6245 7.6622C10.7226 7.70105 10.8121 7.75927 10.8875 7.83342C10.963 7.90756 11.023 7.99615 11.064 8.09396C11.1049 8.19177 11.126 8.29683 11.126 8.40296C11.126 8.50909 11.1049 8.61415 11.064 8.71196C11.023 8.80977 10.963 8.89836 10.8875 8.9725C10.8121 9.04665 10.7226 9.10486 10.6245 9.14372C10.5263 9.18258 10.4214 9.20129 10.316 9.19876Z" fill="#82AEC9"/>
<path d="M20.7039 9.19876H12.6869C12.5815 9.20129 12.4766 9.18258 12.3784 9.14372C12.2802 9.10486 12.1908 9.04665 12.1153 8.9725C12.0399 8.89836 11.9799 8.80977 11.9389 8.71196C11.898 8.61415 11.8769 8.50909 11.8769 8.40296C11.8769 8.29683 11.898 8.19177 11.9389 8.09396C11.9799 7.99615 12.0399 7.90756 12.1153 7.83342C12.1908 7.75927 12.2802 7.70105 12.3784 7.6622C12.4766 7.62334 12.5815 7.60463 12.6869 7.60716H20.7039C20.8094 7.60463 20.9142 7.62334 21.0124 7.6622C21.1106 7.70105 21.2 7.75927 21.2755 7.83342C21.351 7.90756 21.411 7.99615 21.4519 8.09396C21.4928 8.19177 21.5139 8.29683 21.5139 8.40296C21.5139 8.50909 21.4928 8.61415 21.4519 8.71196C21.411 8.80977 21.351 8.89836 21.2755 8.9725C21.2 9.04665 21.1106 9.10486 21.0124 9.14372C20.9142 9.18258 20.8094 9.20129 20.7039 9.19876Z" fill="#82AEC9"/>
<path d="M10.3157 11.6099H5.50841C5.40295 11.6124 5.29807 11.5937 5.19991 11.5549C5.10175 11.516 5.0123 11.4578 4.93683 11.3836C4.86135 11.3095 4.80137 11.2209 4.76042 11.1231C4.71947 11.0253 4.69836 10.9202 4.69836 10.8141C4.69836 10.708 4.71947 10.6029 4.76042 10.5051C4.80137 10.4073 4.86135 10.3187 4.93683 10.2446C5.0123 10.1704 5.10175 10.1122 5.19991 10.0733C5.29807 10.0345 5.40295 10.0158 5.50841 10.0183H10.3157C10.4212 10.0158 10.5261 10.0345 10.6242 10.0733C10.7224 10.1122 10.8118 10.1704 10.8873 10.2446C10.9628 10.3187 11.0228 10.4073 11.0637 10.5051C11.1047 10.6029 11.1258 10.708 11.1258 10.8141C11.1258 10.9202 11.1047 11.0253 11.0637 11.1231C11.0228 11.2209 10.9628 11.3095 10.8873 11.3836C10.8118 11.4578 10.7224 11.516 10.6242 11.5549C10.5261 11.5937 10.4212 11.6124 10.3157 11.6099Z" fill="#82AEC9"/>
<path d="M20.704 11.6099H18.281C18.0745 11.6049 17.8781 11.5189 17.7338 11.3702C17.5895 11.2215 17.5087 11.0219 17.5087 10.8141C17.5087 10.6063 17.5895 10.4067 17.7338 10.258C17.8781 10.1093 18.0745 10.0232 18.281 10.0183H20.704C20.8094 10.0158 20.9143 10.0345 21.0125 10.0733C21.1107 10.1122 21.2001 10.1704 21.2756 10.2446C21.3511 10.3187 21.411 10.4073 21.452 10.5051C21.4929 10.6029 21.514 10.708 21.514 10.8141C21.514 10.9202 21.4929 11.0253 21.452 11.1231C21.411 11.2209 21.3511 11.3095 21.2756 11.3836C21.2001 11.4578 21.1107 11.516 21.0125 11.5549C20.9143 11.5937 20.8094 11.6124 20.704 11.6099Z" fill="#82AEC9"/>
<path d="M10.315 14.021H7.09776C6.99231 14.0236 6.8874 14.0048 6.78924 13.966C6.69108 13.9271 6.60163 13.8689 6.52615 13.7948C6.45068 13.7206 6.3907 13.632 6.34975 13.5342C6.3088 13.4364 6.28772 13.3314 6.28772 13.2252C6.28772 13.1191 6.3088 13.014 6.34975 12.9162C6.3907 12.8184 6.45068 12.7298 6.52615 12.6557C6.60163 12.5815 6.69108 12.5233 6.78924 12.4845C6.8874 12.4456 6.99231 12.4269 7.09776 12.4294H10.315C10.4205 12.4269 10.5254 12.4456 10.6236 12.4845C10.7217 12.5233 10.8112 12.5815 10.8867 12.6557C10.9621 12.7298 11.0221 12.8184 11.0631 12.9162C11.104 13.014 11.1251 13.1191 11.1251 13.2252C11.1251 13.3314 11.104 13.4364 11.0631 13.5342C11.0221 13.632 10.9621 13.7206 10.8867 13.7948C10.8112 13.8689 10.7217 13.9271 10.6236 13.966C10.5254 14.0048 10.4205 14.0236 10.315 14.021Z" fill="#82AEC9"/>
<path d="M20.8529 14.021H17.494C17.2875 14.0161 17.0911 13.9301 16.9468 13.7814C16.8025 13.6327 16.7217 13.4331 16.7217 13.2252C16.7217 13.0174 16.8025 12.8178 16.9468 12.6691C17.0911 12.5204 17.2875 12.4344 17.494 12.4294H20.8529C20.9583 12.4269 21.0632 12.4456 21.1613 12.4845C21.2595 12.5233 21.349 12.5815 21.4244 12.6557C21.4999 12.7298 21.5599 12.8184 21.6008 12.9162C21.6418 13.014 21.6629 13.1191 21.6629 13.2252C21.6629 13.3314 21.6418 13.4364 21.6008 13.5342C21.5599 13.632 21.4999 13.7206 21.4244 13.7948C21.349 13.8689 21.2595 13.9271 21.1613 13.966C21.0632 14.0048 20.9583 14.0236 20.8529 14.021Z" fill="#82AEC9"/>
<path d="M10.3159 16.4336H8.69176C8.5863 16.4362 8.4814 16.4174 8.38323 16.3786C8.28507 16.3397 8.19562 16.2815 8.12015 16.2074C8.04467 16.1332 7.98472 16.0446 7.94377 15.9468C7.90282 15.849 7.88171 15.744 7.88171 15.6378C7.88171 15.5317 7.90282 15.4266 7.94377 15.3288C7.98472 15.231 8.04467 15.1424 8.12015 15.0683C8.19562 14.9941 8.28507 14.9359 8.38323 14.8971C8.4814 14.8582 8.5863 14.8395 8.69176 14.842H10.3159C10.4214 14.8395 10.5263 14.8582 10.6244 14.8971C10.7226 14.9359 10.812 14.9941 10.8875 15.0683C10.963 15.1424 11.0229 15.231 11.0639 15.3288C11.1048 15.4266 11.126 15.5317 11.126 15.6378C11.126 15.744 11.1048 15.849 11.0639 15.9468C11.0229 16.0446 10.963 16.1332 10.8875 16.2074C10.812 16.2815 10.7226 16.3397 10.6244 16.3786C10.5263 16.4174 10.4214 16.4362 10.3159 16.4336Z" fill="#82AEC9"/>
<path d="M15.9115 16.4336H12.6861C12.5807 16.4362 12.4758 16.4174 12.3776 16.3786C12.2795 16.3397 12.19 16.2815 12.1145 16.2074C12.0391 16.1332 11.9791 16.0446 11.9381 15.9468C11.8972 15.849 11.8761 15.744 11.8761 15.6378C11.8761 15.5317 11.8972 15.4266 11.9381 15.3288C11.9791 15.231 12.0391 15.1424 12.1145 15.0683C12.19 14.9941 12.2795 14.9359 12.3776 14.8971C12.4758 14.8582 12.5807 14.8395 12.6861 14.842H15.9115C16.017 14.8395 16.1219 14.8582 16.22 14.8971C16.3182 14.9359 16.4076 14.9941 16.4831 15.0683C16.5586 15.1424 16.6186 15.231 16.6595 15.3288C16.7004 15.4266 16.7216 15.5317 16.7216 15.6378C16.7216 15.744 16.7004 15.849 16.6595 15.9468C16.6186 16.0446 16.5586 16.1332 16.4831 16.2074C16.4076 16.2815 16.3182 16.3397 16.22 16.3786C16.1219 16.4174 16.017 16.4362 15.9115 16.4336Z" fill="#82AEC9"/>
<path d="M7.13454 1.77595C7.13454 1.8962 7.0991 2.01375 7.0327 2.11373C6.9663 2.21371 6.87191 2.29164 6.7615 2.33766C6.65108 2.38367 6.52958 2.39571 6.41236 2.37225C6.29514 2.34879 6.18747 2.29089 6.10296 2.20586C6.01845 2.12083 5.96089 2.0125 5.93758 1.89456C5.91426 1.77663 5.92623 1.65438 5.97196 1.54329C6.0177 1.43219 6.09515 1.33724 6.19452 1.27043C6.29389 1.20363 6.41073 1.16797 6.53025 1.16797C6.69051 1.16797 6.84421 1.23202 6.95754 1.34604C7.07086 1.46006 7.13454 1.6147 7.13454 1.77595Z" fill="#1D365A"/>
<path d="M7.11135 15.4307C7.11135 15.551 7.0759 15.6685 7.00951 15.7685C6.94311 15.8685 6.84872 15.9464 6.7383 15.9924C6.62788 16.0385 6.50639 16.0505 6.38917 16.027C6.27195 16.0036 6.16427 15.9457 6.07976 15.8606C5.99525 15.7756 5.9377 15.6673 5.91438 15.5493C5.89107 15.4314 5.90303 15.3092 5.94877 15.1981C5.99451 15.087 6.07198 14.992 6.17135 14.9252C6.27073 14.8584 6.38754 14.8228 6.50705 14.8228C6.66732 14.8228 6.82104 14.8868 6.93437 15.0008C7.04769 15.1148 7.11135 15.2695 7.11135 15.4307Z" fill="#1D365A"/>
<path d="M5.11123 4.37513H4.3124C4.20748 4.37513 4.10685 4.3332 4.03267 4.25855C3.95848 4.18391 3.91681 4.08268 3.91681 3.97712C3.91681 3.87156 3.95848 3.77032 4.03267 3.69568C4.10685 3.62104 4.20748 3.5791 4.3124 3.5791H5.11123C5.21614 3.5791 5.31677 3.62104 5.39096 3.69568C5.46515 3.77032 5.50682 3.87156 5.50682 3.97712C5.50682 4.08268 5.46515 4.18391 5.39096 4.25855C5.31677 4.3332 5.21614 4.37513 5.11123 4.37513Z" fill="#1D365A"/>
<path d="M3.51062 6.78675H1.91524C1.81032 6.78675 1.7097 6.74482 1.63551 6.67018C1.56132 6.59554 1.51965 6.4943 1.51965 6.38874C1.51965 6.28318 1.56132 6.18194 1.63551 6.1073C1.7097 6.03266 1.81032 5.99072 1.91524 5.99072H3.51062C3.61554 5.99072 3.71617 6.03266 3.79036 6.1073C3.86454 6.18194 3.90624 6.28318 3.90624 6.38874C3.90624 6.4943 3.86454 6.59554 3.79036 6.67018C3.71617 6.74482 3.61554 6.78675 3.51062 6.78675Z" fill="#1D365A"/>
<path d="M3.52116 10.7975H1.12514C1.02022 10.7975 0.919626 10.7556 0.845438 10.6809C0.77125 10.6063 0.729553 10.505 0.729553 10.3995C0.729553 10.2939 0.77125 10.1927 0.845438 10.118C0.919626 10.0434 1.02022 10.0015 1.12514 10.0015H3.52116C3.62608 10.0015 3.72671 10.0434 3.80089 10.118C3.87508 10.1927 3.91675 10.2939 3.91675 10.3995C3.91675 10.505 3.87508 10.6063 3.80089 10.6809C3.72671 10.7556 3.62608 10.7975 3.52116 10.7975Z" fill="#1D365A"/>
<path d="M5.11482 13.2003H4.3124C4.20748 13.2003 4.10685 13.1584 4.03267 13.0838C3.95848 13.0091 3.91681 12.9079 3.91681 12.8023C3.91681 12.6968 3.95848 12.5955 4.03267 12.5209C4.10685 12.4462 4.20748 12.4043 4.3124 12.4043H5.11482C5.21974 12.4043 5.32036 12.4462 5.39455 12.5209C5.46874 12.5955 5.51041 12.6968 5.51041 12.8023C5.51041 12.9079 5.46874 13.0091 5.39455 13.0838C5.32036 13.1584 5.21974 13.2003 5.11482 13.2003Z" fill="#1D365A"/>
<path d="M29.9438 7.87584C30.1586 8.14467 30.2739 8.48021 30.27 8.82511C30.276 9.12568 30.194 9.4214 30.0341 9.67538C29.8662 9.92884 29.6293 10.1282 29.3516 10.2495C29.0189 10.3947 28.6588 10.4654 28.2963 10.4565H25.7129V4.43045H28.1839C28.5443 4.42162 28.9025 4.48924 29.2352 4.6289C29.5075 4.74304 29.7403 4.93532 29.9047 5.18173C30.0573 5.42117 30.1364 5.70057 30.132 5.98499C30.1431 6.30222 30.0447 6.61351 29.8535 6.866C29.6627 7.10528 29.4037 7.28007 29.1112 7.36685C29.4421 7.42615 29.739 7.60768 29.9438 7.87584ZM26.9138 6.91753H28.0128C28.2488 6.93299 28.4827 6.86415 28.6732 6.72316C28.7517 6.65441 28.8134 6.56844 28.8536 6.47188C28.8938 6.37532 28.9114 6.27075 28.905 6.16626C28.9111 6.06113 28.8934 5.95598 28.8533 5.85874C28.8131 5.76149 28.7515 5.67468 28.6732 5.60483C28.4839 5.46094 28.2495 5.39034 28.0128 5.40594H26.9138V6.91753ZM28.8062 9.2681C28.8888 9.19542 28.9538 9.10467 28.9961 9.00281C29.0385 8.90095 29.0572 8.79068 29.0506 8.68046C29.0564 8.56597 29.0362 8.45167 28.9916 8.34618C28.947 8.2407 28.8791 8.14679 28.7932 8.07157C28.5955 7.91619 28.3486 7.838 28.0981 7.85143H26.9138V9.47468H28.1242C28.3689 9.48973 28.611 9.41631 28.8066 9.26765" fill="#AB2346"/>
<path d="M33.0271 5.82133C33.2876 5.67437 33.5822 5.5998 33.8808 5.60526V6.87592H33.5631C33.4027 6.84981 33.2385 6.86331 33.0844 6.91526C32.9304 6.96722 32.7912 7.05607 32.6789 7.17416C32.5665 7.29225 32.4844 7.43605 32.4396 7.59316C32.3948 7.75028 32.3886 7.916 32.4215 8.07606V10.4592H31.2206V5.67442H32.4202V6.41711C32.5684 6.17012 32.7767 5.96511 33.0254 5.82133" fill="#AB2346"/>
<path d="M35.656 10.2289C35.2927 10.0275 34.9936 9.72659 34.7934 9.36102C34.5785 8.96419 34.47 8.51781 34.4789 8.06595C34.4697 7.613 34.5807 7.16578 34.8006 6.77042C35.0072 6.40391 35.312 6.10318 35.6803 5.90252C36.0647 5.70127 36.4916 5.59619 36.9248 5.59619C37.3581 5.59619 37.785 5.70127 38.1693 5.90252C38.5376 6.10321 38.8424 6.40394 39.049 6.77042C39.2691 7.16572 39.3803 7.61296 39.3712 8.06595C39.3804 8.51984 39.2661 8.96763 39.0409 9.36102C38.8284 9.72746 38.5195 10.0278 38.1482 10.2289C37.7613 10.4363 37.3285 10.5418 36.8902 10.5354C36.4589 10.5421 36.0331 10.4365 35.6543 10.2289M37.504 9.32215C37.7001 9.21084 37.8597 9.0443 37.9631 8.84299C38.0838 8.60241 38.1428 8.3353 38.1347 8.06595C38.1472 7.8761 38.1221 7.68565 38.0611 7.50558C38 7.32551 37.9041 7.15938 37.7789 7.01678C37.6669 6.89822 37.5316 6.8044 37.3817 6.74128C37.2317 6.67817 37.0703 6.64714 36.9077 6.65018C36.7464 6.64663 36.5861 6.67746 36.4375 6.74065C36.2888 6.80383 36.1551 6.89793 36.0451 7.01678C35.7972 7.30724 35.6724 7.68392 35.6974 8.06595C35.6723 8.44653 35.7937 8.82222 36.0366 9.11512C36.1443 9.23435 36.2764 9.32884 36.4237 9.39218C36.571 9.45551 36.7301 9.4862 36.8902 9.48216C37.105 9.48286 37.3164 9.42745 37.504 9.32215Z" fill="#AB2346"/>
<path d="M40.2812 6.762C40.4563 6.40634 40.727 6.10721 41.0625 5.89861C41.3949 5.69617 41.777 5.59141 42.1655 5.5962C42.489 5.58882 42.8092 5.6631 43.0969 5.81228C43.3475 5.94287 43.566 6.1282 43.7362 6.35471V5.67396H44.9466V10.4587H43.7362V9.75851C43.5705 9.99297 43.3512 10.184 43.0969 10.3154C42.8068 10.4667 42.4836 10.5424 42.157 10.5356C41.7701 10.5394 41.3903 10.4315 41.0625 10.2246C40.727 10.0102 40.4566 9.70693 40.2812 9.34807C40.0835 8.94424 39.9849 8.49858 39.9937 8.04848C39.9852 7.60247 40.0838 7.16143 40.2812 6.762ZM43.5641 7.30986C43.4577 7.10824 43.297 6.94079 43.1005 6.82664C42.9102 6.71539 42.6938 6.65719 42.4737 6.65803C42.2527 6.65559 42.0352 6.7143 41.8451 6.82773C41.6549 6.94117 41.4994 7.10497 41.3955 7.30127C41.2735 7.5308 41.2128 7.78827 41.2193 8.04848C41.2134 8.31136 41.274 8.57144 41.3955 8.80427C41.5022 9.00938 41.6625 9.1813 41.8591 9.30151C42.044 9.41479 42.2564 9.47454 42.4728 9.47419C42.6929 9.4751 42.9092 9.41706 43.0996 9.30603C43.2961 9.19163 43.4567 9.02406 43.5632 8.82236C43.6761 8.58667 43.7347 8.32841 43.7347 8.06678C43.7347 7.80516 43.6761 7.5469 43.5632 7.31121" fill="#AB2346"/>
<path d="M46.0644 6.76149C46.2377 6.40677 46.5076 6.10887 46.8426 5.90248C47.1776 5.69608 47.564 5.5897 47.9568 5.5957C48.263 5.59512 48.5653 5.66452 48.841 5.79867C49.1048 5.92055 49.3347 6.10592 49.5104 6.33839V4.06738H50.7293V10.4573H49.5104V9.74942C49.3551 9.99156 49.1391 10.1882 48.8841 10.3194C48.5949 10.4682 48.2735 10.5425 47.9487 10.5355C47.5606 10.539 47.1796 10.4311 46.8502 10.2245C46.5128 10.0111 46.241 9.7077 46.0649 9.34802C45.8671 8.9442 45.7685 8.49853 45.7773 8.04843C45.7688 7.60241 45.8674 7.16091 46.0649 6.76149M49.3478 7.30981C49.2414 7.10825 49.0809 6.94081 48.8846 6.82659C48.6944 6.71542 48.4782 6.65722 48.2583 6.65798C48.0372 6.65555 47.8198 6.71425 47.6296 6.82768C47.4395 6.94112 47.2839 7.10492 47.18 7.30122C47.058 7.53075 46.9973 7.78822 47.0039 8.04843C46.9979 8.31131 47.0586 8.57139 47.18 8.80423C47.2867 9.00933 47.447 9.18125 47.6437 9.30146C47.8285 9.41476 48.0409 9.47452 48.2574 9.47414C48.4773 9.47497 48.6934 9.41693 48.8837 9.30598C49.08 9.19152 49.2405 9.02395 49.3469 8.82231C49.4599 8.58666 49.5186 8.32839 49.5186 8.06674C49.5186 7.80509 49.4599 7.54681 49.3469 7.31116" fill="#AB2346"/>
<path d="M52.6312 10.3229C52.3421 10.1973 52.0895 9.99954 51.8975 9.74837C51.7211 9.51668 51.6179 9.23698 51.6014 8.94557H52.8118C52.8229 9.03642 52.8525 9.12398 52.8989 9.20272C52.9453 9.28145 53.0075 9.34966 53.0814 9.40302C53.2516 9.5279 53.4585 9.59158 53.669 9.58383C53.8578 9.59484 54.0452 9.5465 54.2055 9.44551C54.2647 9.40773 54.3136 9.35545 54.3473 9.29356C54.3811 9.23167 54.3988 9.16218 54.3986 9.09157C54.3991 9.0161 54.3768 8.94227 54.3347 8.87981C54.2926 8.81735 54.2326 8.7692 54.1628 8.7417C53.9204 8.63439 53.669 8.54907 53.4116 8.48675C53.1152 8.41864 52.8241 8.32921 52.5404 8.21915C52.3148 8.1274 52.1144 7.98227 51.9564 7.79605C51.7842 7.57862 51.6972 7.30521 51.712 7.02759C51.7107 6.76853 51.7902 6.5156 51.9393 6.30434C52.1048 6.07421 52.3307 5.89487 52.5916 5.78632C52.908 5.65294 53.2488 5.5881 53.5918 5.59601C54.08 5.57058 54.5612 5.72232 54.9477 6.02363C55.1155 6.16595 55.2518 6.34203 55.3479 6.54055C55.444 6.73908 55.4978 6.95564 55.5057 7.17631H54.3555C54.3499 7.08853 54.326 7.00293 54.2854 6.92505C54.2448 6.84717 54.1883 6.77876 54.1197 6.72428C53.9618 6.62337 53.7804 6.56607 53.5935 6.55813C53.4067 6.5502 53.221 6.59191 53.0553 6.67908C52.9996 6.71511 52.9541 6.76509 52.9233 6.82412C52.8925 6.88315 52.8774 6.94921 52.8796 7.01584C52.8792 7.09413 52.9017 7.17081 52.9445 7.23622C52.9873 7.30162 53.0484 7.35281 53.12 7.38334C53.3593 7.49434 53.6096 7.57965 53.8667 7.63784C54.1558 7.70697 54.4397 7.79654 54.7163 7.90589C54.9409 7.99901 55.1396 8.1456 55.2954 8.33306C55.4668 8.54985 55.5565 8.82057 55.5488 9.09745C55.552 9.36283 55.4725 9.62256 55.3215 9.84014C55.1563 10.0697 54.9303 10.2479 54.6691 10.3541C54.3549 10.4837 54.0175 10.5468 53.678 10.5394C53.3179 10.5454 52.9607 10.4732 52.6307 10.3279" fill="#AB2346"/>
<path d="M58.3582 5.81668C58.6455 5.66603 58.9657 5.59033 59.2896 5.59654C59.6781 5.59164 60.0601 5.69624 60.3926 5.8985C60.7272 6.10628 60.9977 6.40367 61.1739 6.75736C61.3721 7.15795 61.4708 7.60096 61.4614 8.04837C61.4702 8.49846 61.3716 8.9441 61.1739 9.34796C60.9983 9.70671 60.728 10.0099 60.3926 10.2244C60.0621 10.4322 59.6793 10.5401 59.2896 10.5354C58.969 10.5421 58.6519 10.4679 58.3672 10.3194C58.115 10.1875 57.8941 10.0025 57.7194 9.77694V12.7386H56.5175V5.6743H57.7194V6.365C57.8872 6.13466 58.1056 5.94691 58.3582 5.81668ZM60.0579 7.30161C59.9507 7.10171 59.7903 6.93579 59.5946 6.82246C59.4052 6.71364 59.1906 6.65704 58.9724 6.65837C58.7565 6.65786 58.5444 6.71612 58.3587 6.82698C58.1627 6.94371 58.0025 7.11245 57.8955 7.31472C57.7797 7.54804 57.7195 7.80523 57.7195 8.066C57.7195 8.32676 57.7797 8.58395 57.8955 8.81727C58.0025 9.0195 58.1628 9.18822 58.3587 9.30501C58.5462 9.41578 58.7599 9.4738 58.9773 9.47301C59.1947 9.47221 59.4079 9.41263 59.5946 9.30049C59.7902 9.18125 59.9502 9.0112 60.0579 8.80823C60.1802 8.57427 60.2409 8.31264 60.234 8.04837C60.2406 7.78815 60.1799 7.53112 60.0579 7.30161Z" fill="#AB2346"/>
<path d="M66.7051 8.42813H63.2291C63.2393 8.73603 63.3682 9.02785 63.5885 9.24179C63.8009 9.43807 64.081 9.54345 64.3693 9.53561C64.5677 9.54749 64.765 9.49848 64.935 9.39508C65.1051 9.29168 65.24 9.13877 65.3218 8.95656H66.618C66.4848 9.41157 66.2076 9.81042 65.8286 10.0925C65.4135 10.3973 64.909 10.5537 64.3954 10.5369C63.9654 10.5438 63.5411 10.4382 63.1639 10.2304C62.8037 10.0293 62.5087 9.72793 62.3143 9.36248C62.1053 8.96375 62.0005 8.51811 62.0097 8.06741C61.9998 7.61425 62.1031 7.16583 62.3103 6.7633C62.5009 6.39909 62.7932 6.09896 63.1513 5.89992C63.5312 5.70276 63.9523 5.59917 64.3797 5.59767C64.8072 5.59618 65.229 5.69682 65.6102 5.89133C65.9623 6.0817 66.2516 6.37121 66.4427 6.72443C66.6452 7.10529 66.7472 7.53206 66.7388 7.9639C66.74 8.11992 66.7286 8.27578 66.7047 8.42994M65.4943 7.61629C65.4969 7.47466 65.4681 7.33424 65.4103 7.20511C65.3524 7.07599 65.2668 6.96138 65.1596 6.86953C64.937 6.6805 64.6529 6.58058 64.3617 6.58882C64.0862 6.58037 63.8178 6.67729 63.6105 6.86004C63.3989 7.05774 63.2661 7.32629 63.2371 7.61538L65.4943 7.61629Z" fill="#AB2346"/>
<path d="M67.7361 6.76637C67.9266 6.40499 68.2153 6.10555 68.5686 5.90299C68.9408 5.69411 69.3614 5.58835 69.7875 5.59651C70.3108 5.57601 70.8259 5.73262 71.2503 6.04131C71.6464 6.35292 71.9213 6.79441 72.0271 7.28892H70.731C70.6703 7.09292 70.5483 6.92187 70.3832 6.80118C70.205 6.67858 69.9924 6.61664 69.7767 6.62443C69.621 6.61799 69.4661 6.64867 69.3244 6.71395C69.1828 6.77923 69.0585 6.87727 68.9617 7.00007C68.7652 7.31913 68.6611 7.68701 68.6611 8.06235C68.6611 8.43768 68.7652 8.80556 68.9617 9.12462C69.0585 9.24742 69.1828 9.34546 69.3244 9.41074C69.4661 9.47602 69.621 9.5067 69.7767 9.50026C69.9864 9.51836 70.1958 9.46287 70.3694 9.34322C70.5431 9.22358 70.6702 9.04715 70.7292 8.84391H72.0253C71.9122 9.33304 71.6366 9.76869 71.244 10.0789C70.8238 10.3942 70.3091 10.5556 69.7852 10.5363C69.3591 10.5445 68.9385 10.4387 68.5663 10.2298C68.2132 10.0272 67.9244 9.72778 67.7338 9.36646C67.5361 8.9621 67.4333 8.51749 67.4333 8.06687C67.4333 7.61624 67.5361 7.17163 67.7338 6.76728" fill="#AB2346"/>
<path d="M74.3918 6.66729V8.98169C74.3859 9.04491 74.3932 9.10867 74.4131 9.1689C74.4331 9.22914 74.4653 9.28454 74.5077 9.33157C74.6203 9.41435 74.7593 9.45263 74.8981 9.43915H75.4561V10.458H74.7009C73.6882 10.458 73.1819 9.96306 73.1819 8.97311V6.66774H72.6135V5.67328H73.1801V4.49121H74.39V5.67418H75.4543V6.66865L74.3918 6.66729Z" fill="#AB2346"/>
<path d="M78.2473 5.82133C78.5077 5.67435 78.8024 5.59978 79.1009 5.60526V6.87592H78.7833C78.6229 6.8497 78.4586 6.86312 78.3045 6.91504C78.1504 6.96695 78.0111 7.0558 77.8988 7.17392C77.7864 7.29204 77.7043 7.43589 77.6595 7.59306C77.6147 7.75022 77.6086 7.91599 77.6417 8.07607V10.4592H76.4398V5.67442H77.6417V6.41711C77.7899 6.17006 77.9986 5.96503 78.2473 5.82133Z" fill="#AB2346"/>
<path d="M84.4194 5.67432V10.4582H83.209V9.8538C83.0508 10.0643 82.8429 10.2319 82.6043 10.3415C82.3504 10.4605 82.0734 10.5209 81.7933 10.5183C81.4491 10.5255 81.1088 10.4438 80.8049 10.281C80.5164 10.1202 80.2818 9.87679 80.131 9.58168C79.9604 9.24073 79.8764 8.86256 79.8866 8.48098V5.67432H81.0884V8.3083C81.0674 8.62606 81.1687 8.93976 81.3714 9.18434C81.4709 9.28802 81.5913 9.36903 81.7246 9.4219C81.8578 9.47477 82.0007 9.49827 82.1438 9.49082C82.2881 9.49884 82.4325 9.47563 82.5672 9.42276C82.7019 9.36989 82.8238 9.28859 82.9246 9.18434C83.1274 8.93978 83.2287 8.62606 83.2077 8.3083V5.67432H84.4194Z" fill="#AB2346"/>
<path d="M92.9905 6.14457C93.1765 6.3463 93.3198 6.58385 93.412 6.84287C93.5042 7.10188 93.5433 7.37701 93.5269 7.65165V10.4579H92.3256V7.81528C92.3467 7.50267 92.2448 7.19423 92.042 6.95642C91.9412 6.85516 91.8203 6.77632 91.6873 6.72501C91.5543 6.6737 91.412 6.65105 91.2697 6.65853C91.1268 6.65136 90.984 6.67414 90.8503 6.72542C90.7166 6.77669 90.5948 6.85536 90.4929 6.95642C90.3912 7.07354 90.3135 7.20968 90.2642 7.35705C90.2148 7.50442 90.1949 7.66014 90.2054 7.81528V10.4579H89.004V7.81528C89.025 7.50276 88.9234 7.19442 88.721 6.95642C88.6201 6.85518 88.4993 6.77636 88.3662 6.72505C88.2332 6.67374 88.0909 6.65108 87.9487 6.65853C87.8044 6.65077 87.6601 6.67323 87.5249 6.72451C87.3897 6.77579 87.2666 6.85476 87.1633 6.95642C87.0617 7.07357 86.984 7.20971 86.9346 7.35707C86.8853 7.50444 86.8653 7.66014 86.8758 7.81528V10.4579H85.674V5.67401H86.8758V6.25261C87.0338 6.04837 87.2385 5.88554 87.4724 5.77797C87.7238 5.66103 87.998 5.60204 88.2749 5.6053C88.6213 5.5992 88.9636 5.6808 89.2704 5.84262C89.5578 5.9966 89.7937 6.23246 89.9484 6.52066C90.1072 6.24039 90.3406 6.01026 90.6224 5.85618C90.9982 5.6512 91.4281 5.56893 91.8525 5.62077C92.2769 5.6726 92.6748 5.85598 92.991 6.14548" fill="#AB2346"/>
</svg>
