<svg width="93" height="17" viewBox="0 0 93 17" fill="none" xmlns="http://www.w3.org/2000/svg">
<path d="M15.656 1.84551H12.4419C12.3368 1.84803 12.2323 1.82939 12.1345 1.79067C12.0367 1.75195 11.9476 1.69394 11.8724 1.62005C11.7972 1.54616 11.7374 1.45789 11.6966 1.36042C11.6558 1.26296 11.6348 1.15827 11.6348 1.05251C11.6348 0.946749 11.6558 0.842058 11.6966 0.744592C11.7374 0.647126 11.7972 0.558853 11.8724 0.484966C11.9476 0.41108 12.0367 0.35307 12.1345 0.314351C12.2323 0.275631 12.3368 0.256983 12.4419 0.259503H15.656C15.7611 0.256983 15.8656 0.275631 15.9634 0.314351C16.0613 0.35307 16.1504 0.41108 16.2256 0.484966C16.3008 0.558853 16.3606 0.647126 16.4014 0.744592C16.4422 0.842058 16.4632 0.946749 16.4632 1.05251C16.4632 1.15827 16.4422 1.26296 16.4014 1.36042C16.3606 1.45789 16.3008 1.54616 16.2256 1.62005C16.1504 1.69394 16.0613 1.75195 15.9634 1.79067C15.8656 1.82939 15.7611 1.84803 15.656 1.84551Z" fill="#AB2346"/>
<path d="M17.2519 4.24835H12.4427C12.3376 4.25087 12.2331 4.23222 12.1353 4.1935C12.0374 4.15478 11.9483 4.09677 11.8731 4.02288C11.7979 3.949 11.7381 3.86072 11.6973 3.76326C11.6565 3.66579 11.6355 3.5611 11.6355 3.45534C11.6355 3.34958 11.6565 3.24489 11.6973 3.14742C11.7381 3.04996 11.7979 2.96169 11.8731 2.8878C11.9483 2.81391 12.0374 2.7559 12.1353 2.71718C12.2331 2.67846 12.3376 2.65981 12.4427 2.66233H17.2519C17.357 2.65981 17.4615 2.67846 17.5593 2.71718C17.6571 2.7559 17.7463 2.81391 17.8215 2.8878C17.8967 2.96169 17.9564 3.04996 17.9972 3.14742C18.038 3.24489 18.0591 3.34958 18.0591 3.45534C18.0591 3.5611 18.038 3.66579 17.9972 3.76326C17.9564 3.86072 17.8967 3.949 17.8215 4.02288C17.7463 4.09677 17.6571 4.15478 17.5593 4.1935C17.4615 4.23222 17.357 4.25087 17.2519 4.24835Z" fill="#AB2346"/>
<path d="M18.8358 6.65166H12.4422C12.2364 6.64673 12.0407 6.56102 11.8969 6.41284C11.7531 6.26466 11.6726 6.06576 11.6726 5.85866C11.6726 5.65155 11.7531 5.45266 11.8969 5.30449C12.0407 5.15631 12.2364 5.07059 12.4422 5.06565H18.8358C18.9409 5.06313 19.0455 5.08178 19.1433 5.1205C19.2411 5.15922 19.3302 5.21723 19.4054 5.29112C19.4807 5.365 19.5404 5.45328 19.5812 5.55074C19.622 5.64821 19.643 5.7529 19.643 5.85866C19.643 5.96442 19.622 6.06911 19.5812 6.16658C19.5404 6.26404 19.4807 6.35231 19.4054 6.4262C19.3302 6.50009 19.2411 6.5581 19.1433 6.59682C19.0455 6.63554 18.9409 6.65418 18.8358 6.65166Z" fill="#AB2346"/>
<path d="M15.656 11.4583H12.4419C12.3368 11.4608 12.2323 11.4422 12.1345 11.4035C12.0367 11.3647 11.9476 11.3067 11.8724 11.2328C11.7972 11.159 11.7374 11.0707 11.6966 10.9732C11.6558 10.8757 11.6348 10.7711 11.6348 10.6653C11.6348 10.5595 11.6558 10.4548 11.6966 10.3574C11.7374 10.2599 11.7972 10.1716 11.8724 10.0978C11.9476 10.0239 12.0367 9.96586 12.1345 9.92714C12.2323 9.88842 12.3368 9.86978 12.4419 9.8723H15.656C15.7611 9.86978 15.8656 9.88842 15.9634 9.92714C16.0613 9.96586 16.1504 10.0239 16.2256 10.0978C16.3008 10.1716 16.3606 10.2599 16.4014 10.3574C16.4422 10.4548 16.4632 10.5595 16.4632 10.6653C16.4632 10.7711 16.4422 10.8757 16.4014 10.9732C16.3606 11.0707 16.3008 11.159 16.2256 11.2328C16.1504 11.3067 16.0613 11.3647 15.9634 11.4035C15.8656 11.4422 15.7611 11.4608 15.656 11.4583Z" fill="#AB2346"/>
<path d="M14.8588 13.8606H12.4412C12.3361 13.8632 12.2316 13.8445 12.1338 13.8058C12.036 13.7671 11.9469 13.7091 11.8717 13.6352C11.7964 13.5613 11.7367 13.473 11.6959 13.3756C11.6551 13.2781 11.634 13.1734 11.634 13.0676C11.634 12.9619 11.6551 12.8572 11.6959 12.7597C11.7367 12.6623 11.7964 12.574 11.8717 12.5001C11.9469 12.4262 12.036 12.3682 12.1338 12.3295C12.2316 12.2908 12.3361 12.2721 12.4412 12.2746H14.8588C14.9639 12.2721 15.0684 12.2908 15.1662 12.3295C15.2641 12.3682 15.3532 12.4262 15.4284 12.5001C15.5036 12.574 15.5634 12.6623 15.6042 12.7597C15.645 12.8572 15.666 12.9619 15.666 13.0676C15.666 13.1734 15.645 13.2781 15.6042 13.3756C15.5634 13.473 15.5036 13.5613 15.4284 13.6352C15.3532 13.7091 15.2641 13.7671 15.1662 13.8058C15.0684 13.8445 14.9639 13.8632 14.8588 13.8606Z" fill="#AB2346"/>
<path d="M10.0802 1.84551H8.46174C8.35665 1.84803 8.25212 1.82939 8.1543 1.79067C8.05648 1.75195 7.96735 1.69394 7.89214 1.62005C7.81693 1.54616 7.75718 1.45789 7.71638 1.36042C7.67557 1.26296 7.65454 1.15827 7.65454 1.05251C7.65454 0.946749 7.67557 0.842058 7.71638 0.744592C7.75718 0.647126 7.81693 0.558853 7.89214 0.484966C7.96735 0.41108 8.05648 0.35307 8.1543 0.314351C8.25212 0.275631 8.35665 0.256983 8.46174 0.259503H10.0802C10.1853 0.256983 10.2898 0.275631 10.3876 0.314351C10.4854 0.35307 10.5746 0.41108 10.6498 0.484966C10.725 0.558853 10.7847 0.647126 10.8255 0.744592C10.8663 0.842058 10.8874 0.946749 10.8874 1.05251C10.8874 1.15827 10.8663 1.26296 10.8255 1.36042C10.7847 1.45789 10.725 1.54616 10.6498 1.62005C10.5746 1.69394 10.4854 1.75195 10.3876 1.79067C10.2898 1.82939 10.1853 1.84803 10.0802 1.84551Z" fill="#82AEC9"/>
<path d="M10.0801 4.24835H6.87946C6.77438 4.25087 6.66987 4.23222 6.57205 4.1935C6.47423 4.15478 6.3851 4.09677 6.30989 4.02288C6.23468 3.949 6.17491 3.86072 6.1341 3.76326C6.0933 3.66579 6.07227 3.5611 6.07227 3.45534C6.07227 3.34958 6.0933 3.24489 6.1341 3.14742C6.17491 3.04996 6.23468 2.96169 6.30989 2.8878C6.3851 2.81391 6.47423 2.7559 6.57205 2.71718C6.66987 2.67846 6.77438 2.65981 6.87946 2.66233H10.0801C10.1852 2.65981 10.2897 2.67846 10.3875 2.71718C10.4853 2.7559 10.5745 2.81391 10.6497 2.8878C10.7249 2.96169 10.7847 3.04996 10.8255 3.14742C10.8663 3.24489 10.8873 3.34958 10.8873 3.45534C10.8873 3.5611 10.8663 3.66579 10.8255 3.76326C10.7847 3.86072 10.7249 3.949 10.6497 4.02288C10.5745 4.09677 10.4853 4.15478 10.3875 4.1935C10.2897 4.23222 10.1852 4.25087 10.0801 4.24835Z" fill="#82AEC9"/>
<path d="M10.0796 6.65166H5.29499C5.1899 6.65418 5.08537 6.63554 4.98755 6.59682C4.88973 6.5581 4.8006 6.50009 4.72539 6.4262C4.65018 6.35231 4.59041 6.26404 4.5496 6.16658C4.5088 6.06911 4.48779 5.96442 4.48779 5.85866C4.48779 5.7529 4.5088 5.64821 4.5496 5.55074C4.59041 5.45328 4.65018 5.365 4.72539 5.29112C4.8006 5.21723 4.88973 5.15922 4.98755 5.1205C5.08537 5.08178 5.1899 5.06313 5.29499 5.06565H10.0796C10.1846 5.06313 10.2892 5.08178 10.387 5.1205C10.4848 5.15922 10.574 5.21723 10.6492 5.29112C10.7244 5.365 10.7841 5.45328 10.8249 5.55074C10.8658 5.64821 10.8868 5.7529 10.8868 5.85866C10.8868 5.96442 10.8658 6.06911 10.8249 6.16658C10.7841 6.26404 10.7244 6.35231 10.6492 6.4262C10.574 6.50009 10.4848 6.5581 10.387 6.59682C10.2892 6.63554 10.1846 6.65418 10.0796 6.65166Z" fill="#82AEC9"/>
<path d="M10.08 9.05498H3.69392C3.58883 9.0575 3.48432 9.03885 3.3865 9.00013C3.28869 8.96142 3.19955 8.90341 3.12434 8.82952C3.04913 8.75563 2.98936 8.66736 2.94856 8.5699C2.90775 8.47243 2.88672 8.36774 2.88672 8.26198C2.88672 8.15622 2.90775 8.05153 2.94856 7.95406C2.98936 7.8566 3.04913 7.76832 3.12434 7.69444C3.19955 7.62055 3.28869 7.56254 3.3865 7.52382C3.48432 7.4851 3.58883 7.46646 3.69392 7.46898H10.08C10.185 7.46646 10.2896 7.4851 10.3874 7.52382C10.4852 7.56254 10.5743 7.62055 10.6495 7.69444C10.7247 7.76832 10.7845 7.8566 10.8253 7.95406C10.8661 8.05153 10.8871 8.15622 10.8871 8.26198C10.8871 8.36774 10.8661 8.47243 10.8253 8.5699C10.7845 8.66736 10.7247 8.75563 10.6495 8.82952C10.5743 8.90341 10.4852 8.96142 10.3874 9.00013C10.2896 9.03885 10.185 9.0575 10.08 9.05498Z" fill="#82AEC9"/>
<path d="M20.4315 9.05498H12.4427C12.3376 9.0575 12.2331 9.03885 12.1353 9.00013C12.0374 8.96142 11.9483 8.90341 11.8731 8.82952C11.7979 8.75563 11.7381 8.66736 11.6973 8.5699C11.6565 8.47243 11.6355 8.36774 11.6355 8.26198C11.6355 8.15622 11.6565 8.05153 11.6973 7.95406C11.7381 7.8566 11.7979 7.76832 11.8731 7.69444C11.9483 7.62055 12.0374 7.56254 12.1353 7.52382C12.2331 7.4851 12.3376 7.46646 12.4427 7.46898H20.4315C20.5366 7.46646 20.6411 7.4851 20.7389 7.52382C20.8367 7.56254 20.9259 7.62055 21.0011 7.69444C21.0763 7.76832 21.136 7.8566 21.1768 7.95406C21.2177 8.05153 21.2387 8.15622 21.2387 8.26198C21.2387 8.36774 21.2177 8.47243 21.1768 8.5699C21.136 8.66736 21.0763 8.75563 21.0011 8.82952C20.9259 8.90341 20.8367 8.96142 20.7389 9.00013C20.6411 9.03885 20.5366 9.0575 20.4315 9.05498Z" fill="#82AEC9"/>
<path d="M10.0798 11.4583H5.28938C5.18429 11.4608 5.07978 11.4422 4.98196 11.4035C4.88414 11.3647 4.79501 11.3067 4.7198 11.2328C4.64459 11.159 4.58482 11.0707 4.54402 10.9732C4.50321 10.8757 4.48218 10.7711 4.48218 10.6653C4.48218 10.5595 4.50321 10.4548 4.54402 10.3574C4.58482 10.2599 4.64459 10.1716 4.7198 10.0978C4.79501 10.0239 4.88414 9.96586 4.98196 9.92714C5.07978 9.88842 5.18429 9.86978 5.28938 9.8723H10.0798C10.1849 9.86978 10.2894 9.88842 10.3872 9.92714C10.4851 9.96586 10.5742 10.0239 10.6494 10.0978C10.7246 10.1716 10.7843 10.2599 10.8252 10.3574C10.866 10.4548 10.887 10.5595 10.887 10.6653C10.887 10.7711 10.866 10.8757 10.8252 10.9732C10.7843 11.0707 10.7246 11.159 10.6494 11.2328C10.5742 11.3067 10.4851 11.3647 10.3872 11.4035C10.2894 11.4422 10.1849 11.4608 10.0798 11.4583Z" fill="#82AEC9"/>
<path d="M20.4316 11.4583H18.0172C17.8114 11.4534 17.6157 11.3677 17.4719 11.2195C17.3281 11.0713 17.2476 10.8724 17.2476 10.6653C17.2476 10.4582 17.3281 10.2593 17.4719 10.1111C17.6157 9.96295 17.8114 9.87723 18.0172 9.8723H20.4316C20.5367 9.86978 20.6413 9.88842 20.7391 9.92714C20.8369 9.96586 20.926 10.0239 21.0012 10.0978C21.0765 10.1716 21.1362 10.2599 21.177 10.3574C21.2178 10.4548 21.2388 10.5595 21.2388 10.6653C21.2388 10.7711 21.2178 10.8757 21.177 10.9732C21.1362 11.0707 21.0765 11.159 21.0012 11.2328C20.926 11.3067 20.8369 11.3647 20.7391 11.4035C20.6413 11.4422 20.5367 11.4608 20.4316 11.4583Z" fill="#82AEC9"/>
<path d="M10.0793 13.8606H6.87336C6.76827 13.8632 6.66374 13.8445 6.56592 13.8058C6.4681 13.7671 6.37897 13.7091 6.30376 13.6352C6.22855 13.5613 6.16878 13.473 6.12797 13.3756C6.08717 13.2781 6.06616 13.1734 6.06616 13.0676C6.06616 12.9619 6.08717 12.8572 6.12797 12.7597C6.16878 12.6623 6.22855 12.574 6.30376 12.5001C6.37897 12.4262 6.4681 12.3682 6.56592 12.3295C6.66374 12.2908 6.76827 12.2721 6.87336 12.2746H10.0793C10.1844 12.2721 10.289 12.2908 10.3868 12.3295C10.4846 12.3682 10.5737 12.4262 10.6489 12.5001C10.7241 12.574 10.7839 12.6623 10.8247 12.7597C10.8655 12.8572 10.8865 12.9619 10.8865 13.0676C10.8865 13.1734 10.8655 13.2781 10.8247 13.3756C10.7839 13.473 10.7241 13.5613 10.6489 13.6352C10.5737 13.7091 10.4846 13.7671 10.3868 13.8058C10.289 13.8445 10.1844 13.8632 10.0793 13.8606Z" fill="#82AEC9"/>
<path d="M20.58 13.8606H17.233C17.0272 13.8557 16.8315 13.77 16.6877 13.6218C16.5439 13.4736 16.4634 13.2747 16.4634 13.0676C16.4634 12.8605 16.5439 12.6616 16.6877 12.5135C16.8315 12.3653 17.0272 12.2796 17.233 12.2746H20.58C20.6851 12.2721 20.7896 12.2908 20.8874 12.3295C20.9853 12.3682 21.0744 12.4262 21.1496 12.5001C21.2248 12.574 21.2846 12.6623 21.3254 12.7597C21.3662 12.8572 21.3872 12.9619 21.3872 13.0676C21.3872 13.1734 21.3662 13.2781 21.3254 13.3756C21.2846 13.473 21.2248 13.5613 21.1496 13.6352C21.0744 13.7091 20.9853 13.7671 20.8874 13.8058C20.7896 13.8445 20.6851 13.8632 20.58 13.8606Z" fill="#82AEC9"/>
<path d="M10.0802 16.2645H8.46174C8.35665 16.267 8.25212 16.2483 8.1543 16.2096C8.05648 16.1709 7.96735 16.1129 7.89214 16.039C7.81693 15.9651 7.75718 15.8768 7.71638 15.7794C7.67557 15.6819 7.65454 15.5772 7.65454 15.4715C7.65454 15.3657 7.67557 15.261 7.71638 15.1635C7.75718 15.0661 7.81693 14.9778 7.89214 14.9039C7.96735 14.83 8.05648 14.772 8.1543 14.7333C8.25212 14.6946 8.35665 14.6759 8.46174 14.6784H10.0802C10.1853 14.6759 10.2898 14.6946 10.3876 14.7333C10.4854 14.772 10.5746 14.83 10.6498 14.9039C10.725 14.9778 10.7847 15.0661 10.8255 15.1635C10.8663 15.261 10.8874 15.3657 10.8874 15.4715C10.8874 15.5772 10.8663 15.6819 10.8255 15.7794C10.7847 15.8768 10.725 15.9651 10.6498 16.039C10.5746 16.1129 10.4854 16.1709 10.3876 16.2096C10.2898 16.2483 10.1853 16.267 10.0802 16.2645Z" fill="#82AEC9"/>
<path d="M15.656 16.2645H12.4419C12.3368 16.267 12.2323 16.2483 12.1345 16.2096C12.0367 16.1709 11.9476 16.1129 11.8724 16.039C11.7972 15.9651 11.7374 15.8768 11.6966 15.7794C11.6558 15.6819 11.6348 15.5772 11.6348 15.4715C11.6348 15.3657 11.6558 15.261 11.6966 15.1635C11.7374 15.0661 11.7972 14.9778 11.8724 14.9039C11.9476 14.83 12.0367 14.772 12.1345 14.7333C12.2323 14.6946 12.3368 14.6759 12.4419 14.6784H15.656C15.7611 14.6759 15.8656 14.6946 15.9634 14.7333C16.0613 14.772 16.1504 14.83 16.2256 14.9039C16.3008 14.9778 16.3606 15.0661 16.4014 15.1635C16.4422 15.261 16.4632 15.3657 16.4632 15.4715C16.4632 15.5772 16.4422 15.6819 16.4014 15.7794C16.3606 15.8768 16.3008 15.9651 16.2256 16.039C16.1504 16.1129 16.0613 16.1709 15.9634 16.2096C15.8656 16.2483 15.7611 16.267 15.656 16.2645Z" fill="#82AEC9"/>
<path d="M6.9099 1.65809C6.9099 1.77792 6.87458 1.89505 6.80841 1.99468C6.74224 2.09431 6.64819 2.17197 6.53816 2.21782C6.42813 2.26368 6.30706 2.27567 6.19025 2.2523C6.07344 2.22892 5.96615 2.17122 5.88194 2.08649C5.79772 2.00176 5.74037 1.89381 5.71714 1.77629C5.6939 1.65877 5.70583 1.53695 5.7514 1.42625C5.79698 1.31554 5.87415 1.22092 5.97318 1.15435C6.0722 1.08778 6.18863 1.05225 6.30772 1.05225C6.46743 1.05225 6.62058 1.11608 6.73351 1.2297C6.84644 1.34331 6.9099 1.49741 6.9099 1.65809Z" fill="#1D365A"/>
<path d="M6.8867 15.265C6.8867 15.3848 6.85138 15.502 6.78522 15.6016C6.71905 15.7012 6.625 15.7789 6.51497 15.8248C6.40494 15.8706 6.28387 15.8826 6.16706 15.8592C6.05025 15.8359 5.94296 15.7782 5.85874 15.6934C5.77453 15.6087 5.71718 15.5007 5.69394 15.3832C5.67071 15.2657 5.68263 15.1439 5.72821 15.0332C5.77379 14.9225 5.85099 14.8279 5.95001 14.7613C6.04904 14.6947 6.16544 14.6592 6.28453 14.6592C6.44423 14.6592 6.59742 14.723 6.71035 14.8366C6.82327 14.9502 6.8867 15.1043 6.8867 15.265Z" fill="#1D365A"/>
<path d="M4.89359 4.2488H4.09757C3.99302 4.2488 3.89275 4.20701 3.81882 4.13263C3.74489 4.05825 3.70337 3.95737 3.70337 3.85218C3.70337 3.74699 3.74489 3.64611 3.81882 3.57173C3.89275 3.49735 3.99302 3.45557 4.09757 3.45557H4.89359C4.99814 3.45557 5.09841 3.49735 5.17234 3.57173C5.24626 3.64611 5.28779 3.74699 5.28779 3.85218C5.28779 3.95737 5.24626 4.05825 5.17234 4.13263C5.09841 4.20701 4.99814 4.2488 4.89359 4.2488Z" fill="#1D365A"/>
<path d="M3.29867 6.65212H1.7089C1.60435 6.65212 1.50407 6.61033 1.43015 6.53595C1.35622 6.46157 1.3147 6.36069 1.3147 6.2555C1.3147 6.15031 1.35622 6.04943 1.43015 5.97505C1.50407 5.90067 1.60435 5.85889 1.7089 5.85889H3.29867C3.40322 5.85889 3.50349 5.90067 3.57742 5.97505C3.65135 6.04943 3.6929 6.15031 3.6929 6.2555C3.6929 6.36069 3.65135 6.46157 3.57742 6.53595C3.50349 6.61033 3.40322 6.65212 3.29867 6.65212Z" fill="#1D365A"/>
<path d="M3.30914 10.6482H0.921542C0.816994 10.6482 0.716749 10.6064 0.642822 10.532C0.568894 10.4577 0.527344 10.3568 0.527344 10.2516C0.527344 10.1464 0.568894 10.0455 0.642822 9.97114C0.716749 9.89676 0.816994 9.85498 0.921542 9.85498H3.30914C3.41369 9.85498 3.51396 9.89676 3.58789 9.97114C3.66182 10.0455 3.70334 10.1464 3.70334 10.2516C3.70334 10.3568 3.66182 10.4577 3.58789 10.532C3.51396 10.6064 3.41369 10.6482 3.30914 10.6482Z" fill="#1D365A"/>
<path d="M4.89741 13.0427H4.09781C3.99326 13.0427 3.89299 13.001 3.81906 12.9266C3.74514 12.8522 3.70361 12.7513 3.70361 12.6461C3.70361 12.5409 3.74514 12.4401 3.81906 12.3657C3.89299 12.2913 3.99326 12.2495 4.09781 12.2495H4.89741C5.00196 12.2495 5.10223 12.2913 5.17616 12.3657C5.25009 12.4401 5.29161 12.5409 5.29161 12.6461C5.29161 12.7513 5.25009 12.8522 5.17616 12.9266C5.10223 13.001 5.00196 13.0427 4.89741 13.0427Z" fill="#1D365A"/>
<path d="M29.6386 7.73677C29.8526 8.00466 29.9675 8.33902 29.9637 8.6827C29.9697 8.98222 29.8879 9.2769 29.7286 9.52999C29.5614 9.78256 29.3252 9.98119 29.0485 10.102C28.717 10.2468 28.3582 10.3172 27.9969 10.3084H25.4226V4.3035H27.885C28.2441 4.2947 28.601 4.36208 28.9326 4.50124C29.2039 4.61499 29.4359 4.80659 29.5997 5.05213C29.7518 5.29073 29.8306 5.56915 29.8262 5.85257C29.8372 6.16868 29.7392 6.47888 29.5486 6.73048C29.3585 6.96893 29.1004 7.1431 28.809 7.22958C29.1387 7.28867 29.4346 7.46956 29.6386 7.73677ZM26.6193 6.78183H27.7144C27.9496 6.79723 28.1826 6.72864 28.3725 6.58814C28.4507 6.51964 28.5122 6.43397 28.5523 6.33775C28.5923 6.24153 28.6099 6.13733 28.6035 6.0332C28.6096 5.92844 28.5919 5.82367 28.5519 5.72676C28.5119 5.62986 28.4506 5.54335 28.3725 5.47375C28.1839 5.33036 27.9503 5.26001 27.7144 5.27556H26.6193V6.78183ZM28.505 9.12414C28.5874 9.05171 28.6521 8.96128 28.6943 8.85978C28.7365 8.75828 28.7551 8.6484 28.7486 8.53856C28.7543 8.42448 28.7342 8.31058 28.6898 8.20546C28.6453 8.10035 28.5777 8.00677 28.4921 7.93181C28.2951 7.77699 28.0491 7.69907 27.7994 7.71245H26.6193V9.32999H27.8254C28.0693 9.34499 28.3105 9.27183 28.5055 9.12369" fill="#AB2346"/>
<path d="M32.7116 5.68922C32.9711 5.54278 33.2647 5.46847 33.5622 5.47391V6.74011H33.2457C33.0859 6.71408 32.9222 6.72754 32.7687 6.77931C32.6152 6.83108 32.4765 6.91962 32.3646 7.0373C32.2526 7.15497 32.1708 7.29826 32.1261 7.45483C32.0814 7.61139 32.0753 7.77653 32.1081 7.93603V10.3108H30.9114V5.54283H32.1067V6.28291C32.2545 6.03679 32.462 5.8325 32.7098 5.68922" fill="#AB2346"/>
<path d="M35.331 10.0818C34.9689 9.8811 34.6709 9.58121 34.4714 9.21693C34.2572 8.82149 34.1492 8.37668 34.158 7.92641C34.1488 7.47506 34.2594 7.0294 34.4786 6.63544C34.6844 6.27021 34.9882 5.97053 35.3552 5.77059C35.7382 5.57004 36.1636 5.46533 36.5953 5.46533C37.0271 5.46533 37.4524 5.57004 37.8354 5.77059C38.2024 5.97057 38.5061 6.27024 38.712 6.63544C38.9313 7.02935 39.0422 7.47501 39.033 7.92641C39.0422 8.3787 38.9284 8.82492 38.704 9.21693C38.4922 9.58208 38.1844 9.88134 37.8144 10.0818C37.4289 10.2885 36.9976 10.3935 36.5608 10.3872C36.131 10.3938 35.7067 10.2886 35.3292 10.0818M37.1724 9.17819C37.3679 9.06728 37.5269 8.90132 37.6299 8.70072C37.7502 8.46098 37.809 8.19482 37.801 7.92641C37.8134 7.73723 37.7884 7.54744 37.7275 7.36801C37.6667 7.18857 37.5711 7.02303 37.4464 6.88093C37.3348 6.76278 37.2 6.66929 37.0505 6.6064C36.9011 6.54351 36.7403 6.51259 36.5783 6.51562C36.4175 6.51208 36.2578 6.5428 36.1096 6.60576C35.9615 6.66872 35.8283 6.7625 35.7187 6.88093C35.4717 7.17037 35.3473 7.54572 35.3722 7.92641C35.3472 8.30565 35.4682 8.68003 35.7102 8.97189C35.8176 9.0907 35.9491 9.18487 36.0959 9.24798C36.2427 9.31109 36.4013 9.34167 36.5608 9.33765C36.7749 9.33834 36.9855 9.28313 37.1724 9.17819Z" fill="#AB2346"/>
<path d="M39.9401 6.62704C40.1145 6.27263 40.3843 5.97455 40.7187 5.76669C41.0499 5.56496 41.4307 5.46057 41.8178 5.46534C42.1402 5.45798 42.4593 5.53201 42.7459 5.68066C42.9957 5.81079 43.2133 5.99547 43.383 6.22119V5.54282H44.5891V10.3108H43.383V9.61302C43.2178 9.84665 42.9993 10.037 42.7459 10.168C42.4568 10.3187 42.1348 10.3941 41.8093 10.3873C41.4238 10.3912 41.0453 10.2836 40.7187 10.0774C40.3843 9.86382 40.1149 9.56162 39.9401 9.20402C39.7431 8.80161 39.6448 8.35751 39.6536 7.909C39.6451 7.46455 39.7434 7.02506 39.9401 6.62704ZM43.2115 7.17297C43.1054 6.97206 42.9453 6.80521 42.7495 6.69145C42.5598 6.58059 42.3442 6.5226 42.1249 6.52343C41.9046 6.52101 41.688 6.57951 41.4985 6.69254C41.309 6.80558 41.154 6.96881 41.0504 7.16442C40.9289 7.39314 40.8684 7.6497 40.8749 7.909C40.869 8.17096 40.9294 8.43012 41.0504 8.66214C41.1568 8.86652 41.3165 9.03784 41.5125 9.15762C41.6967 9.27051 41.9083 9.33005 42.124 9.32969C42.3433 9.3306 42.5589 9.27277 42.7486 9.16213C42.9444 9.04813 43.1044 8.88115 43.2106 8.68016C43.3231 8.4453 43.3815 8.18795 43.3815 7.92724C43.3815 7.66653 43.3231 7.40918 43.2106 7.17432" fill="#AB2346"/>
<path d="M45.7029 6.62653C45.8755 6.27306 46.1444 5.9762 46.4783 5.77054C46.8121 5.56487 47.1972 5.45886 47.5886 5.46484C47.8937 5.46426 48.195 5.53342 48.4697 5.66709C48.7325 5.78855 48.9616 5.97326 49.1367 6.20492V3.94189H50.3514V10.3094H49.1367V9.60396C48.982 9.84524 48.7667 10.0412 48.5127 10.172C48.2244 10.3202 47.9042 10.3942 47.5806 10.3873C47.1938 10.3908 46.8141 10.2833 46.4859 10.0774C46.1497 9.86476 45.8788 9.56239 45.7033 9.20397C45.5062 8.80157 45.408 8.35747 45.4168 7.90895C45.4083 7.4645 45.5066 7.02455 45.7033 6.62653M48.9747 7.17292C48.8687 6.97207 48.7088 6.80522 48.5131 6.6914C48.3236 6.58062 48.1082 6.52263 47.889 6.52338C47.6687 6.52096 47.452 6.57946 47.2626 6.69249C47.0731 6.80553 46.9181 6.96875 46.8145 7.16436C46.693 7.39309 46.6325 7.64965 46.639 7.90895C46.6331 8.1709 46.6935 8.43007 46.8145 8.66209C46.9209 8.86647 47.0806 9.03779 47.2766 9.15757C47.4608 9.27048 47.6724 9.33003 47.8881 9.32965C48.1072 9.33047 48.3226 9.27264 48.5122 9.16208C48.7079 9.04802 48.8678 8.88104 48.9738 8.68011C49.0864 8.44529 49.1449 8.18792 49.1449 7.92719C49.1449 7.66646 49.0864 7.40909 48.9738 7.17427" fill="#AB2346"/>
<path d="M52.2466 10.1749C51.9585 10.0497 51.7068 9.8527 51.5155 9.60242C51.3397 9.37154 51.2369 9.09282 51.2205 8.80243H52.4266C52.4376 8.89297 52.4672 8.98022 52.5134 9.05868C52.5596 9.13714 52.6215 9.20511 52.6952 9.25828C52.8648 9.38273 53.071 9.44618 53.2808 9.43846C53.4689 9.44943 53.6557 9.40126 53.8153 9.30062C53.8744 9.26297 53.923 9.21088 53.9567 9.14921C53.9904 9.08753 54.008 9.01829 54.0078 8.94793C54.0083 8.87272 53.986 8.79915 53.9441 8.73691C53.9021 8.67467 53.8424 8.62669 53.7728 8.59928C53.5313 8.49235 53.2808 8.40733 53.0242 8.34524C52.7289 8.27736 52.4388 8.18824 52.1561 8.07857C51.9313 7.98714 51.7316 7.84252 51.5741 7.65696C51.4026 7.44029 51.3159 7.16784 51.3306 6.8912C51.3294 6.63305 51.4086 6.38101 51.5571 6.1705C51.7221 5.94117 51.9472 5.76246 52.2072 5.65429C52.5225 5.52139 52.862 5.45677 53.2038 5.46465C53.6903 5.43932 54.1698 5.59052 54.5549 5.89077C54.7222 6.03258 54.858 6.20805 54.9538 6.40588C55.0496 6.6037 55.1031 6.8195 55.111 7.0394H53.9649C53.9593 6.95193 53.9355 6.86662 53.895 6.78902C53.8545 6.71142 53.7982 6.64325 53.7298 6.58896C53.5725 6.4884 53.3917 6.4313 53.2055 6.4234C53.0193 6.41549 52.8344 6.45705 52.6692 6.54391C52.6137 6.57982 52.5683 6.62962 52.5376 6.68845C52.5069 6.74727 52.492 6.8131 52.4942 6.87949C52.4937 6.95751 52.5162 7.03392 52.5588 7.09909C52.6014 7.16427 52.6623 7.21528 52.7337 7.2457C52.9722 7.35631 53.2216 7.44132 53.4778 7.4993C53.7659 7.56819 54.0488 7.65745 54.3244 7.76641C54.5481 7.85921 54.7462 8.00528 54.9015 8.19208C55.0722 8.40811 55.1616 8.67788 55.1539 8.95378C55.1572 9.21823 55.0779 9.47705 54.9274 9.69386C54.7629 9.92264 54.5376 10.1001 54.2774 10.206C53.9643 10.3352 53.6281 10.3981 53.2897 10.3907C52.9309 10.3966 52.5749 10.3247 52.2461 10.1799" fill="#AB2346"/>
<path d="M57.9534 5.68505C58.2396 5.53492 58.5587 5.4595 58.8815 5.46568C59.2686 5.4608 59.6493 5.56503 59.9806 5.76658C60.314 5.97363 60.5836 6.26997 60.7591 6.62242C60.9567 7.0216 61.055 7.46306 61.0457 7.90889C61.0544 8.3574 60.9561 8.80147 60.7591 9.20391C60.5842 9.5614 60.3148 9.86357 59.9806 10.0773C59.6512 10.2843 59.2698 10.3918 58.8815 10.3872C58.562 10.3939 58.246 10.3199 57.9623 10.1719C57.711 10.0405 57.4908 9.85616 57.3168 9.63138V12.5827H56.1191V5.54316H57.3168V6.23144C57.484 6.00191 57.7017 5.81481 57.9534 5.68505ZM59.647 7.16476C59.5402 6.96556 59.3804 6.80022 59.1855 6.68729C58.9967 6.57885 58.7828 6.52245 58.5654 6.52377C58.3502 6.52327 58.1389 6.58132 57.9538 6.69179C57.7586 6.80812 57.5989 6.97626 57.4923 7.17782C57.3769 7.41032 57.3169 7.66661 57.3169 7.92646C57.3169 8.1863 57.3769 8.44259 57.4923 8.67509C57.5989 8.8766 57.7586 9.04474 57.9538 9.16112C58.1407 9.2715 58.3536 9.32932 58.5703 9.32852C58.7869 9.32773 58.9994 9.26836 59.1855 9.15661C59.3803 9.03779 59.5398 8.86834 59.647 8.66608C59.769 8.43295 59.8294 8.17224 59.8225 7.90889C59.8292 7.64959 59.7687 7.39346 59.647 7.16476Z" fill="#AB2346"/>
<path d="M66.2712 8.28733H62.8073C62.8175 8.59414 62.9459 8.88494 63.1654 9.09812C63.3772 9.29372 63.6562 9.39872 63.9435 9.39091C64.1412 9.40274 64.3378 9.35391 64.5073 9.25087C64.6767 9.14784 64.8111 8.99546 64.8927 8.8139H66.1843C66.0515 9.26731 65.7754 9.66475 65.3977 9.94586C64.984 10.2496 64.4813 10.4054 63.9695 10.3886C63.5411 10.3955 63.1182 10.2903 62.7424 10.0832C62.3834 9.88283 62.0895 9.58255 61.8958 9.21839C61.6875 8.82106 61.583 8.37698 61.5922 7.92787C61.5823 7.4763 61.6853 7.02946 61.8917 6.62835C62.0816 6.26541 62.373 5.96634 62.7298 5.768C63.1084 5.57153 63.5279 5.4683 63.9539 5.46681C64.3799 5.46533 64.8002 5.56562 65.1801 5.75944C65.531 5.94914 65.8192 6.23763 66.0097 6.58961C66.2115 6.96913 66.313 7.3944 66.3047 7.82472C66.3059 7.9802 66.2945 8.13551 66.2707 8.28913M65.0646 7.47833C65.0671 7.3372 65.0385 7.19727 64.9808 7.0686C64.9231 6.93993 64.8379 6.82572 64.7311 6.7342C64.5092 6.54584 64.2261 6.44626 63.9359 6.45447C63.6614 6.44606 63.3939 6.54264 63.1874 6.72474C62.9765 6.92175 62.8442 7.18935 62.8153 7.47743L65.0646 7.47833Z" fill="#AB2346"/>
<path d="M67.2985 6.63091C67.4883 6.27079 67.776 5.97241 68.1281 5.77056C68.4989 5.56242 68.9181 5.45703 69.3427 5.46516C69.8642 5.44473 70.3774 5.60079 70.8004 5.90839C71.1951 6.21891 71.469 6.65885 71.5745 7.15162H70.2829C70.2224 6.95631 70.1008 6.78585 69.9363 6.66559C69.7587 6.54342 69.5469 6.4817 69.3319 6.48947C69.1768 6.48305 69.0224 6.51361 68.8813 6.57867C68.7401 6.64372 68.6163 6.74141 68.5198 6.86378C68.324 7.18172 68.2203 7.54831 68.2203 7.92232C68.2203 8.29634 68.324 8.66293 68.5198 8.98086C68.6163 9.10324 68.7401 9.20093 68.8813 9.26598C69.0224 9.33103 69.1768 9.3616 69.3319 9.35518C69.5409 9.37322 69.7496 9.31793 69.9226 9.1987C70.0956 9.07948 70.2223 8.90367 70.2811 8.70114H71.5727C71.46 9.18855 71.1853 9.62267 70.7941 9.93175C70.3754 10.2459 69.8625 10.4068 69.3404 10.3876C68.9158 10.3957 68.4967 10.2904 68.1258 10.0822C67.7739 9.88026 67.4862 9.58191 67.2962 9.22185C67.0993 8.81892 66.9968 8.37587 66.9968 7.92683C66.9968 7.47779 67.0993 7.03474 67.2962 6.63181" fill="#AB2346"/>
<path d="M73.9307 6.5322V8.83847C73.9249 8.90146 73.9321 8.965 73.952 9.02502C73.9719 9.08504 74.004 9.14025 74.0462 9.18711C74.1585 9.2696 74.2969 9.30775 74.4353 9.29432H74.9913V10.3096H74.2387C73.2296 10.3096 72.725 9.81638 72.725 8.82991V6.53265H72.1587V5.54168H72.7232V4.36377H73.9289V5.54258H74.9895V6.53355L73.9307 6.5322Z" fill="#AB2346"/>
<path d="M77.7728 5.68922C78.0323 5.54276 78.3259 5.46845 78.6234 5.47391V6.74011H78.3069C78.1471 6.71398 77.9833 6.72735 77.8298 6.77909C77.6762 6.83082 77.5375 6.91936 77.4255 7.03706C77.3135 7.15477 77.2317 7.29811 77.1871 7.45472C77.1424 7.61133 77.1363 7.77652 77.1693 7.93603V10.3108H75.9717V5.54283H77.1693V6.28291C77.317 6.03673 77.525 5.83242 77.7728 5.68922Z" fill="#AB2346"/>
<path d="M83.923 5.54297V10.31H82.7169V9.70777C82.5592 9.91754 82.3521 10.0846 82.1143 10.1938C81.8613 10.3123 81.5852 10.3725 81.3062 10.3699C80.9631 10.3771 80.624 10.2957 80.3212 10.1334C80.0337 9.9732 79.8 9.73067 79.6496 9.4366C79.4796 9.09685 79.396 8.72001 79.4061 8.33977V5.54297H80.6037V8.1677C80.5828 8.48433 80.6838 8.79693 80.8857 9.04066C80.9849 9.14397 81.1049 9.22469 81.2376 9.27737C81.3704 9.33006 81.5128 9.35348 81.6553 9.34606C81.7992 9.35404 81.9431 9.33092 82.0773 9.27824C82.2115 9.22556 82.333 9.14454 82.4335 9.04066C82.6355 8.79696 82.7365 8.48434 82.7155 8.1677V5.54297H83.923Z" fill="#AB2346"/>
<path d="M92.4642 6.01182C92.6495 6.21284 92.7924 6.44955 92.8842 6.70765C92.9761 6.96576 93.0151 7.23993 92.9987 7.51359V10.3099H91.8016V7.67665C91.8226 7.36514 91.7211 7.05778 91.519 6.82081C91.4186 6.71991 91.2981 6.64135 91.1656 6.59021C91.033 6.53908 90.8912 6.51651 90.7495 6.52397C90.607 6.51683 90.4647 6.53952 90.3315 6.59062C90.1982 6.64172 90.0769 6.7201 89.9754 6.82081C89.874 6.93752 89.7966 7.07318 89.7474 7.22003C89.6983 7.36689 89.6784 7.52205 89.6889 7.67665V10.3099H88.4917V7.67665C88.5126 7.36523 88.4113 7.05797 88.2096 6.82081C88.1091 6.71993 87.9887 6.64139 87.8562 6.59025C87.7236 6.53912 87.5818 6.51654 87.4401 6.52397C87.2963 6.51623 87.1525 6.53862 87.0178 6.58972C86.8831 6.64082 86.7604 6.71951 86.6575 6.82081C86.5562 6.93754 86.4788 7.07321 86.4296 7.22006C86.3804 7.3669 86.3605 7.52206 86.371 7.67665V10.3099H85.1733V5.54291H86.371V6.11947C86.5284 5.91595 86.7324 5.75369 86.9655 5.64651C87.216 5.52998 87.4892 5.47119 87.7651 5.47444C88.1103 5.46836 88.4514 5.54968 88.7572 5.71092C89.0436 5.86437 89.2786 6.0994 89.4328 6.38659C89.591 6.1073 89.8236 5.87798 90.1043 5.72443C90.4789 5.52018 90.9073 5.4382 91.3302 5.48985C91.7531 5.54151 92.1495 5.72424 92.4646 6.01272" fill="#AB2346"/>
</svg>
