<svg width="91" height="16" viewBox="0 0 91 16" fill="none" xmlns="http://www.w3.org/2000/svg">
<path d="M15.3725 1.83761H12.2605C12.1588 1.84005 12.0576 1.82199 11.9629 1.7845C11.8682 1.74701 11.7819 1.69085 11.7091 1.61931C11.6362 1.54777 11.5784 1.4623 11.5389 1.36793C11.4993 1.27356 11.479 1.17219 11.479 1.06979C11.479 0.967393 11.4993 0.866027 11.5389 0.771657C11.5784 0.677287 11.6362 0.591818 11.7091 0.520278C11.7819 0.448738 11.8682 0.392572 11.9629 0.355082C12.0576 0.317592 12.1588 0.299536 12.2605 0.301976H15.3725C15.4743 0.299536 15.5755 0.317592 15.6702 0.355082C15.7649 0.392572 15.8512 0.448738 15.924 0.520278C15.9968 0.591818 16.0547 0.677287 16.0942 0.771657C16.1337 0.866027 16.1541 0.967393 16.1541 1.06979C16.1541 1.17219 16.1337 1.27356 16.0942 1.36793C16.0547 1.4623 15.9968 1.54777 15.924 1.61931C15.8512 1.69085 15.7649 1.74701 15.6702 1.7845C15.5755 1.82199 15.4743 1.84005 15.3725 1.83761Z" fill="#AB2346"/>
<path d="M16.918 4.16427H12.2615C12.1598 4.16671 12.0586 4.14865 11.9639 4.11116C11.8692 4.07367 11.7828 4.01751 11.71 3.94597C11.6372 3.87443 11.5793 3.78896 11.5398 3.69459C11.5003 3.60022 11.48 3.49885 11.48 3.39645C11.48 3.29405 11.5003 3.19269 11.5398 3.09832C11.5793 3.00395 11.6372 2.91848 11.71 2.84694C11.7828 2.7754 11.8692 2.71923 11.9639 2.68174C12.0586 2.64425 12.1598 2.6262 12.2615 2.62864H16.918C17.0197 2.6262 17.1209 2.64425 17.2156 2.68174C17.3104 2.71923 17.3967 2.7754 17.4695 2.84694C17.5423 2.91848 17.6001 3.00395 17.6397 3.09832C17.6792 3.19269 17.6995 3.29405 17.6995 3.39645C17.6995 3.49885 17.6792 3.60022 17.6397 3.69459C17.6001 3.78896 17.5423 3.87443 17.4695 3.94597C17.3967 4.01751 17.3104 4.07367 17.2156 4.11116C17.1209 4.14865 17.0197 4.16671 16.918 4.16427Z" fill="#AB2346"/>
<path d="M18.4513 6.49093H12.2608C12.0615 6.48615 11.8721 6.40316 11.7328 6.25968C11.5936 6.11621 11.5156 5.92364 11.5156 5.72311C11.5156 5.52259 11.5936 5.33001 11.7328 5.18654C11.8721 5.04307 12.0615 4.96007 12.2608 4.9553H18.4513C18.5531 4.95286 18.6543 4.97091 18.749 5.0084C18.8437 5.04589 18.93 5.10206 19.0028 5.1736C19.0757 5.24514 19.1335 5.33061 19.173 5.42498C19.2125 5.51935 19.2329 5.62071 19.2329 5.72311C19.2329 5.82551 19.2125 5.92688 19.173 6.02125C19.1335 6.11562 19.0757 6.20109 19.0028 6.27263C18.93 6.34417 18.8437 6.40033 18.749 6.43782C18.6543 6.47531 18.5531 6.49337 18.4513 6.49093Z" fill="#AB2346"/>
<path d="M15.3725 11.1447H12.2605C12.1588 11.1472 12.0576 11.1291 11.9629 11.0916C11.8682 11.0541 11.7819 10.998 11.7091 10.9264C11.6362 10.8549 11.5784 10.7694 11.5389 10.6751C11.4993 10.5807 11.479 10.4793 11.479 10.3769C11.479 10.2745 11.4993 10.1732 11.5389 10.0788C11.5784 9.98441 11.6362 9.89895 11.7091 9.82741C11.7819 9.75587 11.8682 9.6997 11.9629 9.66221C12.0576 9.62472 12.1588 9.60666 12.2605 9.6091H15.3725C15.4743 9.60666 15.5755 9.62472 15.6702 9.66221C15.7649 9.6997 15.8512 9.75587 15.924 9.82741C15.9968 9.89895 16.0547 9.98441 16.0942 10.0788C16.1337 10.1732 16.1541 10.2745 16.1541 10.3769C16.1541 10.4793 16.1337 10.5807 16.0942 10.6751C16.0547 10.7694 15.9968 10.8549 15.924 10.9264C15.8512 10.998 15.7649 11.0541 15.6702 11.0916C15.5755 11.1291 15.4743 11.1472 15.3725 11.1447Z" fill="#AB2346"/>
<path d="M14.6009 13.4709H12.2601C12.1583 13.4733 12.0571 13.4553 11.9624 13.4178C11.8677 13.3803 11.7814 13.3241 11.7086 13.2526C11.6358 13.1811 11.5779 13.0956 11.5384 13.0012C11.4989 12.9069 11.4785 12.8055 11.4785 12.7031C11.4785 12.6007 11.4989 12.4993 11.5384 12.405C11.5779 12.3106 11.6358 12.2251 11.7086 12.1536C11.7814 12.082 11.8677 12.0259 11.9624 11.9884C12.0571 11.9509 12.1583 11.9328 12.2601 11.9353H14.6009C14.7026 11.9328 14.8038 11.9509 14.8985 11.9884C14.9932 12.0259 15.0795 12.082 15.1524 12.1536C15.2252 12.2251 15.2831 12.3106 15.3226 12.405C15.3621 12.4993 15.3824 12.6007 15.3824 12.7031C15.3824 12.8055 15.3621 12.9069 15.3226 13.0012C15.2831 13.0956 15.2252 13.1811 15.1524 13.2526C15.0795 13.3241 14.9932 13.3803 14.8985 13.4178C14.8038 13.4553 14.7026 13.4733 14.6009 13.4709Z" fill="#AB2346"/>
<path d="M9.97408 1.83761H8.40705C8.3053 1.84005 8.20408 1.82199 8.10937 1.7845C8.01466 1.74701 7.92836 1.69085 7.85554 1.61931C7.78272 1.54777 7.72487 1.4623 7.68536 1.36793C7.64585 1.27356 7.62549 1.17219 7.62549 1.06979C7.62549 0.967393 7.64585 0.866027 7.68536 0.771657C7.72487 0.677287 7.78272 0.591818 7.85554 0.520278C7.92836 0.448738 8.01466 0.392572 8.10937 0.355082C8.20408 0.317592 8.3053 0.299536 8.40705 0.301976H9.97408C10.0758 0.299536 10.177 0.317592 10.2718 0.355082C10.3665 0.392572 10.4528 0.448738 10.5256 0.520278C10.5984 0.591818 10.6563 0.677287 10.6958 0.771657C10.7353 0.866027 10.7556 0.967393 10.7556 1.06979C10.7556 1.17219 10.7353 1.27356 10.6958 1.36793C10.6563 1.4623 10.5984 1.54777 10.5256 1.61931C10.4528 1.69085 10.3665 1.74701 10.2718 1.7845C10.177 1.82199 10.0758 1.84005 9.97408 1.83761Z" fill="#82AEC9"/>
<path d="M9.97377 4.16427H6.87482C6.77307 4.16671 6.67188 4.14865 6.57717 4.11116C6.48246 4.07367 6.39616 4.01751 6.32334 3.94597C6.25052 3.87443 6.19264 3.78896 6.15314 3.69459C6.11363 3.60022 6.09326 3.49885 6.09326 3.39645C6.09326 3.29405 6.11363 3.19269 6.15314 3.09832C6.19264 3.00395 6.25052 2.91848 6.32334 2.84694C6.39616 2.7754 6.48246 2.71923 6.57717 2.68174C6.67188 2.64425 6.77307 2.6262 6.87482 2.62864H9.97377C10.0755 2.6262 10.1767 2.64425 10.2714 2.68174C10.3662 2.71923 10.4525 2.7754 10.5253 2.84694C10.5981 2.91848 10.656 3.00395 10.6955 3.09832C10.735 3.19269 10.7553 3.29405 10.7553 3.39645C10.7553 3.49885 10.735 3.60022 10.6955 3.69459C10.656 3.78896 10.5981 3.87443 10.5253 3.94597C10.4525 4.01751 10.3662 4.07367 10.2714 4.11116C10.1767 4.14865 10.0755 4.16671 9.97377 4.16427Z" fill="#82AEC9"/>
<path d="M9.97323 6.49093H5.34064C5.23889 6.49337 5.13768 6.47531 5.04297 6.43782C4.94825 6.40033 4.86195 6.34417 4.78913 6.27263C4.71631 6.20109 4.65844 6.11562 4.61893 6.02125C4.57942 5.92688 4.55908 5.82551 4.55908 5.72311C4.55908 5.62071 4.57942 5.51935 4.61893 5.42498C4.65844 5.33061 4.71631 5.24514 4.78913 5.1736C4.86195 5.10206 4.94825 5.04589 5.04297 5.0084C5.13768 4.97091 5.23889 4.95286 5.34064 4.9553H9.97323C10.075 4.95286 10.1762 4.97091 10.2709 5.0084C10.3656 5.04589 10.4519 5.10206 10.5247 5.1736C10.5976 5.24514 10.6554 5.33061 10.6949 5.42498C10.7345 5.51935 10.7548 5.62071 10.7548 5.72311C10.7548 5.82551 10.7345 5.92688 10.6949 6.02125C10.6554 6.11562 10.5976 6.20109 10.5247 6.27263C10.4519 6.34417 10.3656 6.40033 10.2709 6.43782C10.1762 6.47531 10.075 6.49337 9.97323 6.49093Z" fill="#82AEC9"/>
<path d="M9.97403 8.81807H3.79083C3.68909 8.82051 3.5879 8.80246 3.49319 8.76497C3.39848 8.72748 3.31217 8.67131 3.23935 8.59977C3.16653 8.52823 3.10866 8.44277 3.06915 8.3484C3.02964 8.25403 3.00928 8.15266 3.00928 8.05026C3.00928 7.94786 3.02964 7.84649 3.06915 7.75212C3.10866 7.65775 3.16653 7.57228 3.23935 7.50075C3.31217 7.42921 3.39848 7.37304 3.49319 7.33555C3.5879 7.29806 3.68909 7.28 3.79083 7.28244H9.97403C10.0758 7.28 10.177 7.29806 10.2717 7.33555C10.3664 7.37304 10.4527 7.42921 10.5255 7.50075C10.5983 7.57228 10.6562 7.65775 10.6957 7.75212C10.7352 7.84649 10.7556 7.94786 10.7556 8.05026C10.7556 8.15266 10.7352 8.25403 10.6957 8.3484C10.6562 8.44277 10.5983 8.52823 10.5255 8.59977C10.4527 8.67131 10.3664 8.72748 10.2717 8.76497C10.177 8.80246 10.0758 8.82051 9.97403 8.81807Z" fill="#82AEC9"/>
<path d="M19.9966 8.81807H12.2615C12.1598 8.82051 12.0586 8.80246 11.9639 8.76497C11.8692 8.72748 11.7828 8.67131 11.71 8.59977C11.6372 8.52823 11.5793 8.44277 11.5398 8.3484C11.5003 8.25403 11.48 8.15266 11.48 8.05026C11.48 7.94786 11.5003 7.84649 11.5398 7.75212C11.5793 7.65775 11.6372 7.57228 11.71 7.50075C11.7828 7.42921 11.8692 7.37304 11.9639 7.33555C12.0586 7.29806 12.1598 7.28 12.2615 7.28244H19.9966C20.0983 7.28 20.1995 7.29806 20.2942 7.33555C20.3889 7.37304 20.4752 7.42921 20.5481 7.50075C20.6209 7.57228 20.6788 7.65775 20.7183 7.75212C20.7578 7.84649 20.7781 7.94786 20.7781 8.05026C20.7781 8.15266 20.7578 8.25403 20.7183 8.3484C20.6788 8.44277 20.6209 8.52823 20.5481 8.59977C20.4752 8.67131 20.3889 8.72748 20.2942 8.76497C20.1995 8.80246 20.0983 8.82051 19.9966 8.81807Z" fill="#82AEC9"/>
<path d="M9.97352 11.1447H5.33527C5.23352 11.1472 5.13233 11.1291 5.03762 11.0916C4.94291 11.0541 4.85661 10.998 4.78379 10.9264C4.71097 10.8549 4.65309 10.7694 4.61358 10.6751C4.57408 10.5807 4.55371 10.4793 4.55371 10.3769C4.55371 10.2745 4.57408 10.1732 4.61358 10.0788C4.65309 9.98441 4.71097 9.89895 4.78379 9.82741C4.85661 9.75587 4.94291 9.6997 5.03762 9.66221C5.13233 9.62472 5.23352 9.60666 5.33527 9.6091H9.97352C10.0753 9.60666 10.1765 9.62472 10.2712 9.66221C10.3659 9.6997 10.4522 9.75587 10.525 9.82741C10.5978 9.89895 10.6557 9.98441 10.6952 10.0788C10.7347 10.1732 10.7551 10.2745 10.7551 10.3769C10.7551 10.4793 10.7347 10.5807 10.6952 10.6751C10.6557 10.7694 10.5978 10.8549 10.525 10.9264C10.4522 10.998 10.3659 11.0541 10.2712 11.0916C10.1765 11.1291 10.0753 11.1472 9.97352 11.1447Z" fill="#82AEC9"/>
<path d="M19.9965 11.1447H17.6588C17.4595 11.14 17.27 11.057 17.1308 10.9135C16.9915 10.77 16.9136 10.5774 16.9136 10.3769C16.9136 10.1764 16.9915 9.98382 17.1308 9.84035C17.27 9.69688 17.4595 9.61388 17.6588 9.6091H19.9965C20.0983 9.60666 20.1995 9.62472 20.2942 9.66221C20.3889 9.6997 20.4752 9.75587 20.548 9.82741C20.6208 9.89895 20.6787 9.98441 20.7182 10.0788C20.7577 10.1732 20.7781 10.2745 20.7781 10.3769C20.7781 10.4793 20.7577 10.5807 20.7182 10.6751C20.6787 10.7694 20.6208 10.8549 20.548 10.9264C20.4752 10.998 20.3889 11.0541 20.2942 11.0916C20.1995 11.1291 20.0983 11.1472 19.9965 11.1447Z" fill="#82AEC9"/>
<path d="M9.9731 13.4709H6.86896C6.76721 13.4733 6.666 13.4553 6.57129 13.4178C6.47657 13.3803 6.39027 13.3241 6.31745 13.2526C6.24463 13.1811 6.18676 13.0956 6.14725 13.0012C6.10774 12.9069 6.0874 12.8055 6.0874 12.7031C6.0874 12.6007 6.10774 12.4993 6.14725 12.405C6.18676 12.3106 6.24463 12.2251 6.31745 12.1536C6.39027 12.082 6.47657 12.0259 6.57129 11.9884C6.666 11.9509 6.76721 11.9328 6.86896 11.9353H9.9731C10.0748 11.9328 10.1761 11.9509 10.2708 11.9884C10.3655 12.0259 10.4518 12.082 10.5246 12.1536C10.5974 12.2251 10.6553 12.3106 10.6948 12.405C10.7343 12.4993 10.7547 12.6007 10.7547 12.7031C10.7547 12.8055 10.7343 12.9069 10.6948 13.0012C10.6553 13.0956 10.5974 13.1811 10.5246 13.2526C10.4518 13.3241 10.3655 13.3803 10.2708 13.4178C10.1761 13.4553 10.0748 13.4733 9.9731 13.4709Z" fill="#82AEC9"/>
<path d="M20.1402 13.4709H16.8995C16.7002 13.4661 16.5107 13.3831 16.3715 13.2397C16.2322 13.0962 16.1543 12.9036 16.1543 12.7031C16.1543 12.5026 16.2322 12.31 16.3715 12.1665C16.5107 12.023 16.7002 11.9401 16.8995 11.9353H20.1402C20.2419 11.9328 20.3431 11.9509 20.4378 11.9884C20.5325 12.0259 20.6188 12.082 20.6917 12.1536C20.7645 12.2251 20.8224 12.3106 20.8619 12.405C20.9014 12.4993 20.9217 12.6007 20.9217 12.7031C20.9217 12.8055 20.9014 12.9069 20.8619 13.0012C20.8224 13.0956 20.7645 13.1811 20.6917 13.2526C20.6188 13.3241 20.5325 13.3803 20.4378 13.4178C20.3431 13.4553 20.2419 13.4733 20.1402 13.4709Z" fill="#82AEC9"/>
<path d="M9.97408 15.7981H8.40705C8.3053 15.8005 8.20408 15.7824 8.10937 15.7449C8.01466 15.7075 7.92836 15.6513 7.85554 15.5798C7.78272 15.5082 7.72487 15.4227 7.68536 15.3284C7.64585 15.234 7.62549 15.1326 7.62549 15.0302C7.62549 14.9278 7.64585 14.8265 7.68536 14.7321C7.72487 14.6377 7.78272 14.5523 7.85554 14.4807C7.92836 14.4092 8.01466 14.353 8.10937 14.3155C8.20408 14.278 8.3053 14.26 8.40705 14.2624H9.97408C10.0758 14.26 10.177 14.278 10.2718 14.3155C10.3665 14.353 10.4528 14.4092 10.5256 14.4807C10.5984 14.5523 10.6563 14.6377 10.6958 14.7321C10.7353 14.8265 10.7556 14.9278 10.7556 15.0302C10.7556 15.1326 10.7353 15.234 10.6958 15.3284C10.6563 15.4227 10.5984 15.5082 10.5256 15.5798C10.4528 15.6513 10.3665 15.7075 10.2718 15.7449C10.177 15.7824 10.0758 15.8005 9.97408 15.7981Z" fill="#82AEC9"/>
<path d="M15.3725 15.7981H12.2605C12.1588 15.8005 12.0576 15.7824 11.9629 15.7449C11.8682 15.7075 11.7819 15.6513 11.7091 15.5798C11.6362 15.5082 11.5784 15.4227 11.5389 15.3284C11.4993 15.234 11.479 15.1326 11.479 15.0302C11.479 14.9278 11.4993 14.8265 11.5389 14.7321C11.5784 14.6377 11.6362 14.5523 11.7091 14.4807C11.7819 14.4092 11.8682 14.353 11.9629 14.3155C12.0576 14.278 12.1588 14.26 12.2605 14.2624H15.3725C15.4743 14.26 15.5755 14.278 15.6702 14.3155C15.7649 14.353 15.8512 14.4092 15.924 14.4807C15.9968 14.5523 16.0547 14.6377 16.0942 14.7321C16.1337 14.8265 16.1541 14.9278 16.1541 15.0302C16.1541 15.1326 16.1337 15.234 16.0942 15.3284C16.0547 15.4227 15.9968 15.5082 15.924 15.5798C15.8512 15.6513 15.7649 15.7075 15.6702 15.7449C15.5755 15.7824 15.4743 15.8005 15.3725 15.7981Z" fill="#82AEC9"/>
<path d="M6.90436 1.65594C6.90436 1.77196 6.87016 1.88537 6.80609 1.98184C6.74203 2.0783 6.65096 2.15349 6.54443 2.19789C6.43789 2.24229 6.32067 2.2539 6.20757 2.23127C6.09447 2.20863 5.99059 2.15277 5.90905 2.07073C5.82751 1.98869 5.77198 1.88417 5.74948 1.77038C5.72699 1.65659 5.73853 1.53864 5.78266 1.43146C5.82679 1.32427 5.90151 1.23265 5.99739 1.1682C6.09327 1.10374 6.206 1.06934 6.32131 1.06934C6.47594 1.06934 6.62423 1.13114 6.73357 1.24115C6.84291 1.35116 6.90436 1.50036 6.90436 1.65594Z" fill="#1D365A"/>
<path d="M6.8819 14.8307C6.8819 14.9468 6.8477 15.0602 6.78363 15.1566C6.71957 15.2531 6.6285 15.3283 6.52197 15.3727C6.41543 15.4171 6.29821 15.4287 6.18511 15.4061C6.07201 15.3834 5.96813 15.3276 5.88659 15.2455C5.80505 15.1635 5.74952 15.059 5.72702 14.9452C5.70453 14.8314 5.71607 14.7134 5.7602 14.6063C5.80433 14.4991 5.87908 14.4075 5.97496 14.343C6.07084 14.2785 6.18354 14.2441 6.29885 14.2441C6.45348 14.2441 6.6018 14.3059 6.71114 14.416C6.82048 14.526 6.8819 14.6752 6.8819 14.8307Z" fill="#1D365A"/>
<path d="M4.95222 4.16403H4.18148C4.08025 4.16403 3.98317 4.12357 3.91159 4.05155C3.84001 3.97954 3.7998 3.88186 3.7998 3.78001C3.7998 3.67817 3.84001 3.58049 3.91159 3.50847C3.98317 3.43645 4.08025 3.396 4.18148 3.396H4.95222C5.05345 3.396 5.15053 3.43645 5.22211 3.50847C5.29369 3.58049 5.3339 3.67817 5.3339 3.78001C5.3339 3.88186 5.29369 3.97954 5.22211 4.05155C5.15053 4.12357 5.05345 4.16403 4.95222 4.16403Z" fill="#1D365A"/>
<path d="M3.40777 6.49118H1.86849C1.76727 6.49118 1.67018 6.45072 1.5986 6.3787C1.52702 6.30669 1.48682 6.20901 1.48682 6.10716C1.48682 6.00531 1.52702 5.90764 1.5986 5.83562C1.67018 5.76361 1.76727 5.72314 1.86849 5.72314H3.40777C3.509 5.72314 3.60609 5.76361 3.67766 5.83562C3.74924 5.90764 3.78947 6.00531 3.78947 6.10716C3.78947 6.20901 3.74924 6.30669 3.67766 6.3787C3.60609 6.45072 3.509 6.49118 3.40777 6.49118Z" fill="#1D365A"/>
<path d="M3.41805 10.3603H1.10629C1.00506 10.3603 0.907998 10.3199 0.836419 10.2478C0.76484 10.1758 0.724609 10.0782 0.724609 9.9763C0.724609 9.87445 0.76484 9.77678 0.836419 9.70476C0.907998 9.63274 1.00506 9.59229 1.10629 9.59229H3.41805C3.51927 9.59229 3.61636 9.63274 3.68794 9.70476C3.75952 9.77678 3.79972 9.87445 3.79972 9.9763C3.79972 10.0782 3.75952 10.1758 3.68794 10.2478C3.61636 10.3199 3.51927 10.3603 3.41805 10.3603Z" fill="#1D365A"/>
<path d="M4.95568 12.6787H4.18148C4.08025 12.6787 3.98317 12.6382 3.91159 12.5662C3.84001 12.4942 3.7998 12.3965 3.7998 12.2947C3.7998 12.1928 3.84001 12.0951 3.91159 12.0231C3.98317 11.9511 4.08025 11.9106 4.18148 11.9106H4.95568C5.05691 11.9106 5.154 11.9511 5.22558 12.0231C5.29716 12.0951 5.33736 12.1928 5.33736 12.2947C5.33736 12.3965 5.29716 12.4942 5.22558 12.5662C5.154 12.6382 5.05691 12.6787 4.95568 12.6787Z" fill="#1D365A"/>
<path d="M28.9117 7.54176C29.1189 7.80113 29.2302 8.12488 29.2264 8.45764C29.2322 8.74765 29.1531 9.03297 28.9988 9.27801C28.8369 9.52256 28.6083 9.71488 28.3404 9.8319C28.0194 9.97205 27.6719 10.0402 27.3221 10.0317H24.8296V4.21754H27.2137C27.5615 4.20902 27.9071 4.27425 28.2281 4.409C28.4907 4.51913 28.7154 4.70465 28.874 4.94239C29.0212 5.17341 29.0975 5.44299 29.0933 5.71741C29.104 6.02347 29.009 6.32382 28.8246 6.56743C28.6405 6.7983 28.3906 6.96694 28.1084 7.05067C28.4277 7.10788 28.7141 7.28303 28.9117 7.54176ZM25.9883 6.61715H27.0486C27.2763 6.63206 27.502 6.56565 27.6858 6.42961C27.7615 6.36329 27.8211 6.28034 27.8599 6.18717C27.8986 6.094 27.9156 5.99312 27.9095 5.8923C27.9153 5.79087 27.8983 5.68942 27.8595 5.59559C27.8208 5.50176 27.7614 5.418 27.6858 5.35061C27.5032 5.21178 27.277 5.14367 27.0486 5.15872H25.9883V6.61715ZM27.8141 8.88505C27.8938 8.81493 27.9565 8.72737 27.9974 8.62909C28.0383 8.53082 28.0562 8.42442 28.0499 8.31808C28.0555 8.20762 28.036 8.09733 27.993 7.99556C27.9499 7.89378 27.8845 7.80318 27.8015 7.7306C27.6108 7.58069 27.3726 7.50525 27.1309 7.51821H25.9883V9.08437H27.1561C27.3922 9.09889 27.6257 9.02805 27.8145 8.88462" fill="#AB2346"/>
<path d="M31.8866 5.55884C32.1379 5.41705 32.4221 5.3451 32.7102 5.35037V6.57634H32.4037C32.249 6.55115 32.0905 6.56417 31.9419 6.6143C31.7932 6.66443 31.659 6.75015 31.5506 6.86409C31.4422 6.97803 31.363 7.11677 31.3197 7.26836C31.2764 7.41995 31.2705 7.57985 31.3023 7.73428V10.0336H30.1436V5.4171H31.3009V6.13367C31.444 5.89536 31.645 5.69756 31.8849 5.55884" fill="#AB2346"/>
<path d="M34.4229 9.8116C34.0723 9.6173 33.7837 9.32694 33.5906 8.97423C33.3832 8.59135 33.2786 8.16067 33.2871 7.7247C33.2782 7.28768 33.3854 6.85618 33.5975 6.47474C33.7969 6.12111 34.091 5.83095 34.4463 5.63736C34.8171 5.44318 35.229 5.3418 35.647 5.3418C36.0651 5.3418 36.4769 5.44318 36.8477 5.63736C37.203 5.83099 37.4971 6.12113 37.6965 6.47474C37.9088 6.85613 38.0161 7.28764 38.0073 7.7247C38.0162 8.16263 37.906 8.59468 37.6887 8.97423C37.4836 9.32778 37.1856 9.61754 36.8274 9.8116C36.4541 10.0117 36.0365 10.1134 35.6136 10.1073C35.1974 10.1137 34.7867 10.0119 34.4211 9.8116M36.2058 8.93672C36.3951 8.82933 36.549 8.66865 36.6488 8.47441C36.7652 8.24229 36.8221 7.98458 36.8144 7.7247C36.8264 7.54153 36.8022 7.35777 36.7433 7.18403C36.6844 7.0103 36.5919 6.85002 36.4711 6.71243C36.363 6.59804 36.2325 6.50751 36.0878 6.44662C35.9431 6.38572 35.7874 6.35579 35.6305 6.35872C35.4749 6.3553 35.3202 6.38504 35.1768 6.446C35.0334 6.50696 34.9044 6.59776 34.7983 6.71243C34.5591 6.99268 34.4386 7.3561 34.4628 7.7247C34.4385 8.0919 34.5557 8.45438 34.79 8.73697C34.894 8.85201 35.0214 8.94318 35.1635 9.00429C35.3056 9.0654 35.4591 9.09501 35.6136 9.09111C35.8209 9.09178 36.0248 9.03832 36.2058 8.93672Z" fill="#AB2346"/>
<path d="M38.8854 6.46707C39.0542 6.12392 39.3154 5.83532 39.6392 5.63405C39.9599 5.43873 40.3285 5.33766 40.7034 5.34228C41.0155 5.33515 41.3245 5.40683 41.602 5.55076C41.8438 5.67675 42.0546 5.85557 42.2188 6.07412V5.4173H43.3866V10.0338H42.2188V9.35821C42.0589 9.58442 41.8474 9.76869 41.602 9.89553C41.3221 10.0415 41.0103 10.1145 40.6951 10.1079C40.3219 10.1116 39.9554 10.0075 39.6392 9.80787C39.3154 9.60104 39.0546 9.30844 38.8854 8.9622C38.6945 8.57258 38.5994 8.14258 38.6079 7.70831C38.5997 7.27799 38.6949 6.85246 38.8854 6.46707ZM42.0528 6.99567C41.9501 6.80114 41.7951 6.63958 41.6055 6.52944C41.4218 6.4221 41.2131 6.36595 41.0007 6.36676C40.7875 6.36441 40.5777 6.42105 40.3942 6.5305C40.2107 6.63994 40.0607 6.79799 39.9604 6.98738C39.8427 7.20884 39.7841 7.45726 39.7905 7.70831C39.7847 7.96195 39.8432 8.21289 39.9604 8.43753C40.0634 8.63543 40.218 8.8013 40.4078 8.91728C40.5861 9.02658 40.791 9.08423 40.9999 9.08388C41.2122 9.08476 41.4209 9.02877 41.6046 8.92164C41.7942 8.81127 41.9492 8.64958 42.0519 8.45498C42.1609 8.22758 42.2174 7.9784 42.2174 7.72598C42.2174 7.47355 42.1609 7.22437 42.0519 6.99698" fill="#AB2346"/>
<path d="M44.465 6.46655C44.6322 6.1243 44.8926 5.83688 45.2158 5.63775C45.539 5.43861 45.9119 5.33597 46.2909 5.34176C46.5863 5.3412 46.878 5.40816 47.1439 5.53759C47.3984 5.65518 47.6203 5.83403 47.7898 6.05833V3.86719H48.9658V10.0324H47.7898V9.34941C47.64 9.58302 47.4315 9.77273 47.1855 9.89937C46.9065 10.0429 46.5964 10.1146 46.283 10.1078C45.9086 10.1112 45.5409 10.0071 45.2232 9.80778C44.8977 9.60192 44.6353 9.30915 44.4655 8.96212C44.2746 8.5725 44.1795 8.1425 44.188 7.70823C44.1798 7.2779 44.2749 6.85192 44.4655 6.46655M47.6329 6.99559C47.5303 6.80112 47.3754 6.63957 47.186 6.52936C47.0025 6.4221 46.7939 6.36595 46.5817 6.36668C46.3684 6.36433 46.1586 6.42097 45.9752 6.53042C45.7917 6.63986 45.6416 6.7979 45.5414 6.9873C45.4236 7.20876 45.3651 7.45717 45.3714 7.70823C45.3657 7.96186 45.4242 8.2128 45.5414 8.43745C45.6443 8.63534 45.799 8.80122 45.9887 8.9172C46.1671 9.02652 46.372 9.08417 46.5808 9.0838C46.793 9.08461 47.0016 9.02861 47.1851 8.92156C47.3745 8.81112 47.5294 8.64944 47.632 8.45489C47.7411 8.22753 47.7977 7.97834 47.7977 7.72589C47.7977 7.47345 47.7411 7.22425 47.632 6.99689" fill="#AB2346"/>
<path d="M50.8012 9.90267C50.5222 9.78146 50.2786 9.59067 50.0933 9.34834C49.923 9.1248 49.8235 8.85493 49.8076 8.57377H50.9754C50.9861 8.66143 51.0147 8.74591 51.0595 8.82188C51.1043 8.89784 51.1642 8.96365 51.2355 9.01514C51.3997 9.13563 51.5994 9.19707 51.8025 9.18959C51.9846 9.20021 52.1655 9.15357 52.3201 9.05613C52.3773 9.01967 52.4244 8.96924 52.4569 8.90952C52.4895 8.84981 52.5066 8.78276 52.5065 8.71464C52.5069 8.64182 52.4854 8.57059 52.4447 8.51033C52.4041 8.45006 52.3463 8.4036 52.2789 8.37707C52.0451 8.27353 51.8025 8.19122 51.5541 8.13109C51.2682 8.06537 50.9873 7.97909 50.7136 7.8729C50.4959 7.78437 50.3026 7.64434 50.1501 7.46468C49.9839 7.25489 49.9 6.99109 49.9142 6.72325C49.9131 6.47329 49.9898 6.22926 50.1336 6.02543C50.2933 5.80339 50.5112 5.63036 50.763 5.52562C51.0683 5.39694 51.397 5.33438 51.7279 5.34201C52.1991 5.31748 52.6633 5.46388 53.0362 5.75459C53.1981 5.8919 53.3296 6.06179 53.4224 6.25333C53.5151 6.44487 53.5669 6.65382 53.5746 6.86673H52.4649C52.4595 6.78204 52.4364 6.69945 52.3972 6.62431C52.358 6.54917 52.3035 6.48317 52.2373 6.4306C52.085 6.33324 51.9099 6.27795 51.7296 6.2703C51.5494 6.26264 51.3702 6.30289 51.2103 6.38699C51.1566 6.42175 51.1127 6.46997 51.083 6.52693C51.0532 6.58388 51.0387 6.64762 51.0409 6.71191C51.0404 6.78744 51.0622 6.86143 51.1035 6.92453C51.1447 6.98763 51.2036 7.03703 51.2728 7.06648C51.5037 7.17358 51.7452 7.25588 51.9932 7.31203C52.2722 7.37873 52.5461 7.46515 52.8129 7.57066C53.0296 7.6605 53.2214 7.80194 53.3717 7.9828C53.537 8.19197 53.6236 8.45317 53.6162 8.72031C53.6193 8.97636 53.5426 9.22695 53.3968 9.43688C53.2375 9.6584 53.0194 9.83026 52.7674 9.93276C52.4643 10.0578 52.1388 10.1187 51.8112 10.1116C51.4637 10.1173 51.1191 10.0477 50.8007 9.90747" fill="#AB2346"/>
<path d="M56.3268 5.55454C56.6039 5.40918 56.9129 5.33615 57.2254 5.34214C57.6002 5.33741 57.9688 5.43833 58.2896 5.63348C58.6124 5.83395 58.8734 6.12088 59.0434 6.46213C59.2347 6.84863 59.3299 7.27607 59.3208 7.70774C59.3293 8.142 59.2341 8.57197 59.0434 8.96162C58.874 9.30776 58.6132 9.60033 58.2896 9.80729C57.9707 10.0077 57.6013 10.1118 57.2254 10.1073C56.9161 10.1138 56.6101 10.0421 56.3354 9.89888C56.0921 9.77166 55.8789 9.59315 55.7104 9.37551V12.2331H54.5508V5.41716H55.7104V6.08357C55.8723 5.86133 56.083 5.68018 56.3268 5.55454ZM57.9666 6.98724C57.8632 6.79437 57.7085 6.63429 57.5197 6.52494C57.3369 6.41995 57.1298 6.36534 56.9193 6.36662C56.711 6.36613 56.5064 6.42234 56.3272 6.5293C56.1381 6.64193 55.9835 6.80474 55.8803 6.99989C55.7686 7.225 55.7105 7.47315 55.7105 7.72475C55.7105 7.97634 55.7686 8.22448 55.8803 8.4496C55.9836 8.64471 56.1382 8.80751 56.3272 8.92019C56.5081 9.02706 56.7143 9.08304 56.9241 9.08228C57.1338 9.08151 57.3396 9.02402 57.5197 8.91583C57.7084 8.80078 57.8628 8.63671 57.9666 8.44088C58.0847 8.21515 58.1432 7.96272 58.1366 7.70774C58.143 7.45667 58.0844 7.20868 57.9666 6.98724Z" fill="#AB2346"/>
<path d="M64.3801 8.07469H61.0262C61.0361 8.37176 61.1604 8.65332 61.373 8.85973C61.578 9.04911 61.8482 9.15078 62.1264 9.14322C62.3178 9.15467 62.5081 9.10739 62.6722 9.00763C62.8363 8.90787 62.9664 8.76033 63.0454 8.58453H64.296C64.1674 9.02354 63.9 9.40836 63.5343 9.68054C63.1338 9.97461 62.6471 10.1255 62.1515 10.1093C61.7367 10.1159 61.3273 10.014 60.9634 9.81356C60.6158 9.61951 60.3312 9.32877 60.1437 8.97618C59.942 8.59147 59.8409 8.16149 59.8498 7.72665C59.8402 7.28942 59.9399 6.85677 60.1398 6.4684C60.3236 6.117 60.6057 5.82743 60.9512 5.63539C61.3178 5.44515 61.724 5.34521 62.1365 5.34377C62.5489 5.34233 62.9558 5.43943 63.3237 5.6271C63.6634 5.81077 63.9425 6.0901 64.1269 6.4309C64.3223 6.79836 64.4206 7.21013 64.4126 7.62678C64.4137 7.77731 64.4027 7.92769 64.3796 8.07643M63.2119 7.29139C63.2143 7.15475 63.1866 7.01926 63.1307 6.89468C63.0749 6.77009 62.9923 6.65951 62.8889 6.57089C62.6741 6.38852 62.4 6.2921 62.119 6.30005C61.8533 6.29191 61.5943 6.38542 61.3943 6.56174C61.1901 6.75249 61.062 7.01159 61.034 7.29052L63.2119 7.29139Z" fill="#AB2346"/>
<path d="M65.3746 6.47126C65.5584 6.12259 65.837 5.83368 66.1778 5.63824C66.5369 5.43671 66.9427 5.33467 67.3539 5.34254C67.8588 5.32276 68.3558 5.47387 68.7653 5.7717C69.1474 6.07235 69.4126 6.49832 69.5148 6.97543H68.2642C68.2056 6.78633 68.0879 6.62129 67.9286 6.50484C67.7567 6.38656 67.5516 6.3268 67.3435 6.33431C67.1933 6.3281 67.0437 6.3577 66.9071 6.42068C66.7704 6.48367 66.6505 6.57826 66.5571 6.69674C66.3675 7.00458 66.2671 7.35953 66.2671 7.72166C66.2671 8.08379 66.3675 8.43874 66.5571 8.74658C66.6505 8.86506 66.7704 8.95965 66.9071 9.02264C67.0437 9.08562 67.1933 9.11522 67.3435 9.109C67.5458 9.12647 67.7478 9.07293 67.9154 8.95749C68.0829 8.84205 68.2055 8.67183 68.2624 8.47574H69.513C69.4039 8.94767 69.138 9.368 68.7592 9.66726C68.3537 9.97148 67.8571 10.1272 67.3517 10.1086C66.9406 10.1165 66.5348 10.0145 66.1757 9.81293C65.8349 9.61741 65.5563 9.32853 65.3724 8.97991C65.1817 8.58977 65.0825 8.1608 65.0825 7.72602C65.0825 7.29125 65.1817 6.86227 65.3724 6.47213" fill="#AB2346"/>
<path d="M71.7963 6.37543V8.60844C71.7906 8.66944 71.7976 8.73095 71.8169 8.78907C71.8362 8.84719 71.8672 8.90064 71.9081 8.94601C72.0168 9.02588 72.1509 9.06282 72.2848 9.04981H72.8232V10.0329H72.0945C71.1175 10.0329 70.6289 9.55529 70.6289 8.60016V6.37587H70.0806V5.41637H70.6272V4.27588H71.7946V5.41725H72.8215V6.37674L71.7963 6.37543Z" fill="#AB2346"/>
<path d="M75.5164 5.55884C75.7676 5.41703 76.0519 5.34508 76.34 5.35037V6.57634H76.0335C75.8787 6.55104 75.7202 6.56399 75.5715 6.61408C75.4228 6.66417 75.2885 6.7499 75.1801 6.86387C75.0717 6.97783 74.9925 7.11662 74.9492 7.26826C74.906 7.4199 74.9001 7.57983 74.932 7.73428V10.0336H73.7725V5.4171H74.932V6.13367C75.075 5.89531 75.2764 5.69749 75.5164 5.55884Z" fill="#AB2346"/>
<path d="M81.4714 5.41748V10.0331H80.3036V9.44999C80.1509 9.6531 79.9504 9.81481 79.7201 9.92057C79.4752 10.0353 79.2078 10.0936 78.9377 10.0911C78.6055 10.0981 78.2772 10.0193 77.984 9.86213C77.7056 9.70699 77.4793 9.47216 77.3338 9.18743C77.1692 8.85848 77.0881 8.49361 77.098 8.12544V5.41748H78.2575V7.95884C78.2373 8.26542 78.335 8.56808 78.5306 8.80407C78.6266 8.9041 78.7428 8.98226 78.8713 9.03327C78.9999 9.08428 79.1378 9.10696 79.2758 9.09977C79.4151 9.1075 79.5544 9.08511 79.6843 9.0341C79.8143 8.98309 79.9319 8.90465 80.0292 8.80407C80.2248 8.56811 80.3226 8.26542 80.3023 7.95884V5.41748H81.4714Z" fill="#AB2346"/>
<path d="M89.7409 5.8712C89.9203 6.06584 90.0586 6.29503 90.1476 6.54494C90.2366 6.79485 90.2743 7.0603 90.2585 7.32528V10.0328H89.0994V7.48316C89.1197 7.18154 89.0214 6.88394 88.8258 6.6545C88.7285 6.5568 88.6119 6.48073 88.4835 6.43123C88.3552 6.38172 88.2179 6.35987 88.0806 6.36709C87.9427 6.36017 87.805 6.38214 87.6759 6.43162C87.5469 6.48109 87.4295 6.55699 87.3311 6.6545C87.233 6.7675 87.158 6.89885 87.1104 7.04104C87.0628 7.18323 87.0436 7.33347 87.0538 7.48316V10.0328H85.8946V7.48316C85.9148 7.18163 85.8168 6.88413 85.6215 6.6545C85.5242 6.55682 85.4076 6.48077 85.2792 6.43127C85.1509 6.38176 85.0136 6.3599 84.8764 6.36709C84.7372 6.35959 84.598 6.38127 84.4675 6.43075C84.3371 6.48022 84.2183 6.55642 84.1187 6.6545C84.0206 6.76752 83.9456 6.89888 83.898 7.04106C83.8504 7.18325 83.8311 7.33347 83.8412 7.48316V10.0328H82.6816V5.41719H83.8412V5.97544C83.9937 5.77838 84.1911 5.62128 84.4169 5.5175C84.6594 5.40467 84.9239 5.34775 85.1911 5.35089C85.5253 5.345 85.8556 5.42374 86.1517 5.57987C86.4289 5.72844 86.6565 5.956 86.8058 6.23407C86.959 5.96365 87.1842 5.74162 87.456 5.59295C87.8187 5.39518 88.2334 5.3158 88.6429 5.36582C89.0524 5.41583 89.4363 5.59276 89.7413 5.87207" fill="#AB2346"/>
</svg>
