<svg width="92" height="17" viewBox="0 0 92 17" fill="none" xmlns="http://www.w3.org/2000/svg">
<path d="M15.2097 2.26765H12.0347C11.9309 2.27014 11.8276 2.25171 11.731 2.21345C11.6344 2.17519 11.5463 2.11787 11.472 2.04486C11.3977 1.97184 11.3387 1.88462 11.2984 1.7883C11.2581 1.69199 11.2373 1.58854 11.2373 1.48403C11.2373 1.37953 11.2581 1.27608 11.2984 1.17976C11.3387 1.08345 11.3977 0.996224 11.472 0.923212C11.5463 0.8502 11.6344 0.792878 11.731 0.754617C11.8276 0.716356 11.9309 0.697928 12.0347 0.700418H15.2097C15.3135 0.697928 15.4167 0.716356 15.5134 0.754617C15.61 0.792878 15.6981 0.8502 15.7723 0.923212C15.8466 0.996224 15.9057 1.08345 15.946 1.17976C15.9863 1.27608 16.0071 1.37953 16.0071 1.48403C16.0071 1.58854 15.9863 1.69199 15.946 1.7883C15.9057 1.88462 15.8466 1.97184 15.7723 2.04486C15.6981 2.11787 15.61 2.17519 15.5134 2.21345C15.4167 2.25171 15.3135 2.27014 15.2097 2.26765Z" fill="#AB2346"/>
<path d="M16.7864 4.64167H12.0356C11.9318 4.64416 11.8286 4.62574 11.732 4.58747C11.6353 4.54921 11.5473 4.49189 11.473 4.41888C11.3987 4.34587 11.3396 4.25864 11.2993 4.16233C11.259 4.06602 11.2383 3.96256 11.2383 3.85806C11.2383 3.75355 11.259 3.6501 11.2993 3.55379C11.3396 3.45747 11.3987 3.37025 11.473 3.29724C11.5473 3.22422 11.6353 3.1669 11.732 3.12864C11.8286 3.09038 11.9318 3.07195 12.0356 3.07444H16.7864C16.8902 3.07195 16.9935 3.09038 17.0901 3.12864C17.1867 3.1669 17.2748 3.22422 17.3491 3.29724C17.4234 3.37025 17.4824 3.45747 17.5227 3.55379C17.563 3.6501 17.5838 3.75355 17.5838 3.85806C17.5838 3.96256 17.563 4.06602 17.5227 4.16233C17.4824 4.25864 17.4234 4.34587 17.3491 4.41888C17.2748 4.49189 17.1867 4.54921 17.0901 4.58747C16.9935 4.62574 16.8902 4.64416 16.7864 4.64167Z" fill="#AB2346"/>
<path d="M18.3506 7.01618H12.0347C11.8314 7.01131 11.6381 6.92661 11.496 6.78018C11.3539 6.63376 11.2744 6.43722 11.2744 6.23257C11.2744 6.02792 11.3539 5.83138 11.496 5.68496C11.6381 5.53853 11.8314 5.45383 12.0347 5.44895H18.3506C18.4544 5.44646 18.5577 5.46489 18.6543 5.50315C18.7509 5.54141 18.839 5.59873 18.9133 5.67175C18.9876 5.74476 19.0466 5.83198 19.0869 5.9283C19.1272 6.02461 19.148 6.12806 19.148 6.23257C19.148 6.33707 19.1272 6.44053 19.0869 6.53684C19.0466 6.63315 18.9876 6.72038 18.9133 6.79339C18.839 6.8664 18.7509 6.92373 18.6543 6.96199C18.5577 7.00025 18.4544 7.01867 18.3506 7.01618Z" fill="#AB2346"/>
<path d="M15.2097 11.7662H12.0347C11.9309 11.7687 11.8276 11.7502 11.731 11.712C11.6344 11.6737 11.5463 11.6164 11.472 11.5434C11.3977 11.4704 11.3387 11.3832 11.2984 11.2868C11.2581 11.1905 11.2373 11.0871 11.2373 10.9826C11.2373 10.8781 11.2581 10.7746 11.2984 10.6783C11.3387 10.582 11.3977 10.4948 11.472 10.4217C11.5463 10.3487 11.6344 10.2914 11.731 10.2532C11.8276 10.2149 11.9309 10.1965 12.0347 10.199H15.2097C15.3135 10.1965 15.4167 10.2149 15.5134 10.2532C15.61 10.2914 15.6981 10.3487 15.7723 10.4217C15.8466 10.4948 15.9057 10.582 15.946 10.6783C15.9863 10.7746 16.0071 10.8781 16.0071 10.9826C16.0071 11.0871 15.9863 11.1905 15.946 11.2868C15.9057 11.3832 15.8466 11.4704 15.7723 11.5434C15.6981 11.6164 15.61 11.6737 15.5134 11.712C15.4167 11.7502 15.3135 11.7687 15.2097 11.7662Z" fill="#AB2346"/>
<path d="M14.4219 14.1397H12.0337C11.9299 14.1422 11.8267 14.1238 11.73 14.0855C11.6334 14.0473 11.5454 13.9899 11.4711 13.9169C11.3968 13.8439 11.3377 13.7567 11.2974 13.6604C11.2571 13.5641 11.2363 13.4606 11.2363 13.3561C11.2363 13.2516 11.2571 13.1481 11.2974 13.0518C11.3377 12.9555 11.3968 12.8683 11.4711 12.7953C11.5454 12.7223 11.6334 12.6649 11.73 12.6267C11.8267 12.5884 11.9299 12.57 12.0337 12.5725H14.4219C14.5257 12.57 14.629 12.5884 14.7256 12.6267C14.8222 12.6649 14.9103 12.7223 14.9846 12.7953C15.0589 12.8683 15.1179 12.9555 15.1582 13.0518C15.1985 13.1481 15.2193 13.2516 15.2193 13.3561C15.2193 13.4606 15.1985 13.5641 15.1582 13.6604C15.1179 13.7567 15.0589 13.8439 14.9846 13.9169C14.9103 13.9899 14.8222 14.0473 14.7256 14.0855C14.629 14.1238 14.5257 14.1422 14.4219 14.1397Z" fill="#AB2346"/>
<path d="M9.70182 2.26765H8.10305C7.99924 2.27014 7.89598 2.25171 7.79935 2.21345C7.70272 2.17519 7.61467 2.11787 7.54037 2.04486C7.46608 1.97184 7.40706 1.88462 7.36675 1.7883C7.32644 1.69199 7.30566 1.58854 7.30566 1.48403C7.30566 1.37953 7.32644 1.27608 7.36675 1.17976C7.40706 1.08345 7.46608 0.996224 7.54037 0.923212C7.61467 0.8502 7.70272 0.792878 7.79935 0.754617C7.89598 0.716356 7.99924 0.697928 8.10305 0.700418H9.70182C9.80563 0.697928 9.9089 0.716356 10.0055 0.754617C10.1022 0.792878 10.1902 0.8502 10.2645 0.923212C10.3388 0.996224 10.3978 1.08345 10.4381 1.17976C10.4784 1.27608 10.4992 1.37953 10.4992 1.48403C10.4992 1.58854 10.4784 1.69199 10.4381 1.7883C10.3978 1.88462 10.3388 1.97184 10.2645 2.04486C10.1902 2.11787 10.1022 2.17519 10.0055 2.21345C9.9089 2.25171 9.80563 2.27014 9.70182 2.26765Z" fill="#82AEC9"/>
<path d="M9.70032 4.64167H6.5386C6.43479 4.64416 6.33155 4.62574 6.23492 4.58747C6.13829 4.54921 6.05024 4.49189 5.97595 4.41888C5.90165 4.34587 5.84261 4.25864 5.8023 4.16233C5.76199 4.06602 5.74121 3.96256 5.74121 3.85806C5.74121 3.75355 5.76199 3.6501 5.8023 3.55379C5.84261 3.45747 5.90165 3.37025 5.97595 3.29724C6.05024 3.22422 6.13829 3.1669 6.23492 3.12864C6.33155 3.09038 6.43479 3.07195 6.5386 3.07444H9.70032C9.80413 3.07195 9.90739 3.09038 10.004 3.12864C10.1007 3.1669 10.1887 3.22422 10.263 3.29724C10.3373 3.37025 10.3963 3.45747 10.4366 3.55379C10.477 3.6501 10.4977 3.75355 10.4977 3.85806C10.4977 3.96256 10.477 4.06602 10.4366 4.16233C10.3963 4.25864 10.3373 4.34587 10.263 4.41888C10.1887 4.49189 10.1007 4.54921 10.004 4.58747C9.90739 4.62574 9.80413 4.64416 9.70032 4.64167Z" fill="#82AEC9"/>
<path d="M9.70057 7.01618H4.97415C4.87034 7.01867 4.76707 7.00025 4.67044 6.96199C4.57381 6.92373 4.48576 6.8664 4.41147 6.79339C4.33717 6.72038 4.27813 6.63315 4.23782 6.53684C4.19751 6.44053 4.17676 6.33707 4.17676 6.23257C4.17676 6.12806 4.19751 6.02461 4.23782 5.9283C4.27813 5.83198 4.33717 5.74476 4.41147 5.67175C4.48576 5.59873 4.57381 5.54141 4.67044 5.50315C4.76707 5.46489 4.87034 5.44646 4.97415 5.44895H9.70057C9.80438 5.44646 9.90765 5.46489 10.0043 5.50315C10.1009 5.54141 10.189 5.59873 10.2632 5.67175C10.3375 5.74476 10.3966 5.83198 10.4369 5.9283C10.4772 6.02461 10.498 6.12806 10.498 6.23257C10.498 6.33707 10.4772 6.44053 10.4369 6.53684C10.3966 6.63315 10.3375 6.72038 10.2632 6.79339C10.189 6.8664 10.1009 6.92373 10.0043 6.96199C9.90765 7.00025 9.80438 7.01867 9.70057 7.01618Z" fill="#82AEC9"/>
<path d="M9.70152 9.39167H3.39309C3.28928 9.39416 3.18604 9.37573 3.08941 9.33747C2.99279 9.29921 2.90473 9.24189 2.83044 9.16888C2.75614 9.09587 2.6971 9.00864 2.65679 8.91233C2.61648 8.81601 2.5957 8.71256 2.5957 8.60806C2.5957 8.50355 2.61648 8.4001 2.65679 8.30379C2.6971 8.20747 2.75614 8.12025 2.83044 8.04723C2.90473 7.97422 2.99279 7.9169 3.08941 7.87864C3.18604 7.84038 3.28928 7.82195 3.39309 7.82444H9.70152C9.80533 7.82195 9.90857 7.84038 10.0052 7.87864C10.1018 7.9169 10.1899 7.97422 10.2642 8.04723C10.3385 8.12025 10.3975 8.20747 10.4378 8.30379C10.4781 8.4001 10.4989 8.50355 10.4989 8.60806C10.4989 8.71256 10.4781 8.81601 10.4378 8.91233C10.3975 9.00864 10.3385 9.09587 10.2642 9.16888C10.1899 9.24189 10.1018 9.29921 10.0052 9.33747C9.90857 9.37573 9.80533 9.39416 9.70152 9.39167Z" fill="#82AEC9"/>
<path d="M19.9274 9.39167H12.0357C11.9319 9.39416 11.8286 9.37573 11.732 9.33747C11.6353 9.29921 11.5473 9.24189 11.473 9.16888C11.3987 9.09587 11.3396 9.00864 11.2993 8.91233C11.259 8.81601 11.2383 8.71256 11.2383 8.60806C11.2383 8.50355 11.259 8.4001 11.2993 8.30379C11.3396 8.20747 11.3987 8.12025 11.473 8.04723C11.5473 7.97422 11.6353 7.9169 11.732 7.87864C11.8286 7.84038 11.9319 7.82195 12.0357 7.82444H19.9274C20.0312 7.82195 20.1344 7.84038 20.2311 7.87864C20.3277 7.9169 20.4157 7.97422 20.49 8.04723C20.5643 8.12025 20.6234 8.20747 20.6637 8.30379C20.704 8.4001 20.7247 8.50355 20.7247 8.60806C20.7247 8.71256 20.704 8.81601 20.6637 8.91233C20.6234 9.00864 20.5643 9.09587 20.49 9.16888C20.4157 9.24189 20.3277 9.29921 20.2311 9.33747C20.1344 9.37573 20.0312 9.39416 19.9274 9.39167Z" fill="#82AEC9"/>
<path d="M9.70146 11.7662H4.96926C4.86545 11.7687 4.76221 11.7502 4.66559 11.712C4.56896 11.6737 4.4809 11.6164 4.40661 11.5434C4.33232 11.4704 4.27327 11.3832 4.23296 11.2868C4.19265 11.1905 4.17188 11.0871 4.17188 10.9826C4.17188 10.8781 4.19265 10.7746 4.23296 10.6783C4.27327 10.582 4.33232 10.4948 4.40661 10.4217C4.4809 10.3487 4.56896 10.2914 4.66559 10.2532C4.76221 10.2149 4.86545 10.1965 4.96926 10.199H9.70146C9.80527 10.1965 9.90854 10.2149 10.0052 10.2532C10.1018 10.2914 10.1898 10.3487 10.2641 10.4217C10.3384 10.4948 10.3975 10.582 10.4378 10.6783C10.4781 10.7746 10.4989 10.8781 10.4989 10.9826C10.4989 11.0871 10.4781 11.1905 10.4378 11.2868C10.3975 11.3832 10.3384 11.4704 10.2641 11.5434C10.1898 11.6164 10.1018 11.6737 10.0052 11.712C9.90854 11.7502 9.80527 11.7687 9.70146 11.7662Z" fill="#82AEC9"/>
<path d="M19.9276 11.7662H17.5425C17.3392 11.7613 17.1459 11.6766 17.0038 11.5302C16.8618 11.3838 16.7822 11.1872 16.7822 10.9826C16.7822 10.7779 16.8618 10.5814 17.0038 10.435C17.1459 10.2885 17.3392 10.2038 17.5425 10.199H19.9276C20.0314 10.1965 20.1347 10.2149 20.2313 10.2532C20.3279 10.2914 20.416 10.3487 20.4903 10.4217C20.5646 10.4948 20.6236 10.582 20.6639 10.6783C20.7042 10.7746 20.725 10.8781 20.725 10.9826C20.725 11.0871 20.7042 11.1905 20.6639 11.2868C20.6236 11.3832 20.5646 11.4704 20.4903 11.5434C20.416 11.6164 20.3279 11.6737 20.2313 11.712C20.1347 11.7502 20.0314 11.7687 19.9276 11.7662Z" fill="#82AEC9"/>
<path d="M9.70073 14.1397H6.53372C6.42991 14.1422 6.32664 14.1238 6.23001 14.0855C6.13338 14.0473 6.04533 13.9899 5.97104 13.9169C5.89674 13.8439 5.8377 13.7567 5.79739 13.6604C5.75708 13.5641 5.73633 13.4606 5.73633 13.3561C5.73633 13.2516 5.75708 13.1481 5.79739 13.0518C5.8377 12.9555 5.89674 12.8683 5.97104 12.7953C6.04533 12.7223 6.13338 12.6649 6.23001 12.6267C6.32664 12.5884 6.42991 12.57 6.53372 12.5725H9.70073C9.80454 12.57 9.9078 12.5884 10.0044 12.6267C10.1011 12.6649 10.1891 12.7223 10.2634 12.7953C10.3377 12.8683 10.3967 12.9555 10.4371 13.0518C10.4774 13.1481 10.4981 13.2516 10.4981 13.3561C10.4981 13.4606 10.4774 13.5641 10.4371 13.6604C10.3967 13.7567 10.3377 13.8439 10.2634 13.9169C10.1891 13.9899 10.1011 14.0473 10.0044 14.0855C9.9078 14.1238 9.80454 14.1422 9.70073 14.1397Z" fill="#82AEC9"/>
<path d="M20.0744 14.1397H16.7681C16.5648 14.1348 16.3715 14.0501 16.2294 13.9037C16.0873 13.7573 16.0078 13.5608 16.0078 13.3561C16.0078 13.1515 16.0873 12.9549 16.2294 12.8085C16.3715 12.6621 16.5648 12.5774 16.7681 12.5725H20.0744C20.1782 12.57 20.2815 12.5884 20.3781 12.6267C20.4747 12.6649 20.5628 12.7223 20.6371 12.7953C20.7114 12.8683 20.7704 12.9555 20.8107 13.0518C20.851 13.1481 20.8718 13.2516 20.8718 13.3561C20.8718 13.4606 20.851 13.5641 20.8107 13.6604C20.7704 13.7567 20.7114 13.8439 20.6371 13.9169C20.5628 13.9899 20.4747 14.0473 20.3781 14.0855C20.2815 14.1238 20.1782 14.1422 20.0744 14.1397Z" fill="#82AEC9"/>
<path d="M9.70182 16.5147H8.10305C7.99924 16.5172 7.89598 16.4988 7.79935 16.4605C7.70272 16.4223 7.61467 16.3649 7.54037 16.2919C7.46608 16.2189 7.40706 16.1317 7.36675 16.0354C7.32644 15.9391 7.30566 15.8356 7.30566 15.7311C7.30566 15.6266 7.32644 15.5231 7.36675 15.4268C7.40706 15.3305 7.46608 15.2433 7.54037 15.1703C7.61467 15.0973 7.70272 15.0399 7.79935 15.0017C7.89598 14.9634 7.99924 14.945 8.10305 14.9475H9.70182C9.80563 14.945 9.9089 14.9634 10.0055 15.0017C10.1022 15.0399 10.1902 15.0973 10.2645 15.1703C10.3388 15.2433 10.3978 15.3305 10.4381 15.4268C10.4784 15.5231 10.4992 15.6266 10.4992 15.7311C10.4992 15.8356 10.4784 15.9391 10.4381 16.0354C10.3978 16.1317 10.3388 16.2189 10.2645 16.2919C10.1902 16.3649 10.1022 16.4223 10.0055 16.4605C9.9089 16.4988 9.80563 16.5172 9.70182 16.5147Z" fill="#82AEC9"/>
<path d="M15.2097 16.5147H12.0347C11.9309 16.5172 11.8276 16.4988 11.731 16.4605C11.6344 16.4223 11.5463 16.3649 11.472 16.2919C11.3977 16.2189 11.3387 16.1317 11.2984 16.0354C11.2581 15.9391 11.2373 15.8356 11.2373 15.7311C11.2373 15.6266 11.2581 15.5231 11.2984 15.4268C11.3387 15.3305 11.3977 15.2433 11.472 15.1703C11.5463 15.0973 11.6344 15.0399 11.731 15.0017C11.8276 14.9634 11.9309 14.945 12.0347 14.9475H15.2097C15.3135 14.945 15.4167 14.9634 15.5134 15.0017C15.61 15.0399 15.6981 15.0973 15.7723 15.1703C15.8466 15.2433 15.9057 15.3305 15.946 15.4268C15.9863 15.5231 16.0071 15.6266 16.0071 15.7311C16.0071 15.8356 15.9863 15.9391 15.946 16.0354C15.9057 16.1317 15.8466 16.2189 15.7723 16.2919C15.6981 16.3649 15.61 16.4223 15.5134 16.4605C15.4167 16.4988 15.3135 16.5172 15.2097 16.5147Z" fill="#82AEC9"/>
<path d="M6.5686 2.08305C6.5686 2.20145 6.53371 2.3172 6.46835 2.41565C6.40299 2.5141 6.31008 2.59084 6.20138 2.63615C6.09269 2.68146 5.97309 2.69332 5.8577 2.67022C5.74231 2.64712 5.63632 2.5901 5.55313 2.50637C5.46994 2.42265 5.41329 2.31597 5.39034 2.19984C5.36738 2.08371 5.37916 1.96334 5.42419 1.85395C5.46921 1.74455 5.54544 1.65105 5.64327 1.58527C5.74109 1.51949 5.8561 1.48438 5.97375 1.48438C6.13151 1.48438 6.2828 1.54745 6.39436 1.65972C6.50591 1.772 6.5686 1.92427 6.5686 2.08305Z" fill="#1D365A"/>
<path d="M6.54712 15.5279C6.54712 15.6463 6.51223 15.762 6.44686 15.8605C6.3815 15.9589 6.28859 16.0357 6.1799 16.081C6.07121 16.1263 5.9516 16.1381 5.83622 16.115C5.72083 16.0919 5.61484 16.0349 5.53165 15.9512C5.44846 15.8675 5.3918 15.7608 5.36885 15.6447C5.3459 15.5285 5.35768 15.4082 5.4027 15.2988C5.44772 15.1894 5.52399 15.0959 5.62181 15.0301C5.71963 14.9643 5.83461 14.9292 5.95226 14.9292C6.11002 14.9292 6.26135 14.9923 6.3729 15.1045C6.48446 15.2168 6.54712 15.3691 6.54712 15.5279Z" fill="#1D365A"/>
<path d="M4.5781 4.64126H3.79175C3.68847 4.64126 3.58942 4.59997 3.51639 4.52647C3.44336 4.45297 3.40234 4.35329 3.40234 4.24934C3.40234 4.1454 3.44336 4.04571 3.51639 3.97221C3.58942 3.89871 3.68847 3.85742 3.79175 3.85742H4.5781C4.68138 3.85742 4.78043 3.89871 4.85346 3.97221C4.92649 4.04571 4.96751 4.1454 4.96751 4.24934C4.96751 4.35329 4.92649 4.45297 4.85346 4.52647C4.78043 4.59997 4.68138 4.64126 4.5781 4.64126Z" fill="#1D365A"/>
<path d="M3.00185 7.01675H1.4314C1.32812 7.01675 1.22907 6.97546 1.15604 6.90196C1.08301 6.82846 1.04199 6.72877 1.04199 6.62483C1.04199 6.52089 1.08301 6.4212 1.15604 6.3477C1.22907 6.2742 1.32812 6.23291 1.4314 6.23291H3.00185C3.10513 6.23291 3.20419 6.2742 3.27721 6.3477C3.35024 6.4212 3.39129 6.52089 3.39129 6.62483C3.39129 6.72877 3.35024 6.82846 3.27721 6.90196C3.20419 6.97546 3.10513 7.01675 3.00185 7.01675Z" fill="#1D365A"/>
<path d="M3.01264 10.9655H0.654056C0.550778 10.9655 0.451752 10.9242 0.378723 10.8507C0.305694 10.7772 0.264648 10.6775 0.264648 10.5736C0.264648 10.4696 0.305694 10.3699 0.378723 10.2964C0.451752 10.2229 0.550778 10.1816 0.654056 10.1816H3.01264C3.11592 10.1816 3.21497 10.2229 3.288 10.2964C3.36103 10.3699 3.40205 10.4696 3.40205 10.5736C3.40205 10.6775 3.36103 10.7772 3.288 10.8507C3.21497 10.9242 3.11592 10.9655 3.01264 10.9655Z" fill="#1D365A"/>
<path d="M4.58163 13.3317H3.79175C3.68847 13.3317 3.58942 13.2904 3.51639 13.2169C3.44336 13.1434 3.40234 13.0437 3.40234 12.9398C3.40234 12.8358 3.44336 12.7361 3.51639 12.6626C3.58942 12.5891 3.68847 12.5479 3.79175 12.5479H4.58163C4.68491 12.5479 4.78397 12.5891 4.857 12.6626C4.93002 12.7361 4.97104 12.8358 4.97104 12.9398C4.97104 13.0437 4.93002 13.1434 4.857 13.2169C4.78397 13.2904 4.68491 13.3317 4.58163 13.3317Z" fill="#1D365A"/>
<path d="M29.0232 8.08869C29.2346 8.3534 29.3481 8.68381 29.3443 9.02342C29.3502 9.3194 29.2695 9.61059 29.1121 9.86067C28.9469 10.1103 28.7136 10.3065 28.4403 10.426C28.1128 10.569 27.7583 10.6386 27.4014 10.6298H24.8584V4.69607H27.2908C27.6456 4.68737 27.9982 4.75395 28.3257 4.89147C28.5937 5.00387 28.8229 5.1932 28.9847 5.43584C29.1349 5.67161 29.2128 5.94674 29.2085 6.2268C29.2194 6.53917 29.1225 6.8457 28.9343 7.09432C28.7465 7.32994 28.4915 7.50204 28.2036 7.5875C28.5293 7.64589 28.8216 7.82464 29.0232 8.08869ZM26.0406 7.14506H27.1223C27.3547 7.16028 27.5849 7.0925 27.7725 6.95366C27.8497 6.88597 27.9105 6.80132 27.95 6.70623C27.9896 6.61115 28.0069 6.50818 28.0007 6.40529C28.0066 6.30177 27.9892 6.19824 27.9497 6.10248C27.9102 6.00672 27.8496 5.92123 27.7725 5.85246C27.5861 5.71077 27.3554 5.64126 27.1223 5.65661H26.0406V7.14506ZM27.9034 9.45963C27.9847 9.38806 28.0487 9.2987 28.0904 9.1984C28.1321 9.0981 28.1504 8.98952 28.144 8.88099C28.1496 8.76825 28.1297 8.6557 28.0858 8.55183C28.0419 8.44796 27.9752 8.3555 27.8905 8.28142C27.696 8.12843 27.4529 8.05143 27.2063 8.06466H26.0406V9.66305H27.232C27.4729 9.67787 27.7112 9.60557 27.9038 9.45919" fill="#AB2346"/>
<path d="M32.0576 6.06558C32.314 5.92087 32.604 5.84743 32.8979 5.85281V7.10402H32.5852C32.4274 7.0783 32.2657 7.0916 32.114 7.14276C31.9624 7.19392 31.8254 7.2814 31.7148 7.39769C31.6042 7.51397 31.5234 7.65557 31.4793 7.81028C31.4351 7.96498 31.429 8.12817 31.4615 8.28578V10.6324H30.2793V5.92092H31.4601V6.65223C31.6061 6.40903 31.8111 6.20715 32.0559 6.06558" fill="#AB2346"/>
<path d="M34.6456 10.405C34.2879 10.2067 33.9935 9.9104 33.7964 9.55044C33.5848 9.15968 33.4781 8.72014 33.4869 8.2752C33.4777 7.82919 33.5871 7.38881 33.8035 6.99951C34.0069 6.63861 34.307 6.34248 34.6695 6.1449C35.0478 5.94673 35.468 5.84326 35.8945 5.84326C36.321 5.84326 36.7412 5.94673 37.1196 6.1449C37.4821 6.34252 37.7821 6.63864 37.9855 6.99951C38.2022 7.38876 38.3116 7.82915 38.3027 8.2752C38.3117 8.72214 38.1993 9.16308 37.9776 9.55044C37.7684 9.91126 37.4643 10.207 37.0988 10.405C36.718 10.6093 36.2919 10.7131 35.8605 10.7068C35.4359 10.7134 35.0168 10.6094 34.6438 10.405M36.4646 9.51216C36.6577 9.40256 36.8148 9.23857 36.9166 9.04034C37.0354 8.80344 37.0934 8.54043 37.0855 8.2752C37.0978 8.08825 37.0731 7.90072 37.013 7.72341C36.9529 7.5461 36.8585 7.38252 36.7353 7.2421C36.625 7.12535 36.4919 7.03296 36.3442 6.97082C36.1966 6.90867 36.0377 6.87812 35.8777 6.88111C35.7189 6.87762 35.5611 6.90798 35.4148 6.97019C35.2684 7.0324 35.1368 7.12507 35.0286 7.2421C34.7845 7.52811 34.6617 7.89902 34.6863 8.2752C34.6616 8.64995 34.7811 9.01989 35.0202 9.3083C35.1263 9.42571 35.2562 9.51875 35.4012 9.58112C35.5462 9.64348 35.7028 9.6737 35.8605 9.66973C36.0719 9.67041 36.28 9.61585 36.4646 9.51216Z" fill="#AB2346"/>
<path d="M39.1986 6.99169C39.3709 6.64148 39.6374 6.34694 39.9677 6.14153C40.2949 5.94219 40.671 5.83904 41.0535 5.84376C41.3719 5.83648 41.6871 5.90963 41.9703 6.05652C42.217 6.18511 42.432 6.36761 42.5996 6.59065V5.92032H43.7911V10.6318H42.5996V9.94232C42.4365 10.1732 42.2206 10.3613 41.9703 10.4907C41.6847 10.6397 41.3666 10.7142 41.045 10.7075C40.6642 10.7112 40.2903 10.605 39.9677 10.4012C39.6374 10.1902 39.3713 9.89153 39.1986 9.53817C39.0039 9.14052 38.9069 8.70168 38.9156 8.25848C38.9072 7.81929 39.0043 7.38501 39.1986 6.99169ZM42.4302 7.53117C42.3254 7.33263 42.1673 7.16775 41.9738 7.05534C41.7865 6.9458 41.5735 6.88849 41.3568 6.88932C41.1392 6.88692 40.9252 6.94473 40.738 7.05642C40.5508 7.16812 40.3977 7.32942 40.2954 7.52271C40.1753 7.74873 40.1156 8.00225 40.122 8.25848C40.1162 8.51733 40.1759 8.77343 40.2954 9.0027C40.4005 9.20466 40.5583 9.37395 40.7518 9.49232C40.9338 9.60386 41.1429 9.6627 41.3559 9.66235C41.5726 9.66325 41.7855 9.6061 41.9729 9.49677C42.1663 9.38412 42.3245 9.21911 42.4293 9.0205C42.5404 8.78843 42.5982 8.53412 42.5982 8.2765C42.5982 8.01888 42.5404 7.76458 42.4293 7.5325" fill="#AB2346"/>
<path d="M44.8915 6.99172C45.0621 6.64243 45.3277 6.34909 45.6575 6.14586C45.9873 5.94263 46.3677 5.83787 46.7544 5.84378C47.0558 5.84321 47.3534 5.91154 47.6247 6.04364C47.8844 6.16366 48.1107 6.34618 48.2837 6.5751V4.33887H49.4835V10.6309H48.2837V9.93389C48.1308 10.1723 47.9182 10.3659 47.6672 10.4952C47.3825 10.6417 47.0661 10.7148 46.7464 10.7079C46.3644 10.7114 45.9893 10.6052 45.6651 10.4017C45.3329 10.1916 45.0653 9.89281 44.892 9.53864C44.6973 9.141 44.6002 8.70216 44.6089 8.25895C44.6005 7.81976 44.6976 7.38502 44.892 6.99172M48.1236 7.53164C48.0189 7.33317 47.8609 7.16829 47.6676 7.05582C47.4804 6.94635 47.2676 6.88904 47.0511 6.88979C46.8335 6.8874 46.6194 6.9452 46.4323 7.0569C46.2451 7.16859 46.092 7.32989 45.9897 7.52318C45.8696 7.7492 45.8098 8.00272 45.8163 8.25895C45.8105 8.5178 45.8701 8.7739 45.9897 9.00317C46.0947 9.20514 46.2525 9.37443 46.4461 9.49279C46.6281 9.60436 46.8371 9.6632 47.0502 9.66283C47.2667 9.66365 47.4795 9.6065 47.6667 9.49724C47.86 9.38453 48.018 9.21953 48.1227 9.02098C48.234 8.78894 48.2917 8.53462 48.2917 8.27698C48.2917 8.01933 48.234 7.76501 48.1227 7.53297" fill="#AB2346"/>
<path d="M51.3555 10.498C51.0708 10.3743 50.8223 10.1796 50.6332 9.9323C50.4596 9.70416 50.358 9.42874 50.3418 9.14179H51.5332C51.5441 9.23125 51.5733 9.31747 51.619 9.395C51.6647 9.47253 51.7258 9.53969 51.7986 9.59224C51.9661 9.71521 52.1699 9.77791 52.3771 9.77028C52.5629 9.78112 52.7474 9.73352 52.9051 9.63408C52.9635 9.59687 53.0115 9.5454 53.0448 9.48445C53.078 9.42351 53.0954 9.35509 53.0953 9.28556C53.0957 9.21124 53.0738 9.13854 53.0323 9.07704C52.9909 9.01554 52.9319 8.96812 52.8631 8.94104C52.6246 8.83538 52.3771 8.75136 52.1237 8.69C51.8319 8.62293 51.5453 8.53487 51.2661 8.4265C51.044 8.33615 50.8468 8.19324 50.6912 8.00988C50.5217 7.79577 50.4361 7.52655 50.4506 7.25319C50.4494 6.99809 50.5276 6.74903 50.6744 6.54101C50.8373 6.3144 51.0597 6.13781 51.3165 6.03092C51.628 5.89959 51.9634 5.83574 52.301 5.84352C52.7817 5.81849 53.2553 5.96791 53.6358 6.2646C53.8009 6.40473 53.9352 6.57812 54.0298 6.77361C54.1244 6.96909 54.1773 7.18233 54.185 7.39963H53.0529C53.0473 7.3132 53.0238 7.2289 52.9838 7.15221C52.9438 7.07553 52.8882 7.00817 52.8207 6.95452C52.6653 6.85516 52.4867 6.79873 52.3027 6.79092C52.1188 6.7831 51.9361 6.82418 51.7729 6.91001C51.7181 6.94549 51.6733 6.9947 51.643 7.05283C51.6127 7.11096 51.5979 7.176 51.6 7.24161C51.5995 7.31871 51.6218 7.39422 51.6639 7.45862C51.706 7.52302 51.7661 7.57343 51.8366 7.60349C52.0722 7.71279 52.3186 7.79679 52.5717 7.85409C52.8563 7.92216 53.1357 8.01036 53.408 8.11804C53.629 8.20973 53.8247 8.35407 53.9781 8.53866C54.1467 8.75214 54.2351 9.01871 54.2275 9.29134C54.2307 9.55266 54.1524 9.80842 54.0037 10.0227C53.8412 10.2487 53.6186 10.4241 53.3616 10.5287C53.0523 10.6564 52.7201 10.7185 52.3859 10.7112C52.0314 10.7171 51.6798 10.646 51.355 10.5029" fill="#AB2346"/>
<path d="M56.9936 6.06038C57.2764 5.91203 57.5916 5.83749 57.9104 5.84361C58.2928 5.83878 58.6689 5.94178 58.9961 6.14094C59.3255 6.34554 59.5918 6.63837 59.7652 6.98665C59.9604 7.38111 60.0575 7.81733 60.0483 8.25789C60.0569 8.70108 59.9598 9.1399 59.7652 9.53758C59.5924 9.89083 59.3263 10.1894 58.9961 10.4006C58.6708 10.6052 58.294 10.7114 57.9104 10.7069C57.5948 10.7135 57.2827 10.6403 57.0024 10.4941C56.7542 10.3643 56.5367 10.1821 56.3647 9.95998V12.8763H55.1816V5.92017H56.3647V6.6003C56.5299 6.37349 56.7449 6.18861 56.9936 6.06038ZM58.6667 7.52256C58.5612 7.32572 58.4033 7.16235 58.2107 7.05075C58.0242 6.9436 57.8129 6.88786 57.5982 6.88917C57.3856 6.88867 57.1769 6.94604 56.994 7.0552C56.8011 7.17015 56.6434 7.3363 56.5381 7.53547C56.4241 7.76522 56.3648 8.01848 56.3648 8.27525C56.3648 8.53201 56.4241 8.78527 56.5381 9.01502C56.6434 9.21414 56.8012 9.38029 56.994 9.49529C57.1786 9.60436 57.3889 9.66149 57.603 9.66071C57.817 9.65993 58.0269 9.60126 58.2107 9.49084C58.4032 9.37342 58.5607 9.20598 58.6667 9.00611C58.7871 8.77574 58.8468 8.51812 58.84 8.25789C58.8466 8.00165 58.7868 7.74856 58.6667 7.52256Z" fill="#AB2346"/>
<path d="M65.2097 8.63284H61.7879C61.7979 8.93602 61.9248 9.22337 62.1417 9.43403C62.3508 9.62731 62.6265 9.73108 62.9103 9.72336C63.1056 9.73505 63.2998 9.68679 63.4672 9.58498C63.6346 9.48316 63.7674 9.33258 63.8479 9.15317H65.1238C64.9927 9.60121 64.7199 9.99395 64.3468 10.2717C63.9382 10.5719 63.4416 10.7259 62.936 10.7093C62.5127 10.7161 62.095 10.6121 61.7237 10.4075C61.3691 10.2094 61.0788 9.91273 60.8874 9.55288C60.6817 9.16025 60.5785 8.72143 60.5876 8.27764C60.5778 7.83141 60.6795 7.38986 60.8834 6.9935C61.071 6.63486 61.3589 6.33933 61.7113 6.14334C62.0853 5.94919 62.4998 5.84719 62.9206 5.84572C63.3414 5.84425 63.7565 5.94335 64.1319 6.13488C64.4785 6.32233 64.7632 6.60741 64.9514 6.95522C65.1507 7.33025 65.251 7.75048 65.2428 8.17571C65.2439 8.32934 65.2327 8.48282 65.2092 8.63462M64.0178 7.83342C64.0202 7.69396 63.992 7.55569 63.935 7.42854C63.878 7.3014 63.7938 7.18854 63.6883 7.0981C63.4691 6.91197 63.1895 6.81357 62.9028 6.82169C62.6316 6.81337 62.3674 6.9088 62.1634 7.08875C61.955 7.28343 61.8243 7.54786 61.7958 7.83253L64.0178 7.83342Z" fill="#AB2346"/>
<path d="M66.2247 6.99648C66.4123 6.64063 66.6965 6.34578 67.0442 6.14632C67.4106 5.94064 67.8247 5.8365 68.2441 5.84453C68.7593 5.82435 69.2663 5.97856 69.6841 6.28252C70.074 6.58936 70.3445 7.02409 70.4488 7.51102H69.1729C69.1131 7.31803 68.993 7.14959 68.8305 7.03075C68.6551 6.91003 68.4459 6.84904 68.2335 6.85671C68.0803 6.85037 67.9277 6.88057 67.7883 6.94485C67.6489 7.00914 67.5265 7.10567 67.4312 7.2266C67.2378 7.54077 67.1354 7.90302 67.1354 8.2726C67.1354 8.64219 67.2378 9.00444 67.4312 9.31861C67.5265 9.43953 67.6489 9.53607 67.7883 9.60035C67.9277 9.66463 68.0803 9.69484 68.2335 9.6885C68.4399 9.70632 68.6461 9.65168 68.817 9.53387C68.9879 9.41605 69.113 9.24233 69.1711 9.0422H70.447C70.3357 9.52384 70.0643 9.95282 69.6779 10.2582C69.2642 10.5687 68.7576 10.7276 68.2419 10.7087C67.8224 10.7167 67.4084 10.6126 67.042 10.4069C66.6944 10.2074 66.4102 9.91254 66.2225 9.55675C66.0279 9.15858 65.9268 8.72078 65.9268 8.27706C65.9268 7.83333 66.0279 7.39553 66.2225 6.99737" fill="#AB2346"/>
<path d="M72.7759 6.89862V9.17758C72.7701 9.23983 72.7772 9.30261 72.7969 9.36192C72.8165 9.42123 72.8482 9.47578 72.89 9.52209C73.0009 9.6036 73.1376 9.6413 73.2743 9.62803H73.8236V10.6313H73.0801C72.0833 10.6313 71.5849 10.1439 71.5849 9.16912V6.89906H71.0254V5.91982H71.5831V4.75586H72.7741V5.92071H73.8218V6.89995L72.7759 6.89862Z" fill="#AB2346"/>
<path d="M76.5722 6.06558C76.8286 5.92085 77.1186 5.84741 77.4125 5.85282V7.10402H77.0998C76.9419 7.0782 76.7802 7.09141 76.6285 7.14253C76.4768 7.19366 76.3397 7.28115 76.2291 7.39746C76.1185 7.51377 76.0377 7.65541 75.9936 7.81017C75.9495 7.96493 75.9435 8.12816 75.976 8.28578V10.6324H74.793V5.92092H75.976V6.65223C76.1219 6.40897 76.3274 6.20708 76.5722 6.06558Z" fill="#AB2346"/>
<path d="M82.6474 5.9209V10.6315H81.4559V10.0364C81.3001 10.2437 81.0956 10.4087 80.8606 10.5167C80.6107 10.6338 80.338 10.6932 80.0623 10.6907C79.7235 10.6978 79.3885 10.6174 79.0894 10.457C78.8054 10.2987 78.5745 10.059 78.426 9.76842C78.258 9.4327 78.1754 9.06032 78.1854 8.68458V5.9209H79.3684V8.51455C79.3477 8.82744 79.4475 9.13633 79.6471 9.37717C79.745 9.47926 79.8635 9.55903 79.9946 9.61109C80.1258 9.66315 80.2665 9.68629 80.4073 9.67896C80.5494 9.68685 80.6915 9.664 80.8241 9.61194C80.9567 9.55988 81.0767 9.47983 81.176 9.37717C81.3755 9.13636 81.4753 8.82744 81.4546 8.51455V5.9209H82.6474Z" fill="#AB2346"/>
<path d="M91.0851 6.38436C91.2681 6.583 91.4092 6.8169 91.5 7.07196C91.5908 7.32701 91.6292 7.59792 91.6131 7.86835V10.6316H90.4305V8.02948C90.4513 7.72166 90.351 7.41794 90.1514 7.18377C90.0521 7.08406 89.9332 7.00643 89.8022 6.9559C89.6713 6.90538 89.5312 6.88308 89.3912 6.89045C89.2505 6.88339 89.1099 6.90581 88.9783 6.9563C88.8466 7.0068 88.7268 7.08426 88.6265 7.18377C88.5264 7.2991 88.4499 7.43315 88.4013 7.57827C88.3527 7.72338 88.3331 7.87671 88.3435 8.02948V10.6316H87.1608V8.02948C87.1815 7.72175 87.0815 7.41813 86.8822 7.18377C86.7829 7.08408 86.664 7.00647 86.533 6.95594C86.4021 6.90542 86.262 6.88311 86.122 6.89045C85.98 6.8828 85.8379 6.90492 85.7049 6.95541C85.5718 7.00591 85.4506 7.08367 85.3489 7.18377C85.2489 7.29912 85.1724 7.43318 85.1238 7.57829C85.0752 7.7234 85.0556 7.87671 85.0659 8.02948V10.6316H83.8828V5.921H85.0659V6.49074C85.2214 6.28962 85.4229 6.12929 85.6532 6.02337C85.9006 5.90822 86.1705 5.85013 86.4431 5.85334C86.7841 5.84733 87.1211 5.92769 87.4231 6.08702C87.706 6.23865 87.9382 6.4709 88.0905 6.75469C88.2468 6.47871 88.4766 6.2521 88.7539 6.10038C89.1239 5.89854 89.5471 5.81753 89.9648 5.86857C90.3826 5.91961 90.7742 6.10018 91.0855 6.38525" fill="#AB2346"/>
</svg>
