<svg width="92" height="17" viewBox="0 0 92 17" fill="none" xmlns="http://www.w3.org/2000/svg">
<path d="M15.3288 1.94294H12.1538C12.05 1.94543 11.9468 1.92701 11.8501 1.88874C11.7535 1.85048 11.6654 1.79316 11.5912 1.72015C11.5169 1.64714 11.4578 1.55991 11.4175 1.4636C11.3772 1.36729 11.3564 1.26383 11.3564 1.15933C11.3564 1.05482 11.3772 0.951368 11.4175 0.855056C11.4578 0.758744 11.5169 0.671517 11.5912 0.598505C11.6654 0.525493 11.7535 0.468171 11.8501 0.42991C11.9468 0.391649 12.05 0.373221 12.1538 0.375711H15.3288C15.4326 0.373221 15.5359 0.391649 15.6325 0.42991C15.7291 0.468171 15.8172 0.525493 15.8915 0.598505C15.9658 0.671517 16.0248 0.758744 16.0651 0.855056C16.1054 0.951368 16.1262 1.05482 16.1262 1.15933C16.1262 1.26383 16.1054 1.36729 16.0651 1.4636C16.0248 1.55991 15.9658 1.64714 15.8915 1.72015C15.8172 1.79316 15.7291 1.85048 15.6325 1.88874C15.5359 1.92701 15.4326 1.94543 15.3288 1.94294Z" fill="#AB2346"/>
<path d="M16.9056 4.31745H12.1548C12.051 4.31995 11.9477 4.30152 11.8511 4.26326C11.7545 4.22499 11.6664 4.16767 11.5921 4.09466C11.5178 4.02165 11.4588 3.93442 11.4185 3.83811C11.3782 3.7418 11.3574 3.63835 11.3574 3.53384C11.3574 3.42933 11.3782 3.32588 11.4185 3.22957C11.4588 3.13326 11.5178 3.04603 11.5921 2.97302C11.6664 2.9 11.7545 2.84268 11.8511 2.80442C11.9477 2.76616 12.051 2.74773 12.1548 2.75022H16.9056C17.0094 2.74773 17.1126 2.76616 17.2093 2.80442C17.3059 2.84268 17.3939 2.9 17.4682 2.97302C17.5425 3.04603 17.6015 3.13326 17.6419 3.22957C17.6822 3.32588 17.7029 3.42933 17.7029 3.53384C17.7029 3.63835 17.6822 3.7418 17.6419 3.83811C17.6015 3.93442 17.5425 4.02165 17.4682 4.09466C17.3939 4.16767 17.3059 4.22499 17.2093 4.26326C17.1126 4.30152 17.0094 4.31995 16.9056 4.31745Z" fill="#AB2346"/>
<path d="M18.4697 6.69245H12.1538C11.9505 6.68757 11.7572 6.60288 11.6151 6.45645C11.4731 6.31003 11.3936 6.11349 11.3936 5.90884C11.3936 5.70418 11.4731 5.50765 11.6151 5.36123C11.7572 5.2148 11.9505 5.1301 12.1538 5.12522H18.4697C18.5735 5.12273 18.6768 5.14116 18.7734 5.17942C18.8701 5.21768 18.9581 5.275 19.0324 5.34802C19.1067 5.42103 19.1657 5.50825 19.206 5.60457C19.2463 5.70088 19.2671 5.80433 19.2671 5.90884C19.2671 6.01334 19.2463 6.1168 19.206 6.21311C19.1657 6.30942 19.1067 6.39665 19.0324 6.46966C18.9581 6.54267 18.8701 6.59999 18.7734 6.63826C18.6768 6.67652 18.5735 6.69494 18.4697 6.69245Z" fill="#AB2346"/>
<path d="M15.3288 11.4415H12.1538C12.05 11.444 11.9468 11.4255 11.8501 11.3873C11.7535 11.349 11.6654 11.2917 11.5912 11.2187C11.5169 11.1457 11.4578 11.0584 11.4175 10.9621C11.3772 10.8658 11.3564 10.7624 11.3564 10.6579C11.3564 10.5534 11.3772 10.4499 11.4175 10.3536C11.4578 10.2573 11.5169 10.1701 11.5912 10.097C11.6654 10.024 11.7535 9.96671 11.8501 9.92844C11.9468 9.89018 12.05 9.87176 12.1538 9.87425H15.3288C15.4326 9.87176 15.5359 9.89018 15.6325 9.92844C15.7291 9.96671 15.8172 10.024 15.8915 10.097C15.9658 10.1701 16.0248 10.2573 16.0651 10.3536C16.1054 10.4499 16.1262 10.5534 16.1262 10.6579C16.1262 10.7624 16.1054 10.8658 16.0651 10.9621C16.0248 11.0584 15.9658 11.1457 15.8915 11.2187C15.8172 11.2917 15.7291 11.349 15.6325 11.3873C15.5359 11.4255 15.4326 11.444 15.3288 11.4415Z" fill="#AB2346"/>
<path d="M14.5411 13.8165H12.1529C12.049 13.819 11.9458 13.8005 11.8492 13.7623C11.7526 13.724 11.6645 13.6667 11.5902 13.5937C11.5159 13.5207 11.4569 13.4334 11.4166 13.3371C11.3762 13.2408 11.3555 13.1374 11.3555 13.0329C11.3555 12.9284 11.3762 12.8249 11.4166 12.7286C11.4569 12.6323 11.5159 12.5451 11.5902 12.472C11.6645 12.399 11.7526 12.3417 11.8492 12.3034C11.9458 12.2652 12.049 12.2468 12.1529 12.2492H14.5411C14.6449 12.2468 14.7481 12.2652 14.8448 12.3034C14.9414 12.3417 15.0294 12.399 15.1037 12.472C15.178 12.5451 15.2371 12.6323 15.2774 12.7286C15.3177 12.8249 15.3384 12.9284 15.3384 13.0329C15.3384 13.1374 15.3177 13.2408 15.2774 13.3371C15.2371 13.4334 15.178 13.5207 15.1037 13.5937C15.0294 13.6667 14.9414 13.724 14.8448 13.7623C14.7481 13.8005 14.6449 13.819 14.5411 13.8165Z" fill="#AB2346"/>
<path d="M9.81999 1.94294H8.22122C8.11741 1.94543 8.01414 1.92701 7.91751 1.88874C7.82088 1.85048 7.73283 1.79316 7.65854 1.72015C7.58424 1.64714 7.52522 1.55991 7.48491 1.4636C7.44461 1.36729 7.42383 1.26383 7.42383 1.15933C7.42383 1.05482 7.44461 0.951368 7.48491 0.855056C7.52522 0.758744 7.58424 0.671517 7.65854 0.598505C7.73283 0.525493 7.82088 0.468171 7.91751 0.42991C8.01414 0.391649 8.11741 0.373221 8.22122 0.375711H9.81999C9.92379 0.373221 10.0271 0.391649 10.1237 0.42991C10.2203 0.468171 10.3084 0.525493 10.3827 0.598505C10.457 0.671517 10.516 0.758744 10.5563 0.855056C10.5966 0.951368 10.6174 1.05482 10.6174 1.15933C10.6174 1.26383 10.5966 1.36729 10.5563 1.4636C10.516 1.55991 10.457 1.64714 10.3827 1.72015C10.3084 1.79316 10.2203 1.85048 10.1237 1.88874C10.0271 1.92701 9.92379 1.94543 9.81999 1.94294Z" fill="#82AEC9"/>
<path d="M9.82044 4.31745H6.65872C6.55491 4.31995 6.45167 4.30152 6.35504 4.26326C6.25841 4.22499 6.17036 4.16767 6.09606 4.09466C6.02177 4.02165 5.96272 3.93442 5.92241 3.83811C5.88211 3.7418 5.86133 3.63835 5.86133 3.53384C5.86133 3.42933 5.88211 3.32588 5.92241 3.22957C5.96272 3.13326 6.02177 3.04603 6.09606 2.97302C6.17036 2.9 6.25841 2.84268 6.35504 2.80442C6.45167 2.76616 6.55491 2.74773 6.65872 2.75022H9.82044C9.92424 2.74773 10.0275 2.76616 10.1241 2.80442C10.2208 2.84268 10.3088 2.9 10.3831 2.97302C10.4574 3.04603 10.5165 3.13326 10.5568 3.22957C10.5971 3.32588 10.6178 3.42933 10.6178 3.53384C10.6178 3.63835 10.5971 3.7418 10.5568 3.83811C10.5165 3.93442 10.4574 4.02165 10.3831 4.09466C10.3088 4.16767 10.2208 4.22499 10.1241 4.26326C10.0275 4.30152 9.92424 4.31995 9.82044 4.31745Z" fill="#82AEC9"/>
<path d="M9.81971 6.69245H5.09329C4.98948 6.69494 4.88621 6.67652 4.78958 6.63826C4.69295 6.59999 4.6049 6.54267 4.53061 6.46966C4.45631 6.39665 4.39727 6.30942 4.35696 6.21311C4.31665 6.1168 4.2959 6.01334 4.2959 5.90884C4.2959 5.80433 4.31665 5.70088 4.35696 5.60457C4.39727 5.50825 4.45631 5.42103 4.53061 5.34802C4.6049 5.275 4.69295 5.21768 4.78958 5.17942C4.88621 5.14116 4.98948 5.12273 5.09329 5.12522H9.81971C9.92352 5.12273 10.0268 5.14116 10.1234 5.17942C10.22 5.21768 10.3081 5.275 10.3824 5.34802C10.4567 5.42103 10.5157 5.50825 10.556 5.60457C10.5963 5.70088 10.6171 5.80433 10.6171 5.90884C10.6171 6.01334 10.5963 6.1168 10.556 6.21311C10.5157 6.30942 10.4567 6.39665 10.3824 6.46966C10.3081 6.54267 10.22 6.59999 10.1234 6.63826C10.0268 6.67652 9.92352 6.69494 9.81971 6.69245Z" fill="#82AEC9"/>
<path d="M9.82066 9.06647H3.51223C3.40842 9.06897 3.30518 9.05054 3.20855 9.01228C3.11193 8.97401 3.02387 8.91669 2.94958 8.84368C2.87528 8.77067 2.81624 8.68344 2.77593 8.58713C2.73562 8.49082 2.71484 8.38737 2.71484 8.28286C2.71484 8.17835 2.73562 8.0749 2.77593 7.97859C2.81624 7.88228 2.87528 7.79505 2.94958 7.72204C3.02387 7.64903 3.11193 7.5917 3.20855 7.55344C3.30518 7.51518 3.40842 7.49676 3.51223 7.49925H9.82066C9.92447 7.49676 10.0277 7.51518 10.1243 7.55344C10.221 7.5917 10.309 7.64903 10.3833 7.72204C10.4576 7.79505 10.5167 7.88228 10.557 7.97859C10.5973 8.0749 10.618 8.17835 10.618 8.28286C10.618 8.38737 10.5973 8.49082 10.557 8.58713C10.5167 8.68344 10.4576 8.77067 10.3833 8.84368C10.309 8.91669 10.221 8.97401 10.1243 9.01228C10.0277 9.05054 9.92447 9.06897 9.82066 9.06647Z" fill="#82AEC9"/>
<path d="M20.0465 9.06647H12.1548C12.051 9.06897 11.9477 9.05054 11.8511 9.01228C11.7545 8.97401 11.6664 8.91669 11.5921 8.84368C11.5178 8.77067 11.4588 8.68344 11.4185 8.58713C11.3782 8.49082 11.3574 8.38737 11.3574 8.28286C11.3574 8.17835 11.3782 8.0749 11.4185 7.97859C11.4588 7.88228 11.5178 7.79505 11.5921 7.72204C11.6664 7.64903 11.7545 7.5917 11.8511 7.55344C11.9477 7.51518 12.051 7.49676 12.1548 7.49925H20.0465C20.1503 7.49676 20.2536 7.51518 20.3502 7.55344C20.4468 7.5917 20.5349 7.64903 20.6092 7.72204C20.6835 7.79505 20.7425 7.88228 20.7828 7.97859C20.8231 8.0749 20.8439 8.17835 20.8439 8.28286C20.8439 8.38737 20.8231 8.49082 20.7828 8.58713C20.7425 8.68344 20.6835 8.77067 20.6092 8.84368C20.5349 8.91669 20.4468 8.97401 20.3502 9.01228C20.2536 9.05054 20.1503 9.06897 20.0465 9.06647Z" fill="#82AEC9"/>
<path d="M9.8206 11.4415H5.0884C4.98459 11.444 4.88136 11.4255 4.78473 11.3873C4.6881 11.349 4.60005 11.2917 4.52575 11.2187C4.45146 11.1457 4.39241 11.0584 4.3521 10.9621C4.31179 10.8658 4.29102 10.7624 4.29102 10.6579C4.29102 10.5534 4.31179 10.4499 4.3521 10.3536C4.39241 10.2573 4.45146 10.1701 4.52575 10.097C4.60005 10.024 4.6881 9.96671 4.78473 9.92844C4.88136 9.89018 4.98459 9.87176 5.0884 9.87425H9.8206C9.92441 9.87176 10.0277 9.89018 10.1243 9.92844C10.2209 9.96671 10.309 10.024 10.3833 10.097C10.4576 10.1701 10.5166 10.2573 10.5569 10.3536C10.5972 10.4499 10.618 10.5534 10.618 10.6579C10.618 10.7624 10.5972 10.8658 10.5569 10.9621C10.5166 11.0584 10.4576 11.1457 10.3833 11.2187C10.309 11.2917 10.2209 11.349 10.1243 11.3873C10.0277 11.4255 9.92441 11.444 9.8206 11.4415Z" fill="#82AEC9"/>
<path d="M20.0458 11.4415H17.6607C17.4574 11.4366 17.264 11.3519 17.122 11.2055C16.9799 11.0591 16.9004 10.8625 16.9004 10.6579C16.9004 10.4532 16.9799 10.2567 17.122 10.1102C17.264 9.96382 17.4574 9.87912 17.6607 9.87425H20.0458C20.1496 9.87176 20.2529 9.89018 20.3495 9.92844C20.4461 9.96671 20.5342 10.024 20.6085 10.097C20.6828 10.1701 20.7418 10.2573 20.7821 10.3536C20.8224 10.4499 20.8432 10.5534 20.8432 10.6579C20.8432 10.7624 20.8224 10.8658 20.7821 10.9621C20.7418 11.0584 20.6828 11.1457 20.6085 11.2187C20.5342 11.2917 20.4461 11.349 20.3495 11.3873C20.2529 11.4255 20.1496 11.444 20.0458 11.4415Z" fill="#82AEC9"/>
<path d="M9.81987 13.8165H6.65286C6.54905 13.819 6.44578 13.8005 6.34915 13.7623C6.25252 13.724 6.16447 13.6667 6.09018 13.5937C6.01588 13.5207 5.95684 13.4334 5.91653 13.3371C5.87622 13.2408 5.85547 13.1374 5.85547 13.0329C5.85547 12.9284 5.87622 12.8249 5.91653 12.7286C5.95684 12.6323 6.01588 12.5451 6.09018 12.472C6.16447 12.399 6.25252 12.3417 6.34915 12.3034C6.44578 12.2652 6.54905 12.2468 6.65286 12.2492H9.81987C9.92368 12.2468 10.0269 12.2652 10.1236 12.3034C10.2202 12.3417 10.3083 12.399 10.3825 12.472C10.4568 12.5451 10.5159 12.6323 10.5562 12.7286C10.5965 12.8249 10.6173 12.9284 10.6173 13.0329C10.6173 13.1374 10.5965 13.2408 10.5562 13.3371C10.5159 13.4334 10.4568 13.5207 10.3825 13.5937C10.3083 13.6667 10.2202 13.724 10.1236 13.7623C10.0269 13.8005 9.92368 13.819 9.81987 13.8165Z" fill="#82AEC9"/>
<path d="M20.1926 13.8165H16.8862C16.683 13.8116 16.4896 13.7269 16.3476 13.5805C16.2055 13.4341 16.126 13.2375 16.126 13.0329C16.126 12.8282 16.2055 12.6317 16.3476 12.4852C16.4896 12.3388 16.683 12.2541 16.8862 12.2492H20.1926C20.2964 12.2468 20.3996 12.2652 20.4963 12.3034C20.5929 12.3417 20.681 12.399 20.7553 12.472C20.8295 12.5451 20.8886 12.6323 20.9289 12.7286C20.9692 12.8249 20.99 12.9284 20.99 13.0329C20.99 13.1374 20.9692 13.2408 20.9289 13.3371C20.8886 13.4334 20.8295 13.5207 20.7553 13.5937C20.681 13.6667 20.5929 13.724 20.4963 13.7623C20.3996 13.8005 20.2964 13.819 20.1926 13.8165Z" fill="#82AEC9"/>
<path d="M9.81999 16.191H8.22122C8.11741 16.1935 8.01414 16.175 7.91751 16.1368C7.82088 16.0985 7.73283 16.0412 7.65854 15.9682C7.58424 15.8952 7.52522 15.808 7.48491 15.7116C7.44461 15.6153 7.42383 15.5119 7.42383 15.4074C7.42383 15.3029 7.44461 15.1994 7.48491 15.1031C7.52522 15.0068 7.58424 14.9196 7.65854 14.8466C7.73283 14.7735 7.82088 14.7162 7.91751 14.678C8.01414 14.6397 8.11741 14.6213 8.22122 14.6238H9.81999C9.92379 14.6213 10.0271 14.6397 10.1237 14.678C10.2203 14.7162 10.3084 14.7735 10.3827 14.8466C10.457 14.9196 10.516 15.0068 10.5563 15.1031C10.5966 15.1994 10.6174 15.3029 10.6174 15.4074C10.6174 15.5119 10.5966 15.6153 10.5563 15.7116C10.516 15.808 10.457 15.8952 10.3827 15.9682C10.3084 16.0412 10.2203 16.0985 10.1237 16.1368C10.0271 16.175 9.92379 16.1935 9.81999 16.191Z" fill="#82AEC9"/>
<path d="M15.3288 16.1905H12.1538C12.05 16.193 11.9468 16.1746 11.8501 16.1363C11.7535 16.098 11.6654 16.0407 11.5912 15.9677C11.5169 15.8947 11.4578 15.8075 11.4175 15.7112C11.3772 15.6148 11.3564 15.5114 11.3564 15.4069C11.3564 15.3024 11.3772 15.1989 11.4175 15.1026C11.4578 15.0063 11.5169 14.9191 11.5912 14.8461C11.6654 14.7731 11.7535 14.7157 11.8501 14.6775C11.9468 14.6392 12.05 14.6208 12.1538 14.6233H15.3288C15.4326 14.6208 15.5359 14.6392 15.6325 14.6775C15.7291 14.7157 15.8172 14.7731 15.8915 14.8461C15.9658 14.9191 16.0248 15.0063 16.0651 15.1026C16.1054 15.1989 16.1262 15.3024 16.1262 15.4069C16.1262 15.5114 16.1054 15.6148 16.0651 15.7112C16.0248 15.8075 15.9658 15.8947 15.8915 15.9677C15.8172 16.0407 15.7291 16.098 15.6325 16.1363C15.5359 16.1746 15.4326 16.193 15.3288 16.1905Z" fill="#82AEC9"/>
<path d="M6.68872 1.75834C6.68872 1.87675 6.65383 1.99249 6.58847 2.09095C6.5231 2.1894 6.43019 2.26613 6.3215 2.31144C6.21281 2.35675 6.09321 2.36861 5.97782 2.34551C5.86243 2.32241 5.75644 2.26539 5.67325 2.18167C5.59006 2.09794 5.53341 1.99127 5.51045 1.87514C5.4875 1.75901 5.49928 1.63863 5.5443 1.52924C5.58933 1.41985 5.66556 1.32635 5.76338 1.26056C5.8612 1.19478 5.97622 1.15967 6.09386 1.15967C6.25163 1.15967 6.40292 1.22274 6.51448 1.33502C6.62603 1.44729 6.68872 1.59956 6.68872 1.75834Z" fill="#1D365A"/>
<path d="M6.66723 15.2032C6.66723 15.3216 6.63234 15.4373 6.56698 15.5358C6.50162 15.6342 6.40871 15.711 6.30002 15.7563C6.19132 15.8016 6.07172 15.8134 5.95633 15.7903C5.84095 15.7672 5.73496 15.7102 5.65177 15.6265C5.56858 15.5428 5.51192 15.4361 5.48897 15.32C5.46602 15.2038 5.4778 15.0835 5.52282 14.9741C5.56784 14.8647 5.6441 14.7712 5.74192 14.7054C5.83975 14.6396 5.95473 14.6045 6.07238 14.6045C6.23014 14.6045 6.38146 14.6676 6.49302 14.7798C6.60457 14.8921 6.66723 15.0444 6.66723 15.2032Z" fill="#1D365A"/>
<path d="M4.69724 4.31802H3.91089C3.80761 4.31802 3.70856 4.27673 3.63553 4.20323C3.5625 4.12973 3.52148 4.03004 3.52148 3.9261C3.52148 3.82216 3.5625 3.72247 3.63553 3.64897C3.70856 3.57547 3.80761 3.53418 3.91089 3.53418H4.69724C4.80052 3.53418 4.89957 3.57547 4.9726 3.64897C5.04563 3.72247 5.08665 3.82216 5.08665 3.9261C5.08665 4.03004 5.04563 4.12973 4.9726 4.20323C4.89957 4.27673 4.80052 4.31802 4.69724 4.31802Z" fill="#1D365A"/>
<path d="M3.12099 6.69204H1.55054C1.44726 6.69204 1.34821 6.65075 1.27518 6.57725C1.20215 6.50375 1.16113 6.40407 1.16113 6.30012C1.16113 6.19618 1.20215 6.09649 1.27518 6.023C1.34821 5.9495 1.44726 5.9082 1.55054 5.9082H3.12099C3.22427 5.9082 3.32333 5.9495 3.39636 6.023C3.46938 6.09649 3.51043 6.19618 3.51043 6.30012C3.51043 6.40407 3.46938 6.50375 3.39636 6.57725C3.32333 6.65075 3.22427 6.69204 3.12099 6.69204Z" fill="#1D365A"/>
<path d="M3.13178 10.6413H0.773197C0.669919 10.6413 0.570892 10.6 0.497864 10.5265C0.424835 10.453 0.383789 10.3533 0.383789 10.2493C0.383789 10.1454 0.424835 10.0457 0.497864 9.97221C0.570892 9.89871 0.669919 9.85742 0.773197 9.85742H3.13178C3.23506 9.85742 3.33411 9.89871 3.40714 9.97221C3.48017 10.0457 3.52119 10.1454 3.52119 10.2493C3.52119 10.3533 3.48017 10.453 3.40714 10.5265C3.33411 10.6 3.23506 10.6413 3.13178 10.6413Z" fill="#1D365A"/>
<path d="M4.70078 13.0075H3.91089C3.80761 13.0075 3.70856 12.9662 3.63553 12.8927C3.5625 12.8192 3.52148 12.7195 3.52148 12.6156C3.52148 12.5116 3.5625 12.4119 3.63553 12.3384C3.70856 12.2649 3.80761 12.2236 3.91089 12.2236H4.70078C4.80405 12.2236 4.90311 12.2649 4.97614 12.3384C5.04916 12.4119 5.09018 12.5116 5.09018 12.6156C5.09018 12.7195 5.04916 12.8192 4.97614 12.8927C4.90311 12.9662 4.80405 13.0075 4.70078 13.0075Z" fill="#1D365A"/>
<path d="M29.1413 7.76447C29.3528 8.02918 29.4663 8.35959 29.4624 8.6992C29.4684 8.99518 29.3876 9.28637 29.2302 9.53646C29.065 9.78603 28.8318 9.98232 28.5584 10.1017C28.231 10.2448 27.8765 10.3143 27.5196 10.3056H24.9766V4.37185H27.409C27.7638 4.36315 28.1164 4.42973 28.4439 4.56725C28.7119 4.67965 28.9411 4.86898 29.1029 5.11162C29.2531 5.34739 29.3309 5.62252 29.3266 5.90258C29.3375 6.21495 29.2407 6.52148 29.0524 6.7701C28.8647 7.00572 28.6097 7.17782 28.3218 7.26328C28.6475 7.32167 28.9398 7.50042 29.1413 7.76447ZM26.1587 6.82084H27.2405C27.4728 6.83606 27.7031 6.76828 27.8906 6.62944C27.9679 6.56175 28.0286 6.4771 28.0682 6.38201C28.1078 6.28693 28.1251 6.18396 28.1188 6.08107C28.1248 5.97755 28.1074 5.87402 28.0679 5.77826C28.0283 5.6825 27.9677 5.59702 27.8906 5.52824C27.7043 5.38655 27.4735 5.31704 27.2405 5.3324H26.1587V6.82084ZM28.0215 9.13541C28.1029 9.06384 28.1668 8.97448 28.2085 8.87418C28.2502 8.77388 28.2686 8.6653 28.2621 8.55677C28.2678 8.44404 28.2479 8.33148 28.204 8.22761C28.1601 8.12374 28.0933 8.03128 28.0087 7.9572C27.8141 7.80421 27.5711 7.72722 27.3245 7.74044H26.1587V9.33883H27.3502C27.5911 9.35365 27.8293 9.28135 28.022 9.13497" fill="#AB2346"/>
<path d="M32.1768 5.74038C32.4331 5.59567 32.7232 5.52224 33.0171 5.52762V6.77882H32.7044C32.5465 6.75311 32.3848 6.7664 32.2332 6.81756C32.0815 6.86872 31.9445 6.95621 31.834 7.07249C31.7234 7.18878 31.6425 7.33037 31.5984 7.48508C31.5543 7.63979 31.5482 7.80298 31.5806 7.96059V10.3072H30.3984V5.59572H31.5793V6.32704C31.7252 6.08383 31.9302 5.88196 32.175 5.74038" fill="#AB2346"/>
<path d="M34.7647 10.0813C34.4071 9.88301 34.1126 9.58667 33.9156 9.22671C33.704 8.83595 33.5973 8.39641 33.606 7.95147C33.5969 7.50546 33.7062 7.06508 33.9227 6.67578C34.126 6.31488 34.4261 6.01875 34.7886 5.82117C35.1669 5.623 35.5872 5.51953 36.0137 5.51953C36.4402 5.51953 36.8604 5.623 37.2387 5.82117C37.6012 6.01879 37.9013 6.31491 38.1047 6.67578C38.3213 7.06503 38.4308 7.50542 38.4218 7.95147C38.4308 8.39841 38.3184 8.83935 38.0967 9.22671C37.8875 9.58753 37.5834 9.88326 37.2179 10.0813C36.8371 10.2855 36.4111 10.3894 35.9796 10.3831C35.555 10.3897 35.1359 10.2857 34.763 10.0813M36.5838 9.18843C36.7769 9.07883 36.934 8.91484 37.0357 8.71661C37.1545 8.47971 37.2126 8.2167 37.2047 7.95147C37.2169 7.76452 37.1923 7.57699 37.1322 7.39968C37.072 7.22236 36.9777 7.05879 36.8544 6.91837C36.7442 6.80162 36.611 6.70923 36.4634 6.64709C36.3157 6.58494 36.1569 6.55439 35.9969 6.55738C35.838 6.55389 35.6803 6.58425 35.5339 6.64646C35.3876 6.70867 35.256 6.80134 35.1477 6.91837C34.9037 7.20438 34.7808 7.57529 34.8054 7.95147C34.7807 8.32622 34.9003 8.69616 35.1393 8.98457C35.2454 9.10198 35.3754 9.19502 35.5203 9.25739C35.6653 9.31975 35.822 9.34997 35.9796 9.34599C36.1911 9.34668 36.3991 9.29212 36.5838 9.18843Z" fill="#AB2346"/>
<path d="M39.3177 6.66796C39.49 6.31775 39.7565 6.02321 40.0868 5.8178C40.414 5.61846 40.7902 5.51531 41.1726 5.52003C41.4911 5.51275 41.8063 5.5859 42.0894 5.73279C42.3361 5.86138 42.5511 6.04388 42.7187 6.26692V5.59659H43.9102V10.3081H42.7187V9.61859C42.5556 9.84946 42.3398 10.0375 42.0894 10.167C41.8039 10.3159 41.4857 10.3905 41.1642 10.3837C40.7833 10.3875 40.4094 10.2812 40.0868 10.0775C39.7565 9.86642 39.4904 9.5678 39.3177 9.21444C39.1231 8.81679 39.026 8.37795 39.0347 7.93475C39.0263 7.49556 39.1234 7.06128 39.3177 6.66796ZM42.5493 7.20744C42.4445 7.0089 42.2864 6.84402 42.0929 6.73161C41.9056 6.62207 41.6926 6.56476 41.476 6.56559C41.2584 6.56319 41.0443 6.621 40.8572 6.73269C40.67 6.84439 40.5169 7.00569 40.4146 7.19898C40.2945 7.425 40.2347 7.67852 40.2412 7.93475C40.2353 8.1936 40.295 8.4497 40.4146 8.67897C40.5196 8.88093 40.6774 9.05022 40.871 9.16859C41.053 9.28013 41.262 9.33897 41.4751 9.33862C41.6917 9.33952 41.9046 9.28237 42.0921 9.17304C42.2855 9.06039 42.4436 8.89538 42.5485 8.69677C42.6596 8.4647 42.7173 8.21039 42.7173 7.95277C42.7173 7.69515 42.6596 7.44084 42.5485 7.20877" fill="#AB2346"/>
<path d="M45.0107 6.6675C45.1812 6.31821 45.4469 6.02487 45.7767 5.82164C46.1065 5.61841 46.4868 5.51365 46.8735 5.51957C47.1749 5.51899 47.4725 5.58733 47.7438 5.71942C48.0035 5.83944 48.2298 6.02196 48.4028 6.25088V4.01465H49.6027V10.3067H48.4028V9.60968C48.2499 9.8481 48.0373 10.0417 47.7863 10.171C47.5016 10.3175 47.1852 10.3906 46.8655 10.3837C46.4835 10.3872 46.1084 10.2809 45.7842 10.0775C45.4521 9.86738 45.1845 9.5686 45.0111 9.21442C44.8164 8.81678 44.7194 8.37794 44.7281 7.93473C44.7196 7.49554 44.8168 7.0608 45.0111 6.6675M48.2427 7.20742C48.138 7.00895 47.9801 6.84408 47.7868 6.7316C47.5996 6.62213 47.3867 6.56482 47.1702 6.56557C46.9526 6.56318 46.7386 6.62098 46.5514 6.73268C46.3642 6.84438 46.2111 7.00567 46.1088 7.19896C45.9887 7.42498 45.929 7.6785 45.9354 7.93473C45.9296 8.19358 45.9893 8.44968 46.1088 8.67895C46.2139 8.88092 46.3717 9.05021 46.5652 9.16857C46.7472 9.28014 46.9563 9.33898 47.1693 9.33861C47.3858 9.33943 47.5986 9.28228 47.7859 9.17303C47.9791 9.06031 48.1371 8.89531 48.2418 8.69676C48.3531 8.46472 48.4109 8.2104 48.4109 7.95276C48.4109 7.69511 48.3531 7.44079 48.2418 7.20876" fill="#AB2346"/>
<path d="M51.4746 10.1738C51.19 10.0501 50.9414 9.8554 50.7524 9.60808C50.5787 9.37994 50.4772 9.10452 50.4609 8.81757H51.6524C51.6633 8.90703 51.6925 8.99325 51.7382 9.07078C51.7838 9.14831 51.845 9.21547 51.9177 9.26802C52.0853 9.39099 52.289 9.45369 52.4962 9.44606C52.682 9.4569 52.8665 9.4093 53.0243 9.30986C53.0826 9.27265 53.1307 9.22118 53.1639 9.16023C53.1972 9.09929 53.2146 9.03087 53.2144 8.96134C53.2149 8.88702 53.1929 8.81433 53.1515 8.75282C53.11 8.69132 53.051 8.6439 52.9823 8.61682C52.7437 8.51116 52.4962 8.42715 52.2428 8.36578C51.9511 8.29871 51.6645 8.21065 51.3852 8.10228C51.1631 8.01193 50.9659 7.86902 50.8103 7.68566C50.6408 7.47156 50.5552 7.20233 50.5697 6.92897C50.5685 6.67387 50.6468 6.42481 50.7935 6.21679C50.9565 5.99019 51.1788 5.81359 51.4357 5.7067C51.7471 5.57537 52.0826 5.51152 52.4202 5.51931C52.9008 5.49427 53.3744 5.64369 53.7549 5.94038C53.9201 6.08052 54.0543 6.2539 54.1489 6.44939C54.2435 6.64487 54.2964 6.85812 54.3042 7.07541H53.172C53.1665 6.98898 53.143 6.90468 53.103 6.82799C53.0629 6.75131 53.0074 6.68395 52.9398 6.6303C52.7844 6.53094 52.6058 6.47451 52.4219 6.4667C52.238 6.45889 52.0552 6.49996 51.8921 6.58579C51.8372 6.62127 51.7924 6.67049 51.7621 6.72861C51.7318 6.78674 51.717 6.85179 51.7192 6.91739C51.7187 6.99449 51.7409 7.07 51.783 7.1344C51.8251 7.1988 51.8852 7.24921 51.9558 7.27927C52.1914 7.38857 52.4377 7.47257 52.6908 7.52987C52.9754 7.59794 53.2549 7.68614 53.5271 7.79382C53.7482 7.88551 53.9438 8.02985 54.0972 8.21444C54.2659 8.42792 54.3542 8.69449 54.3466 8.96713C54.3498 9.22844 54.2715 9.4842 54.1228 9.69844C53.9603 9.92452 53.7378 10.0999 53.4807 10.2045C53.1714 10.3322 52.8393 10.3943 52.5051 10.387C52.1506 10.3929 51.7989 10.3218 51.4741 10.1787" fill="#AB2346"/>
<path d="M57.1127 5.73665C57.3955 5.5883 57.7107 5.51376 58.0296 5.51988C58.412 5.51505 58.788 5.61805 59.1153 5.81721C59.4447 6.02181 59.711 6.31464 59.8844 6.66292C60.0795 7.05738 60.1767 7.4936 60.1674 7.93416C60.176 8.37735 60.079 8.81617 59.8844 9.21385C59.7116 9.5671 59.4455 9.86569 59.1153 10.0769C58.7899 10.2814 58.4131 10.3877 58.0296 10.3831C57.714 10.3897 57.4018 10.3166 57.1216 10.1704C56.8733 10.0406 56.6558 9.85837 56.4839 9.63625V12.5526H55.3008V5.59644H56.4839V6.27657C56.649 6.04975 56.8641 5.86487 57.1127 5.73665ZM58.7858 7.19883C58.6803 7.00199 58.5224 6.83862 58.3298 6.72702C58.1433 6.61987 57.9321 6.56413 57.7173 6.56544C57.5048 6.56494 57.296 6.62231 57.1132 6.73147C56.9203 6.84642 56.7625 7.01257 56.6572 7.21174C56.5433 7.44149 56.484 7.69475 56.484 7.95152C56.484 8.20828 56.5433 8.46154 56.6572 8.69128C56.7626 8.89041 56.9203 9.05656 57.1132 9.17156C57.2978 9.28063 57.5081 9.33776 57.7221 9.33698C57.9362 9.3362 58.146 9.27753 58.3298 9.16711C58.5223 9.04969 58.6798 8.88225 58.7858 8.68238C58.9062 8.45201 58.9659 8.19439 58.9592 7.93416C58.9657 7.67792 58.906 7.42483 58.7858 7.19883Z" fill="#AB2346"/>
<path d="M65.3288 8.30862H61.907C61.9171 8.6118 62.0439 8.89915 62.2608 9.10982C62.47 9.30309 62.7456 9.40686 63.0295 9.39914C63.2247 9.41083 63.4189 9.36257 63.5863 9.26076C63.7538 9.15894 63.8865 9.00837 63.9671 8.82895H65.243C65.1118 9.277 64.839 9.66973 64.4659 9.94751C64.0573 10.2476 63.5607 10.4016 63.0551 10.3851C62.6319 10.3919 62.2142 10.2879 61.8429 10.0833C61.4883 9.88523 61.1979 9.58851 61.0066 9.22866C60.8008 8.83604 60.6976 8.39721 60.7067 7.95342C60.6969 7.50719 60.7987 7.06564 61.0026 6.66928C61.1902 6.31064 61.478 6.01511 61.8305 5.81912C62.2045 5.62498 62.6189 5.52297 63.0397 5.5215C63.4605 5.52003 63.8757 5.61913 64.251 5.81066C64.5976 5.99812 64.8824 6.28319 65.0705 6.631C65.2698 7.00603 65.3702 7.42626 65.3619 7.85149C65.3631 8.00513 65.3518 8.1586 65.3283 8.3104M64.1369 7.5092C64.1394 7.36975 64.1111 7.23147 64.0541 7.10432C63.9972 6.97718 63.9129 6.86432 63.8074 6.77388C63.5882 6.58775 63.3086 6.48935 63.022 6.49747C62.7508 6.48915 62.4865 6.58459 62.2825 6.76453C62.0742 6.95921 61.9435 7.22364 61.915 7.50831L64.1369 7.5092Z" fill="#AB2346"/>
<path d="M66.3439 6.67128C66.5314 6.31543 66.8156 6.02058 67.1634 5.82112C67.5297 5.61544 67.9438 5.5113 68.3632 5.51934C68.8784 5.49915 69.3854 5.65336 69.8033 5.95732C70.1931 6.26416 70.4637 6.69889 70.5679 7.18583H69.292C69.2322 6.99283 69.1122 6.82439 68.9497 6.70555C68.7742 6.58484 68.565 6.52384 68.3526 6.53152C68.1994 6.52518 68.0468 6.55538 67.9074 6.61966C67.768 6.68394 67.6457 6.78048 67.5504 6.9014C67.357 7.21557 67.2545 7.57783 67.2545 7.94741C67.2545 8.31699 67.357 8.67924 67.5504 8.99342C67.6457 9.11434 67.768 9.21088 67.9074 9.27516C68.0468 9.33944 68.1994 9.36964 68.3526 9.3633C68.559 9.38112 68.7652 9.32649 68.9361 9.20867C69.107 9.09086 69.2321 8.91713 69.2902 8.717H70.5661C70.4548 9.19864 70.1835 9.62762 69.797 9.93304C69.3834 10.2435 68.8767 10.4024 68.361 10.3835C67.9416 10.3915 67.5276 10.2874 67.1612 10.0817C66.8135 9.88217 66.5293 9.58734 66.3417 9.23155C66.1471 8.83338 66.0459 8.39558 66.0459 7.95186C66.0459 7.50814 66.1471 7.07034 66.3417 6.67217" fill="#AB2346"/>
<path d="M72.895 6.5744V8.85336C72.8892 8.91561 72.8964 8.97839 72.916 9.0377C72.9357 9.09701 72.9674 9.15156 73.0091 9.19787C73.12 9.27939 73.2568 9.31708 73.3934 9.30381H73.9427V10.3071H73.1993C72.2024 10.3071 71.704 9.81969 71.704 8.8449V6.57484H71.1445V5.5956H71.7022V4.43164H72.8933V5.59649H73.9409V6.57573L72.895 6.5744Z" fill="#AB2346"/>
<path d="M76.6904 5.74038C76.9467 5.59565 77.2368 5.52222 77.5307 5.52762V6.77882H77.218C77.0601 6.753 76.8983 6.76622 76.7466 6.81734C76.5949 6.86846 76.4579 6.95595 76.3473 7.07226C76.2367 7.18857 76.1558 7.33021 76.1117 7.48497C76.0677 7.63973 76.0616 7.80296 76.0942 7.96059V10.3072H74.9111V5.59572H76.0942V6.32704C76.2401 6.08377 76.4455 5.88188 76.6904 5.74038Z" fill="#AB2346"/>
<path d="M82.7665 5.59668V10.3073H81.5751V9.71216C81.4193 9.91946 81.2147 10.0845 80.9798 10.1924C80.7299 10.3095 80.4571 10.369 80.1815 10.3665C79.8426 10.3736 79.5076 10.2932 79.2085 10.1328C78.9245 9.97446 78.6936 9.7348 78.5451 9.44421C78.3772 9.10848 78.2945 8.7361 78.3045 8.36036V5.59668H79.4876V8.19033C79.4669 8.50322 79.5667 8.81211 79.7662 9.05295C79.8641 9.15504 79.9826 9.23481 80.1138 9.28687C80.2449 9.33893 80.3856 9.36207 80.5264 9.35474C80.6685 9.36263 80.8107 9.33978 80.9433 9.28772C81.0759 9.23566 81.1958 9.15561 81.2951 9.05295C81.4947 8.81214 81.5945 8.50322 81.5737 8.19033V5.59668H82.7665Z" fill="#AB2346"/>
<path d="M91.2032 6.05965C91.3863 6.25829 91.5274 6.4922 91.6182 6.74725C91.7089 7.0023 91.7474 7.27322 91.7313 7.54365V10.3069H90.5487V7.70477C90.5694 7.39695 90.4692 7.09323 90.2696 6.85907C90.1703 6.75935 90.0513 6.68172 89.9204 6.6312C89.7894 6.58067 89.6494 6.55837 89.5093 6.56574C89.3686 6.55868 89.2281 6.5811 89.0964 6.6316C88.9648 6.68209 88.845 6.75955 88.7446 6.85907C88.6446 6.97439 88.568 7.10844 88.5195 7.25356C88.4709 7.39867 88.4513 7.552 88.4616 7.70477V10.3069H87.279V7.70477C87.2997 7.39704 87.1996 7.09342 87.0004 6.85907C86.9011 6.75938 86.7822 6.68176 86.6512 6.63124C86.5202 6.58071 86.3802 6.5584 86.2401 6.56574C86.0981 6.55809 85.9561 6.58021 85.823 6.63071C85.69 6.6812 85.5688 6.75896 85.4671 6.85907C85.367 6.97442 85.2905 7.10847 85.242 7.25358C85.1934 7.39869 85.1737 7.55201 85.184 7.70477V10.3069H84.001V5.59629H85.184V6.16603C85.3396 5.96492 85.5411 5.80458 85.7714 5.69866C86.0188 5.58351 86.2887 5.52543 86.5613 5.52863C86.9022 5.52262 87.2392 5.60298 87.5413 5.76232C87.8242 5.91395 88.0563 6.14619 88.2087 6.42998C88.365 6.154 88.5947 5.9274 88.8721 5.77567C89.242 5.57384 89.6652 5.49282 90.083 5.54387C90.5008 5.59491 90.8924 5.77547 91.2036 6.06054" fill="#AB2346"/>
</svg>
