<svg width="116" height="20" viewBox="0 0 116 20" fill="none" xmlns="http://www.w3.org/2000/svg">
<path d="M18.9053 1.98221H14.8889C14.7576 1.98536 14.627 1.96206 14.5048 1.91367C14.3825 1.86529 14.2711 1.7928 14.1772 1.70047C14.0832 1.60814 14.0085 1.49783 13.9575 1.37603C13.9065 1.25423 13.8802 1.12341 13.8802 0.991248C13.8802 0.859088 13.9065 0.728262 13.9575 0.606465C14.0085 0.484669 14.0832 0.37436 14.1772 0.282029C14.2711 0.189697 14.3825 0.117207 14.5048 0.0688217C14.627 0.0204364 14.7576 -0.00286767 14.8889 0.000281457H18.9053C19.0366 -0.00286767 19.1673 0.0204364 19.2895 0.0688217C19.4117 0.117207 19.5231 0.189697 19.6171 0.282029C19.7111 0.37436 19.7858 0.484669 19.8367 0.606465C19.8877 0.728262 19.914 0.859088 19.914 0.991248C19.914 1.12341 19.8877 1.25423 19.8367 1.37603C19.7858 1.49783 19.7111 1.60814 19.6171 1.70047C19.5231 1.7928 19.4117 1.86529 19.2895 1.91367C19.1673 1.96206 19.0366 1.98536 18.9053 1.98221Z" fill="#AB2346"/>
<path d="M20.8997 4.98514H14.8899C14.7586 4.98829 14.628 4.96499 14.5057 4.9166C14.3835 4.86822 14.2721 4.79573 14.1781 4.7034C14.0842 4.61107 14.0095 4.50076 13.9585 4.37896C13.9075 4.25716 13.8812 4.12634 13.8812 3.99418C13.8812 3.86202 13.9075 3.73119 13.9585 3.60939C14.0095 3.4876 14.0842 3.37729 14.1781 3.28496C14.2721 3.19263 14.3835 3.12014 14.5057 3.07175C14.628 3.02337 14.7586 3.00006 14.8899 3.00321H20.8997C21.031 3.00006 21.1616 3.02337 21.2838 3.07175C21.4061 3.12014 21.5175 3.19263 21.6114 3.28496C21.7054 3.37729 21.7801 3.4876 21.8311 3.60939C21.8821 3.73119 21.9084 3.86202 21.9084 3.99418C21.9084 4.12634 21.8821 4.25716 21.8311 4.37896C21.7801 4.50076 21.7054 4.61107 21.6114 4.7034C21.5175 4.79573 21.4061 4.86822 21.2838 4.9166C21.1616 4.96499 21.031 4.98829 20.8997 4.98514Z" fill="#AB2346"/>
<path d="M22.8789 7.98807H14.8892C14.632 7.9819 14.3875 7.87479 14.2078 7.68962C14.0281 7.50445 13.9275 7.25591 13.9275 6.99711C13.9275 6.7383 14.0281 6.48976 14.2078 6.30459C14.3875 6.11942 14.632 6.01231 14.8892 6.00614H22.8789C23.0102 6.00299 23.1409 6.0263 23.2631 6.07468C23.3853 6.12307 23.4967 6.19555 23.5907 6.28789C23.6847 6.38022 23.7593 6.49053 23.8103 6.61232C23.8613 6.73412 23.8876 6.86495 23.8876 6.99711C23.8876 7.12927 23.8613 7.26009 23.8103 7.38189C23.7593 7.50368 23.6847 7.61399 23.5907 7.70632C23.4967 7.79866 23.3853 7.87115 23.2631 7.91953C23.1409 7.96792 23.0102 7.99122 22.8789 7.98807Z" fill="#AB2346"/>
<path d="M18.9053 13.9939H14.8889C14.7576 13.9971 14.627 13.9738 14.5048 13.9254C14.3825 13.877 14.2711 13.8045 14.1772 13.7122C14.0832 13.6199 14.0085 13.5095 13.9575 13.3877C13.9065 13.266 13.8802 13.1351 13.8802 13.003C13.8802 12.8708 13.9065 12.74 13.9575 12.6182C14.0085 12.4964 14.0832 12.3861 14.1772 12.2937C14.2711 12.2014 14.3825 12.1289 14.5048 12.0805C14.627 12.0322 14.7576 12.0089 14.8889 12.012H18.9053C19.0366 12.0089 19.1673 12.0322 19.2895 12.0805C19.4117 12.1289 19.5231 12.2014 19.6171 12.2937C19.7111 12.3861 19.7858 12.4964 19.8367 12.6182C19.8877 12.74 19.914 12.8708 19.914 13.003C19.914 13.1351 19.8877 13.266 19.8367 13.3877C19.7858 13.5095 19.7111 13.6199 19.6171 13.7122C19.5231 13.8045 19.4117 13.877 19.2895 13.9254C19.1673 13.9738 19.0366 13.9971 18.9053 13.9939Z" fill="#AB2346"/>
<path d="M17.909 16.9964H14.8879C14.7565 16.9995 14.6259 16.9762 14.5037 16.9278C14.3815 16.8794 14.2701 16.807 14.1761 16.7146C14.0821 16.6223 14.0074 16.512 13.9564 16.3902C13.9054 16.2684 13.8792 16.1376 13.8792 16.0054C13.8792 15.8732 13.9054 15.7424 13.9564 15.6206C14.0074 15.4988 14.0821 15.3885 14.1761 15.2962C14.2701 15.2039 14.3815 15.1314 14.5037 15.083C14.6259 15.0346 14.7565 15.0113 14.8879 15.0144H17.909C18.0403 15.0113 18.1709 15.0346 18.2931 15.083C18.4154 15.1314 18.5267 15.2039 18.6207 15.2962C18.7147 15.3885 18.7894 15.4988 18.8404 15.6206C18.8914 15.7424 18.9176 15.8732 18.9176 16.0054C18.9176 16.1376 18.8914 16.2684 18.8404 16.3902C18.7894 16.512 18.7147 16.6223 18.6207 16.7146C18.5267 16.807 18.4154 16.8794 18.2931 16.9278C18.1709 16.9762 18.0403 16.9995 17.909 16.9964Z" fill="#AB2346"/>
<path d="M11.9374 1.98221H9.91495C9.78363 1.98536 9.653 1.96206 9.53076 1.91367C9.40853 1.86529 9.29714 1.7928 9.20316 1.70047C9.10917 1.60814 9.03451 1.49783 8.98352 1.37603C8.93253 1.25423 8.90625 1.12341 8.90625 0.991248C8.90625 0.859088 8.93253 0.728262 8.98352 0.606465C9.03451 0.484669 9.10917 0.37436 9.20316 0.282029C9.29714 0.189697 9.40853 0.117207 9.53076 0.0688217C9.653 0.0204364 9.78363 -0.00286767 9.91495 0.000281457H11.9374C12.0687 -0.00286767 12.1994 0.0204364 12.3216 0.0688217C12.4438 0.117207 12.5552 0.189697 12.6492 0.282029C12.7432 0.37436 12.8178 0.484669 12.8688 0.606465C12.9198 0.728262 12.9461 0.859088 12.9461 0.991248C12.9461 1.12341 12.9198 1.25423 12.8688 1.37603C12.8178 1.49783 12.7432 1.60814 12.6492 1.70047C12.5552 1.7928 12.4438 1.86529 12.3216 1.91367C12.1994 1.96206 12.0687 1.98536 11.9374 1.98221Z" fill="#82AEC9"/>
<path d="M11.9373 4.98514H7.93766C7.80634 4.98829 7.67574 4.96499 7.5535 4.9166C7.43127 4.86822 7.31988 4.79573 7.2259 4.7034C7.13191 4.61107 7.05722 4.50076 7.00623 4.37896C6.95524 4.25716 6.92896 4.12634 6.92896 3.99418C6.92896 3.86202 6.95524 3.73119 7.00623 3.60939C7.05722 3.4876 7.13191 3.37729 7.2259 3.28496C7.31988 3.19263 7.43127 3.12014 7.5535 3.07175C7.67574 3.02337 7.80634 3.00006 7.93766 3.00321H11.9373C12.0686 3.00006 12.1992 3.02337 12.3214 3.07175C12.4437 3.12014 12.5551 3.19263 12.649 3.28496C12.743 3.37729 12.8177 3.4876 12.8687 3.60939C12.9197 3.73119 12.946 3.86202 12.946 3.99418C12.946 4.12634 12.9197 4.25716 12.8687 4.37896C12.8177 4.50076 12.743 4.61107 12.649 4.7034C12.5551 4.79573 12.4437 4.86822 12.3214 4.9166C12.1992 4.96499 12.0686 4.98829 11.9373 4.98514Z" fill="#82AEC9"/>
<path d="M11.9365 7.98807H5.95755C5.82623 7.99122 5.6956 7.96792 5.57337 7.91953C5.45113 7.87115 5.33974 7.79866 5.24576 7.70632C5.15178 7.61399 5.07708 7.50368 5.02609 7.38189C4.9751 7.26009 4.94885 7.12927 4.94885 6.99711C4.94885 6.86495 4.9751 6.73412 5.02609 6.61232C5.07708 6.49053 5.15178 6.38022 5.24576 6.28789C5.33974 6.19555 5.45113 6.12307 5.57337 6.07468C5.6956 6.0263 5.82623 6.00299 5.95755 6.00614H11.9365C12.0678 6.00299 12.1985 6.0263 12.3207 6.07468C12.4429 6.12307 12.5543 6.19555 12.6483 6.28789C12.7423 6.38022 12.817 6.49053 12.868 6.61232C12.919 6.73412 12.9452 6.86495 12.9452 6.99711C12.9452 7.12927 12.919 7.26009 12.868 7.38189C12.817 7.50368 12.7423 7.61399 12.6483 7.70632C12.5543 7.79866 12.4429 7.87115 12.3207 7.91953C12.1985 7.96792 12.0678 7.99122 11.9365 7.98807Z" fill="#82AEC9"/>
<path d="M11.9374 10.991H3.95719C3.82587 10.9941 3.69527 10.9708 3.57303 10.9225C3.4508 10.8741 3.33941 10.8016 3.24543 10.7093C3.15145 10.6169 3.07675 10.5066 3.02576 10.3848C2.97477 10.263 2.94849 10.1322 2.94849 10C2.94849 9.86787 2.97477 9.73705 3.02576 9.61525C3.07675 9.49346 3.15145 9.38315 3.24543 9.29082C3.33941 9.19848 3.4508 9.12599 3.57303 9.07761C3.69527 9.02922 3.82587 9.00592 3.95719 9.00907H11.9374C12.0687 9.00592 12.1993 9.02922 12.3216 9.07761C12.4438 9.12599 12.5552 9.19848 12.6492 9.29082C12.7431 9.38315 12.8178 9.49346 12.8688 9.61525C12.9198 9.73705 12.9461 9.86787 12.9461 10C12.9461 10.1322 12.9198 10.263 12.8688 10.3848C12.8178 10.5066 12.7431 10.6169 12.6492 10.7093C12.5552 10.8016 12.4438 10.8741 12.3216 10.9225C12.1993 10.9708 12.0687 10.9941 11.9374 10.991Z" fill="#82AEC9"/>
<path d="M24.873 10.991H14.8899C14.7586 10.9941 14.628 10.9708 14.5057 10.9225C14.3835 10.8741 14.2721 10.8016 14.1781 10.7093C14.0842 10.6169 14.0095 10.5066 13.9585 10.3848C13.9075 10.263 13.8812 10.1322 13.8812 10C13.8812 9.86787 13.9075 9.73705 13.9585 9.61525C14.0095 9.49346 14.0842 9.38315 14.1781 9.29082C14.2721 9.19848 14.3835 9.12599 14.5057 9.07761C14.628 9.02922 14.7586 9.00592 14.8899 9.00907H24.873C25.0043 9.00592 25.1349 9.02922 25.2571 9.07761C25.3794 9.12599 25.4908 9.19848 25.5848 9.29082C25.6787 9.38315 25.7534 9.49346 25.8044 9.61525C25.8554 9.73705 25.8817 9.86787 25.8817 10C25.8817 10.1322 25.8554 10.263 25.8044 10.3848C25.7534 10.5066 25.6787 10.6169 25.5848 10.7093C25.4908 10.8016 25.3794 10.8741 25.2571 10.9225C25.1349 10.9708 25.0043 10.9941 24.873 10.991Z" fill="#82AEC9"/>
<path d="M11.9371 13.9939H5.95084C5.81952 13.9971 5.68892 13.9738 5.56669 13.9254C5.44445 13.877 5.33306 13.8045 5.23908 13.7122C5.1451 13.6199 5.0704 13.5095 5.01941 13.3877C4.96842 13.266 4.94214 13.1351 4.94214 13.003C4.94214 12.8708 4.96842 12.74 5.01941 12.6182C5.0704 12.4964 5.1451 12.3861 5.23908 12.2937C5.33306 12.2014 5.44445 12.1289 5.56669 12.0805C5.68892 12.0322 5.81952 12.0089 5.95084 12.012H11.9371C12.0684 12.0089 12.1991 12.0322 12.3213 12.0805C12.4435 12.1289 12.5549 12.2014 12.6489 12.2937C12.7429 12.3861 12.8175 12.4964 12.8685 12.6182C12.9195 12.74 12.9458 12.8708 12.9458 13.003C12.9458 13.1351 12.9195 13.266 12.8685 13.3877C12.8175 13.5095 12.7429 13.6199 12.6489 13.7122C12.5549 13.8045 12.4435 13.877 12.3213 13.9254C12.1991 13.9738 12.0684 13.9971 11.9371 13.9939Z" fill="#82AEC9"/>
<path d="M24.873 13.9939H21.8558C21.5986 13.9878 21.3541 13.8807 21.1744 13.6955C20.9946 13.5103 20.894 13.2618 20.894 13.003C20.894 12.7442 20.9946 12.4956 21.1744 12.3105C21.3541 12.1253 21.5986 12.0182 21.8558 12.012H24.873C25.0043 12.0089 25.1349 12.0322 25.2572 12.0805C25.3794 12.1289 25.4908 12.2014 25.5848 12.2937C25.6788 12.3861 25.7534 12.4964 25.8044 12.6182C25.8554 12.74 25.8817 12.8708 25.8817 13.003C25.8817 13.1351 25.8554 13.266 25.8044 13.3877C25.7534 13.5095 25.6788 13.6199 25.5848 13.7122C25.4908 13.8045 25.3794 13.877 25.2572 13.9254C25.1349 13.9738 25.0043 13.9971 24.873 13.9939Z" fill="#82AEC9"/>
<path d="M11.9363 16.9964H7.92997C7.79865 16.9995 7.66801 16.9762 7.54578 16.9278C7.42354 16.8794 7.31216 16.807 7.21817 16.7146C7.12419 16.6223 7.0495 16.512 6.99851 16.3902C6.94752 16.2684 6.92126 16.1376 6.92126 16.0054C6.92126 15.8732 6.94752 15.7424 6.99851 15.6206C7.0495 15.4988 7.12419 15.3885 7.21817 15.2962C7.31216 15.2039 7.42354 15.1314 7.54578 15.083C7.66801 15.0346 7.79865 15.0113 7.92997 15.0144H11.9363C12.0676 15.0113 12.1982 15.0346 12.3204 15.083C12.4427 15.1314 12.5541 15.2039 12.6481 15.2962C12.742 15.3885 12.8167 15.4988 12.8677 15.6206C12.9187 15.7424 12.945 15.8732 12.945 16.0054C12.945 16.1376 12.9187 16.2684 12.8677 16.3902C12.8167 16.512 12.742 16.6223 12.6481 16.7146C12.5541 16.807 12.4427 16.8794 12.3204 16.9278C12.1982 16.9762 12.0676 16.9995 11.9363 16.9964Z" fill="#82AEC9"/>
<path d="M25.0585 16.9964H20.8759C20.6188 16.9902 20.3742 16.8831 20.1945 16.6979C20.0148 16.5128 19.9142 16.2642 19.9142 16.0054C19.9142 15.7466 20.0148 15.4981 20.1945 15.3129C20.3742 15.1277 20.6188 15.0206 20.8759 15.0144H25.0585C25.1898 15.0113 25.3204 15.0346 25.4426 15.083C25.5649 15.1314 25.6763 15.2039 25.7703 15.2962C25.8642 15.3885 25.9389 15.4988 25.9899 15.6206C26.0409 15.7424 26.0672 15.8732 26.0672 16.0054C26.0672 16.1376 26.0409 16.2684 25.9899 16.3902C25.9389 16.512 25.8642 16.6223 25.7703 16.7146C25.6763 16.807 25.5649 16.8794 25.4426 16.9278C25.3204 16.9762 25.1898 16.9995 25.0585 16.9964Z" fill="#82AEC9"/>
<path d="M11.9374 19.9998H9.91495C9.78363 20.0029 9.653 19.9796 9.53076 19.9312C9.40853 19.8829 9.29714 19.8104 9.20316 19.718C9.10917 19.6257 9.03451 19.5154 8.98352 19.3936C8.93253 19.2718 8.90625 19.141 8.90625 19.0088C8.90625 18.8767 8.93253 18.7458 8.98352 18.624C9.03451 18.5022 9.10917 18.3919 9.20316 18.2996C9.29714 18.2073 9.40853 18.1348 9.53076 18.0864C9.653 18.038 9.78363 18.0147 9.91495 18.0179H11.9374C12.0687 18.0147 12.1994 18.038 12.3216 18.0864C12.4438 18.1348 12.5552 18.2073 12.6492 18.2996C12.7432 18.3919 12.8178 18.5022 12.8688 18.624C12.9198 18.7458 12.9461 18.8767 12.9461 19.0088C12.9461 19.141 12.9198 19.2718 12.8688 19.3936C12.8178 19.5154 12.7432 19.6257 12.6492 19.718C12.5552 19.8104 12.4438 19.8829 12.3216 19.9312C12.1994 19.9796 12.0687 20.0029 11.9374 19.9998Z" fill="#82AEC9"/>
<path d="M18.9053 19.9998H14.8889C14.7576 20.0029 14.627 19.9796 14.5048 19.9312C14.3825 19.8829 14.2711 19.8104 14.1772 19.718C14.0832 19.6257 14.0085 19.5154 13.9575 19.3936C13.9065 19.2718 13.8802 19.141 13.8802 19.0088C13.8802 18.8767 13.9065 18.7458 13.9575 18.624C14.0085 18.5022 14.0832 18.3919 14.1772 18.2996C14.2711 18.2073 14.3825 18.1348 14.5048 18.0864C14.627 18.038 14.7576 18.0147 14.8889 18.0179H18.9053C19.0366 18.0147 19.1673 18.038 19.2895 18.0864C19.4117 18.1348 19.5231 18.2073 19.6171 18.2996C19.7111 18.3919 19.7858 18.5022 19.8367 18.624C19.8877 18.7458 19.914 18.8767 19.914 19.0088C19.914 19.141 19.8877 19.2718 19.8367 19.3936C19.7858 19.5154 19.7111 19.6257 19.6171 19.718C19.5231 19.8104 19.4117 19.8829 19.2895 19.9312C19.1673 19.9796 19.0366 20.0029 18.9053 19.9998Z" fill="#82AEC9"/>
<path d="M7.9758 1.74781C7.9758 1.89755 7.93166 2.04392 7.84898 2.16842C7.76629 2.29292 7.64876 2.38996 7.51126 2.44726C7.37377 2.50457 7.22247 2.51956 7.0765 2.49035C6.93054 2.46113 6.79646 2.38903 6.69122 2.28315C6.58599 2.17727 6.51432 2.04237 6.48528 1.89551C6.45625 1.74865 6.47115 1.59642 6.5281 1.45808C6.58506 1.31975 6.6815 1.2015 6.80524 1.11831C6.92899 1.03512 7.07448 0.990723 7.2233 0.990723C7.42287 0.990723 7.61426 1.07049 7.75538 1.21247C7.8965 1.35445 7.9758 1.54702 7.9758 1.74781Z" fill="#1D365A"/>
<path d="M7.94687 18.7517C7.94687 18.9014 7.90273 19.0478 7.82005 19.1723C7.73736 19.2968 7.61983 19.3939 7.48233 19.4512C7.34484 19.5085 7.19354 19.5235 7.04757 19.4943C6.90161 19.465 6.76753 19.3929 6.66229 19.2871C6.55706 19.1812 6.48539 19.0463 6.45635 18.8994C6.42732 18.7526 6.44222 18.6003 6.49917 18.462C6.55613 18.3236 6.6526 18.2054 6.77634 18.1222C6.90009 18.039 7.04555 17.9946 7.19437 17.9946C7.39394 17.9946 7.58537 18.0744 7.72648 18.2164C7.8676 18.3584 7.94687 18.5509 7.94687 18.7517Z" fill="#1D365A"/>
<path d="M5.45633 4.9849H4.4616C4.33095 4.9849 4.20565 4.93268 4.11327 4.83974C4.02088 4.74679 3.96899 4.62073 3.96899 4.48928C3.96899 4.35783 4.02088 4.23176 4.11327 4.13882C4.20565 4.04587 4.33095 3.99365 4.4616 3.99365H5.45633C5.58698 3.99365 5.71228 4.04587 5.80467 4.13882C5.89705 4.23176 5.94894 4.35783 5.94894 4.48928C5.94894 4.62073 5.89705 4.74679 5.80467 4.83974C5.71228 4.93268 5.58698 4.9849 5.45633 4.9849Z" fill="#1D365A"/>
<path d="M3.46313 7.98783H1.47649C1.34584 7.98783 1.22054 7.93561 1.12816 7.84267C1.03578 7.74972 0.983887 7.62365 0.983887 7.49221C0.983887 7.36076 1.03578 7.2347 1.12816 7.14175C1.22054 7.0488 1.34584 6.99658 1.47649 6.99658H3.46313C3.59377 6.99658 3.71908 7.0488 3.81146 7.14175C3.90384 7.2347 3.95576 7.36076 3.95576 7.49221C3.95576 7.62365 3.90384 7.74972 3.81146 7.84267C3.71908 7.93561 3.59377 7.98783 3.46313 7.98783Z" fill="#1D365A"/>
<path d="M3.47623 12.982H0.492604C0.361956 12.982 0.236687 12.9298 0.144305 12.8368C0.0519231 12.7439 0 12.6178 0 12.4863C0 12.3549 0.0519231 12.2288 0.144305 12.1359C0.236687 12.0429 0.361956 11.9907 0.492604 11.9907H3.47623C3.60688 11.9907 3.73218 12.0429 3.82456 12.1359C3.91694 12.2288 3.96883 12.3549 3.96883 12.4863C3.96883 12.6178 3.91694 12.7439 3.82456 12.8368C3.73218 12.9298 3.60688 12.982 3.47623 12.982Z" fill="#1D365A"/>
<path d="M5.46081 15.9742H4.4616C4.33095 15.9742 4.20565 15.9219 4.11327 15.829C4.02088 15.736 3.96899 15.61 3.96899 15.4785C3.96899 15.3471 4.02088 15.221 4.11327 15.1281C4.20565 15.0351 4.33095 14.9829 4.4616 14.9829H5.46081C5.59145 14.9829 5.71676 15.0351 5.80914 15.1281C5.90152 15.221 5.95341 15.3471 5.95341 15.4785C5.95341 15.61 5.90152 15.736 5.80914 15.829C5.71676 15.9219 5.59145 15.9742 5.46081 15.9742Z" fill="#1D365A"/>
<path d="M36.3786 9.34403C36.646 9.67878 36.7896 10.0966 36.7848 10.5261C36.7923 10.9004 36.6901 11.2686 36.491 11.5849C36.282 11.9005 35.987 12.1487 35.6412 12.2998C35.2269 12.4806 34.7785 12.5686 34.327 12.5576H31.1101V5.05369H34.1872C34.6359 5.04269 35.082 5.12689 35.4963 5.3008C35.8353 5.44294 36.1253 5.68237 36.3299 5.98921C36.52 6.28737 36.6184 6.63529 36.613 6.98946C36.6268 7.38449 36.5042 7.77212 36.2661 8.08653C36.0286 8.3845 35.706 8.60215 35.3419 8.71021C35.7539 8.78406 36.1236 9.01011 36.3786 9.34403ZM32.6055 8.1507H33.974C34.2679 8.16994 34.5591 8.08423 34.7964 7.90866C34.8941 7.82306 34.971 7.716 35.0211 7.59576C35.0711 7.47551 35.093 7.3453 35.0851 7.21518C35.0927 7.08427 35.0706 6.95334 35.0206 6.83225C34.9706 6.71115 34.8939 6.60304 34.7964 6.51607C34.5607 6.33689 34.2688 6.24898 33.974 6.2684H32.6055V8.1507ZM34.962 11.0777C35.0649 10.9872 35.1458 10.8742 35.1986 10.7474C35.2513 10.6205 35.2745 10.4832 35.2664 10.346C35.2735 10.2034 35.2484 10.0611 35.1929 9.92971C35.1373 9.79836 35.0529 9.68143 34.9458 9.58776C34.6996 9.39428 34.3922 9.29691 34.0803 9.31363H32.6055V11.335H34.1128C34.4175 11.3537 34.7189 11.2623 34.9626 11.0772" fill="#AB2346"/>
<path d="M40.2184 6.78503C40.5427 6.60203 40.9096 6.50917 41.2813 6.51597V8.09825H40.8858C40.6861 8.06574 40.4815 8.08255 40.2897 8.14724C40.0979 8.21194 39.9246 8.32258 39.7847 8.46963C39.6448 8.61669 39.5425 8.79575 39.4867 8.99139C39.4309 9.18704 39.4232 9.39341 39.4642 9.59272V12.5603H37.9688V6.6021H39.4625V7.52692C39.6472 7.21936 39.9065 6.96407 40.2161 6.78503" fill="#AB2346"/>
<path d="M43.492 12.2737C43.0395 12.023 42.6671 11.6482 42.4178 11.193C42.1501 10.6989 42.0151 10.143 42.0262 9.58033C42.0147 9.0163 42.1529 8.45939 42.4268 7.96709C42.684 7.51068 43.0636 7.1362 43.5222 6.88634C44.0008 6.63573 44.5324 6.50488 45.0719 6.50488C45.6114 6.50488 46.143 6.63573 46.6216 6.88634C47.0802 7.13625 47.4597 7.51072 47.717 7.96709C47.9911 8.45933 48.1296 9.01625 48.1182 9.58033C48.1296 10.1455 47.9874 10.7031 47.707 11.193C47.4423 11.6493 47.0576 12.0233 46.5953 12.2737C46.1136 12.532 45.5746 12.6633 45.0288 12.6554C44.4917 12.6637 43.9615 12.5322 43.4898 12.2737M45.7931 11.1446C46.0374 11.006 46.2361 10.7986 46.3648 10.5479C46.5151 10.2483 46.5885 9.91574 46.5785 9.58033C46.594 9.34392 46.5628 9.10676 46.4868 8.88253C46.4107 8.6583 46.2914 8.45144 46.1355 8.27386C45.996 8.12622 45.8275 8.00939 45.6408 7.9308C45.454 7.85221 45.253 7.81357 45.0506 7.81736C44.8497 7.81294 44.6502 7.85133 44.465 7.93C44.2799 8.00868 44.1134 8.12587 43.9765 8.27386C43.6678 8.63556 43.5123 9.10461 43.5435 9.58033C43.5122 10.0542 43.6634 10.5221 43.9658 10.8868C44.1 11.0353 44.2644 11.1529 44.4478 11.2318C44.6313 11.3107 44.8294 11.3489 45.0288 11.3439C45.2963 11.3447 45.5595 11.2757 45.7931 11.1446Z" fill="#AB2346"/>
<path d="M49.2514 7.95671C49.4694 7.51383 49.8065 7.14134 50.2243 6.88159C50.6382 6.6295 51.114 6.49905 51.5978 6.50502C52.0007 6.49582 52.3994 6.58833 52.7576 6.77408C53.0697 6.9367 53.3417 7.16749 53.5537 7.44955V6.60184H55.0609V12.56H53.5537V11.6881C53.3473 11.9801 53.0743 12.2179 52.7576 12.3816C52.3964 12.57 51.9939 12.6642 51.5872 12.6557C51.1054 12.6605 50.6324 12.5261 50.2243 12.2684C49.8065 12.0015 49.4698 11.6239 49.2514 11.177C49.0051 10.6741 48.8824 10.1192 48.8934 9.55869C48.8828 9.0033 49.0056 8.4541 49.2514 7.95671ZM53.3394 8.63893C53.2068 8.38787 53.0068 8.17936 52.7621 8.0372C52.5251 7.89867 52.2557 7.8262 51.9816 7.82724C51.7063 7.82421 51.4356 7.89732 51.1988 8.03857C50.962 8.17982 50.7683 8.3838 50.6389 8.62824C50.487 8.91406 50.4114 9.23467 50.4196 9.55869C50.4122 9.88604 50.4877 10.2099 50.6389 10.4998C50.7718 10.7552 50.9714 10.9693 51.2163 11.119C51.4465 11.2601 51.7109 11.3345 51.9805 11.334C52.2545 11.3352 52.5239 11.2629 52.7609 11.1246C53.0056 10.9822 53.2056 10.7735 53.3383 10.5224C53.4789 10.2289 53.5519 9.90728 53.5519 9.58149C53.5519 9.2557 53.4789 8.9341 53.3383 8.64062" fill="#AB2346"/>
<path d="M56.4529 7.95638C56.6686 7.51466 57.0047 7.1437 57.4219 6.8867C57.8391 6.62969 58.3203 6.49721 58.8094 6.50469C59.1907 6.50396 59.5671 6.59038 59.9104 6.75743C60.2389 6.9092 60.5252 7.14003 60.744 7.42952V4.60156H62.2618V12.5586H60.744V11.6771C60.5506 11.9786 60.2816 12.2234 59.9641 12.3869C59.6039 12.5722 59.2037 12.6646 58.7993 12.6559C58.316 12.6603 57.8415 12.526 57.4314 12.2687C57.0113 12.003 56.6727 11.6251 56.4535 11.1772C56.2072 10.6744 56.0844 10.1194 56.0954 9.55892C56.0847 9.00353 56.2076 8.45375 56.4535 7.95638M60.5414 8.63917C60.409 8.38818 60.2092 8.17968 59.9647 8.03744C59.7279 7.899 59.4586 7.82653 59.1848 7.82748C58.9095 7.82445 58.6387 7.89755 58.4019 8.0388C58.1652 8.18006 57.9715 8.38403 57.8421 8.62847C57.6901 8.91429 57.6146 9.2349 57.6227 9.55892C57.6154 9.88627 57.6908 10.2101 57.8421 10.5001C57.9749 10.7555 58.1745 10.9696 58.4194 11.1193C58.6496 11.2603 58.9141 11.3348 59.1836 11.3343C59.4574 11.3353 59.7266 11.263 59.9635 11.1249C60.208 10.9823 60.4079 10.7737 60.5404 10.5226C60.6811 10.2292 60.7542 9.90754 60.7542 9.58172C60.7542 9.25591 60.6811 8.93429 60.5404 8.64085" fill="#AB2346"/>
<path d="M64.6301 12.391C64.27 12.2346 63.9556 11.9883 63.7165 11.6756C63.4968 11.3871 63.3683 11.0388 63.3478 10.6759H64.855C64.8687 10.789 64.9057 10.8981 64.9635 10.9961C65.0213 11.0942 65.0986 11.1791 65.1907 11.2455C65.4026 11.401 65.6603 11.4803 65.9224 11.4707C66.1575 11.4844 66.3909 11.4242 66.5904 11.2984C66.6642 11.2514 66.725 11.1863 66.7671 11.1092C66.8092 11.0322 66.8311 10.9456 66.831 10.8577C66.8315 10.7637 66.8037 10.6718 66.7513 10.594C66.6989 10.5162 66.6243 10.4563 66.5373 10.422C66.2355 10.2884 65.9224 10.1822 65.6019 10.1046C65.2328 10.0197 64.8702 9.90838 64.517 9.77133C64.236 9.65708 63.9866 9.47635 63.7897 9.24447C63.5753 8.97371 63.467 8.63325 63.4854 8.28755C63.4839 7.96496 63.5829 7.65 63.7685 7.38693C63.9746 7.10036 64.2559 6.87704 64.5808 6.74186C64.9748 6.57578 65.3991 6.49504 65.8262 6.50489C66.4342 6.47323 67.0334 6.66218 67.5147 7.03738C67.7236 7.21459 67.8934 7.43386 68.0131 7.68107C68.1327 7.92828 68.1997 8.19795 68.2095 8.47275H66.7773C66.7703 8.36344 66.7405 8.25684 66.6899 8.15986C66.6393 8.06288 66.569 7.9777 66.4836 7.90986C66.287 7.7842 66.061 7.71285 65.8284 7.70296C65.5957 7.69308 65.3646 7.74503 65.1582 7.85357C65.0888 7.89844 65.0321 7.96068 64.9938 8.03418C64.9554 8.10769 64.9367 8.18995 64.9394 8.27292C64.9388 8.37041 64.967 8.4659 65.0202 8.54734C65.0735 8.62878 65.1495 8.69253 65.2388 8.73055C65.5368 8.86877 65.8484 8.97499 66.1686 9.04746C66.5286 9.13354 66.8821 9.24508 67.2265 9.38125C67.5062 9.4972 67.7536 9.67974 67.9477 9.91318C68.1611 10.1831 68.2728 10.5202 68.2632 10.865C68.2672 11.1955 68.1682 11.5189 67.9801 11.7898C67.7745 12.0757 67.493 12.2976 67.1678 12.4299C66.7765 12.5913 66.3564 12.6699 65.9336 12.6606C65.4852 12.668 65.0404 12.5782 64.6295 12.3972" fill="#AB2346"/>
<path d="M71.7616 6.77945C72.1193 6.59185 72.5181 6.49759 72.9214 6.50532C73.4051 6.49922 73.8809 6.62947 74.2949 6.88133C74.7115 7.14007 75.0484 7.51039 75.2678 7.95082C75.5146 8.44965 75.6375 9.00131 75.6258 9.55843C75.6367 10.1189 75.5139 10.6738 75.2678 11.1767C75.0491 11.6235 74.7125 12.0011 74.2949 12.2682C73.8833 12.5268 73.4066 12.6612 72.9214 12.6554C72.5222 12.6638 72.1273 12.5713 71.7728 12.3864C71.4587 12.2222 71.1836 11.9918 70.9661 11.7109V15.399H69.4695V6.60214H70.9661V7.46224C71.175 7.17541 71.4471 6.94161 71.7616 6.77945ZM73.8781 8.62854C73.7446 8.37961 73.5449 8.17301 73.3012 8.03188C73.0653 7.89638 72.7981 7.82589 72.5264 7.82755C72.2575 7.82692 71.9934 7.89946 71.7622 8.03751C71.5182 8.18287 71.3186 8.393 71.1854 8.64486C71.0413 8.93541 70.9662 9.25568 70.9662 9.58039C70.9662 9.9051 71.0413 10.2254 71.1854 10.5159C71.3187 10.7677 71.5182 10.9778 71.7622 11.1233C71.9957 11.2612 72.2617 11.3334 72.5325 11.3325C72.8033 11.3315 73.0688 11.2573 73.3012 11.1176C73.5448 10.9691 73.744 10.7574 73.8781 10.5046C74.0304 10.2133 74.1059 9.88752 74.0974 9.55843C74.1056 9.2344 74.0301 8.91434 73.8781 8.62854Z" fill="#AB2346"/>
<path d="M82.1557 10.032H77.8271C77.8398 10.4154 78.0003 10.7787 78.2747 11.0452C78.5392 11.2896 78.8879 11.4208 79.247 11.411C79.494 11.4258 79.7396 11.3648 79.9514 11.236C80.1632 11.1073 80.3312 10.9169 80.433 10.69H82.0471C81.8812 11.2566 81.5361 11.7532 81.0641 12.1045C80.5472 12.484 79.919 12.6788 79.2794 12.6578C78.744 12.6665 78.2156 12.5349 77.746 12.2762C77.2974 12.0257 76.9301 11.6505 76.688 11.1954C76.4277 10.6989 76.2972 10.144 76.3087 9.58277C76.2963 9.01847 76.425 8.46008 76.683 7.95883C76.9203 7.5053 77.2844 7.13157 77.7303 6.88372C78.2034 6.6382 78.7276 6.5092 79.26 6.50734C79.7923 6.50549 80.3175 6.63081 80.7922 6.87302C81.2307 7.11007 81.5909 7.47058 81.8289 7.91043C82.0811 8.38469 82.208 8.91612 82.1976 9.45387C82.199 9.64815 82.1848 9.84224 82.1551 10.0342M80.6479 9.02101C80.651 8.84465 80.6153 8.66978 80.5432 8.50899C80.4711 8.3482 80.3646 8.20549 80.2311 8.09111C79.9538 7.85573 79.6001 7.7313 79.2375 7.74156C78.8945 7.73104 78.5602 7.85173 78.3021 8.0793C78.0385 8.32548 77.8732 8.65989 77.8371 9.01988L80.6479 9.02101Z" fill="#AB2346"/>
<path d="M83.4392 7.96191C83.6765 7.5119 84.036 7.13903 84.4759 6.88679C84.9393 6.62669 85.4631 6.495 85.9937 6.50515C86.6454 6.47963 87.2868 6.67464 87.8153 7.05903C88.3085 7.44706 88.6508 7.99683 88.7826 8.61261H87.1686C87.093 8.36854 86.9411 8.15554 86.7355 8.00525C86.5136 7.85259 86.2489 7.77546 85.9803 7.78516C85.7865 7.77714 85.5935 7.81534 85.4171 7.89663C85.2407 7.97792 85.086 8.1 84.9654 8.25292C84.7207 8.65023 84.5912 9.10833 84.5912 9.57571C84.5912 10.0431 84.7207 10.5012 84.9654 10.8985C85.086 11.0514 85.2407 11.1735 85.4171 11.2548C85.5935 11.3361 85.7865 11.3743 85.9803 11.3663C86.2414 11.3888 86.5022 11.3197 86.7184 11.1707C86.9346 11.0217 87.0929 10.802 87.1663 10.5489H88.7804C88.6395 11.158 88.2963 11.7005 87.8075 12.0868C87.2842 12.4794 86.6433 12.6804 85.9909 12.6564C85.4603 12.6666 84.9366 12.5349 84.4731 12.2748C84.0333 12.0224 83.6738 11.6496 83.4364 11.1996C83.1903 10.6961 83.0623 10.1425 83.0623 9.58134C83.0623 9.02021 83.1903 8.46656 83.4364 7.96304" fill="#AB2346"/>
<path d="M91.7273 7.83865V10.7206C91.72 10.7994 91.7291 10.8788 91.7539 10.9538C91.7788 11.0288 91.8188 11.0978 91.8716 11.1563C92.0119 11.2594 92.1849 11.3071 92.3578 11.2903H93.0527V12.559H92.1122C90.8512 12.559 90.2207 11.9427 90.2207 10.7099V7.83922H89.5129V6.60086H90.2184V5.12891H91.7251V6.60199H93.0504V7.84034L91.7273 7.83865Z" fill="#AB2346"/>
<path d="M96.5283 6.78504C96.8526 6.60201 97.2195 6.50914 97.5913 6.51598V8.09826H97.1958C96.996 8.0656 96.7914 8.08232 96.5995 8.14696C96.4076 8.21161 96.2343 8.32225 96.0943 8.46934C95.9544 8.61643 95.8522 8.79555 95.7964 8.99126C95.7406 9.18697 95.733 9.39339 95.7742 9.59272V12.5603H94.2776V6.6021H95.7742V7.52692C95.9587 7.21929 96.2186 6.96398 96.5283 6.78504Z" fill="#AB2346"/>
<path d="M104.214 6.60205V12.5591H102.707V11.8065C102.51 12.0687 102.251 12.2774 101.954 12.4139C101.638 12.562 101.293 12.6372 100.944 12.634C100.515 12.643 100.092 12.5413 99.7132 12.3385C99.3539 12.1382 99.0618 11.8351 98.874 11.4677C98.6615 11.0431 98.557 10.5722 98.5696 10.097V6.60205H100.066V9.882C100.04 10.2777 100.166 10.6683 100.419 10.9729C100.543 11.102 100.692 11.2029 100.858 11.2687C101.024 11.3345 101.202 11.3638 101.38 11.3545C101.56 11.3645 101.74 11.3356 101.908 11.2698C102.075 11.2039 102.227 11.1027 102.353 10.9729C102.605 10.6683 102.731 10.2777 102.705 9.882V6.60205H104.214Z" fill="#AB2346"/>
<path d="M114.887 7.18804C115.119 7.43924 115.297 7.73504 115.412 8.05758C115.527 8.38012 115.576 8.72272 115.555 9.06471V12.5591H114.059V9.26847C114.086 8.87919 113.959 8.49511 113.706 8.19898C113.581 8.07289 113.43 7.97472 113.265 7.91082C113.099 7.84692 112.922 7.81872 112.745 7.82804C112.567 7.81911 112.389 7.84747 112.222 7.91133C112.056 7.97518 111.904 8.07314 111.777 8.19898C111.651 8.34482 111.554 8.51435 111.492 8.69786C111.431 8.88138 111.406 9.07528 111.419 9.26847V12.5591H109.923V9.26847C109.949 8.87931 109.823 8.49535 109.571 8.19898C109.445 8.07292 109.295 7.97477 109.129 7.91087C108.963 7.84697 108.786 7.81876 108.609 7.82804C108.429 7.81837 108.25 7.84635 108.081 7.9102C107.913 7.97405 107.76 8.07239 107.631 8.19898C107.505 8.34486 107.408 8.51439 107.346 8.69789C107.285 8.8814 107.26 9.07528 107.273 9.26847V12.5591H105.776V6.60207H107.273V7.32257C107.47 7.06823 107.725 6.86547 108.016 6.73153C108.329 6.58591 108.67 6.51245 109.015 6.51651C109.447 6.50891 109.873 6.61053 110.255 6.81203C110.613 7.00378 110.907 7.29748 111.099 7.65636C111.297 7.30735 111.588 7.02079 111.938 6.82891C112.406 6.57367 112.942 6.47122 113.47 6.53577C113.999 6.60032 114.494 6.82867 114.888 7.18916" fill="#AB2346"/>
</svg>
