<svg width="96" height="17" viewBox="0 0 96 17" fill="none" xmlns="http://www.w3.org/2000/svg">
<path d="M15.6247 1.96457H12.3197C12.2117 1.96717 12.1042 1.94799 12.0036 1.90818C11.903 1.86836 11.8114 1.80871 11.7341 1.73274C11.6567 1.65676 11.5953 1.56599 11.5533 1.46577C11.5113 1.36555 11.4897 1.2579 11.4897 1.14915C11.4897 1.0404 11.5113 0.932752 11.5533 0.83253C11.5953 0.732309 11.6567 0.641541 11.7341 0.565565C11.8114 0.48959 11.903 0.429941 12.0036 0.390127C12.1042 0.350312 12.2117 0.331136 12.3197 0.333728H15.6247C15.7327 0.331136 15.8402 0.350312 15.9408 0.390127C16.0414 0.429941 16.133 0.48959 16.2104 0.565565C16.2877 0.641541 16.3491 0.732309 16.3911 0.83253C16.433 0.932752 16.4547 1.0404 16.4547 1.14915C16.4547 1.2579 16.433 1.36555 16.3911 1.46577C16.3491 1.56599 16.2877 1.65676 16.2104 1.73274C16.133 1.80871 16.0414 1.86836 15.9408 1.90818C15.8402 1.94799 15.7327 1.96717 15.6247 1.96457Z" fill="#AB2346"/>
<path d="M17.2659 4.43577H12.3207C12.2127 4.43836 12.1052 4.41918 12.0046 4.37937C11.904 4.33955 11.8124 4.2799 11.735 4.20393C11.6577 4.12795 11.5962 4.03719 11.5543 3.93696C11.5123 3.83674 11.4907 3.72909 11.4907 3.62034C11.4907 3.51159 11.5123 3.40394 11.5543 3.30372C11.5962 3.2035 11.6577 3.11273 11.735 3.03676C11.8124 2.96078 11.904 2.90113 12.0046 2.86132C12.1052 2.8215 12.2127 2.80233 12.3207 2.80492H17.2659C17.3739 2.80233 17.4814 2.8215 17.582 2.86132C17.6826 2.90113 17.7743 2.96078 17.8516 3.03676C17.9289 3.11273 17.9904 3.2035 18.0323 3.30372C18.0743 3.40394 18.0959 3.51159 18.0959 3.62034C18.0959 3.72909 18.0743 3.83674 18.0323 3.93696C17.9904 4.03719 17.9289 4.12795 17.8516 4.20393C17.7743 4.2799 17.6826 4.33955 17.582 4.37937C17.4814 4.41918 17.3739 4.43836 17.2659 4.43577Z" fill="#AB2346"/>
<path d="M18.8945 6.90696H12.3202C12.1086 6.90188 11.9073 6.81374 11.7595 6.66138C11.6116 6.50901 11.5288 6.30449 11.5288 6.09153C11.5288 5.87857 11.6116 5.67406 11.7595 5.52169C11.9073 5.36932 12.1086 5.28118 12.3202 5.27611H18.8945C19.0026 5.27352 19.1101 5.2927 19.2107 5.33251C19.3113 5.37232 19.4029 5.43197 19.4803 5.50795C19.5576 5.58392 19.619 5.67469 19.661 5.77491C19.7029 5.87513 19.7246 5.98278 19.7246 6.09153C19.7246 6.20028 19.7029 6.30793 19.661 6.40815C19.619 6.50838 19.5576 6.59914 19.4803 6.67512C19.4029 6.75109 19.3113 6.81075 19.2107 6.85056C19.1101 6.89037 19.0026 6.90955 18.8945 6.90696Z" fill="#AB2346"/>
<path d="M15.6247 11.8489H12.3197C12.2117 11.8514 12.1042 11.8323 12.0036 11.7925C11.903 11.7526 11.8114 11.693 11.7341 11.617C11.6567 11.541 11.5953 11.4503 11.5533 11.35C11.5113 11.2498 11.4897 11.1422 11.4897 11.0334C11.4897 10.9247 11.5113 10.817 11.5533 10.7168C11.5953 10.6166 11.6567 10.5258 11.7341 10.4498C11.8114 10.3739 11.903 10.3142 12.0036 10.2744C12.1042 10.2346 12.2117 10.2154 12.3197 10.218H15.6247C15.7327 10.2154 15.8402 10.2346 15.9408 10.2744C16.0414 10.3142 16.133 10.3739 16.2104 10.4498C16.2877 10.5258 16.3491 10.6166 16.3911 10.7168C16.433 10.817 16.4547 10.9247 16.4547 11.0334C16.4547 11.1422 16.433 11.2498 16.3911 11.35C16.3491 11.4503 16.2877 11.541 16.2104 11.617C16.133 11.693 16.0414 11.7526 15.9408 11.7925C15.8402 11.8323 15.7327 11.8514 15.6247 11.8489Z" fill="#AB2346"/>
<path d="M14.8047 14.3196H12.3188C12.2107 14.3221 12.1033 14.303 12.0027 14.2632C11.9021 14.2233 11.8104 14.1637 11.7331 14.0877C11.6558 14.0117 11.5943 13.921 11.5524 13.8208C11.5104 13.7205 11.4888 13.6129 11.4888 13.5041C11.4888 13.3954 11.5104 13.2877 11.5524 13.1875C11.5943 13.0873 11.6558 12.9965 11.7331 12.9205C11.8104 12.8446 11.9021 12.7849 12.0027 12.7451C12.1033 12.7053 12.2107 12.6861 12.3188 12.6887H14.8047C14.9128 12.6861 15.0203 12.7053 15.1208 12.7451C15.2214 12.7849 15.3131 12.8446 15.3904 12.9205C15.4677 12.9965 15.5292 13.0873 15.5712 13.1875C15.6131 13.2877 15.6347 13.3954 15.6347 13.5041C15.6347 13.6129 15.6131 13.7205 15.5712 13.8208C15.5292 13.921 15.4677 14.0117 15.3904 14.0877C15.3131 14.1637 15.2214 14.2233 15.1208 14.2632C15.0203 14.303 14.9128 14.3221 14.8047 14.3196Z" fill="#AB2346"/>
<path d="M9.89118 1.96457H8.22699C8.11893 1.96717 8.01144 1.94799 7.91086 1.90818C7.81028 1.86836 7.71862 1.80871 7.64129 1.73274C7.56395 1.65676 7.50252 1.56599 7.46056 1.46577C7.4186 1.36555 7.39697 1.2579 7.39697 1.14915C7.39697 1.0404 7.4186 0.932752 7.46056 0.83253C7.50252 0.732309 7.56395 0.641541 7.64129 0.565565C7.71862 0.48959 7.81028 0.429941 7.91086 0.390127C8.01144 0.350312 8.11893 0.331136 8.22699 0.333728H9.89118C9.99924 0.331136 10.1067 0.350312 10.2073 0.390127C10.3079 0.429941 10.3996 0.48959 10.4769 0.565565C10.5542 0.641541 10.6157 0.732309 10.6576 0.83253C10.6996 0.932752 10.7212 1.0404 10.7212 1.14915C10.7212 1.2579 10.6996 1.36555 10.6576 1.46577C10.6157 1.56599 10.5542 1.65676 10.4769 1.73274C10.3996 1.80871 10.3079 1.86836 10.2073 1.90818C10.1067 1.94799 9.99924 1.96717 9.89118 1.96457Z" fill="#82AEC9"/>
<path d="M9.89114 4.43577H6.60004C6.49198 4.43836 6.38452 4.41918 6.28393 4.37937C6.18335 4.33955 6.09169 4.2799 6.01436 4.20393C5.93703 4.12795 5.87556 4.03719 5.83361 3.93696C5.79165 3.83674 5.77002 3.72909 5.77002 3.62034C5.77002 3.51159 5.79165 3.40394 5.83361 3.30372C5.87556 3.2035 5.93703 3.11273 6.01436 3.03676C6.09169 2.96078 6.18335 2.90113 6.28393 2.86132C6.38452 2.8215 6.49198 2.80233 6.60004 2.80492H9.89114C9.99919 2.80233 10.1067 2.8215 10.2073 2.86132C10.3078 2.90113 10.3995 2.96078 10.4768 3.03676C10.5542 3.11273 10.6156 3.2035 10.6576 3.30372C10.6996 3.40394 10.7212 3.51159 10.7212 3.62034C10.7212 3.72909 10.6996 3.83674 10.6576 3.93696C10.6156 4.03719 10.5542 4.12795 10.4768 4.20393C10.3995 4.2799 10.3078 4.33955 10.2073 4.37937C10.1067 4.41918 9.99919 4.43836 9.89114 4.43577Z" fill="#82AEC9"/>
<path d="M9.89047 6.90696H4.97064C4.86259 6.90955 4.75509 6.89037 4.65451 6.85056C4.55393 6.81075 4.46227 6.75109 4.38494 6.67512C4.3076 6.59914 4.24614 6.50838 4.20418 6.40815C4.16223 6.30793 4.14062 6.20028 4.14062 6.09153C4.14062 5.98278 4.16223 5.87513 4.20418 5.77491C4.24614 5.67469 4.3076 5.58392 4.38494 5.50795C4.46227 5.43197 4.55393 5.37232 4.65451 5.33251C4.75509 5.2927 4.86259 5.27352 4.97064 5.27611H9.89047C9.99853 5.27352 10.106 5.2927 10.2066 5.33251C10.3072 5.37232 10.3988 5.43197 10.4762 5.50795C10.5535 5.58392 10.615 5.67469 10.6569 5.77491C10.6989 5.87513 10.7205 5.98278 10.7205 6.09153C10.7205 6.20028 10.6989 6.30793 10.6569 6.40815C10.615 6.50838 10.5535 6.59914 10.4762 6.67512C10.3988 6.75109 10.3072 6.81075 10.2066 6.85056C10.106 6.89037 9.99853 6.90955 9.89047 6.90696Z" fill="#82AEC9"/>
<path d="M9.89122 9.37766H3.32465C3.21659 9.38025 3.10913 9.36107 3.00854 9.32126C2.90796 9.28145 2.8163 9.2218 2.73897 9.14582C2.66164 9.06985 2.60017 8.97908 2.55821 8.87886C2.51626 8.77864 2.49463 8.67098 2.49463 8.56224C2.49463 8.45349 2.51626 8.34584 2.55821 8.24561C2.60017 8.14539 2.66164 8.05463 2.73897 7.97865C2.8163 7.90267 2.90796 7.84302 3.00854 7.80321C3.10913 7.76339 3.21659 7.74422 3.32465 7.74681H9.89122C9.99928 7.74422 10.1067 7.76339 10.2073 7.80321C10.3079 7.84302 10.3996 7.90267 10.4769 7.97865C10.5542 8.05463 10.6157 8.14539 10.6577 8.24561C10.6996 8.34584 10.7212 8.45349 10.7212 8.56224C10.7212 8.67098 10.6996 8.77864 10.6577 8.87886C10.6157 8.97908 10.5542 9.06985 10.4769 9.14582C10.3996 9.2218 10.3079 9.28145 10.2073 9.32126C10.1067 9.36107 9.99928 9.38025 9.89122 9.37766Z" fill="#82AEC9"/>
<path d="M20.5354 9.37766H12.3207C12.2127 9.38025 12.1052 9.36107 12.0046 9.32126C11.904 9.28145 11.8124 9.2218 11.735 9.14582C11.6577 9.06985 11.5962 8.97908 11.5543 8.87886C11.5123 8.77864 11.4907 8.67098 11.4907 8.56224C11.4907 8.45349 11.5123 8.34584 11.5543 8.24561C11.5962 8.14539 11.6577 8.05463 11.735 7.97865C11.8124 7.90267 11.904 7.84302 12.0046 7.80321C12.1052 7.76339 12.2127 7.74422 12.3207 7.74681H20.5354C20.6434 7.74422 20.7509 7.76339 20.8515 7.80321C20.9521 7.84302 21.0437 7.90267 21.1211 7.97865C21.1984 8.05463 21.2599 8.14539 21.3018 8.24561C21.3438 8.34584 21.3654 8.45349 21.3654 8.56224C21.3654 8.67098 21.3438 8.77864 21.3018 8.87886C21.2599 8.97908 21.1984 9.06985 21.1211 9.14582C21.0437 9.2218 20.9521 9.28145 20.8515 9.32126C20.7509 9.36107 20.6434 9.38025 20.5354 9.37766Z" fill="#82AEC9"/>
<path d="M9.89112 11.8489H4.96527C4.85721 11.8514 4.74975 11.8323 4.64917 11.7925C4.54858 11.7526 4.45693 11.693 4.37959 11.617C4.30226 11.541 4.2408 11.4503 4.19884 11.35C4.15688 11.2498 4.13525 11.1422 4.13525 11.0334C4.13525 10.9247 4.15688 10.817 4.19884 10.7168C4.2408 10.6166 4.30226 10.5258 4.37959 10.4498C4.45693 10.3739 4.54858 10.3142 4.64917 10.2744C4.74975 10.2346 4.85721 10.2154 4.96527 10.218H9.89112C9.99917 10.2154 10.1067 10.2346 10.2072 10.2744C10.3078 10.3142 10.3995 10.3739 10.4768 10.4498C10.5541 10.5258 10.6156 10.6166 10.6575 10.7168C10.6995 10.817 10.7211 10.9247 10.7211 11.0334C10.7211 11.1422 10.6995 11.2498 10.6575 11.35C10.6156 11.4503 10.5541 11.541 10.4768 11.617C10.3995 11.693 10.3078 11.7526 10.2072 11.7925C10.1067 11.8323 9.99917 11.8514 9.89112 11.8489Z" fill="#82AEC9"/>
<path d="M20.5353 11.8489H18.0526C17.841 11.8438 17.6398 11.7556 17.4919 11.6033C17.344 11.4509 17.2612 11.2464 17.2612 11.0334C17.2612 10.8205 17.344 10.616 17.4919 10.4636C17.6398 10.3112 17.841 10.2231 18.0526 10.218H20.5353C20.6434 10.2154 20.7509 10.2346 20.8515 10.2744C20.952 10.3142 21.0437 10.3739 21.121 10.4498C21.1984 10.5258 21.2598 10.6166 21.3018 10.7168C21.3437 10.817 21.3653 10.9247 21.3653 11.0334C21.3653 11.1422 21.3437 11.2498 21.3018 11.35C21.2598 11.4503 21.1984 11.541 21.121 11.617C21.0437 11.693 20.952 11.7526 20.8515 11.7925C20.7509 11.8323 20.6434 11.8514 20.5353 11.8489Z" fill="#82AEC9"/>
<path d="M9.8903 14.3196H6.59369C6.48563 14.3221 6.37814 14.303 6.27756 14.2632C6.17697 14.2233 6.08532 14.1637 6.00798 14.0877C5.93065 14.0117 5.86919 13.921 5.82723 13.8208C5.78527 13.7205 5.76367 13.6129 5.76367 13.5041C5.76367 13.3954 5.78527 13.2877 5.82723 13.1875C5.86919 13.0873 5.93065 12.9965 6.00798 12.9205C6.08532 12.8446 6.17697 12.7849 6.27756 12.7451C6.37814 12.7053 6.48563 12.6861 6.59369 12.6887H9.8903C9.99835 12.6861 10.1058 12.7053 10.2064 12.7451C10.307 12.7849 10.3987 12.8446 10.476 12.9205C10.5533 12.9965 10.6148 13.0873 10.6568 13.1875C10.6987 13.2877 10.7203 13.3954 10.7203 13.5041C10.7203 13.6129 10.6987 13.7205 10.6568 13.8208C10.6148 13.921 10.5533 14.0117 10.476 14.0877C10.3987 14.1637 10.307 14.2233 10.2064 14.2632C10.1058 14.303 9.99835 14.3221 9.8903 14.3196Z" fill="#82AEC9"/>
<path d="M20.6876 14.3196H17.246C17.0344 14.3145 16.8331 14.2263 16.6852 14.074C16.5374 13.9216 16.4546 13.7171 16.4546 13.5041C16.4546 13.2912 16.5374 13.0867 16.6852 12.9343C16.8331 12.7819 17.0344 12.6938 17.246 12.6887H20.6876C20.7957 12.6861 20.9031 12.7053 21.0037 12.7451C21.1043 12.7849 21.196 12.8446 21.2733 12.9205C21.3506 12.9965 21.4121 13.0873 21.4541 13.1875C21.496 13.2877 21.5176 13.3954 21.5176 13.5041C21.5176 13.6129 21.496 13.7205 21.4541 13.8208C21.4121 13.921 21.3506 14.0117 21.2733 14.0877C21.196 14.1637 21.1043 14.2233 21.0037 14.2632C20.9031 14.303 20.7957 14.3221 20.6876 14.3196Z" fill="#82AEC9"/>
<path d="M9.89118 16.7907H8.22699C8.11893 16.7933 8.01144 16.7742 7.91086 16.7343C7.81028 16.6945 7.71862 16.6349 7.64129 16.5589C7.56395 16.4829 7.50252 16.3922 7.46056 16.2919C7.4186 16.1917 7.39697 16.0841 7.39697 15.9753C7.39697 15.8666 7.4186 15.7589 7.46056 15.6587C7.50252 15.5585 7.56395 15.4677 7.64129 15.3917C7.71862 15.3158 7.81028 15.2561 7.91086 15.2163C8.01144 15.1765 8.11893 15.1573 8.22699 15.1599H9.89118C9.99924 15.1573 10.1067 15.1765 10.2073 15.2163C10.3079 15.2561 10.3996 15.3158 10.4769 15.3917C10.5542 15.4677 10.6157 15.5585 10.6576 15.6587C10.6996 15.7589 10.7212 15.8666 10.7212 15.9753C10.7212 16.0841 10.6996 16.1917 10.6576 16.2919C10.6157 16.3922 10.5542 16.4829 10.4769 16.5589C10.3996 16.6349 10.3079 16.6945 10.2073 16.7343C10.1067 16.7742 9.99924 16.7933 9.89118 16.7907Z" fill="#82AEC9"/>
<path d="M15.6247 16.7907H12.3197C12.2117 16.7933 12.1042 16.7742 12.0036 16.7343C11.903 16.6945 11.8114 16.6349 11.7341 16.5589C11.6567 16.4829 11.5953 16.3922 11.5533 16.2919C11.5113 16.1917 11.4897 16.0841 11.4897 15.9753C11.4897 15.8666 11.5113 15.7589 11.5533 15.6587C11.5953 15.5585 11.6567 15.4677 11.7341 15.3917C11.8114 15.3158 11.903 15.2561 12.0036 15.2163C12.1042 15.1765 12.2117 15.1573 12.3197 15.1599H15.6247C15.7327 15.1573 15.8402 15.1765 15.9408 15.2163C16.0414 15.2561 16.133 15.3158 16.2104 15.3917C16.2877 15.4677 16.3491 15.5585 16.3911 15.6587C16.433 15.7589 16.4547 15.8666 16.4547 15.9753C16.4547 16.0841 16.433 16.1917 16.3911 16.2919C16.3491 16.3922 16.2877 16.4829 16.2104 16.5589C16.133 16.6349 16.0414 16.6945 15.9408 16.7343C15.8402 16.7742 15.7327 16.7933 15.6247 16.7907Z" fill="#82AEC9"/>
<path d="M6.63144 1.77141C6.63144 1.89462 6.59512 2.01507 6.52709 2.11752C6.45905 2.21996 6.36234 2.29981 6.2492 2.34696C6.13606 2.39411 6.01156 2.40645 5.89145 2.38241C5.77134 2.35838 5.66102 2.29904 5.57442 2.21192C5.48783 2.12479 5.42886 2.01379 5.40496 1.89295C5.38107 1.7721 5.39333 1.64684 5.4402 1.53301C5.48706 1.41918 5.56642 1.32188 5.66824 1.25343C5.77007 1.18497 5.88978 1.14844 6.01225 1.14844C6.17646 1.14844 6.33395 1.21407 6.45007 1.3309C6.56619 1.44773 6.63144 1.60619 6.63144 1.77141Z" fill="#1D365A"/>
<path d="M6.60752 15.7631C6.60752 15.8863 6.5712 16.0068 6.50316 16.1092C6.43513 16.2117 6.33841 16.2915 6.22527 16.3387C6.11213 16.3858 5.98764 16.3981 5.86753 16.3741C5.74742 16.3501 5.63709 16.2907 5.5505 16.2036C5.4639 16.1165 5.40493 16.0055 5.38104 15.8846C5.35715 15.7638 5.36941 15.6385 5.41627 15.5247C5.46314 15.4109 5.54252 15.3136 5.64435 15.2451C5.74617 15.1767 5.86586 15.1401 5.98832 15.1401C6.15254 15.1401 6.31005 15.2058 6.42617 15.3226C6.54229 15.4394 6.60752 15.5979 6.60752 15.7631Z" fill="#1D365A"/>
<path d="M4.55785 4.43577H3.73933C3.63182 4.43577 3.52872 4.39281 3.4527 4.31632C3.37668 4.23984 3.33398 4.13611 3.33398 4.02795C3.33398 3.91978 3.37668 3.81605 3.4527 3.73957C3.52872 3.66308 3.63182 3.62012 3.73933 3.62012H4.55785C4.66536 3.62012 4.76846 3.66308 4.84448 3.73957C4.9205 3.81605 4.96319 3.91978 4.96319 4.02795C4.96319 4.13611 4.9205 4.23984 4.84448 4.31632C4.76846 4.39281 4.66536 4.43577 4.55785 4.43577Z" fill="#1D365A"/>
<path d="M2.91799 6.90696H1.28327C1.17577 6.90696 1.07266 6.864 0.996644 6.78752C0.920627 6.71103 0.87793 6.6073 0.87793 6.49914C0.87793 6.39097 0.920627 6.28724 0.996644 6.21076C1.07266 6.13428 1.17577 6.09131 1.28327 6.09131H2.91799C3.02549 6.09131 3.1286 6.13428 3.20462 6.21076C3.28064 6.28724 3.32336 6.39097 3.32336 6.49914C3.32336 6.6073 3.28064 6.71103 3.20462 6.78752C3.1286 6.864 3.02549 6.90696 2.91799 6.90696Z" fill="#1D365A"/>
<path d="M2.9288 11.0154H0.473702C0.366198 11.0154 0.263119 10.9724 0.187102 10.8959C0.111085 10.8194 0.0683594 10.7157 0.0683594 10.6075C0.0683594 10.4994 0.111085 10.3956 0.187102 10.3192C0.263119 10.2427 0.366198 10.1997 0.473702 10.1997H2.9288C3.0363 10.1997 3.13941 10.2427 3.21543 10.3192C3.29144 10.3956 3.33414 10.4994 3.33414 10.6075C3.33414 10.7157 3.29144 10.8194 3.21543 10.8959C3.13941 10.9724 3.0363 11.0154 2.9288 11.0154Z" fill="#1D365A"/>
<path d="M4.56153 13.4787H3.73933C3.63182 13.4787 3.52872 13.4358 3.4527 13.3593C3.37668 13.2828 3.33398 13.1791 3.33398 13.0709C3.33398 12.9628 3.37668 12.859 3.4527 12.7825C3.52872 12.7061 3.63182 12.6631 3.73933 12.6631H4.56153C4.66904 12.6631 4.77214 12.7061 4.84816 12.7825C4.92418 12.859 4.96688 12.9628 4.96688 13.0709C4.96688 13.1791 4.92418 13.2828 4.84816 13.3593C4.77214 13.4358 4.66904 13.4787 4.56153 13.4787Z" fill="#1D365A"/>
<path d="M30.0032 8.02233C30.2232 8.29779 30.3414 8.64161 30.3374 8.995C30.3436 9.30299 30.2595 9.606 30.0957 9.86624C29.9237 10.1259 29.6809 10.3302 29.3964 10.4545C29.0555 10.6033 28.6865 10.6757 28.315 10.6666H25.668V4.492H28.1999C28.5692 4.48295 28.9363 4.55223 29.2772 4.69533C29.5561 4.81229 29.7947 5.00931 29.9631 5.2618C30.1195 5.50714 30.2005 5.79343 30.1961 6.08486C30.2074 6.40991 30.1065 6.72888 29.9106 6.98759C29.7152 7.23278 29.4497 7.41187 29.1501 7.50079C29.4891 7.56156 29.7934 7.74756 30.0032 8.02233ZM26.8985 7.0404H28.0246C28.2664 7.05623 28.506 6.9857 28.7013 6.84123C28.7817 6.77079 28.8449 6.6827 28.8861 6.58376C28.9273 6.48481 28.9453 6.37767 28.9388 6.2706C28.945 6.16288 28.9269 6.05514 28.8858 5.9555C28.8446 5.85585 28.7815 5.76689 28.7013 5.69533C28.5073 5.54789 28.2671 5.47555 28.0246 5.49153H26.8985V7.0404ZM28.8375 9.44892C28.9222 9.37445 28.9888 9.28146 29.0322 9.17709C29.0756 9.07271 29.0947 8.95973 29.088 8.84679C29.0939 8.72948 29.0732 8.61235 29.0275 8.50427C28.9818 8.39618 28.9123 8.29997 28.8242 8.22289C28.6216 8.06368 28.3687 7.98356 28.112 7.99732H26.8985V9.66059H28.1387C28.3895 9.67601 28.6375 9.60078 28.838 9.44845" fill="#AB2346"/>
<path d="M33.1621 5.917C33.429 5.76641 33.7309 5.69 34.0368 5.6956V6.99759H33.7113C33.547 6.97083 33.3787 6.98467 33.2208 7.0379C33.063 7.09114 32.9204 7.18218 32.8053 7.30318C32.6902 7.42419 32.606 7.57153 32.5601 7.73252C32.5142 7.8935 32.5078 8.06332 32.5416 8.22732V10.6692H31.311V5.76647H32.5402V6.52746C32.6921 6.27439 32.9055 6.06432 33.1603 5.917" fill="#AB2346"/>
<path d="M35.8561 10.4335C35.4838 10.2271 35.1773 9.91876 34.9722 9.54418C34.7519 9.13756 34.6409 8.68018 34.65 8.21718C34.6405 7.75306 34.7543 7.29481 34.9796 6.88971C35.1913 6.51415 35.5036 6.20601 35.881 6.00041C36.2748 5.79419 36.7122 5.68652 37.1562 5.68652C37.6001 5.68652 38.0375 5.79419 38.4313 6.00041C38.8087 6.20605 39.121 6.51418 39.3327 6.88971C39.5582 7.29475 39.6722 7.75302 39.6628 8.21718C39.6722 8.68226 39.5552 9.14109 39.3244 9.54418C39.1067 9.91965 38.7901 10.2274 38.4097 10.4335C38.0133 10.646 37.5698 10.754 37.1207 10.7475C36.6787 10.7544 36.2425 10.6462 35.8543 10.4335M37.7496 9.50434C37.9506 9.3903 38.1141 9.21965 38.22 9.01338C38.3437 8.76686 38.4041 8.49317 38.3959 8.21718C38.4087 8.02264 38.383 7.8275 38.3204 7.64299C38.2578 7.45848 38.1596 7.28826 38.0313 7.14214C37.9166 7.02065 37.7779 6.92452 37.6243 6.85985C37.4706 6.79518 37.3052 6.76339 37.1387 6.7665C36.9733 6.76287 36.8091 6.79446 36.6568 6.85919C36.5044 6.92393 36.3675 7.02036 36.2548 7.14214C36.0008 7.43976 35.8728 7.82572 35.8985 8.21718C35.8728 8.60714 35.9972 8.9921 36.246 9.29221C36.3564 9.41438 36.4917 9.51121 36.6426 9.57611C36.7936 9.641 36.9566 9.67245 37.1207 9.66831C37.3408 9.66902 37.5574 9.61225 37.7496 9.50434Z" fill="#AB2346"/>
<path d="M40.595 6.88157C40.7743 6.51714 41.0517 6.21064 41.3955 5.9969C41.7361 5.78947 42.1276 5.68213 42.5257 5.68704C42.8572 5.67947 43.1853 5.75559 43.4801 5.90844C43.7369 6.04225 43.9607 6.23215 44.1351 6.46425V5.76671H45.3754V10.6694H44.1351V9.95197C43.9653 10.1922 43.7407 10.3879 43.4801 10.5226C43.1828 10.6776 42.8517 10.7552 42.517 10.7482C42.1205 10.7521 41.7313 10.6415 41.3955 10.4295C41.0517 10.2099 40.7747 9.89911 40.595 9.53141C40.3923 9.11762 40.2913 8.66097 40.3004 8.19977C40.2916 7.74276 40.3927 7.29085 40.595 6.88157ZM43.9588 7.44294C43.8497 7.23635 43.6851 7.06478 43.4837 6.94781C43.2887 6.83381 43.067 6.77418 42.8415 6.77504C42.615 6.77255 42.3922 6.8327 42.1974 6.94893C42.0025 7.06516 41.8432 7.233 41.7367 7.43414C41.6117 7.66933 41.5495 7.93315 41.5562 8.19977C41.5501 8.46914 41.6122 8.73563 41.7367 8.97421C41.846 9.18437 42.0103 9.36053 42.2118 9.4837C42.4012 9.59977 42.6188 9.661 42.8406 9.66063C43.0661 9.66157 43.2877 9.6021 43.4828 9.48833C43.6841 9.37111 43.8487 9.19941 43.9579 8.99273C44.0736 8.75124 44.1336 8.48661 44.1336 8.21853C44.1336 7.95045 44.0736 7.68583 43.9579 7.44433" fill="#AB2346"/>
<path d="M46.5208 6.88065C46.6983 6.51718 46.9748 6.21194 47.3181 6.00046C47.6614 5.78898 48.0574 5.67997 48.4598 5.68612C48.7736 5.68552 49.0834 5.75663 49.3658 5.89409C49.6361 6.01898 49.8717 6.20891 50.0517 6.44712V4.12012H51.3007V10.6676H50.0517V9.94225C49.8926 10.1904 49.6713 10.3918 49.41 10.5263C49.1136 10.6788 48.7843 10.7549 48.4516 10.7477C48.0539 10.7513 47.6634 10.6408 47.326 10.4291C46.9803 10.2104 46.7017 9.89951 46.5213 9.53095C46.3186 9.11718 46.2176 8.66052 46.2266 8.19932C46.2179 7.7423 46.3189 7.28992 46.5213 6.88065M49.8851 7.44249C49.7761 7.23596 49.6117 7.06439 49.4105 6.94735C49.2156 6.83344 48.9941 6.77381 48.7687 6.77459C48.5422 6.77209 48.3194 6.83225 48.1246 6.94848C47.9297 7.06471 47.7704 7.23255 47.6639 7.43369C47.5389 7.66888 47.4767 7.93269 47.4834 8.19932C47.4773 8.46868 47.5394 8.73517 47.6639 8.97375C47.7732 9.18392 47.9375 9.36008 48.139 9.48325C48.3284 9.59934 48.546 9.66057 48.7678 9.66018C48.9931 9.66103 49.2146 9.60157 49.4096 9.48788C49.6107 9.37059 49.7752 9.19889 49.8842 8.99228C50 8.75082 50.0601 8.48618 50.0601 8.21808C50.0601 7.94998 50 7.68533 49.8842 7.44388" fill="#AB2346"/>
<path d="M53.2495 10.5294C52.9532 10.4006 52.6945 10.198 52.4977 9.94067C52.3169 9.70326 52.2112 9.41666 52.1943 9.11806H53.4345C53.4459 9.21116 53.4763 9.30088 53.5238 9.38156C53.5714 9.46223 53.635 9.53212 53.7108 9.5868C53.8851 9.71476 54.0972 9.78001 54.3129 9.77207C54.5063 9.78335 54.6984 9.73381 54.8626 9.63034C54.9233 9.59162 54.9733 9.53805 55.0079 9.47464C55.0426 9.41122 55.0606 9.34002 55.0605 9.26767C55.061 9.19034 55.0381 9.11469 54.995 9.05069C54.9518 8.98669 54.8904 8.93735 54.8188 8.90917C54.5705 8.79921 54.3129 8.71179 54.0491 8.64794C53.7454 8.57815 53.4471 8.48651 53.1565 8.37374C52.9252 8.27972 52.72 8.13101 52.558 7.9402C52.3816 7.71741 52.2925 7.43726 52.3076 7.1528C52.3063 6.88735 52.3878 6.62818 52.5405 6.41172C52.7102 6.17591 52.9416 5.99215 53.209 5.88092C53.5331 5.74426 53.8823 5.67782 54.2337 5.68592C54.7341 5.65987 55.2271 5.81535 55.6231 6.12408C55.795 6.26991 55.9347 6.45034 56.0332 6.65375C56.1317 6.85717 56.1868 7.07907 56.1949 7.30519H55.0163C55.0106 7.21525 54.9861 7.12753 54.9445 7.04773C54.9028 6.96793 54.845 6.89784 54.7746 6.84201C54.6129 6.73861 54.427 6.6799 54.2355 6.67177C54.0441 6.66364 53.8539 6.70638 53.684 6.79569C53.6269 6.83262 53.5803 6.88383 53.5487 6.94431C53.5172 7.0048 53.5018 7.07249 53.504 7.14076C53.5035 7.22098 53.5267 7.29955 53.5705 7.36657C53.6144 7.43358 53.6769 7.48604 53.7504 7.51732C53.9956 7.63106 54.252 7.71847 54.5155 7.77809C54.8117 7.84893 55.1026 7.94071 55.386 8.05276C55.6161 8.14817 55.8197 8.29837 55.9794 8.49046C56.155 8.71259 56.2469 8.98999 56.239 9.27369C56.2423 9.54562 56.1609 9.81175 56.0061 10.0347C55.8369 10.2699 55.6052 10.4525 55.3377 10.5613C55.0157 10.6942 54.67 10.7588 54.3221 10.7512C53.9531 10.7573 53.5871 10.6834 53.249 10.5345" fill="#AB2346"/>
<path d="M59.118 5.91245C59.4124 5.75808 59.7405 5.68052 60.0724 5.68689C60.4704 5.68186 60.8619 5.78904 61.2025 5.99629C61.5454 6.20919 61.8226 6.51391 62.0031 6.87632C62.2062 7.28679 62.3073 7.74073 62.2977 8.19916C62.3067 8.66035 62.2056 9.11698 62.0031 9.53079C61.8232 9.89839 61.5462 10.2091 61.2025 10.4289C60.8639 10.6417 60.4716 10.7523 60.0724 10.7476C59.7439 10.7544 59.4189 10.6783 59.1272 10.5262C58.8688 10.3911 58.6424 10.2015 58.4634 9.97035V13.0051H57.2319V5.76655H58.4634V6.47429C58.6353 6.23827 58.8592 6.04588 59.118 5.91245ZM60.8596 7.43399C60.7497 7.22916 60.5854 7.05915 60.3849 6.94302C60.1908 6.83153 59.9709 6.77353 59.7474 6.77489C59.5261 6.77437 59.3088 6.83406 59.1185 6.94765C58.9177 7.06727 58.7535 7.24017 58.6439 7.44742C58.5253 7.6865 58.4636 7.95003 58.4636 8.21722C58.4636 8.48442 58.5253 8.74795 58.6439 8.98702C58.7536 9.19423 58.9177 9.36712 59.1185 9.48679C59.3106 9.60029 59.5296 9.65974 59.7524 9.65893C59.9752 9.65811 60.1936 9.59706 60.3849 9.48216C60.5853 9.35997 60.7493 9.18574 60.8596 8.97776C60.9849 8.73803 61.0471 8.46995 61.04 8.19916C61.0468 7.93253 60.9846 7.66916 60.8596 7.43399Z" fill="#AB2346"/>
<path d="M67.6703 8.58825H64.1085C64.119 8.90375 64.251 9.20276 64.4768 9.42197C64.6945 9.6231 64.9814 9.73107 65.2769 9.72304C65.4801 9.7352 65.6823 9.68499 65.8565 9.57904C66.0308 9.47309 66.169 9.31641 66.2528 9.12971H67.581C67.4445 9.59594 67.1605 10.0046 66.7721 10.2937C66.3468 10.606 65.8299 10.7662 65.3036 10.749C64.863 10.7561 64.4282 10.6479 64.0417 10.4349C63.6726 10.2289 63.3704 9.9201 63.1712 9.54564C62.957 9.13708 62.8496 8.68044 62.8591 8.21864C62.8489 7.7543 62.9548 7.29482 63.167 6.88237C63.3623 6.50918 63.6619 6.20165 64.0288 5.99771C64.4181 5.79568 64.8495 5.68954 65.2876 5.68801C65.7256 5.68648 66.1577 5.7896 66.5484 5.9889C66.9092 6.18397 67.2056 6.48061 67.4014 6.84254C67.6089 7.23279 67.7134 7.67009 67.7048 8.11257C67.706 8.27244 67.6943 8.43214 67.6698 8.59011M66.4296 7.75639C66.4322 7.61127 66.4028 7.46738 66.3435 7.33508C66.2842 7.20277 66.1965 7.08533 66.0867 6.99122C65.8585 6.79754 65.5675 6.69514 65.2691 6.70359C64.9868 6.69493 64.7117 6.79424 64.4993 6.9815C64.2825 7.18407 64.1465 7.45924 64.1168 7.75546L66.4296 7.75639Z" fill="#AB2346"/>
<path d="M68.7272 6.88559C68.9224 6.5153 69.2182 6.20848 69.5802 6.00092C69.9616 5.7869 70.3926 5.67853 70.8292 5.68689C71.3654 5.66588 71.8932 5.82635 72.3281 6.14265C72.7339 6.46195 73.0156 6.91432 73.124 7.42102H71.7959C71.7337 7.22019 71.6087 7.04492 71.4396 6.92125C71.257 6.79564 71.0392 6.73217 70.8181 6.74015C70.6586 6.73356 70.4998 6.76498 70.3547 6.83187C70.2096 6.89876 70.0822 6.99922 69.983 7.12505C69.7817 7.45198 69.6751 7.82893 69.6751 8.21352C69.6751 8.5981 69.7817 8.97506 69.983 9.30198C70.0822 9.42782 70.2096 9.52827 70.3547 9.59516C70.4998 9.66205 70.6586 9.69348 70.8181 9.68688C71.033 9.70543 71.2476 9.64857 71.4255 9.52598C71.6034 9.40338 71.7336 9.22261 71.7941 9.01435H73.1222C73.0063 9.51554 72.7239 9.96193 72.3216 10.2798C71.891 10.6028 71.3636 10.7682 70.8269 10.7485C70.3902 10.7569 69.9593 10.6485 69.5779 10.4345C69.216 10.2268 68.9202 9.92002 68.7249 9.54979C68.5223 9.13546 68.417 8.67988 68.417 8.21815C68.417 7.75642 68.5223 7.30085 68.7249 6.88652" fill="#AB2346"/>
<path d="M75.5467 6.78393V9.1554C75.5407 9.22018 75.5482 9.2855 75.5686 9.34723C75.589 9.40895 75.622 9.46571 75.6655 9.5139C75.7809 9.59872 75.9233 9.63795 76.0655 9.62413H76.6373V10.6681H75.8634C74.8258 10.6681 74.307 10.161 74.307 9.1466V6.7844H73.7246V5.76541H74.3051V4.5542H75.5449V5.76634H76.6355V6.78532L75.5467 6.78393Z" fill="#AB2346"/>
<path d="M79.4975 5.917C79.7644 5.76639 80.0663 5.68998 80.3722 5.6956V6.99759H80.0467C79.8824 6.97072 79.714 6.98448 79.5561 7.03767C79.3982 7.09087 79.2556 7.18191 79.1404 7.30294C79.0253 7.42397 78.9411 7.57136 78.8953 7.7324C78.8494 7.89345 78.8431 8.0633 78.877 8.22733V10.6692H77.6455V5.76647H78.877V6.52747C79.0288 6.27433 79.2427 6.06424 79.4975 5.917Z" fill="#AB2346"/>
<path d="M85.8217 5.7666V10.6684H84.5815V10.0491C84.4193 10.2648 84.2064 10.4366 83.9618 10.5489C83.7017 10.6708 83.4178 10.7326 83.1309 10.73C82.7782 10.7374 82.4295 10.6537 82.1181 10.4868C81.8225 10.3221 81.5821 10.0727 81.4276 9.7703C81.2527 9.42095 81.1667 9.03346 81.1771 8.64247V5.7666H82.4086V8.46553C82.387 8.79112 82.4909 9.11256 82.6986 9.36317C82.8005 9.4694 82.9239 9.55241 83.0604 9.60658C83.1969 9.66075 83.3434 9.68484 83.49 9.67721C83.6379 9.68542 83.7858 9.66164 83.9238 9.60747C84.0619 9.5533 84.1868 9.46999 84.2901 9.36317C84.4978 9.11258 84.6017 8.79113 84.5801 8.46553V5.7666H85.8217Z" fill="#AB2346"/>
<path d="M94.6044 6.2487C94.7949 6.4554 94.9418 6.6988 95.0363 6.96421C95.1308 7.22961 95.1708 7.51152 95.154 7.79293V10.6683H93.9231V7.9606C93.9447 7.64028 93.8403 7.32423 93.6325 7.08056C93.5292 6.9768 93.4054 6.89602 93.269 6.84344C93.1327 6.79087 92.987 6.76766 92.8412 6.77533C92.6947 6.76798 92.5484 6.79132 92.4114 6.84386C92.2744 6.8964 92.1496 6.97701 92.0452 7.08056C91.941 7.20057 91.8614 7.34006 91.8108 7.49107C91.7603 7.64208 91.7398 7.80163 91.7506 7.9606V10.6683H90.5196V7.9606C90.5411 7.64037 90.437 7.32443 90.2296 7.08056C90.1262 6.97683 90.0024 6.89606 89.8661 6.84349C89.7298 6.79091 89.584 6.76769 89.4382 6.77533C89.2904 6.76737 89.1426 6.79039 89.004 6.84294C88.8655 6.89548 88.7394 6.9764 88.6335 7.08056C88.5294 7.20059 88.4498 7.3401 88.3992 7.49109C88.3486 7.64209 88.3282 7.80163 88.3389 7.9606V10.6683H87.1074V5.76653H88.3389V6.3594C88.5008 6.15012 88.7105 5.98327 88.9503 5.87306C89.2078 5.75323 89.4887 5.69279 89.7725 5.69613C90.1274 5.68987 90.4782 5.77349 90.7926 5.9393C91.087 6.09708 91.3287 6.33875 91.4873 6.63406C91.65 6.34688 91.8892 6.11108 92.1778 5.95319C92.5629 5.74316 93.0034 5.65886 93.4383 5.71198C93.8732 5.76509 94.2808 5.95299 94.6048 6.24962" fill="#AB2346"/>
</svg>
