<svg width="93" height="17" viewBox="0 0 93 17" fill="none" xmlns="http://www.w3.org/2000/svg">
<path d="M15.8913 1.85114H12.7163C12.6125 1.85363 12.5093 1.83521 12.4126 1.79695C12.316 1.75869 12.2279 1.70136 12.1537 1.62835C12.0794 1.55534 12.0203 1.46811 11.98 1.3718C11.9397 1.27549 11.9189 1.17204 11.9189 1.06753C11.9189 0.963023 11.9397 0.859571 11.98 0.763259C12.0203 0.666948 12.0794 0.57972 12.1537 0.506708C12.2279 0.433696 12.316 0.376374 12.4126 0.338113C12.5093 0.299852 12.6125 0.281424 12.7163 0.283914H15.8913C15.9951 0.281424 16.0984 0.299852 16.195 0.338113C16.2916 0.376374 16.3797 0.433696 16.454 0.506708C16.5283 0.57972 16.5873 0.666948 16.6276 0.763259C16.6679 0.859571 16.6887 0.963023 16.6887 1.06753C16.6887 1.17204 16.6679 1.27549 16.6276 1.3718C16.5873 1.46811 16.5283 1.55534 16.454 1.62835C16.3797 1.70136 16.2916 1.75869 16.195 1.79695C16.0984 1.83521 15.9951 1.85363 15.8913 1.85114Z" fill="#AB2346"/>
<path d="M17.4681 4.22566H12.7173C12.6135 4.22815 12.5102 4.20972 12.4136 4.17146C12.317 4.1332 12.2289 4.07588 12.1546 4.00286C12.0803 3.92985 12.0213 3.84262 11.981 3.74631C11.9407 3.65 11.9199 3.54655 11.9199 3.44204C11.9199 3.33753 11.9407 3.23408 11.981 3.13777C12.0213 3.04146 12.0803 2.95423 12.1546 2.88122C12.2289 2.80821 12.317 2.75089 12.4136 2.71262C12.5102 2.67436 12.6135 2.65594 12.7173 2.65843H17.4681C17.5719 2.65594 17.6751 2.67436 17.7718 2.71262C17.8684 2.75089 17.9564 2.80821 18.0307 2.88122C18.105 2.95423 18.164 3.04146 18.2044 3.13777C18.2447 3.23408 18.2654 3.33753 18.2654 3.44204C18.2654 3.54655 18.2447 3.65 18.2044 3.74631C18.164 3.84262 18.105 3.92985 18.0307 4.00286C17.9564 4.07588 17.8684 4.1332 17.7718 4.17146C17.6751 4.20972 17.5719 4.22815 17.4681 4.22566Z" fill="#AB2346"/>
<path d="M19.0332 6.60065H12.7173C12.514 6.59578 12.3207 6.51108 12.1786 6.36466C12.0366 6.21823 11.957 6.02169 11.957 5.81704C11.957 5.61239 12.0366 5.41585 12.1786 5.26943C12.3207 5.123 12.514 5.0383 12.7173 5.03343H19.0332C19.137 5.03094 19.2403 5.04936 19.3369 5.08762C19.4335 5.12589 19.5216 5.18321 19.5959 5.25622C19.6702 5.32923 19.7292 5.41646 19.7695 5.51277C19.8098 5.60908 19.8306 5.71253 19.8306 5.81704C19.8306 5.92155 19.8098 6.025 19.7695 6.12131C19.7292 6.21762 19.6702 6.30485 19.5959 6.37786C19.5216 6.45087 19.4335 6.5082 19.3369 6.54646C19.2403 6.58472 19.137 6.60314 19.0332 6.60065Z" fill="#AB2346"/>
<path d="M15.8913 11.3497H12.7163C12.6125 11.3522 12.5093 11.3337 12.4126 11.2955C12.316 11.2572 12.2279 11.1999 12.1537 11.1269C12.0794 11.0539 12.0203 10.9666 11.98 10.8703C11.9397 10.774 11.9189 10.6706 11.9189 10.5661C11.9189 10.4616 11.9397 10.3581 11.98 10.2618C12.0203 10.1655 12.0794 10.0783 12.1537 10.0052C12.2279 9.93223 12.316 9.87491 12.4126 9.83665C12.5093 9.79839 12.6125 9.77996 12.7163 9.78245H15.8913C15.9951 9.77996 16.0984 9.79839 16.195 9.83665C16.2916 9.87491 16.3797 9.93223 16.454 10.0052C16.5283 10.0783 16.5873 10.1655 16.6276 10.2618C16.6679 10.3581 16.6887 10.4616 16.6887 10.5661C16.6887 10.6706 16.6679 10.774 16.6276 10.8703C16.5873 10.9666 16.5283 11.0539 16.454 11.1269C16.3797 11.1999 16.2916 11.2572 16.195 11.2955C16.0984 11.3337 15.9951 11.3522 15.8913 11.3497Z" fill="#AB2346"/>
<path d="M15.1036 13.7237H12.7154C12.6115 13.7262 12.5083 13.7078 12.4117 13.6695C12.3151 13.6312 12.227 13.5739 12.1527 13.5009C12.0784 13.4279 12.0194 13.3407 11.9791 13.2444C11.9387 13.148 11.918 13.0446 11.918 12.9401C11.918 12.8356 11.9387 12.7321 11.9791 12.6358C12.0194 12.5395 12.0784 12.4523 12.1527 12.3793C12.227 12.3063 12.3151 12.2489 12.4117 12.2107C12.5083 12.1724 12.6115 12.154 12.7154 12.1565H15.1036C15.2074 12.154 15.3106 12.1724 15.4073 12.2107C15.5039 12.2489 15.5919 12.3063 15.6662 12.3793C15.7405 12.4523 15.7996 12.5395 15.8399 12.6358C15.8802 12.7321 15.9009 12.8356 15.9009 12.9401C15.9009 13.0446 15.8802 13.148 15.8399 13.2444C15.7996 13.3407 15.7405 13.4279 15.6662 13.5009C15.5919 13.5739 15.5039 13.6312 15.4073 13.6695C15.3106 13.7078 15.2074 13.7262 15.1036 13.7237Z" fill="#AB2346"/>
<path d="M10.3835 1.85114H8.78469C8.68088 1.85363 8.57762 1.83521 8.48099 1.79695C8.38436 1.75869 8.29631 1.70136 8.22201 1.62835C8.14772 1.55534 8.0887 1.46811 8.04839 1.3718C8.00808 1.27549 7.9873 1.17204 7.9873 1.06753C7.9873 0.963023 8.00808 0.859571 8.04839 0.763259C8.0887 0.666948 8.14772 0.57972 8.22201 0.506708C8.29631 0.433696 8.38436 0.376374 8.48099 0.338113C8.57762 0.299852 8.68088 0.281424 8.78469 0.283914H10.3835C10.4873 0.281424 10.5905 0.299852 10.6872 0.338113C10.7838 0.376374 10.8718 0.433696 10.9461 0.506708C11.0204 0.57972 11.0795 0.666948 11.1198 0.763259C11.1601 0.859571 11.1808 0.963023 11.1808 1.06753C11.1808 1.17204 11.1601 1.27549 11.1198 1.3718C11.0795 1.46811 11.0204 1.55534 10.9461 1.62835C10.8718 1.70136 10.7838 1.75869 10.6872 1.79695C10.5905 1.83521 10.4873 1.85363 10.3835 1.85114Z" fill="#82AEC9"/>
<path d="M10.3829 4.22566H7.22122C7.11741 4.22815 7.01417 4.20972 6.91754 4.17146C6.82091 4.1332 6.73286 4.07588 6.65856 4.00286C6.58427 3.92985 6.52522 3.84262 6.48491 3.74631C6.44461 3.65 6.42383 3.54655 6.42383 3.44204C6.42383 3.33753 6.44461 3.23408 6.48491 3.13777C6.52522 3.04146 6.58427 2.95423 6.65856 2.88122C6.73286 2.80821 6.82091 2.75089 6.91754 2.71262C7.01417 2.67436 7.11741 2.65594 7.22122 2.65843H10.3829C10.4867 2.65594 10.59 2.67436 10.6866 2.71262C10.7833 2.75089 10.8713 2.80821 10.9456 2.88122C11.0199 2.95423 11.079 3.04146 11.1193 3.13777C11.1596 3.23408 11.1803 3.33753 11.1803 3.44204C11.1803 3.54655 11.1596 3.65 11.1193 3.74631C11.079 3.84262 11.0199 3.92985 10.9456 4.00286C10.8713 4.07588 10.7833 4.1332 10.6866 4.17146C10.59 4.20972 10.4867 4.22815 10.3829 4.22566Z" fill="#82AEC9"/>
<path d="M10.3832 6.60065H5.65676C5.55295 6.60314 5.44969 6.58472 5.35306 6.54646C5.25643 6.5082 5.16838 6.45087 5.09408 6.37786C5.01979 6.30485 4.96074 6.21762 4.92043 6.12131C4.88013 6.025 4.85938 5.92155 4.85938 5.81704C4.85938 5.71253 4.88013 5.60908 4.92043 5.51277C4.96074 5.41646 5.01979 5.32923 5.09408 5.25622C5.16838 5.18321 5.25643 5.12589 5.35306 5.08762C5.44969 5.04936 5.55295 5.03094 5.65676 5.03343H10.3832C10.487 5.03094 10.5903 5.04936 10.6869 5.08762C10.7835 5.12589 10.8716 5.18321 10.9459 5.25622C11.0202 5.32923 11.0792 5.41646 11.1195 5.51277C11.1598 5.60908 11.1806 5.71253 11.1806 5.81704C11.1806 5.92155 11.1598 6.025 11.1195 6.12131C11.0792 6.21762 11.0202 6.30485 10.9459 6.37786C10.8716 6.45087 10.7835 6.5082 10.6869 6.54646C10.5903 6.58472 10.487 6.60314 10.3832 6.60065Z" fill="#82AEC9"/>
<path d="M10.3841 8.97468H4.07571C3.9719 8.97717 3.86866 8.95874 3.77203 8.92048C3.6754 8.88222 3.58735 8.8249 3.51306 8.75189C3.43876 8.67887 3.37971 8.59165 3.33941 8.49533C3.2991 8.39902 3.27832 8.29557 3.27832 8.19106C3.27832 8.08656 3.2991 7.9831 3.33941 7.88679C3.37971 7.79048 3.43876 7.70325 3.51306 7.63024C3.58735 7.55723 3.6754 7.49991 3.77203 7.46164C3.86866 7.42338 3.9719 7.40496 4.07571 7.40745H10.3841C10.4879 7.40496 10.5912 7.42338 10.6878 7.46164C10.7844 7.49991 10.8725 7.55723 10.9468 7.63024C11.0211 7.70325 11.0801 7.79048 11.1204 7.88679C11.1607 7.9831 11.1815 8.08656 11.1815 8.19106C11.1815 8.29557 11.1607 8.39902 11.1204 8.49533C11.0801 8.59165 11.0211 8.67887 10.9468 8.75189C10.8725 8.8249 10.7844 8.88222 10.6878 8.92048C10.5912 8.95874 10.4879 8.97717 10.3841 8.97468Z" fill="#82AEC9"/>
<path d="M20.609 8.97468H12.7173C12.6135 8.97717 12.5102 8.95874 12.4136 8.92048C12.317 8.88222 12.2289 8.8249 12.1546 8.75189C12.0803 8.67887 12.0213 8.59165 11.981 8.49533C11.9407 8.39902 11.9199 8.29557 11.9199 8.19106C11.9199 8.08656 11.9407 7.9831 11.981 7.88679C12.0213 7.79048 12.0803 7.70325 12.1546 7.63024C12.2289 7.55723 12.317 7.49991 12.4136 7.46164C12.5102 7.42338 12.6135 7.40496 12.7173 7.40745H20.609C20.7128 7.40496 20.8161 7.42338 20.9127 7.46164C21.0093 7.49991 21.0974 7.55723 21.1717 7.63024C21.246 7.70325 21.305 7.79048 21.3453 7.88679C21.3856 7.9831 21.4064 8.08656 21.4064 8.19106C21.4064 8.29557 21.3856 8.39902 21.3453 8.49533C21.305 8.59165 21.246 8.67887 21.1717 8.75189C21.0974 8.8249 21.0093 8.88222 20.9127 8.92048C20.8161 8.95874 20.7128 8.97717 20.609 8.97468Z" fill="#82AEC9"/>
<path d="M10.3841 11.3497H5.65188C5.54807 11.3522 5.44483 11.3337 5.3482 11.2955C5.25157 11.2572 5.16352 11.1999 5.08923 11.1269C5.01493 11.0539 4.95589 10.9666 4.91558 10.8703C4.87527 10.774 4.85449 10.6706 4.85449 10.5661C4.85449 10.4616 4.87527 10.3581 4.91558 10.2618C4.95589 10.1655 5.01493 10.0783 5.08923 10.0052C5.16352 9.93223 5.25157 9.87491 5.3482 9.83665C5.44483 9.79839 5.54807 9.77996 5.65188 9.78245H10.3841C10.4879 9.77996 10.5912 9.79839 10.6878 9.83665C10.7844 9.87491 10.8724 9.93223 10.9467 10.0052C11.021 10.0783 11.0801 10.1655 11.1204 10.2618C11.1607 10.3581 11.1815 10.4616 11.1815 10.5661C11.1815 10.6706 11.1607 10.774 11.1204 10.8703C11.0801 10.9666 11.021 11.0539 10.9467 11.1269C10.8724 11.1999 10.7844 11.2572 10.6878 11.2955C10.5912 11.3337 10.4879 11.3522 10.3841 11.3497Z" fill="#82AEC9"/>
<path d="M20.6093 11.3497H18.2241C18.0209 11.3448 17.8275 11.2601 17.6855 11.1137C17.5434 10.9673 17.4639 10.7707 17.4639 10.5661C17.4639 10.3614 17.5434 10.1649 17.6855 10.0185C17.8275 9.87203 18.0209 9.78733 18.2241 9.78245H20.6093C20.7131 9.77996 20.8163 9.79839 20.913 9.83665C21.0096 9.87491 21.0976 9.93223 21.1719 10.0052C21.2462 10.0783 21.3052 10.1655 21.3456 10.2618C21.3859 10.3581 21.4066 10.4616 21.4066 10.5661C21.4066 10.6706 21.3859 10.774 21.3456 10.8703C21.3052 10.9666 21.2462 11.0539 21.1719 11.1269C21.0976 11.1999 21.0096 11.2572 20.913 11.2955C20.8163 11.3337 20.7131 11.3522 20.6093 11.3497Z" fill="#82AEC9"/>
<path d="M10.3833 13.7237H7.21633C7.11252 13.7262 7.00926 13.7078 6.91263 13.6695C6.816 13.6312 6.72795 13.5739 6.65365 13.5009C6.57936 13.4279 6.52031 13.3407 6.48 13.2444C6.4397 13.148 6.41895 13.0446 6.41895 12.9401C6.41895 12.8356 6.4397 12.7321 6.48 12.6358C6.52031 12.5395 6.57936 12.4523 6.65365 12.3793C6.72795 12.3063 6.816 12.2489 6.91263 12.2107C7.00926 12.1724 7.11252 12.154 7.21633 12.1565H10.3833C10.4872 12.154 10.5904 12.1724 10.687 12.2107C10.7837 12.2489 10.8717 12.3063 10.946 12.3793C11.0203 12.4523 11.0794 12.5395 11.1197 12.6358C11.16 12.7321 11.1807 12.8356 11.1807 12.9401C11.1807 13.0446 11.16 13.148 11.1197 13.2444C11.0794 13.3407 11.0203 13.4279 10.946 13.5009C10.8717 13.5739 10.7837 13.6312 10.687 13.6695C10.5904 13.7078 10.4872 13.7262 10.3833 13.7237Z" fill="#82AEC9"/>
<path d="M20.7561 13.7237H17.4497C17.2464 13.7188 17.0531 13.6341 16.911 13.4877C16.769 13.3413 16.6895 13.1447 16.6895 12.9401C16.6895 12.7354 16.769 12.5389 16.911 12.3925C17.0531 12.2461 17.2464 12.1613 17.4497 12.1565H20.7561C20.8599 12.154 20.9631 12.1724 21.0598 12.2107C21.1564 12.2489 21.2444 12.3063 21.3187 12.3793C21.393 12.4523 21.4521 12.5395 21.4924 12.6358C21.5327 12.7321 21.5534 12.8356 21.5534 12.9401C21.5534 13.0446 21.5327 13.148 21.4924 13.2444C21.4521 13.3407 21.393 13.4279 21.3187 13.5009C21.2444 13.5739 21.1564 13.6312 21.0598 13.6695C20.9631 13.7078 20.8599 13.7262 20.7561 13.7237Z" fill="#82AEC9"/>
<path d="M10.3835 16.0992H8.78469C8.68088 16.1017 8.57762 16.0833 8.48099 16.045C8.38436 16.0067 8.29631 15.9494 8.22201 15.8764C8.14772 15.8034 8.0887 15.7162 8.04839 15.6198C8.00808 15.5235 7.9873 15.4201 7.9873 15.3156C7.9873 15.2111 8.00808 15.1076 8.04839 15.0113C8.0887 14.915 8.14772 14.8278 8.22201 14.7548C8.29631 14.6817 8.38436 14.6244 8.48099 14.5862C8.57762 14.5479 8.68088 14.5295 8.78469 14.532H10.3835C10.4873 14.5295 10.5905 14.5479 10.6872 14.5862C10.7838 14.6244 10.8718 14.6817 10.9461 14.7548C11.0204 14.8278 11.0795 14.915 11.1198 15.0113C11.1601 15.1076 11.1808 15.2111 11.1808 15.3156C11.1808 15.4201 11.1601 15.5235 11.1198 15.6198C11.0795 15.7162 11.0204 15.8034 10.9461 15.8764C10.8718 15.9494 10.7838 16.0067 10.6872 16.045C10.5905 16.0833 10.4873 16.1017 10.3835 16.0992Z" fill="#82AEC9"/>
<path d="M15.8913 16.0992H12.7163C12.6125 16.1017 12.5093 16.0833 12.4126 16.045C12.316 16.0067 12.2279 15.9494 12.1537 15.8764C12.0794 15.8034 12.0203 15.7162 11.98 15.6198C11.9397 15.5235 11.9189 15.4201 11.9189 15.3156C11.9189 15.2111 11.9397 15.1076 11.98 15.0113C12.0203 14.915 12.0794 14.8278 12.1537 14.7548C12.2279 14.6817 12.316 14.6244 12.4126 14.5862C12.5093 14.5479 12.6125 14.5295 12.7163 14.532H15.8913C15.9951 14.5295 16.0984 14.5479 16.195 14.5862C16.2916 14.6244 16.3797 14.6817 16.454 14.7548C16.5283 14.8278 16.5873 14.915 16.6276 15.0113C16.6679 15.1076 16.6887 15.2111 16.6887 15.3156C16.6887 15.4201 16.6679 15.5235 16.6276 15.6198C16.5873 15.7162 16.5283 15.8034 16.454 15.8764C16.3797 15.9494 16.2916 16.0067 16.195 16.045C16.0984 16.0833 15.9951 16.1017 15.8913 16.0992Z" fill="#82AEC9"/>
<path d="M7.2522 1.66606C7.2522 1.78446 7.2173 1.90021 7.15194 1.99866C7.08658 2.09711 6.99367 2.17384 6.88498 2.21916C6.77628 2.26447 6.65668 2.27632 6.5413 2.25322C6.42591 2.23012 6.31992 2.17311 6.23673 2.08938C6.15354 2.00565 6.09688 1.89898 6.07393 1.78285C6.05098 1.66672 6.06276 1.54635 6.10778 1.43695C6.1528 1.32756 6.22904 1.23406 6.32686 1.16828C6.42468 1.10249 6.53969 1.06738 6.65734 1.06738C6.8151 1.06738 6.9664 1.13046 7.07795 1.24273C7.18951 1.355 7.2522 1.50728 7.2522 1.66606Z" fill="#1D365A"/>
<path d="M7.22973 15.1119C7.22973 15.2303 7.19484 15.346 7.12948 15.4445C7.06412 15.5429 6.97121 15.6196 6.86252 15.665C6.75382 15.7103 6.63422 15.7221 6.51883 15.699C6.40345 15.6759 6.29746 15.6189 6.21427 15.5352C6.13108 15.4515 6.07442 15.3448 6.05147 15.2286C6.02852 15.1125 6.0403 14.9921 6.08532 14.8828C6.13034 14.7734 6.2066 14.6799 6.30442 14.6141C6.40225 14.5483 6.51723 14.5132 6.63488 14.5132C6.79264 14.5132 6.94396 14.5763 7.05552 14.6885C7.16707 14.8008 7.22973 14.9531 7.22973 15.1119Z" fill="#1D365A"/>
<path d="M5.26072 4.22622H4.47437C4.37109 4.22622 4.27204 4.18493 4.19901 4.11143C4.12598 4.03793 4.08496 3.93825 4.08496 3.8343C4.08496 3.73036 4.12598 3.63067 4.19901 3.55717C4.27204 3.48367 4.37109 3.44238 4.47437 3.44238H5.26072C5.36399 3.44238 5.46305 3.48367 5.53608 3.55717C5.60911 3.63067 5.65012 3.73036 5.65012 3.8343C5.65012 3.93825 5.60911 4.03793 5.53608 4.11143C5.46305 4.18493 5.36399 4.22622 5.26072 4.22622Z" fill="#1D365A"/>
<path d="M3.68447 6.60024H2.11402C2.01074 6.60024 1.91169 6.55896 1.83866 6.48546C1.76563 6.41196 1.72461 6.31227 1.72461 6.20833C1.72461 6.10438 1.76563 6.0047 1.83866 5.9312C1.91169 5.8577 2.01074 5.81641 2.11402 5.81641H3.68447C3.78775 5.81641 3.8868 5.8577 3.95983 5.9312C4.03286 6.0047 4.07391 6.10438 4.07391 6.20833C4.07391 6.31227 4.03286 6.41196 3.95983 6.48546C3.8868 6.55896 3.78775 6.60024 3.68447 6.60024Z" fill="#1D365A"/>
<path d="M3.69526 10.5495H1.33667C1.2334 10.5495 1.13437 10.5082 1.06134 10.4347C0.988311 10.3612 0.947266 10.2615 0.947266 10.1575C0.947266 10.0536 0.988311 9.95391 1.06134 9.88041C1.13437 9.80691 1.2334 9.76562 1.33667 9.76562H3.69526C3.79853 9.76562 3.89759 9.80691 3.97062 9.88041C4.04365 9.95391 4.08466 10.0536 4.08466 10.1575C4.08466 10.2615 4.04365 10.3612 3.97062 10.4347C3.89759 10.5082 3.79853 10.5495 3.69526 10.5495Z" fill="#1D365A"/>
<path d="M5.26425 12.9157H4.47437C4.37109 12.9157 4.27204 12.8744 4.19901 12.8009C4.12598 12.7274 4.08496 12.6277 4.08496 12.5238C4.08496 12.4198 4.12598 12.3201 4.19901 12.2466C4.27204 12.1731 4.37109 12.1318 4.47437 12.1318H5.26425C5.36753 12.1318 5.46658 12.1731 5.53961 12.2466C5.61264 12.3201 5.65366 12.4198 5.65366 12.5238C5.65366 12.6277 5.61264 12.7274 5.53961 12.8009C5.46658 12.8744 5.36753 12.9157 5.26425 12.9157Z" fill="#1D365A"/>
<path d="M29.7048 7.67268C29.9162 7.93739 30.0297 8.26779 30.0259 8.60741C30.0319 8.90338 29.9511 9.19457 29.7937 9.44466C29.6285 9.69424 29.3952 9.89052 29.1219 10.0099C28.7944 10.153 28.4399 10.2225 28.083 10.2138H25.54V4.28005H27.9725C28.3272 4.27136 28.6798 4.33794 29.0074 4.47546C29.2754 4.58786 29.5046 4.77718 29.6663 5.01982C29.8166 5.2556 29.8944 5.53072 29.8901 5.81078C29.901 6.12315 29.8041 6.42968 29.6159 6.6783C29.4281 6.91392 29.1731 7.08603 28.8853 7.17148C29.211 7.22988 29.5033 7.40863 29.7048 7.67268ZM26.7222 6.72904H27.804C28.0363 6.74426 28.2665 6.67648 28.4541 6.53765C28.5313 6.46996 28.5921 6.3853 28.6317 6.29022C28.6713 6.19513 28.6886 6.09217 28.6823 5.98927C28.6883 5.88576 28.6709 5.78222 28.6313 5.68646C28.5918 5.59071 28.5312 5.50522 28.4541 5.43645C28.2678 5.29475 28.037 5.22524 27.804 5.2406H26.7222V6.72904ZM28.585 9.04361C28.6663 8.97205 28.7303 8.88269 28.772 8.78239C28.8137 8.68209 28.8321 8.57351 28.8256 8.46497C28.8313 8.35224 28.8114 8.23968 28.7675 8.13581C28.7236 8.03195 28.6568 7.93948 28.5722 7.86541C28.3776 7.71241 28.1346 7.63542 27.888 7.64864H26.7222V9.24703H27.9137C28.1546 9.26185 28.3928 9.18955 28.5854 9.04317" fill="#AB2346"/>
<path d="M32.7402 5.64858C32.9966 5.50387 33.2867 5.43044 33.5806 5.43582V6.68702H33.2679C33.11 6.66131 32.9483 6.67461 32.7966 6.72576C32.645 6.77692 32.508 6.86441 32.3974 6.9807C32.2868 7.09698 32.206 7.23857 32.1619 7.39328C32.1178 7.54799 32.1116 7.71118 32.1441 7.86879V10.2154H30.9619V5.50392H32.1427V6.23524C32.2887 5.99203 32.4937 5.79016 32.7385 5.64858" fill="#AB2346"/>
<path d="M35.3282 9.98903C34.9705 9.79073 34.6761 9.49439 34.4791 9.13442C34.2674 8.74367 34.1607 8.30412 34.1695 7.85918C34.1604 7.41317 34.2697 6.97279 34.4861 6.5835C34.6895 6.22259 34.9896 5.92647 35.3521 5.72889C35.7304 5.53072 36.1506 5.42725 36.5772 5.42725C37.0037 5.42725 37.4239 5.53072 37.8022 5.72889C38.1647 5.92651 38.4647 6.22262 38.6682 6.5835C38.8848 6.97274 38.9943 7.41313 38.9853 7.85918C38.9943 8.30612 38.8819 8.74706 38.6602 9.13442C38.451 9.49525 38.1469 9.79097 37.7814 9.98903C37.4006 10.1933 36.9746 10.2971 36.5431 10.2908C36.1185 10.2974 35.6994 10.1934 35.3264 9.98903M37.1472 9.09614C37.3403 8.98654 37.4974 8.82255 37.5992 8.62432C37.718 8.38742 37.7761 8.12441 37.7682 7.85918C37.7804 7.67224 37.7557 7.4847 37.6956 7.30739C37.6355 7.13008 37.5411 6.9665 37.4179 6.82608C37.3077 6.70933 37.1745 6.61695 37.0268 6.5548C36.8792 6.49266 36.7203 6.46211 36.5603 6.4651C36.4015 6.4616 36.2437 6.49196 36.0974 6.55417C35.9511 6.61639 35.8194 6.70905 35.7112 6.82608C35.4672 7.1121 35.3443 7.483 35.3689 7.85918C35.3442 8.23394 35.4637 8.60388 35.7028 8.89228C35.8089 9.00969 35.9388 9.10274 36.0838 9.1651C36.2288 9.22747 36.3855 9.25769 36.5431 9.25371C36.7545 9.25439 36.9626 9.19984 37.1472 9.09614Z" fill="#AB2346"/>
<path d="M39.8812 6.57568C40.0535 6.22547 40.32 5.93092 40.6503 5.72552C40.9775 5.52617 41.3536 5.42302 41.7361 5.42774C42.0545 5.42047 42.3697 5.49362 42.6529 5.6405C42.8996 5.7691 43.1146 5.95159 43.2822 6.17463V5.5043H44.4737V10.2158H43.2822V9.52631C43.1191 9.75717 42.9033 9.94524 42.6529 10.0747C42.3673 10.2236 42.0492 10.2982 41.7277 10.2915C41.3468 10.2952 40.9729 10.1889 40.6503 9.98522C40.32 9.77414 40.0539 9.47551 39.8812 9.12215C39.6865 8.7245 39.5895 8.28567 39.5982 7.84246C39.5898 7.40328 39.6869 6.96899 39.8812 6.57568ZM43.1128 7.11515C43.008 6.91662 42.8499 6.75174 42.6564 6.63933C42.4691 6.52978 42.2561 6.47247 42.0395 6.4733C41.8219 6.47091 41.6078 6.52871 41.4206 6.64041C41.2335 6.7521 41.0804 6.9134 40.978 7.10669C40.8579 7.33271 40.7982 7.58624 40.8047 7.84246C40.7988 8.10132 40.8585 8.35742 40.978 8.58668C41.0831 8.78865 41.2409 8.95794 41.4345 9.0763C41.6164 9.18785 41.8255 9.24669 42.0386 9.24634C42.2552 9.24723 42.4681 9.19008 42.6555 9.08075C42.8489 8.96811 43.0071 8.8031 43.1119 8.60449C43.2231 8.37241 43.2808 8.11811 43.2808 7.86049C43.2808 7.60287 43.2231 7.34856 43.1119 7.11649" fill="#AB2346"/>
<path d="M45.5742 6.57522C45.7447 6.22592 46.0104 5.93259 46.3401 5.72935C46.6699 5.52612 47.0503 5.42137 47.437 5.42728C47.7384 5.4267 48.036 5.49504 48.3073 5.62713C48.567 5.74715 48.7933 5.92968 48.9663 6.15859V3.92236H50.1661V10.2144H48.9663V9.51739C48.8134 9.75582 48.6008 9.94943 48.3498 10.0787C48.0651 10.2252 47.7487 10.2983 47.429 10.2914C47.047 10.2949 46.6719 10.1887 46.3477 9.9852C46.0156 9.7751 45.7479 9.47631 45.5746 9.12213C45.3799 8.7245 45.2828 8.28565 45.2916 7.84244C45.2831 7.40326 45.3802 6.96852 45.5746 6.57522M48.8062 7.11514C48.7015 6.91666 48.5435 6.75179 48.3502 6.63931C48.163 6.52985 47.9502 6.47254 47.7337 6.47329C47.5161 6.47089 47.3021 6.5287 47.1149 6.64039C46.9277 6.75209 46.7746 6.91338 46.6723 7.10668C46.5522 7.33269 46.4925 7.58622 46.4989 7.84244C46.4931 8.1013 46.5528 8.3574 46.6723 8.58667C46.7773 8.78863 46.9351 8.95792 47.1287 9.07629C47.3107 9.18786 47.5197 9.2467 47.7328 9.24632C47.9493 9.24714 48.1621 9.18999 48.3494 9.08074C48.5426 8.96803 48.7006 8.80302 48.8053 8.60447C48.9166 8.37243 48.9744 8.11811 48.9744 7.86047C48.9744 7.60283 48.9166 7.34851 48.8053 7.11647" fill="#AB2346"/>
<path d="M52.0381 10.082C51.7535 9.95832 51.5049 9.7636 51.3159 9.51629C51.1422 9.28814 51.0406 9.01272 51.0244 8.72577H52.2159C52.2267 8.81524 52.256 8.90146 52.3016 8.97899C52.3473 9.05652 52.4085 9.12368 52.4812 9.17622C52.6488 9.29919 52.8525 9.3619 53.0597 9.35426C53.2455 9.3651 53.43 9.3175 53.5877 9.21806C53.6461 9.18085 53.6942 9.12938 53.7274 9.06844C53.7607 9.00749 53.778 8.93907 53.7779 8.86954C53.7783 8.79523 53.7564 8.72253 53.7149 8.66103C53.6735 8.59952 53.6145 8.55211 53.5457 8.52503C53.3072 8.41936 53.0597 8.33535 52.8063 8.27399C52.5145 8.20692 52.2279 8.11885 51.9487 8.01048C51.7266 7.92013 51.5294 7.77722 51.3738 7.59386C51.2043 7.37976 51.1187 7.11053 51.1332 6.83717C51.132 6.58208 51.2103 6.33302 51.357 6.125C51.52 5.89839 51.7423 5.7218 51.9991 5.6149C52.3106 5.48357 52.646 5.41972 52.9836 5.42751C53.4643 5.40247 53.9379 5.55189 54.3184 5.84858C54.4836 5.98872 54.6178 6.16211 54.7124 6.35759C54.807 6.55307 54.8599 6.76632 54.8677 6.98361H53.7355C53.73 6.89718 53.7064 6.81288 53.6664 6.7362C53.6264 6.65951 53.5708 6.59215 53.5033 6.5385C53.3479 6.43914 53.1693 6.38272 52.9854 6.3749C52.8014 6.36709 52.6187 6.40816 52.4556 6.49399C52.4007 6.52948 52.3559 6.57869 52.3256 6.63682C52.2953 6.69494 52.2805 6.75999 52.2826 6.8256C52.2822 6.90269 52.3044 6.9782 52.3465 7.0426C52.3886 7.107 52.4487 7.15741 52.5193 7.18747C52.7548 7.29677 53.0012 7.38077 53.2543 7.43807C53.5389 7.50614 53.8183 7.59434 54.0906 7.70202C54.3117 7.79371 54.5073 7.93806 54.6607 8.12265C54.8294 8.33612 54.9177 8.60269 54.9101 8.87533C54.9133 9.13665 54.835 9.3924 54.6863 9.60664C54.5238 9.83272 54.3012 10.0081 54.0442 10.1127C53.7349 10.2404 53.4028 10.3025 53.0685 10.2952C52.714 10.3011 52.3624 10.23 52.0376 10.0869" fill="#AB2346"/>
<path d="M57.6762 5.64436C57.959 5.49601 58.2742 5.42148 58.593 5.42759C58.9754 5.42276 59.3515 5.52576 59.6788 5.72493C60.0081 5.92953 60.2745 6.22236 60.4479 6.57064C60.643 6.96509 60.7401 7.40132 60.7309 7.84187C60.7395 8.28507 60.6424 8.72389 60.4479 9.12156C60.275 9.47482 60.0089 9.77341 59.6788 9.98463C59.3534 10.1891 58.9766 10.2954 58.593 10.2909C58.2775 10.2975 57.9653 10.2243 57.685 10.0781C57.4368 9.94827 57.2193 9.76608 57.0473 9.54397V12.4603H55.8643V5.50416H57.0473V6.18428C57.2125 5.95747 57.4276 5.77259 57.6762 5.64436ZM59.3493 7.10655C59.2438 6.90971 59.0859 6.74633 58.8933 6.63473C58.7068 6.52758 58.4955 6.47185 58.2808 6.47316C58.0682 6.47266 57.8595 6.53002 57.6767 6.63918C57.4838 6.75413 57.326 6.92029 57.2207 7.11946C57.1068 7.34921 57.0475 7.60246 57.0475 7.85923C57.0475 8.116 57.1068 8.36925 57.2207 8.599C57.3261 8.79813 57.4838 8.96427 57.6767 9.07927C57.8612 9.18835 58.0716 9.24548 58.2856 9.2447C58.4996 9.24391 58.7095 9.18524 58.8933 9.07482C59.0858 8.9574 59.2433 8.78996 59.3493 8.5901C59.4697 8.35972 59.5294 8.1021 59.5227 7.84187C59.5292 7.58564 59.4694 7.33254 59.3493 7.10655Z" fill="#AB2346"/>
<path d="M65.8923 8.21633H62.4705C62.4805 8.51952 62.6074 8.80687 62.8243 9.01753C63.0334 9.21081 63.3091 9.31457 63.5929 9.30685C63.7882 9.31854 63.9824 9.27029 64.1498 9.16847C64.3172 9.06666 64.45 8.91608 64.5305 8.73667H65.8065C65.6753 9.18471 65.4025 9.57745 65.0294 9.85523C64.6208 10.1554 64.1242 10.3094 63.6186 10.2928C63.1953 10.2996 62.7776 10.1956 62.4064 9.99099C62.0518 9.79294 61.7614 9.49622 61.57 9.13637C61.3643 8.74375 61.2611 8.30493 61.2702 7.86114C61.2604 7.41491 61.3621 6.97336 61.566 6.57699C61.7537 6.21836 62.0415 5.92283 62.394 5.72684C62.768 5.53269 63.1824 5.43069 63.6032 5.42922C64.024 5.42775 64.4392 5.52685 64.8145 5.71838C65.1611 5.90583 65.4458 6.19091 65.634 6.53872C65.8333 6.91374 65.9336 7.33398 65.9254 7.75921C65.9266 7.91284 65.9153 8.06631 65.8918 8.21811M64.7004 7.41692C64.7029 7.27746 64.6746 7.13918 64.6176 7.01204C64.5606 6.88489 64.4764 6.77204 64.3709 6.6816C64.1517 6.49547 63.8721 6.39707 63.5854 6.40518C63.3143 6.39687 63.05 6.4923 62.846 6.67225C62.6376 6.86692 62.507 7.13136 62.4784 7.41603L64.7004 7.41692Z" fill="#AB2346"/>
<path d="M66.9074 6.57948C67.0949 6.22364 67.3791 5.92879 67.7269 5.72932C68.0932 5.52365 68.5073 5.41951 68.9267 5.42754C69.4419 5.40735 69.9489 5.56157 70.3667 5.86553C70.7566 6.17236 71.0272 6.6071 71.1314 7.09403H69.8555C69.7957 6.90103 69.6756 6.7326 69.5131 6.61376C69.3377 6.49304 69.1285 6.43205 68.9161 6.43972C68.7629 6.43338 68.6103 6.46358 68.4709 6.52786C68.3315 6.59214 68.2091 6.68868 68.1138 6.8096C67.9204 7.12378 67.818 7.48603 67.818 7.85561C67.818 8.2252 67.9204 8.58745 68.1138 8.90162C68.2091 9.02254 68.3315 9.11908 68.4709 9.18336C68.6103 9.24764 68.7629 9.27784 68.9161 9.2715C69.1225 9.28933 69.3287 9.23469 69.4996 9.11688C69.6705 8.99906 69.7956 8.82534 69.8537 8.62521H71.1296C71.0183 9.10685 70.747 9.53582 70.3605 9.84124C69.9468 10.1517 69.4402 10.3107 68.9245 10.2917C68.5051 10.2997 68.091 10.1956 67.7247 9.98991C67.377 9.79037 67.0928 9.49554 66.9051 9.13975C66.7106 8.74159 66.6094 8.30379 66.6094 7.86006C66.6094 7.41634 66.7106 6.97854 66.9051 6.58037" fill="#AB2346"/>
<path d="M73.4585 6.48211V8.76107C73.4527 8.82332 73.4599 8.8861 73.4795 8.94542C73.4992 9.00473 73.5308 9.05928 73.5726 9.10559C73.6835 9.1871 73.8202 9.2248 73.9569 9.21152H74.5062V10.2148H73.7628C72.7659 10.2148 72.2675 9.72741 72.2675 8.75262V6.48256H71.708V5.50332H72.2657V4.33936H73.4567V5.50421H74.5044V6.48345L73.4585 6.48211Z" fill="#AB2346"/>
<path d="M77.2538 5.64859C77.5102 5.50386 77.8002 5.43042 78.0941 5.43582V6.68703H77.7814C77.6236 6.6612 77.4618 6.67442 77.3101 6.72554C77.1584 6.77666 77.0214 6.86415 76.9108 6.98046C76.8002 7.09677 76.7193 7.23842 76.6752 7.39318C76.6311 7.54794 76.6251 7.71117 76.6577 7.86879V10.2154H75.4746V5.50393H76.6577V6.23524C76.8036 5.99198 77.009 5.79009 77.2538 5.64859Z" fill="#AB2346"/>
<path d="M83.33 5.50488V10.2155H82.1385V9.62037C81.9827 9.82766 81.7782 9.9927 81.5432 10.1006C81.2933 10.2177 81.0206 10.2772 80.745 10.2747C80.4061 10.2818 80.0711 10.2014 79.772 10.041C79.488 9.88266 79.2571 9.643 79.1086 9.35241C78.9406 9.01668 78.858 8.64431 78.868 8.26857V5.50488H80.051V8.09853C80.0304 8.41142 80.1301 8.72032 80.3297 8.96116C80.4276 9.06325 80.5461 9.14301 80.6773 9.19507C80.8084 9.24713 80.9491 9.27028 81.0899 9.26294C81.232 9.27083 81.3742 9.24798 81.5067 9.19592C81.6393 9.14387 81.7593 9.06381 81.8586 8.96116C82.0582 8.72034 82.1579 8.41143 82.1372 8.09853V5.50488H83.33Z" fill="#AB2346"/>
<path d="M91.7667 5.96785C91.9497 6.1665 92.0909 6.4004 92.1816 6.65545C92.2724 6.9105 92.3109 7.18142 92.2947 7.45185V10.2151H91.1122V7.61298C91.1329 7.30515 91.0327 7.00143 90.833 6.76727C90.7338 6.66756 90.6148 6.58993 90.4839 6.5394C90.3529 6.48887 90.2129 6.46657 90.0728 6.47394C89.9321 6.46688 89.7915 6.48931 89.6599 6.5398C89.5283 6.59029 89.4085 6.66775 89.3081 6.76727C89.208 6.88259 89.1315 7.01665 89.0829 7.16176C89.0344 7.30688 89.0148 7.46021 89.0251 7.61298V10.2151H87.8425V7.61298C87.8631 7.30524 87.7631 7.00162 87.5639 6.76727C87.4646 6.66758 87.3456 6.58997 87.2147 6.53944C87.0837 6.48891 86.9437 6.4666 86.8036 6.47394C86.6616 6.4663 86.5196 6.48842 86.3865 6.53891C86.2534 6.5894 86.1322 6.66717 86.0306 6.76727C85.9305 6.88262 85.854 7.01668 85.8055 7.16179C85.7569 7.30689 85.7372 7.46021 85.7475 7.61298V10.2151H84.5645V5.50449H85.7475V6.07423C85.903 5.87312 86.1045 5.71278 86.3348 5.60687C86.5823 5.49172 86.8521 5.43363 87.1247 5.43684C87.4657 5.43083 87.8027 5.51118 88.1048 5.67052C88.3876 5.82215 88.6198 6.0544 88.7721 6.33818C88.9285 6.0622 89.1582 5.8356 89.4355 5.68387C89.8055 5.48204 90.2287 5.40103 90.6465 5.45207C91.0642 5.50311 91.4559 5.68368 91.7671 5.96874" fill="#AB2346"/>
</svg>
