<svg width="669" height="823" viewBox="0 0 669 823" fill="none" xmlns="http://www.w3.org/2000/svg">
<g filter="url(#filter0_f_2580_6769)">
<path d="M202.677 589.546C119.781 395.047 152.332 515.306 220.472 296.279C216.566 257.79 236.313 219.217 238.266 177.756C240.219 136.295 279.714 150.188 390.17 191.649C500.625 233.11 411.87 248.956 481.963 336.871C552.056 424.786 492.813 555.031 488.907 559.806C485.001 564.582 285.573 784.044 202.677 589.546Z" fill="url(#paint0_linear_2580_6769)" fill-opacity="0.3"/>
<path d="M202.677 589.546C119.781 395.047 152.332 515.306 220.472 296.279C216.566 257.79 236.313 219.217 238.266 177.756C240.219 136.295 279.714 150.188 390.17 191.649C500.625 233.11 411.87 248.956 481.963 336.871C552.056 424.786 492.813 555.031 488.907 559.806C485.001 564.582 285.573 784.044 202.677 589.546Z" stroke="black" stroke-width="0.434079"/>
</g>
<defs>
<filter id="filter0_f_2580_6769" x="0.827316" y="0.170334" width="667.755" height="822.232" filterUnits="userSpaceOnUse" color-interpolation-filters="sRGB">
<feFlood flood-opacity="0" result="BackgroundImageFix"/>
<feBlend mode="normal" in="SourceGraphic" in2="BackgroundImageFix" result="shape"/>
<feGaussianBlur stdDeviation="76.1809" result="effect1_foregroundBlur_2580_6769"/>
</filter>
<linearGradient id="paint0_linear_2580_6769" x1="334.705" y1="152.75" x2="334.705" y2="669.823" gradientUnits="userSpaceOnUse">
<stop stop-color="#BBD432"/>
<stop offset="1" stop-color="#F0C024"/>
</linearGradient>
</defs>
</svg>
