<svg width="230" height="282" viewBox="0 0 230 282" fill="none" xmlns="http://www.w3.org/2000/svg">
<g filter="url(#filter0_f_2580_6891)">
<path d="M69.6442 202.179C41.2613 135.585 52.4064 176.76 75.7368 101.767C74.3994 88.5889 81.1607 75.382 81.8295 61.1861C82.4982 46.9901 96.0209 51.7469 133.84 65.9429C171.659 80.1388 141.27 85.5645 165.269 115.666C189.268 145.767 168.984 190.362 167.647 191.997C166.309 193.632 98.0271 268.774 69.6442 202.179Z" fill="url(#paint0_linear_2580_6891)" fill-opacity="0.3"/>
<path d="M69.6442 202.179C41.2613 135.585 52.4064 176.76 75.7368 101.767C74.3994 88.5889 81.1607 75.382 81.8295 61.1861C82.4982 46.9901 96.0209 51.7469 133.84 65.9429C171.659 80.1388 141.27 85.5645 165.269 115.666C189.268 145.767 168.984 190.362 167.647 191.997C166.309 193.632 98.0271 268.774 69.6442 202.179Z" stroke="black" stroke-width="0.148625"/>
</g>
<defs>
<filter id="filter0_f_2580_6891" x="0.532543" y="0.382397" width="228.634" height="281.525" filterUnits="userSpaceOnUse" color-interpolation-filters="sRGB">
<feFlood flood-opacity="0" result="BackgroundImageFix"/>
<feBlend mode="normal" in="SourceGraphic" in2="BackgroundImageFix" result="shape"/>
<feGaussianBlur stdDeviation="26.0837" result="effect1_foregroundBlur_2580_6891"/>
</filter>
<linearGradient id="paint0_linear_2580_6891" x1="114.849" y1="52.624" x2="114.849" y2="229.665" gradientUnits="userSpaceOnUse">
<stop stop-color="#BBD432"/>
<stop offset="1" stop-color="#F0C024"/>
</linearGradient>
</defs>
</svg>
