<svg width="743" height="914" viewBox="0 0 743 914" fill="none" xmlns="http://www.w3.org/2000/svg">
<g filter="url(#filter0_f_2564_10785)">
<path d="M224.369 655.125C132.249 438.982 168.422 572.624 244.144 329.223C239.803 286.451 261.748 243.586 263.919 197.511C266.089 151.436 309.979 166.875 432.726 212.95C555.473 259.025 456.841 276.635 534.734 374.333C612.627 472.031 546.792 616.769 542.451 622.076C538.11 627.383 316.49 871.267 224.369 655.125Z" fill="url(#paint0_linear_2564_10785)" fill-opacity="0.5"/>
<path d="M224.369 655.125C132.249 438.982 168.422 572.624 244.144 329.223C239.803 286.451 261.748 243.586 263.919 197.511C266.089 151.436 309.979 166.875 432.726 212.95C555.473 259.025 456.841 276.635 534.734 374.333C612.627 472.031 546.792 616.769 542.451 622.076C538.11 627.383 316.49 871.267 224.369 655.125Z" stroke="black" stroke-width="0.482384"/>
</g>
<defs>
<filter id="filter0_f_2564_10785" x="0.0575256" y="0.163727" width="742.063" height="913.729" filterUnits="userSpaceOnUse" color-interpolation-filters="sRGB">
<feFlood flood-opacity="0" result="BackgroundImageFix"/>
<feBlend mode="normal" in="SourceGraphic" in2="BackgroundImageFix" result="shape"/>
<feGaussianBlur stdDeviation="84.6584" result="effect1_foregroundBlur_2564_10785"/>
</filter>
<linearGradient id="paint0_linear_2564_10785" x1="371.089" y1="169.722" x2="371.089" y2="744.335" gradientUnits="userSpaceOnUse">
<stop stop-color="white"/>
<stop offset="1" stop-color="#D9D2BC"/>
</linearGradient>
</defs>
</svg>
