<svg width="367" height="451" viewBox="0 0 367 451" fill="none" xmlns="http://www.w3.org/2000/svg">
<g filter="url(#filter0_f_2287_1811)">
<path d="M111.44 322.937C66.0209 216.403 83.8558 282.273 121.19 162.304C119.05 141.222 129.87 120.094 130.94 97.3845C132.01 74.6748 153.65 82.2844 214.169 104.994C274.689 127.704 226.059 136.384 264.464 184.538C302.868 232.692 270.409 304.032 268.269 306.647C266.128 309.263 156.86 429.47 111.44 322.937Z" fill="url(#paint0_linear_2287_1811)" fill-opacity="0.3"/>
<path d="M111.44 322.937C66.0209 216.403 83.8558 282.273 121.19 162.304C119.05 141.222 129.87 120.094 130.94 97.3845C132.01 74.6748 153.65 82.2844 214.169 104.994C274.689 127.704 226.059 136.384 264.464 184.538C302.868 232.692 270.409 304.032 268.269 306.647C266.128 309.263 156.86 429.47 111.44 322.937Z" stroke="black" stroke-width="0.237799"/>
</g>
<defs>
<filter id="filter0_f_2287_1811" x="0.857857" y="0.101021" width="365.843" height="450.393" filterUnits="userSpaceOnUse" color-interpolation-filters="sRGB">
<feFlood flood-opacity="0" result="BackgroundImageFix"/>
<feBlend mode="normal" in="SourceGraphic" in2="BackgroundImageFix" result="shape"/>
<feGaussianBlur stdDeviation="41.7337" result="effect1_foregroundBlur_2287_1811"/>
</filter>
<linearGradient id="paint0_linear_2287_1811" x1="183.78" y1="83.6875" x2="183.78" y2="366.907" gradientUnits="userSpaceOnUse">
<stop stop-color="#BBD432"/>
<stop offset="1" stop-color="#F0C024"/>
</linearGradient>
</defs>
</svg>
