<svg width="669" height="823" viewBox="0 0 669 823" fill="none" xmlns="http://www.w3.org/2000/svg">
<g filter="url(#filter0_f_2580_6764)">
<path d="M202.8 589.488C119.904 394.99 152.455 515.249 220.595 296.221C216.689 257.732 236.436 219.16 238.389 177.699C240.342 136.237 279.837 150.13 390.293 191.591C500.749 233.052 411.993 248.899 482.086 336.814C552.179 424.729 492.936 554.973 489.03 559.749C485.124 564.524 285.696 783.986 202.8 589.488Z" fill="url(#paint0_linear_2580_6764)" fill-opacity="0.5"/>
<path d="M202.8 589.488C119.904 394.99 152.455 515.249 220.595 296.221C216.689 257.732 236.436 219.16 238.389 177.699C240.342 136.237 279.837 150.13 390.293 191.591C500.749 233.052 411.993 248.899 482.086 336.814C552.179 424.729 492.936 554.973 489.03 559.749C485.124 564.524 285.696 783.986 202.8 589.488Z" stroke="black" stroke-width="0.434079"/>
</g>
<defs>
<filter id="filter0_f_2580_6764" x="0.950363" y="0.112717" width="667.755" height="822.232" filterUnits="userSpaceOnUse" color-interpolation-filters="sRGB">
<feFlood flood-opacity="0" result="BackgroundImageFix"/>
<feBlend mode="normal" in="SourceGraphic" in2="BackgroundImageFix" result="shape"/>
<feGaussianBlur stdDeviation="76.1809" result="effect1_foregroundBlur_2580_6764"/>
</filter>
<linearGradient id="paint0_linear_2580_6764" x1="334.828" y1="152.692" x2="334.828" y2="669.765" gradientUnits="userSpaceOnUse">
<stop stop-color="white"/>
<stop offset="1" stop-color="#D9D2BC"/>
</linearGradient>
</defs>
</svg>
