<svg width="963" height="1185" viewBox="0 0 963 1185" fill="none" xmlns="http://www.w3.org/2000/svg">
<g filter="url(#filter0_f_2580_226)">
<path d="M291.591 848.953C172.234 568.907 219.102 742.061 317.212 426.697C311.587 371.279 340.021 315.741 342.833 256.044C345.645 196.346 402.511 216.35 561.549 276.047C720.587 335.744 592.794 358.56 693.717 485.144C794.639 611.727 709.339 799.258 703.715 806.134C698.091 813.01 410.947 1129 291.591 848.953Z" fill="url(#paint0_linear_2580_226)" fill-opacity="0.3"/>
<path d="M291.591 848.953C172.234 568.907 219.102 742.061 317.212 426.697C311.587 371.279 340.021 315.741 342.833 256.044C345.645 196.346 402.511 216.35 561.549 276.047C720.587 335.744 592.794 358.56 693.717 485.144C794.639 611.727 709.339 799.258 703.715 806.134C698.091 813.01 410.947 1129 291.591 848.953Z" stroke="black" stroke-width="0.625004"/>
</g>
<defs>
<filter id="filter0_f_2580_226" x="0.959396" y="0.349289" width="961.459" height="1183.88" filterUnits="userSpaceOnUse" color-interpolation-filters="sRGB">
<feFlood flood-opacity="0" result="BackgroundImageFix"/>
<feBlend mode="normal" in="SourceGraphic" in2="BackgroundImageFix" result="shape"/>
<feGaussianBlur stdDeviation="109.688" result="effect1_foregroundBlur_2580_226"/>
</filter>
<linearGradient id="paint0_linear_2580_226" x1="481.689" y1="220.038" x2="481.689" y2="964.539" gradientUnits="userSpaceOnUse">
<stop stop-color="#BBD432"/>
<stop offset="1" stop-color="#F0C024"/>
</linearGradient>
</defs>
</svg>
