<svg width="367" height="452" viewBox="0 0 367 452" fill="none" xmlns="http://www.w3.org/2000/svg">
<g filter="url(#filter0_f_2287_1806)">
<path d="M111.076 323.506C65.6566 216.972 83.4915 282.842 120.826 162.873C118.686 141.791 129.506 120.664 130.576 97.9539C131.646 75.2441 153.285 82.8537 213.805 105.563C274.325 128.273 225.695 136.953 264.1 185.107C302.504 233.261 270.045 304.601 267.904 307.217C265.764 309.833 156.496 430.04 111.076 323.506Z" fill="url(#paint0_linear_2287_1806)" fill-opacity="0.5"/>
<path d="M111.076 323.506C65.6566 216.972 83.4915 282.842 120.826 162.873C118.686 141.791 129.506 120.664 130.576 97.9539C131.646 75.2441 153.285 82.8537 213.805 105.563C274.325 128.273 225.695 136.953 264.1 185.107C302.504 233.261 270.045 304.601 267.904 307.217C265.764 309.833 156.496 430.04 111.076 323.506Z" stroke="black" stroke-width="0.237799"/>
</g>
<defs>
<filter id="filter0_f_2287_1806" x="0.493599" y="0.670357" width="365.843" height="450.393" filterUnits="userSpaceOnUse" color-interpolation-filters="sRGB">
<feFlood flood-opacity="0" result="BackgroundImageFix"/>
<feBlend mode="normal" in="SourceGraphic" in2="BackgroundImageFix" result="shape"/>
<feGaussianBlur stdDeviation="41.7337" result="effect1_foregroundBlur_2287_1806"/>
</filter>
<linearGradient id="paint0_linear_2287_1806" x1="183.415" y1="84.2568" x2="183.415" y2="367.477" gradientUnits="userSpaceOnUse">
<stop stop-color="white"/>
<stop offset="1" stop-color="#D9D2BC"/>
</linearGradient>
</defs>
</svg>
