<svg width="290" height="357" viewBox="0 0 290 357" fill="none" xmlns="http://www.w3.org/2000/svg">
<g filter="url(#filter0_f_2287_1806)">
<path d="M88.0145 256.046C52.1099 171.803 66.2086 223.891 95.7217 129.024C94.0299 112.353 102.583 95.6465 103.429 77.6885C104.275 59.7305 121.381 65.7479 169.223 83.7058C217.064 101.664 178.622 108.527 208.981 146.606C239.34 184.684 213.68 241.097 211.989 243.165C210.297 245.233 123.919 340.289 88.0145 256.046Z" fill="url(#paint0_linear_2287_1806)" fill-opacity="0.5"/>
<path d="M88.0145 256.046C52.1099 171.803 66.2086 223.891 95.7217 129.024C94.0299 112.353 102.583 95.6465 103.429 77.6885C104.275 59.7305 121.381 65.7479 169.223 83.7058C217.064 101.664 178.622 108.527 208.981 146.606C239.34 184.684 213.68 241.097 211.989 243.165C210.297 245.233 123.919 340.289 88.0145 256.046Z" stroke="black" stroke-width="0.188012"/>
</g>
<defs>
<filter id="filter0_f_2287_1806" x="0.587929" y="0.771523" width="289.223" height="356.131" filterUnits="userSpaceOnUse" color-interpolation-filters="sRGB">
<feFlood flood-opacity="0" result="BackgroundImageFix"/>
<feBlend mode="normal" in="SourceGraphic" in2="BackgroundImageFix" result="shape"/>
<feGaussianBlur stdDeviation="32.9961" result="effect1_foregroundBlur_2287_1806"/>
</filter>
<linearGradient id="paint0_linear_2287_1806" x1="145.199" y1="66.8574" x2="145.199" y2="290.816" gradientUnits="userSpaceOnUse">
<stop stop-color="white"/>
<stop offset="1" stop-color="#D9D2BC"/>
</linearGradient>
</defs>
</svg>
