<svg width="1539" height="1895" viewBox="0 0 1539 1895" fill="none" xmlns="http://www.w3.org/2000/svg">
<g filter="url(#filter0_f_1586_96627)">
<path d="M465.525 1358.28C274.525 910.284 349.525 1187.28 506.525 682.784C497.525 594.13 543.025 505.284 547.525 409.784C552.025 314.284 643.025 346.284 897.524 441.784C1152.02 537.284 947.525 573.784 1109.02 776.284C1270.52 978.784 1134.02 1278.78 1125.02 1289.78C1116.02 1300.78 656.525 1806.28 465.525 1358.28Z" fill="url(#paint0_linear_1586_96627)" fill-opacity="0.5"/>
<path d="M465.525 1358.28C274.525 910.284 349.525 1187.28 506.525 682.784C497.525 594.13 543.025 505.284 547.525 409.784C552.025 314.284 643.025 346.284 897.524 441.784C1152.02 537.284 947.525 573.784 1109.02 776.284C1270.52 978.784 1134.02 1278.78 1125.02 1289.78C1116.02 1300.78 656.525 1806.28 465.525 1358.28Z" stroke="black"/>
</g>
<defs>
<filter id="filter0_f_1586_96627" x="0.5" y="0.68457" width="1538.46" height="1894.01" filterUnits="userSpaceOnUse" color-interpolation-filters="sRGB">
<feFlood flood-opacity="0" result="BackgroundImageFix"/>
<feBlend mode="normal" in="SourceGraphic" in2="BackgroundImageFix" result="shape"/>
<feGaussianBlur stdDeviation="175.5" result="effect1_foregroundBlur_1586_96627"/>
</filter>
<linearGradient id="paint0_linear_1586_96627" x1="769.728" y1="352.185" x2="769.728" y2="1543.19" gradientUnits="userSpaceOnUse">
<stop stop-color="white"/>
<stop offset="1" stop-color="#D9D2BC"/>
</linearGradient>
</defs>
</svg>
