<svg width="1069" height="1316" viewBox="0 0 1069 1316" fill="none" xmlns="http://www.w3.org/2000/svg">
<g filter="url(#filter0_f_2287_1683)">
<path d="M323.172 943.29C190.518 632.144 242.607 824.527 351.647 474.14C345.397 412.568 376.997 350.862 380.123 284.535C383.248 218.208 446.449 240.433 623.205 306.76C799.961 373.087 657.932 398.437 770.097 539.078C882.263 679.719 787.46 888.076 781.21 895.715C774.959 903.355 455.826 1254.44 323.172 943.29Z" fill="url(#paint0_linear_2287_1683)" fill-opacity="0.5"/>
<path d="M323.172 943.29C190.518 632.144 242.607 824.527 351.647 474.14C345.397 412.568 376.997 350.862 380.123 284.535C383.248 218.208 446.449 240.433 623.205 306.76C799.961 373.087 657.932 398.437 770.097 539.078C882.263 679.719 787.46 888.076 781.21 895.715C774.959 903.355 455.826 1254.44 323.172 943.29Z" stroke="black" stroke-width="0.694523"/>
</g>
<defs>
<filter id="filter0_f_2287_1683" x="0.200943" y="0.406021" width="1068.49" height="1315.43" filterUnits="userSpaceOnUse" color-interpolation-filters="sRGB">
<feFlood flood-opacity="0" result="BackgroundImageFix"/>
<feBlend mode="normal" in="SourceGraphic" in2="BackgroundImageFix" result="shape"/>
<feGaussianBlur stdDeviation="121.889" result="effect1_foregroundBlur_2287_1683"/>
</filter>
<linearGradient id="paint0_linear_2287_1683" x1="534.448" y1="244.531" x2="534.448" y2="1071.71" gradientUnits="userSpaceOnUse">
<stop stop-color="white"/>
<stop offset="1" stop-color="#D9D2BC"/>
</linearGradient>
</defs>
</svg>
