<svg width="290" height="357" viewBox="0 0 290 357" fill="none" xmlns="http://www.w3.org/2000/svg">
<g filter="url(#filter0_f_2287_1811)">
<path d="M87.4754 256.071C51.5709 171.829 65.6695 223.916 95.1827 129.049C93.4908 112.379 102.044 95.6718 102.89 77.7139C103.736 59.7559 120.842 65.7733 168.684 83.7312C216.525 101.689 178.083 108.553 208.442 146.631C238.801 184.71 213.141 241.122 211.45 243.19C209.758 245.259 123.38 340.314 87.4754 256.071Z" fill="url(#paint0_linear_2287_1811)" fill-opacity="0.3"/>
<path d="M87.4754 256.071C51.5709 171.829 65.6695 223.916 95.1827 129.049C93.4908 112.379 102.044 95.6718 102.89 77.7139C103.736 59.7559 120.842 65.7733 168.684 83.7312C216.525 101.689 178.083 108.553 208.442 146.631C238.801 184.71 213.141 241.122 211.45 243.19C209.758 245.259 123.38 340.314 87.4754 256.071Z" stroke="black" stroke-width="0.188012"/>
</g>
<defs>
<filter id="filter0_f_2287_1811" x="0.0488663" y="0.796913" width="289.223" height="356.131" filterUnits="userSpaceOnUse" color-interpolation-filters="sRGB">
<feFlood flood-opacity="0" result="BackgroundImageFix"/>
<feBlend mode="normal" in="SourceGraphic" in2="BackgroundImageFix" result="shape"/>
<feGaussianBlur stdDeviation="32.9961" result="effect1_foregroundBlur_2287_1811"/>
</filter>
<linearGradient id="paint0_linear_2287_1811" x1="144.66" y1="66.8828" x2="144.66" y2="290.842" gradientUnits="userSpaceOnUse">
<stop stop-color="#BBD432"/>
<stop offset="1" stop-color="#F0C024"/>
</linearGradient>
</defs>
</svg>
